<svg xmlns="http://www.w3.org/2000/svg" viewBox="0 0 2261.9 684.49"><defs><style>.a{fill:#2e2d2c;fill-rule:evenodd;}.b{fill:#1d1d1b;}.c{fill:#34a936;}.c,.e{opacity:0.5;}.d{fill:#fff;}.e,.f{fill:#0bbbef;}.g,.h{fill:#1a371e;}.h,.i{opacity:0.8;}.i{fill:#84b085;}.j{opacity:0.63;}</style></defs><path class="a" d="M.74,535.56V102.31C.74,30,30.68,0,103,0H2081.18c72.29,0,102.23,30,102.23,102.27V535.56c0,72.32-29.94,102.27-102.23,102.27H103C30.68,637.83.74,607.88.74,535.56Z"/><rect class="b" x="1514.89" y="62.4" width="25.51" height="513.07"/><path class="b" d="M2093.55,62.4c19.86,0,27.53,7.66,27.53,27.53v458c0,19.87-7.67,27.54-27.53,27.54H90.6c-19.86,0-27.53-7.67-27.53-27.54v-458c0-19.87,7.67-27.53,27.53-27.53h2003m0-25.51H90.6c-17.14,0-30,4.51-39.25,13.79S37.57,72.8,37.57,89.93v458c0,17.14,4.5,30,13.78,39.25S73.46,601,90.6,601h2003c17.14,0,30-4.52,39.25-13.8s13.78-22.11,13.78-39.25v-458c0-17.13-4.51-30-13.78-39.25s-22.11-13.79-39.25-13.79Z"/><rect class="c" x="0.74" y="465.18" width="1514.15" height="60.42"/><rect class="c" x="0.74" y="108.23" width="1514.15" height="70.87"/><rect class="c" x="0.74" y="241.23" width="1514.15" height="161.57"/><rect class="c" x="1540.4" y="151" width="552.07" height="210.06"/><rect class="c" x="1540.4" y="465.52" width="552.07" height="60.09"/><path class="d" d="M581.32,297.31h-.69L553,381.26H522.9l-27.83-83.95h-.69l-9.66,105.11H455.28l15-161h32.89l34.5,103.5h.69l34.5-103.5H605.7l14.95,161H591.21Z"/><path class="d" d="M767.16,295.7h-.69L694.71,402.42H670.1v-161h29.44v107h.69l71.76-107H796.6v161H767.16Z"/><path class="d" d="M882.39,345.84v56.58H853v-161h52.67c30.59,0,53.59,17.71,53.59,52.21s-23,52.21-53.59,52.21Zm0-77.74v51.06h22.77c14,0,23.46-9.43,23.46-25.53s-9.43-25.53-23.46-25.53Z"/><path class="d" d="M1070.3,367.23h-51.06l-10.58,35.19h-31l53.82-161h26.91l53.82,161h-31.05Zm-43.24-26h35.42l-17.25-58.42h-.92Z"/><path class="d" d="M484.3,517.79h-8.92l-12.07-36.22H463l-4.08,44h-9.18l5.52-59.51h11.31l13.17,39.11H480l13.17-39.11h11.31L510,525.61H500.8l-4.08-44h-.34Z"/><path class="d" d="M535.05,525.61v-8.16h9.77V474.26h-9.77V466.1H564.2l-1.7,8.16H554v43.19h9.78v8.16Z"/><path class="d" d="M628.12,483.78c0,9.18-5.1,14.71-12.32,16.66l15.55,25.17-9.94.85L605.85,501.3h-5.27v24.31H591.4V466.1h18.11C619.79,466.1,628.12,472.14,628.12,483.78Zm-27.54-9.52v18.87h8.5c5.44,0,9.52-3.4,9.52-9.35s-4.08-9.52-9.52-9.52Z"/><path class="d" d="M650.47,525.61l19.9-59.51h9.09l19.89,59.51h-9.77l-4.25-13.86H664.42l-4.17,13.86Zm24.66-47.35h-.43l-7.9,25.58H683Z"/><path class="d" d="M787.16,510.22c0-5.87-5.7-9.1-12.25-11.65-7.65-3-16.4-7.31-16.4-17.17,0-10.2,7.22-16.15,19.29-16.15a33.75,33.75,0,0,1,17,4.59l-4.34,7.23a22.73,22.73,0,0,0-12.67-3.66c-6.46,0-9.77,2.64-9.77,7.48s5.86,8,11.05,10c9.35,3.66,17.6,7.74,17.6,18.79,0,10.54-7.4,16.75-20.75,16.75a32.44,32.44,0,0,1-18.78-5.27l4.84-7.48a22.15,22.15,0,0,0,13.94,4.59C782.56,518.3,787.16,515.75,787.16,510.22Z"/><path class="d" d="M844.36,474.26v51.35h-9.18V474.26H817.5V466.1h44.63l-1.7,8.16Z"/><path class="d" d="M923.07,483.78c0,9.18-5.1,14.71-12.33,16.66l15.56,25.17-9.95.85L900.8,501.3h-5.27v24.31h-9.18V466.1h18.1C914.74,466.1,923.07,472.14,923.07,483.78Zm-27.54-9.52v18.87H904c5.44,0,9.52-3.4,9.52-9.35s-4.08-9.52-9.52-9.52Z"/><path class="d" d="M951.37,525.61V466.1H985l-1.7,8.16H960.55v16.49h20.23v8.16H960.55v18.54H985v8.16Z"/><path class="d" d="M1013.51,525.61V466.1h33.66l-1.7,8.16h-22.78v16.49h20.23v8.16h-20.23v18.54h24.48v8.16Z"/><path class="d" d="M1096.55,474.26v51.35h-9.18V474.26h-17.68V466.1h44.63l-1.7,8.16Z"/><path class="d" d="M626.35,141.87h.3l11.7-33.21h16.3l-20.7,55c-3.3,8.7-8.6,16-18.2,16a20.25,20.25,0,0,1-12-3.5l6.7-11.4a6.6,6.6,0,0,0,4,1.3c1.7,0,3.6-1,5.1-4.9l1.5-3.9h-4.4l-20.1-48.61h16.6Z"/><path class="d" d="M687,122.26c0,38.11-6.4,56.91-21.1,56.91a21.16,21.16,0,0,1-7.7-1.4l2.9-12.9a4.77,4.77,0,0,0,2.2.5c6.5,0,8.9-14.3,8.9-53.71v-3h43.5v70h-14.8V122.26Z"/><path class="d" d="M785.35,133.67h-.3l-27.4,45h-13.5v-70H759v45h.3l27.4-45h13.5v70h-14.8Z"/><path class="d" d="M828.65,178.67v-70h14.8v56.41h23.7V108.66H882v56.41h9l-2,28.3h-12.8v-14.7Z"/><path class="d" d="M945.85,164.37h-20.3l-4.1,14.3H905.94l22.41-70h14.7l22.4,70H950Zm-10-36.4h-.4l-6.1,23.1h12.7Z"/><rect class="e" x="0.36" width="90.71" height="637.83"/><rect class="e" x="2092.47" y="0.04" width="90.71" height="637.8"/><path class="f" d="M1076.87,663h-12l.7-3.36h15.22v3l-8.54,21.49h-4Z"/><path class="f" d="M1095.73,663h-12l.7-3.36h15.23v3l-8.54,21.49h-4Z"/><path class="f" d="M1110.61,684.49c-5.39,0-8.58-4.31-8.58-12.6s3.19-12.6,8.58-12.6,8.57,4.3,8.57,12.6S1116,684.49,1110.61,684.49Zm0-3.36c2.8,0,4.76-2.73,4.76-9.24s-2-9.24-4.76-9.24-4.76,2.73-4.76,9.24S1107.81,681.13,1110.61,681.13Z"/><path class="f" d="M2214.55,323.72h10l-.7,3.36h-14.7v-3c4.79-3.6,10.88-10,10.88-14.66,0-2.35-1.15-3.82-3.64-3.82a9.47,9.47,0,0,0-5.14,1.65l-1.68-2.94a13.92,13.92,0,0,1,7.49-2.07c4.3,0,6.79,2.45,6.79,6.72,0,5.39-5,11.24-9.28,14.63Z"/><path class="f" d="M2233.42,323.72h10l-.7,3.36H2228v-3c4.8-3.6,10.89-10,10.89-14.66,0-2.35-1.16-3.82-3.64-3.82a9.53,9.53,0,0,0-5.15,1.65l-1.68-2.94a13.92,13.92,0,0,1,7.49-2.07c4.31,0,6.79,2.45,6.79,6.72,0,5.39-5,11.24-9.27,14.63Z"/><path class="f" d="M2258.44,319.21a4.78,4.78,0,0,0-5.11-5,12.36,12.36,0,0,0-5.07,1.05V302.58h13.09l-.7,3.36h-8.72v5.25a12,12,0,0,1,2.17-.21c4.48,0,8.16,2.66,8.16,8.23,0,5.39-3.85,8.22-8.3,8.22a12.26,12.26,0,0,1-7.1-2.06l1.78-2.94a8.47,8.47,0,0,0,5.08,1.64A4.47,4.47,0,0,0,2258.44,319.21Z"/><path class="g" d="M1181.5,136.55v-3.5h2.69v-11h-2.69v-3.5h9.32l-.51,3.5H1188v11h2.7v3.5Z"/><path class="g" d="M1193.16,127c0-2.31,2-3.8,4.78-3.8a11,11,0,0,1,4.4.9l-1.31,3a7.72,7.72,0,0,0-2.91-.62c-.82,0-1.31.26-1.31.72s.44.85,1.67,1.23c1.9.59,4.17,1.8,4.17,4.35s-2,4.05-5.09,4.05a12.12,12.12,0,0,1-4.68-.92l1.31-3.06a8.73,8.73,0,0,0,3.29.72c.9,0,1.52-.41,1.52-1,0-.75-.93-1.08-2.21-1.47C1195.22,130.64,1193.16,129.82,1193.16,127Z"/><path class="g" d="M1208.3,131.38a3,3,0,0,0,3.08,2.16,7.42,7.42,0,0,0,3.06-.79l1.34,2.95a10.78,10.78,0,0,1-4.66,1.1c-3.8,0-6.68-2.38-6.68-6.8s2.39-6.81,6.2-6.81c3.57,0,5.62,2.21,5.62,5.39a12.21,12.21,0,0,1-.28,2.8Zm4.6-2.85a2,2,0,0,0-2.21-2.08,2.34,2.34,0,0,0-2.47,2.08Z"/><path class="g" d="M1223.2,132.62c0,.69.49.92,1.13.92a9,9,0,0,0,2.14-.31l.74,3.11a11.43,11.43,0,0,1-3.18.46c-2.37,0-4.53-1-4.53-4.18v-5.91h-2v-3.27h2V119.9l3.7-.52v4.06h3.73l-.52,3.27h-3.21Z"/><path class="g" d="M1235.46,123.19c0-3.22,2.36-4.89,6.09-4.89a11.25,11.25,0,0,1,5.4,1.39l-1.83,3.06a6.82,6.82,0,0,0-3.57-1c-1.34,0-2.18.54-2.18,1.39,0,1.15,1.31,1.9,2.72,2.46,2.83,1.11,5.42,2.68,5.42,6,0,3.18-2.49,5.13-6.52,5.13a10.67,10.67,0,0,1-5.94-1.59l2.08-3.08a6.46,6.46,0,0,0,3.86,1.18c1.43,0,2.62-.74,2.62-1.82,0-1.37-1.29-2-3.09-2.7C1238.21,127.89,1235.46,126.32,1235.46,123.19Z"/><path class="g" d="M1256.79,135.55a4.52,4.52,0,0,1-3,1.13c-2.5,0-4.32-1.31-4.32-4,0-2.49,2-3.95,4.86-3.95h2.23V128c0-.93-.59-1.52-1.82-1.52a10.48,10.48,0,0,0-3.45.64l-1.13-3.06a14.1,14.1,0,0,1,4.89-.84c4,0,5.21,2.1,5.21,4.83v4.47a.83.83,0,0,0,.93.92h.28v2.73a4.55,4.55,0,0,1-2.08.54,2.68,2.68,0,0,1-2.47-1.13Zm-2.62-1.85a3.73,3.73,0,0,0,2.36-.9v-1.34h-2.23c-.88,0-1.44.49-1.44,1.18S1253.4,133.7,1254.17,133.7Z"/><path class="g" d="M1267.45,136.55h-3.7V123.44h2.93l.52.88h.1a5.08,5.08,0,0,1,3.16-1.13c2.75,0,4.34,1.8,4.34,5.24v8.12h-3.7v-8.12c0-1.42-.59-2-1.51-2a2.88,2.88,0,0,0-2.14,1.31Z"/><path class="g" d="M1277.53,127c0-2.31,2-3.8,4.78-3.8a11,11,0,0,1,4.39.9l-1.31,3a7.67,7.67,0,0,0-2.9-.62c-.83,0-1.31.26-1.31.72s.43.85,1.67,1.23c1.9.59,4.16,1.8,4.16,4.35s-2,4.05-5.09,4.05a12.2,12.2,0,0,1-4.68-.92l1.31-3.06a8.77,8.77,0,0,0,3.29.72c.9,0,1.52-.41,1.52-1,0-.75-.93-1.08-2.21-1.47C1279.58,130.64,1277.53,129.82,1277.53,127Z"/><path class="g" d="M1295.9,123.19c0-3.22,2.36-4.89,6.09-4.89a11.25,11.25,0,0,1,5.4,1.39l-1.83,3.06a6.85,6.85,0,0,0-3.57-1c-1.34,0-2.18.54-2.18,1.39,0,1.15,1.31,1.9,2.72,2.46,2.83,1.11,5.42,2.68,5.42,6,0,3.18-2.49,5.13-6.53,5.13a10.66,10.66,0,0,1-5.93-1.59l2.08-3.08a6.45,6.45,0,0,0,3.85,1.18c1.44,0,2.63-.74,2.63-1.82,0-1.37-1.29-2-3.09-2.7C1298.65,127.89,1295.9,126.32,1295.9,123.19Z"/><path class="g" d="M1313.86,131.38a3,3,0,0,0,3.09,2.16,7.37,7.37,0,0,0,3-.79l1.34,2.95a10.73,10.73,0,0,1-4.65,1.1c-3.8,0-6.68-2.38-6.68-6.8s2.39-6.81,6.19-6.81c3.57,0,5.63,2.21,5.63,5.39a12.2,12.2,0,0,1-.29,2.8Zm4.6-2.85a2,2,0,0,0-2.21-2.08,2.35,2.35,0,0,0-2.47,2.08Z"/><path class="g" d="M1334.24,124.37a6.35,6.35,0,0,1,3.75-1.18c3.08,0,4.6,1.8,4.6,5.24v8.12h-3.7v-8.12c0-1.42-.59-2-1.52-2a2.88,2.88,0,0,0-1.9,1v9.1h-3.7v-8.12c0-1.42-.56-2-1.41-2a2.69,2.69,0,0,0-2,1.31v8.79h-3.71V123.44h2.93l.52.88h.1a4.87,4.87,0,0,1,3.06-1.13A3.83,3.83,0,0,1,1334.24,124.37Z"/><path class="g" d="M1344.78,126.71l.51-3.27h5.14v13.11h-3.7v-9.84Zm3.8-9.18a2.07,2.07,0,0,1,2.11,2.08,2.11,2.11,0,0,1-4.22,0A2.07,2.07,0,0,1,1348.58,117.53Z"/><path class="g" d="M1354,136.55v-18h5.88c3.21,0,5.63,1.18,5.63,4.32a4,4,0,0,1-3.06,4.11v.1a4.32,4.32,0,0,1,3.7,4.47c0,3.68-2.75,5-6.27,5Zm3.54-10.85h2.16a1.82,1.82,0,1,0-.1-3.64h-2.06Zm2.16,3.19h-2.16v4.16h2.19c1.61,0,2.51-.84,2.51-2.08S1361.37,128.89,1359.73,128.89Z"/><path class="g" d="M1368.49,130c0-4.42,2.5-6.81,6.3-6.81s6.29,2.39,6.29,6.81-2.49,6.8-6.29,6.8S1368.49,134.42,1368.49,130Zm3.75,0c0,2.39,1,3.54,2.55,3.54s2.54-1.15,2.54-3.54-1-3.55-2.54-3.55S1372.24,127.61,1372.24,130Z"/><path class="g" d="M1387.74,132.93a.57.57,0,0,0,.59.61,2.21,2.21,0,0,0,1-.23l.75,3a6.8,6.8,0,0,1-2.44.51c-2.24,0-3.6-1.23-3.6-3.87V117.79l3.7-.51Z"/><path class="g" d="M1399.61,135.67a4.46,4.46,0,0,1-3,1.13c-3.7,0-5.45-2.85-5.45-6.8s1.77-6.81,5.68-6.81a8.66,8.66,0,0,1,2.67.38v-5.78l3.7-.51v19.27h-2.93l-.51-.88Zm-4.75-5.67c0,2.28.87,3.54,2.47,3.54a3.29,3.29,0,0,0,2.13-.95v-5.65a5.43,5.43,0,0,0-2.24-.49C1395.81,126.45,1394.86,127.71,1394.86,130Z"/><path class="g" d="M1186.87,154.27l5.65-7.71h2.57l-6.14,8.51,6.68,9.48-2.52.25-6.24-8.58h-2v8.33h-2.26v-18h2.26v7.71Z"/><path class="g" d="M1199.18,158.61c.2,2.85,1.54,4.47,4.13,4.47a6.92,6.92,0,0,0,3.37-.92l.74,1.54a8.86,8.86,0,0,1-4.36,1.1c-3.65,0-6.15-2.51-6.15-6.8,0-4.06,2.09-6.81,5.79-6.81,3.52,0,5.26,2.05,5.26,5.26a10.6,10.6,0,0,1-.23,2.16Zm0-1.56h6.75a4,4,0,0,0,0-.6c0-2-1.08-3.54-3.21-3.54S1199.3,154.6,1199.18,157.05Z"/><path class="g" d="M1219.48,151.44l-.52,1.72h-5.24v11.39h-2.16V151.44Z"/><path class="g" d="M1231.61,151.44v13.11h-2.16V153.16h-4.06v1.08c0,7-1.16,10.44-3.93,10.44a3.64,3.64,0,0,1-1.73-.47l.62-1.67a1.68,1.68,0,0,0,1,.31c1.36,0,2-2.54,2-9.22v-2.19Z"/><path class="g" d="M1241,156.22c2.83,0,4.68,1.54,4.68,4.19s-1.85,4.14-4.68,4.14h-5V151.44h2.15v4.78Zm-2.83,1.72v4.89h2.57c1.67,0,2.73-.9,2.73-2.44s-1.06-2.45-2.73-2.45Z"/><path class="g" d="M1262,146.56v16h4.29v2H1255v-2h4.83V148.51h-4.45l.52-1.95Z"/><path class="g" d="M1274.8,164.8c-4,0-6.16-3.16-6.16-9.25s2.21-9.25,6.16-9.25,6.17,3.16,6.17,9.25S1278.76,164.8,1274.8,164.8Zm0-2c2.37,0,3.88-2.16,3.88-7.3s-1.51-7.29-3.88-7.29-3.88,2.16-3.88,7.29S1272.44,162.85,1274.8,162.85Z"/><path class="g" d="M1289.19,164.8c-4,0-6.16-3.16-6.16-9.25s2.21-9.25,6.16-9.25,6.17,3.16,6.17,9.25S1293.15,164.8,1289.19,164.8Zm0-2c2.37,0,3.88-2.16,3.88-7.3s-1.51-7.29-3.88-7.29-3.88,2.16-3.88,7.29S1286.83,162.85,1289.19,162.85Z"/><path class="g" d="M1315.3,164.55h-2.16V153.16h-5.73v11.39h-2.16V151.44h10Z"/><path class="g" d="M1318.13,151.44H1329l-.51,1.72h-3.91v11.39h-2.13V153.16h-4.29Z"/><path class="g" d="M1339.15,155.14a1.57,1.57,0,1,1-1.57,1.57A1.59,1.59,0,0,1,1339.15,155.14Z"/><path class="g" d="M1357.19,148.51v16h-2.26v-16h-5.48v-1.95h13.24l-.52,1.95Z"/><path class="g" d="M1364.85,163.88v5.81l-2.16.51V151.44h1.38l.52,1.65h.1a5.16,5.16,0,0,1,4.11-1.9c3.37,0,5.17,2.77,5.17,6.81s-1.62,6.8-5.53,6.8A6.91,6.91,0,0,1,1364.85,163.88Zm6.91-5.88c0-3-1.26-5.09-3.62-5.09a4.42,4.42,0,0,0-3.29,2v7a5.32,5.32,0,0,0,3.29,1.18C1370.5,163.08,1371.76,161.23,1371.76,158Z"/><path class="g" d="M1379.06,158.61c.2,2.85,1.54,4.47,4.13,4.47a6.92,6.92,0,0,0,3.37-.92l.74,1.54a8.86,8.86,0,0,1-4.36,1.1c-3.65,0-6.15-2.51-6.15-6.8,0-4.06,2.09-6.81,5.79-6.81,3.52,0,5.26,2.05,5.26,5.26a10.6,10.6,0,0,1-.23,2.16Zm0-1.56h6.75a4,4,0,0,0,0-.6c0-2-1.08-3.54-3.21-3.54S1379.18,154.6,1379.06,157.05Z"/><path class="g" d="M1393.6,158.66v5.89h-2.16V151.44h2.16v5.5h1.85l3.78-5.5h2.31l-4.34,6.32,4.6,6.79-2.21.25-4.16-6.14Z"/><path class="g" d="M1404.37,164.55V151.44h2.16v9.43h.1l6.81-9.43h1.88v13.11h-2.16v-9.48h-.11l-6.81,9.48Z"/><path class="g" d="M1429.94,164.55h-2.16v-5.89h-5.94v5.89h-2.16V151.44h2.16v5.5h5.94v-5.5h2.16Z"/><path class="g" d="M1442.22,151.44l-.51,1.72h-5.25v11.39h-2.15V151.44Z"/><path class="g" d="M1458,146.56v16h4.29v2H1451v-2h4.83V148.51h-4.45l.52-1.95Z"/><path class="g" d="M1470.41,148.26a7.87,7.87,0,0,0-3.93,1.28l-1-1.72a10.17,10.17,0,0,1,5.37-1.52c3.16,0,4.85,1.8,4.85,4.94,0,4.31-4.24,8.79-7.32,11.25v.1h7.84l-.52,2h-10.53v-1.7c3.62-2.82,8.25-7.42,8.25-11.41C1473.47,149.41,1472.59,148.26,1470.41,148.26Z"/><path class="g" d="M1490.66,158.82c0,4-2.52,6-5.89,6a8.72,8.72,0,0,1-5.16-1.51l1-1.72a6.55,6.55,0,0,0,3.95,1.28c2.16,0,3.78-1.33,3.78-4a3.75,3.75,0,0,0-4.06-4,12.22,12.22,0,0,0-3.67.67v-8.89H1490l-.51,1.95h-6.66v4.63a9.94,9.94,0,0,1,2.06-.21C1488.24,152.93,1490.66,155,1490.66,158.82Z"/><path class="g" d="M1182.91,292.67v-3h2.83v-12h-2.83v-3H1192l-.51,3H1189v12h2.82v3Z"/><path class="g" d="M1194.58,283c0-2.18,1.77-3.7,4.65-3.7a10.33,10.33,0,0,1,4.26.9l-1.08,2.5a8.35,8.35,0,0,0-3-.65c-1.13,0-1.65.41-1.65,1.06s.77,1.18,2.08,1.62c1.93.64,4,1.64,4,4.24,0,2.38-2,3.95-5,3.95a10.07,10.07,0,0,1-4.55-.95l1.11-2.57a8.3,8.3,0,0,0,3.34.77c1.1,0,1.87-.49,1.87-1.2,0-1-1.25-1.5-2.57-2C1196.5,286.42,1194.58,285.42,1194.58,283Z"/><path class="g" d="M1215.78,289.32l1.1,2.5a10.15,10.15,0,0,1-4.52,1.1c-3.86,0-6.5-2.52-6.5-6.81s2.31-6.81,6-6.81c3.42,0,5.55,2.14,5.55,5.81a17.79,17.79,0,0,1-.15,2h-8.18a3.4,3.4,0,0,0,3.42,3.08A7.7,7.7,0,0,0,1215.78,289.32Zm-1.26-4.67a2.43,2.43,0,0,0-2.6-2.6,2.81,2.81,0,0,0-2.77,2.6Z"/><path class="g" d="M1228.37,292.46a9.29,9.29,0,0,1-2.86.46c-2.36,0-4.29-1.08-4.29-4.13v-6.48H1219v-2.75h2.26V276l3.19-.51v4.06h3.67l-.51,2.75h-3.16v6.48c0,1,.41,1.38,1.41,1.38a7.72,7.72,0,0,0,2-.33Z"/><path class="g" d="M1241.86,284.73c-2.31-.9-5-2.52-5-5.5s2.32-4.81,6-4.81a10.68,10.68,0,0,1,5.27,1.39l-1.57,2.62a6.84,6.84,0,0,0-3.7-1c-1.61,0-2.57.57-2.57,1.67,0,1.31,1.57,2.29,3.06,2.88,2.83,1.1,5.35,2.49,5.35,5.83s-2.37,5.14-6.4,5.14a10.23,10.23,0,0,1-5.81-1.59l1.78-2.67a6.7,6.7,0,0,0,4,1.28c1.72,0,3-.77,3-2.11C1245.28,286.22,1243.76,285.47,1241.86,284.73Z"/><path class="g" d="M1258.2,284.08c0-1.26-.64-2-2.21-2a10.32,10.32,0,0,0-3.49.7l-1-2.57a13.07,13.07,0,0,1,4.75-.88c4,0,5.09,2.11,5.09,4.83v5a.82.82,0,0,0,.92.92h.28v2.5a6.09,6.09,0,0,1-1.82.25,2.32,2.32,0,0,1-2.31-1.26h-.1a4.41,4.41,0,0,1-3.45,1.26c-2.49,0-4.06-1.23-4.06-3.9,0-2.52,2-3.93,4.91-3.93h2.44Zm0,4.81V287.4h-2.34c-1.18,0-1.85.59-1.85,1.44a1.3,1.3,0,0,0,1.42,1.33A3.74,3.74,0,0,0,1258.2,288.89Z"/><path class="g" d="M1268.35,292.67h-3.19V279.56h2.42l.51,1.13h.11a5.05,5.05,0,0,1,3.47-1.39c2.75,0,4.29,1.73,4.29,5.17v8.2h-3.19v-7.92c0-1.82-.69-2.7-1.9-2.7a3.53,3.53,0,0,0-2.52,1.54Z"/><path class="g" d="M1278.94,283c0-2.18,1.77-3.7,4.65-3.7a10.38,10.38,0,0,1,4.27.9l-1.08,2.5a8.45,8.45,0,0,0-3-.65c-1.13,0-1.64.41-1.64,1.06s.77,1.18,2.08,1.62c1.92.64,4,1.64,4,4.24,0,2.38-2,3.95-5,3.95a10,10,0,0,1-4.54-.95l1.1-2.57a8.34,8.34,0,0,0,3.34.77c1.11,0,1.88-.49,1.88-1.2,0-1-1.26-1.5-2.57-2C1280.87,286.42,1278.94,285.42,1278.94,283Z"/><path class="g" d="M1311.24,280.92h-.08l-3.08,9.38h-3.37l-3.11-9.38h-.07l-1.08,11.75h-3.29l1.67-18h3.67l3.86,11.56h.07l3.86-11.56H1314l1.67,18h-3.29Z"/><path class="g" d="M1328.12,289.32l1.11,2.5a10.2,10.2,0,0,1-4.53,1.1c-3.85,0-6.5-2.52-6.5-6.81s2.32-6.81,6-6.81c3.41,0,5.55,2.14,5.55,5.81a16,16,0,0,1-.16,2h-8.17a3.39,3.39,0,0,0,3.42,3.08A7.66,7.66,0,0,0,1328.12,289.32Zm-1.26-4.67a2.43,2.43,0,0,0-2.59-2.6,2.82,2.82,0,0,0-2.78,2.6Z"/><path class="g" d="M1340.84,291.53a4.83,4.83,0,0,1-3.39,1.39c-3.7,0-5.37-2.85-5.37-6.81s1.7-6.81,5.6-6.81a9,9,0,0,1,3,.49v-5.88l3.18-.52v19.28h-2.41l-.51-1.14Zm-5.52-5.42c0,2.39,1,4.06,2.9,4.06a3.46,3.46,0,0,0,2.47-1.28v-6.14a5,5,0,0,0-2.57-.7C1336.4,282.05,1335.32,283.54,1335.32,286.11Z"/><path class="g" d="M1346.32,282.31l.51-2.75h4.83v13.11h-3.18V282.31Zm3.75-8.4a1.84,1.84,0,1,1,0,3.67,1.81,1.81,0,0,1-1.88-1.82A1.83,1.83,0,0,1,1350.07,273.91Z"/><path class="g" d="M1363,279.56h3.19v13.11h-2.41l-.52-1.14h-.1a5.47,5.47,0,0,1-3.65,1.39c-2.57,0-4.5-1.69-4.5-5.37v-8h3.19v8c0,1.83.9,2.62,2.11,2.62a3.86,3.86,0,0,0,2.69-1.54Z"/><path class="g" d="M1379.21,280.74a6.17,6.17,0,0,1,4-1.44c2.74,0,4.34,1.73,4.34,5.17v8.2h-3.19v-7.92c0-1.82-.69-2.7-1.9-2.7a3.35,3.35,0,0,0-2.16,1.11v9.51h-3.18v-7.92c0-1.82-.65-2.7-1.75-2.7a3.21,3.21,0,0,0-2.31,1.54v9.08h-3.19V279.56h2.41l.52,1.13h.1a4.67,4.67,0,0,1,3.29-1.39A3.84,3.84,0,0,1,1379.21,280.74Z"/><path class="h" d="M1188.15,310.39l5.65-7.71h2.57l-6.14,8.5,6.68,9.49-2.51.25-6.25-8.58h-2v8.33h-2.26v-18h2.26v7.71Z"/><path class="h" d="M1200.46,314.73c.21,2.85,1.54,4.47,4.14,4.47a6.91,6.91,0,0,0,3.36-.92l.75,1.54a8.93,8.93,0,0,1-4.37,1.1c-3.65,0-6.14-2.52-6.14-6.81,0-4.06,2.08-6.81,5.78-6.81,3.52,0,5.27,2.06,5.27,5.27a11.36,11.36,0,0,1-.23,2.16Zm0-1.57h6.76a5.72,5.72,0,0,0,0-.59c0-2.05-1.08-3.54-3.21-3.54S1200.59,310.72,1200.46,313.16Z"/><path class="h" d="M1220.76,307.56l-.51,1.72H1215v11.39h-2.15V307.56Z"/><path class="h" d="M1232.89,307.56v13.11h-2.16V309.28h-4.06v1.08c0,7-1.15,10.43-3.93,10.43a3.6,3.6,0,0,1-1.72-.46l.62-1.67a1.65,1.65,0,0,0,1,.31c1.36,0,2-2.54,2-9.23v-2.18Z"/><path class="h" d="M1242.24,312.34c2.83,0,4.68,1.54,4.68,4.19s-1.85,4.14-4.68,4.14h-5V307.56h2.16v4.78Zm-2.82,1.72v4.88H1242c1.67,0,2.72-.9,2.72-2.44s-1-2.44-2.72-2.44Z"/><path class="h" d="M1261.36,304.37a8,8,0,0,0-3.93,1.29l-1-1.72a10.08,10.08,0,0,1,5.37-1.52c3.16,0,4.86,1.8,4.86,4.93,0,4.32-4.24,8.79-7.33,11.26v.1h7.84l-.51,2h-10.54V319c3.62-2.83,8.25-7.43,8.25-11.41C1264.42,305.53,1263.55,304.37,1261.36,304.37Z"/><path class="h" d="M1275.39,320.92a8.6,8.6,0,0,1-5.08-1.51l1-1.73a6.15,6.15,0,0,0,3.85,1.29c2.29,0,3.86-1.18,3.86-3.83s-1.62-3.85-4-3.85h-.77v-.9l3.83-5.66v-.1h-7.27l.51-1.95h9.15v1.69l-3.62,5.37v.11c2.46.33,4.42,2,4.42,5.29C1281.36,319.1,1278.66,320.92,1275.39,320.92Z"/><path class="h" d="M1290.48,320.92c-4,0-6.17-3.16-6.17-9.25s2.21-9.25,6.17-9.25,6.16,3.16,6.16,9.25S1294.44,320.92,1290.48,320.92Zm0-1.95c2.36,0,3.88-2.16,3.88-7.3s-1.52-7.3-3.88-7.3-3.88,2.16-3.88,7.3S1288.11,319,1290.48,319Z"/><path class="h" d="M1316.59,320.67h-2.16V309.28h-5.73v11.39h-2.16V307.56h10Z"/><path class="h" d="M1319.41,307.56h10.85l-.52,1.72h-3.9v11.39h-2.14V309.28h-4.29Z"/><path class="h" d="M1189.87,332.63v16h-2.26v-16h-5.47v-1.95h13.23l-.51,1.95Z"/><path class="h" d="M1197.53,348v5.8l-2.16.52V335.56h1.39l.51,1.64h.11a5.18,5.18,0,0,1,4.11-1.9c3.36,0,5.16,2.78,5.16,6.81s-1.62,6.81-5.52,6.81A6.92,6.92,0,0,1,1197.53,348Zm6.91-5.89c0-3-1.26-5.08-3.62-5.08a4.42,4.42,0,0,0-3.29,2v7a5.38,5.38,0,0,0,3.29,1.18C1203.18,347.2,1204.44,345.35,1204.44,342.11Z"/><path class="h" d="M1211.74,342.73c.21,2.85,1.54,4.47,4.14,4.47a6.91,6.91,0,0,0,3.36-.92l.75,1.54a8.93,8.93,0,0,1-4.37,1.1c-3.65,0-6.14-2.52-6.14-6.81,0-4.06,2.08-6.81,5.78-6.81,3.52,0,5.27,2.06,5.27,5.27a11.36,11.36,0,0,1-.23,2.16Zm0-1.57h6.76a3.82,3.82,0,0,0,0-.59c0-2.05-1.08-3.54-3.22-3.54S1211.87,338.72,1211.74,341.16Z"/><path class="h" d="M1226.29,342.78v5.89h-2.16V335.56h2.16v5.5h1.85l3.77-5.5h2.32l-4.35,6.32,4.6,6.79-2.21.25-4.16-6.14Z"/><path class="h" d="M1237.05,348.67V335.56h2.16V345h.1l6.81-9.43H1248v13.11h-2.16v-9.49h-.1l-6.81,9.49Z"/><path class="h" d="M1262.62,348.67h-2.16v-5.89h-5.93v5.89h-2.16V335.56h2.16v5.5h5.93v-5.5h2.16Z"/><path class="h" d="M1274.9,335.56l-.51,1.72h-5.24v11.39H1267V335.56Z"/><path class="h" d="M1292.48,332.63h-9.22l.51-1.95h10.92v1.69l-6.29,16.3h-2.21Z"/><path class="h" d="M1309,342.94c0,3.95-2.51,6-5.88,6a8.77,8.77,0,0,1-5.17-1.51l1-1.73a6.52,6.52,0,0,0,4,1.29c2.16,0,3.78-1.34,3.78-4a3.75,3.75,0,0,0-4.06-4,12.3,12.3,0,0,0-3.68.67v-8.89h9.36l-.52,1.95h-6.65v4.63a9.21,9.21,0,0,1,2.05-.21C1306.54,337.05,1309,339.08,1309,342.94Z"/><path class="g" d="M1185.48,489.17V486.7h3V473.65h-3v-2.47h8.81l-.51,2.47h-2.57V486.7h3v2.47Z"/><path class="g" d="M1202.05,481.38c1.9.54,4.06,1.67,4.06,4.09s-1.87,3.95-4.83,3.95a10.9,10.9,0,0,1-4.42-.9l.9-2.1a8.57,8.57,0,0,0,3.44.77c1.52,0,2.24-.62,2.24-1.6,0-1.33-1.31-1.79-2.78-2.23s-3.51-1.47-3.51-4c0-2.31,1.82-3.55,4.57-3.55a9.68,9.68,0,0,1,4.08.9l-.87,2a8.27,8.27,0,0,0-3-.67c-1.41,0-2.08.54-2.08,1.44C1199.82,480.58,1200.64,481,1202.05,481.38Z"/><path class="g" d="M1219.5,483.23h-8.33c.18,2.54,1.52,4,3.88,4a7.25,7.25,0,0,0,3.27-.9l.87,2a9.6,9.6,0,0,1-4.39,1.1c-3.86,0-6.37-2.52-6.37-6.81s2.36-6.81,5.9-6.81,5.4,2.06,5.4,5.27A11.36,11.36,0,0,1,1219.5,483.23Zm-8.22-2.08h6.06a2.8,2.8,0,0,0-2.95-3.11C1212.61,478,1211.51,479.3,1211.28,481.15Z"/><path class="g" d="M1230.68,489a9,9,0,0,1-2.8.46c-2.37,0-4.11-1.08-4.11-4.13v-7h-2.24v-2.24h2.24v-3.55l2.67-.51v4.06h4l-.52,2.24h-3.44v7.11a1.57,1.57,0,0,0,1.75,1.78,7.24,7.24,0,0,0,2.1-.36Z"/><path class="g" d="M1248.1,484.51c0-1.77-1.72-2.74-3.7-3.52-2.31-.9-5-2.21-5-5.19s2.19-4.88,5.84-4.88a10.17,10.17,0,0,1,5.13,1.39l-1.31,2.18a6.92,6.92,0,0,0-3.82-1.1c-2,0-3,.8-3,2.26s1.77,2.42,3.34,3c2.83,1.11,5.32,2.34,5.32,5.68,0,3.19-2.24,5.06-6.27,5.06a9.79,9.79,0,0,1-5.68-1.59l1.46-2.26a6.75,6.75,0,0,0,4.22,1.39C1246.71,487,1248.1,486.19,1248.1,484.51Z"/><path class="g" d="M1261,481.46v-.88c0-1.56-.67-2.54-2.6-2.54a10.44,10.44,0,0,0-3.54.69l-.78-2.08a13,13,0,0,1,4.63-.85c4,0,5,2.11,5,4.83v5.5a.83.83,0,0,0,.92.93h.29v2a4.89,4.89,0,0,1-1.55.25,2,2,0,0,1-2.08-1.51h-.1a4.78,4.78,0,0,1-3.7,1.51c-2.49,0-4.06-1.23-4.06-3.9,0-2.49,2.06-3.93,5-3.93Zm-2.75,2.08a2,2,0,0,0-2.21,1.9,1.72,1.72,0,0,0,1.92,1.75,3.84,3.84,0,0,0,3-1.62v-2Z"/><path class="g" d="M1270.41,489.17h-2.68V476.06h1.91l.51,1.39h.1a4.73,4.73,0,0,1,3.7-1.65c2.93,0,4.32,1.73,4.32,5.17v8.2h-2.67v-8c0-2.16-.75-3.11-2.29-3.11a4.08,4.08,0,0,0-2.9,1.82Z"/><path class="g" d="M1286.42,481.38c1.9.54,4.06,1.67,4.06,4.09s-1.88,3.95-4.83,3.95a10.83,10.83,0,0,1-4.42-.9l.89-2.1a8.66,8.66,0,0,0,3.45.77c1.51,0,2.23-.62,2.23-1.6,0-1.33-1.31-1.79-2.77-2.23s-3.52-1.47-3.52-4c0-2.31,1.82-3.55,4.57-3.55a9.69,9.69,0,0,1,4.09.9l-.88,2a8.23,8.23,0,0,0-3-.67c-1.41,0-2.08.54-2.08,1.44C1284.18,480.58,1285,481,1286.42,481.38Z"/><path class="g" d="M1311.6,476.52a4.84,4.84,0,0,1-3.73,5l4.7,7.61-3,.25-4.7-7.6h-1.6v7.35h-2.77v-18H1306C1309.08,471.18,1311.6,473,1311.6,476.52Zm-8.33-2.87v5.7h2.57a2.68,2.68,0,0,0,2.88-2.83,2.72,2.72,0,0,0-2.88-2.87Z"/><path class="g" d="M1325.19,483.23h-8.32c.18,2.54,1.51,4,3.88,4a7.24,7.24,0,0,0,3.26-.9l.87,2a9.6,9.6,0,0,1-4.39,1.1c-3.85,0-6.37-2.52-6.37-6.81s2.36-6.81,5.91-6.81,5.39,2.06,5.39,5.27A10.6,10.6,0,0,1,1325.19,483.23Zm-8.22-2.08H1323a2.79,2.79,0,0,0-3-3.11C1318.31,478,1317.2,479.3,1317,481.15Z"/><path class="g" d="M1333.75,485a7.15,7.15,0,0,1-2.21-.31,1.07,1.07,0,0,0-.41.8c0,.57.31.95,1,1.08l3.67.59c1.67.28,3.8,1.16,3.8,3.6,0,2.8-2.56,4.06-5.93,4.06-3.78,0-5.83-1.34-5.83-3.65a3.57,3.57,0,0,1,1.74-3,2.27,2.27,0,0,1-1-2,2.92,2.92,0,0,1,1.34-2.26,4.29,4.29,0,0,1-1.54-3.47c0-2.87,2.13-4.6,5.34-4.6a7,7,0,0,1,2.57.47l4.09-1-.52,2.49h-1.57a4.58,4.58,0,0,1,.78,2.62C1339.1,483.28,1337,485,1333.75,485Zm-3.44,5.71c0,1.15,1,1.87,3.39,1.87s3.21-.77,3.21-1.77-.69-1.28-2.08-1.52l-3.32-.51A2.22,2.22,0,0,0,1330.31,490.71Zm.69-10.31c0,1.39.9,2.42,2.75,2.42s2.75-1,2.75-2.42-.9-2.41-2.75-2.41S1331,479,1331,480.4Z"/><path class="g" d="M1350.84,476.06h2.67v13.11h-1.9l-.51-1.39H1351a5.11,5.11,0,0,1-3.88,1.64c-2.8,0-4.52-1.64-4.52-5.34v-8h2.67v8c0,2.16,1,3.11,2.5,3.11a4.41,4.41,0,0,0,3.08-1.83Z"/><path class="g" d="M1363,489a5.81,5.81,0,0,1-2.19.38c-2.18,0-3.34-1.13-3.34-3.65V470.41l2.68-.52v15.88c0,1,.38,1.42,1.1,1.42a3.53,3.53,0,0,0,1.34-.26Z"/><path class="g" d="M1372,481.46v-.88c0-1.56-.67-2.54-2.6-2.54a10.49,10.49,0,0,0-3.54.69l-.77-2.08a12.92,12.92,0,0,1,4.62-.85c4,0,5,2.11,5,4.83v5.5a.83.83,0,0,0,.93.93h.28v2a4.87,4.87,0,0,1-1.54.25,2,2,0,0,1-2.08-1.51h-.11a4.78,4.78,0,0,1-3.7,1.51c-2.49,0-4.06-1.23-4.06-3.9,0-2.49,2.06-3.93,5-3.93Zm-2.75,2.08a2,2,0,0,0-2.21,1.9,1.72,1.72,0,0,0,1.93,1.75,3.83,3.83,0,0,0,3-1.62v-2Z"/><path class="g" d="M1385.4,478.55a3.2,3.2,0,0,0-1.36-.25c-1.39,0-2.39,1.41-2.62,3v7.84h-2.67V476.06h1.9l.51,2h.1a3.42,3.42,0,0,1,3.34-2.29,6,6,0,0,1,1.68.26Z"/><path class="g" d="M1190.59,506.89l5.65-7.71h2.57l-6.14,8.5,6.68,9.49-2.51.25-6.25-8.58h-1.95v8.33h-2.26v-18h2.26v7.71Z"/><path class="g" d="M1202.9,511.23c.21,2.85,1.54,4.47,4.14,4.47a6.91,6.91,0,0,0,3.36-.92l.75,1.54a8.93,8.93,0,0,1-4.37,1.1c-3.65,0-6.14-2.52-6.14-6.81,0-4.06,2.08-6.81,5.78-6.81,3.52,0,5.27,2.06,5.27,5.27a11.36,11.36,0,0,1-.23,2.16Zm0-1.57h6.76a5.72,5.72,0,0,0,0-.59c0-2.05-1.07-3.54-3.21-3.54S1203,507.22,1202.9,509.66Z"/><path class="g" d="M1223.2,504.06l-.51,1.72h-5.24v11.39h-2.16V504.06Z"/><path class="g" d="M1235.33,504.06v13.11h-2.16V505.78h-4.06v1.08c0,7-1.15,10.43-3.93,10.43a3.6,3.6,0,0,1-1.72-.46l.62-1.67a1.65,1.65,0,0,0,1,.31c1.36,0,2-2.54,2-9.23v-2.18Z"/><path class="g" d="M1244.68,508.84c2.83,0,4.68,1.54,4.68,4.19s-1.85,4.14-4.68,4.14h-5V504.06h2.16v4.78Zm-2.82,1.72v4.88h2.57c1.67,0,2.72-.9,2.72-2.44s-1.05-2.44-2.72-2.44Z"/><path class="g" d="M1258.48,512.39a5.33,5.33,0,0,1,3-4.68v-.08a4.58,4.58,0,0,1-2.41-4.11c0-2.8,1.9-4.6,5.09-4.6s5.08,1.8,5.08,4.6a5.11,5.11,0,0,1-2.41,4.24v.08a5.12,5.12,0,0,1,3,4.55c0,3.23-2.13,5-5.65,5S1258.48,515.62,1258.48,512.39Zm6.3-3.29-1.52-.65a4.71,4.71,0,0,0-2.62,3.94c0,2.23,1.39,3.08,3.5,3.08s3.49-1,3.49-3.08C1267.63,510.84,1266.27,509.71,1264.78,509.1Zm.18-2a4.56,4.56,0,0,0,2.11-3.6,2.94,2.94,0,0,0-5.86,0,3.26,3.26,0,0,0,2.31,3Z"/><path class="g" d="M1284.05,511.44c0,3.95-2.52,6-5.88,6a8.75,8.75,0,0,1-5.17-1.51l1-1.72a6.58,6.58,0,0,0,4,1.28c2.16,0,3.78-1.34,3.78-4a3.75,3.75,0,0,0-4.06-4,12.3,12.3,0,0,0-3.68.67v-8.89h9.35l-.51,1.95h-6.66v4.63a9.36,9.36,0,0,1,2.06-.21C1281.64,505.55,1284.05,507.58,1284.05,511.44Z"/><path class="g" d="M1304.64,517.17h-2.16V505.78h-5.73v11.39h-2.16V504.06h10.05Z"/><path class="g" d="M1307.46,504.06h10.85l-.52,1.72h-3.9v11.39h-2.14V505.78h-4.29Z"/><path class="g" d="M1328.48,507.76a1.57,1.57,0,1,1-1.57,1.57A1.59,1.59,0,0,1,1328.48,507.76Z"/><path class="g" d="M1346.52,501.13v16h-2.26v-16h-5.47v-1.95H1352l-.51,1.95Z"/><path class="g" d="M1354.18,516.5v5.8l-2.16.52V504.06h1.39l.51,1.65h.11a5.16,5.16,0,0,1,4.11-1.91c3.36,0,5.16,2.78,5.16,6.81s-1.62,6.81-5.52,6.81A6.92,6.92,0,0,1,1354.18,516.5Zm6.91-5.89c0-3-1.26-5.08-3.62-5.08a4.42,4.42,0,0,0-3.29,2v7a5.38,5.38,0,0,0,3.29,1.18C1359.83,515.7,1361.09,513.85,1361.09,510.61Z"/><path class="g" d="M1368.39,511.23c.21,2.85,1.54,4.47,4.14,4.47a6.91,6.91,0,0,0,3.36-.92l.75,1.54a8.93,8.93,0,0,1-4.37,1.1c-3.65,0-6.14-2.52-6.14-6.81,0-4.06,2.08-6.81,5.78-6.81,3.52,0,5.27,2.06,5.27,5.27a11.36,11.36,0,0,1-.23,2.16Zm0-1.57h6.76a5.72,5.72,0,0,0,0-.59c0-2.05-1.08-3.54-3.21-3.54S1368.52,507.22,1368.39,509.66Z"/><path class="g" d="M1382.94,511.28v5.89h-2.16V504.06h2.16v5.5h1.84l3.78-5.5h2.31l-4.34,6.32,4.6,6.79-2.21.25-4.16-6.14Z"/><path class="g" d="M1393.7,517.17V504.06h2.16v9.43h.1l6.81-9.43h1.88v13.11h-2.16v-9.49h-.1l-6.81,9.49Z"/><path class="g" d="M1419.27,517.17h-2.16v-5.89h-5.93v5.89H1409V504.06h2.16v5.5h5.93v-5.5h2.16Z"/><path class="g" d="M1431.55,504.06l-.51,1.72h-5.24v11.39h-2.16V504.06Z"/><path class="g" d="M1447.31,499.18v16h4.29v2h-11.31v-2h4.83V501.13h-4.44l.51-1.95Z"/><path class="g" d="M1463.52,501.13h-9.22l.51-1.95h10.92v1.69l-6.29,16.3h-2.21Z"/><path class="g" d="M1480,511.44c0,3.95-2.52,6-5.88,6a8.75,8.75,0,0,1-5.17-1.51l1-1.72a6.58,6.58,0,0,0,4,1.28c2.16,0,3.78-1.34,3.78-4a3.75,3.75,0,0,0-4.06-4,12.3,12.3,0,0,0-3.68.67v-8.89h9.35l-.51,1.95h-6.66v4.63a9.36,9.36,0,0,1,2.06-.21C1477.58,505.55,1480,507.58,1480,511.44Z"/><path class="i" d="M1555.24,103.66v-3h2.82v-12h-2.82v-3h9.07l-.52,3h-2.44v12h2.83v3Z"/><path class="i" d="M1566.9,94c0-2.19,1.78-3.7,4.65-3.7a10.19,10.19,0,0,1,4.27.9l-1.08,2.49a8.39,8.39,0,0,0-3-.64c-1.13,0-1.64.41-1.64,1,0,.8.77,1.18,2.08,1.62,1.93.64,4,1.64,4,4.24,0,2.39-2,4-5,4a10,10,0,0,1-4.55-1l1.11-2.57a8.13,8.13,0,0,0,3.34.77c1.1,0,1.87-.48,1.87-1.2,0-1-1.26-1.49-2.57-2C1568.83,97.41,1566.9,96.41,1566.9,94Z"/><path class="i" d="M1588.1,100.32l1.11,2.49a10.2,10.2,0,0,1-4.53,1.1c-3.85,0-6.5-2.51-6.5-6.8s2.32-6.81,6-6.81c3.41,0,5.55,2.13,5.55,5.8a16,16,0,0,1-.16,2h-8.17a3.38,3.38,0,0,0,3.42,3.08A7.79,7.79,0,0,0,1588.1,100.32Zm-1.26-4.68a2.42,2.42,0,0,0-2.59-2.59,2.81,2.81,0,0,0-2.78,2.59Z"/><path class="i" d="M1600.69,103.45a9.23,9.23,0,0,1-2.85.46c-2.36,0-4.29-1.07-4.29-4.13V93.3h-2.26V90.55h2.26V87l3.19-.52v4.06h3.67l-.51,2.75h-3.16v6.48c0,1,.41,1.38,1.41,1.38a7.19,7.19,0,0,0,2-.33Z"/><path class="i" d="M1614.19,95.72c-2.32-.9-5-2.52-5-5.5s2.31-4.81,6-4.81a10.74,10.74,0,0,1,5.27,1.39l-1.57,2.62a7,7,0,0,0-3.7-1c-1.62,0-2.57.57-2.57,1.67,0,1.31,1.57,2.29,3.06,2.88,2.83,1.11,5.34,2.49,5.34,5.84,0,3.18-2.36,5.13-6.39,5.13a10.23,10.23,0,0,1-5.81-1.59l1.77-2.67a6.69,6.69,0,0,0,4,1.28c1.72,0,3-.77,3-2.1C1617.6,97.21,1616.09,96.46,1614.19,95.72Z"/><path class="i" d="M1630.53,95.07c0-1.25-.64-2-2.21-2a10.35,10.35,0,0,0-3.5.69l-1-2.57a13.16,13.16,0,0,1,4.76-.87c4,0,5.08,2.1,5.08,4.83v5a.83.83,0,0,0,.93.93h.28v2.49a6.06,6.06,0,0,1-1.82.26,2.36,2.36,0,0,1-2.32-1.26h-.1a4.41,4.41,0,0,1-3.44,1.26c-2.49,0-4.06-1.24-4.06-3.91,0-2.52,2-3.93,4.91-3.93h2.44Zm0,4.81V98.39h-2.34c-1.18,0-1.85.59-1.85,1.44a1.3,1.3,0,0,0,1.41,1.33A3.72,3.72,0,0,0,1630.53,99.88Z"/><path class="i" d="M1640.68,103.66h-3.19V90.55h2.42l.51,1.13h.1A5.08,5.08,0,0,1,1644,90.3c2.75,0,4.29,1.72,4.29,5.16v8.2h-3.18V95.74c0-1.82-.7-2.69-1.9-2.69a3.5,3.5,0,0,0-2.52,1.54Z"/><path class="i" d="M1651.27,94c0-2.19,1.77-3.7,4.65-3.7a10.17,10.17,0,0,1,4.26.9l-1.08,2.49a8.34,8.34,0,0,0-3-.64c-1.13,0-1.65.41-1.65,1,0,.8.77,1.18,2.08,1.62,1.93.64,4,1.64,4,4.24,0,2.39-2,4-5,4a10.07,10.07,0,0,1-4.55-1l1.11-2.57a8.13,8.13,0,0,0,3.34.77c1.1,0,1.87-.48,1.87-1.2,0-1-1.25-1.49-2.56-2C1653.19,97.41,1651.27,96.41,1651.27,94Z"/><path class="i" d="M1683.57,91.91h-.08l-3.08,9.38H1677l-3.11-9.38h-.08l-1.08,11.75h-3.28l1.66-18h3.68l3.85,11.56h.08l3.86-11.56h3.67l1.67,18h-3.29Z"/><path class="i" d="M1700.45,100.32l1.1,2.49a10.12,10.12,0,0,1-4.52,1.1c-3.85,0-6.5-2.51-6.5-6.8s2.31-6.81,6-6.81c3.42,0,5.55,2.13,5.55,5.8a17.79,17.79,0,0,1-.15,2h-8.17a3.38,3.38,0,0,0,3.42,3.08A7.79,7.79,0,0,0,1700.45,100.32Zm-1.26-4.68a2.42,2.42,0,0,0-2.59-2.59,2.81,2.81,0,0,0-2.78,2.59Z"/><path class="i" d="M1713.17,102.53a4.87,4.87,0,0,1-3.39,1.38c-3.7,0-5.37-2.85-5.37-6.8s1.69-6.81,5.6-6.81a9.4,9.4,0,0,1,3,.48V84.9l3.18-.51v19.27h-2.41l-.52-1.13Zm-5.52-5.42c0,2.38,1,4,2.9,4a3.44,3.44,0,0,0,2.47-1.28V93.74a5,5,0,0,0-2.57-.69C1708.73,93.05,1707.65,94.54,1707.65,97.11Z"/><path class="i" d="M1718.64,93.3l.52-2.75H1724v13.11h-3.19V93.3Zm3.76-8.4a1.86,1.86,0,0,1,1.9,1.85,1.83,1.83,0,0,1-1.9,1.82,1.81,1.81,0,0,1-1.88-1.82A1.83,1.83,0,0,1,1722.4,84.9Z"/><path class="i" d="M1735.37,90.55h3.19v13.11h-2.42l-.51-1.13h-.1a5.55,5.55,0,0,1-3.65,1.38c-2.57,0-4.5-1.69-4.5-5.37v-8h3.19v8c0,1.83.9,2.62,2.1,2.62a3.84,3.84,0,0,0,2.7-1.54Z"/><path class="i" d="M1751.54,91.73a6.15,6.15,0,0,1,4-1.43c2.75,0,4.34,1.72,4.34,5.16v8.2h-3.18V95.74c0-1.82-.7-2.69-1.9-2.69a3.31,3.31,0,0,0-2.16,1.1v9.51h-3.19V95.74c0-1.82-.64-2.69-1.75-2.69a3.19,3.19,0,0,0-2.31,1.54v9.07h-3.18V90.55h2.41l.52,1.13h.1a4.66,4.66,0,0,1,3.29-1.38A3.87,3.87,0,0,1,1751.54,91.73Z"/><path class="i" d="M1560.48,121.38l5.65-7.71h2.57l-6.14,8.51,6.68,9.48-2.52.25-6.24-8.58h-2v8.33h-2.27v-18h2.27v7.71Z"/><path class="i" d="M1572.79,125.72c.2,2.85,1.54,4.47,4.13,4.47a6.92,6.92,0,0,0,3.37-.92l.75,1.54a8.93,8.93,0,0,1-4.37,1.1c-3.65,0-6.14-2.51-6.14-6.8,0-4.06,2.08-6.81,5.78-6.81,3.52,0,5.27,2,5.27,5.26a10.65,10.65,0,0,1-.24,2.16Zm0-1.57h6.76a5.72,5.72,0,0,0,0-.59c0-2-1.08-3.54-3.21-3.54S1572.92,121.71,1572.79,124.15Z"/><path class="i" d="M1593.09,118.55l-.52,1.72h-5.24v11.39h-2.16V118.55Z"/><path class="i" d="M1605.22,118.55v13.11h-2.16V120.27H1599v1.08c0,7-1.16,10.44-3.93,10.44a3.57,3.57,0,0,1-1.72-.47l.61-1.67a1.68,1.68,0,0,0,1,.31c1.36,0,2-2.54,2-9.22v-2.19Z"/><path class="i" d="M1614.57,123.33c2.83,0,4.68,1.54,4.68,4.19s-1.85,4.14-4.68,4.14h-5V118.55h2.15v4.78Zm-2.83,1.72v4.89h2.57c1.67,0,2.73-.9,2.73-2.45s-1.06-2.44-2.73-2.44Z"/><path class="i" d="M1633.33,131.91a8.66,8.66,0,0,1-5.09-1.51l1.06-1.72a6.18,6.18,0,0,0,3.85,1.28c2.29,0,3.85-1.18,3.85-3.83s-1.61-3.85-4-3.85h-.77v-.9l3.83-5.65v-.11h-7.28l.52-2h9.14v1.7l-3.62,5.37v.1c2.47.33,4.42,2,4.42,5.29C1639.29,130.09,1636.59,131.91,1633.33,131.91Z"/><path class="i" d="M1648.41,131.91c-4,0-6.16-3.16-6.16-9.25s2.21-9.25,6.16-9.25,6.17,3.16,6.17,9.25S1652.37,131.91,1648.41,131.91Zm0-1.95c2.37,0,3.88-2.16,3.88-7.3s-1.51-7.29-3.88-7.29-3.88,2.15-3.88,7.29S1646.05,130,1648.41,130Z"/><path class="i" d="M1662.81,131.91c-4,0-6.17-3.16-6.17-9.25s2.21-9.25,6.17-9.25,6.16,3.16,6.16,9.25S1666.76,131.91,1662.81,131.91Zm0-1.95c2.36,0,3.88-2.16,3.88-7.3s-1.52-7.29-3.88-7.29-3.89,2.15-3.89,7.29S1660.44,130,1662.81,130Z"/><path class="i" d="M1688.91,131.66h-2.16V120.27H1681v11.39h-2.15V118.55h10Z"/><path class="i" d="M1691.74,118.55h10.84l-.51,1.72h-3.91v11.39H1696V120.27h-4.29Z"/><path class="i" d="M1555.36,423.64v-2.47h3V408.12h-3v-2.47h8.82l-.52,2.47h-2.57v13.05h3v2.47Z"/><path class="i" d="M1571.94,415.85c1.9.54,4.06,1.67,4.06,4.09s-1.88,4-4.83,4a11,11,0,0,1-4.42-.9l.9-2.11a8.41,8.41,0,0,0,3.44.77c1.52,0,2.24-.62,2.24-1.59,0-1.34-1.31-1.8-2.78-2.24s-3.52-1.46-3.52-4c0-2.31,1.83-3.54,4.58-3.54a9.68,9.68,0,0,1,4.08.9l-.87,2a8.53,8.53,0,0,0-3-.67c-1.41,0-2.08.54-2.08,1.44C1569.7,415.06,1570.53,415.44,1571.94,415.85Z"/><path class="i" d="M1589.39,417.7h-8.33c.18,2.55,1.52,4,3.88,4a7.24,7.24,0,0,0,3.26-.9l.88,2a9.64,9.64,0,0,1-4.4,1.11c-3.85,0-6.37-2.52-6.37-6.81s2.37-6.81,5.91-6.81,5.4,2.05,5.4,5.27A11.34,11.34,0,0,1,1589.39,417.7Zm-8.23-2.08h6.07a2.8,2.8,0,0,0-3-3.11C1582.5,412.51,1581.4,413.77,1581.16,415.62Z"/><path class="i" d="M1600.57,423.43a9,9,0,0,1-2.81.47c-2.36,0-4.11-1.08-4.11-4.14v-7h-2.23v-2.24h2.23V407l2.68-.52v4.06h4l-.51,2.24h-3.44v7.12a1.56,1.56,0,0,0,1.74,1.77,7.24,7.24,0,0,0,2.11-.36Z"/><path class="i" d="M1618,419c0-1.77-1.72-2.75-3.7-3.52-2.31-.9-5-2.21-5-5.19s2.18-4.88,5.83-4.88a10.23,10.23,0,0,1,5.14,1.38L1619,409a6.85,6.85,0,0,0-3.83-1.11c-2,0-3,.8-3,2.26s1.77,2.42,3.34,3c2.82,1.1,5.32,2.33,5.32,5.67s-2.24,5.07-6.27,5.07a9.8,9.8,0,0,1-5.68-1.6l1.46-2.26a6.67,6.67,0,0,0,4.22,1.39C1616.6,421.43,1618,420.66,1618,419Z"/><path class="i" d="M1630.91,415.93v-.87c0-1.57-.67-2.55-2.59-2.55a10.32,10.32,0,0,0-3.55.7l-.77-2.08a12.76,12.76,0,0,1,4.63-.85c4,0,5,2.1,5,4.83v5.5a.82.82,0,0,0,.92.92h.28v2a4.51,4.51,0,0,1-1.54.26,2,2,0,0,1-2.08-1.52h-.1a4.8,4.8,0,0,1-3.7,1.52c-2.5,0-4.06-1.24-4.06-3.91,0-2.49,2-3.93,5-3.93Zm-2.75,2.08a2,2,0,0,0-2.21,1.9,1.72,1.72,0,0,0,1.93,1.75,3.8,3.8,0,0,0,3-1.62v-2Z"/><path class="i" d="M1640.29,423.64h-2.67V410.53h1.9l.52,1.39h.1a4.74,4.74,0,0,1,3.7-1.64c2.93,0,4.32,1.72,4.32,5.16v8.2h-2.68v-8c0-2.16-.74-3.11-2.28-3.11a4.1,4.1,0,0,0-2.91,1.83Z"/><path class="i" d="M1656.3,415.85c1.9.54,4.06,1.67,4.06,4.09s-1.87,4-4.83,4a11.06,11.06,0,0,1-4.42-.9l.9-2.11a8.41,8.41,0,0,0,3.44.77c1.52,0,2.24-.62,2.24-1.59,0-1.34-1.31-1.8-2.78-2.24s-3.51-1.46-3.51-4c0-2.31,1.82-3.54,4.57-3.54a9.68,9.68,0,0,1,4.08.9l-.87,2a8.48,8.48,0,0,0-3-.67c-1.41,0-2.08.54-2.08,1.44C1654.07,415.06,1654.89,415.44,1656.3,415.85Z"/><path class="i" d="M1681.49,411a4.85,4.85,0,0,1-3.73,5l4.7,7.61-3,.26-4.7-7.61h-1.59v7.35h-2.78v-18h5.48C1679,405.65,1681.49,407.48,1681.49,411Zm-8.33-2.88v5.7h2.57a2.68,2.68,0,0,0,2.88-2.82,2.73,2.73,0,0,0-2.88-2.88Z"/><path class="i" d="M1695.08,417.7h-8.33c.18,2.55,1.52,4,3.88,4a7.25,7.25,0,0,0,3.27-.9l.87,2a9.6,9.6,0,0,1-4.39,1.11c-3.86,0-6.38-2.52-6.38-6.81s2.37-6.81,5.91-6.81,5.4,2.05,5.4,5.27A11.34,11.34,0,0,1,1695.08,417.7Zm-8.22-2.08h6.06a2.8,2.8,0,0,0-3-3.11C1688.19,412.51,1687.09,413.77,1686.86,415.62Z"/><path class="i" d="M1703.64,419.48a7.47,7.47,0,0,1-2.21-.31,1,1,0,0,0-.41.8c0,.56.3.95,1,1.07l3.68.6c1.67.28,3.8,1.15,3.8,3.59,0,2.8-2.57,4.06-5.93,4.06-3.78,0-5.84-1.33-5.84-3.65a3.57,3.57,0,0,1,1.75-3,2.24,2.24,0,0,1-1-2,2.9,2.9,0,0,1,1.33-2.26,4.33,4.33,0,0,1-1.54-3.47c0-2.88,2.14-4.6,5.35-4.6a7.27,7.27,0,0,1,2.57.46l4.08-1-.51,2.5h-1.57a4.55,4.55,0,0,1,.77,2.62C1709,417.76,1706.85,419.48,1703.64,419.48Zm-3.45,5.7c0,1.16,1,1.88,3.4,1.88s3.21-.77,3.21-1.78c0-.84-.7-1.28-2.08-1.51l-3.32-.52A2.22,2.22,0,0,0,1700.19,425.18Zm.7-10.3c0,1.38.9,2.41,2.75,2.41s2.75-1,2.75-2.41-.9-2.42-2.75-2.42S1700.89,413.49,1700.89,414.88Z"/><path class="i" d="M1720.73,410.53h2.67v13.11h-1.9l-.52-1.39h-.1a5.1,5.1,0,0,1-3.88,1.65c-2.8,0-4.52-1.65-4.52-5.35v-8h2.67v8c0,2.16.95,3.11,2.49,3.11a4.45,4.45,0,0,0,3.09-1.82Z"/><path class="i" d="M1732.91,423.51a5.87,5.87,0,0,1-2.19.39c-2.18,0-3.34-1.13-3.34-3.65V404.88l2.67-.51v15.88c0,1,.39,1.41,1.11,1.41a3.45,3.45,0,0,0,1.33-.26Z"/><path class="i" d="M1741.93,415.93v-.87c0-1.57-.67-2.55-2.6-2.55a10.32,10.32,0,0,0-3.55.7l-.77-2.08a12.76,12.76,0,0,1,4.63-.85c4,0,5,2.1,5,4.83v5.5a.82.82,0,0,0,.92.92h.29v2a4.62,4.62,0,0,1-1.55.26,2,2,0,0,1-2.08-1.52h-.1a4.8,4.8,0,0,1-3.7,1.52c-2.49,0-4.06-1.24-4.06-3.91,0-2.49,2-3.93,5-3.93Zm-2.75,2.08a2,2,0,0,0-2.21,1.9,1.72,1.72,0,0,0,1.92,1.75,3.83,3.83,0,0,0,3-1.62v-2Z"/><path class="i" d="M1755.29,413a3,3,0,0,0-1.36-.26c-1.39,0-2.39,1.41-2.62,3v7.84h-2.68V410.53h1.9l.52,2h.1a3.42,3.42,0,0,1,3.34-2.28,6,6,0,0,1,1.67.25Z"/><path class="i" d="M1560.48,441.36l5.65-7.71h2.57l-6.14,8.51,6.68,9.48-2.52.26-6.24-8.59h-2v8.33h-2.27v-18h2.27v7.71Z"/><path class="i" d="M1572.79,445.7c.2,2.86,1.54,4.47,4.13,4.47a6.92,6.92,0,0,0,3.37-.92l.75,1.54a8.83,8.83,0,0,1-4.37,1.11c-3.65,0-6.14-2.52-6.14-6.81,0-4.06,2.08-6.81,5.78-6.81,3.52,0,5.27,2.05,5.27,5.27a10.63,10.63,0,0,1-.24,2.15Zm0-1.56h6.76c0-.21,0-.39,0-.59,0-2.06-1.08-3.55-3.21-3.55S1572.92,441.7,1572.79,444.14Z"/><path class="i" d="M1593.09,438.53l-.52,1.73h-5.24v11.38h-2.16V438.53Z"/><path class="i" d="M1605.22,438.53v13.11h-2.16V440.26H1599v1.08c0,7-1.16,10.43-3.93,10.43a3.68,3.68,0,0,1-1.72-.46l.61-1.67a1.74,1.74,0,0,0,1,.3c1.36,0,2-2.54,2-9.22v-2.19Z"/><path class="i" d="M1614.57,443.31c2.83,0,4.68,1.55,4.68,4.19s-1.85,4.14-4.68,4.14h-5V438.53h2.15v4.78Zm-2.83,1.73v4.88h2.57c1.67,0,2.73-.9,2.73-2.44S1616,445,1614.31,445Z"/><path class="i" d="M1628.37,446.86a5.32,5.32,0,0,1,3-4.68v-.07a4.61,4.61,0,0,1-2.41-4.12c0-2.8,1.9-4.59,5.08-4.59s5.09,1.79,5.09,4.59a5.11,5.11,0,0,1-2.41,4.24v.08a5.14,5.14,0,0,1,3,4.55c0,3.24-2.14,5-5.66,5S1628.37,450.1,1628.37,446.86Zm6.3-3.29-1.52-.64a4.7,4.7,0,0,0-2.62,3.93c0,2.24,1.39,3.08,3.49,3.08s3.5-1,3.5-3.08C1637.52,445.32,1636.16,444.19,1634.67,443.57Zm.18-2a4.54,4.54,0,0,0,2.1-3.6c0-1.72-1.26-2.64-2.93-2.64s-2.93.92-2.93,2.64a3.25,3.25,0,0,0,2.32,3Z"/><path class="i" d="M1653.94,445.91c0,4-2.52,6-5.89,6a8.72,8.72,0,0,1-5.16-1.52l1-1.72a6.55,6.55,0,0,0,3.95,1.28c2.16,0,3.78-1.33,3.78-4a3.75,3.75,0,0,0-4.06-4,12.54,12.54,0,0,0-3.67.67v-8.89h9.35l-.51,2h-6.66v4.62a9.91,9.91,0,0,1,2.06-.2C1651.52,440,1653.94,442.05,1653.94,445.91Z"/><path class="i" d="M1674.52,451.64h-2.16V440.26h-5.73v11.38h-2.15V438.53h10Z"/><path class="i" d="M1677.35,438.53h10.84l-.51,1.73h-3.91v11.38h-2.13V440.26h-4.29Z"/><path class="f" d="M123.54,61.13c0,5.39-3.85,7.92-8.3,7.92a12.26,12.26,0,0,1-7.1-2.07L109.92,64A8.47,8.47,0,0,0,115,65.68c2.69,0,4.72-1.4,4.72-4.51,0-3.26-2.1-4.55-4.86-4.55H113V54.73l5.25-7v-.14h-9.35l.7-3.36h12.81v3l-5,6.65V54C120.74,54.52,123.54,56.41,123.54,61.13Z"/><path class="f" d="M127.18,62a6.94,6.94,0,0,1,4.06-6.16v-.1A6.2,6.2,0,0,1,128,50.21c0-3.92,2.66-6.37,7.1-6.37s7.11,2.45,7.11,6.37a6.23,6.23,0,0,1-3.29,5.6v.11A6.87,6.87,0,0,1,142.93,62c0,4.41-3.08,7-7.88,7S127.18,66.45,127.18,62Zm6.72-4.83A5.5,5.5,0,0,0,130.82,62c0,2.56,1.78,3.64,4.23,3.64s4.24-1.22,4.24-3.64c0-2.1-1.86-3.32-3.92-4.2Zm1-3.11,1.12.45a5.18,5.18,0,0,0,2.52-4.34c0-1.89-1.47-3-3.47-3s-3.46,1.12-3.46,3C131.59,52.31,133.09,53.36,134.88,54.1Z"/><path class="g" d="M113.91,147.64h10l-.7,3.36h-14.7v-3c4.79-3.6,10.88-10,10.88-14.67,0-2.34-1.15-3.81-3.64-3.81a9.54,9.54,0,0,0-5.14,1.64l-1.68-2.94a14,14,0,0,1,7.49-2.06c4.3,0,6.79,2.45,6.79,6.72,0,5.39-5,11.24-9.28,14.63Z"/><path class="g" d="M138.94,143.13a4.79,4.79,0,0,0-5.11-5,12.38,12.38,0,0,0-5.08,1V126.5h13.09l-.7,3.36h-8.71v5.25a11.88,11.88,0,0,1,2.17-.21c4.48,0,8.15,2.66,8.15,8.23,0,5.39-3.85,8.22-8.29,8.22a12.32,12.32,0,0,1-7.11-2.06l1.79-2.94a8.44,8.44,0,0,0,5.07,1.64A4.48,4.48,0,0,0,138.94,143.13Z"/><path class="g" d="M2053.09,253.23a6.29,6.29,0,0,1-4.44,1.51c-4.17,0-7-2.77-7-7.7s3.4-7.88,8-7.88c4.94,0,7.95,3.33,7.95,9,0,8.75-4.9,14.1-12.15,16.2l-1.33-2.87c4.17-1.57,8-3.95,9.14-8.19Zm-3.5-10.71c-2.38,0-4.2,1.61-4.2,4.52s1.82,4.51,4.2,4.51a4.73,4.73,0,0,0,4.24-3C2053.83,245,2052.29,242.52,2049.59,242.52Z"/><path class="g" d="M2071.08,239.51v21.14h5.67V264H2061v-3.36h6.41V242.87h-5.88l.7-3.36Z"/><path class="g" d="M120.07,320.3a4.78,4.78,0,0,0-5.11-5,12.36,12.36,0,0,0-5.07,1V303.67H123l-.7,3.36h-8.72v5.25a12,12,0,0,1,2.17-.21c4.48,0,8.16,2.66,8.16,8.23,0,5.39-3.85,8.23-8.3,8.23a12.26,12.26,0,0,1-7.1-2.07l1.78-2.94a8.48,8.48,0,0,0,5.08,1.65A4.48,4.48,0,0,0,120.07,320.3Z"/><path class="g" d="M139,307H127l.7-3.36h15.23v3l-8.54,21.5h-4Z"/><path class="g" d="M113.91,501.37h10l-.7,3.36h-14.7v-3c4.79-3.61,10.88-10,10.88-14.67,0-2.35-1.15-3.82-3.64-3.82a9.47,9.47,0,0,0-5.14,1.65l-1.68-2.94a13.92,13.92,0,0,1,7.49-2.07c4.3,0,6.79,2.45,6.79,6.72,0,5.4-5,11.24-9.28,14.64Z"/><path class="g" d="M137.61,480.22v21.15h5.67v3.36H127.53v-3.36h6.4V483.58h-5.88l.7-3.36Z"/><path class="g" d="M2047.39,501.37h10l-.7,3.36H2042v-3c4.8-3.61,10.89-10,10.89-14.67,0-2.35-1.16-3.82-3.64-3.82a9.53,9.53,0,0,0-5.15,1.65l-1.68-2.94a13.92,13.92,0,0,1,7.49-2.07c4.31,0,6.79,2.45,6.79,6.72,0,5.4-5,11.24-9.27,14.64Z"/><path class="g" d="M2071.08,480.22v21.15h5.67v3.36H2061v-3.36h6.41V483.58h-5.88l.7-3.36Z"/><path class="f" d="M113.91,217.93h10l-.7,3.36h-14.7v-3c4.79-3.61,10.88-10,10.88-14.67,0-2.34-1.15-3.81-3.64-3.81a9.54,9.54,0,0,0-5.14,1.64l-1.68-2.94a14,14,0,0,1,7.49-2.06c4.3,0,6.79,2.45,6.79,6.72,0,5.39-5,11.23-9.28,14.63Z"/><path class="f" d="M132.78,217.93h10l-.7,3.36h-14.7v-3c4.8-3.61,10.89-10,10.89-14.67,0-2.34-1.16-3.81-3.64-3.81a9.6,9.6,0,0,0-5.15,1.64l-1.68-2.94a14,14,0,0,1,7.49-2.06c4.31,0,6.79,2.45,6.79,6.72,0,5.39-5,11.23-9.27,14.63Z"/><path class="f" d="M2053.55,60.82a4.79,4.79,0,0,0-5.11-5,12.38,12.38,0,0,0-5.08,1V44.19h13.09l-.7,3.36H2047V52.8a11.88,11.88,0,0,1,2.17-.21c4.48,0,8.15,2.66,8.15,8.23,0,5.39-3.85,8.23-8.29,8.23A12.32,12.32,0,0,1,2042,67l1.79-2.94a8.44,8.44,0,0,0,5.07,1.64A4.48,4.48,0,0,0,2053.55,60.82Z"/><path class="f" d="M2075.88,61.13c0,5.39-3.85,7.92-8.3,7.92a12.26,12.26,0,0,1-7.1-2.07l1.78-2.94a8.47,8.47,0,0,0,5.08,1.64c2.69,0,4.72-1.4,4.72-4.51,0-3.26-2.1-4.55-4.86-4.55h-1.82V54.73l5.25-7v-.14h-9.35l.7-3.36h12.81v3l-5,6.65V54C2073.08,54.52,2075.88,56.41,2075.88,61.13Z"/><path class="f" d="M2057,416.34c0,5.39-3.85,7.91-8.29,7.91a12.32,12.32,0,0,1-7.11-2.07l1.79-2.94a8.45,8.45,0,0,0,5.07,1.65c2.7,0,4.73-1.4,4.73-4.52s-2.1-4.55-4.87-4.55h-1.82v-1.89l5.25-7v-.14h-9.34l.7-3.36h12.81v3l-5,6.65v.11C2054.21,409.72,2057,411.61,2057,416.34Z"/><path class="f" d="M2072.52,402.75h-12l.7-3.36h15.22v3l-8.54,21.5h-4Z"/><path class="f" d="M113.91,441.93h10l-.7,3.36h-14.7v-3c4.79-3.61,10.88-10,10.88-14.67,0-2.34-1.15-3.81-3.64-3.81a9.54,9.54,0,0,0-5.14,1.64l-1.68-2.94a14,14,0,0,1,7.49-2.06c4.3,0,6.79,2.45,6.79,6.72,0,5.39-5,11.23-9.28,14.63Z"/><path class="f" d="M132.78,441.93h10l-.7,3.36h-14.7v-3c4.8-3.61,10.89-10,10.89-14.67,0-2.34-1.16-3.81-3.64-3.81a9.6,9.6,0,0,0-5.15,1.64l-1.68-2.94a14,14,0,0,1,7.49-2.06c4.31,0,6.79,2.45,6.79,6.72,0,5.39-5,11.23-9.27,14.63Z"/><path class="f" d="M120.6,568.68,111.85,584v.14h5.56v-4.44h3.68v4.44h4l-.7,3.33h-3.32v5.74h-3.68v-5.74h-10v-3l9-15.79Z"/><path class="f" d="M135.05,593.54c-5.39,0-8.57-4.31-8.57-12.6s3.18-12.6,8.57-12.6,8.58,4.3,8.58,12.6S140.44,593.54,135.05,593.54Zm0-3.36c2.8,0,4.76-2.73,4.76-9.24s-2-9.24-4.76-9.24-4.76,2.73-4.76,9.24S132.25,590.18,135.05,590.18Z"/><path class="f" d="M2054.07,568.68l-8.75,15.3v.14h5.57v-4.44h3.67v4.44h4l-.7,3.33h-3.33v5.74h-3.67v-5.74h-10v-3l9-15.79Z"/><path class="f" d="M2068.53,593.54c-5.39,0-8.58-4.31-8.58-12.6s3.19-12.6,8.58-12.6,8.57,4.3,8.57,12.6S2073.92,593.54,2068.53,593.54Zm0-3.36c2.8,0,4.76-2.73,4.76-9.24s-2-9.24-4.76-9.24-4.76,2.73-4.76,9.24S2065.73,590.18,2068.53,590.18Z"/><rect class="f" x="1826.27" y="93.66" width="1.76" height="21.44"/><rect class="f" x="1826.27" y="125.59" width="1.76" height="21.44"/><rect class="f" x="1826.27" y="157.51" width="1.76" height="21.44"/><rect class="f" x="1826.27" y="189.44" width="1.76" height="21.43"/><rect class="f" x="1826.27" y="221.36" width="1.76" height="21.44"/><rect class="f" x="1826.27" y="253.3" width="1.76" height="21.43"/><rect class="f" x="1826.27" y="285.22" width="1.76" height="21.43"/><rect class="f" x="1826.27" y="317.14" width="1.76" height="21.44"/><rect class="f" x="1826.27" y="349.07" width="1.76" height="21.44"/><rect class="f" x="1826.27" y="380.99" width="1.76" height="21.44"/><rect class="f" x="1826.27" y="412.92" width="1.76" height="21.43"/><rect class="f" x="1826.27" y="444.84" width="1.76" height="21.44"/><rect class="f" x="1826.27" y="476.78" width="1.76" height="21.43"/><rect class="f" x="1826.27" y="508.7" width="1.76" height="21.43"/><g class="j"><rect class="f" x="782.26" y="149.76" width="1.76" height="21.44"/><rect class="f" x="782.26" y="181.69" width="1.76" height="21.44"/><rect class="f" x="782.26" y="213.61" width="1.76" height="21.44"/><rect class="f" x="782.26" y="245.54" width="1.76" height="21.43"/><rect class="f" x="782.26" y="277.46" width="1.76" height="21.44"/><rect class="f" x="782.26" y="309.39" width="1.76" height="21.43"/><rect class="f" x="782.26" y="341.31" width="1.76" height="21.43"/><rect class="f" x="782.26" y="373.24" width="1.76" height="21.44"/><rect class="f" x="782.26" y="405.16" width="1.76" height="21.44"/><rect class="f" x="782.26" y="437.09" width="1.76" height="21.44"/><rect class="f" x="782.26" y="469.02" width="1.76" height="21.43"/><rect class="f" x="782.26" y="500.94" width="1.76" height="21.44"/><rect class="f" x="782.26" y="532.87" width="1.76" height="21.43"/><rect class="f" x="782.26" y="564.79" width="1.76" height="21.43"/></g><g class="j"><rect class="f" x="782.26" y="50.29" width="1.76" height="21.44"/><rect class="f" x="782.26" y="82.22" width="1.76" height="21.43"/><rect class="f" x="782.26" y="114.14" width="1.76" height="21.43"/></g><path class="d" d="M1743.43,183.2c-15,0-29.1,5.1-42.3,13.2l-17.7-30.3c24-12.9,41.1-17.7,65.7-17.7,36.9,0,59.7,21,59.7,57.6,0,46.2-39.9,90.3-76.5,119.4v1.2h82.5l-6,34.8h-129V329.6c41.1-30.9,90.3-79.5,90.3-119.7C1770.13,193.4,1760.83,183.2,1743.43,183.2Z"/><path class="d" d="M1979.53,296.6c0,46.2-34.5,67.8-72.6,67.8-26.4,0-45.3-6.9-62.4-17.7l18.6-30.3c12,7.8,24.6,13.2,41.7,13.2,19.8,0,36-10.2,36-32.7,0-23.7-16.8-33-37.2-33h-17.1V242l42-54.6v-1.2h-77.1l6-34.8h112.8v31.8l-40.5,52.5v.9C1955.83,241.4,1979.53,258.5,1979.53,296.6Z"/><path class="d" d="M1680.24,466.36v51.35H1694v8.16h-38.25v-8.16h15.55V474.52H1657l1.7-8.16Z"/><path class="d" d="M1731.24,474.52H1702l1.7-8.16h37v7.31l-20.75,52.2h-9.69Z"/><path class="d" d="M1857.22,476.48l5.86-5.87,25.5,25.5-25.5,25.51-5.86-5.87,15.38-15.13v-.26h-99.12v-8.5h99.12v-.25Z"/><path class="d" d="M1935.07,517.71h24.23l-1.7,8.16h-35.71v-7.31c11.65-8.76,26.44-24.23,26.44-35.62,0-5.7-2.8-9.27-8.84-9.27-4.59,0-8.5,1.53-12.5,4l-4.08-7.14c6.8-3.66,11.22-5,18.2-5,10.45,0,16.49,5.95,16.49,16.32,0,13.09-12.16,27.29-22.53,35.54Z"/><path class="d" d="M1997.8,474.52h-29.24l1.7-8.16h37v7.31l-20.75,52.2h-9.69Z"/></svg>