<svg xmlns="http://www.w3.org/2000/svg" xmlns:xlink="http://www.w3.org/1999/xlink" viewBox="0 0 2137.16 1482.2"><defs><style>.a{fill:#edf1f4;}.b,.d{fill:none;stroke:#edf1f4;stroke-miterlimit:10;}.b{stroke-width:86.82px;}.c{fill:#fff;}.d{stroke-width:70px;}.e,.f{fill:#d7dde2;}.f,.g{fill-rule:evenodd;}.g{fill:#abb5bb;}.h{fill:#1c2843;}.i{fill:#586064;}.j{fill:#a6b4bb;}.k{fill:url(#a);}.l{fill:url(#b);}</style><linearGradient id="a" x1="1068.58" x2="1068.58" y2="210.19" gradientUnits="userSpaceOnUse"><stop offset="0" stop-color="#fff"/><stop offset="0.15" stop-color="#fff" stop-opacity="0.99"/><stop offset="0.28" stop-color="#fff" stop-opacity="0.94"/><stop offset="0.4" stop-color="#fff" stop-opacity="0.87"/><stop offset="0.51" stop-color="#fff" stop-opacity="0.78"/><stop offset="0.63" stop-color="#fff" stop-opacity="0.65"/><stop offset="0.74" stop-color="#fff" stop-opacity="0.49"/><stop offset="0.85" stop-color="#fff" stop-opacity="0.3"/><stop offset="0.96" stop-color="#fff" stop-opacity="0.1"/><stop offset="1" stop-color="#fff" stop-opacity="0"/></linearGradient><linearGradient id="b" x1="1056.77" y1="860.86" x2="1056.77" y2="1314.97" gradientUnits="userSpaceOnUse"><stop offset="0" stop-color="#222c54"/><stop offset="0.76" stop-color="#1e2649"/><stop offset="1" stop-color="#1c2344"/></linearGradient></defs><rect class="a" width="2137.16" height="774.15"/><line class="b" x1="2137.16" y1="734.57" y2="734.57"/><path class="c" d="M366.74,0h1321.7a0,0,0,0,1,0,0V657.65a34,34,0,0,1-34,34H400.76a34,34,0,0,1-34-34V0A0,0,0,0,1,366.74,0Z"/><path class="c" d="M1762.3,0h372a2.83,2.83,0,0,1,2.83,2.83V691.67a0,0,0,0,1,0,0H1796.31a34,34,0,0,1-34-34V0A0,0,0,0,1,1762.3,0Z"/><path class="c" d="M0,0H282.6a0,0,0,0,1,0,0V657.65a34,34,0,0,1-34,34H0a0,0,0,0,1,0,0V0A0,0,0,0,1,0,0Z"/><line class="d" x1="1725.03" x2="1725.03" y2="781.15"/><rect class="e" x="1386.39" y="321.15" width="167.08" height="135.31" rx="8.5"/><path class="f" d="M1016.32,526.4h83a8.49,8.49,0,0,0,8.5-8.5V484.63a8.49,8.49,0,0,0-8.5-8.5h-22.74a8.51,8.51,0,0,1-8.5-8.51V415.25a8.5,8.5,0,0,1,8.5-8.5h22.74a8.5,8.5,0,0,0,8.5-8.51V365a8.5,8.5,0,0,0-8.5-8.5h-83a8.51,8.51,0,0,0-8.51,8.5V517.9A8.5,8.5,0,0,0,1016.32,526.4Z"/><rect class="e" x="530.07" y="546.38" width="216.61" height="110.11" rx="8.5"/><path class="g" d="M685.5,287.06H438.12c-9.84,0-13.64,3.28-13.64,11.78V645c0,8.51,3.8,11.79,13.64,11.79h46.41c9.84,0,13.64-3.28,13.64-11.79V362.49c0-8.5,3.8-11.78,13.64-11.78H685.5c9.85,0,13.65-3.28,13.65-11.78V298.84C699.15,290.34,695.35,287.06,685.5,287.06Z"/><rect class="e" x="788.48" y="226.92" width="83.81" height="299.48" rx="8.5"/><rect class="e" x="1179.15" y="226.92" width="105.85" height="299.48" rx="8.5"/><rect class="e" x="846.54" y="536.91" width="61.52" height="177.63" rx="8.5" transform="translate(1503.02 -251.57) rotate(90)"/><rect class="h" x="1141.78" y="467.65" width="61.52" height="315.4" rx="8.5" transform="translate(1797.89 -547.19) rotate(90)"/><path class="g" d="M1601.39,330.85V583.8c0,8.51-3.28,11.79-11.78,11.79h-185c-8.51,0-11.79,3.28-11.79,11.78v38c0,8.5,3.28,11.78,11.79,11.78h246.54c8.51,0,11.79-3.28,11.79-11.78V330.85c0-8.5-3.28-11.78-11.79-11.78h-38C1604.68,319.07,1601.39,322.35,1601.39,330.85Z"/><path class="f" d="M1848.88,330.85V583.8c0,8.51,3.28,11.79,11.78,11.79h185c8.51,0,11.79,3.28,11.79,11.78v38c0,8.5-3.28,11.78-11.79,11.78H1799.14c-8.51,0-11.79-3.28-11.79-11.78V330.85c0-8.5,3.28-11.78,11.79-11.78h37.95C1845.59,319.07,1848.88,322.35,1848.88,330.85Z"/><path class="i" d="M449.52,609.12v29h7.82v4.61h-21.7v-4.61h8.82V613.73h-8.1l1-4.61Z"/><path class="i" d="M477.68,627.94a8.68,8.68,0,0,1-6.12,2.07c-5.74,0-9.69-3.8-9.69-10.57,0-6.57,4.67-10.8,11-10.8,6.8,0,10.94,4.56,10.94,12.34,0,12-6.75,19.35-16.73,22.23l-1.83-3.94c5.74-2.16,11-5.42,12.59-11.23Zm-4.82-14.69c-3.28,0-5.79,2.21-5.79,6.19s2.51,6.2,5.79,6.2a6.5,6.5,0,0,0,5.83-4.18C478.69,616.66,476.57,613.25,472.86,613.25Z"/><path class="j" d="M848.86,638.12H862.6l-1,4.61H841.39V638.6c6.6-5,15-13.68,15-20.12,0-3.21-1.59-5.23-5-5.23a13.22,13.22,0,0,0-7.09,2.26l-2.31-4c3.85-2.06,6.36-2.83,10.32-2.83,5.93,0,9.35,3.36,9.35,9.22,0,7.39-6.9,15.41-12.78,20.07Z"/><path class="j" d="M882.52,609.12v29h7.81v4.61h-21.7v-4.61h8.82V613.73h-8.1l1-4.61Z"/><path class="j" d="M906.82,637.72h-7.11l-1.43,5h-5.43l7.84-24.53h5.15l7.85,24.53h-5.43ZM903.32,625h-.14l-2.14,8.1h4.45Z"/><path class="j" d="M615.68,638.12h13.75l-1,4.61H608.21V638.6c6.61-5,15-13.68,15-20.12,0-3.21-1.59-5.23-5-5.23a13.22,13.22,0,0,0-7.09,2.26l-2.31-4c3.86-2.06,6.36-2.83,10.32-2.83,5.93,0,9.35,3.36,9.35,9.22,0,7.39-6.89,15.41-12.78,20.07Z"/><path class="j" d="M649.29,609.12v29h7.81v4.61H635.4v-4.61h8.83V613.73h-8.1l1-4.61Z"/><path class="c" d="M1156,638.12h13.74l-1,4.61h-20.25V638.6c6.6-5,15-13.68,15-20.12,0-3.21-1.59-5.23-5-5.23a13.22,13.22,0,0,0-7.09,2.26l-2.31-4c3.85-2.06,6.36-2.83,10.31-2.83,5.94,0,9.36,3.36,9.36,9.22,0,7.39-6.9,15.41-12.78,20.07Z"/><path class="c" d="M1196.16,632.36c0,7.39-5.3,10.85-11.42,10.85a17,17,0,0,1-9.79-2.84l2.46-4a11.63,11.63,0,0,0,7,2.26c3.71,0,6.51-1.92,6.51-6.2,0-4.46-2.9-6.24-6.7-6.24h-2.51v-2.59l7.23-9.65v-.19h-12.87l1-4.61h17.65v4.13l-6.9,9.12v.15C1192.31,623.28,1196.16,625.88,1196.16,632.36Z"/><path class="i" d="M1509.61,638.12h13.74l-1,4.61h-20.26V638.6c6.61-5,15-13.68,15-20.12,0-3.21-1.59-5.23-5-5.23a13.17,13.17,0,0,0-7.09,2.26l-2.32-4c3.86-2.06,6.37-2.83,10.32-2.83,5.93,0,9.36,3.36,9.36,9.22,0,7.39-6.9,15.41-12.78,20.07Z"/><path class="i" d="M1545.05,631.93c0-4.52-3.23-6.87-7-6.87a17.09,17.09,0,0,0-7,1.44V609.12h18l-1,4.61h-12v7.2a16.69,16.69,0,0,1,3-.29c6.17,0,11.23,3.65,11.23,11.29,0,7.39-5.3,11.28-11.42,11.28a17,17,0,0,1-9.79-2.84l2.46-4a11.63,11.63,0,0,0,7,2.26C1542.06,638.6,1545.05,636.44,1545.05,631.93Z"/><path class="j" d="M1441.79,391.73h11.4l-.8,3.84h-16.8v-3.44c5.48-4.12,12.44-11.4,12.44-16.75,0-2.68-1.32-4.36-4.16-4.36a10.9,10.9,0,0,0-5.88,1.88l-1.92-3.36a16,16,0,0,1,8.56-2.36c4.92,0,7.76,2.8,7.76,7.68,0,6.15-5.72,12.83-10.6,16.71Z"/><path class="j" d="M1471.19,386.57c0-3.76-2.68-5.72-5.84-5.72a14,14,0,0,0-5.8,1.21V367.58h15l-.8,3.84h-10v6a13.67,13.67,0,0,1,2.48-.24c5.12,0,9.32,3,9.32,9.39,0,6.16-4.4,9.4-9.48,9.4a14,14,0,0,1-8.12-2.36l2-3.36a9.67,9.67,0,0,0,5.8,1.88C1468.71,392.13,1471.19,390.33,1471.19,386.57Z"/><path class="j" d="M1487.87,373.13h3.39l-10.84,25.06H1477Z"/><path class="j" d="M1501,375.13v17.05h4.59v3.39H1492.1v-3.39h5.2V378.52h-4.76l.59-3.39Z"/><path class="j" d="M1907.7,638.12h13.74l-1,4.61h-20.25V638.6c6.6-5,15-13.68,15-20.12,0-3.21-1.59-5.23-5-5.23a13.2,13.2,0,0,0-7.09,2.26l-2.32-4c3.86-2.07,6.37-2.84,10.32-2.84,5.93,0,9.36,3.36,9.36,9.22,0,7.39-6.9,15.41-12.78,20.07Z"/><path class="j" d="M1943.28,613.73H1926.7l1-4.61h21v4.13l-11.76,29.48h-5.5Z"/><path class="j" d="M1195.43,391.73h11.45l-.8,3.84H1189.2v-3.44c5.51-4.12,12.5-11.39,12.5-16.75,0-2.68-1.33-4.36-4.18-4.36a11,11,0,0,0-5.91,1.88l-1.92-3.36a16,16,0,0,1,8.59-2.36c5,0,7.8,2.8,7.8,7.68,0,6.15-5.75,12.83-10.65,16.71Z"/><path class="j" d="M1229,386.93c0,6.16-4.42,9-9.52,9a14.16,14.16,0,0,1-8.16-2.36l2-3.36a9.76,9.76,0,0,0,5.83,1.88c3.09,0,5.42-1.6,5.42-5.16,0-3.71-2.41-5.2-5.58-5.2h-2.09v-2.15l6-8v-.16h-10.72l.8-3.84h14.7V371l-5.74,7.6v.12C1225.77,379.38,1229,381.54,1229,386.93Z"/><path class="j" d="M1239.47,386.69H1238v8.88h-3.73V375.13H1238v8.18h1.52l5.29-8.18H1249l-6.4,9.67,7,10.77-4.21.29Z"/><path class="j" d="M1258.39,391.73h11.45l-.81,3.84h-16.87v-3.44c5.51-4.12,12.5-11.39,12.5-16.75,0-2.68-1.33-4.36-4.18-4.36a11,11,0,0,0-5.91,1.88l-1.93-3.36a16.1,16.1,0,0,1,8.6-2.36c4.94,0,7.79,2.8,7.79,7.68,0,6.15-5.74,12.83-10.64,16.71Z"/><path class="j" d="M1022.68,391.73h11.45l-.8,3.84h-16.88v-3.44c5.51-4.12,12.5-11.39,12.5-16.75,0-2.68-1.33-4.36-4.18-4.36a11,11,0,0,0-5.91,1.88l-1.92-3.36a16,16,0,0,1,8.59-2.36c5,0,7.8,2.8,7.8,7.68,0,6.15-5.75,12.83-10.65,16.71Z"/><path class="j" d="M1056.23,386.93c0,6.16-4.42,9-9.52,9a14.16,14.16,0,0,1-8.16-2.36l2-3.36a9.76,9.76,0,0,0,5.83,1.88c3.09,0,5.42-1.6,5.42-5.16,0-3.72-2.41-5.2-5.58-5.2h-2.09v-2.15l6-8v-.16h-10.72l.8-3.84H1055V371l-5.74,7.6v.12C1053,379.38,1056.23,381.53,1056.23,386.93Z"/><path class="j" d="M1066.72,386.69h-1.46v8.88h-3.73V375.13h3.73v8.18h1.52l5.29-8.18h4.18l-6.4,9.67,7,10.77-4.21.29Z"/><path class="j" d="M1091.18,367.58v24.15h6.51v3.84h-18.08v-3.84H1087V371.42h-6.75l.81-3.84Z"/><path class="j" d="M808.17,391.73h11.46l-.81,3.84H802v-3.44c5.5-4.12,12.49-11.39,12.49-16.75,0-2.68-1.32-4.36-4.18-4.36a11,11,0,0,0-5.9,1.88l-1.93-3.36a16.06,16.06,0,0,1,8.6-2.36c4.94,0,7.79,2.8,7.79,7.68,0,6.16-5.74,12.83-10.65,16.71Z"/><path class="j" d="M836.22,367.58v24.15h6.51v3.84H824.65v-3.84H832V371.42h-6.75l.8-3.84Z"/><path class="j" d="M850.76,378.52v4.67h2.54c4.23,0,7.07,2,7.07,6.19s-2.81,6.19-7.07,6.19H847V375.13h12l-.58,3.39Zm0,8.06v5.61h2.36c2.37,0,3.39-1.2,3.39-2.81s-1-2.8-3.42-2.8Z"/><path class="j" d="M144.45,608.12v29h7.81v4.61H130.57v-4.61h8.82V612.73h-8.1l1-4.61Z"/><path class="j" d="M173.24,630.93c0-4.52-3.23-6.87-7-6.87a17.09,17.09,0,0,0-7,1.44V608.12h18l-1,4.61h-12v7.2a16.69,16.69,0,0,1,3-.29c6.17,0,11.23,3.65,11.23,11.29,0,7.39-5.3,11.28-11.42,11.28a17,17,0,0,1-9.79-2.84l2.46-4a11.63,11.63,0,0,0,7,2.26C170.25,637.6,173.24,635.44,173.24,630.93Z"/><rect class="k" width="2137.16" height="210.19"/><path class="f" d="M219.24,656.49h-141a10.42,10.42,0,0,1-10.41-10.41V590.2a10.41,10.41,0,0,1,10.41-10.41h26a10.41,10.41,0,0,0,10.41-10.41V514.7h.27V361.34a11.25,11.25,0,0,1,11.25-11.24h93.07a10.41,10.41,0,0,1,10.41,10.41V646.08A10.42,10.42,0,0,1,219.24,656.49Z"/><path class="j" d="M157.56,609.12v29h7.81v4.61h-21.7v-4.61h8.83V613.73h-8.1l1-4.61Z"/><path class="j" d="M186.49,613.73H169.9l1-4.61h21v4.13l-11.76,29.48h-5.5Z"/><rect class="l" x="758.77" y="860.86" width="596.01" height="454.1" rx="35.48"/><path class="c" d="M967.59,963.87c-15.22,0-29.52,5.18-42.92,13.39l-18-30.74c24.36-13.09,41.71-18,66.67-18,37.43,0,60.57,21.31,60.57,58.45,0,46.87-40.49,91.61-77.62,121.14v1.22H1040l-6.08,35.31H903.06v-32.27c41.7-31.35,91.62-80.66,91.62-121.45C994.68,974.22,985.25,963.87,967.59,963.87Z"/><path class="c" d="M1207.44,1078.93c0,46.87-35,68.79-73.66,68.79-26.79,0-46-7-63.31-18l18.87-30.74c12.18,7.91,25,13.39,42.31,13.39,20.09,0,36.53-10.35,36.53-33.18,0-24-17-33.48-37.75-33.48h-17.35v-22.22l42.62-55.4v-1.21h-78.23l6.09-35.31H1198v32.26l-41.1,53.27v.91C1183.39,1022.92,1207.44,1040.27,1207.44,1078.93Z"/><path class="c" d="M912.9,1201.43v49H926v7.78h-36.5v-7.78h14.84v-41.2H890.76l1.62-7.79Z"/><path class="c" d="M960.26,1233.22c-2.59,2.44-6.16,3.49-10.3,3.49-9.65,0-16.3-6.41-16.3-17.84,0-11.11,7.87-18.25,18.49-18.25,11.44,0,18.41,7.71,18.41,20.84,0,20.28-11.35,32.69-28.14,37.55l-3.08-6.65c9.65-3.65,18.49-9.16,21.17-19Zm-8.11-24.81c-5.51,0-9.73,3.73-9.73,10.46s4.22,10.46,9.73,10.46a11,11,0,0,0,9.82-7.06C962,1214.17,958.4,1208.41,952.15,1208.41Z"/><path class="c" d="M1081.75,1211.08l5.6-5.59,24.33,24.33-24.33,24.33-5.6-5.6,14.68-14.43v-.25h-94.56v-8.11h94.56v-.24Z"/><path class="c" d="M1156,1250.42h23.11l-1.62,7.78h-34.06v-7c11.11-8.36,25.22-23.12,25.22-34,0-5.44-2.68-8.84-8.43-8.84-4.38,0-8.11,1.46-11.93,3.81l-3.89-6.81c6.49-3.49,10.71-4.79,17.36-4.79,10,0,15.73,5.68,15.73,15.57,0,12.49-11.6,26-21.49,33.9Z"/><path class="c" d="M1215.65,1240c0-7.62-5.44-11.59-11.84-11.59a28.67,28.67,0,0,0-11.76,2.43v-29.36h30.33l-1.62,7.79h-20.2v12.16a28.09,28.09,0,0,1,5-.48c10.38,0,18.9,6.16,18.9,19,0,12.49-8.92,19.06-19.22,19.06a28.51,28.51,0,0,1-16.47-4.78l4.14-6.81a19.61,19.61,0,0,0,11.76,3.81C1210.62,1251.23,1215.65,1247.58,1215.65,1240Z"/></svg>