<svg xmlns="http://www.w3.org/2000/svg" viewBox="0 0 871.392 211.816"><defs><style>.a,.e,.f,.h{fill:#88bd28;}.a{opacity:0.3;}.b,.c,.d,.g,.l,.m,.n,.o,.p,.q,.r,.s,.t,.u,.v,.w,.x,.y,.z{fill:none;}.b,.c,.d,.g,.h,.l,.m,.n,.o,.p,.q,.r,.s,.t,.u,.v,.w,.x,.y,.z{stroke:#53af32;stroke-miterlimit:10;stroke-width:0.567px;}.c{stroke-dasharray:5.734 2.867;}.d{stroke-dasharray:5.389 2.695;}.e,.h{fill-opacity:0.3;}.f{fill-opacity:0.15;}.g{stroke-dasharray:5.734 2.867;}.h{stroke-dasharray:5.669 2.835;}.i,.k{fill:#53af32;}.j{opacity:0.5;}.k{fill-rule:evenodd;}.l{stroke-dasharray:5.938 2.969;}.m{stroke-dasharray:5.549 2.775;}.n{stroke-dasharray:5.556 2.778;}.o{stroke-dasharray:5.664 2.832;}.p{stroke-dasharray:6.312 3.156;}.q{stroke-dasharray:5.742 2.871;}.r{stroke-dasharray:6.185 3.093;}.s{stroke-dasharray:5.742 2.871;}.t{stroke-dasharray:5.734 2.867;}.u{stroke-dasharray:5.48 2.74;}.v{stroke-dasharray:4.967 2.484;}.w{stroke-dasharray:5.327 2.664;}.x{stroke-dasharray:5.904 2.952;}.y{stroke-dasharray:5.798 2.899;}.z{stroke-dasharray:3.204 1.602;}</style></defs><rect class="a" x="500.43" y="63.099" width="309.548" height="48.784"/><polyline class="b" points="809.978 109.048 809.978 111.883 807.143 111.883"/><line class="c" x1="804.277" y1="111.883" x2="504.698" y2="111.883"/><polyline class="b" points="503.265 111.883 500.43 111.883 500.43 109.048"/><line class="d" x1="500.43" y1="106.354" x2="500.43" y2="67.281"/><polyline class="b" points="500.43 65.934 500.43 63.099 503.265 63.099"/><line class="c" x1="506.131" y1="63.099" x2="805.71" y2="63.099"/><polyline class="b" points="807.143 63.099 809.978 63.099 809.978 65.934"/><line class="d" x1="809.978" y1="68.628" x2="809.978" y2="107.701"/><rect class="e" x="500.43" y="76.311" width="309.581" height="35.578"/><rect class="f" x="400.962" y="63.099" width="435.778" height="85.632"/><line class="b" x1="500.43" y1="76.311" x2="503.265" y2="76.311"/><line class="g" x1="506.132" y1="76.311" x2="805.743" y2="76.311"/><line class="b" x1="807.176" y1="76.311" x2="810.011" y2="76.311"/><rect class="h" x="427.517" y="63.099" width="72.913" height="72.913"/><path class="i" d="M814.759,102.817l7.089,4.1h.066v-2.175h-1.942v-2.075h1.942v-1.826l1.909.332v1.494h2.557v2.075h-2.557v4.649H822.08l-7.321-4.267Z"/><path class="i" d="M826.546,95.862c0,2.557-2.042,4.15-5.976,4.15s-5.977-1.593-5.977-4.15,2.042-4.15,5.977-4.15S826.546,93.305,826.546,95.862Zm-1.926,0c0-1.145-1.2-2.009-4.05-2.009s-4.051.864-4.051,2.009,1.2,2.009,4.051,2.009S824.62,97.008,824.62,95.862Z"/><path class="i" d="M826.065,76.873a6,6,0,0,1,.481,2.407,4.063,4.063,0,0,1-4.4,4.217c-2.441,0-4.4-1.395-4.4-4.134a6.534,6.534,0,0,1,.465-2.407l1.627.664a4.317,4.317,0,0,0-.315,1.643c0,1.229,1.062,2.142,2.623,2.142s2.623-.9,2.623-2.125a4.847,4.847,0,0,0-.332-1.743Z"/><path class="i" d="M821.35,68.374v.067L825,69.918v1.793l-3.652,1.494v.067l5.03.4v2.042l-8.467-.813V72.724l4.516-1.876v-.066l-4.516-1.876V66.731l8.467-.814v2.042Z"/><path class="i" d="M417.642,126.979a3.43,3.43,0,0,1,3.138-5.23,3.653,3.653,0,0,1,3.735,3.868c0,2.341-1.677,3.852-4.267,3.852-4.2,0-6.69-2.573-7.686-6.01l1.527-.714c.7,1.81,1.743,3.62,3.52,4.284Zm2.606.4c1.411,0,2.341-.7,2.341-1.76a1.81,1.81,0,0,0-3.619,0A2.064,2.064,0,0,0,420.248,127.377Z"/><path class="i" d="M424.515,116.356c0,2.556-2.042,4.15-5.977,4.15s-5.976-1.594-5.976-4.15,2.042-4.151,5.976-4.151S424.515,113.8,424.515,116.356Zm-1.926,0c0-1.146-1.195-2.009-4.051-2.009s-4.05.863-4.05,2.009,1.195,2.009,4.05,2.009S422.589,117.5,422.589,116.356Z"/><path class="i" d="M424.033,100.022a5.983,5.983,0,0,1,.482,2.407,4.064,4.064,0,0,1-4.4,4.217c-2.44,0-4.4-1.395-4.4-4.134a6.534,6.534,0,0,1,.465-2.407l1.627.664a4.314,4.314,0,0,0-.316,1.643c0,1.229,1.063,2.142,2.623,2.142s2.624-.9,2.624-2.125a4.844,4.844,0,0,0-.333-1.743Z"/><path class="i" d="M419.319,91.523v.067l3.652,1.477V94.86l-3.652,1.494v.067l5.03.4v2.042l-8.467-.813V95.873L420.4,94V93.93l-4.516-1.876V89.88l8.467-.814v2.042Z"/><g class="j"><path class="i" d="M841.568,127.508v5.512l-1.926-.332V125.3h1.76l9.861,4.134v2.224Z"/><path class="i" d="M851.429,119.824c0,2.556-2.042,4.15-5.977,4.15s-5.976-1.594-5.976-4.15,2.042-4.151,5.976-4.151S851.429,117.267,851.429,119.824Zm-1.926,0c0-1.146-1.2-2.009-4.051-2.009s-4.05.863-4.05,2.009,1.195,2.008,4.05,2.008S849.5,120.969,849.5,119.824Z"/><path class="i" d="M850.948,100.834a6,6,0,0,1,.481,2.407,4.063,4.063,0,0,1-4.4,4.217c-2.441,0-4.4-1.394-4.4-4.134a6.538,6.538,0,0,1,.465-2.407l1.627.664a4.319,4.319,0,0,0-.316,1.644c0,1.228,1.063,2.141,2.624,2.141s2.623-.9,2.623-2.125a4.872,4.872,0,0,0-.332-1.743Z"/><path class="i" d="M846.233,92.335V92.4l3.652,1.477v1.793l-3.652,1.494v.067l5.03.4v2.042L842.8,98.86V96.685l4.516-1.876v-.067L842.8,92.866V90.692l8.467-.814V91.92Z"/></g><path class="i" d="M534.456,86.1,552.5,111.7l-8.6.694L527.865,89.776h-3.608V111.7h-7.493V63.133h7.493v20.26h3.816l14.432-20.26h8.533Z"/><path class="i" d="M556.659,94.008c0-11.517,6.454-18.386,16.305-18.386s16.3,6.869,16.3,18.386-6.452,18.386-16.3,18.386S556.659,105.526,556.659,94.008Zm7.355,0c0,7.771,3.539,12.35,8.95,12.35s8.95-4.579,8.95-12.35-3.538-12.35-8.95-12.35S564.014,86.238,564.014,94.008Z"/><path class="i" d="M622.158,125.576l-7.215,1.388V112.047a27.262,27.262,0,0,1-4.094.347c-10.754,0-14.64-8.187-14.64-18.386s3.886-18.386,14.64-18.386a27.262,27.262,0,0,1,4.094.347V61.052l7.215-1.388v16.3a27.249,27.249,0,0,1,4.094-.347c10.754,0,14.64,8.187,14.64,18.386s-3.886,18.386-14.64,18.386a27.249,27.249,0,0,1-4.094-.347Zm-7.077-43.571a13.376,13.376,0,0,0-3.122-.347c-5.967,0-8.465,5-8.465,12.35s2.5,12.35,8.465,12.35a13.783,13.783,0,0,0,3.122-.347Zm6.939,24.006a13.322,13.322,0,0,0,3.122.347c5.967,0,8.465-5,8.465-12.35s-2.5-12.35-8.465-12.35a13.376,13.376,0,0,0-3.122.347Z"/><path class="i" d="M677.736,95.673H655.255c.486,6.869,4.094,10.685,10.477,10.685a19.638,19.638,0,0,0,8.811-2.428l2.36,5.48a25.857,25.857,0,0,1-11.865,2.984c-10.407,0-17.207-6.8-17.207-18.386,0-11.656,6.384-18.386,15.958-18.386,9.506,0,14.571,5.551,14.571,14.223A29.833,29.833,0,0,1,677.736,95.673Zm-22.2-5.62h16.374c0-4.856-2.636-8.395-7.979-8.395C659.141,81.658,656.157,85.058,655.533,90.053Z"/><path class="i" d="M687.38,111.7V76.316H694.6v23.59h.277l16.3-23.59h6.452V111.7h-7.216V88.111h-.277l-16.3,23.589Zm26.573-47.249a13.308,13.308,0,0,1-22.9,0l4.579-3.052a7.628,7.628,0,0,0,6.869,4.509c2.914,0,5.274-1.526,6.8-4.509Z"/><path class="i" d="M757.111,111.7H749.9V96.506H735.949V111.7h-7.215V76.316h7.215V90.47H749.9V76.316h7.216Z"/><path class="i" d="M773.624,97.893c-4.162-1.665-6.521-5.273-6.521-10.338,0-6.868,4.648-11.239,12.28-11.239h13.946V111.7h-7.215V98.865h-5.482L773,111.7h-8.257Zm6.453-5h6.037V82.352h-6.037c-3.469,0-5.62,2.22-5.62,5.343S776.608,92.9,780.077,92.9Z"/><path class="k" d="M427.268,128.424l57.276,0v7.717H427.268Zm46.367-13.173h2.727a7.283,7.283,0,0,0,0-14.565h-2.727ZM441.369,84.785c0-12.635,10.909-13.518,10.909-21.818H460c0,12.635-10.912,13.518-10.912,21.818Zm34.993,8.184a15,15,0,0,1,0,30H443.633a10.943,10.943,0,0,1-10.911-10.909V92.969h21.82c0-12.635,10.909-13.519,10.909-21.818h7.72c0,12.664-10.911,13.562-10.911,21.818Z"/><line class="b" x1="871.392" y1="87.494" x2="868.557" y2="87.494"/><line class="l" x1="865.588" y1="87.494" x2="795.817" y2="87.494"/><line class="b" x1="794.333" y1="87.494" x2="791.498" y2="87.494"/><line class="b" x1="633.057" x2="633.057" y2="2.835"/><line class="m" x1="633.057" y1="5.609" x2="633.057" y2="70.814"/><line class="b" x1="633.057" y1="72.201" x2="633.057" y2="75.036"/><line class="b" x1="633.057" y1="111.698" x2="633.057" y2="114.533"/><line class="n" x1="633.057" y1="117.311" x2="633.057" y2="207.592"/><line class="b" x1="633.057" y1="208.981" x2="633.057" y2="211.816"/><rect class="a" x="500.43" y="130.183" width="263.387" height="18.294"/><polyline class="b" points="763.817 145.642 763.817 148.477 760.982 148.477"/><line class="o" x1="758.15" y1="148.477" x2="504.681" y2="148.477"/><polyline class="b" points="503.265 148.477 500.43 148.477 500.43 145.642"/><line class="p" x1="500.43" y1="142.486" x2="500.43" y2="134.596"/><polyline class="b" points="500.43 133.018 500.43 130.183 503.265 130.183"/><line class="o" x1="506.097" y1="130.183" x2="759.566" y2="130.183"/><polyline class="b" points="760.982 130.183 763.817 130.183 763.817 133.018"/><line class="p" x1="763.817" y1="136.174" x2="763.817" y2="144.064"/><rect class="f" x="500.43" y="111.855" width="263.387" height="18.294"/><path class="i" d="M767.429,141.492h6.425v-1.727h1.276v5.06h-1.276v-1.958h-5.149v1.793l-1.276-.219Z"/><path class="i" d="M767.429,134.056l1.276.22v2.63h1.43a3.235,3.235,0,0,1-.065-.551,2.411,2.411,0,0,1,2.585-2.585,2.505,2.505,0,0,1,2.585,2.662,4.038,4.038,0,0,1-.649,2.288l-1.111-.682a2.662,2.662,0,0,0,.484-1.529,1.243,1.243,0,0,0-1.309-1.32,1.333,1.333,0,0,0-1.353,1.441,4.783,4.783,0,0,0,.318,1.651h-4.191Z"/><g class="j"><path class="i" d="M767.429,123.164h6.425v-1.727h1.276v5.06h-1.276v-1.958h-5.149v1.793l-1.276-.219Z"/><path class="i" d="M767.429,115.728l1.276.22v2.629h1.43a3.223,3.223,0,0,1-.065-.55,2.41,2.41,0,0,1,2.585-2.585,2.505,2.505,0,0,1,2.585,2.662,4.038,4.038,0,0,1-.649,2.288l-1.111-.682a2.662,2.662,0,0,0,.484-1.529,1.243,1.243,0,0,0-1.309-1.32A1.333,1.333,0,0,0,771.3,118.3a4.774,4.774,0,0,0,.318,1.65h-4.191Z"/></g><path class="i" d="M523.1,138.922a4.362,4.362,0,0,1,3.737,4.517c0,3.712-2.777,5.035-6.333,5.035h-5.425V130.305H520.5c3.244,0,5.684,1.194,5.684,4.36a4.029,4.029,0,0,1-3.088,4.154Zm-5.218-6.125v5.139h2.441a2.692,2.692,0,0,0,2.959-2.621c0-1.661-1.065-2.518-3.063-2.518Zm0,7.527v5.658h2.466c2.232,0,3.582-1.142,3.582-2.881,0-1.843-1.271-2.777-3.607-2.777Z"/><path class="i" d="M533.168,140.065h2.363c2.855,0,4.723,1.556,4.723,4.23s-1.868,4.179-4.723,4.179h-5.062V135.237h2.7Zm0,2.258v3.893h2.1c1.376,0,2.232-.726,2.232-1.947s-.856-1.946-2.232-1.946Zm11.733,6.151h-2.7V135.237h2.7Z"/><path class="i" d="M559.465,148.474h-2.7v-10.98h-5.01v10.98h-2.7V135.237h10.408Z"/><path class="i" d="M574.029,142.478h-8.41c.182,2.57,1.532,4,3.919,4a7.343,7.343,0,0,0,3.3-.908l.883,2.05a9.673,9.673,0,0,1-4.438,1.117c-3.893,0-6.437-2.544-6.437-6.878,0-4.362,2.388-6.879,5.97-6.879,3.555,0,5.45,2.077,5.45,5.321A11.13,11.13,0,0,1,574.029,142.478Zm-8.306-2.1h6.126a2.823,2.823,0,0,0-2.985-3.14C567.073,137.236,565.956,138.507,565.723,140.376Z"/><path class="i" d="M576.861,139.337v-4.1h2.7V139.1a2.067,2.067,0,0,0,2.284,2.259,7.131,7.131,0,0,0,2.518-.468v-5.658h2.7v13.237h-2.7v-5.4a8.552,8.552,0,0,1-2.933.545C578.807,143.62,576.861,142.244,576.861,139.337Z"/><path class="i" d="M597.55,141.621l4.387,6.853-2.751.26-3.816-6h-1.454v5.736h-2.7V135.237h2.7v5.346h1.48l3.478-5.346h2.8Z"/><path class="i" d="M611.049,140.688v-.883c0-1.583-.675-2.569-2.621-2.569a10.43,10.43,0,0,0-3.582.7l-.778-2.1a12.98,12.98,0,0,1,4.672-.856c4.048,0,5.008,2.129,5.008,4.88v5.554a.837.837,0,0,0,.935.935h.285v2a4.761,4.761,0,0,1-1.557.26,2.05,2.05,0,0,1-2.1-1.531h-.1a4.838,4.838,0,0,1-3.738,1.531c-2.518,0-4.1-1.246-4.1-3.946,0-2.517,2.077-3.97,5.01-3.97Zm-2.777,2.1a1.976,1.976,0,0,0-2.232,1.921,1.738,1.738,0,0,0,1.947,1.765,3.851,3.851,0,0,0,3.062-1.635v-2.051Z"/><path class="i" d="M624.575,148.474V135.237h2.7v8.825h.1l6.1-8.825h2.413v13.237h-2.7v-8.825h-.1l-6.1,8.825Z"/><path class="i" d="M652.924,141.44v.078a3.293,3.293,0,0,1,2.829,3.14c0,2.493-1.843,4.076-5.555,4.076a12.2,12.2,0,0,1-4.438-.805l.831-2.076a10.694,10.694,0,0,0,3.529.622c1.688,0,2.881-.778,2.881-1.868,0-1.143-.7-1.843-2.647-1.843h-1.79V140.61h1.583c1.246,0,2.284-.494,2.284-1.661,0-1.143-.986-1.713-2.233-1.713a10.85,10.85,0,0,0-3.477.57l-.831-2.076a13.561,13.561,0,0,1,4.387-.753c3.166,0,4.9,1.3,4.9,3.634A2.962,2.962,0,0,1,652.924,141.44Z"/><path class="i" d="M665.774,140.688v-.883c0-1.583-.675-2.569-2.621-2.569a10.421,10.421,0,0,0-3.582.7l-.779-2.1a12.984,12.984,0,0,1,4.672-.856c4.049,0,5.009,2.129,5.009,4.88v5.554a.836.836,0,0,0,.934.935h.286v2a4.761,4.761,0,0,1-1.557.26,2.052,2.052,0,0,1-2.1-1.531h-.1a4.838,4.838,0,0,1-3.738,1.531c-2.518,0-4.1-1.246-4.1-3.946,0-2.517,2.076-3.97,5.01-3.97Zm-2.778,2.1a1.975,1.975,0,0,0-2.231,1.921,1.738,1.738,0,0,0,1.946,1.765,3.853,3.853,0,0,0,3.063-1.635v-2.051Z"/><path class="i" d="M682.828,144.658c0,2.388-1.5,3.816-4.515,3.816H672.55V135.237H677.9c2.647,0,4.386.986,4.386,3.374a2.961,2.961,0,0,1-2.257,2.829v.078A3.27,3.27,0,0,1,682.828,144.658Zm-7.579-7.164v3.012h2.129c1.22,0,2.154-.39,2.154-1.506,0-1.168-.831-1.506-1.972-1.506Zm0,5.27v3.452h2.622c1.375,0,2.206-.545,2.206-1.713s-.908-1.739-2.465-1.739Z"/><path class="i" d="M684.649,135.237h11.212l-.519,2.257h-3.815v10.98h-2.674v-10.98h-4.2Z"/><path class="i" d="M701.029,153.665l-2.7.519V135.237h1.921l.52,1.4h.1a4.693,4.693,0,0,1,3.764-1.661c3.737,0,5.347,2.933,5.347,6.879s-1.636,6.878-5.58,6.878a7.815,7.815,0,0,1-3.375-.7Zm6.2-11.809c0-2.726-1.091-4.62-3.375-4.62a3.746,3.746,0,0,0-2.829,1.634v6.671a4.827,4.827,0,0,0,2.933.934C706.012,146.475,707.233,144.788,707.233,141.856Z"/><path class="i" d="M720.135,140.688v-.883c0-1.583-.675-2.569-2.621-2.569a10.43,10.43,0,0,0-3.582.7l-.778-2.1a12.979,12.979,0,0,1,4.671-.856c4.049,0,5.009,2.129,5.009,4.88v5.554a.837.837,0,0,0,.935.935h.285v2a4.761,4.761,0,0,1-1.557.26,2.05,2.05,0,0,1-2.1-1.531h-.1a4.838,4.838,0,0,1-3.738,1.531c-2.518,0-4.1-1.246-4.1-3.946,0-2.517,2.077-3.97,5.01-3.97Zm-2.777,2.1a1.976,1.976,0,0,0-2.232,1.921,1.738,1.738,0,0,0,1.947,1.765,3.851,3.851,0,0,0,3.062-1.635v-2.051Z"/><path class="i" d="M733.244,141.621l4.387,6.853-2.751.26-3.815-6h-1.454v5.736h-2.7V135.237h2.7v5.346h1.479l3.479-5.346h2.8Z"/><path class="i" d="M739.97,148.474V135.237h2.7v8.825h.105l6.1-8.825h2.413v13.237h-2.7v-8.825h-.1l-6.1,8.825Z"/><rect class="f" x="58.681" y="69.198" width="268.833" height="60.749"/><g class="j"><path class="i" d="M330.1,118.615l1.444.249v2.975h1.619a3.486,3.486,0,0,1-.075-.623,2.729,2.729,0,0,1,2.926-2.926,2.836,2.836,0,0,1,2.926,3.014,4.577,4.577,0,0,1-.735,2.59l-1.257-.773a3.009,3.009,0,0,0,.548-1.73,1.406,1.406,0,0,0-1.482-1.494,1.509,1.509,0,0,0-1.531,1.631,5.4,5.4,0,0,0,.361,1.868H330.1Z"/><path class="i" d="M338.942,114.12c0,1.918-1.532,3.114-4.482,3.114s-4.483-1.2-4.483-3.114,1.532-3.113,4.483-3.113S338.942,112.2,338.942,114.12Zm-1.444,0c0-.859-.9-1.506-3.038-1.506s-3.038.647-3.038,1.506.9,1.507,3.038,1.507S337.5,114.98,337.5,114.12Z"/><path class="i" d="M338.581,99.879a4.482,4.482,0,0,1,.361,1.8,3.047,3.047,0,0,1-3.3,3.163,3,3,0,0,1-3.3-3.1,4.906,4.906,0,0,1,.349-1.8l1.22.5a3.239,3.239,0,0,0-.237,1.233c0,.921.8,1.606,1.968,1.606s1.967-.672,1.967-1.594a3.633,3.633,0,0,0-.249-1.307Z"/><path class="i" d="M335.045,93.505v.05l2.739,1.108v1.345l-2.739,1.12v.05l3.773.3v1.531l-6.35-.61V96.767l3.386-1.407v-.05L332.468,93.9V92.272l6.35-.61v1.532Z"/></g><rect class="a" x="113.548" y="69.198" width="189.419" height="36.595"/><polyline class="b" points="302.967 102.958 302.967 105.793 300.132 105.793"/><line class="q" x1="297.261" y1="105.793" x2="117.818" y2="105.793"/><polyline class="b" points="116.383 105.793 113.548 105.793 113.548 102.958"/><line class="r" x1="113.548" y1="99.866" x2="113.548" y2="73.579"/><polyline class="b" points="113.548 72.033 113.548 69.198 116.383 69.198"/><line class="q" x1="119.254" y1="69.198" x2="298.697" y2="69.198"/><polyline class="b" points="300.132 69.198 302.967 69.198 302.967 72.033"/><line class="r" x1="302.967" y1="75.125" x2="302.967" y2="101.412"/><rect class="e" x="113.567" y="79.107" width="189.407" height="26.683"/><line class="b" x1="113.567" y1="79.107" x2="116.402" y2="79.107"/><line class="s" x1="119.273" y1="79.107" x2="298.704" y2="79.107"/><line class="b" x1="300.139" y1="79.107" x2="302.974" y2="79.107"/><rect class="h" x="58.688" y="69.198" width="54.879" height="54.879"/><path class="i" d="M312.566,98.072a2.748,2.748,0,0,1,2.814,3.013,4.584,4.584,0,0,1-.735,2.59l-1.258-.772a3.012,3.012,0,0,0,.548-1.731,1.325,1.325,0,0,0-1.357-1.494c-.984,0-1.37.7-1.37,1.544v.71H310.3l-2.267-1.743h-.049v3.2l-1.445-.249V98.458h1.32l2.179,1.681h.037A2.346,2.346,0,0,1,312.566,98.072Z"/><path class="i" d="M315.38,93.777c0,1.918-1.532,3.113-4.483,3.113s-4.482-1.2-4.482-3.113,1.532-3.113,4.482-3.113S315.38,91.86,315.38,93.777Zm-1.445,0c0-.859-.9-1.506-3.038-1.506s-3.038.647-3.038,1.506.9,1.506,3.038,1.506S313.935,94.636,313.935,93.777Z"/><path class="i" d="M315.019,79.535a4.51,4.51,0,0,1,.361,1.806,3.048,3.048,0,0,1-3.3,3.162,3,3,0,0,1-3.3-3.1,4.9,4.9,0,0,1,.348-1.805l1.22.5a3.252,3.252,0,0,0-.236,1.232c0,.922.8,1.607,1.967,1.607s1.967-.673,1.967-1.594a3.638,3.638,0,0,0-.249-1.308Z"/><path class="i" d="M311.483,73.161v.05l2.739,1.109v1.344l-2.739,1.121v.05l3.772.3v1.531l-6.35-.61V76.424l3.387-1.407v-.05L308.9,73.56V71.929l6.35-.61V72.85Z"/><path class="i" d="M44.852,108.141l5.316,3.075h.05v-1.631H48.761v-1.556h1.457v-1.37l1.432.249v1.121h1.918v1.556H51.65v3.487H50.343l-5.491-3.2Z"/><path class="i" d="M44.852,100.448l1.444.249v2.975h1.619a3.475,3.475,0,0,1-.075-.622,2.729,2.729,0,0,1,2.926-2.927,2.836,2.836,0,0,1,2.926,3.014,4.577,4.577,0,0,1-.735,2.59l-1.257-.773a3.009,3.009,0,0,0,.548-1.73,1.406,1.406,0,0,0-1.482-1.494,1.509,1.509,0,0,0-1.531,1.631,5.4,5.4,0,0,0,.361,1.868H44.852Z"/><path class="i" d="M53.331,88.683a4.49,4.49,0,0,1,.361,1.806,3.048,3.048,0,0,1-3.3,3.163,3,3,0,0,1-3.3-3.1,4.911,4.911,0,0,1,.349-1.806l1.22.5a3.246,3.246,0,0,0-.237,1.233c0,.922.8,1.606,1.968,1.606s1.967-.672,1.967-1.593a3.642,3.642,0,0,0-.249-1.308Z"/><path class="i" d="M49.8,82.31v.05l2.739,1.108v1.344L49.8,85.933v.05l3.773.3v1.531l-6.35-.61V85.572L50.6,84.165v-.05l-3.386-1.407V81.077l6.35-.61V82Z"/><path class="i" d="M125.459,105.646l12.176-36.423H143.2l12.176,36.423h-5.984l-2.6-8.482h-12.8l-2.549,8.482Zm15.09-28.982h-.26l-4.84,15.661h9.887Z"/><path class="i" d="M181.45,105.646h-5.412V83.636H166v22.01h-5.411V79.109H181.45Z"/><path class="i" d="M186.656,79.109h22.478l-1.04,4.527h-7.649v22.01h-5.36V83.636h-8.429Z"/><path class="i" d="M234.946,93.626H218.087c.364,5.152,3.069,8.013,7.857,8.013a14.726,14.726,0,0,0,6.608-1.821l1.769,4.11a19.39,19.39,0,0,1-8.9,2.238c-7.806,0-12.9-5.1-12.9-13.788,0-8.742,4.787-13.789,11.968-13.789,7.128,0,10.927,4.162,10.927,10.667A22.375,22.375,0,0,1,234.946,93.626ZM218.3,89.411h12.279c0-3.642-1.977-6.3-5.983-6.3C221,83.116,218.763,85.665,218.3,89.411Z"/><path class="i" d="M254.877,91.909l8.793,13.737-5.515.52-7.649-12.019h-2.914v11.5h-5.411V79.109h5.411V89.828h2.966l6.973-10.719h5.619Z"/><path class="i" d="M281.937,90.036V88.267c0-3.174-1.353-5.151-5.256-5.151a20.937,20.937,0,0,0-7.18,1.405l-1.561-4.215a25.983,25.983,0,0,1,9.366-1.717c8.117,0,10.042,4.267,10.042,9.782V99.506a1.676,1.676,0,0,0,1.873,1.873h.573v4.007a9.575,9.575,0,0,1-3.122.52,4.11,4.11,0,0,1-4.215-3.07h-.208a9.7,9.7,0,0,1-7.493,3.07c-5.047,0-8.221-2.5-8.221-7.909,0-5.047,4.163-7.961,10.042-7.961Zm-5.568,4.215c-2.6,0-4.475,1.457-4.475,3.85s1.769,3.538,3.9,3.538a7.72,7.72,0,0,0,6.14-3.278v-4.11Z"/><line class="b" x1="521.245" y1="87.494" x2="518.41" y2="87.494"/><line class="t" x1="515.543" y1="87.494" x2="293.357" y2="87.494"/><line class="b" x1="291.924" y1="87.494" x2="289.089" y2="87.494"/><line class="b" x1="41.291" y1="87.494" x2="38.456" y2="87.494"/><line class="u" x1="35.716" y1="87.494" x2="4.205" y2="87.494"/><line class="b" x1="2.835" y1="87.494" y2="87.494"/><line class="b" x1="129.177" y1="87.494" x2="126.342" y2="87.494"/><line class="v" x1="123.859" y1="87.494" x2="117.649" y2="87.494"/><line class="b" x1="116.408" y1="87.494" x2="113.573" y2="87.494"/><line class="b" x1="197.797" y1="21.873" x2="197.797" y2="24.708"/><line class="w" x1="197.797" y1="27.371" x2="197.797" y2="73.984"/><line class="b" x1="197.797" y1="75.315" x2="197.797" y2="78.15"/><line class="b" x1="197.797" y1="105.793" x2="197.797" y2="108.628"/><line class="x" x1="197.797" y1="111.58" x2="197.797" y2="180.955"/><line class="b" x1="197.797" y1="182.431" x2="197.797" y2="185.266"/><rect class="a" x="113.574" y="117.869" width="104.241" height="12.077"/><polyline class="b" points="217.815 127.111 217.815 129.946 214.98 129.946"/><line class="y" x1="212.081" y1="129.946" x2="117.858" y2="129.946"/><polyline class="b" points="116.409 129.946 113.574 129.946 113.574 127.111"/><line class="z" x1="113.574" y1="125.509" x2="113.574" y2="121.505"/><polyline class="b" points="113.574 120.704 113.574 117.869 116.409 117.869"/><line class="y" x1="119.308" y1="117.869" x2="213.531" y2="117.869"/><polyline class="b" points="214.98 117.869 217.815 117.869 217.815 120.704"/><line class="z" x1="217.815" y1="122.306" x2="217.815" y2="126.31"/><rect class="f" x="113.574" y="105.793" width="104.241" height="12.076"/><path class="i" d="M222.158,125.49h4.669v-1.256h.928v3.678h-.928v-1.423h-3.741v1.3l-.928-.16Z"/><path class="i" d="M227.835,121.673c0,1.231-.983,2-2.878,2s-2.879-.767-2.879-2,.984-2,2.879-2S227.835,120.442,227.835,121.673Zm-.928,0c0-.552-.575-.968-1.95-.968s-1.951.416-1.951.968.575.967,1.951.967S226.907,122.224,226.907,121.673Z"/><g class="j"><path class="i" d="M222.158,113.411h4.669v-1.255h.928v3.678h-.928V114.41h-3.741v1.3l-.928-.16Z"/><path class="i" d="M227.835,109.6c0,1.23-.983,2-2.878,2s-2.879-.768-2.879-2,.984-2,2.879-2S227.835,108.364,227.835,109.6Zm-.928,0c0-.552-.575-.968-1.95-.968s-1.951.416-1.951.968.575.967,1.951.967S226.907,110.146,226.907,109.6Z"/></g><path class="i" d="M128.819,128.292h4.9l-.344,1.651h-7.222v-1.479c2.356-1.771,5.348-4.9,5.348-7.206a1.648,1.648,0,0,0-1.789-1.874,4.694,4.694,0,0,0-2.528.808l-.825-1.445a6.86,6.86,0,0,1,3.68-1.014,3.024,3.024,0,0,1,3.336,3.3c0,2.649-2.459,5.521-4.557,7.189Z"/><path class="i" d="M141.73,117.905l-4.3,7.515v.069h2.734v-2.184h1.806v2.184h1.977l-.343,1.633h-1.634v2.821h-1.806v-2.821h-4.9V125.66l4.437-7.755Z"/><path class="i" d="M149.7,123.89v-2.718h1.789v2.563a1.37,1.37,0,0,0,1.513,1.5,4.724,4.724,0,0,0,1.668-.31v-3.749h1.789v8.771h-1.789v-3.577a5.674,5.674,0,0,1-1.943.361C150.993,126.727,149.7,125.816,149.7,123.89Z"/><path class="i" d="M163.7,124.783V124.2c0-1.049-.447-1.7-1.737-1.7a6.907,6.907,0,0,0-2.373.465l-.516-1.393a8.6,8.6,0,0,1,3.095-.568c2.683,0,3.319,1.41,3.319,3.234v3.679a.555.555,0,0,0,.619.62h.19v1.324a3.172,3.172,0,0,1-1.032.172,1.358,1.358,0,0,1-1.393-1.015H163.8a3.2,3.2,0,0,1-2.477,1.015,2.4,2.4,0,0,1-2.716-2.615c0-1.668,1.375-2.631,3.319-2.631Zm-1.84,1.394a1.309,1.309,0,0,0-1.479,1.272,1.152,1.152,0,0,0,1.29,1.169,2.551,2.551,0,0,0,2.029-1.083v-1.358Z"/><path class="i" d="M173.806,128.241l.55,1.375a5.791,5.791,0,0,1-2.408.5c-2.837,0-4.281-2.03-4.281-4.557s1.358-4.558,4.2-4.558a6.326,6.326,0,0,1,2.407.465l-.55,1.375a4.5,4.5,0,0,0-1.754-.344c-1.479,0-2.476,1.239-2.476,3.062s.98,3.06,2.458,3.06A5.062,5.062,0,0,0,173.806,128.241Z"/><path class="i" d="M180.733,124.783V124.2c0-1.049-.447-1.7-1.737-1.7a6.907,6.907,0,0,0-2.373.465l-.516-1.393A8.6,8.6,0,0,1,179.2,121c2.683,0,3.319,1.41,3.319,3.234v3.679a.555.555,0,0,0,.619.62h.19v1.324a3.167,3.167,0,0,1-1.032.172,1.359,1.359,0,0,1-1.393-1.015h-.069a3.2,3.2,0,0,1-2.476,1.015,2.4,2.4,0,0,1-2.717-2.615c0-1.668,1.375-2.631,3.319-2.631Zm-1.84,1.394a1.309,1.309,0,0,0-1.479,1.272,1.152,1.152,0,0,0,1.29,1.169,2.551,2.551,0,0,0,2.029-1.083v-1.358Z"/><path class="i" d="M113.574,105.642H95.307v18.442H76.951V105.642H58.681V87.727h18.27V69.191H95.307V87.727h18.267Z"/></svg>