<svg xmlns="http://www.w3.org/2000/svg" xmlns:xlink="http://www.w3.org/1999/xlink" viewBox="0 0 4903.94 935.43"><defs><style>.a{fill:#fff;}.b{stroke:#b3b2b2;stroke-miterlimit:10;stroke-width:4px;fill:url(#a);}.c{fill:url(#b);}.d{fill:#54647d;}.e{fill:#222c54;}</style><linearGradient id="a" x1="1897.95" y1="21.98" x2="1897.95" y2="929.06" gradientUnits="userSpaceOnUse"><stop offset="0" stop-color="#fff"/><stop offset="0.18" stop-color="#f6f6f6"/><stop offset="0.47" stop-color="#ededed"/><stop offset="1" stop-color="#ebebeb"/><stop offset="1" stop-color="#ddd"/></linearGradient><linearGradient id="b" x1="4308.66" y1="21.98" x2="4308.66" y2="929.06" gradientUnits="userSpaceOnUse"><stop offset="0" stop-color="#222c54"/><stop offset="0.76" stop-color="#1e2649"/><stop offset="1" stop-color="#1c2344"/></linearGradient></defs><rect class="a" x="197.16" y="21.98" width="3401.57" height="907.09" rx="70.87"/><rect class="b" x="197.16" y="21.98" width="3401.57" height="907.09" rx="70.87"/><rect class="c" x="3713.39" y="21.98" width="1190.55" height="907.09" rx="70.87"/><path class="d" d="M86.14,631.16c0,9.68-2.53,15.51-6.49,21.78l-7.37-4.51c3.3-4.95,5.5-9.13,5.5-16.5,0-9.79-5.06-16.5-16.39-16.5-11.77,0-16.5,6.93-16.5,16.94v3.3H41l-24.2-16.39H16.4v31.13L8,648.21V609.05H15.3l23,15.51h.44c1.43-10.56,8.58-18.92,22.66-18.92C78.33,605.64,86.14,617.19,86.14,631.16Z"/><path class="d" d="M15.3,570.22c0,5.72,2.2,11.11,5.5,16.83l-7.37,4.07c-4.51-8.58-6.49-14-6.49-23,0-13.53,7.7-20.79,21.12-20.79,18.48,0,37.62,18.15,48.18,31.35h.44V545.14l8.36,2.2v45.1H77.78C65.68,576.93,46,557.13,28.94,557.13,20.25,557.13,15.3,560.87,15.3,570.22Z"/><path class="d" d="M86.14,509.39c0,16.94-13.53,26.4-39.6,26.4s-39.6-9.46-39.6-26.4S20.47,483,46.54,483,86.14,492.45,86.14,509.39Zm-8.36,0c0-10.12-9.24-16.61-31.24-16.61S15.3,499.27,15.3,509.39,24.54,526,46.54,526,77.78,519.51,77.78,509.39Z"/><path class="d" d="M28.94,402.8V391L85,385.64v9.13L39.83,398.4v.44l36.08,13v10.23L39.83,435.14v.44L85,439.21v9.13L28.94,443V431.18L67.77,417.1v-.33Z"/><path class="d" d="M28.94,330.2V318.43L85,313v9.13L39.83,325.8v.44l36.08,13v10.23L39.83,362.54V363L85,366.61v9.13l-56.1-5.39V358.58L67.77,344.5v-.33Z"/><path class="e" d="M430.58,793.32H405.06L370.56,689.8h-1L357.92,815.67H331.68l15.79-170.09h32.32l37.66,111.78h.73l37.67-111.78h32.32L504,815.67H477.72L466.05,689.8h-1Z"/><path class="e" d="M562.28,815.67V792.35h28V668.91h-28V645.58h83.35l-4.86,23.33h-24.3V792.35h27.95v23.32Z"/><path class="e" d="M815,696.12c0,26.24-14.58,42-35.24,47.63l44.47,71.92-28.43,2.44-44.47-71.93H736.27v69.49H710V645.58h51.76C791.19,645.58,815,662.83,815,696.12Zm-78.73-27.21v53.94h24.3c15.55,0,27.21-9.72,27.21-26.73s-11.66-27.21-27.21-27.21Z"/><path class="e" d="M865.54,815.67l56.87-170.09h26l56.86,170.09H977.32l-12.15-39.6H905.4l-11.91,39.6ZM936,680.33H934.8l-22.6,73.14h46.17Z"/><path class="e" d="M1201.85,771.69c0-16.76-16.28-26-35-33.29-21.87-8.5-46.9-20.9-46.9-49.08,0-29.16,20.66-46.17,55.16-46.17,19.68,0,34.26,5.34,48.6,13.12l-12.39,20.65c-10.69-6.31-20.66-10.44-36.21-10.44-18.47,0-27.94,7.53-27.94,21.38s16.76,22.84,31.59,28.67c26.73,10.45,50.3,22.12,50.3,53.7,0,30.14-21.14,47.88-59.29,47.88-23.33,0-37.91-5.35-53.71-15.07l13.85-21.38c11.18,8.26,23.33,13.12,39.86,13.12C1188.73,794.78,1201.85,787.49,1201.85,771.69Z"/><path class="e" d="M1352,668.91V815.67h-26.24V668.91h-50.54V645.58h127.57L1398,668.91Z"/><path class="e" d="M1563.67,696.12c0,26.24-14.58,42-35.23,47.63l44.47,71.92-28.43,2.44L1500,746.18h-15.07v69.49H1458.7V645.58h51.76C1539.86,645.58,1563.67,662.83,1563.67,696.12Zm-78.73-27.21v53.94h24.3c15.55,0,27.22-9.72,27.22-26.73s-11.67-27.21-27.22-27.21Z"/><path class="e" d="M1631.23,815.67V645.58h96.22l-4.86,23.33h-65.12v47.14h57.83v23.32h-57.83v53h70v23.32Z"/><path class="e" d="M1795.49,815.67V645.58h96.23l-4.86,23.33h-65.12v47.14h57.83v23.32h-57.83v53h70v23.32Z"/><path class="e" d="M2019.54,668.91V815.67H1993.3V668.91h-50.55V645.58h127.58l-4.86,23.33Z"/><path class="e" d="M523.31,164.35h71.53L486,453.65c-17.36,45.76-44.18,84.16-94.68,84.16-21.57,0-40-4.73-58.91-18.41l32.08-52.07c8.42,6.31,14.73,9.46,24.2,9.46,10.52,0,22.62-10,33.14-35.76l7.36-18.41h-21L294.5,164.35h76.79l81,189.88h1.57Z"/><path class="e" d="M665.33,164.35H881.51v368.2H814.19V225.36H730c0,190.42-25.24,309.82-107.83,309.82-15.78,0-30-3.68-37.87-7.37L597,470a50.66,50.66,0,0,0,16.83,3.15c35.24,0,51.55-72.59,51.55-294.56Z"/><path class="e" d="M1018.79,463.12a37.35,37.35,0,1,1-37.34,37.34A37.49,37.49,0,0,1,1018.79,463.12Z"/><path class="e" d="M1470.62,292.17h-1.57l-63.12,192H1337l-63.65-192h-1.57l-22.1,240.38h-67.32l34.19-368.2h75.21l78.9,236.7h1.58l78.9-236.7h75.22l34.19,368.2h-67.33Z"/><path class="e" d="M1887.74,288.48h-1.58L1722.05,532.55h-56.28V164.35h67.33V408.94h1.57l164.11-244.59h56.29v368.2h-67.33Z"/><path class="e" d="M2143.37,403.15v129.4H2076V164.35h120.45c70,0,122.56,40.5,122.56,119.4s-52.6,119.4-122.56,119.4Zm0-177.79V342.14h52.07c32.09,0,53.65-21.57,53.65-58.39s-21.56-58.39-53.65-58.39Z"/><path class="e" d="M2565.22,452.07H2448.45l-24.2,80.48h-71l123.09-368.2h61.54L2661,532.55h-71Zm-98.89-59.44h81L2507.89,259h-2.11Z"/><path class="a" d="M4116.34,227.75c-30.4,0-59,10.34-85.73,26.75l-35.87-61.4c48.64-26.15,83.29-35.88,133.15-35.88,74.78,0,121,42.56,121,116.74,0,93.63-80.86,183-155,242v2.43H4261l-12.16,70.53H3987.44V524.46c83.3-62.63,183-161.12,183-242.6C4170.45,248.42,4151.6,227.75,4116.34,227.75Z"/><path class="a" d="M4595.44,457.58c0,93.63-69.92,137.41-147.14,137.41-53.5,0-91.81-14-126.46-35.88l37.69-61.4c24.32,15.8,49.86,26.75,84.52,26.75,40.13,0,73-20.67,73-66.28,0-48-34.05-66.88-75.4-66.88H4407V346.92l85.12-110.66v-2.43H4335.82L4348,163.3h228.61v64.45l-82.08,106.4V336C4547.41,345.7,4595.44,380.36,4595.44,457.58Z"/><path class="a" d="M4007.1,702.28v97.85h26.24v15.56h-72.9V800.13h29.64V717.84h-27.21l3.24-15.56Z"/><path class="a" d="M4103.81,779.23c0-15.22-10.85-23.16-23.65-23.16a57.27,57.27,0,0,0-23.49,4.86V702.28h60.59L4114,717.84h-40.34v24.3a55.15,55.15,0,0,1,10-1c20.74,0,37.75,12.32,37.75,38.07,0,24.95-17.82,38.08-38.4,38.08-14.25,0-23.65-3.73-32.88-9.56l8.26-13.61c6.8,4.54,13.45,7.61,23.49,7.61C4093.77,801.75,4103.81,794.46,4103.81,779.23Z"/><path class="a" d="M4344.38,721.56l11.18-11.18,48.6,48.6-48.6,48.61-11.18-11.18,29.32-28.84v-.48H4184.81V750.88H4373.7v-.48Z"/><path class="a" d="M4492.77,800.13h46.17l-3.24,15.56h-68V801.75c22.19-16.68,50.38-46.17,50.38-67.88,0-10.85-5.34-17.65-16.84-17.65-8.75,0-16.21,2.91-23.82,7.61l-7.78-13.61c13-7,21.39-9.56,34.67-9.56,19.93,0,31.43,11.34,31.43,31.11,0,25-23.16,52-42.93,67.72Z"/><path class="a" d="M4611.84,779.23c0-15.22-10.85-23.16-23.65-23.16a57.27,57.27,0,0,0-23.49,4.86V702.28h60.59l-3.24,15.56h-40.34v24.3a55.24,55.24,0,0,1,10-1c20.74,0,37.75,12.32,37.75,38.07,0,24.95-17.82,38.08-38.4,38.08-14.25,0-23.65-3.73-32.88-9.56l8.26-13.61c6.8,4.54,13.45,7.61,23.49,7.61C4601.8,801.75,4611.84,794.46,4611.84,779.23Z"/></svg>