<?xml version="1.0" encoding="UTF-8"?><svg id="a" xmlns="http://www.w3.org/2000/svg" xmlns:xlink="http://www.w3.org/1999/xlink" viewBox="0 0 491.539 407"><defs><style>.g{fill:#56617d;opacity:.2;}.g,.h,.i,.j,.k,.l,.m,.n{isolation:isolate;}.g,.i,.j,.k,.l,.m,.o{stroke-width:0px;}.h{opacity:.5;stroke-width:2px;}.h,.n{fill:none;stroke:#56617d;stroke-linecap:round;stroke-linejoin:round;}.i{fill:url(#c);}.i,.j,.k,.l,.m{opacity:.69;}.j{fill:url(#b);}.k{fill:url(#f);}.l{fill:url(#d);}.m{fill:url(#e);}.o{fill:#fff;}.n{opacity:.55;stroke-width:.8px;}</style><linearGradient id="b" x1="106.95" y1="613.52" x2="313.273" y2="613.52" gradientTransform="translate(0 -416)" gradientUnits="userSpaceOnUse"><stop offset="0" stop-color="#fff"/><stop offset=".188" stop-color="#fcfcfb" stop-opacity=".898"/><stop offset=".744" stop-color="#f3f3f0" stop-opacity=".613"/><stop offset="1" stop-color="#f0efeb" stop-opacity=".5"/></linearGradient><linearGradient id="c" x1="166.221" y1="683.911" x2="313.273" y2="683.911" gradientTransform="translate(0 -416)" gradientUnits="userSpaceOnUse"><stop offset="0" stop-color="#fff"/><stop offset=".188" stop-color="#fcfcfb" stop-opacity=".898"/><stop offset=".744" stop-color="#f3f3f0" stop-opacity=".613"/><stop offset="1" stop-color="#f0efeb" stop-opacity=".5"/></linearGradient><linearGradient id="d" x1="382.647" y1="672.77" x2="421.402" y2="672.77" gradientTransform="translate(0 -416)" gradientUnits="userSpaceOnUse"><stop offset="0" stop-color="#fff"/><stop offset=".188" stop-color="#fcfcfb" stop-opacity=".898"/><stop offset=".744" stop-color="#f3f3f0" stop-opacity=".613"/><stop offset="1" stop-color="#f0efeb" stop-opacity=".5"/></linearGradient><linearGradient id="e" x1=".038" y1="535.025" x2="35.488" y2="535.025" gradientTransform="translate(0 -416)" gradientUnits="userSpaceOnUse"><stop offset="0" stop-color="#fff"/><stop offset=".188" stop-color="#fcfcfb" stop-opacity=".898"/><stop offset=".744" stop-color="#f3f3f0" stop-opacity=".613"/><stop offset="1" stop-color="#f0efeb" stop-opacity=".5"/></linearGradient><linearGradient id="f" x1=".038" y1="642.801" x2="35.488" y2="642.801" gradientTransform="translate(0 -416)" gradientUnits="userSpaceOnUse"><stop offset="0" stop-color="#fff"/><stop offset=".188" stop-color="#fcfcfb" stop-opacity=".898"/><stop offset=".744" stop-color="#f3f3f0" stop-opacity=".613"/><stop offset="1" stop-color="#f0efeb" stop-opacity=".5"/></linearGradient></defs><rect class="g" x="106.562" y="53.254" width="207.673" height="288.241"/><rect class="g" x="1" y="53.254" width="35.45" height="288.241"/><path class="j" d="m313.273,53.254v96.082l-54.4,54.419-.35.351-.05.05-137.633,137.631-13.89-.293v-130.986L264.2,53.254h49.073Z"/><polygon class="i" points="313.273 194.385 313.273 223.763 195.614 341.438 166.221 341.438 313.273 194.385"/><polygon class="l" points="421.402 171.753 382.647 210.508 382.647 341.494 396.536 341.787 421.402 316.921 421.402 171.753"/><polygon class="m" points=".038 53.254 .038 184.797 35.488 149.336 35.488 53.254 .038 53.254"/><polygon class="k" points=".038 229.836 .038 259.218 35.488 223.762 35.488 194.385 .038 229.836"/><polyline class="h" points="422.364 341.494 382.304 341.494 382.304 53.254 422.364 53.254"/><rect class="g" x="383.609" y="53.254" width="38.755" height="288.241"/><rect class="h" x="99.335" y="45.198" width="222.128" height="304.352"/><rect class="h" x="106.562" y="53.254" width="207.673" height="288.241"/><polyline class="h" points="422.364 349.55 375.077 349.55 375.077 45.198 422.364 45.198"/><polyline class="h" points="1 45.198 43.677 45.198 43.677 349.55 1 349.55"/><polyline class="h" points="1 53.254 36.45 53.254 36.45 341.494 1 341.494"/><line class="n" x1="1" y1="26.827" x2="422.364" y2="26.827"/><line class="n" x1="1" y1=".4" x2="422.364" y2=".4"/><line class="n" x1="1" y1="18.651" x2="422.364" y2="18.651"/><path class="o" d="m153.135,104.368c3.211.766,5.254,2.81,5.254,6.349,0,5.217-3.9,7.078-8.9,7.078h-7.625v-25.54h7.625c4.561,0,7.991,1.678,7.991,6.129.16,2.741-1.67,5.202-4.342,5.838l-.003.146Zm-7.335-8.611v7.225h3.43c2.445,0,4.159-1.533,4.159-3.685,0-2.335-1.495-3.54-4.3-3.54h-3.289,0Zm0,10.581v7.954h3.466c3.138,0,5.036-1.605,5.036-4.05,0-2.59-1.788-3.9-5.072-3.9l-3.43-.004Z"/><path class="o" d="m167.292,105.974h3.32c4.014,0,6.641,2.189,6.641,5.947s-2.627,5.874-6.641,5.874h-7.112v-18.608h3.794l-.002,6.787h0Zm0,3.174v5.473h2.956c1.934,0,3.137-1.022,3.137-2.737s-1.2-2.736-3.137-2.736h-2.956Zm16.492,8.647h-3.795v-18.608h3.795v18.608Z"/><path class="o" d="m204.071,112.432c0,3.356-2.116,5.363-6.349,5.363h-8.1v-18.608h7.517c3.721,0,6.166,1.387,6.166,4.743-.03,1.893-1.334,3.528-3.174,3.977v.11c2.211.32,3.873,2.182,3.94,4.415Zm-10.654-10.071v4.233h2.992c1.715,0,3.028-.548,3.028-2.116,0-1.642-1.167-2.117-2.773-2.117h-3.247Zm0,7.407v4.853h3.683c1.934,0,3.1-.766,3.1-2.408s-1.277-2.445-3.466-2.445h-3.317Z"/><path class="o" d="m223.445,109.367h-11.821c.255,3.612,2.153,5.619,5.509,5.619,1.624-.056,3.211-.493,4.634-1.277l1.241,2.882c-1.925,1.014-4.064,1.552-6.24,1.569-5.473,0-9.048-3.576-9.048-9.669,0-6.13,3.356-9.669,8.392-9.669,5,0,7.662,2.919,7.662,7.48-.009,1.03-.119,2.057-.329,3.065h0Zm-11.675-2.956h8.611c0-2.554-1.387-4.414-4.2-4.414-2.514.003-4.081,1.787-4.411,4.414h0Z"/><path class="o" d="m240.448,114.183l1.168,2.919c-1.607.714-3.349,1.075-5.108,1.058-6.02,0-9.085-4.3-9.085-9.669s2.882-9.669,8.9-9.669c1.751-.008,3.487.327,5.109.985l-1.168,2.919c-1.179-.49-2.445-.738-3.722-.729-3.138,0-5.254,2.627-5.254,6.494s2.08,6.5,5.218,6.5c1.353-.018,2.691-.292,3.942-.808h0Z"/><path class="o" d="m254.532,108.163l6.168,9.637-3.868.365-5.364-8.428h-2.043v8.063h-3.795v-18.613h3.794v7.513h2.08l4.889-7.516h3.941l-5.802,8.979h0Z"/><path class="o" d="m273.505,106.849v-1.24c0-2.226-.948-3.612-3.685-3.612-1.723.03-3.428.364-5.035.985l-1.094-2.956c2.096-.801,4.323-1.208,6.567-1.2,5.692,0,7.042,2.992,7.042,6.86v7.808c-.081.644.375,1.232,1.018,1.313.098.012.198.012.296,0h.4v2.81c-.704.242-1.444.366-2.189.365-1.373.079-2.61-.823-2.956-2.153h-.146c-1.354,1.45-3.272,2.236-5.254,2.153-3.539,0-5.764-1.752-5.764-5.546,0-3.54,2.918-5.583,7.041-5.583l3.759-.004h0Zm-3.9,2.956c-1.825,0-3.138,1.021-3.138,2.7-.03,1.349,1.039,2.468,2.389,2.498.116.003.232-.003.347-.017,1.719-.04,3.317-.893,4.305-2.3v-2.882h-3.903,0Z"/></svg>