<?xml version="1.0" encoding="UTF-8"?><svg id="a" xmlns="http://www.w3.org/2000/svg" viewBox="0 0 831.638 341.6"><defs><style>.b{fill:#208076;stroke-width:0px;}</style></defs><path class="b" d="m177.1,21.8h-5.5v15.1h-3v-15.1h-5.4v-2.5h13.9v2.5Z"/><path class="b" d="m185.7,28.5l3.5-9.2h3.4l-6.1,14.5-.6,1.1c-.8,1.4-2.1,2.1-3.9,2.1l-1.3-.1v-2.4h1c.9,0,1.5-.4,1.8-1.1l.6-1.5-6-12.8h3.3l4.3,9.4Z"/><path class="b" d="m198,30.4v6.5h-3v-17.5h6.7c2,0,3.5.5,4.7,1.5s1.7,2.4,1.7,4.1-.6,3.1-1.7,4c-1.1,1-2.7,1.4-4.7,1.4h-3.7Zm0-2.5h3.7c1.1,0,1.9-.3,2.5-.8s.9-1.2.9-2.2c0-.9-.3-1.7-.9-2.3-.6-.6-1.4-.9-2.4-.9h-3.7v6.2h-.1Z"/><path class="b" d="m221.5,19.4h3v17.5h-3v-12.5l-7.7,12.5h-3v-17.5h3v12.5l7.7-12.5Z"/><path class="b" d="m236.9,24.1c0-.8-.3-1.4-.9-1.9s-1.4-.7-2.4-.7c-.9,0-1.6.2-2.2.7s-.9,1.1-.9,1.8h-3c0-1,.3-1.8.8-2.6.5-.7,1.3-1.3,2.2-1.7.9-.4,2-.6,3.1-.6,2,0,3.6.4,4.7,1.3s1.7,2.1,1.7,3.7c0,.8-.2,1.5-.7,2.2s-1.2,1.2-2,1.6c1,.3,1.7.8,2.2,1.5s.8,1.5.8,2.6c0,1.6-.6,2.8-1.8,3.7-1.2.9-2.8,1.4-4.8,1.4-1.2,0-2.4-.2-3.4-.7-1-.4-1.8-1-2.3-1.8s-.8-1.6-.8-2.6h3c0,.8.3,1.4.9,1.9s1.4.8,2.4.8c1.1,0,1.9-.3,2.6-.8s1-1.2,1-2c0-1-.3-1.7-.9-2.1s-1.4-.7-2.5-.7h-2.1v-2.4h1.9c2.3,0,3.4-.8,3.4-2.6Z"/><path class="b" d="m247,19.4l5.1,13.4,5-13.4h3.9v17.5h-3v-5.8l.3-7.7-5.2,13.5h-2.2l-5.2-13.5.3,7.7v5.8h-3v-17.5h4Z"/><path class="b" d="m281.5,19.4h3v17.5h-3v-12.5l-7.7,12.5h-3v-17.5h3v12.5l7.7-12.5Z"/><path class="b" d="m305.1,19.4h3v17.5h-3v-12.5l-7.7,12.5h-3v-17.5h3v12.5l7.7-12.5Z"/><path class="b" d="m325.7,36.9h-3v-7.8h-7.8v7.8h-3v-17.5h3v7.3h7.8v-7.3h3v17.5Z"/><path class="b" d="m345.4,41.2h-2.9v-4.3h-11.5v4.3h-2.9l-.1-6.7h1.4c.7-.7,1.3-1.7,1.7-2.9.4-1.3.7-2.7.8-4.4l.5-7.8h11.1v15.1h2.2l-.3,6.7Zm-12.6-6.7h7.5v-12.6h-5.1l-.3,4.9c-.2,3.2-.9,5.8-2.1,7.7Z"/><path class="b" d="m354.2,28.5l3.5-9.2h3.4l-6.1,14.5-.6,1.1c-.8,1.4-2.1,2.1-3.9,2.1l-1.3-.1v-2.4h1c.9,0,1.5-.4,1.8-1.1l.6-1.5-6-12.8h3.3l4.3,9.4Z"/><path class="b" d="m376.8,31.2c-.2,1.9-.9,3.3-2.1,4.4-1.2,1-2.8,1.6-4.8,1.6-1.4,0-2.6-.3-3.7-1s-1.9-1.6-2.5-2.8-.9-2.6-.9-4.2v-1.6c0-1.7.3-3.1.9-4.4s1.4-2.2,2.5-2.9c1.1-.7,2.4-1,3.8-1,1.9,0,3.5.5,4.7,1.6,1.2,1,1.9,2.5,2.1,4.4h-3c-.1-1.3-.5-2.2-1.1-2.7-.6-.6-1.5-.8-2.6-.8-1.3,0-2.3.5-3.1,1.5-.7,1-1.1,2.4-1.1,4.3v1.6c0,1.9.3,3.3,1,4.3s1.7,1.5,3,1.5c1.2,0,2.1-.3,2.7-.8s1-1.4,1.1-2.7h3.1v-.3Z"/><path class="b" d="m392.2,21.8h-5.5v15.1h-3v-15.1h-5.4v-2.5h13.9v2.5Z"/><path class="b" d="m397.5,30.4v6.5h-3v-17.5h6.7c2,0,3.5.5,4.7,1.5s1.7,2.4,1.7,4.1-.6,3.1-1.7,4c-1.1,1-2.7,1.4-4.7,1.4h-3.7Zm0-2.5h3.7c1.1,0,1.9-.3,2.5-.8s.9-1.2.9-2.2c0-.9-.3-1.7-.9-2.3-.6-.6-1.4-.9-2.4-.9h-3.8v6.2Z"/><path class="b" d="m421,19.4h3v17.5h-3v-12.5l-7.7,12.5h-3v-17.5h3v12.5l7.7-12.5Z"/><path class="b" d="m436.3,36.9v-6.5h-3.4l-3.4,6.5h-3.3l3.9-7.5c-2-1-3.1-2.5-3.1-4.7,0-1.7.6-3,1.7-3.9s2.6-1.4,4.6-1.4h6v17.5h-3Zm-6.2-12.1c0,1,.3,1.8.8,2.3.6.6,1.4.8,2.5.8h2.8v-6.2h-2.7c-1.1,0-2,.3-2.5.8s-.9,1.4-.9,2.3Z"/><path class="b" d="m224,51.4h-8.1v15.1h-3v-17.5h11.1v2.4Z"/><path class="b" d="m240.5,58.2c0,1.7-.3,3.2-.9,4.5s-1.4,2.3-2.5,3-2.4,1-3.8,1-2.7-.3-3.8-1c-1.1-.7-2-1.7-2.6-3s-.9-2.8-.9-4.4v-1c0-1.7.3-3.2.9-4.5s1.5-2.3,2.6-3,2.4-1,3.8-1,2.7.3,3.8,1c1.1.7,2,1.7,2.6,3s.9,2.8.9,4.5v.9h-.1Zm-3-1c0-1.9-.4-3.4-1.1-4.5s-1.8-1.6-3.1-1.6-2.3.5-3.1,1.5c-.7,1-1.1,2.5-1.1,4.4v1c0,1.9.4,3.4,1.1,4.5.8,1.1,1.8,1.6,3.1,1.6s2.4-.5,3.1-1.5,1.1-2.5,1.1-4.5v-.9Z"/><path class="b" d="m256.9,60.8c-.2,1.9-.9,3.3-2.1,4.4-1.2,1-2.8,1.6-4.8,1.6-1.4,0-2.6-.3-3.7-1s-1.9-1.6-2.5-2.8-.9-2.6-.9-4.2v-1.6c0-1.7.3-3.1.9-4.4.6-1.3,1.4-2.2,2.5-2.9s2.4-1,3.8-1c1.9,0,3.5.5,4.7,1.6,1.2,1,1.9,2.5,2.1,4.4h-3c-.1-1.3-.5-2.2-1.1-2.7-.6-.6-1.5-.8-2.6-.8-1.3,0-2.3.5-3.1,1.5-.7,1-1.1,2.4-1.1,4.3v1.6c0,1.9.3,3.3,1,4.3s1.7,1.5,3,1.5c1.2,0,2.1-.3,2.7-.8s1-1.4,1.1-2.7h3.1v-.3Z"/><path class="b" d="m272.3,51.4h-5.5v15.1h-3v-15.1h-5.4v-2.5h13.9v2.5Z"/><path class="b" d="m284.9,58.6h-7.2v5.4h8.4v2.4h-11.5v-17.5h11.4v2.5h-8.3v4.8h7.2v2.4Z"/><path class="b" d="m302.4,66.5h-3v-15.1h-7.7v15.1h-3v-17.5h13.8v17.5h-.1Z"/><path class="b" d="m309.1,60v6.5h-3v-17.5h6.7c2,0,3.5.5,4.7,1.5s1.7,2.4,1.7,4.1-.6,3.1-1.7,4-2.7,1.4-4.7,1.4h-3.7Zm0-2.5h3.7c1.1,0,1.9-.3,2.5-.8s.9-1.2.9-2.2c0-.9-.3-1.7-.9-2.3s-1.4-.9-2.4-.9h-3.7v6.2h-.1Z"/><path class="b" d="m332.6,48.9h3v17.5h-3v-12.5l-7.7,12.5h-3v-17.5h3v12.5l7.7-12.5Z"/><path class="b" d="m350,48.9h3v17.5h-3v-12.5l-7.7,12.5h-3v-17.5h3v12.5l7.7-12.5Z"/><path class="b" d="m360.7,48.9l5.1,13.4,5-13.4h3.9v17.5h-3v-5.8l.3-7.7-5.2,13.5h-2.2l-5.2-13.5.3,7.7v5.8h-3v-17.5h4Z"/><path class="b" d="m391.7,60.8c-.2,1.9-.9,3.3-2.1,4.4-1.2,1-2.8,1.6-4.8,1.6-1.4,0-2.6-.3-3.7-1s-1.9-1.6-2.5-2.8-.9-2.6-.9-4.2v-1.6c0-1.7.3-3.1.9-4.4.6-1.3,1.4-2.2,2.5-2.9s2.4-1,3.8-1c1.9,0,3.5.5,4.7,1.6,1.2,1,1.9,2.5,2.1,4.4h-3c-.1-1.3-.5-2.2-1.1-2.7-.6-.6-1.5-.8-2.6-.8-1.3,0-2.3.5-3.1,1.5-.7,1-1.1,2.4-1.1,4.3v1.6c0,1.9.3,3.3,1,4.3s1.7,1.5,3,1.5c1.2,0,2.1-.3,2.7-.8s1-1.4,1.1-2.7h3.1v-.3Z"/><path class="b" d="m407.1,51.4h-5.5v15.1h-3v-15.1h-5.4v-2.5h13.9v2.5Z"/><path class="b" d="m409.4,66.5v-17.5h6c2,0,3.5.4,4.5,1.2s1.6,2,1.6,3.6c0,.8-.2,1.5-.6,2.2-.4.6-1.1,1.1-1.9,1.5.9.3,1.7.7,2.2,1.4s.8,1.6.8,2.6c0,1.6-.5,2.9-1.6,3.8-1.1.9-2.6,1.3-4.5,1.3h-6.5v-.1Zm3-10.2h3c.9,0,1.7-.2,2.2-.6.5-.4.8-1,.8-1.8,0-.9-.2-1.5-.7-1.9s-1.3-.6-2.3-.6h-3v4.9Zm0,2.3v5.5h3.4c1,0,1.7-.2,2.2-.7s.8-1.1.8-2c0-1.8-.9-2.8-2.8-2.8h-3.6Z"/><path class="b" d="m434.7,62.4h-6.8l-1.4,4.1h-3.2l6.6-17.5h2.7l6.6,17.5h-3.2l-1.3-4.1Zm-5.9-2.5h5.1l-2.5-7.3-2.6,7.3Z"/><path class="b" d="m281.5,172.3c-1.6,0-2.6.9-2.6,3.2v17.5c0,2.3,1,3.2,2.6,3.2s2.6-.9,2.6-3.2v-17.5c0-2.3-1-3.2-2.6-3.2Z"/><polygon class="b" points="250.4 112.5 255.3 112.5 252.9 96.2 250.4 112.5"/><path class="b" d="m257.5,133.9h-2.4v11h2.4c1.6,0,2.5-.7,2.5-3v-4.9c0-2.4-.9-3.1-2.5-3.1Z"/><path class="b" d="m263.1,172.7h-2.4v11h2.4c1.6,0,2.5-.7,2.5-3v-4.9c0-2.3-.9-3.1-2.5-3.1Z"/><path class="b" d="m216,115.3v-17.5c0-2.3-1-3.2-2.6-3.2s-2.6.9-2.6,3.2v17.5c0,2.3,1,3.2,2.6,3.2s2.6-.9,2.6-3.2Z"/><polygon class="b" points="151.6 96.2 149.2 112.5 154.1 112.5 151.6 96.2"/><path class="b" d="m292.3,118.2h2.4c1.6,0,2.5-.7,2.5-3v-4.9c0-2.3-.9-3.1-2.5-3.1h-2.4v11Z"/><path class="b" d="m353.3,153.9v-4.8c0-2.3-.9-3.1-2.5-3.1h-2.4v11h2.4c1.7,0,2.5-.7,2.5-3.1Z"/><path class="b" d="m275.9,133.5c-1.6,0-2.6.9-2.6,3.2v17.5c0,2.3,1,3.2,2.6,3.2s2.6-.9,2.6-3.2v-17.5c.1-2.3-1-3.2-2.6-3.2Z"/><path class="b" d="m331.1,118.2h2.4c1.6,0,2.5-.7,2.5-3v-4.9c0-2.3-.9-3.1-2.5-3.1h-2.4v11Z"/><path class="b" d="m457.8,0H126.4c-1.3,0-2.5.8-3,2L.2,337.2c-.1.2-.1.4-.2.6v1.1q0,.1.1.2c0,.2.1.4.2.6,0,.1.1.2.1.3.1.2.2.3.3.5.1.1.1.2.2.2.1.1.3.2.4.3.1.1.2.1.3.2.2.1.4.2.5.2s.2.1.2.1c.3.1.5.1.8.1h0c.4,0,.7-.1,1.1-.2l367.6-133.8c1.3-.5,2.1-1.7,2.1-3v-56.8l85.2-44.6c1.1-.5,1.8-1.7,1.8-2.9V3.2c.1-1.7-1.3-3.2-3.1-3.2ZM134.6,104.3v-13.9h5.2v32.4h-5.2v-13.9h-5.8v13.9h-5.1v-32.4h5.1v13.9h5.8Zm8.4,18.5l5.2-32.4h7.4l5.2,32.4h-5.1l-.9-5.9h-6.3l-.9,5.9h-4.6Zm31.8-4.6v-27.7h5.2v27.8h2.2v8.9h-4.9v-4.3h-13.3v-32.4h5.1v27.7h5.7Zm17.3-14.4l4.2-13.4h5.6v32.4h-4.6v-22.8l-2.1,8-4.3,14.8h-5.2v-32.4h4.5v20.5l1.9-7.1Zm13.6,11.2v-16.8c0-5.2,2.7-8.1,7.7-8.1s7.7,3,7.7,8.1v16.8c0,5.2-2.7,8.1-7.7,8.1-5,.1-7.7-2.9-7.7-8.1Zm30.1-10.7v-13.9h5.2v32.4h-5.2v-13.9h-5.8v13.9h-5.1v-32.4h5.1v13.9h5.8Zm47.2,18.5h-5.2v-27.7h-4.4l-.6,19.6c-.2,5.9-2.3,8.2-7.4,8.2h-.8v-4.6c2.3,0,3.1-.3,3.1-3.3l.8-24.5h14.4v32.3h.1Zm.7,14.2v16.8c0,5.2-2.7,8.1-7.7,8.1s-7.7-3-7.7-8.1v-16.8c0-5.2,2.7-8.1,7.7-8.1,4.9,0,7.7,2.9,7.7,8.1Zm-18.6.3v4.2c0,5.2-2.5,8-7.6,8h-2.4v12.2h-5.1v-32.4h7.5c5.1,0,7.6,2.8,7.6,8Zm-8.2-14.5l-.9-5.9h-6.2l-.9,5.9h-4.7l5.2-32.4h7.4l5.2,32.4h-5.1Zm-10.9,6.5v32.4h-5.2v-27.7h-5.8v27.7h-5.1v-32.4h16.1Zm24.7,51c0,5.2-2.5,8-7.6,8h-2.4v12.2h-5.1v-32.4h7.5c5.1,0,7.6,2.8,7.6,8v4.2Zm18.5,12.4c0,5.2-2.7,8.1-7.7,8.1s-7.7-3-7.7-8.1v-16.8c0-5.2,2.7-8.1,7.7-8.1s7.7,3,7.7,8.1v16.8Zm5.5-90.1c5.1,0,7.6,2.8,7.6,8v4.2c0,5.2-2.5,8-7.6,8h-7.5v-32.4h5.1v12.2h2.4Zm4.8,40.3v4.6h-7v9.5h8.8v4.6h-13.8v-32.4h13.9v4.6h-8.9v9h7v.1Zm8.4,36.1h-4.8v-3.5c0-2.3-1-3.2-2.6-3.2s-2.6.9-2.6,3.2v17.5c0,2.3,1,3.1,2.6,3.1s2.6-.8,2.6-3.1v-4.6h4.8v4.3c0,5.2-2.6,8.1-7.6,8.1s-7.6-3-7.6-8.1v-16.8c0-5.2,2.6-8.1,7.6-8.1s7.6,3,7.6,8.1v3.1Zm2.2-17.4h-5.1v-32.4h5.1v14.1l6.7-14.1h5.1l-7.1,14.4,7.1,17.9h-5.2l-4.9-12.9-1.6,3v10h-.1Zm6.6-57.3v-13.9h5.2v32.4h-5.2v-13.9h-5.8v13.9h-5.1v-32.4h5.1v13.9h5.8Zm9.8,74.7h-4.8v-3.5c0-2.3-1-3.2-2.6-3.2s-2.6.9-2.6,3.2v17.5c0,2.3,1,3.1,2.6,3.1s2.6-.8,2.6-3.1v-4.6h4.8v4.3c0,5.2-2.6,8.1-7.6,8.1s-7.6-3-7.6-8.1v-16.8c0-5.2,2.6-8.1,7.6-8.1s7.6,3,7.6,8.1v3.1Zm-2.1-45.1v-4.6h15.7v4.6h-5.3v27.7h-5.1v-27.7h-5.3Zm9.1-31.3c5.1,0,7.6,2.8,7.6,8v4.2c0,5.2-2.5,8-7.6,8h-7.5v-32.4h5.1v12.2h2.4Zm12.8,97.9h-4.6v-22.8l-2.1,7.9-4.3,14.8h-5.2v-32.3h4.5v20.5l1.9-7.1,4.2-13.4h5.6v32.4Zm2.1-71.2v12.2h2.4c5.1,0,7.6,2.8,7.6,8v4.2c0,5.2-2.5,8-7.6,8h-7.5v-32.4h5.1Zm-4.5-6.5v-32.4h5.1v32.4h-5.1Zm22.5,77.7h-4.6v-22.8l-2.1,7.9-4.3,14.8h-5.2v-32.3h4.5v20.5l1.9-7.1,4.2-13.4h5.6v32.4Zm0-38.9h-5.1v-32.4h5.1v32.4Zm.6-66.6h-8.8v9h7v4.6h-7v9.5h8.8v4.6h-13.9v-32.4h13.9v4.7Zm91.6,5.4c0,.3-.2.6-.5.7l-84.1,44v-57.9c0-1.8-1.4-3.2-3.2-3.2H120.4c-1.3,0-2.4.7-2.9,1.9L12.5,311,125.7,3c.1-.3.4-.5.8-.5h331.4c.4,0,.8.4.8.8l-.1,97.1Z"/></svg>