<?xml version="1.0" encoding="UTF-8"?><svg id="a" xmlns="http://www.w3.org/2000/svg" xmlns:xlink="http://www.w3.org/1999/xlink" viewBox="0 0 655.937 284"><defs><style>.j{opacity:.2;}.j,.k{fill:#56617d;}.j,.k,.l,.m,.n,.o,.p,.q,.r,.s{isolation:isolate;stroke-width:0px;}.t{stroke-width:2px;}.t,.u{fill:none;stroke:#56617d;stroke-linecap:round;stroke-linejoin:round;}.k{opacity:.4;}.v{opacity:.5;}.l{fill:url(#c);}.l,.m,.n,.o,.p,.q,.r,.s{opacity:.69;}.m{fill:url(#b);}.n{fill:url(#f);}.o{fill:url(#d);}.p{fill:url(#e);}.q{fill:url(#h);}.r{fill:url(#g);}.s{fill:url(#i);}.u{stroke-width:.8px;}</style><linearGradient id="b" x1="9.373" y1="154.054" x2="133.123" y2="154.054" gradientTransform="translate(0 246) scale(1 -1)" gradientUnits="userSpaceOnUse"><stop offset="0" stop-color="#fff"/><stop offset=".188" stop-color="#fcfcfb" stop-opacity=".898"/><stop offset=".744" stop-color="#f3f3f0" stop-opacity=".613"/><stop offset="1" stop-color="#f0efeb" stop-opacity=".5"/></linearGradient><linearGradient id="c" x1="49.873" y1="114.374" x2="133.123" y2="114.374" gradientTransform="translate(0 246) scale(1 -1)" gradientUnits="userSpaceOnUse"><stop offset="0" stop-color="#fff"/><stop offset=".188" stop-color="#fcfcfb" stop-opacity=".898"/><stop offset=".744" stop-color="#f3f3f0" stop-opacity=".613"/><stop offset="1" stop-color="#f0efeb" stop-opacity=".5"/></linearGradient><linearGradient id="d" x1="433.05" y1="154.054" x2="556.8" y2="154.054" gradientTransform="translate(0 246) scale(1 -1)" gradientUnits="userSpaceOnUse"><stop offset="0" stop-color="#fff"/><stop offset=".188" stop-color="#fcfcfb" stop-opacity=".898"/><stop offset=".744" stop-color="#f3f3f0" stop-opacity=".613"/><stop offset="1" stop-color="#f0efeb" stop-opacity=".5"/></linearGradient><linearGradient id="e" x1="473.553" y1="114.374" x2="556.803" y2="114.374" gradientTransform="translate(0 246) scale(1 -1)" gradientUnits="userSpaceOnUse"><stop offset="0" stop-color="#fff"/><stop offset=".188" stop-color="#fcfcfb" stop-opacity=".898"/><stop offset=".744" stop-color="#f3f3f0" stop-opacity=".613"/><stop offset="1" stop-color="#f0efeb" stop-opacity=".5"/></linearGradient><linearGradient id="f" x1="197.483" y1="75.059" x2="275.843" y2="75.059" gradientTransform="translate(0 246) scale(1 -1)" gradientUnits="userSpaceOnUse"><stop offset="0" stop-color="#fff"/><stop offset=".188" stop-color="#fcfcfb" stop-opacity=".898"/><stop offset=".744" stop-color="#f3f3f0" stop-opacity=".613"/><stop offset="1" stop-color="#f0efeb" stop-opacity=".5"/></linearGradient><linearGradient id="g" x1="290.413" y1="124.024" x2="368.773" y2="124.024" gradientTransform="translate(0 246) scale(1 -1)" gradientUnits="userSpaceOnUse"><stop offset="0" stop-color="#fff"/><stop offset=".188" stop-color="#fcfcfb" stop-opacity=".898"/><stop offset=".744" stop-color="#f3f3f0" stop-opacity=".613"/><stop offset="1" stop-color="#f0efeb" stop-opacity=".5"/></linearGradient><linearGradient id="h" x1="197.483" y1="124.399" x2="275.843" y2="124.399" gradientTransform="translate(0 246) scale(1 -1)" gradientUnits="userSpaceOnUse"><stop offset="0" stop-color="#fff"/><stop offset=".188" stop-color="#fcfcfb" stop-opacity=".898"/><stop offset=".744" stop-color="#f3f3f0" stop-opacity=".613"/><stop offset="1" stop-color="#f0efeb" stop-opacity=".5"/></linearGradient><linearGradient id="i" x1="290.413" y1="200.639" x2="359.853" y2="200.639" gradientTransform="translate(0 246) scale(1 -1)" gradientUnits="userSpaceOnUse"><stop offset="0" stop-color="#fff"/><stop offset=".188" stop-color="#fcfcfb" stop-opacity=".898"/><stop offset=".744" stop-color="#f3f3f0" stop-opacity=".613"/><stop offset="1" stop-color="#f0efeb" stop-opacity=".5"/></linearGradient></defs><rect class="j" x="9.572" y="9.819" width="123.749" height="162.608"/><rect class="j" x="432.856" y="9.819" width="123.749" height="162.608"/><rect class="j" x="290.612" y="9.819" width="78.363" height="215.911"/><rect class="j" x="197.68" y="9.819" width="78.363" height="215.911"/><path class="k" d="m189.529,1.059v235.073h187.118V1.059h-187.118Zm85.845,225.435h-78.363V10.462h78.363v216.032Zm92.932,0h-78.363V10.462h78.363v216.032Z"/><path class="k" d="m424,1v181.712h140.124V1h-140.124Zm131.651,172.191h-123.179V10.52h123.179v162.671Z"/><path class="k" d="m1,1v181.712h140.125V1H1Zm131.652,172.191H9.473V10.52h123.179v162.671Z"/><g class="v"><rect class="t" x="189.529" y="1.059" width="187.118" height="235.073"/><rect class="t" x="423.999" y="1" width="140.125" height="181.712"/><rect class="t" x="1" y="1" width="140.125" height="181.712"/><rect class="u" x="432.472" y="10.52" width="123.179" height="162.671"/><rect class="u" x="9.473" y="10.52" width="123.179" height="162.671"/><rect class="u" x="289.943" y="10.462" width="78.363" height="216.033"/><rect class="u" x="197.011" y="10.462" width="78.363" height="216.033"/><line class="u" x1="282.854" y1="1.059" x2="282.854" y2="236.132"/><rect class="u" x="285.959" y="37.495" width="1.801" height="156.559"/><rect class="u" x="278.214" y="37.495" width="1.801" height="156.559"/><line class="u" x1="1" y1="236.132" x2="564.124" y2="236.132"/><line class="u" x1="1" y1="244.281" x2="564.124" y2="244.281"/></g><path class="m" d="m133.123,10.641v52.339l-32.63,32.641-.21.21-.03.03L22.863,173.251h-13.49v-73.581L98.4,10.641h34.723Z"/><polygon class="l" points="133.123 90.001 133.123 107.621 67.503 173.251 49.873 173.251 133.123 90.001"/><path class="o" d="m556.8,10.641v52.339l-32.63,32.641-.21.21-.03.03-77.39,77.39h-13.49v-73.581l89.03-89.029h34.72Z"/><polygon class="p" points="556.803 90.001 556.803 107.621 491.183 173.251 473.553 173.251 556.803 90.001"/><polygon class="n" points="197.483 193.69 275.843 115.331 275.843 226.551 197.483 226.551 197.483 193.69"/><polygon class="r" points="368.773 22.401 368.773 143.2 290.413 221.551 290.413 100.761 368.773 22.401"/><polygon class="q" points="197.483 148.561 275.843 70.2 275.843 94.651 197.483 173.001 197.483 148.561"/><polygon class="s" points="359.853 10.641 290.413 80.081 290.413 55.631 335.403 10.641 359.853 10.641"/></svg>