<svg xmlns="http://www.w3.org/2000/svg" viewBox="0 0 2711.4777 3359.3865"><defs><style>.a{fill:#2e2d2c;fill-rule:evenodd;}.b{fill:#1d1d1b;}.c{fill:#fff;}.d{fill:#54647d;}</style></defs><path class="a" d="M160.2965,696.3445V263.099c0-72.32,29.8883-102.2749,102.0481-102.2749H2609.43c72.16,0,102.0481,29.9548,102.0481,102.2749V696.3445c0,72.32-29.8884,102.2749-102.0481,102.2749H262.3446C190.1848,798.6194,160.2965,768.6646,160.2965,696.3445Z"/><path class="b" d="M2624.414,223.1862c19.8681,0,27.5354,7.6675,27.5354,27.5356v458c0,19.8684-7.6673,27.5354-27.5354,27.5354H247.36c-19.8681,0-27.5356-7.667-27.5356-27.5354v-458c0-19.8681,7.6675-27.5356,27.5356-27.5356H2624.414m0-25.512H247.36c-17.1377,0-29.979,4.5108-39.2578,13.79s-13.79,22.12-13.79,39.2578v458c0,17.1379,4.5107,29.98,13.79,39.258s22.1206,13.7893,39.2578,13.7893H2624.414c17.1379,0,29.979-4.51,39.2578-13.7893s13.7893-22.12,13.7893-39.258v-458c0-17.1374-4.51-29.979-13.7893-39.2578s-22.12-13.79-39.2578-13.79Z"/><rect class="b" x="2045.3358" y="223.1862" width="25.5118" height="513.0713"/><path class="a" d="M160.2965,1556.3243V1123.0787c0-72.32,29.8883-102.2748,102.0481-102.2748H2609.43c72.16,0,102.0481,29.9547,102.0481,102.2748v433.2456c0,72.32-29.8884,102.2748-102.0481,102.2748H262.3446C190.1848,1658.5991,160.2965,1628.6444,160.2965,1556.3243Z"/><path class="b" d="M2624.414,1083.1659c19.8681,0,27.5354,7.6675,27.5354,27.5357v458c0,19.8681-7.6673,27.5357-27.5354,27.5357H247.36c-19.8681,0-27.5356-7.6676-27.5356-27.5357v-458c0-19.8682,7.6675-27.5357,27.5356-27.5357H2624.414m0-25.5119H247.36c-17.1377,0-29.979,4.5107-39.2578,13.79s-13.79,22.12-13.79,39.2578v458c0,17.1378,4.5107,29.9789,13.79,39.2578s22.12,13.79,39.2578,13.79H2624.414c17.1379,0,29.9792-4.5108,39.2578-13.79s13.7893-22.12,13.7893-39.2578v-458c0-17.1375-4.51-29.979-13.7893-39.2578s-22.12-13.79-39.2578-13.79Z"/><rect class="b" x="2045.3358" y="1083.166" width="25.5118" height="513.0713"/><path class="a" d="M160.2966,2406.718V1973.4724c0-72.32,29.8883-102.2748,102.0481-102.2748H2609.43c72.16,0,102.0481,29.9547,102.0481,102.2748V2406.718c0,72.32-29.8884,102.2748-102.0481,102.2748H262.3447C190.1849,2508.9928,160.2966,2479.0381,160.2966,2406.718Z"/><path class="b" d="M2624.414,1933.56c19.8681,0,27.5356,7.6676,27.5356,27.5358v458c0,19.8679-7.6675,27.5354-27.5356,27.5354H247.36c-19.8681,0-27.5356-7.6675-27.5356-27.5354v-458c0-19.8682,7.6675-27.5358,27.5356-27.5358H2624.414m0-25.5117H247.36c-17.1377,0-29.979,4.5107-39.2578,13.79s-13.79,22.12-13.79,39.2579v458c0,17.1375,4.5107,29.979,13.79,39.2579s22.1206,13.7892,39.2578,13.7892H2624.414c17.1374,0,29.979-4.51,39.2578-13.7892s13.79-22.12,13.79-39.2579v-458c0-17.1379-4.5108-29.9789-13.79-39.2579s-22.12-13.79-39.2578-13.79Z"/><rect class="b" x="2045.3359" y="1933.5597" width="25.5118" height="513.0713"/><path class="c" d="M617.1862,460.2409h-.63l-25.2,76.6523H563.8444l-25.41-76.6523h-.63l-8.82,95.9726H502.1032l13.65-147.0048h30.03l31.5009,94.5029h.63l31.502-94.5029h30.03l13.65,147.0048H626.2165Z"/><path class="c" d="M768.1745,524.0827H721.5524l-9.66,32.1308H683.5417l49.1416-147.0048h24.57l49.1416,147.0048H778.0446ZM728.693,500.3522h32.3409L745.2829,447.01h-.84Z"/><path class="c" d="M856.5807,409.2087h86.3125V556.2135H916.0124V433.57H882.4118c0,76.0224-10.0811,123.6933-43.0518,123.6933a38.3662,38.3662,0,0,1-15.12-2.9394l5.04-23.1016a20.1324,20.1324,0,0,0,6.72,1.2608c14.0713,0,20.581-28.9815,20.581-117.6045Z"/><path class="c" d="M1021.2184,409.2087v57.122h14.28c30.4512,0,50.8223,14.91,50.8223,44.9414s-20.1612,44.9414-50.8223,44.9414H994.3376V409.2087Zm0,81.4824v41.1621h13.0205c17.0108,0,24.36-8.82,24.36-20.5811,0-12.3906-7.14-20.581-24.57-20.581Zm107.5235-81.4824V556.2135H1101.861V409.2087Z"/><path class="c" d="M1207.068,531.8532h37.3809V409.2087H1271.33V531.8532h37.3818V409.2087h26.8808V556.2135H1180.1872V409.2087h26.8808Z"/><path class="c" d="M1387.0348,556.2135V409.2087h85.2627l-4.2,24.3613h-54.1816v34.44h47.8818v24.3613h-47.8818v39.4815h58.3818v24.36Z"/><path class="c" d="M1519.5446,556.2135V409.2087h45.9912c26.251,0,45.9922,9.66,45.9922,35.2812,0,19.32-11.5508,30.0313-24.9912,33.6016v.84c18.48,4.41,30.2412,16.17,30.2412,36.541,0,30.0313-22.4707,40.7412-51.2422,40.7412ZM1564.0661,433.57h-17.6406v35.4912h17.6406c12.8105,0,19.74-7.1406,19.74-17.8506S1576.8766,433.57,1564.0661,433.57Zm.21,58.5918h-17.8505v39.6914h17.8505c15.54,0,24.7813-7.77,24.7813-19.3213C1589.0573,499.0915,1579.8161,492.1618,1564.276,492.1618Z"/><path class="c" d="M1728.7067,524.0827h-46.6221l-9.66,32.1308h-28.3506l49.1416-147.0048h24.57l49.1416,147.0048h-28.3506Zm-39.4814-23.7305h32.3408l-15.751-53.3418h-.84Z"/><path class="c" d="M679.8063,678.5788h-8.9258l-12.0713-36.2129h-.34l-4.08,44.0332h-9.1806l5.5253-59.5049H662.04l13.1758,39.1035h.2559l13.1757-39.1035h11.3057l5.5254,59.5049h-9.1807l-4.08-44.0332h-.34Z"/><path class="c" d="M727.1481,686.3991,747.04,626.8942h9.0957l19.8916,59.5049h-9.7763l-4.25-13.8565H741.09l-4.166,13.8565Zm24.6524-47.3486h-.4258l-7.9053,25.5869h16.1514Z"/><path class="c" d="M800.2467,686.3991V626.8942h9.1807v51.3447h26.9473l-1.7,8.16Z"/><path class="c" d="M880.7448,626.8942h10.7109L872.33,661.5768v24.8223h-9.1807V661.5768l-19.127-34.6826h10.711l12.7509,24.8223h.34Z"/><path class="c" d="M939.31,671.0133c0-5.8662-5.6953-9.0966-12.2412-11.6464-7.65-2.9756-16.4062-7.3106-16.4062-17.1709,0-10.2012,7.2255-16.1514,19.2968-16.1514a33.7171,33.7171,0,0,1,17.001,4.59l-4.3349,7.2256a22.7411,22.7411,0,0,0-12.6661-3.6552c-6.4609,0-9.7763,2.6357-9.7763,7.48s5.8662,7.9912,11.0507,10.0313c9.3516,3.6552,17.5967,7.7353,17.5967,18.7861,0,10.541-7.3955,16.7461-20.7412,16.7461a32.4766,32.4766,0,0,1-18.7871-5.2695l4.8457-7.4815a22.1463,22.1463,0,0,0,13.9414,4.5908C934.7194,679.0885,939.31,676.5387,939.31,671.0133Z"/><path class="c" d="M984.7819,651.5465h24.8223V626.8942h9.1806v59.5049h-9.1806V659.7067H984.7819v26.6924h-9.1807V626.8942h9.1807Z"/><path class="c" d="M1048.9557,686.3991V626.8942h33.6631l-1.7,8.1611h-22.7822v16.4912h20.2314v8.16h-20.2314v18.5322h24.4824v8.16Z"/><path class="c" d="M1141.5231,626.8942h10.0313l-18.5323,59.5049h-10.6259l-18.5313-59.5049h10.0313l13.6005,46.8389h.34Z"/><path class="c" d="M1164.3014,686.3991l19.8916-59.5049h9.0957l19.8916,59.5049h-9.7754l-4.2509-13.8565h-20.9112l-4.166,13.8565Zm24.6524-47.3486h-.4258l-7.9053,25.5869h16.1514Z"/><path class="c" d="M1300.9831,671.0133c0-5.8662-5.6953-9.0966-12.2412-11.6464-7.65-2.9756-16.4063-7.3106-16.4063-17.1709,0-10.2012,7.2256-16.1514,19.2969-16.1514a33.7177,33.7177,0,0,1,17.001,4.59l-4.335,7.2256a22.7407,22.7407,0,0,0-12.666-3.6552c-6.461,0-9.7764,2.6357-9.7764,7.48s5.8662,7.9912,11.0508,10.0313c9.3516,3.6552,17.5967,7.7353,17.5967,18.7861,0,10.541-7.3955,16.7461-20.7412,16.7461a32.4764,32.4764,0,0,1-18.7871-5.2695l4.8457-7.4815a22.1461,22.1461,0,0,0,13.9414,4.5908C1296.3923,679.0885,1300.9831,676.5387,1300.9831,671.0133Z"/><path class="c" d="M1358.1862,635.0553v51.3438h-9.1807V635.0553h-17.6816v-8.1611h44.6289l-1.7,8.1611Z"/><path class="c" d="M1436.8962,644.5758c0,9.1807-5.1,14.7061-12.3252,16.6612l15.5556,25.1621-9.9453.85-15.5566-25.1611h-5.2705v24.3115h-9.1807V626.8942H1418.28C1428.5661,626.8942,1436.8962,632.93,1436.8962,644.5758Zm-27.542-9.52v18.8711h8.5009c5.44,0,9.5206-3.4,9.5206-9.3506s-4.08-9.52-9.5206-9.52Z"/><path class="c" d="M1465.1979,686.3991V626.8942h33.6631l-1.7,8.1611h-22.7822v16.4912H1494.61v8.16h-20.2314v18.5322h24.4824v8.16Z"/><path class="c" d="M1527.3327,686.3991V626.8942h33.6631l-1.7,8.1611h-22.7823v16.4912h20.2315v8.16h-20.2315v18.5322h24.4825v8.16Z"/><path class="c" d="M1610.38,635.0553v51.3438h-9.1807V635.0553h-17.6816v-8.1611h44.6289l-1.7,8.1611Z"/><path class="c" d="M971.44,302.6589h.3l11.7012-33.2022h16.3008L979.0407,324.46c-3.3,8.7-8.6006,16.001-18.2012,16.001a20.2544,20.2544,0,0,1-12.001-3.5l6.7-11.4a6.6075,6.6075,0,0,0,4.001,1.3c1.7,0,3.6-1,5.1-4.9l1.5-3.9H961.74l-20.1016-48.6025h16.6006Z"/><path class="c" d="M1040.04,283.0573c0,38.1025-6.4,56.9033-21.1015,56.9033a21.1572,21.1572,0,0,1-7.7-1.4l2.9-12.9a4.7687,4.7687,0,0,0,2.2.5c6.5,0,8.9-14.3008,8.9-53.7031v-3h43.503v70.0039H1053.94V283.0573Z"/><path class="c" d="M1138.44,294.4577h-.3l-27.4023,45.0029h-13.501V269.4567h14.8017v45.002h.3l27.4014-45.002h13.501v70.0039H1138.44Z"/><path class="c" d="M1181.735,339.4606V269.4567h14.8018V325.86h23.7012V269.4567h14.8007V325.86h9.001l-2.001,28.3018H1229.238V339.4606Z"/><path class="c" d="M1298.9362,325.16h-20.3008l-4.1006,14.3008h-15.5009l22.4013-70.0039h14.7012l22.4014,70.0039h-15.501Zm-10-36.4023h-.4l-6.1006,23.1015h12.7012Z"/><path class="c" d="M2184.3913,411.466c-13.5,0-26.19,4.59-38.0708,11.88l-15.93-27.27c21.6-11.61,36.9907-15.9306,59.1309-15.9306,33.21,0,53.7309,18.9,53.7309,51.8408,0,41.5811-35.9106,81.2715-68.8511,107.4619v1.08h74.251l-5.4,31.32H2127.15V543.2277c36.9907-27.81,81.2714-71.5508,81.2714-107.7314C2208.4215,420.6462,2200.0514,411.466,2184.3913,411.466Z"/><path class="c" d="M2361.5109,382.8454V540.528h42.3906v31.32H2279.6994v-31.32h48.061V414.1657H2283.75l5.4-31.32Z"/><path class="c" d="M2481.9093,422.047h22.8633l-73.1235,169.11h-22.8633Z"/><path class="c" d="M2537.0944,516.8581h19.9072V495.7687h28.5791v21.0894h20.6953l-3.9419,26.6084h-16.7534v28.3818h-28.5791V543.4665H2502.8V518.8288l48.289-84.9488h31.733l-45.7271,82.1895Z"/><path class="c" d="M497.5905,1352.3517h-10.5v63.8418H460.21V1269.1886h26.8809V1327.99h10.92l38.0117-58.8018h30.0313l-45.9922,69.5127,50.4023,77.4922-30.2412,2.1Z"/><path class="c" d="M678.609,1269.1886h28.5616l-43.4717,115.5039c-6.93,18.2706-17.6406,33.6006-37.8008,33.6006-8.61,0-15.9609-1.89-23.5215-7.35l12.8106-20.791c3.36,2.5205,5.8808,3.78,9.66,3.78,4.2,0,9.03-3.99,13.2305-14.28l2.94-7.3506h-8.4l-45.3613-103.1133h30.6611l32.3409,75.8125h.63Z"/><path class="c" d="M828.34,1318.75h-.63l-65.5224,97.4433H739.7165V1269.1886h26.8808v97.6534h.63l65.5225-97.6534H855.22v147.0049H828.34Zm6.93-75.8125c-9.24,14.2812-21.21,19.9511-37.8008,19.9511s-28.5615-5.67-37.8017-19.9511l16.8007-11.97c5.04,10.08,13.2305,14.07,21.001,14.07s16.17-4.2,21.001-14.07Z"/><path class="c" d="M933.5446,1293.55v33.6006h18.2705c30.4512,0,50.8213,14.49,50.8213,44.5214s-20.16,44.5215-50.8213,44.5215H906.6637V1269.1886h86.1026l-4.2,24.3614Zm0,57.9619v40.3213h17.0107c17.0108,0,24.36-8.61,24.36-20.1612,0-12.3906-7.14-20.16-24.57-20.16Z"/><path class="c" d="M1069.4128,1269.1886v57.1221h14.28c30.4512,0,50.8223,14.91,50.8223,44.9414s-20.1611,44.9414-50.8223,44.9414h-41.1611V1269.1886Zm0,81.4825v41.1621h13.02c17.0107,0,24.36-8.82,24.36-20.5811,0-12.3906-7.14-20.581-24.57-20.581Zm107.5234-81.4825v147.0049h-26.8809V1269.1886Z"/><path class="c" d="M1255.2614,1391.8332h37.3809V1269.1886h26.8808v122.6446h37.3818V1269.1886h26.8809v147.0049H1228.3805V1269.1886h26.8809Z"/><path class="c" d="M1435.2282,1416.1935V1269.1886h85.2627l-4.2,24.3614H1462.109v34.44h47.8819v24.3613H1462.109v39.4815h58.3819v24.36Z"/><path class="c" d="M1567.738,1416.1935V1269.1886h45.9912c26.2509,0,45.9922,9.66,45.9922,35.2813,0,19.32-11.5508,30.0312-24.9913,33.6016v.84c18.4805,4.41,30.2413,16.17,30.2413,36.541,0,30.0313-22.4707,40.7412-51.2422,40.7412Zm44.5214-122.6435h-17.6406v35.4912h17.6406c12.8106,0,19.74-7.1406,19.74-17.8506S1625.07,1293.55,1612.2594,1293.55Zm.21,58.5918h-17.8506v39.6914h17.8506c15.54,0,24.7813-7.7705,24.7813-19.3213C1637.2507,1359.0715,1628.0094,1352.1418,1612.4694,1352.1418Z"/><path class="c" d="M1776.901,1384.0627h-46.622l-9.66,32.1308h-28.3506l49.1416-147.0049h24.57l49.1416,147.0049h-28.3505Zm-39.4814-23.73H1769.76l-15.751-53.3418h-.84Z"/><path class="c" d="M637.9,1515.0119l22.1015,31.3672-10.54.85-19.6367-27.7119H625.404v26.8623h-9.1807v-59.5049h9.1807v24.8223H630.08l17.6816-24.8223h10.4551Z"/><path class="c" d="M725.4508,1528.1027c0,11.3057-8.5,19.126-21.2509,19.126s-21.252-7.82-21.252-19.126v-41.2285h9.1807v40.8037c0,6.7148,4.5908,11.3906,12.0713,11.3906s12.07-4.6758,12.07-11.3906v-40.8037h9.1806Z"/><path class="c" d="M784.694,1486.8742h10.7109l-19.1259,34.6826v24.8223h-9.1807v-24.8223l-19.1269-34.6826h10.7109l12.751,24.8223h.34Z"/><path class="c" d="M844.62,1515.0968c7.48,1.7852,12.24,6.545,12.24,14.7911,0,12.1562-9.0957,16.4912-20.7412,16.4912H818.3522v-59.5049h17.7666c10.626,0,18.6162,3.91,18.6162,14.2812,0,7.82-4.6748,12.1563-10.1152,13.6016Zm-17.0869-20.0615v16.8311h7.9912c5.6953,0,9.69-3.57,9.69-8.586,0-5.44-3.4853-8.2451-10.03-8.2451Zm0,24.6514v18.5322h8.0761c7.3106,0,11.7305-3.7412,11.7305-9.4365,0-6.0352-4.165-9.0957-11.8154-9.0957Z"/><path class="c" d="M912.28,1486.8742h10.711l-19.126,34.6826v24.8223h-9.1807v-24.8223l-19.1269-34.6826h10.7109l12.751,24.8223h.34Z"/><path class="c" d="M970.8454,1530.9933c0-5.8662-5.6953-9.0967-12.2412-11.6465-7.65-2.9755-16.4063-7.3105-16.4063-17.1709,0-10.2011,7.2256-16.1513,19.2969-16.1513a33.7177,33.7177,0,0,1,17.001,4.59l-4.335,7.2256a22.74,22.74,0,0,0-12.666-3.6553c-6.4609,0-9.7764,2.6358-9.7764,7.48s5.8662,7.9912,11.0508,10.0313c9.3516,3.6552,17.5967,7.7353,17.5967,18.7861,0,10.541-7.3955,16.7461-20.7412,16.7461a32.4756,32.4756,0,0,1-18.7871-5.27l4.8457-7.4814a22.1461,22.1461,0,0,0,13.9414,4.5908C966.2546,1539.0685,970.8454,1536.5187,970.8454,1530.9933Z"/><path class="c" d="M1016.3171,1511.5265h24.8222v-24.6523h9.1807v59.5049h-9.1807v-26.6924h-24.8222v26.6924h-9.1807v-59.5049h9.1807Z"/><path class="c" d="M1080.4909,1546.3791v-59.5049h33.6631l-1.7,8.1611h-22.7823v16.4912h20.2315v8.16h-20.2315v18.5322h24.4825v8.16Z"/><path class="c" d="M1173.0583,1486.8742H1183.09l-18.5322,59.5049h-10.626L1135.4,1486.8742h10.0312l13.6006,46.8389h.34Z"/><path class="c" d="M1195.8366,1546.3791l19.8916-59.5049h9.0957l19.8916,59.5049H1234.94l-4.251-13.8565H1209.778l-4.166,13.8565Zm24.6523-47.3487h-.4257l-7.9053,25.587h16.1513Z"/><path class="c" d="M1332.5182,1530.9933c0-5.8662-5.6953-9.0967-12.2412-11.6465-7.65-2.9755-16.4062-7.3105-16.4062-17.1709,0-10.2011,7.2256-16.1513,19.2968-16.1513a33.7171,33.7171,0,0,1,17.001,4.59l-4.3349,7.2256a22.74,22.74,0,0,0-12.6661-3.6553c-6.4609,0-9.7763,2.6358-9.7763,7.48s5.8662,7.9912,11.0508,10.0313c9.3515,3.6552,17.5966,7.7353,17.5966,18.7861,0,10.541-7.3955,16.7461-20.7412,16.7461a32.4759,32.4759,0,0,1-18.7871-5.27l4.8457-7.4814a22.1465,22.1465,0,0,0,13.9414,4.5908C1327.9274,1539.0685,1332.5182,1536.5187,1332.5182,1530.9933Z"/><path class="c" d="M1389.7214,1495.0353v51.3438h-9.1807v-51.3438H1362.859v-8.1611h44.629l-1.7,8.1611Z"/><path class="c" d="M1468.4313,1504.5558c0,9.1807-5.1,14.7061-12.3252,16.6612l15.5557,25.1621-9.9453.85-15.5567-25.1612h-5.27v24.3116h-9.1806v-59.5049h18.1064C1460.1012,1486.8742,1468.4313,1492.91,1468.4313,1504.5558Zm-27.542-9.5205v18.8711h8.501c5.44,0,9.5205-3.4,9.5205-9.3506s-4.08-9.5205-9.5205-9.5205Z"/><path class="c" d="M1496.7331,1546.3791v-59.5049h33.6631l-1.7,8.1611h-22.7823v16.4912h20.2315v8.16h-20.2315v18.5322h24.4825v8.16Z"/><path class="c" d="M1558.8678,1546.3791v-59.5049h33.6631l-1.7,8.1611h-22.7822v16.4912H1588.28v8.16h-20.2314v18.5322h24.4824v8.16Z"/><path class="c" d="M1641.9147,1495.0353v51.3438h-9.1807v-51.3438h-17.6816v-8.1611h44.6289l-1.7,8.1611Z"/><path class="c" d="M971.44,1162.6388h.3l11.7012-33.2021h16.3008L979.0407,1184.44c-3.3,8.7-8.6006,16.001-18.2012,16.001a20.2544,20.2544,0,0,1-12.001-3.5l6.7-11.4a6.6075,6.6075,0,0,0,4.001,1.3c1.7,0,3.6-1,5.1-4.9l1.5-3.9H961.74l-20.1016-48.6025h16.6006Z"/><path class="c" d="M1040.04,1143.0373c0,38.1025-6.4,56.9033-21.1015,56.9033a21.1572,21.1572,0,0,1-7.7-1.4l2.9-12.9a4.7687,4.7687,0,0,0,2.2.5c6.5,0,8.9-14.3008,8.9-53.7031v-3h43.503v70.0039H1053.94v-56.4033Z"/><path class="c" d="M1138.44,1154.4377h-.3l-27.4023,45.0029h-13.501v-70.0039h14.8017v45.0019h.3l27.4014-45.0019h13.501v70.0039H1138.44Z"/><path class="c" d="M1181.735,1199.4406v-70.0039h14.8018V1185.84h23.7012v-56.4033h14.8007V1185.84h9.001l-2.001,28.3018H1229.238v-14.7012Z"/><path class="c" d="M1298.9362,1185.14h-20.3008l-4.1006,14.3008h-15.5009l22.4013-70.0039h14.7012l22.4014,70.0039h-15.501Zm-10-36.4023h-.4l-6.1006,23.1015h12.7012Z"/><path class="c" d="M326.6462,2297.6969H303.9655l-4.2-55.2314h15.751c15.96-21.2109,21.42-62.1621,21.42-110.4639V2119.821H427.029v122.6445H446.98l-4.2,55.2314H420.0993v-30.8711H326.6462Zm73.5019-55.2314v-98.2832H363.1872v4.62c0,36.541-7.35,72.8721-18.2705,93.6631Z"/><path class="c" d="M534.1257,2268.9255c-43.6807,0-61.9512-33.1807-61.9512-75.6016s18.27-75.6025,61.9512-75.6025,61.9521,33.1806,61.9521,75.6025S577.8073,2268.9255,534.1257,2268.9255Zm0-126.8438c-23.9405,0-34.2305,22.4707-34.2305,51.2422s10.29,51.2412,34.2305,51.2412,34.2314-22.4707,34.2314-51.2412S558.0671,2142.0817,534.1257,2142.0817Z"/><path class="c" d="M664.9548,2144.1823v33.6006h18.27c30.4511,0,50.8212,14.49,50.8212,44.5215s-20.16,44.5214-50.8212,44.5214H638.0739V2119.821h86.1025l-4.2,24.3613Zm0,57.9619v40.3213h17.0107c17.0107,0,24.36-8.61,24.36-20.1611,0-12.3907-7.14-20.16-24.57-20.16Z"/><path class="c" d="M797.6725,2215.1637v51.6621H770.7917V2119.821h48.0918c27.9306,0,48.9316,16.1709,48.9316,47.6718s-21.001,47.6709-48.9316,47.6709Zm0-70.9814v46.6211h20.791c12.81,0,21.42-8.61,21.42-23.3106s-8.61-23.3105-21.42-23.3105Z"/><path class="c" d="M959.1618,2268.9255c-43.6807,0-61.9512-33.1807-61.9512-75.6016s18.27-75.6025,61.9512-75.6025,61.9521,33.1806,61.9521,75.6025S1002.8434,2268.9255,959.1618,2268.9255Zm0-126.8438c-23.94,0-34.2305,22.4707-34.2305,51.2422s10.29,51.2412,34.2305,51.2412,34.2314-22.4707,34.2314-51.2412S983.1032,2142.0817,959.1618,2142.0817Z"/><path class="c" d="M1070.25,2119.821h86.3125v147.0048h-26.8809V2144.1823h-33.6006c0,76.0225-10.081,123.6934-43.0517,123.6934a38.366,38.366,0,0,1-15.12-2.9395l5.04-23.1016a20.1312,20.1312,0,0,0,6.72,1.2608c14.0713,0,20.5811-28.9815,20.5811-117.6045Z"/><path class="c" d="M1252.529,2203.404h-20.791v63.4218h-26.8809V2119.821h26.8809v59.2216h21.2109c3.99-35.7011,24.36-61.3212,61.3213-61.3212,41.582,0,61.7422,32.7607,61.7422,75.6025s-20.16,75.6016-61.7422,75.6016C1275.84,2268.9255,1255.2585,2241.2048,1252.529,2203.404Zm61.7412,41.1611c21.8408,0,34.0215-23.52,34.0215-51.2412s-12.1807-51.2422-34.0215-51.2422-34.23,23.52-34.23,51.2422S1292.43,2244.5651,1314.27,2244.5651Z"/><path class="c" d="M1444.8854,2144.1823v33.6006h18.2705c30.4512,0,50.8213,14.49,50.8213,44.5215s-20.16,44.5214-50.8213,44.5214h-45.1513V2119.821h86.1025l-4.2,24.3613Zm0,57.9619v40.3213h17.0108c17.0107,0,24.36-8.61,24.36-20.1611,0-12.3907-7.14-20.16-24.57-20.16Z"/><path class="c" d="M1606.3737,2268.9255c-43.6807,0-61.9512-33.1807-61.9512-75.6016s18.2705-75.6025,61.9512-75.6025,61.9521,33.1806,61.9521,75.6025S1650.0553,2268.9255,1606.3737,2268.9255Zm0-126.8438c-23.94,0-34.2305,22.4707-34.2305,51.2422s10.29,51.2412,34.2305,51.2412,34.2314-22.4707,34.2314-51.2412S1630.3151,2142.0817,1606.3737,2142.0817Z"/><path class="c" d="M1710.3219,2266.8258V2119.821h45.9913c26.2509,0,45.9921,9.66,45.9921,35.2812,0,19.32-11.5507,30.0313-24.9912,33.6016v.84c18.48,4.41,30.2412,16.17,30.2412,36.541,0,30.0313-22.4707,40.7412-51.2421,40.7412Zm44.5215-122.6435h-17.6406v35.4912h17.6406c12.8106,0,19.74-7.1406,19.74-17.8506S1767.654,2144.1823,1754.8434,2144.1823Zm.21,58.5918h-17.8506v39.6914h17.8506c15.54,0,24.78-7.77,24.78-19.3213C1779.8337,2209.7038,1770.5934,2202.7741,1755.0534,2202.7741Z"/><path class="c" d="M1916.3337,2234.695h-46.6221l-9.66,32.1308h-28.3506l49.1416-147.0048h24.57l49.1416,147.0048h-28.3506Zm-39.4815-23.7305h32.3408l-15.7509-53.3418h-.84Z"/><path class="c" d="M542.9049,2396.7673v-59.5049H561.862c16.831,0,24.3115,12.4111,24.3115,29.7529s-7.4805,29.752-24.3115,29.752Zm9.1807-51.3438v43.1836h9.7764c9.9453,0,14.791-9.4365,14.791-21.5918s-4.8457-21.5918-14.791-21.5918Z"/><path class="c" d="M635.8962,2397.6169c-17.6807,0-24.6514-13.4307-24.6514-30.6016s6.9707-30.6025,24.6514-30.6025,24.6523,13.4306,24.6523,30.6025S653.5778,2397.6169,635.8962,2397.6169Zm0-53.044c-10.8809,0-15.1309,9.8613-15.1309,22.4424s4.25,22.4414,15.1309,22.4414,15.1318-9.86,15.1318-22.4414S646.777,2344.5729,635.8962,2344.5729Z"/><path class="c" d="M714.4372,2365.485c7.48,1.7852,12.24,6.5449,12.24,14.791,0,12.1563-9.0957,16.4913-20.7412,16.4913H688.17v-59.5049h17.7666c10.626,0,18.6162,3.91,18.6162,14.2812,0,7.82-4.6748,12.1563-10.1152,13.6016ZM697.35,2345.4235v16.8311h7.9912c5.6953,0,9.69-3.57,9.69-8.586,0-5.44-3.4854-8.2451-10.03-8.2451Zm0,24.6514v18.5322h8.0761c7.3106,0,11.7305-3.7412,11.7305-9.4365,0-6.0352-4.165-9.0957-11.8154-9.0957Z"/><path class="c" d="M791.0221,2354.944c0,9.1807-5.1,14.7061-12.3252,16.6611l15.5557,25.1622-9.9453.85-15.5566-25.1612H763.48v24.3116H754.3v-59.5049h18.1064C782.6921,2337.2624,791.0221,2343.2985,791.0221,2354.944Zm-27.542-9.5205v18.8711h8.501c5.44,0,9.5205-3.4,9.5205-9.3506s-4.08-9.5205-9.5205-9.5205Z"/><path class="c" d="M838.8757,2397.6169c-17.6807,0-24.6514-13.4307-24.6514-30.6016s6.9707-30.6025,24.6514-30.6025,24.6523,13.4306,24.6523,30.6025S856.5573,2397.6169,838.8757,2397.6169Zm0-53.044c-10.8809,0-15.1309,9.8613-15.1309,22.4424s4.25,22.4414,15.1309,22.4414,15.1318-9.86,15.1318-22.4414S849.7565,2344.5729,838.8757,2344.5729Z"/><path class="c" d="M891.1491,2396.7673v-59.5049H900.33v51.3447H927.277l-1.7,8.16Z"/><path class="c" d="M971.6462,2337.2624h10.7109l-19.126,34.6826v24.8223h-9.1806V2371.945l-19.127-34.6826h10.7109l12.751,24.8222h.34Z"/><path class="c" d="M1047.3815,2378.4909c0,11.3056-8.5,19.126-21.251,19.126s-21.2519-7.82-21.2519-19.126v-41.2285h9.1806v40.8037c0,6.7148,4.5909,11.3906,12.0713,11.3906s12.07-4.6758,12.07-11.3906v-40.8037h9.1807Z"/><path class="c" d="M1103.3962,2365.485c7.48,1.7852,12.24,6.5449,12.24,14.791,0,12.1563-9.0957,16.4913-20.7412,16.4913h-17.7666v-59.5049h17.7666c10.626,0,18.6162,3.91,18.6162,14.2812,0,7.82-4.6748,12.1563-10.1152,13.6016Zm-17.087-20.0615v16.8311h7.9913c5.6953,0,9.69-3.57,9.69-8.586,0-5.44-3.4854-8.2451-10.03-8.2451Zm0,24.6514v18.5322h8.0762c7.3106,0,11.7305-3.7412,11.7305-9.4365,0-6.0352-4.1651-9.0957-11.8154-9.0957Z"/><path class="c" d="M1165.359,2397.6169c-17.6806,0-24.6513-13.4307-24.6513-30.6016s6.9707-30.6025,24.6513-30.6025,24.6524,13.4306,24.6524,30.6025S1183.0407,2397.6169,1165.359,2397.6169Zm0-53.044c-10.8808,0-15.1308,9.8613-15.1308,22.4424s4.25,22.4414,15.1308,22.4414,15.1319-9.86,15.1319-22.4414S1176.24,2344.5729,1165.359,2344.5729Z"/><path class="c" d="M1246.3659,2337.2624h10.0312l-18.5322,59.5049h-10.626l-18.5312-59.5049h10.0312l13.6006,46.8388h.34Z"/><path class="c" d="M1269.1442,2396.7673l19.8916-59.5049h9.0957l19.8916,59.5049h-9.7754l-4.251-13.8565h-20.9111l-4.166,13.8565Zm24.6523-47.3487h-.4257l-7.9053,25.5869h16.1514Z"/><path class="c" d="M1405.8258,2381.3815c0-5.8662-5.6953-9.0967-12.2412-11.6465-7.65-2.9756-16.4062-7.3105-16.4062-17.1709,0-10.2011,7.2256-16.1513,19.2969-16.1513a33.717,33.717,0,0,1,17.0009,4.59l-4.3349,7.2256a22.74,22.74,0,0,0-12.666-3.6553c-6.461,0-9.7764,2.6358-9.7764,7.48s5.8662,7.9912,11.0508,10.0312c9.3515,3.6553,17.5967,7.7354,17.5967,18.7862,0,10.541-7.3956,16.7461-20.7413,16.7461a32.4766,32.4766,0,0,1-18.7871-5.27l4.8457-7.4814a22.1465,22.1465,0,0,0,13.9414,4.5908C1401.235,2389.4567,1405.8258,2386.9069,1405.8258,2381.3815Z"/><path class="c" d="M1463.029,2345.4235v51.3438h-9.1807v-51.3438h-17.6816v-8.1611h44.6289l-1.7,8.1611Z"/><path class="c" d="M1541.7389,2354.944c0,9.1807-5.1,14.7061-12.3252,16.6611l15.5557,25.1622-9.9453.85-15.5567-25.1612h-5.2705v24.3116h-9.1806v-59.5049h18.1064C1533.4089,2337.2624,1541.7389,2343.2985,1541.7389,2354.944Zm-27.542-9.5205v18.8711h8.501c5.44,0,9.5205-3.4,9.5205-9.3506s-4.08-9.5205-9.5205-9.5205Z"/><path class="c" d="M1570.0407,2396.7673v-59.5049h33.6631l-1.7,8.1611h-22.7822v16.4912h20.2314v8.16h-20.2314v18.5322h24.4824v8.16Z"/><path class="c" d="M1632.1755,2396.7673v-59.5049h33.663l-1.7,8.1611h-22.7822v16.4912h20.2315v8.16h-20.2315v18.5322h24.4824v8.16Z"/><path class="c" d="M1715.2233,2345.4235v51.3438h-9.1807v-51.3438H1688.361v-8.1611H1732.99l-1.7,8.1611Z"/><path class="c" d="M971.6852,2013.028h.3l11.7012-33.2022H999.987l-20.7012,55.003c-3.3,8.7-8.6006,16.001-18.2012,16.001a20.2539,20.2539,0,0,1-12.0009-3.5l6.7-11.4a6.607,6.607,0,0,0,4.0009,1.3c1.7,0,3.6-1,5.1-4.9l1.5-3.9H961.985l-20.1015-48.6026H958.484Z"/><path class="c" d="M1034.7858,1993.4264c0,38.1026-6.4,56.9034-21.1016,56.9034a21.1572,21.1572,0,0,1-7.7-1.4l2.9-12.9a4.768,4.768,0,0,0,2.2.5c6.5,0,8.9-14.3008,8.9-53.7032v-3h43.503v70.004h-14.8018v-56.4034Z"/><path class="c" d="M1135.6852,2004.8268h-.3l-27.4023,45.003h-13.501v-70.004h14.8018v45.002h.3l27.4013-45.002h13.501v70.004h-14.8008Z"/><path class="c" d="M1181.4821,2049.83v-70.004h14.8008v56.4034h23.7011v-56.4034h14.8008v56.4034h9.001l-2.001,28.3017H1228.984V2049.83Z"/><path class="c" d="M1301.1823,2035.529h-20.3008l-4.1006,14.3008H1261.28l22.4014-70.004h14.7012l22.4014,70.004h-15.501Zm-10-36.4024h-.4l-6.1006,23.1016h12.7012Z"/><path class="c" d="M2266.99,1226.4128l-74.1016,128.1015v1.1992h39.3008v-35.1h37.5v35.1h33.001l-6,34.501h-27.001v46.2h-37.5v-46.2h-84.0009v-31.501l77.1005-132.3007Z"/><path class="c" d="M2429.5885,1327.8132c20.1,12.9,32.1006,27.6005,32.1006,51.0009,0,39.6006-26.1006,60.6006-69.0009,60.6006s-69.001-21-69.001-60.6006c0-22.2,11.4-40.2,32.1006-52.2v-1.2c-15.3-8.4-25.5-24.6005-25.5-46.5009,0-35.4,22.5-55.5,62.4-55.5s62.4,20.1,62.4,55.5c0,20.4-11.4,37.2011-25.5,47.7011Zm-45.0009,13.5009c-16.2,9.6-23.7,21.8994-23.7,37.5,0,18.3,14.1006,25.8,31.8008,25.8s31.8-7.5,31.8-25.8c0-15.3-10.8-25.5-26.7-32.1006Zm4.5-33.6006,11.1006,4.8c11.4-8.7,17.7-20.1005,17.7-33.6005,0-13.2-9.9-20.7-25.2-20.7s-25.2,7.5-25.2,20.7C2367.488,1293.9137,2375.8874,1302.0133,2389.0876,1307.7135Z"/><path class="c" d="M2526.6169,1312.902v30.44h16.8623c31.7539,0,52.997,15.11,52.997,46.4268s-21.0234,46.6455-52.997,46.6455h-49.2735V1283.1188h91.9776l-4.38,29.7832Zm0,59.1279v34.6016h15.5488c14.6728,0,21.0234-7.665,21.0234-17.3008,0-10.0732-6.1318-17.3008-21.2431-17.3008Z"/><path class="c" d="M2414.1794,2183.3981c24.789,15.91,39.5888,34.04,39.5888,62.8994,0,48.84-32.1894,74.7393-85.0986,74.7393s-85.0986-25.8994-85.0986-74.7393c0-27.38,14.06-49.5791,39.5888-64.3789v-1.48c-18.8691-10.3594-31.4492-30.34-31.4492-57.3487,0-43.66,27.75-68.4492,76.959-68.4492s76.959,24.7891,76.959,68.4492c0,25.1592-14.06,45.8789-31.4492,58.8291Zm-55.5,16.65c-19.9795,11.84-29.2295,27.0088-29.2295,46.249,0,22.5694,17.39,31.8194,39.22,31.8194s39.22-9.25,39.22-31.8194c0-18.87-13.32-31.4492-32.93-39.59Zm5.55-41.4395,13.69,5.92c14.06-10.7305,21.8291-24.79,21.8291-41.4395,0-16.28-12.209-25.53-31.0791-25.53s-31.0791,9.25-31.0791,25.53C2337.5905,2141.5885,2347.95,2151.5788,2364.2292,2158.609Z"/><path class="d" d="M18.1978,580.1579c0,4.68,1.8,9.0893,4.5,13.769l-6.03,3.33c-3.69-7.0195-5.31-11.43-5.31-18.8091,0-11.07,6.3-17.0093,17.2792-17.0093,15.1194,0,30.7789,14.8492,39.4185,25.649h.36V559.6383l6.84,1.8v36.8985h-5.94c-9.9-12.6895-26.009-28.8892-39.9585-28.8892C22.2476,569.4479,18.1978,572.508,18.1978,580.1579Z"/><path class="d" d="M18.1978,531.5583c0,4.68,1.8,9.0893,4.5,13.769l-6.03,3.33c-3.69-7.02-5.31-11.43-5.31-18.8091,0-11.07,6.3-17.0093,17.2792-17.0093,15.1194,0,30.7789,14.8492,39.4185,25.649h.36V511.0387l6.84,1.8v36.8985h-5.94c-9.9-12.6895-26.009-28.8892-39.9585-28.8892C22.2476,520.8483,18.1978,523.9084,18.1978,531.5583Z"/><path class="d" d="M55.1863,462.4386c13.8594,0,20.969,8.82,20.969,20.6094a30.57,30.57,0,0,1-5.31,18.0894l-6.03-3.6c2.7-4.05,4.5-7.92,4.5-13.8594,0-7.56-4.68-13.23-14.1294-13.23s-14.1294,6.12-14.1294,14.2192a43.33,43.33,0,0,0,2.34,12.87H12.2581V464.7785l6.84,1.8v23.3091H35.2972a33.6722,33.6722,0,0,1-.72-7.2C34.5769,470.8986,41.6868,462.4386,55.1863,462.4386Z"/><path class="d" d="M29.3572,394.5793V384.95l45.8982-4.41v7.47l-36.9885,2.97v.36l29.5188,10.62v8.37L38.2669,421.0382v.36l36.9885,2.97v7.47l-45.8982-4.41v-9.63L61.126,406.279v-.27Z"/><path class="d" d="M29.3572,335.18v-9.6294l45.8982-4.41v7.47l-36.9885,2.97v.36l29.5188,10.62v8.37L38.2669,361.6388v.36l36.9885,2.97v7.47l-45.8982-4.41v-9.63L61.126,346.88v-.27Z"/><path class="d" d="M1325.727,46.8962a16.5783,16.5783,0,0,1-12.15,5.0395c-10.1695,0-17.6392-7.2895-17.6392-19.979s8.37-20.0693,20.0693-20.0693c12.6895,0,19.979,9.54,19.979,23.6694,0,19.3491-13.4091,35.8184-31.8584,41.1279l-2.79-5.49c10.62-4.2295,21.1489-11.9693,24.6592-24.1187Zm-9.72-28.169c-7.2,0-12.06,4.59-12.06,13.23s4.86,13.14,12.06,13.14c5.4,0,9.99-3.96,12.2393-9.54C1328.2465,25.4772,1324.1069,18.7272,1316.0072,18.7272Z"/><path class="d" d="M1364.7865,76.6847c-13.8593,0-21.5986-11.0693-21.5986-32.3984s7.7393-32.3989,21.5986-32.3989,21.6,11.07,21.6,32.3989S1378.6464,76.6847,1364.7865,76.6847Zm0-6.8393c8.28,0,13.59-7.56,13.59-25.5591s-5.31-25.5591-13.59-25.5591-13.5893,7.56-13.5893,25.5591S1356.5072,69.8454,1364.7865,69.8454Z"/><path class="d" d="M1413.3871,76.6847c-13.86,0-21.6-11.0693-21.6-32.3984s7.74-32.3989,21.6-32.3989,21.5987,11.07,21.5987,32.3989S1427.2465,76.6847,1413.3871,76.6847Zm0-6.8393c8.2793,0,13.5894-7.56,13.5894-25.5591s-5.31-25.5591-13.5894-25.5591-13.59,7.56-13.59,25.5591S1405.1073,69.8454,1413.3871,69.8454Z"/><path class="d" d="M1500.5956,29.8869h9.6294l4.41,45.8979h-7.47l-2.97-36.9883h-.36l-10.62,29.5186h-8.37l-10.7095-29.5186h-.36l-2.97,36.9883h-7.47l4.41-45.8979h9.63l11.5195,31.7685h.27Z"/><path class="d" d="M1559.995,29.8869h9.6294l4.41,45.8979h-7.47l-2.97-36.9883h-.36l-10.62,29.5186h-8.37l-10.7094-29.5186h-.36l-2.97,36.9883h-7.47l4.41-45.8979h9.63l11.52,31.7685h.27Z"/><path class="a" d="M160.2966,3233.3524V2800.1069c0-72.32,29.8883-102.2749,102.0481-102.2749H2609.43c72.16,0,102.0481,29.9548,102.0481,102.2749v433.2455c0,72.32-29.8884,102.2749-102.0481,102.2749H262.3447C190.1849,3335.6273,160.2966,3305.6725,160.2966,3233.3524Z"/><path class="b" d="M2624.414,2760.194c19.8681,0,27.5356,7.6675,27.5356,27.5357v458c0,19.8683-7.6675,27.5358-27.5356,27.5358H247.36c-19.8681,0-27.5356-7.6675-27.5356-27.5358v-458c0-19.8682,7.6675-27.5357,27.5356-27.5357H2624.414m0-25.5117H247.36c-17.1377,0-29.979,4.5106-39.2578,13.79s-13.79,22.12-13.79,39.2578v458c0,17.1379,4.5107,29.979,13.79,39.2579s22.12,13.79,39.2578,13.79H2624.414c17.1379,0,29.979-4.5107,39.2578-13.79s13.79-22.12,13.79-39.2579v-458c0-17.1378-4.5108-29.9789-13.79-39.2578s-22.12-13.79-39.2578-13.79Z"/><rect class="b" x="2045.3359" y="2760.1941" width="25.5118" height="513.0713"/><path class="c" d="M326.54,2946.4557h86.3125v147.0049H385.9718V2970.8171h-33.6c0,76.0224-10.0811,123.6933-43.0518,123.6933a38.3662,38.3662,0,0,1-15.12-2.9394l5.04-23.1016a20.1319,20.1319,0,0,0,6.72,1.2607c14.0713,0,20.5811-28.9814,20.5811-117.6044Z"/><path class="c" d="M534.65,2946.4557h28.5615L519.7394,3061.96c-6.93,18.2705-17.6406,33.6006-37.8008,33.6006-8.61,0-15.9609-1.89-23.5214-7.35l12.8105-20.791c3.36,2.52,5.8809,3.78,9.66,3.78,4.2,0,9.03-3.99,13.23-14.28l2.9405-7.3506h-8.4L443.297,2946.4557h30.6612l32.3408,75.8125h.63Z"/><path class="c" d="M619.4875,3005.2575H674.509v-58.8018H701.39v147.0049H674.509v-63.8418H619.4875v63.8418H592.6066V2946.4557h26.8809Z"/><path class="c" d="M819.6164,3061.33H772.9943l-9.66,32.1308H734.9836l49.1416-147.0049h24.57l49.1416,147.0049H829.4865Zm-39.4815-23.7305h32.3408l-15.7509-53.3418h-.84Z"/><path class="c" d="M946.8742,3093.4606v-58.5918c-8.19,2.73-17.8506,4.62-25.8311,4.62-31.081,0-46.4111-13.65-46.4111-44.1015v-48.9317h26.8809v48.9317c0,14.7,8.82,19.7412,21.6308,19.7412a68.0254,68.0254,0,0,0,23.7305-4.6211v-64.0518H973.755v147.0049Z"/><path class="c" d="M1091.9836,3061.33h-46.6221l-9.66,32.1308h-28.3506l49.1417-147.0049h24.57l49.1416,147.0049h-28.3506Zm-39.4815-23.7305h32.3408l-15.7509-53.3418h-.84Z"/><path class="c" d="M1190.68,3041.7985v51.6621H1163.799V2946.4557h48.0918c27.9307,0,48.9316,16.1709,48.9316,47.6719s-21.0009,47.6709-48.9316,47.6709Zm0-70.9814v46.6211h20.791c12.81,0,21.42-8.61,21.42-23.3106s-8.61-23.31-21.42-23.31Z"/><path class="c" d="M1394.17,3084.22c-13.2305,7.5605-24.3613,11.34-40.9512,11.34-43.6816,0-63.0019-33.1806-63.0019-75.6015s19.32-75.6026,63.0019-75.6026c13.44,0,24.36,2.1,38.4307,9.45l-10.71,21.6309a61.6309,61.6309,0,0,0-27.7207-6.7207c-23.9414,0-35.2812,22.4707-35.2812,51.2422s11.34,51.2412,35.2812,51.2412c10.71,0,20.37-2.9405,30.03-8.4Z"/><path class="c" d="M1470.3976,3029.6188h-10.5v63.8418h-26.8808V2946.4557h26.8808v58.8018h10.92l38.0118-58.8018h30.0312l-45.9922,69.5127,50.4024,77.4922-30.2412,2.1Z"/><path class="c" d="M1622.0168,3095.56c-43.6807,0-61.9512-33.1806-61.9512-75.6015s18.2705-75.6026,61.9512-75.6026,61.9521,33.1807,61.9521,75.6026S1665.6984,3095.56,1622.0168,3095.56Zm0-126.8437c-23.9405,0-34.2305,22.4707-34.2305,51.2422s10.29,51.2412,34.2305,51.2412,34.2314-22.4707,34.2314-51.2412S1645.9582,2968.7165,1622.0168,2968.7165Z"/><path class="c" d="M1752.8459,2970.8171v122.6435H1725.965V2946.4557h84.0029l-4.2,24.3614Z"/><path class="c" d="M1888.716,3095.56c-43.6807,0-61.9512-33.1806-61.9512-75.6015s18.2705-75.6026,61.9512-75.6026,61.9521,33.1807,61.9521,75.6026S1932.3976,3095.56,1888.716,3095.56Zm0-126.8437c-23.94,0-34.23,22.4707-34.23,51.2422s10.29,51.2412,34.23,51.2412,34.2314-22.4707,34.2314-51.2412S1912.6574,2968.7165,1888.716,2968.7165Z"/><path class="c" d="M499.3869,3223.402v-59.5049h9.1806v51.3448h26.9473l-1.7,8.16Z"/><path class="c" d="M601.8136,3205.1257c0,11.3056-8.5,19.1259-21.2509,19.1259s-21.252-7.82-21.252-19.1259v-41.2286h9.1807v40.8037c0,6.7149,4.5908,11.3907,12.0713,11.3907s12.07-4.6758,12.07-11.3907v-40.8037h9.1806Z"/><path class="c" d="M666.6691,3208.1862h.34v-44.2891H676.19v59.5049h-9.8613l-25.2471-44.2031h-.34v44.2031h-9.1807v-59.5049h9.8613Z"/><path class="c" d="M700.4093,3223.402l19.8916-59.5049h9.0957l19.8916,59.5049h-9.7753l-4.251-13.8564H714.3507l-4.166,13.8564Zm24.6524-47.3486h-.4258l-7.9053,25.5869H732.882Z"/><path class="c" d="M778.78,3193.65c0,12.581,4.25,22.4414,15.1309,22.4414a25.7355,25.7355,0,0,0,13.0068-3.6553l3.57,7.2256a30.38,30.38,0,0,1-16.5771,4.59c-17.6807,0-24.6514-13.4306-24.6514-30.6015s6.9707-30.6026,24.6514-30.6026a30.7144,30.7144,0,0,1,15.5566,3.8252l-3.57,7.2256a26.0653,26.0653,0,0,0-11.9863-2.8906C783.03,3171.2077,778.78,3181.069,778.78,3193.65Z"/><path class="c" d="M846.0148,3188.55h24.8223v-24.6524h9.1806v59.5049h-9.1806V3196.71H846.0148v26.6924h-9.1807v-59.5049h9.1807Z"/><path class="c" d="M904.2384,3223.402l19.8916-59.5049h9.0957l19.8917,59.5049H943.341l-4.25-13.8564H918.18l-4.1661,13.8564Zm24.6524-47.3486h-.4258L920.56,3201.64h16.1514Z"/><path class="c" d="M1014.06,3181.5788c0,9.1806-5.1,14.706-12.3252,16.6611l15.5557,25.1621-9.9453.85-15.5567-25.1611h-5.27v24.3115h-9.1806v-59.5049h18.1064C1005.73,3163.8971,1014.06,3169.9333,1014.06,3181.5788Zm-27.542-9.52v18.8711h8.501c5.44,0,9.5205-3.4,9.5205-9.3506s-4.08-9.52-9.5205-9.52Z"/><path class="c" d="M1068.97,3208.0163c0-5.8662-5.6953-9.0967-12.2412-11.6465-7.65-2.9756-16.4063-7.3106-16.4063-17.1709,0-10.2012,7.2256-16.1514,19.2969-16.1514a33.7164,33.7164,0,0,1,17.001,4.59l-4.335,7.2256a22.74,22.74,0,0,0-12.666-3.6553c-6.4609,0-9.7764,2.6357-9.7764,7.4805s5.8662,7.9912,11.0508,10.0312c9.3516,3.6553,17.5967,7.7354,17.5967,18.7861,0,10.541-7.3955,16.7461-20.7412,16.7461a32.4766,32.4766,0,0,1-18.7871-5.2695l4.8457-7.4814a22.1461,22.1461,0,0,0,13.9414,4.5908C1064.3791,3216.0915,1068.97,3213.5417,1068.97,3208.0163Z"/><path class="c" d="M1126.9377,3192.0348l22.1015,31.3672-10.54.85-19.6367-27.7119h-4.4209v26.8623h-9.1807v-59.5049h9.1807v24.8223h4.6758l17.6816-24.8223h10.4551Z"/><path class="c" d="M1191.1125,3224.2516c-17.6807,0-24.6514-13.4306-24.6514-30.6015s6.9707-30.6026,24.6514-30.6026,24.6523,13.4307,24.6523,30.6026S1208.7941,3224.2516,1191.1125,3224.2516Zm0-53.0439c-10.8809,0-15.1309,9.8613-15.1309,22.4424s4.25,22.4414,15.1309,22.4414,15.1318-9.86,15.1318-22.4414S1201.9933,3171.2077,1191.1125,3171.2077Z"/><path class="c" d="M1250.3566,3193.65c0,12.581,4.5908,22.4414,15.8115,22.4414a20.8675,20.8675,0,0,0,8.586-1.6153v-15.1308H1264.298v-7.9912h19.041v27.457a27.507,27.507,0,0,1-17.5107,5.44c-17.6817,0-24.9922-13.4306-24.9922-30.6015s7.3105-30.6026,24.9922-30.6026a32.2317,32.2317,0,0,1,16.1514,3.8252l-3.6563,7.3955a26.14,26.14,0,0,0-12.4951-3.0605C1254.9474,3171.2077,1250.3566,3181.069,1250.3566,3193.65Z"/><path class="c" d="M1333.4875,3224.2516c-17.6807,0-24.6514-13.4306-24.6514-30.6015s6.9707-30.6026,24.6514-30.6026,24.6523,13.4307,24.6523,30.6026S1351.1691,3224.2516,1333.4875,3224.2516Zm0-53.0439c-10.8809,0-15.1309,9.8613-15.1309,22.4424s4.25,22.4414,15.1309,22.4414,15.1318-9.86,15.1318-22.4414S1344.3683,3171.2077,1333.4875,3171.2077Z"/><path class="c" d="M1449.342,3208.0163c0-5.8662-5.6954-9.0967-12.2413-11.6465-7.65-2.9756-16.4062-7.3106-16.4062-17.1709,0-10.2012,7.2256-16.1514,19.2969-16.1514a33.7167,33.7167,0,0,1,17.001,4.59l-4.335,7.2256a22.74,22.74,0,0,0-12.666-3.6553c-6.461,0-9.7764,2.6357-9.7764,7.4805s5.8662,7.9912,11.0508,10.0312c9.3516,3.6553,17.5967,7.7354,17.5967,18.7861,0,10.541-7.3955,16.7461-20.7412,16.7461a32.4767,32.4767,0,0,1-18.7872-5.2695l4.8458-7.4814a22.1461,22.1461,0,0,0,13.9414,4.5908C1444.7511,3216.0915,1449.342,3213.5417,1449.342,3208.0163Z"/><path class="c" d="M1506.5461,3172.0583v51.3437h-9.1807v-51.3437h-17.6816v-8.1612h44.6289l-1.7,8.1612Z"/><path class="c" d="M1585.255,3181.5788c0,9.1806-5.1,14.706-12.3251,16.6611l15.5556,25.1621-9.9453.85-15.5566-25.1611h-5.2705v24.3115h-9.1807v-59.5049h18.1064C1576.925,3163.8971,1585.255,3169.9333,1585.255,3181.5788Zm-27.5419-9.52v18.8711h8.5009c5.4405,0,9.5205-3.4,9.5205-9.3506s-4.08-9.52-9.5205-9.52Z"/><path class="c" d="M1613.5578,3223.402v-59.5049h33.6631l-1.7,8.1612h-22.7823V3188.55H1642.97v8.16h-20.2315v18.5323h24.4825v8.16Z"/><path class="c" d="M1675.6925,3223.402v-59.5049h33.6631l-1.7,8.1612h-22.7822V3188.55h20.2315v8.16h-20.2315v18.5323h24.4824v8.16Z"/><path class="c" d="M1758.7394,3172.0583v51.3437h-9.1806v-51.3437h-17.6817v-8.1612h44.6289l-1.7,8.1612Z"/><path class="c" d="M971.6852,2839.6628h.3l11.7012-33.2022H999.987l-20.7012,55.0029c-3.3,8.7-8.6006,16.001-18.2012,16.001a20.2539,20.2539,0,0,1-12.0009-3.5l6.7-11.4a6.607,6.607,0,0,0,4.0009,1.3c1.7,0,3.6-1,5.1-4.9l1.5-3.9H961.985l-20.1015-48.6026H958.484Z"/><path class="c" d="M1034.7858,2820.0612c0,38.1025-6.4,56.9033-21.1016,56.9033a21.1572,21.1572,0,0,1-7.7-1.4l2.9-12.9a4.768,4.768,0,0,0,2.2.5c6.5,0,8.9-14.3007,8.9-53.7031v-3h43.503v70.0039h-14.8018v-56.4033Z"/><path class="c" d="M1135.6852,2831.4616h-.3l-27.4023,45.0029h-13.501v-70.0039h14.8018v45.002h.3l27.4013-45.002h13.501v70.0039h-14.8008Z"/><path class="c" d="M1181.4821,2876.4645v-70.0039h14.8008v56.4033h23.7011v-56.4033h14.8008v56.4033h9.001l-2.001,28.3018H1228.984v-14.7012Z"/><path class="c" d="M1301.1823,2862.1637h-20.3008l-4.1006,14.3008H1261.28l22.4014-70.0039h14.7012l22.4014,70.0039h-15.501Zm-10-36.4023h-.4l-6.1006,23.1016h12.7012Z"/><path class="c" d="M2237.7614,2884.51V3048.03h43.96v32.48h-128.8v-32.48h49.84V2916.99h-45.64l5.6-32.4795Z"/><path class="c" d="M2398.48,2916.99h-92.9589l5.6-32.4795h124.6v29.68l-69.72,166.3193h-37.52Z"/><path class="c" d="M2555.28,2916.99h-92.96l5.6-32.4795h124.6v29.68l-69.72,166.3193h-37.52Z"/><path class="c" d="M2162.7526,3162.7365v51.3442h13.771v8.16h-38.2529v-8.16h15.5561v-43.1836h-14.2812l1.7-8.1606Z"/><path class="c" d="M2213.7531,3170.8971h-29.2422l1.7-8.1606h36.9775v7.3105l-20.7417,52.1939h-9.69Z"/><path class="c" d="M2269.4284,3203.88c0,13.0908-9.3506,19.2119-20.1465,19.2119a29.8463,29.8463,0,0,1-17.2563-5.0157l4.3349-7.1406a20.5454,20.5454,0,0,0,12.3262,3.9951c6.5454,0,11.4761-3.4,11.4761-10.9658,0-7.9053-5.1006-11.0508-11.816-11.0508h-4.42v-4.59l12.751-17.0864v-.34h-22.6968l1.7-8.1606h31.1123v7.3105l-12.1557,16.1514v.2549C2262.6276,3187.8132,2269.4284,3192.404,2269.4284,3203.88Z"/><path class="c" d="M2387.2424,3172.8522l5.8657-5.8652,25.5019,25.5019-25.5019,25.502-5.8657-5.8652,15.3862-15.1319v-.2549h-99.1177v-8.5h99.1177v-.2553Z"/><path class="c" d="M2476.8278,3162.7365v51.3442h13.771v8.16h-38.2529v-8.16h15.5561v-43.1836h-14.2812l1.7-8.1606Z"/><path class="c" d="M2527.8278,3170.8971h-29.2422l1.7-8.1606h36.9775v7.3105l-20.7417,52.1939h-9.69Z"/><path class="c" d="M2575.3429,3170.8971h-29.2422l1.7-8.1606h36.9776v7.3105l-20.7417,52.1939h-9.69Z"/></svg>