<?xml version="1.0" encoding="UTF-8"?><svg id="a" xmlns="http://www.w3.org/2000/svg" viewBox="0 0 536.603 192.641"><defs><style>.b{stroke-dasharray:0 0 4.827 2.414;}.b,.c,.d,.e,.f,.g,.h,.i,.j{fill:none;}.b,.c,.d,.e,.f,.g,.i,.j{stroke:#53af32;stroke-miterlimit:10;stroke-width:.719px;}.c{stroke-dasharray:0 0 4.956 2.478;}.d{stroke-dasharray:0 0 4.565 2.282;}.e{stroke-dasharray:0 0 4.893 2.447;}.g{stroke-dasharray:0 0 4.743 2.372;}.k{fill:#88bd28;opacity:.3;}.k,.h{isolation:isolate;}.k,.l,.m,.n{stroke-width:0px;}.h{opacity:.5;stroke:#56617d;stroke-linecap:round;stroke-linejoin:round;stroke-width:2px;}.i{stroke-dasharray:0 0 4.827 2.413;}.l{fill:rgba(136,189,40,.3);}.m{fill-rule:evenodd;}.m,.n{fill:#53af32;}.j{stroke-dasharray:0 0 4.634 2.317;}</style></defs><line class="h" x1="1" y1="1" x2="486.821" y2="1"/><line class="h" x1="1" y1="17.362" x2="486.821" y2="17.362"/><line class="h" x1="1" y1="33.723" x2="486.821" y2="33.723"/><polyline class="h" points="165.098 174.128 165.098 129.702 323.396 129.702 323.396 174.128"/><polyline class="h" points="37.438 174.128 37.438 129.702 126.351 129.702 126.351 174.128"/><polyline class="h" points="362.142 174.128 362.142 129.702 451.055 129.702 451.055 174.128"/><line class="h" x1="193.672" y1="129.702" x2="193.672" y2="174.128"/><line class="h" x1="294.691" y1="129.702" x2="294.691" y2="174.128"/><line class="h" x1="244.911" y1="129.702" x2="244.911" y2="174.128"/><rect class="k" x="168.097" y="59.042" width="206.387" height="43.41"/><polyline class="f" points="374.484 100.057 374.484 102.452 372.089 102.452"/><line class="g" x1="369.717" y1="102.452" x2="171.678" y2="102.452"/><polyline class="f" points="170.493 102.452 168.097 102.452 168.097 100.057"/><line class="b" x1="168.097" y1="97.643" x2="168.097" y2="62.644"/><polyline class="f" points="168.097 61.437 168.097 59.042 170.493 59.042"/><line class="g" x1="172.864" y1="59.042" x2="370.903" y2="59.042"/><polyline class="f" points="372.089 59.042 374.484 59.042 374.484 61.437"/><line class="b" x1="374.484" y1="63.851" x2="374.484" y2="98.85"/><rect class="l" x="168.097" y="68.203" width="206.387" height="24.568"/><line class="f" x1="168.097" y1="68.203" x2="170.493" y2="68.203"/><line class="g" x1="172.864" y1="68.203" x2="370.903" y2="68.203"/><line class="f" x1="372.089" y1="68.203" x2="374.484" y2="68.203"/><line class="f" x1="168.097" y1="92.771" x2="170.493" y2="92.771"/><line class="g" x1="172.864" y1="92.771" x2="370.903" y2="92.771"/><line class="f" x1="372.089" y1="92.771" x2="374.484" y2="92.771"/><rect class="k" x="112.338" y="52.276" width="55.76" height="55.76"/><polyline class="f" points="168.097 105.641 168.097 108.036 165.702 108.036"/><line class="j" x1="163.385" y1="108.036" x2="115.891" y2="108.036"/><polyline class="f" points="114.733 108.036 112.338 108.036 112.338 105.641"/><line class="j" x1="112.338" y1="103.324" x2="112.338" y2="55.83"/><polyline class="f" points="112.338 54.671 112.338 52.276 114.733 52.276"/><line class="j" x1="117.05" y1="52.276" x2="164.544" y2="52.276"/><polyline class="f" points="165.702 52.276 168.097 52.276 168.097 54.671"/><line class="j" x1="168.097" y1="56.988" x2="168.097" y2="104.482"/><path class="n" d="m377.656,91.277l4.724,2.733h.045v-1.45h-1.3v-1.382h1.3v-1.217l1.271.221v1h1.7v1.378h-1.7v3.1h-1.161l-4.879-2.843v-1.54Z"/><path class="n" d="m385.511,86.64c0,1.7-1.361,2.766-3.983,2.766s-3.982-1.062-3.982-2.766,1.36-2.765,3.982-2.765,3.983,1.062,3.983,2.765Zm-1.284,0c0-.763-.795-1.338-2.7-1.338s-2.7.575-2.7,1.338.8,1.339,2.7,1.339,2.7-.579,2.7-1.339Z"/><path class="n" d="m385.19,73.982c.216.506.325,1.05.321,1.6.062,1.494-1.1,2.756-2.594,2.817-.113.005-.225.002-.338-.007-1.465.148-2.772-.92-2.92-2.385-.012-.123-.016-.247-.012-.37.002-.548.108-1.091.311-1.6l1.084.443c-.142.348-.213.72-.211,1.095,0,.819.708,1.427,1.748,1.427s1.748-.6,1.748-1.416c-.001-.397-.076-.791-.221-1.161l1.084-.443Z"/><path class="n" d="m382.049,68.316v.045l2.433.984v1.2l-2.433.995v.045l3.351.266v1.36l-5.641-.542v-1.454l3.009-1.25v-.044l-3.009-1.251v-1.449l5.641-.542v1.361l-3.351.276Z"/><path class="n" d="m105.825,93.723c-.665-1.073-.335-2.482.738-3.148.404-.251.877-.369,1.352-.338,1.344-.033,2.461,1.031,2.494,2.375.002.068,0,.135-.004.203.022,1.405-1.098,2.562-2.503,2.584-.114.002-.227-.004-.34-.017-2.447.067-4.597-1.614-5.122-4.005l1.017-.476c.346,1.239,1.197,2.276,2.346,2.855l.022-.033Zm1.737.264c.94,0,1.56-.464,1.56-1.172,0-.666-.54-1.206-1.206-1.206s-1.206.54-1.206,1.206c.038.521.369.975.852,1.172Z"/><path class="n" d="m110.405,86.64c0,1.7-1.361,2.766-3.983,2.766s-3.982-1.062-3.982-2.766,1.36-2.765,3.982-2.765,3.983,1.062,3.983,2.765Zm-1.283,0c0-.763-.8-1.338-2.7-1.338s-2.7.575-2.7,1.338.8,1.339,2.7,1.339,2.7-.579,2.7-1.339Z"/><path class="n" d="m110.084,73.982c.216.506.325,1.05.321,1.6.062,1.494-1.1,2.756-2.594,2.817-.113.005-.225.002-.338-.007-1.465.148-2.772-.92-2.92-2.385-.012-.123-.016-.247-.012-.37.002-.548.108-1.091.311-1.6l1.084.443c-.142.348-.213.72-.211,1.095,0,.819.708,1.427,1.748,1.427s1.748-.6,1.748-1.416c-.001-.397-.076-.791-.221-1.161l1.084-.443Z"/><path class="n" d="m106.943,68.316v.045l2.433.984v1.2l-2.433.995v.045l3.351.266v1.36l-5.641-.542v-1.454l3.009-1.25v-.044l-3.009-1.251v-1.449l5.641-.542v1.361l-3.351.276Z"/><path class="n" d="m189.442,75.193l12.187,17.3-5.812.469-10.828-15.285h-2.438v14.812h-5.062v-32.812h5.062v13.688h2.578l9.75-13.688h5.766l-11.203,15.516Z"/><path class="n" d="m204.439,80.536c0-7.781,4.359-12.421,11.016-12.421s11.015,4.64,11.015,12.421-4.359,12.422-11.015,12.422-11.016-4.64-11.016-12.422Zm4.969,0c0,5.25,2.39,8.344,6.047,8.344s6.046-3.094,6.046-8.344-2.39-8.343-6.046-8.343-6.047,3.093-6.047,8.343h0Z"/><path class="n" d="m248.686,101.864l-4.875.938v-10.079c-.914.148-1.839.227-2.765.235-7.266,0-9.891-5.531-9.891-12.422s2.625-12.421,9.891-12.421c.926.008,1.851.086,2.765.234v-10.078l4.875-.938v11.016c.915-.147,1.839-.226,2.766-.234,7.266,0,9.891,5.531,9.891,12.421s-2.625,12.422-9.891,12.422c-.927-.009-1.851-.087-2.766-.235v9.141Zm-4.781-29.437c-.691-.161-1.399-.239-2.109-.234-4.031,0-5.719,3.375-5.719,8.343s1.688,8.344,5.719,8.344c.71.002,1.417-.077,2.109-.234v-16.219Zm4.688,16.219c.691.16,1.399.239,2.109.234,4.031,0,5.719-3.375,5.719-8.344s-1.688-8.343-5.719-8.343c-.71-.005-1.418.073-2.109.234v16.219Z"/><path class="n" d="m286.23,81.661h-15.187c.328,4.641,2.766,7.219,7.078,7.219,2.086-.071,4.125-.633,5.953-1.64l1.594,3.7c-2.472,1.303-5.221,1.995-8.016,2.016-7.031,0-11.625-4.593-11.625-12.422,0-7.875,4.313-12.421,10.782-12.421,6.421,0,9.843,3.75,9.843,9.609-.01,1.324-.152,2.643-.422,3.939Zm-15-3.8h11.063c0-3.282-1.781-5.672-5.391-5.672-3.234.004-5.25,2.301-5.672,5.676v-.004Z"/><path class="n" d="m292.743,92.489v-23.906h4.875v15.938h.188l11.015-15.938h4.36v23.906h-4.875v-15.937h-.188l-11.018,15.937h-4.357Zm17.957-31.921c-2.533,4.272-8.049,5.681-12.321,3.148-1.297-.769-2.379-1.852-3.148-3.148l3.094-2.063c.821,1.833,2.632,3.023,4.641,3.047,2.002-.007,3.809-1.205,4.594-3.047l3.14,2.063Z"/><path class="n" d="m339.851,92.489h-4.875v-10.265h-9.422v10.265h-4.875v-23.906h4.875v9.563h9.422v-9.563h4.875v23.906Z"/><path class="n" d="m351,83.161c-2.813-1.125-4.406-3.562-4.406-6.984,0-4.641,3.14-7.594,8.3-7.594h9.422v23.906h-4.875v-8.671h-3.7l-5.156,8.671h-5.585l6-9.328Zm4.359-3.375h4.078v-7.125h-4.078c-1.926-.167-3.622,1.259-3.789,3.185-.012.141-.016.283-.011.425.007,2.109,1.46,3.515,3.804,3.515h-.004Z"/><path class="m" d="m112.147,102.233h43.8v5.9h-43.8v-5.9Zm35.459-10.074h2.086c3.076,0,5.569-2.493,5.569-5.569s-2.493-5.569-5.569-5.569h-2.086v11.138Zm-24.675-23.3c0-9.663,8.342-10.338,8.342-16.686h5.9c0,9.663-8.344,10.338-8.344,16.686h-5.898Zm26.761,6.258c6.336.059,11.424,5.243,11.364,11.579-.058,6.252-5.112,11.306-11.364,11.364h-25.03c-4.602-.013-8.33-3.74-8.344-8.342v-14.6h16.687c0-9.663,8.342-10.338,8.342-16.685h5.9c0,9.685-8.344,10.372-8.344,16.685h10.789Z"/><line class="f" x1="486.821" y1="80.747" x2="484.426" y2="80.747"/><line class="e" x1="481.979" y1="80.747" x2="365.761" y2="80.747"/><line class="f" x1="364.538" y1="80.747" x2="362.142" y2="80.747"/><line class="f" x1="181.974" y1="80.747" x2="179.579" y2="80.747"/><line class="i" x1="177.165" y1="80.747" x2="4.602" y2="80.747"/><line class="f" x1="3.395" y1="80.747" x2="1" y2="80.747"/><line class="f" x1="244.85" y1="98.98" x2="244.85" y2="101.375"/><line class="d" x1="244.85" y1="103.657" x2="244.85" y2="170.985"/><line class="f" x1="244.85" y1="172.126" x2="244.85" y2="174.521"/><line class="f" x1="244.85" y1="1.458" x2="244.85" y2="3.853"/><line class="c" x1="244.85" y1="6.331" x2="244.85" y2="64.568"/><line class="f" x1="244.85" y1="65.808" x2="244.85" y2="68.203"/></svg>