<svg xmlns="http://www.w3.org/2000/svg" viewBox="0 0 1141.33 481.45"><defs><style>.a{fill:#f49b24;}.b{fill:#54647d;}.c{fill:#3b465a;}</style></defs><path class="a" d="M114.64,16.72a6.8,6.8,0,0,0-2-.3,4.2,4.2,0,0,0-4.2,3h-.12l-.6-2.67h-1.62V32h2.52V22.78c.3-2.16,1.35-4.05,3.36-4.05a4.4,4.4,0,0,1,1.83.36Zm-15.8,8.34v3a5,5,0,0,1-4.14,2.16,2.35,2.35,0,0,1-2.61-2.55c0-1.74,1.23-2.64,3.09-2.64Zm0-1.92H95.3c-3.39,0-5.64,1.62-5.64,4.53,0,3.12,1.89,4.5,4.74,4.5A5.71,5.71,0,0,0,99,30.1h.12a2.06,2.06,0,0,0,2.13,2.07,3.93,3.93,0,0,0,1.5-.3V30.16h-.33a1,1,0,0,1-1.08-1.08V22c0-3.18-1-5.58-5.64-5.58a14.19,14.19,0,0,0-5.25,1l.69,1.86a11.4,11.4,0,0,1,4.2-.84c2.73,0,3.48,1.38,3.48,3.57ZM84,9.52l-2.52.6V28.06c0,2.94,1.11,4.26,3.66,4.26a6.55,6.55,0,0,0,2.49-.45L87.13,30a3.81,3.81,0,0,1-1.53.33c-1.29,0-1.62-.69-1.62-2.25ZM64.43,26.14c0,4.23,1.95,6.18,5.07,6.18a7.42,7.42,0,0,0,5-2.22h.12l.6,1.92h1.62V16.72H74.36V27.88a6,6,0,0,1-4.2,2.43c-2,0-3.21-1.32-3.21-4.23V16.72H64.43Zm-12.65,5,3.45.57c2,.33,2.91,1,2.91,2.22,0,1.5-1.41,2.67-4.2,2.67s-4.23-1.17-4.23-2.67a3.33,3.33,0,0,1,1.56-2.88ZM54,18.37c2.4,0,3.66,1.41,3.66,3.36S56.4,25.09,54,25.09s-3.66-1.41-3.66-3.36S51.6,18.37,54,18.37m7,.06.6-2.61L57,17a8.49,8.49,0,0,0-3-.54c-3.6,0-6.09,1.83-6.09,5.31a4.87,4.87,0,0,0,1.65,3.93,2.91,2.91,0,0,0-1.41,2.4,2.51,2.51,0,0,0,1.29,2.31,4.68,4.68,0,0,0-2.16,3.87c0,2.79,2.73,4.38,6.66,4.38s6.78-1.8,6.78-4.83c0-2.7-2.46-3.78-4.41-4.11L52.2,29c-1-.18-1.65-.33-1.65-1.26a1.45,1.45,0,0,1,.63-1.14A8.18,8.18,0,0,0,54,27c3.6,0,6.09-1.86,6.09-5.31A5.07,5.07,0,0,0,59,18.43Zm-22.54,0c2.49,0,3.75,1.74,3.75,4.14a5.31,5.31,0,0,1,0,.69H34.31c.15-2.85,1.65-4.83,4.17-4.83m5.82,6.66a12.89,12.89,0,0,0,.27-2.52c0-3.75-2-6.15-6.15-6.15-4.32,0-6.75,3.21-6.75,8,0,5,2.91,8,7.17,8A10.37,10.37,0,0,0,43.94,31l-.87-1.8a8.09,8.09,0,0,1-3.93,1.08c-3,0-4.59-1.89-4.83-5.22ZM25.75,17.23a3.72,3.72,0,0,1-4,3.93h-3.3V13.3h3.3a3.72,3.72,0,0,1,4,3.93m1,15.09,2.91-.3-5.49-8.85a5.78,5.78,0,0,0,4.35-5.94c0-4.11-2.94-6.21-6.57-6.21H15.85V32h2.64V23.44h2.85Z"/><path class="a" d="M497,18.64l-.6-1.92h-1.62V32h2.52V20.86a5,5,0,0,1,3.57-2.43c1.8,0,2.64,1.32,2.64,4.23V32H506V20.47a4.85,4.85,0,0,1,3.3-2c2,0,3,1.35,3,4V32h2.52V22.45c0-4-1.56-6-4.83-6a5.79,5.79,0,0,0-4.53,2.22,4,4,0,0,0-3.9-2.22,6.2,6.2,0,0,0-4.44,2.22Zm-19.18,7.5c0,4.23,2,6.18,5.07,6.18a7.42,7.42,0,0,0,5-2.22H488l.6,1.92h1.62V16.72H487.7V27.88a6,6,0,0,1-4.2,2.43c-2,0-3.21-1.32-3.21-4.23V16.72h-2.52Zm-7.23-13.86a1.67,1.67,0,1,0,1.65-1.68,1.66,1.66,0,0,0-1.65,1.68m.42,6.45V32h2.52V16.72h-5l-.6,2Zm-12.62-.3a6.27,6.27,0,0,1,3.84,1.38V28a5.18,5.18,0,0,1-3.84,2.28c-2.76,0-4.23-2.43-4.23-5.94,0-3.78,1.47-5.94,4.23-5.94m-.36-2c-4.56,0-6.45,3.39-6.45,8s2.1,8,6,8a6.05,6.05,0,0,0,4.8-2.22h.12l.6,1.92h1.62V9.52l-2.52.6V17.5a8.09,8.09,0,0,0-4.2-1.08m-15.65,2c2.49,0,3.75,1.74,3.75,4.14a5.31,5.31,0,0,1,0,.69h-7.89c.15-2.85,1.65-4.83,4.17-4.83m5.82,6.66a12.89,12.89,0,0,0,.27-2.52c0-3.75-2-6.15-6.15-6.15-4.32,0-6.75,3.21-6.75,8,0,5,2.91,8,7.17,8a10.37,10.37,0,0,0,5.1-1.29l-.87-1.8A8.09,8.09,0,0,1,443,30.31c-3,0-4.59-1.89-4.83-5.22ZM421.53,26l-4.71-15h-3.75l-1.95,21h2.64l1.62-17.76h.12l4.83,15h2.55l4.83-15h.12L429.45,32h2.64l-1.95-21h-3.75l-4.71,15Z"/><path class="a" d="M930.51,18.43a6.27,6.27,0,0,1,3.84,1.38V28a5.18,5.18,0,0,1-3.84,2.28c-2.76,0-4.23-2.43-4.23-5.94,0-3.78,1.47-5.94,4.23-5.94m-.36-2c-4.56,0-6.45,3.39-6.45,8s2.1,8,6,8a6.05,6.05,0,0,0,4.8-2.22h.12l.6,1.92h1.62V9.52l-2.52.6V17.5a8.09,8.09,0,0,0-4.2-1.08M918.4,9.52l-2.52.6V28.06c0,2.94,1.11,4.26,3.67,4.26a6.58,6.58,0,0,0,2.49-.45L921.56,30a3.82,3.82,0,0,1-1.54.33c-1.29,0-1.62-.69-1.62-2.25ZM905,18.43c2.73,0,4.32,2.19,4.32,5.94s-1.59,5.94-4.32,5.94-4.32-2.19-4.32-5.94,1.59-5.94,4.32-5.94m0,13.89c4.26,0,6.9-3,6.9-7.95s-2.64-7.95-6.9-7.95-6.9,3-6.9,8,2.64,8,6.9,8M884.11,20.14V13.3h3c2.7,0,4.14,1.11,4.14,3.42,0,2.13-1.65,3.42-4,3.42Zm3.12,2.16c3.09,0,4.77,1.2,4.77,3.72s-1.8,3.72-4.74,3.72h-3.15V22.3Zm3.21-1.44a4.66,4.66,0,0,0,3.57-4.8c0-3.66-2.82-5-6.57-5h-6V32h6c4.11,0,7.32-1.53,7.32-5.82,0-2.91-1.68-4.59-4.32-5.22Zm-16.8-8.58a1.67,1.67,0,1,0,1.65-1.68,1.66,1.66,0,0,0-1.65,1.68m.42,6.45V32h2.52V16.72h-5l-.6,2Zm-23.88-.09-.6-1.92H848V32h2.52V20.86a5,5,0,0,1,3.57-2.43c1.8,0,2.64,1.32,2.64,4.23V32h2.52V20.47a4.85,4.85,0,0,1,3.3-2c2,0,3,1.35,3,4V32H868V22.45c0-4-1.56-6-4.83-6a5.79,5.79,0,0,0-4.53,2.22,4,4,0,0,0-3.9-2.22,6.2,6.2,0,0,0-4.44,2.22ZM838,18.43c2.49,0,3.75,1.74,3.75,4.14a5.31,5.31,0,0,1,0,.69h-7.89c.15-2.85,1.65-4.83,4.17-4.83m5.82,6.66a12.89,12.89,0,0,0,.27-2.52c0-3.75-2-6.15-6.15-6.15-4.32,0-6.75,3.21-6.75,8,0,5,2.91,8,7.17,8a10.37,10.37,0,0,0,5.1-1.29l-.87-1.8a8.09,8.09,0,0,1-3.93,1.08c-3,0-4.59-1.89-4.83-5.22Zm-29.5,5.37a11,11,0,0,0,6.48,1.86c4.71,0,7.17-2.52,7.17-6.06s-2.88-4.92-6.18-6.21c-1.92-.75-4.23-2.1-4.23-4.17,0-1.74,1.26-2.88,3.9-2.88a8.17,8.17,0,0,1,4.62,1.38l1.23-2a11,11,0,0,0-5.85-1.62c-4.05,0-6.66,1.74-6.66,5.34s3.06,5.1,5.76,6.15c2.4.93,4.65,2.13,4.65,4.38S823.38,30,820.8,30a7.8,7.8,0,0,1-5.13-1.74Z"/><path class="b" d="M318.26,475.07v3.52h18.8l.8-3.84H323.54v-.16l14.32-20.48v-3.52h-18.8v3.84h13.52l0,.16Zm-25.86-12.8h-.16l-6-11.68h-5l9,16.32v11.68h4.32V466.91l9-16.32h-5Zm-36.9-1.4L250,450.59H244.9l7.84,13.48-8.64,14.52h5.12l6.28-11.12h.16L262.14,479l4.92-.4-8.64-14.52,7.84-13.48h-5.12l-5.48,10.28Zm-42.26-4.12,4.48,21.84h5.2l7-28h-4.84l-4.76,22h-.16l-4.4-22h-5.24l-4.4,22H206l-4.76-22H196.4l7,28h5.2l4.44-21.84ZM171.5,472.63h-.16l-6.4-22h-4.72l8.72,28h5l8.72-28h-4.72Zm-28.22-22H139v19.2c0,3.16-2.16,5.36-5.68,5.36s-5.68-2.2-5.68-5.36v-19.2h-4.32V470c0,5.32,4,9,10,9s10-3.68,10-9Zm-38.34,3.84.8-3.84h-21v3.84h8.32v24.16h4.32V454.43Zm-46.1,20.72A10.42,10.42,0,0,1,52.28,473L50,476.51A15.28,15.28,0,0,0,58.84,479c6.28,0,9.76-2.92,9.76-7.88,0-5.2-3.88-7.12-8.28-8.84-2.44-1-5.2-2.44-5.2-4.72s1.56-3.52,4.6-3.52a10.7,10.7,0,0,1,6,1.72l2-3.4a15.86,15.86,0,0,0-8-2.16c-5.68,0-9.08,2.8-9.08,7.6,0,4.64,4.12,6.68,7.72,8.08,3.08,1.2,5.76,2.72,5.76,5.48,0,2.6-2.16,3.8-5.28,3.8M23,454.43a4.24,4.24,0,0,1,4.48,4.48,4.18,4.18,0,0,1-4.48,4.4H19v-8.88Zm.2-3.84H14.66v28H19V467.15h2.48L28.78,479l4.68-.4-7.32-11.84c3.4-.92,5.8-3.52,5.8-7.84,0-5.48-3.92-8.32-8.76-8.32"/><path class="b" d="M332.18,414.59c0,3.4-.68,6.4-2.2,8.32l-3.84-5L323,420.23l3.64,4.76a7,7,0,0,1-1.6.16c-5.12,0-7.12-4.64-7.12-10.56s2-10.56,7.12-10.56,7.12,4.64,7.12,10.56m4.48,0c0-8.08-3.28-14.4-11.6-14.4s-11.6,6.32-11.6,14.4,3.28,14.4,11.6,14.4a13.17,13.17,0,0,0,4.16-.64l4.24,5.52,3.08-2.4-3.92-5.12c2.8-2.56,4-6.72,4-11.76m-54.45-10.16c2.92,0,4.88,1.92,4.88,5.24s-2,5.24-4.88,5.24h-4.36V404.43Zm.08,14.32c5.32,0,9.32-3.08,9.32-9.08s-4-9.08-9.32-9.08h-8.76v28h4.32v-9.84Zm-36.89-4.16c0,5.92-2,10.56-7.12,10.56s-7.12-4.64-7.12-10.56,2-10.56,7.12-10.56,7.12,4.64,7.12,10.56m4.48,0c0-8.08-3.28-14.4-11.6-14.4s-11.6,6.32-11.6,14.4S230,429,238.28,429s11.6-6.32,11.6-14.4m-63.22-14H182v28h4.32v-20.8h.16l11.88,20.8H203v-28H198.7v20.84h-.16ZM152,407.87h.16l1.92,20.72h4.32l-2.6-28h-5.32l-6.2,18.4h-.12l-6.2-18.4h-5.32l-2.6,28h4.32l1.92-20.72h.16l5.68,17h4.2Zm-43.61,20.72.8-3.84H96.48V400.59H92.16v28Zm-38.69-28H64.75l-8.32,11.68h-2.2V400.59H49.91v28h4.32V416h2.08l9.24,13,5-.4-10.4-14.76ZM17.42,425.15a9.35,9.35,0,0,1-4.2-1.08l-1.56,3.44A12.88,12.88,0,0,0,17.94,429c4.48,0,7.52-2.92,7.52-8v-20.4H14.86l-.8,3.84h7.08V421c0,2.64-1.52,4.16-3.72,4.16"/><path class="b" d="M336.66,378.59v-3.84h-4.6V354.43h4l.8-3.84H323.14v3.84h4.6v20.32h-4.6v3.84Zm-49.9-28h-4.32v28h4.32V366h11.68v12.56h4.32v-28h-4.32v11.6H286.76ZM253.63,354a12.3,12.3,0,0,1,5.88,1.44l1.72-3.48a15.17,15.17,0,0,0-7.6-1.8c-8.32,0-11.76,6.32-11.76,14.4s3.44,14.4,11.76,14.4a13,13,0,0,0,8.24-2.56V363.51h-9v3.76h4.92v7.12a9.82,9.82,0,0,1-4,.76c-5.28,0-7.44-4.64-7.44-10.56S248.51,354,253.63,354m-30.94,12.84V363H211.77v-8.6h10.92l.8-3.84h-16v28h4.32V366.87Zm-36,11.72v-3.84H175.16V366h9.52v-3.84h-9.52v-7.76h10.72l.8-3.84H170.84v28ZM139,354.43c4.68,0,7,4.44,7,10.16s-2.28,10.16-7,10.16h-4.6V354.43Zm0,24.16c7.92,0,11.44-5.84,11.44-14s-3.52-14-11.44-14H130.1v28ZM102.53,354a12.26,12.26,0,0,1,5.64,1.36l1.68-3.4a14.45,14.45,0,0,0-7.32-1.8c-8.32,0-11.6,6.32-11.6,14.4s3.28,14.4,11.6,14.4a14.3,14.3,0,0,0,7.8-2.16l-1.68-3.4a12.11,12.11,0,0,1-6.12,1.72c-5.12,0-7.12-4.64-7.12-10.56s2-10.56,7.12-10.56m-41,.4c3.08,0,4.72,1.32,4.72,3.88,0,2.36-1.88,4-4.56,4H58v-7.92Zm.16,11.6c3.6,0,5.56,1.44,5.56,4.28,0,2.68-2.08,4.44-5.52,4.44H58V366ZM66,363.71a6.21,6.21,0,0,0,4.76-6.4c0-4.88-3.76-6.72-8.76-6.72H53.63v28H62c5.48,0,9.76-2,9.76-7.76,0-3.88-2.24-6.12-5.76-7Zm-38.85,4.64h-7.6l3.72-12h.2ZM16.46,378.59l2-6.52h9.84l2,6.52h4.6l-9.36-28H21.22l-9.36,28Z"/><path class="b" d="M714.41,474.27v4.32h19.2l.8-4.64H720.49v-.16l13.92-18.88v-4.32h-19.2v4.64h13.12v.16Zm-31.22-23.68h-5.84l8.8,16v12h5.12v-12l8.8-16h-5.84l-5.44,10.68h-.12ZM657.89,479l5.72-.4-8.44-14.52,7.64-13.48h-5.92L652,460.07h-.16L647,450.59h-5.92l7.64,13.48-8.44,14.52h5.92l5.72-10.32H652Zm-45.54-28.4h-5.64l-4.12,20h-.12l-4.28-20h-5.64l6.88,28h5.8l4.24-20.84h.12l4.24,20.84h5.8l6.88-28h-5.64l-4.28,20h-.12Zm-50.46,0h-5.52l8.52,28h5.8l8.52-28h-5.52l-5.84,20.48h-.16Zm-27.18,0v19.12c0,2.68-2,4.64-5.08,4.64s-5.08-2-5.08-4.64V450.59h-5.12v19.12c0,5.48,4.2,9.28,10.2,9.28s10.2-3.8,10.2-9.28V450.59Zm-33.22,4.64.8-4.64h-21.4v4.64H489v23.36h5.16V455.23Zm-41.62,15.84c0,2.08-2,3.28-4.68,3.28a10.41,10.41,0,0,1-6.28-2l-2.76,4.16a16,16,0,0,0,9,2.48c6.28,0,10-3,10-8,0-5.2-3.92-7.36-8.32-9.08-2.32-.92-4.76-2.44-4.76-4.48,0-1.72,1.48-2.6,4-2.6a10.73,10.73,0,0,1,5.76,1.6l2.44-4.08a16.64,16.64,0,0,0-8.2-2.16c-5.68,0-9.28,2.68-9.28,7.48,0,4.64,4.16,7.16,7.76,8.56,3,1.16,5.32,2.32,5.32,4.84M423.21,459a3.52,3.52,0,0,1-3.68,3.72h-3.6v-7.44h3.6a3.52,3.52,0,0,1,3.68,3.72m1.32,20,5.48-.4-6.84-11.84a7.71,7.71,0,0,0,5.32-7.8c0-5.48-3.92-8.36-8.76-8.36h-8.92v28h5.12V467.31h1.84Z"/><path class="b" d="M727.93,414.59a13.12,13.12,0,0,1-1.84,7.36l-3-4.48-3.8,2.76,3.2,4a4.56,4.56,0,0,1-1,.08c-4.56,0-6.52-4.28-6.52-9.76s2-9.76,6.52-9.76,6.52,4.28,6.52,9.76m5.28,0c0-8.08-3.48-14.4-11.8-14.4s-11.8,6.32-11.8,14.4,3.48,14.4,11.8,14.4a14.4,14.4,0,0,0,4.12-.6l3.92,5.48,3.76-2.8-4-4.92c2.72-2.6,4-6.76,4-11.56m-54.46-9.36c2.44,0,4.08,1.64,4.08,4.44s-1.64,4.44-4.08,4.44h-4v-8.88Zm.08,13.52c5.32,0,9.32-3.08,9.32-9.08s-4-9.08-9.32-9.08h-9.16v28h5.12v-9.84Zm-37.69-4.16c0,5.48-2,9.76-6.52,9.76s-6.52-4.28-6.52-9.76,2-9.76,6.52-9.76,6.52,4.28,6.52,9.76m5.28,0c0-8.08-3.48-14.4-11.8-14.4s-11.8,6.32-11.8,14.4,3.48,14.4,11.8,14.4,11.8-6.32,11.8-14.4m-52,4.92h-.12l-10.84-18.92h-5.32v28h5.12V409.71h.12l10.84,18.88h5.32v-28h-5.12Zm-44.65,9.08h5.12l-2.6-28H546.6l-6,18h-.12l-6-18h-5.72l-2.6,28h5.12L533,410.31h.12l4.84,14.6h5.24l4.8-14.6h.12Zm-44.89,0,.8-4.64H493.43V400.59h-5.12v28Zm-43.61.4,5.76-.4-9.6-14.76,8.76-13.24H460.5l-7.24,11.2h-2.08v-11.2h-5.12v28h5.12V416.43h2Zm-44.41-8a3.19,3.19,0,0,1-3.2,3.32,9.07,9.07,0,0,1-4-1l-1.92,4.16a13.66,13.66,0,0,0,6.48,1.48c4.48,0,7.72-2.92,7.72-8v-20.4H411l-.8,4.64h6.68Z"/><path class="b" d="M733.21,378.59V374h-4.4V355.23h3.8l.8-4.64H719.29v4.64h4.4V374h-4.4v4.64Zm-49.5-28h-5.12v28h5.12V366.43h10.48v12.16h5.12v-28h-5.12v11.2H683.71Zm-30.13,17v6.28a11.92,11.92,0,0,1-3.44.48c-4.72,0-6.84-4.28-6.84-9.76s2.12-9.76,6.68-9.76a12.3,12.3,0,0,1,5.72,1.36l2.08-4.2a15.9,15.9,0,0,0-7.8-1.8c-8.32,0-12,6.32-12,14.4s3.64,14.4,12,14.4a13.51,13.51,0,0,0,8.44-2.56V363.11h-9.36v4.48Zm-34.34-.32v-4.64H608.72v-7.4h10.52l.8-4.64H603.6v28h5.12V367.27Zm-36,11.32V374H572.11v-7.52h9.12v-4.64h-9.12v-6.56h10.32l.8-4.64H567v28Zm-47.66-23.36c4.16,0,6.16,4.08,6.16,9.36s-2,9.36-6.16,9.36h-4.2V355.23Zm0,23.36c7.92,0,11.44-5.84,11.44-14s-3.52-14-11.44-14h-9.32v28Zm-30.77-5.84a11.34,11.34,0,0,1-5.72,1.6c-4.56,0-6.72-4.28-6.72-9.76s2.16-9.76,6.72-9.76a11.74,11.74,0,0,1,5.28,1.28l2-4.12a14.45,14.45,0,0,0-7.32-1.8c-8.32,0-12,6.32-12,14.4s3.68,14.4,12,14.4a14.3,14.3,0,0,0,7.8-2.16Zm-46.26,5.84c5.48,0,9.76-2,9.76-7.76,0-3.88-2.24-6.12-5.76-7v-.16a6.21,6.21,0,0,0,4.76-6.4c0-4.88-3.76-6.72-8.76-6.72h-8.76v28Zm4.48-8.32c0,2.2-1.76,3.68-4.72,3.68h-3.4v-7.56h3.4c3,0,4.72,1.32,4.72,3.88m-1-11.68c0,2-1.32,3.4-3.76,3.4H454.9v-6.76h3.36c2.44,0,3.76,1.32,3.76,3.36m-42.41-.8h.16l3,10.16h-6.16Zm6.4,20.8h5.4l-9.36-28h-4.68l-9.36,28h5.4l1.84-6.12h8.88Z"/><path class="b" d="M1112,473.47v5.12h19.6l.8-5.44h-13.52V473l13.52-17.28v-5.12h-19.6V456h12.72v.16Zm-25.5-12.64h-.12l-4.8-10.24h-6.64l8.6,16.56v11.44h5.92V467.15l8.6-16.56h-6.64Zm-36.86,7.84h.12L1055,479l6.52-.4-8.24-14.52,7.44-13.48H1054l-4.32,9.08h-.12l-4.28-9.08h-6.72l7.44,13.48-8.24,14.52h6.72Zm-38.3,9.92h6.32l6.84-28H1018l-3.72,17.72h-.12l-3.68-17.72h-6.44l-3.68,17.72h-.12l-3.72-17.72H990.1l6.84,28h6.32l4-19h.12Zm-51.06-28h-6.32l8.52,28h6.2l8.52-28h-6.32l-5.24,18.32h-.12Zm-28.38,18.8c0,2.72-2,4.16-4.48,4.16s-4.48-1.44-4.48-4.16v-18.8H917v19c0,5.56,4.4,9.4,10.4,9.4s10.4-3.84,10.4-9.4v-19h-5.92ZM899.44,456l.8-5.44h-21.8V456h7.92v22.56h5.92V456Zm-47.22,10.48c2.8,1.08,4.8,2.08,4.8,4.2,0,1.68-1.84,2.84-4.08,2.84a10,10,0,0,1-6-1.84l-3.24,4.8a16.63,16.63,0,0,0,9.24,2.48c6.28,0,10.16-3,10.16-8,0-5.2-4-7.64-8.44-9.36-2.2-.88-4.24-2-4.24-3.84,0-1.32,1.32-2.16,3.4-2.16a10.7,10.7,0,0,1,5.56,1.48l2.84-4.76a17.43,17.43,0,0,0-8.4-2.16c-5.8,0-9.48,2.6-9.48,7.6s4.28,7.32,7.88,8.72m-37.94-4.12V456h3a3.11,3.11,0,0,1,3.08,3.2,3.07,3.07,0,0,1-3.08,3.16Zm7.4,16.6,6.28-.4-6.4-11.72a8,8,0,0,0,4.88-7.76c0-5.48-4-8.52-8.88-8.52h-9.2v28h5.92v-11h1.4Z"/><path class="b" d="M1125.08,414.59a13.12,13.12,0,0,1-1.24,6.12l-2.2-3.24-4.32,3.32,2.16,2.76h-.32c-4,0-5.92-3.72-5.92-9s1.88-9,5.92-9,5.92,3.72,5.92,9m6.08,0c0-8.32-3.48-14.4-12-14.4s-12,6.08-12,14.4,3.48,14.4,12,14.4a15.38,15.38,0,0,0,4-.52l3.68,5.4,4.36-3.36-3.64-4.68c2.48-2.56,3.6-6.56,3.6-11.24m-58-.88V406h3.36c2,0,3.48,1.44,3.48,3.84s-1.52,3.84-3.48,3.84Zm3.64,5.44c5.32,0,9.32-3.28,9.32-9.28s-4-9.28-9.32-9.28h-9.56v28h5.92v-9.44Zm-32.41-4.56c0-8.32-3.48-14.4-12-14.4s-12,6.08-12,14.4,3.48,14.4,12,14.4,12-6.08,12-14.4m-6.08,0c0,5.24-1.88,9-5.92,9s-5.92-3.72-5.92-9,1.88-9,5.92-9,5.92,3.72,5.92,9m-46.69,2.88h-.12l-9.92-16.88h-5.84v28h5.92v-16.8h.12l9.92,16.8h5.84v-28h-5.92Zm-46.26-4.8h.12L947,428.59h5.92l-2.6-28h-6.12L938.35,417h-.12l-5.8-16.44h-6.12l-2.6,28h5.92l1.48-15.92h.12l4.32,12.24H941Zm-42.49,15.92.8-5.44H891.78V400.59h-5.92v28Zm-44.41.4,6.56-.4L856,414l8.16-13.44h-6.48l-6.28,10.8h-2.28v-10.8h-5.52v28h5.52V416.83h2.2Zm-46.85-5.44a9.2,9.2,0,0,1-4-.92l-2.24,4.88A14.48,14.48,0,0,0,812,429c4.48,0,7.92-2.92,7.92-8v-20.4h-11.4l-.8,5.44h6.68v15a2.59,2.59,0,0,1-2.84,2.56"/><path class="b" d="M1131.16,378.59v-5.44H1127V356h3.6l.8-5.44h-14.52V356h4.2v17.12h-4.2v5.44Zm-49.09-28h-5.92v28h5.92V366.83h9.28v11.76h5.91v-28h-5.91v10.8h-9.28Zm-31.34,17.48v5.08a12,12,0,0,1-2.92.4c-3.72,0-6.08-3.52-6.08-9s2.56-9,6.32-9a12.29,12.29,0,0,1,5.44,1.44l2.4-4.88a17.93,17.93,0,0,0-8.2-2c-8.6,0-12.12,6.08-12.12,14.4s3.32,14.4,11.92,14.4a14.8,14.8,0,0,0,8.88-2.56V362.71h-9.76v5.36Zm-33.54-.4v-5.44h-10.12V356h10.12l.8-5.44h-16.84v28h5.92V367.67Zm-36,10.92v-5.44H970.06v-6.32h9.12v-5.44h-9.12V356h10.32l.8-5.44H964.54v28Zm-51.86-5.44V356h3.8c3.68,0,5.76,3.76,5.76,8.56s-2.08,8.56-5.76,8.56Zm3.8,5.44c7.92,0,11.84-5.84,11.84-14s-3.92-14-11.84-14H923.8v28ZM904.35,352a17.16,17.16,0,0,0-7.8-1.8c-8.6,0-11.92,6.08-11.92,14.4S888,379,896.55,379a16.29,16.29,0,0,0,8.28-2.16l-2.48-4.8a11,11,0,0,1-5.48,1.52c-3.72,0-6.08-3.52-6.08-9s2.36-9,6.12-9a11.15,11.15,0,0,1,5,1.24Zm-47.86,26.6c5.48,0,9.76-2,9.76-7.76,0-3.88-2.24-6.12-5.76-7v-.16a6.21,6.21,0,0,0,4.76-6.4c0-4.88-3.76-6.72-8.76-6.72h-9.16v28Zm3.68-8.68c0,1.92-1.4,3.24-3.92,3.24h-3.4v-6.48h3.36c2.56,0,4,1.32,4,3.24M852.85,356h3.2a2.85,2.85,0,1,1,.16,5.68h-3.36ZM820,367.55h-5.08l2.44-9.24h.16Zm3.16,11h6.2l-9-28h-5.88l-9,28h6.2l1.64-5.72h8.12Z"/><path class="c" d="M327.1,251.61c-2.56,0-4.44-1.92-4.44-4.88s1.88-4.88,4.44-4.88h4v9.76Zm-10,14.4H322l6-10.56h3.16V266h4.32V238H326.9c-4.84,0-8.72,3.12-8.72,8.72,0,4.24,2.2,7.08,5.4,8.2Zm-34.33-14c0-5.72,2.36-10.56,7-10.56s7,4.84,7,10.56-2.32,10.56-7,10.56-7-4.84-7-10.56m18.52,0c0-8.16-3.56-14.4-11.48-14.4-7.16,0-10.8,5.08-11.44,12.08h-5V238h-4.32v28h4.32V253.53h4.92c.4,7.4,4,12.88,11.48,12.88,7.92,0,11.48-6.24,11.48-14.4m-62.76-10.56c4.64,0,7,3.64,7.48,8.56h-10.2v3.84H246c-.44,5-2.8,8.72-7.48,8.72a11,11,0,0,1-5.8-1.72l-1.68,3.4a14.45,14.45,0,0,0,7.76,2.16c7.92,0,11.88-6.24,11.88-14.4s-3.88-14.4-11.8-14.4a15,15,0,0,0-7.48,1.8l1.68,3.4a11.4,11.4,0,0,1,5.44-1.36m-33.05,11.28c3.88,0,5.48,1.88,5.48,4.72,0,2.68-1.64,4.72-5.44,4.72h-4.32v-9.44ZM196.84,238v28h8.88c5.84,0,9.68-2.84,9.68-8.56s-3.88-8.56-9.68-8.56h-4.56V238ZM160,252.73c3.88,0,5.48,1.88,5.48,4.72,0,2.68-1.64,4.72-5.44,4.72h-3.68v-9.44ZM172.92,266h4.32V238h-4.32ZM152,238v28h8.24c5.84,0,9.68-2.84,9.68-8.56s-3.88-8.56-9.68-8.56h-3.92V238Zm-27.17,14.72c3.88,0,5.48,1.88,5.48,4.72,0,2.68-1.64,4.72-5.44,4.72h-4.32v-9.44ZM120.59,238H110.07l-.8,3.84h7V266h8.88c5.84,0,9.68-2.84,9.68-8.56s-3.88-8.56-9.68-8.56h-4.56ZM92.34,266v5.88h3.52l.8-9.72h-4V238H88.34v24.16H80.22V238H75.9v24.16H67.78V238H63.46v28ZM19,238H14.66v28h29.2V238H39.54v24.16H31.42V238H27.1v24.16H19Z"/><path class="c" d="M317,197.53c0,5.68,2.72,7.8,8.64,7.8a15.55,15.55,0,0,0,5.52-1.2V216h4.32V188h-4.32v12.32a12.59,12.59,0,0,1-5.12,1.16c-2.92,0-4.72-1.16-4.72-4.56V188H317ZM291,216v5.88h3.52l.8-9.72h-4V188H287v24.16H275.56V188h-4.32v28Zm-53.38-17.72L232.18,188h-5.12l7.84,13.48L226.26,216h5.12l6.28-11.12h.16l6.48,11.52,4.92-.4-8.64-14.52L248.42,188H243.3l-5.48,10.28Zm-41.61,11.32a8.79,8.79,0,0,1-2.68-.32v-15a8.79,8.79,0,0,1,2.68-.32c4,0,5.76,3.44,5.76,7.8s-1.8,7.8-5.76,7.8m-9.6,0c-4,0-5.76-3.44-5.76-7.8s1.8-7.8,5.76-7.8a8.79,8.79,0,0,1,2.68.32v15a8.79,8.79,0,0,1-2.68.32m6.92,7.2V213a13.14,13.14,0,0,0,3.28.4c6.64,0,9.6-5,9.6-11.52s-3-11.6-9.6-11.6a13.14,13.14,0,0,0-3.28.4v-3.84h-4.24v3.84a13.38,13.38,0,0,0-3.28-.4c-6.64,0-9.6,5-9.6,11.6s3,11.52,9.6,11.52a13.38,13.38,0,0,0,3.28-.4v3.84Zm-56.3-1.8a7,7,0,0,0,4.4,1.4c3.84,0,5.84-3.12,7.08-6.4l8.28-22H152l-5.48,15.44h-.16l-7-15.44h-5l9.32,19.84h1.2l-.52,1.32c-.88,2.24-1.68,3.4-3,3.4a3.64,3.64,0,0,1-2.4-.88Zm-22.3-23.16.8-3.84h-21v3.84h8.32V216h4.32V191.85Zm-48.41-.4A12.26,12.26,0,0,1,72,192.81l1.68-3.4a14.45,14.45,0,0,0-7.32-1.8c-8.32,0-11.6,6.32-11.6,14.4s3.28,14.4,11.6,14.4a14.3,14.3,0,0,0,7.8-2.16l-1.68-3.4a12.11,12.11,0,0,1-6.12,1.72c-5.12,0-7.12-4.64-7.12-10.56s2-10.56,7.12-10.56m-43,.4c2.92,0,4.88,1.92,4.88,5.24s-2,5.24-4.88,5.24H19V191.85Zm.08,14.32c5.32,0,9.32-3.08,9.32-9.08s-4-9.08-9.32-9.08H14.66v28H19v-9.84Z"/><path class="c" d="M319.58,166V141.85h11.56V166h4.32V138h-20.2v28Zm-29.65-14c0,5.92-2,10.56-7.12,10.56s-7.12-4.64-7.12-10.56,2-10.56,7.12-10.56,7.12,4.64,7.12,10.56m4.48,0c0-8.08-3.28-14.4-11.6-14.4s-11.6,6.32-11.6,14.4,3.28,14.4,11.6,14.4,11.6-6.32,11.6-14.4m-60-14h-4.32v28h4.32V153.45h11.68V166h4.32V138h-4.32v11.6H234.37Zm-31.57,7.28H203L204.88,166h4.32l-2.6-28h-5.32l-6.2,18.4H195l-6.2-18.4h-5.32l-2.6,28h4.32l1.92-20.72h.16l5.68,17h4.2ZM144.16,138c0,17.24-1.16,24.28-4.36,24.28a2.53,2.53,0,0,1-1.2-.28l-.8,3.64a6,6,0,0,0,2.64.56c6.08,0,8-7.84,8-24.36h7.2V166H160V138Zm-22.45,0h-4.92l-8.32,11.68h-2.2V138H102v28h4.32V153.37h2.08l9.24,13,5-.4-10.4-14.76Zm-48.45-7a4.38,4.38,0,0,1-4.16,2.76,4.52,4.52,0,0,1-4.16-2.76l-2.84,2a7.71,7.71,0,0,0,7,3.76,7.64,7.64,0,0,0,7-3.76Zm2.16,14.84h.16V166H79.9V138H76.1L62.78,158.13h-.16V138H58.3v28h3.8Zm-43.64,0h.16V166h4.32V138h-3.8L19.14,158.13H19V138H14.66v28h3.8Z"/><path class="c" d="M326.62,112.57a12.34,12.34,0,0,1-6.4-2l-2,3.4a15.31,15.31,0,0,0,8.36,2.4c5.76,0,10.24-2.6,10.24-8.32,0-3.88-2.24-6-5.76-6.8v-.12a6.4,6.4,0,0,0,4.76-6.56c0-4.88-4.16-7-9.16-7a16.35,16.35,0,0,0-7.8,1.8l1.72,3.4a12.86,12.86,0,0,1,5.88-1.36c3.08,0,4.92,1.44,4.92,4,0,2.36-1.84,4.24-4.72,4.24h-3.44v3.68h3.48c3.64,0,5.68,1.52,5.68,4.36,0,3-2.36,4.84-5.8,4.84M301.84,88h-5.16l-6.48,11.6h-1.8V88h-4.32v11.6h-1.8L275.72,88h-5.08l8,13.48L269.8,116H275l7.32-12.56h1.76V116h4.32V103.45h1.72l7.52,13,5-.4-8.88-14.52ZM247,83.85a2.36,2.36,0,0,0,2.44,2.36,2.39,2.39,0,0,0,2.48-2.36,2.42,2.42,0,0,0-2.48-2.4,2.39,2.39,0,0,0-2.44,2.4m-8.52,0a2.36,2.36,0,0,0,2.44,2.36,2.39,2.39,0,0,0,2.48-2.36,2.42,2.42,0,0,0-2.48-2.4,2.39,2.39,0,0,0-2.44,2.4M253,116v-3.84H241.51v-8.72H251V99.61h-9.52V91.85h10.72L253,88H237.19v28Zm-35.82,0v-3.84H205.69v-8.72h9.52V99.61h-9.52V91.85h10.72l.8-3.84H201.37v28Zm-57.33,0h19v5.88h3.52l.8-9.72h-4V88H162.84v3.12c0,9.2-1,17-4.08,21h-3.2l.8,9.72h3.52Zm3.72-3.84c2.08-4,3.44-10.88,3.44-17.84V91.85h7.84v20.32ZM141.78,91.85l.8-3.84H127v28h4.32V91.85Zm-44.57,0c3.08,0,4.72,1.32,4.72,3.88,0,2.36-1.88,4-4.56,4H93.61V91.85Zm.16,11.6c3.6,0,5.56,1.44,5.56,4.28,0,2.68-2.08,4.44-5.52,4.44h-3.8v-8.72Zm4.28-2.32a6.21,6.21,0,0,0,4.76-6.4c0-4.88-3.76-6.72-8.76-6.72H89.29v28h8.36c5.48,0,9.76-2,9.76-7.76,0-3.88-2.24-6.12-5.76-7ZM60.75,103c3.88,0,5.48,1.76,5.48,4.6,0,2.68-1.64,4.6-5.44,4.6H57.15V103ZM68,91.85l.8-3.84h-16v28H61c5.84,0,9.68-2.72,9.68-8.44S66.83,99.13,61,99.13H57.15V91.85ZM27.14,105.77h-7.6l3.72-12h.2ZM16.46,116l2-6.52h9.84l2,6.52h4.6L25.5,88H21.22l-9.36,28Z"/><path class="c" d="M719.61,246.73a3.82,3.82,0,0,1,3.68-4.08h3.6v8.16h-3.6a3.82,3.82,0,0,1-3.68-4.08m7.28,8.72V266H732V238h-8.92c-4.84,0-8.76,3.24-8.76,8.72,0,4.16,2.24,7,5.4,8.16L713.21,266h5.84l6.08-10.56ZM679.52,252c0-5.28,2.36-9.76,6.52-9.76s6.48,4.48,6.48,9.76-2.32,9.76-6.48,9.76-6.52-4.48-6.52-9.76m6.52,14.4c7.92,0,11.76-6.24,11.76-14.4S694,237.61,686,237.61c-7,0-10.92,4.88-11.68,11.68h-4V238H665.2v28h5.12V253.93h4c.52,7.2,4.44,12.48,11.76,12.48m-58.89-2.16a15.14,15.14,0,0,0,8,2.16c7.92,0,12.08-6.24,12.08-14.4s-4.08-14.4-12-14.4a15.75,15.75,0,0,0-7.68,1.8l2,4.12a11.62,11.62,0,0,1,5.28-1.28c4,0,6.24,3.16,6.8,7.52h-9.72v4.32h9.76c-.52,4.44-2.76,7.68-6.84,7.68a11,11,0,0,1-5.6-1.6ZM602,253.53c3.32,0,4.68,1.56,4.68,3.92s-1.4,3.92-4.64,3.92h-3.92v-7.84ZM593,238v28h9.28c5.84,0,9.68-2.84,9.68-8.56s-3.88-8.56-9.68-8.56h-4.16V238Zm-37.25,15.52c3.32,0,4.68,1.56,4.68,3.92s-1.4,3.92-4.64,3.92H553.3v-7.84ZM568.66,266h5.12V238h-5.12Zm-20.48-28v28H556c5.84,0,9.68-2.84,9.68-8.56s-3.88-8.56-9.68-8.56H553.3V238Zm-26.76,15.52c3.32,0,4.68,1.56,4.68,3.92s-1.4,3.92-4.64,3.92h-4.12v-7.84ZM517.34,238H506.22l-.8,4.64h6.8V266h9.48c5.84,0,9.68-2.84,9.68-8.56s-3.88-8.56-9.68-8.56h-4.36Zm-29.25,28v5.88h4.32l.8-10.52h-3.8V238h-5.12v23.36h-7.24V238h-5.12v23.36h-7.2V238h-5.12v28Zm-72.16-28h-5.12v28h29.6V238h-5.12v23.36h-7.12V238h-5.12v23.36h-7.12Z"/><path class="c" d="M732,216V188h-5.12v12.2a13,13,0,0,1-4.52.88c-2.44,0-4.12-1-4.12-3.76V188h-5.12v9.32c0,5.8,2.92,8.4,8.84,8.4a16.58,16.58,0,0,0,4.92-.88V216Zm-45.22,0v5.88h4.32l.8-10.52h-3.8V188H683v23.36H672.51V188h-5.12v28Zm-46.74.4,5.72-.4-8.44-14.52L645,188h-5.92l-4.88,9.48H634L629.13,188h-5.92l7.64,13.48L622.41,216h5.92l5.72-10.32h.12Zm-57.34-7.6c-3.44,0-5.08-3.08-5.08-7s1.64-7,5.08-7a10.39,10.39,0,0,1,2.36.2v13.6a10.39,10.39,0,0,1-2.36.2m9.76-14c3.44,0,5.08,3.08,5.08,7s-1.64,7-5.08,7a10,10,0,0,1-2.36-.2V195a10,10,0,0,1,2.36-.2m.6,18.56c6.64,0,9.72-5,9.72-11.52s-3.08-11.6-9.72-11.6a12.9,12.9,0,0,0-3,.32v-3.76h-5v3.76a13.16,13.16,0,0,0-3-.32c-6.64,0-9.72,5-9.72,11.6s3.08,11.52,9.72,11.52a13.42,13.42,0,0,0,3-.32v3.76h5v-3.72a15.84,15.84,0,0,0,3,.28m-50.41-10.92h-.12L536.38,188h-5.84l8.64,19.64h1.6l-.56,1.4c-.8,2-1.72,2.72-2.52,2.72a2.82,2.82,0,0,1-1.84-.72l-2.44,4a7.17,7.17,0,0,0,4.48,1.4c3.84,0,5.88-2.92,7.2-6.4l8.28-22h-5.44Zm-31.34-9.8.8-4.64h-21.4v4.64h8.12V216H504V192.65Zm-42.7,17.52a11.34,11.34,0,0,1-5.72,1.6c-4.56,0-6.72-4.28-6.72-9.76s2.16-9.76,6.72-9.76a11.74,11.74,0,0,1,5.28,1.28l2-4.12a14.45,14.45,0,0,0-7.32-1.8c-8.32,0-12,6.32-12,14.4s3.68,14.4,12,14.4a14.3,14.3,0,0,0,7.8-2.16Zm-48.73-17.52c2.44,0,4.08,1.64,4.08,4.44s-1.64,4.44-4.08,4.44h-4v-8.88Zm.08,13.52c5.32,0,9.32-3.08,9.32-9.08s-4-9.08-9.32-9.08h-9.16v28h5.12v-9.84Z"/><path class="c" d="M716.53,166V142.65h10.36V166H732V138h-20.6v28Zm-30.85-14c0,5.48-2,9.76-6.52,9.76s-6.52-4.28-6.52-9.76,2-9.76,6.52-9.76,6.52,4.28,6.52,9.76m5.28,0c0-8.08-3.48-14.4-11.8-14.4s-11.8,6.32-11.8,14.4,3.48,14.4,11.8,14.4S691,160.09,691,152m-59.65-14h-5.12v28h5.12V153.85h10.48V166h5.12V138h-5.12v11.2H631.31Zm-30.68,28h5.12l-2.6-28h-5.72l-6,18h-.12l-6-18h-5.72L577,166h5.12l1.68-18.28h.12l4.84,14.6H594l4.8-14.6h.12ZM540.1,139.09c0,16.88-1.24,22.4-3.92,22.4a3.84,3.84,0,0,1-1.28-.24l-1,4.4a7.31,7.31,0,0,0,2.88.56c6.28,0,8.2-9.08,8.2-23.56h6.4V166h5.12V138H540.1Zm-26.76,27.32,5.76-.4-9.6-14.76L518.26,138h-5.72l-7.24,11.2h-2.08V138H498.1v28h5.12V153.85h2Zm-43.89-35.68a4.33,4.33,0,0,1-8,0l-3.2,2.28a8.72,8.72,0,0,0,14.4,0ZM471.33,166h5.12V138h-4.28l-12.48,18.6h-.12V138h-5.12v28h4.28l12.48-18.56h.12Zm-43.64,0h5.12V138h-4.28l-12.48,18.6h-.12V138h-5.12v28h4.28l12.48-18.56h.12Z"/><path class="c" d="M728.17,107.73c0,2.48-2.2,4-5.2,4a12.23,12.23,0,0,1-6.16-1.84l-2.4,4.08a16,16,0,0,0,8.56,2.4c5.76,0,10.44-2.6,10.44-8.32,0-3.88-2.24-6-5.76-6.8v-.12a6.4,6.4,0,0,0,4.76-6.56c0-4.88-4.36-7-9.36-7a17.13,17.13,0,0,0-8,1.8l2.08,4.12a13.16,13.16,0,0,1,5.72-1.28c2.6,0,4.32,1.36,4.32,3.56s-1.68,3.56-4.32,3.56h-3.44v4.32h3.48c3.24,0,5.28,1.4,5.28,4M685.15,88H680v11.2h-1.72L672.67,88h-5.88L674,101.49,666,116h6l6.36-12.16H680V116h5.12V103.85h1.64l6.6,12.56,5.84-.4-8.08-14.52L698.39,88h-6l-5.56,11.2h-1.72Zm-42-4.16a2.55,2.55,0,0,0,2.64,2.56,2.58,2.58,0,0,0,2.68-2.56,2.61,2.61,0,0,0-2.68-2.6,2.58,2.58,0,0,0-2.64,2.6m-8.52,0a2.55,2.55,0,0,0,2.64,2.56,2.58,2.58,0,0,0,2.68-2.56,2.61,2.61,0,0,0-2.68-2.6,2.58,2.58,0,0,0-2.64,2.6m15,32.16v-4.64H638.46v-7.52h9.12V99.21h-9.12V92.65h10.32l.8-4.64H633.34v28Zm-35.82,0v-4.64H602.64v-7.52h9.12V99.21h-9.12V92.65H613l.8-4.64H597.52v28Zm-56.93,0h17.8v5.88H579l.8-10.52H576V88H558.79v2.32c0,9.2-1,17-4.08,21h-3l.8,10.52h4.32Zm3.48-4.64c2.08-4,3.48-10.88,3.48-17.84v-.88h7v18.72Zm-22-18.72.8-4.64h-16v28h5.12V92.65ZM494.2,116c5.48,0,9.76-2,9.76-7.76,0-3.88-2.24-6.12-5.76-7v-.16a6.21,6.21,0,0,0,4.76-6.4c0-4.88-3.76-6.72-8.76-6.72h-8.76v28Zm4.48-8.32c0,2.2-1.76,3.68-4.72,3.68h-3.4v-7.56H494c3,0,4.72,1.32,4.72,3.88m-1-11.68c0,2-1.32,3.4-3.76,3.4h-3.36V92.65h3.36c2.44,0,3.76,1.32,3.76,3.36m-40.38,7.68c3.32,0,4.68,1.48,4.68,3.84,0,2.2-1.4,3.84-4.64,3.84H454.1v-7.68Zm7.28-11,.8-4.64H449v28h8.6c5.84,0,9.68-2.76,9.68-8.48s-3.88-8.48-9.68-8.48H454.1v-6.4Zm-45,2.56h.16l3,10.16h-6.16ZM426,116h5.4l-9.36-28h-4.68L408,116h5.4l1.84-6.12h8.88Z"/><path class="c" d="M1124,243.45v7.16h-3a3.3,3.3,0,0,1-3.16-3.56,3.34,3.34,0,0,1,3.16-3.6Zm0,12.4V266H1130V238h-9.28a9,9,0,0,0-4,17l-5.88,11h6.52l5.16-10.16ZM1078.27,252c0-4.84,2.08-9,5.72-9s5.68,4.12,5.68,9-2,9-5.68,9-5.72-4.12-5.72-9m5.72,14.4c7.92,0,11.76-6.24,11.76-14.4s-3.84-14.4-11.76-14.4c-6.88,0-10.76,4.68-11.64,11.2h-3.68V238h-5.92v28h5.92V254.25h3.68c.6,7,4.44,12.16,11.64,12.16m-56.4-22.12a11.64,11.64,0,0,1,5.16-1.24c3.12,0,5.36,2.4,6,6.32h-9.32v5h9.32c-.6,4.08-2.88,6.56-6,6.56a11.45,11.45,0,0,1-5.6-1.52l-2.48,4.8a16.74,16.74,0,0,0,8.4,2.16c8.6,0,12-6.08,12-14.4s-3.44-14.4-12-14.4a17.66,17.66,0,0,0-7.92,1.8Zm-27.65,9.8c2.76,0,3.88,1.36,3.88,3.24s-1.16,3.24-3.84,3.24h-3.52v-6.48Zm-3.48-5.36V238h-5.92v28h9.68c5.84,0,9.68-2.92,9.68-8.64s-3.88-8.64-9.68-8.64Zm-42.76,5.36c2.76,0,3.88,1.36,3.88,3.24s-1.16,3.24-3.84,3.24h-2.08v-6.48ZM965.82,266h5.92V238h-5.92Zm-14.16-17.28V238h-5.92v28H954c5.84,0,9.68-2.92,9.68-8.64s-3.88-8.64-9.68-8.64Zm-32.29,5.36c2.76,0,3.88,1.36,3.88,3.24s-1.16,3.24-3.84,3.24h-3.92v-6.48Zm-3.88-5.36V238H903.77l-.8,5.44h6.6V266h10.08c5.84,0,9.68-2.92,9.68-8.64s-3.88-8.64-9.68-8.64ZM885.25,266v5.88h5.12l.8-11.32h-3.6V238h-5.92v22.56h-6.32V238h-5.92v22.56h-6.32V238h-5.92v28Zm-71-28h-5.92v28h30V238h-5.92v22.56h-6.12V238H820.4v22.56h-6.12Z"/><path class="c" d="M1130,216V188H1124v12a15.41,15.41,0,0,1-3.92.64c-2,0-3.52-.76-3.52-3V188h-5.92v9.72c0,5.68,3.12,8.4,9,8.4a17.13,17.13,0,0,0,4.32-.64V216Zm-46,0v5.88h5.12l.8-11.32h-3.6V188h-5.92v22.56h-9.48V188h-5.92v28Zm-52.17-9.92h.12l5.32,10.32,6.52-.4-8.24-14.52,7.44-13.48h-6.72l-4.32,9.08h-.12l-4.28-9.08h-6.72l7.44,13.48L1020,216h6.72Zm-41.5-10.48c2.92,0,4.44,2.72,4.44,6.2s-1.52,6.2-4.44,6.2a8.26,8.26,0,0,1-2.16-.24V195.85a10.42,10.42,0,0,1,2.16-.24M980.43,208c-2.92,0-4.44-2.72-4.44-6.2s1.52-6.2,4.44-6.2a10.76,10.76,0,0,1,2.16.24v11.92a8.26,8.26,0,0,1-2.16.24M991,213.37c6.64,0,9.8-5,9.8-11.52s-3.16-11.6-9.8-11.6a12.83,12.83,0,0,0-2.68.28v-3.72h-5.84v3.72a13.45,13.45,0,0,0-2.68-.28c-6.64,0-9.8,5-9.8,11.6s3.16,11.52,9.8,11.52a13.62,13.62,0,0,0,2.68-.24v3.68h5.84v-3.68a13.06,13.06,0,0,0,2.68.24M934.73,188h-6.64l8,19.44h1.76l-.6,1.56c-.6,1.56-1.36,2-2,2a2.64,2.64,0,0,1-1.6-.52L931,215a8.1,8.1,0,0,0,4.8,1.4c3.84,0,6-2.92,7.28-6.4l8.28-22h-6.52l-4.68,13.28H940Zm-25.46,5.44.8-5.44h-21.8v5.44h7.92V216h5.92V193.45Zm-41.09-4a17.16,17.16,0,0,0-7.8-1.8c-8.6,0-11.92,6.08-11.92,14.4s3.32,14.4,11.92,14.4a16.29,16.29,0,0,0,8.28-2.16l-2.48-4.8A11,11,0,0,1,860.7,211c-3.72,0-6.08-3.52-6.08-9s2.36-9,6.12-9a11.15,11.15,0,0,1,5,1.24Zm-53.9,11.72v-7.68h3.36c2,0,3.48,1.44,3.48,3.84s-1.52,3.84-3.48,3.84Zm3.64,5.44c5.32,0,9.32-3.28,9.32-9.28s-4-9.28-9.32-9.28h-9.56v28h5.92v-9.44Z"/><path class="c" d="M1114.88,166V143.45H1124V166H1130V138h-21v28Zm-26-14c0-8.32-3.48-14.4-12-14.4s-12,6.08-12,14.4,3.48,14.4,12,14.4,12-6.08,12-14.4m-6.08,0c0,5.24-1.88,9-5.92,9s-5.92-3.72-5.92-9,1.88-9,5.92-9,5.92,3.72,5.92,9m-53.16-14h-5.92v28h5.92V154.25H1039V166h5.92V138H1039v10.8h-9.28Zm-33.49,12.08h.12L997.78,166h5.92l-2.6-28H995l-5.8,16.44h-.12L983.26,138h-6.12l-2.6,28h5.92l1.48-15.92h.12l4.32,12.24h5.48Zm-47.6-6.64V166h5.92V138H937.1v1.2c0,15.76-1,21.48-3.56,21.48a1.91,1.91,0,0,1-.88-.2l-1.16,5.16a8.46,8.46,0,0,0,3.08.56c5.88,0,8.44-7.52,8.44-22.76Zm-38.09,23,6.56-.4-9-14.56L916.21,138h-6.48l-6.28,10.8h-2.28V138h-5.52v28h5.52V154.25h2.2ZM863.2,133c-1.88,0-3-1.12-3.88-2.56L855.8,133a9.06,9.06,0,0,0,14.81,0l-3.53-2.52c-.88,1.44-2,2.56-3.88,2.56m5.29,33h5.92V138H869l-11,18h-.12V138H852v28h5.4l11-18h.12Zm-43.65,0h5.92V138h-5.4l-11,18h-.12V138h-5.92v28h5.4l11-18h.12Z"/><path class="c" d="M1125.6,101.05a6.3,6.3,0,0,0,4.76-6.44c0-4.88-4.56-7-9.56-7a17.92,17.92,0,0,0-8.2,1.8l2.4,4.84a14.26,14.26,0,0,1,5.6-1.2c2.72,0,3.72,1.4,3.72,2.76,0,1.88-1.6,3.2-3.92,3.2H1117v5h3.44c3.44,0,4.92,1.2,4.92,3.4,0,2-1.8,3.52-4.6,3.52a12.17,12.17,0,0,1-6-1.72L1112,114a16.68,16.68,0,0,0,8.76,2.4c5.76,0,10.64-3,10.64-8.72,0-3.8-2.52-5.88-5.76-6.48Zm-42.3,15V104.25h1.44l5.76,12.16,6.68-.4-7.36-14.52L1096.34,88h-6.76l-4.72,10.8h-1.56V88h-5.92v10.8h-1.56L1071.1,88h-6.76l6.52,13.48L1063.5,116h6.88l5.56-11.76h1.44V116Zm-42.57-32.32a2.7,2.7,0,0,0,2.84,2.72,2.76,2.76,0,0,0,2.88-2.72,2.79,2.79,0,0,0-2.88-2.76,2.73,2.73,0,0,0-2.84,2.76m-8.52,0a2.7,2.7,0,0,0,2.84,2.72,2.76,2.76,0,0,0,2.88-2.72,2.79,2.79,0,0,0-2.88-2.76,2.73,2.73,0,0,0-2.84,2.76M1047.53,116v-5.44h-11.12v-6.32h9.12V98.81h-9.12V93.45h10.32l.8-5.44h-16.64v28Zm-35.82,0v-5.44h-11.12v-6.32h9.12V98.81h-9.12V93.45h10.32l.8-5.44H995.07v28Zm-56.53,0h16.6v5.88h5.12l.8-11.32h-3.6V88H956.18v3.12c0,9.2-.88,15.4-3.92,19.44h-3l.8,11.32h5.12Zm3.48-5.44c2.08-4,3.24-9.28,3.24-16.24v-.88h6.28v17.12ZM936.28,93.45l.8-5.44h-16.4v28h5.92V93.45ZM892.15,116c5.48,0,9.76-2,9.76-7.76,0-3.88-2.24-6.12-5.76-7v-.16a6.21,6.21,0,0,0,4.76-6.4c0-4.88-3.76-6.72-8.76-6.72H883v28Zm3.68-8.68c0,1.92-1.4,3.24-3.92,3.24h-3.4v-6.48h3.36c2.56,0,4,1.32,4,3.24m-7.32-13.88h3.2a2.85,2.85,0,1,1,.16,5.68h-3.36Zm-33.26,10.8c2.76,0,3.88,1.32,3.88,3.16s-1.16,3.16-3.84,3.16h-2.84v-6.32Zm7.28-10.8.8-5.44h-16.8v28h9c5.84,0,9.68-2.8,9.68-8.52S861.33,99,855.53,99h-3.08V93.45ZM820,105h-5.08l2.44-9.24h.16Zm3.16,11h6.2l-9-28h-5.88l-9,28h6.2l1.64-5.72h8.12Z"/></svg>