<svg xmlns="http://www.w3.org/2000/svg" xmlns:xlink="http://www.w3.org/1999/xlink" viewBox="0 0 6151.1811 4280.315"><defs><style>.a{fill:#fff;}.b,.c,.d,.e,.f,.g,.h,.i{stroke:#b3b2b2;stroke-miterlimit:10;stroke-width:3px;}.b{fill:url(#a);}.c{fill:url(#b);}.d{fill:url(#c);}.e{fill:url(#d);}.f{fill:url(#e);}.g{fill:url(#f);}.h{fill:url(#g);}.i{fill:url(#h);}.j{fill:url(#i);}.k{fill:url(#j);}.l{fill:url(#k);}.m{fill:url(#l);}.n{fill:url(#m);}.o{fill:url(#n);}.p{fill:#54647d;}.q{fill:#222c54;}.r{fill:url(#o);}.s{fill:url(#p);}</style><linearGradient id="a" x1="5499.2132" y1="3344.8817" x2="5499.2132" y2="4251.9685" gradientUnits="userSpaceOnUse"><stop offset="0" stop-color="#fff"/><stop offset="0.1776" stop-color="#f6f6f6"/><stop offset="0.4741" stop-color="#ededed"/><stop offset="1" stop-color="#ebebeb"/><stop offset="1" stop-color="#ddd"/></linearGradient><linearGradient id="b" x1="3940.1587" y1="3344.8816" x2="3940.1587" y2="4251.9685" xlink:href="#a"/><linearGradient id="c" x1="765.3544" y1="3344.8824" x2="765.3544" y2="4251.9685" xlink:href="#a"/><linearGradient id="d" x1="765.3567" y1="1162.2053" x2="765.3567" y2="2069.2914" xlink:href="#a"/><linearGradient id="e" x1="2352.7584" y1="1162.2053" x2="2352.7584" y2="2069.2914" xlink:href="#a"/><linearGradient id="f" x1="3911.811" y1="1162.2053" x2="3911.811" y2="2069.2914" xlink:href="#a"/><linearGradient id="g" x1="5470.8662" y1="1162.2053" x2="5470.8662" y2="2069.2914" xlink:href="#a"/><linearGradient id="h" x1="2352.7561" y1="3344.8819" x2="2352.7561" y2="4251.9685" xlink:href="#a"/><linearGradient id="i" x1="765.3576" y1="170.0787" x2="765.3576" y2="1077.1654" gradientUnits="userSpaceOnUse"><stop offset="0" stop-color="#222c54"/><stop offset="0.764" stop-color="#1e2649"/><stop offset="1" stop-color="#1c2344"/></linearGradient><linearGradient id="j" x1="3940.1575" y1="2352.7559" x2="3940.1575" y2="3259.8425" xlink:href="#i"/><linearGradient id="k" x1="2352.7589" y1="170.0787" x2="2352.7589" y2="1077.1654" xlink:href="#i"/><linearGradient id="l" x1="5470.8662" y1="170.0787" x2="5470.8662" y2="1077.1654" xlink:href="#i"/><linearGradient id="m" x1="3911.811" y1="170.0787" x2="3911.811" y2="1077.1654" xlink:href="#i"/><linearGradient id="n" x1="765.3544" y1="2352.7559" x2="765.3544" y2="3259.8425" xlink:href="#i"/><linearGradient id="o" x1="2352.7559" y1="2352.7559" x2="2352.7559" y2="3259.8425" xlink:href="#i"/><linearGradient id="p" x1="5499.2127" y1="2352.7559" x2="5499.2127" y2="3259.8425" xlink:href="#i"/></defs><rect class="a" x="4903.9376" y="3344.8817" width="1190.5512" height="907.0869" rx="70.8661"/><rect class="a" x="3344.8832" y="3344.8816" width="1190.5512" height="907.0869" rx="70.8661"/><rect class="a" x="170.0788" y="3344.8824" width="1190.5512" height="907.0861" rx="70.8661"/><rect class="a" x="170.0811" y="1162.2053" width="1190.5512" height="907.0861" rx="70.8661"/><rect class="a" x="1757.4828" y="1162.2053" width="1190.5512" height="907.0861" rx="70.8661"/><rect class="a" x="3316.5355" y="1162.2053" width="1190.5512" height="907.0861" rx="70.8661"/><rect class="a" x="4875.5906" y="1162.2053" width="1190.5512" height="907.0861" rx="70.8661"/><rect class="a" x="1757.4805" y="3344.8819" width="1190.5512" height="907.0866" rx="70.8661"/><rect class="b" x="4903.9376" y="3344.8817" width="1190.5512" height="907.0869" rx="70.8661"/><rect class="c" x="3344.8832" y="3344.8816" width="1190.5512" height="907.0869" rx="70.8661"/><rect class="d" x="170.0788" y="3344.8824" width="1190.5512" height="907.0861" rx="70.8661"/><rect class="e" x="170.0811" y="1162.2053" width="1190.5512" height="907.0861" rx="70.8661"/><rect class="f" x="1757.4828" y="1162.2053" width="1190.5512" height="907.0861" rx="70.8661"/><rect class="g" x="3316.5355" y="1162.2053" width="1190.5512" height="907.0861" rx="70.8661"/><rect class="h" x="4875.5906" y="1162.2053" width="1190.5512" height="907.0861" rx="70.8661"/><rect class="i" x="1757.4805" y="3344.8819" width="1190.5512" height="907.0866" rx="70.8661"/><rect class="j" x="170.082" y="170.0787" width="1190.5512" height="907.0866" rx="70.8661"/><rect class="k" x="3344.882" y="2352.7559" width="1190.5512" height="907.0866" rx="70.8661"/><rect class="l" x="1757.4833" y="170.0787" width="1190.5512" height="907.0866" rx="70.8661"/><rect class="m" x="4875.5906" y="170.0787" width="1190.5512" height="907.0866" rx="70.8661"/><rect class="n" x="3316.5355" y="170.0787" width="1190.5512" height="907.0866" rx="70.8661"/><rect class="o" x="170.0788" y="2352.7559" width="1190.5512" height="907.0866" rx="70.8661"/><path class="p" d="M85.94,717.4048a30.128,30.128,0,0,1-5.31,17.8193l-6.03-3.69c2.7-4.05,4.5-7.47,4.5-13.5,0-8.01-4.14-13.5-13.41-13.5-9.63,0-13.4995,5.67-13.4995,13.8594v2.7h-3.15l-19.7991-13.41h-.36v25.4693l-6.84-1.8V699.3154h5.94l18.8091,12.69h.36c1.17-8.64,7.02-15.48,18.5393-15.48C79.55,696.5254,85.94,705.9751,85.94,717.4048Z"/><path class="p" d="M27.9819,667.5454c0,4.68,1.8,9.0894,4.5,13.769l-6.03,3.33c-3.69-7.0195-5.31-11.43-5.31-18.8091,0-11.07,6.3-17.0092,17.2793-17.0092,15.1194,0,30.7788,14.8491,39.4184,25.6489h.36V647.0259l6.84,1.8v36.8984H79.1c-9.9-12.6895-26.0091-28.8892-39.9585-28.8892C32.0317,656.8354,27.9819,659.8955,27.9819,667.5454Z"/><path class="p" d="M85.94,617.7749c0,13.86-11.07,21.6-32.3987,21.6s-32.3987-7.74-32.3987-21.6,11.07-21.5986,32.3987-21.5986S85.94,603.9155,85.94,617.7749Zm-6.84,0c0-8.2793-7.56-13.5894-25.5591-13.5894s-25.5589,5.31-25.5589,13.5894,7.56,13.59,25.5589,13.59S79.1,626.0547,79.1,617.7749Z"/><path class="p" d="M39.1414,530.5664V520.937l45.8982-4.41v7.47l-36.9886,2.97v.36l29.5188,10.62v8.37L48.051,557.0254v.36l36.9886,2.97v7.47l-45.8982-4.41v-9.63L70.91,542.2661v-.27Z"/><path class="p" d="M39.1414,471.167v-9.6294l45.8982-4.41v7.47l-36.9886,2.97v.36l29.5188,10.62v8.37L48.051,497.626v.36l36.9886,2.97v7.47l-45.8982-4.41v-9.63L70.91,482.8667v-.27Z"/><path class="p" d="M85.94,1681.1836a30.128,30.128,0,0,1-5.31,17.8193l-6.03-3.69c2.7-4.05,4.5-7.47,4.5-13.5,0-8.01-4.14-13.4995-13.41-13.4995-9.63,0-13.4995,5.67-13.4995,13.8593v2.7h-3.15l-19.7991-13.41h-.36v25.4692l-6.84-1.8v-32.0386h5.94l18.8091,12.6895h.36c1.17-8.64,7.02-15.4795,18.5393-15.4795C79.55,1660.3042,85.94,1669.7539,85.94,1681.1836Z"/><path class="p" d="M27.9819,1631.3242c0,4.68,1.8,9.0894,4.5,13.769l-6.03,3.33c-3.69-7.0195-5.31-11.43-5.31-18.8091,0-11.07,6.3-17.0092,17.2793-17.0092,15.1194,0,30.7788,14.8491,39.4184,25.6489h.36v-27.4492l6.84,1.8v36.8984H79.1c-9.9-12.6894-26.0091-28.8892-39.9585-28.8892C32.0317,1620.6142,27.9819,1623.6743,27.9819,1631.3242Z"/><path class="p" d="M85.94,1581.5537c0,13.86-11.07,21.6-32.3987,21.6s-32.3987-7.74-32.3987-21.6,11.07-21.5986,32.3987-21.5986S85.94,1567.6943,85.94,1581.5537Zm-6.84,0c0-8.2793-7.56-13.5894-25.5591-13.5894s-25.5589,5.31-25.5589,13.5894,7.56,13.59,25.5589,13.59S79.1,1589.8335,79.1,1581.5537Z"/><path class="p" d="M39.1414,1494.3452v-9.6294l45.8982-4.41v7.47l-36.9886,2.97v.36l29.5188,10.62v8.37L48.051,1520.8042v.36l36.9886,2.97v7.47l-45.8982-4.41v-9.63L70.91,1506.0449v-.27Z"/><path class="p" d="M39.1414,1434.9458v-9.6294l45.8982-4.41v7.47l-36.9886,2.97v.36l29.5188,10.62v8.37L48.051,1461.4048v.36l36.9886,2.97v7.47l-45.8982-4.41v-9.63L70.91,1446.6455v-.27Z"/><path class="p" d="M656.0956,22.0422,633.1464,62.2705v.36h16.56V50.301h7.6495V62.63h10.8l-1.8,6.75h-9V85.04h-7.6495V69.38H623.6068v-5.85l23.669-41.4883Z"/><path class="p" d="M693.0853,27.9819c-4.68,0-9.0893,1.8-13.769,4.5l-3.33-6.03c7.0195-3.69,11.43-5.31,18.8091-5.31,11.07,0,17.0093,6.3,17.0093,17.2793,0,15.1194-14.8491,30.7788-25.649,39.4184v.36h27.4493l-1.8,6.84H674.9061V79.1c12.6895-9.9,28.8892-26.009,28.8892-39.9585C703.7953,32.0317,700.7352,27.9819,693.0853,27.9819Z"/><path class="p" d="M742.8558,85.9394c-13.86,0-21.6-11.07-21.6-32.3986s7.74-32.3987,21.6-32.3987,21.5987,11.07,21.5987,32.3987S756.7152,85.9394,742.8558,85.9394Zm0-6.84c8.2793,0,13.5894-7.56,13.5894-25.559s-5.31-25.5589-13.5894-25.5589-13.59,7.56-13.59,25.5589S734.5761,79.1,742.8558,79.1Z"/><path class="p" d="M830.0643,39.1413h9.6294l4.41,45.8982h-7.47l-2.97-36.9885h-.36L822.6845,77.57h-8.37L803.6054,48.051h-.36l-2.97,36.9885h-7.47l4.41-45.8982h9.63L818.3646,70.91h.27Z"/><path class="p" d="M889.4638,39.1413h9.6293l4.41,45.8982h-7.47l-2.97-36.9885h-.36L882.0839,77.57h-8.37L863.0048,48.051h-.36l-2.97,36.9885h-7.47l4.41-45.8982h9.63L877.764,70.91h.27Z"/><path class="a" d="M816.1261,396.4453V751.5185h95.4561v70.5284H631.9015V751.5185H740.1251V466.9736H641.0216l12.1592-70.5283Z"/><path class="a" d="M3999.4376,2649.6509H3797.5812l12.16-70.5284h270.5606v64.4483l-151.3926,361.1533h-81.4726Z"/><path class="a" d="M2121.7247,462.5908H1933.48l11.3408-65.7725h252.3155v60.1026L2055.9523,793.72h-75.9785Z"/><path class="a" d="M2376.8732,456.9209c-28.3506,0-54.999,9.6387-79.9473,24.9482l-33.4531-57.2675c45.36-24.3809,77.6787-33.4532,124.1728-33.4532,69.7412,0,112.834,39.6905,112.834,108.8643,0,87.3183-75.4121,170.668-144.5859,225.667v2.2676H2511.82L2500.48,793.72H2256.6691V733.6172c77.6787-58.4,170.667-150.2549,170.667-226.2334C2427.3361,476.1992,2409.7589,456.9209,2376.8732,456.9209Z"/><path class="a" d="M2712.2911,734.53h-84.0234L2611.297,793.72h-64.1562l92.7158-289.7373h60.8447L2793.4171,793.72h-64.1553Zm-41.3906-150.6631h-1.6562l-25.2481,95.6133h52.5664Z"/><path class="a" d="M5326.4855,460.8935c-30.4,0-58.9766,10.336-85.7285,26.752l-35.8721-61.4082c48.64-26.1436,83.2959-35.8721,133.1523-35.8721,74.7842,0,120.9922,42.5606,120.9922,116.7364,0,93.6328-80.8642,183.0087-155.04,241.9853v2.4316h167.2l-12.16,70.5284h-261.44V757.5986c83.2959-62.624,183.0078-161.12,183.0078-242.5928C5380.5968,481.5664,5361.7492,460.8935,5326.4855,460.8935Z"/><path class="a" d="M5686.1613,758.5762H5596.06l-18.1973,63.4707h-68.7968l99.4218-310.6934h65.2461l99.4219,310.6934h-68.7969Zm-44.3848-161.5606h-1.7754l-27.0752,102.5293h56.3682Z"/><path class="a" d="M3835.3405,396.4453V751.5185h95.456v70.5284H3651.1159V751.5185H3759.34V466.9736H3660.236l12.1591-70.5283Z"/><path class="a" d="M4056.3112,571.7168v61.6953h34.1757c64.3584,0,107.4122,30.625,107.4122,94.0957s-42.6094,94.5391-107.4122,94.5391h-99.8652V511.3535h186.416l-8.8769,60.3633Zm0,119.8389v70.1279h31.5136c29.7373,0,42.6094-15.5352,42.6094-35.0645,0-20.416-12.4277-35.0634-43.0537-35.0634Z"/><path class="q" d="M5031.4191,3458.605h16.456l-25.0468,66.5507c-3.9932,10.5274-10.1641,19.36-21.78,19.36a21.7,21.7,0,0,1-13.5528-4.2354l7.3819-11.9785c1.9355,1.4512,3.3877,2.1778,5.5654,2.1778,2.42,0,5.2031-2.2989,7.6231-8.2285l1.6943-4.2344h-4.84l-26.1368-59.4121h17.666l18.6348,43.6816h.3633Z"/><path class="q" d="M5068.3234,3458.605h49.7324v84.7011h-15.4883v-70.665h-19.3613c0,43.8027-5.8076,71.2705-24.8047,71.2705a22.1147,22.1147,0,0,1-8.7129-1.6943l2.9043-13.3106a11.6092,11.6092,0,0,0,3.8721.7266c8.1074,0,11.8584-16.6983,11.8584-67.7617Z"/><path class="q" d="M5145.3986,3527.3335a8.5913,8.5913,0,1,1-8.5909,8.5918A8.6243,8.6243,0,0,1,5145.3986,3527.3335Z"/><path class="q" d="M5230.2794,3524.7925h-26.8623l-5.5664,18.5136h-16.3349l28.3144-84.7011h14.1572l28.3145,84.7011h-16.336ZM5207.53,3511.12h18.6348l-9.0752-30.7344h-.4844Z"/><path class="q" d="M5288.963,3506.521h-6.05v36.7851h-15.4883V3458.605h15.4883v33.88h6.292l21.9014-33.88H5328.41l-26.5,40.0517,29.041,44.6494-17.4248,1.21Z"/><path class="q" d="M5385.1574,3524.7925h-26.8623l-5.5665,18.5136h-16.3349l28.3144-84.7011h14.1573l28.3144,84.7011h-16.3359Zm-22.7491-13.6729h18.6348l-9.0752-30.7344h-.4844Z"/><path class="q" d="M5427.506,3561.0932h-13.0684l-2.42-31.8232h9.0752c9.1963-12.2217,12.3418-35.8164,12.3418-63.6475v-7.0175h51.91v70.665H5496.84l-2.42,31.8232h-13.0684v-17.7871H5427.506Zm42.3506-31.8232v-56.6289h-21.2959v2.6621c0,21.0537-4.2354,41.9873-10.5274,53.9668Z"/><path class="q" d="M5512.5675,3543.3061V3458.605h49.127l-2.42,14.0361h-31.2187v19.8438h27.5889v14.0361h-27.5889v22.749h33.6387v14.0361Z"/><path class="q" d="M5645.547,3488.0083h-.3623l-14.52,44.166h-15.8516l-14.6406-44.166h-.3633l-5.082,55.2978h-15.4883l7.8652-84.7011h17.3028l18.15,54.45h.3633l18.15-54.45h17.3038l7.8642,84.7011H5650.75Z"/><path class="q" d="M5737.2648,3487.1616h-.3623l-37.753,56.1445h-12.9472V3458.605h15.4883v56.2656h.3632l37.752-56.2656h12.9473v84.7011h-15.4883Z"/><path class="q" d="M5797.8829,3506.521h-6.05v36.7851h-15.4882V3458.605h15.4882v33.88h6.292l21.9014-33.88H5837.33l-26.5,40.0517,29.041,44.6494-17.4248,1.21Z"/><path class="q" d="M5894.0783,3524.7925h-26.8624l-5.5664,18.5136h-16.3349l28.3144-84.7011h14.1573l28.3144,84.7011h-16.3359Zm-22.7491-13.6729h18.6348l-9.0752-30.7344h-.4844Z"/><path class="q" d="M4989.0685,3684.3061V3599.605h26.499c15.126,0,26.5,5.5654,26.5,20.3281,0,11.1318-6.6553,17.3027-14.3994,19.36v.4834c10.6484,2.542,17.4248,9.3174,17.4248,21.0547,0,17.3037-12.9473,23.4746-29.5254,23.4746Zm25.6523-70.665h-10.164V3634.09h10.164c7.3809,0,11.3741-4.1142,11.3741-10.2851S5022.1017,3613.6411,5014.7208,3613.6411Zm.1211,33.76h-10.2851V3670.27h10.2851c8.9541,0,14.2783-4.4775,14.2783-11.1318C5029.12,3651.394,5023.796,3647.4009,5014.8419,3647.4009Z"/><path class="q" d="M5097.1212,3685.5161c-25.1679,0-35.6953-19.1182-35.6953-43.5605s10.5274-43.5606,35.6953-43.5606,35.6963,19.1182,35.6963,43.5606S5122.29,3685.5161,5097.1212,3685.5161Zm0-73.085c-13.7939,0-19.7236,12.9473-19.7236,29.5245s5.93,29.5244,19.7236,29.5244,19.7237-12.9473,19.7237-29.5244S5110.9152,3612.4311,5097.1212,3612.4311Z"/><path class="q" d="M5168.2687,3633.4849h31.7021v-33.88h15.4883v84.7011h-15.4883V3647.521h-31.7021v36.7851H5152.78V3599.605h15.4883Z"/><path class="q" d="M5295.3175,3678.9819c-7.623,4.3565-14.0361,6.5342-23.5947,6.5342-25.169,0-36.3008-19.1182-36.3008-43.5605s11.1318-43.5606,36.3008-43.5606a43.7321,43.7321,0,0,1,22.1435,5.4443l-6.1718,12.4639a35.5053,35.5053,0,0,0-15.9717-3.8721c-13.7949,0-20.3291,12.9473-20.3291,29.5245s6.5342,29.5244,20.3291,29.5244a34.3012,34.3012,0,0,0,17.3027-4.84Z"/><path class="q" d="M5345.5324,3685.5161c-25.168,0-35.6954-19.1182-35.6954-43.5605s10.5274-43.5606,35.6954-43.5606,35.6962,19.1182,35.6962,43.5606S5370.7013,3685.5161,5345.5324,3685.5161Zm0-73.085c-13.794,0-19.7237,12.9473-19.7237,29.5245s5.93,29.5244,19.7237,29.5244,19.7236-12.9473,19.7236-29.5244S5359.3273,3612.4311,5345.5324,3612.4311Z"/><path class="q" d="M5401.1915,3684.3061V3599.605h26.4991c15.1259,0,26.5,5.5654,26.5,20.3281,0,11.1318-6.6553,17.3027-14.3995,19.36v.4834c10.6485,2.542,17.4248,9.3174,17.4248,21.0547,0,17.3037-12.9472,23.4746-29.5253,23.4746Zm25.6524-70.665H5416.68V3634.09h10.1641c7.3808,0,11.374-4.1142,11.374-10.2851S5434.2247,3613.6411,5426.8439,3613.6411Zm.1211,33.76H5416.68V3670.27h10.2852c8.9541,0,14.2783-4.4775,14.2783-11.1318C5441.2433,3651.394,5435.9191,3647.4009,5426.965,3647.4009Z"/><path class="q" d="M5533.4445,3678.9819c-7.6231,4.3565-14.0362,6.5342-23.5948,6.5342-25.1689,0-36.3007-19.1182-36.3007-43.5605s11.1318-43.5606,36.3007-43.5606a43.7322,43.7322,0,0,1,22.1436,5.4443l-6.1719,12.4639a35.5047,35.5047,0,0,0-15.9717-3.8721c-13.7949,0-20.3291,12.9473-20.3291,29.5245s6.5342,29.5244,20.3291,29.5244a34.3018,34.3018,0,0,0,17.3028-4.84Z"/><path class="q" d="M5573.132,3647.521h-6.05v36.7851h-15.4883V3599.605h15.4883v33.88h6.292l21.9013-33.88h17.3037l-26.5,40.0517,29.041,44.6494-17.4248,1.21Z"/><path class="q" d="M5661.0978,3685.5161c-25.168,0-35.6953-19.1182-35.6953-43.5605s10.5273-43.5606,35.6953-43.5606,35.6963,19.1182,35.6963,43.5606S5686.2667,3685.5161,5661.0978,3685.5161Zm0-73.085c-13.794,0-19.7236,12.9473-19.7236,29.5245s5.93,29.5244,19.7236,29.5244,19.7236-12.9473,19.7236-29.5244S5674.8917,3612.4311,5661.0978,3612.4311Z"/><path class="q" d="M5732.2452,3613.6411v70.665H5716.757V3599.605h48.4013l-2.4209,14.0361Z"/><path class="q" d="M5807.507,3685.5161c-25.168,0-35.6953-19.1182-35.6953-43.5605s10.5273-43.5606,35.6953-43.5606,35.6963,19.1182,35.6963,43.5606S5832.6759,3685.5161,5807.507,3685.5161Zm0-73.085c-13.794,0-19.7237,12.9473-19.7237,29.5245s5.93,29.5244,19.7237,29.5244,19.7236-12.9473,19.7236-29.5244S5821.3019,3612.4311,5807.507,3612.4311Z"/><path class="q" d="M4983.382,3797.6426l18.9521-56.6953H5011l18.9532,56.6953h-9.3145l-4.05-13.2022h-19.9248l-3.9678,13.2022Zm23.4882-45.1133h-.4052l-7.5323,24.3789h15.3887Z"/><path class="q" d="M5061.9484,3767.7558l21.0586,29.8868-10.043.8095-18.71-26.4033h-4.2109v25.5938h-8.748v-56.6953h8.748v23.6494h4.4541l16.8467-23.6494h9.9629Z"/><path class="q" d="M5087.87,3797.6426l18.9522-56.6953h8.666l18.9531,56.6953h-9.3144l-4.05-13.2022h-19.9248l-3.9678,13.2022Zm23.4883-45.1133h-.4052l-7.5323,24.3789H5118.81Z"/><path class="q" d="M5145.7833,3797.6426v-56.6953h18.0616c16.0371,0,23.165,11.8251,23.165,28.3476s-7.1279,28.3477-23.165,28.3477Zm8.7481-48.92v41.1446h9.3135c9.4765,0,14.0937-8.99,14.0937-20.5723s-4.6172-20.5723-14.0937-20.5723Z"/><path class="q" d="M5201.5919,3797.6426v-56.6953h32.0742l-1.62,7.7753H5210.34v15.7129h19.2763v7.7754H5210.34v17.6563h23.3261v7.7754Z"/><path class="q" d="M5279.5939,3790.1914h-8.5049l-11.501-34.5039h-.3242l-3.8867,41.9551h-8.7481l5.2647-56.6953h10.7724l12.5538,37.2568h.2431l12.5537-37.2568h10.7725l5.2646,56.6953h-8.747l-3.8877-41.9551h-.3242Z"/><path class="q" d="M5316.2072,3797.6426v-7.7754h9.3144v-41.1446h-9.3144v-7.7753h27.7812l-1.62,7.7753h-8.1v41.1446h9.3144v7.7754Z"/><path class="q" d="M5378.8175,3767.7558l21.0586,29.8868-10.043.8095-18.71-26.4033h-4.211v25.5938h-8.748v-56.6953h8.748v23.6494h4.4541l16.8467-23.6494h9.9629Z"/><path class="q" d="M5404.7394,3797.6426l18.9521-56.6953h8.6661l18.9531,56.6953h-9.3145l-4.05-13.2022h-19.9248l-3.9678,13.2022Zm23.4883-45.1133h-.4053l-7.5322,24.3789h15.3886Z"/><path class="q" d="M5018.047,3854.9473h9.5576l-17.6572,56.6953h-10.124l-17.6563-56.6953h9.5567l12.9589,44.6269h.3243Z"/><path class="q" d="M5058.79,3912.4521c-16.8467,0-23.4883-12.7968-23.4883-29.1572s6.6416-29.1582,23.4883-29.1582,23.4882,12.7979,23.4882,29.1582S5075.6368,3912.4521,5058.79,3912.4521Zm0-50.54c-10.3672,0-14.417,9.3955-14.417,21.3828s4.05,21.3818,14.417,21.3818,14.417-9.3945,14.417-21.3818S5069.1574,3861.9121,5058.79,3861.9121Z"/><path class="q" d="M5130.3126,3897.1445h.3233v-42.1972h8.748v56.6953h-9.3955l-24.0557-42.1162h-.3232v42.1162h-8.748v-56.6953h9.3955Z"/><path class="q" d="M5181.7472,3896.9824c0-5.5879-5.4268-8.666-11.6631-11.0957-7.29-2.835-15.6318-6.9658-15.6318-16.36,0-9.72,6.8847-15.39,18.3857-15.39a32.12,32.12,0,0,1,16.1983,4.374l-4.1309,6.8848a21.6582,21.6582,0,0,0-12.0674-3.4834c-6.1562,0-9.3144,2.5107-9.3144,7.1279s5.5888,7.6133,10.5293,9.5567c8.9091,3.4834,16.7656,7.3711,16.7656,17.9,0,10.0429-7.0469,15.955-19.7627,15.955a30.9325,30.9325,0,0,1-17.8994-5.0214l4.6162-7.127a21.1006,21.1006,0,0,0,13.2832,4.373C5177.3732,3904.6767,5181.7472,3902.2471,5181.7472,3896.9824Z"/><path class="q" d="M5225.6476,3912.4521c-16.8467,0-23.4883-12.7968-23.4883-29.1572s6.6416-29.1582,23.4883-29.1582,23.4883,12.7979,23.4883,29.1582S5242.4943,3912.4521,5225.6476,3912.4521Zm0-50.54c-10.3672,0-14.417,9.3955-14.417,21.3828s4.05,21.3818,14.417,21.3818,14.417-9.3945,14.417-21.3818S5236.0148,3861.9121,5225.6476,3861.9121Z"/><path class="q" d="M5292.715,3854.9473h9.5576l-17.6572,56.6953h-10.1241l-17.6562-56.6953h9.5566l12.959,44.6269h.3242Z"/><path class="q" d="M5337.7521,3896.9824c0-5.5879-5.4268-8.666-11.6631-11.0957-7.29-2.835-15.6318-6.9658-15.6318-16.36,0-9.72,6.8847-15.39,18.3857-15.39a32.1191,32.1191,0,0,1,16.1982,4.374l-4.1308,6.8848a21.6582,21.6582,0,0,0-12.0674-3.4834c-6.1562,0-9.3145,2.5107-9.3145,7.1279s5.5889,7.6133,10.5293,9.5567c8.9092,3.4834,16.7657,7.3711,16.7657,17.9,0,10.0429-7.0469,15.955-19.7627,15.955a30.9325,30.9325,0,0,1-17.8994-5.0214l4.6162-7.127a21.1006,21.1006,0,0,0,13.2832,4.373C5333.3781,3904.6767,5337.7521,3902.2471,5337.7521,3896.9824Z"/><path class="q" d="M5381.2472,3881.7558l21.0586,29.8868-10.043.8095-18.71-26.4033h-4.211v25.5938h-8.748v-56.6953h8.748v23.6494h4.4541l16.8467-23.6494h9.9629Z"/><path class="q" d="M5433.8966,3912.4521c-16.8467,0-23.4883-12.7968-23.4883-29.1572s6.6416-29.1582,23.4883-29.1582,23.4883,12.7979,23.4883,29.1582S5450.7433,3912.4521,5433.8966,3912.4521Zm0-50.54c-10.3672,0-14.417,9.3955-14.417,21.3828s4.05,21.3818,14.417,21.3818,14.417-9.3945,14.417-21.3818S5444.2638,3861.9121,5433.8966,3861.9121Z"/><path class="q" d="M5478.61,3883.2949c0,11.9873,4.374,21.3818,15.0654,21.3818a19.8883,19.8883,0,0,0,8.18-1.538v-14.417h-9.9619v-7.6133h18.1426v26.16a26.2134,26.2134,0,0,1-16.6846,5.1836c-16.8467,0-23.8125-12.7968-23.8125-29.1572s6.9658-29.1582,23.8125-29.1582a30.7106,30.7106,0,0,1,15.3887,3.6455l-3.4824,7.0459a24.9148,24.9148,0,0,0-11.9063-2.916C5482.9835,3861.9121,5478.61,3871.3076,5478.61,3883.2949Z"/><path class="q" d="M5546.0822,3912.4521c-16.8467,0-23.4883-12.7968-23.4883-29.1572s6.6416-29.1582,23.4883-29.1582,23.4882,12.7979,23.4882,29.1582S5562.9288,3912.4521,5546.0822,3912.4521Zm0-50.54c-10.3672,0-14.417,9.3955-14.417,21.3828s4.05,21.3818,14.417,21.3818,14.417-9.3945,14.417-21.3818S5556.4493,3861.9121,5546.0822,3861.9121Z"/><path class="q" d="M5632.9943,3896.9824c0-5.5879-5.4268-8.666-11.6631-11.0957-7.29-2.835-15.6319-6.9658-15.6319-16.36,0-9.72,6.8848-15.39,18.3858-15.39a32.1191,32.1191,0,0,1,16.1982,4.374l-4.1308,6.8848a21.6582,21.6582,0,0,0-12.0674-3.4834c-6.1563,0-9.3145,2.5107-9.3145,7.1279s5.5889,7.6133,10.5293,9.5567c8.9092,3.4834,16.7657,7.3711,16.7657,17.9,0,10.0429-7.0469,15.955-19.7627,15.955a30.9331,30.9331,0,0,1-17.8995-5.0214l4.6163-7.127a21.1,21.1,0,0,0,13.2832,4.373C5628.62,3904.6767,5632.9943,3902.2471,5632.9943,3896.9824Z"/><path class="q" d="M5675.7609,3862.7226v48.92h-8.7471v-48.92h-16.8467v-7.7753h42.5215l-1.62,7.7753Z"/><path class="q" d="M5739.02,3871.7939c0,8.7471-4.8594,14.0118-11.7442,15.875l14.8223,23.9737-9.4766.8095L5717.8,3888.4785h-5.0215v23.1641h-8.748v-56.6953h17.252C5731.0822,3854.9473,5739.02,3860.6973,5739.02,3871.7939Zm-26.2413-9.0713v17.9805h8.0987c5.1836,0,9.0713-3.24,9.0713-8.9092s-3.8877-9.0713-9.0713-9.0713Z"/><path class="q" d="M5754.25,3911.6426v-56.6953h32.0742l-1.62,7.7753h-21.706v15.7129h19.2763v7.7754h-19.2763v17.6563h23.3261v7.7754Z"/><path class="q" d="M5801.7159,3911.6426v-56.6953H5833.79l-1.62,7.7753H5810.464v15.7129H5829.74v7.7754H5810.464v17.6563H5833.79v7.7754Z"/><path class="q" d="M5869.1066,3862.7226v48.92H5860.36v-48.92h-16.8467v-7.7753h42.5215l-1.62,7.7753Z"/><path class="q" d="M3472.3639,3458.605H3488.82l-25.0469,66.5507c-3.9932,10.5274-10.1641,19.36-21.78,19.36a21.7,21.7,0,0,1-13.5527-4.2354l7.3818-11.9785c1.9356,1.4512,3.3877,2.1778,5.5654,2.1778,2.42,0,5.2032-2.2989,7.6231-8.2285l1.6943-4.2344h-4.84l-26.1367-59.4121h17.666l18.6347,43.6816h.3633Z"/><path class="q" d="M3509.2682,3458.605h49.7324v84.7011h-15.4883v-70.665H3524.151c0,43.8027-5.8076,71.2705-24.8047,71.2705a22.1151,22.1151,0,0,1-8.7129-1.6943l2.9043-13.3106a11.6092,11.6092,0,0,0,3.8721.7266c8.1074,0,11.8584-16.6983,11.8584-67.7617Z"/><path class="q" d="M3586.3434,3527.3335a8.5913,8.5913,0,1,1-8.5908,8.5918A8.6243,8.6243,0,0,1,3586.3434,3527.3335Z"/><path class="q" d="M3681.9928,3487.1616h-.3623l-37.7529,56.1445H3630.93V3458.605h15.4883v56.2656h.3633l37.7519-56.2656h12.9473v84.7011h-15.4883Z"/><path class="q" d="M3736.5621,3492.4849h31.7022v-33.88h15.4883v84.7011h-15.4883V3506.521h-31.7022v36.7851h-15.4882V3458.605h15.4882Z"/><path class="q" d="M3863.611,3537.9819c-7.6231,4.3565-14.0362,6.5342-23.5948,6.5342-25.1689,0-36.3007-19.1182-36.3007-43.5605s11.1318-43.5606,36.3007-43.5606a43.7322,43.7322,0,0,1,22.1436,5.4443l-6.1719,12.4639a35.5047,35.5047,0,0,0-15.9717-3.8721c-13.7949,0-20.3291,12.9473-20.3291,29.5245s6.5342,29.5244,20.3291,29.5244a34.3018,34.3018,0,0,0,17.3028-4.84Z"/><path class="q" d="M3913.4625,3472.6411v70.665h-15.6084v-70.665h-24.5634V3458.605h64.7353l-2.42,14.0361Z"/><path class="q" d="M3968.6373,3513.54v29.7666h-15.4882V3458.605h27.71c16.0928,0,28.1934,9.3164,28.1934,27.4668s-12.1006,27.4677-28.1934,27.4677Zm0-40.8984v26.8623h11.9795c7.3809,0,12.3418-4.9609,12.3418-13.4316s-4.9609-13.4307-12.3418-13.4307Z"/><path class="q" d="M4069.55,3458.605h16.4561l-25.0469,66.5507c-3.9932,10.5274-10.1641,19.36-21.78,19.36a21.7,21.7,0,0,1-13.5527-4.2354l7.3818-11.9785c1.9356,1.4512,3.3877,2.1778,5.5655,2.1778,2.42,0,5.2031-2.2989,7.623-8.2285l1.6943-4.2344h-4.84l-26.1367-59.4121h17.666l18.6348,43.6816h.3632Z"/><path class="q" d="M4161.3883,3488.0083h-.3623l-14.52,44.166h-15.8516l-14.6406-44.166h-.3633l-5.082,55.2978H4095.08l7.8653-84.7011h17.3027l18.15,54.45h.3633l18.15-54.45h17.3038l7.8642,84.7011h-15.4883Z"/><path class="q" d="M4202.0436,3543.3061V3458.605h49.1269l-2.42,14.0361h-31.2187v19.8438h27.5888v14.0361h-27.5888v22.749h33.6386v14.0361Z"/><path class="q" d="M4287.8326,3492.4849h31.7022v-33.88h15.4883v84.7011h-15.4883V3506.521h-31.7022v36.7851h-15.4882V3458.605h15.4882Z"/><path class="q" d="M4354.986,3508.2153v-13.4306h34.122l-2.42,13.4306Z"/><path class="q" d="M3461.7155,3613.6411v70.665h-15.6084v-70.665h-24.5635V3599.605h64.7353l-2.42,14.0361Z"/><path class="q" d="M3541.6959,3665.7925h-26.8623l-5.5664,18.5136h-16.3349l28.3144-84.7011h14.1572l28.3145,84.7011h-16.3359Zm-22.749-13.6729h18.6348l-9.0752-30.7344h-.4844Z"/><path class="q" d="M3586.5846,3599.605h49.7324v84.7011h-15.4883v-70.665h-19.3613c0,43.8027-5.8076,71.2705-24.8047,71.2705a22.1151,22.1151,0,0,1-8.7129-1.6943l2.9043-13.3106a11.6092,11.6092,0,0,0,3.8721.7266c8.1074,0,11.8584-16.6983,11.8584-67.7617Z"/><path class="q" d="M3675.3971,3599.605v32.9121h12.584c17.5459,0,29.2832,8.5908,29.2832,25.8945s-11.6162,25.8945-29.2832,25.8945h-28.0723V3599.605Zm0,46.9482V3670.27h11.8584c9.8008,0,14.0361-5.082,14.0361-11.8584,0-7.1387-4.1142-11.8584-14.1572-11.8584Z"/><path class="q" d="M3733.5983,3684.3061V3599.605h15.4883v70.665h21.78v-70.665h15.4883v70.665h21.9014v-70.665h15.4883v70.665H3835.24l-2.42,31.8232h-13.0684v-17.7871Z"/><path class="q" d="M3902.03,3628.1616h-.3623l-37.7529,56.1445h-12.9473V3599.605h15.4883v56.2656h.3633l37.7519-56.2656h12.9473v84.7011H3902.03Z"/><path class="q" d="M3962.6491,3647.521h-6.05v36.7851H3941.111V3599.605h15.4882v33.88h6.292l21.9014-33.88h17.3037l-26.5,40.0517,29.041,44.6494-17.4248,1.21Z"/><path class="q" d="M4050.6149,3685.5161c-25.168,0-35.6953-19.1182-35.6953-43.5605s10.5273-43.5606,35.6953-43.5606,35.6963,19.1182,35.6963,43.5606S4075.7838,3685.5161,4050.6149,3685.5161Zm0-73.085c-13.794,0-19.7237,12.9473-19.7237,29.5245s5.93,29.5244,19.7237,29.5244,19.7236-12.9473,19.7236-29.5244S4064.4088,3612.4311,4050.6149,3612.4311Z"/><path class="q" d="M4106.2741,3684.3061V3599.605h26.5c15.125,0,26.499,5.5654,26.499,20.3281,0,11.1318-6.6553,17.3027-14.3994,19.36v.4834c10.6484,2.542,17.4248,9.3174,17.4248,21.0547,0,17.3037-12.9473,23.4746-29.5244,23.4746Zm25.6523-70.665h-10.1641V3634.09h10.1641c7.3809,0,11.374-4.1142,11.374-10.2851S4139.3073,3613.6411,4131.9264,3613.6411Zm.1211,33.76h-10.2852V3670.27h10.2852c8.9541,0,14.2783-4.4775,14.2783-11.1318C4146.3258,3651.394,4141.0016,3647.4009,4132.0475,3647.4009Z"/><path class="q" d="M3427.5665,3797.6426v-7.7754h9.3145v-41.1446h-9.3145v-7.7753h27.7813l-1.62,7.7753h-8.1v41.1446h9.3144v7.7754Z"/><path class="q" d="M3502.9747,3783.1445h.3233v-42.1972h8.748v56.6953h-9.3955l-24.0556-42.1162h-.3233v42.1162h-8.748v-56.6953h9.3955Z"/><path class="q" d="M3554.4093,3782.9824c0-5.5879-5.4267-8.666-11.6631-11.0957-7.29-2.835-15.6318-6.9658-15.6318-16.36,0-9.72,6.8848-15.39,18.3857-15.39a32.1192,32.1192,0,0,1,16.1983,4.374l-4.1309,6.8848a21.6582,21.6582,0,0,0-12.0674-3.4834c-6.1562,0-9.3144,2.5107-9.3144,7.1279s5.5888,7.6133,10.5293,9.5567c8.9092,3.4834,16.7656,7.3711,16.7656,17.9,0,10.0429-7.0469,15.955-19.7627,15.955a30.9325,30.9325,0,0,1-17.8994-5.0214l4.6162-7.127a21.1006,21.1006,0,0,0,13.2832,4.373C3550.0353,3790.6767,3554.4093,3788.2471,3554.4093,3782.9824Z"/><path class="q" d="M3597.1759,3748.7226v48.92h-8.7471v-48.92h-16.8466v-7.7753h42.5214l-1.62,7.7753Z"/><path class="q" d="M3660.4347,3757.7939c0,8.7471-4.8594,14.0118-11.7441,15.875l14.8222,23.9737-9.4765.8095-14.8213-23.9736h-5.0215v23.1641h-8.7481v-56.6953h17.252C3652.4982,3740.9473,3660.4347,3746.6973,3660.4347,3757.7939Zm-26.2412-9.0713v17.9805h8.0986c5.1836,0,9.0713-3.24,9.0713-8.9092s-3.8877-9.0713-9.0713-9.0713Z"/><path class="q" d="M3715.757,3780.2285c0,10.7725-8.0987,18.2236-20.2481,18.2236s-20.248-7.4511-20.248-18.2236v-39.2812h8.747v38.8769c0,6.3984,4.3741,10.8525,11.501,10.8525s11.501-4.4541,11.501-10.8525v-38.8769h8.7471Z"/><path class="q" d="M3762.9005,3790.1914h-8.5049l-11.5009-34.5039h-.3243l-3.8867,41.9551h-8.748l5.2646-56.6953h10.7725l12.5537,37.2568h.2432l12.5537-37.2568h10.7724l5.2647,56.6953h-8.7471l-3.8877-41.9551h-.3242Z"/><path class="q" d="M3801.9435,3797.6426v-56.6953h32.0742l-1.62,7.7753h-21.7061v15.7129h19.2764v7.7754h-19.2764v17.6563h23.3262v7.7754Z"/><path class="q" d="M3882.8605,3783.1445h.3232v-42.1972h8.7481v56.6953h-9.3955l-24.0557-42.1162h-.3232v42.1162h-8.7481v-56.6953h9.3955Z"/><path class="q" d="M3928.8683,3748.7226v48.92h-8.7471v-48.92h-16.8467v-7.7753h42.5215l-1.62,7.7753Z"/><path class="q" d="M3951.4689,3797.6426l18.9521-56.6953h8.666l18.9532,56.6953h-9.3145l-4.05-13.2022h-19.9238l-3.9688,13.2022Zm23.4883-45.1133h-.4053l-7.5322,24.3789h15.3886Z"/><path class="q" d="M4009.382,3797.6426v-56.6953h8.748v48.92h25.6748l-1.62,7.7754Z"/><path class="q" d="M4080.4972,3782.9824c0-5.5879-5.4268-8.666-11.6631-11.0957-7.29-2.835-15.6318-6.9658-15.6318-16.36,0-9.72,6.8847-15.39,18.3857-15.39a32.12,32.12,0,0,1,16.1983,4.374l-4.1309,6.8848a21.6582,21.6582,0,0,0-12.0674-3.4834c-6.1562,0-9.3144,2.5107-9.3144,7.1279s5.5888,7.6133,10.5293,9.5567c8.9091,3.4834,16.7656,7.3711,16.7656,17.9,0,10.0429-7.0469,15.955-19.7627,15.955a30.9325,30.9325,0,0,1-17.8994-5.0214l4.6162-7.127a21.1006,21.1006,0,0,0,13.2832,4.373C4076.1232,3790.6767,4080.4972,3788.2471,4080.4972,3782.9824Z"/><path class="q" d="M4112.088,3764.4355h23.6494v-23.4882h8.7481v56.6953h-8.7481v-25.4317H4112.088v25.4317h-8.748v-56.6953h8.748Z"/><path class="q" d="M4159.0675,3797.6426v-7.7754h9.3145v-41.1446h-9.3145v-7.7753h27.7813l-1.62,7.7753h-8.1v41.1446h9.3145v7.7754Z"/><path class="q" d="M4221.6779,3767.7558l21.0586,29.8868-10.043.8095-18.71-26.4033h-4.2109v25.5938h-8.7481v-56.6953h8.7481v23.6494h4.4541l16.8467-23.6494h9.9619Z"/><path class="q" d="M4274.3273,3798.4521c-16.8467,0-23.4883-12.7968-23.4883-29.1572s6.6416-29.1582,23.4883-29.1582,23.4883,12.7979,23.4883,29.1582S4291.174,3798.4521,4274.3273,3798.4521Zm0-50.54c-10.3672,0-14.417,9.3955-14.417,21.3828s4.05,21.3818,14.417,21.3818,14.417-9.3945,14.417-21.3818S4284.6945,3747.9121,4274.3273,3747.9121Z"/><path class="q" d="M4341.3947,3740.9473h9.5576l-17.6572,56.6953H4323.171l-17.6562-56.6953h9.5566l12.959,44.6269h.3242Z"/><path class="q" d="M3455.3478,3896.9824c0-5.5879-5.4268-8.666-11.6631-11.0957-7.29-2.835-15.6318-6.9658-15.6318-16.36,0-9.72,6.8847-15.39,18.3857-15.39a32.1188,32.1188,0,0,1,16.1982,4.374l-4.1308,6.8848a21.6582,21.6582,0,0,0-12.0674-3.4834c-6.1562,0-9.3144,2.5107-9.3144,7.1279s5.5888,7.6133,10.5292,9.5567c8.9092,3.4834,16.7657,7.3711,16.7657,17.9,0,10.0429-7.0469,15.955-19.7627,15.955a30.9325,30.9325,0,0,1-17.8994-5.0214l4.6162-7.127a21.1006,21.1006,0,0,0,13.2832,4.373C3450.9738,3904.6767,3455.3478,3902.2471,3455.3478,3896.9824Z"/><path class="q" d="M3498.1154,3862.7226v48.92h-8.7471v-48.92h-16.8467v-7.7753h42.5215l-1.62,7.7753Z"/><path class="q" d="M3561.3732,3871.7939c0,8.7471-4.8594,14.0118-11.7442,15.875l14.8223,23.9737-9.4766.8095-14.8213-23.9736h-5.0214v23.1641h-8.7481v-56.6953h17.252C3553.4357,3854.9473,3561.3732,3860.6973,3561.3732,3871.7939Zm-26.2412-9.0713v17.9805h8.0986c5.1836,0,9.0713-3.24,9.0713-8.9092s-3.8877-9.0713-9.0713-9.0713Z"/><path class="q" d="M3576.6036,3911.6426v-56.6953h32.0743l-1.62,7.7753h-21.706v15.7129h19.2764v7.7754h-19.2764v17.6563h23.3262v7.7754Z"/><path class="q" d="M3624.07,3911.6426v-56.6953h32.0742l-1.62,7.7753h-21.7061v15.7129h19.2764v7.7754h-19.2764v17.6563h23.3262v7.7754Z"/><path class="q" d="M3691.4611,3862.7226v48.92h-8.7471v-48.92h-16.8467v-7.7753h42.5215l-1.62,7.7753Z"/><path class="q" d="M312.2452,1274.8935h22.0332l-33.5351,89.1006c-5.3457,14.0948-13.6084,25.9209-29.16,25.9209a29.0529,29.0529,0,0,1-18.1445-5.67l9.8818-16.0381c2.5928,1.9434,4.5362,2.916,7.4522,2.916,3.24,0,6.9668-3.0781,10.207-11.0166l2.2676-5.67h-6.4805l-34.9922-79.543h23.6524l24.9482,58.4825h.4864Z"/><path class="q" d="M361.6544,1274.8935h66.583v113.4014H407.5011v-94.6094H381.58c0,58.6446-7.7754,95.419-33.21,95.419a29.5945,29.5945,0,0,1-11.664-2.2676l3.8877-17.82a15.5422,15.5422,0,0,0,5.1836.9717c10.8545,0,15.8769-22.3565,15.8769-90.7207Z"/><path class="q" d="M464.8458,1366.91a11.5025,11.5025,0,1,1-11.5019,11.503A11.5475,11.5475,0,0,1,464.8458,1366.91Z"/><path class="q" d="M608.4591,1314.26h-.4863l-19.4395,59.1308H567.3107L547.7081,1314.26h-.4863l-6.8037,74.0351H519.6818l10.53-113.4014h23.1661l24.3007,72.9h.4854l24.3008-72.9h23.166l10.53,113.4014H615.4249Z"/><path class="q" d="M731.254,1313.126h-.4863l-50.5449,75.1689h-17.334V1274.8935h20.7363v75.3311h.4854l50.5449-75.3311H751.99v113.4014H731.254Z"/><path class="q" d="M804.3136,1348.4424v39.8525H783.5773V1274.8935h37.0986c21.5459,0,37.7461,12.4737,37.7461,36.7745s-16.2,36.7744-37.7461,36.7744Zm0-54.7569V1329.65h16.0381c9.8818,0,16.5244-6.6426,16.5244-17.9824s-6.6426-17.9825-16.5244-17.9825Z"/><path class="q" d="M936.6661,1363.5088H900.7023l-7.4522,24.7861H871.379l37.9092-113.4014h18.9541l37.9082,113.4014H944.28Zm-30.456-18.3067h24.9482l-12.15-41.1484h-.6474Z"/><path class="q" d="M296.7472,1547.626h-12.81l-17.3232-51.97h-.4883l-5.8555,63.1934H247.0949l7.93-85.3955H271.25l18.9092,56.1172h.3662l18.9082-56.1172h16.2256l7.93,85.3955H320.4132l-5.8555-63.1934H314.07Z"/><path class="q" d="M351.8917,1558.85v-11.7109H365.921V1485.165H351.8917v-11.7109h41.8448l-2.44,11.7109H379.0968v61.9737h14.0293V1558.85Z"/><path class="q" d="M467.7882,1498.8281c0,13.1758-7.3193,21.1055-17.6885,23.9111l22.3243,36.11-14.2735,1.22-22.3242-36.11h-7.5635V1558.85H415.087v-85.3955h25.9844C455.8331,1473.4541,467.7882,1482.1152,467.7882,1498.8281Zm-39.5254-13.6631v27.083H440.462c7.8077,0,13.6631-4.88,13.6631-13.42s-5.8554-13.6631-13.6631-13.6631Z"/><path class="q" d="M482.1867,1558.85l28.5468-85.3955h13.0537l28.5469,85.3955H538.3048l-6.1006-19.8848h-30.01l-5.9786,19.8848Zm35.3789-67.95h-.61l-11.3457,36.72h23.18Z"/><path class="q" d="M642.98,1536.7685c0-8.4169-8.1738-13.0537-17.5674-16.7128-10.98-4.27-23.5449-10.4913-23.5449-24.6426,0-14.64,10.3692-23.18,27.6924-23.18,9.8818,0,17.2012,2.6846,24.3984,6.5879l-6.2216,10.37c-5.3672-3.1719-10.3692-5.2461-18.1768-5.2461-9.2715,0-14.0293,3.7822-14.0293,10.7354s8.418,11.4677,15.8594,14.3955c13.4189,5.2461,25.2529,11.1015,25.2529,26.9609,0,15.127-10.6133,24.0322-29.7666,24.0322-11.7119,0-19.0312-2.6836-26.9609-7.5635l6.9541-10.7353a31.7835,31.7835,0,0,0,20.0068,6.5879C636.3917,1548.3584,642.98,1544.6982,642.98,1536.7685Z"/><path class="q" d="M707.3947,1485.165V1558.85H694.2189V1485.165h-25.375v-11.7109h64.0469l-2.44,11.7109Z"/><path class="q" d="M802.673,1498.8281c0,13.1758-7.3194,21.1055-17.6885,23.9111l22.3242,36.11-14.2734,1.22-22.3242-36.11h-7.5635V1558.85H749.9718v-85.3955h25.9844C790.7179,1473.4541,802.673,1482.1152,802.673,1498.8281Zm-39.5254-13.6631v27.083h12.1992c7.8076,0,13.6631-4.88,13.6631-13.42s-5.8555-13.6631-13.6631-13.6631Z"/><path class="q" d="M825.6115,1558.85v-85.3955h48.31l-2.4394,11.7109H838.7872v23.667h29.0342v11.7119H838.7872v26.5948H873.921V1558.85Z"/><path class="q" d="M897.1036,1558.85v-85.3955h48.31l-2.4394,11.7109H910.2794v23.667h29.0342v11.7119H910.2794v26.5948h35.1338V1558.85Z"/><path class="q" d="M998.6066,1485.165V1558.85H985.4308V1485.165h-25.375v-11.7109h64.0469l-2.4395,11.7109Z"/><path class="q" d="M1899.6476,1274.8935h22.0332l-33.5352,89.1006c-5.3457,14.0948-13.6084,25.9209-29.16,25.9209a29.0532,29.0532,0,0,1-18.1446-5.67l9.8819-16.0381c2.5928,1.9434,4.5361,2.916,7.4521,2.916,3.24,0,6.9668-3.0781,10.2071-11.0166l2.2675-5.67h-6.48l-34.9922-79.543h23.6523l24.9483,58.4825h.4863Z"/><path class="q" d="M1949.0568,1274.8935h66.583v113.4014h-20.7364v-94.6094h-25.9208c0,58.6446-7.7754,95.419-33.21,95.419a29.5946,29.5946,0,0,1-11.6641-2.2676l3.8877-17.82a15.5427,15.5427,0,0,0,5.1836.9717c10.8545,0,15.877-22.3565,15.877-90.7207Z"/><path class="q" d="M2052.2482,1366.91a11.5025,11.5025,0,1,1-11.502,11.503A11.5475,11.5475,0,0,1,2052.2482,1366.91Z"/><path class="q" d="M2164.4327,1388.2949v-45.1982a67.1712,67.1712,0,0,1-19.9257,3.5634c-23.9766,0-35.8028-10.53-35.8028-34.0205v-37.7461h20.7364V1312.64c0,11.34,6.8037,15.2286,16.6865,15.2286a52.4653,52.4653,0,0,0,18.3056-3.5645v-49.41h20.7364v113.4014Z"/><path class="q" d="M2270.7033,1363.5088h-35.9639l-7.4522,24.7861h-21.8711l37.9092-113.4014h18.9541l37.9082,113.4014h-21.87Zm-30.4561-18.3067h24.9482l-12.15-41.1484h-.6475Z"/><path class="q" d="M2320.4357,1388.2949V1274.8935h83.4306v113.4014H2383.13v-94.6094h-41.958v94.6094Z"/><path class="q" d="M2489.4015,1363.5088h-35.9639l-7.4521,24.7861h-21.8711l37.9092-113.4014h18.9541l37.9082,113.4014h-21.87Zm-30.4561-18.3067h24.9483l-12.15-41.1484h-.6475Z"/><path class="q" d="M2539.1339,1388.2949V1274.8935h65.7725l-3.24,18.792H2559.87v26.5684h36.9366v18.792H2559.87v30.457h45.0362v18.792Z"/><path class="q" d="M2633.256,1388.2949V1274.8935h35.4785c20.25,0,35.4785,7.4522,35.4785,27.2159,0,14.9043-8.91,23.167-19.2783,25.9209v.6474c14.2559,3.4024,23.3281,12.4746,23.3281,28.1885,0,23.167-17.334,31.4287-39.5283,31.4287Zm34.3447-94.6094h-13.6084v27.378h13.6084c9.8819,0,15.2276-5.5078,15.2276-13.77S2677.4826,1293.6855,2667.6007,1293.6855Zm.1611,45.1983h-13.77v30.6191h13.77c11.9883,0,19.1172-5.9941,19.1172-14.9043C2686.879,1344.2305,2679.75,1338.8838,2667.7618,1338.8838Z"/><path class="q" d="M2788.9376,1363.5088h-35.9638l-7.4522,24.7861h-21.8711l37.9092-113.4014h18.9541l37.9082,113.4014h-21.87Zm-30.456-18.3067H2783.43l-12.15-41.1484h-.6474Z"/><path class="q" d="M1848.16,1516.1514c0,18.0556,6.1,32.207,21.7148,32.207a36.9249,36.9249,0,0,0,18.6651-5.2461l5.123,10.3691c-7.6855,4.3926-14.1514,6.5879-23.7881,6.5879-25.375,0-35.3789-19.2744-35.3789-43.9179s10.0039-43.918,35.3789-43.918a44.082,44.082,0,0,1,22.3242,5.49l-5.123,10.3692a37.4056,37.4056,0,0,0-17.2012-4.1475C1854.26,1483.9453,1848.16,1498.0967,1848.16,1516.1514Z"/><path class="q" d="M1926.9718,1508.832h35.6221v-35.3779h13.1748V1558.85h-13.1748v-38.3057h-35.6221V1558.85H1913.796v-85.3955h13.1758Z"/><path class="q" d="M1992.8507,1558.85l28.5469-85.3955h13.0537l28.5469,85.3955h-14.03l-6.1-19.8848h-30.01L2006.88,1558.85Zm35.3789-67.95h-.61l-11.3457,36.72h23.18Z"/><path class="q" d="M2093.255,1528.8389V1558.85h-13.1758v-85.3955h26.7168c16.2246,0,28.4248,9.3935,28.4248,27.6924s-12.2,27.6924-28.4248,27.6924Zm0-43.6739v31.9629h13.2969c8.9053,0,14.8828-5.8564,14.8828-15.9814s-5.9775-15.9815-14.8828-15.9815Z"/><path class="q" d="M2146.8117,1558.85l28.5468-85.3955h13.0537l28.5469,85.3955h-14.03l-6.1-19.8848h-30.01l-5.9786,19.8848Zm35.3789-67.95h-.61l-11.3457,36.72h23.18Z"/><path class="q" d="M2276.3732,1473.4541h15.3711l-27.4483,49.7734V1558.85H2251.12v-35.6221l-27.4482-49.7734h15.3711l18.2988,35.6221h.4883Z"/><path class="q" d="M2306.9962,1558.85v-85.3955h48.31l-2.4395,11.7109H2320.172v23.667h29.0342v11.7119H2320.172v26.5948h35.1338V1558.85Z"/><path class="q" d="M2422.1622,1473.4541h14.3955L2409.963,1558.85h-15.249l-26.5947-85.3955h14.3945l19.5195,67.2187h.4883Z"/><path class="q" d="M2443.27,1558.85l28.5468-85.3955H2484.87l28.5469,85.3955h-14.0293l-6.1006-19.8848h-30.01l-5.9785,19.8848Zm35.3789-67.95h-.61l-11.3457,36.72h23.18Z"/><path class="q" d="M1876.3409,1678.7685c0-8.4169-8.1738-13.0537-17.5673-16.7128-10.9795-4.27-23.545-10.4913-23.545-24.6426,0-14.64,10.3692-23.18,27.6924-23.18,9.8819,0,17.2012,2.6846,24.3985,6.5879l-6.2217,10.37c-5.3672-3.1719-10.3692-5.2461-18.1768-5.2461-9.2715,0-14.0293,3.7822-14.0293,10.7354s8.418,11.4677,15.8594,14.3955c13.419,5.2461,25.2529,11.1015,25.2529,26.9609,0,15.127-10.6132,24.0322-29.7666,24.0322-11.7119,0-19.0312-2.6836-26.9609-7.5635l6.9541-10.7353a31.7835,31.7835,0,0,0,20.0068,6.5879C1869.7531,1690.3584,1876.3409,1686.6982,1876.3409,1678.7685Z"/><path class="q" d="M1940.756,1627.165V1700.85H1927.58V1627.165h-25.375v-11.7109h64.0469l-2.4395,11.7109Z"/><path class="q" d="M2036.0343,1640.8281c0,13.1758-7.3193,21.1055-17.6885,23.9111l22.3243,36.11-14.2735,1.22-22.3242-36.11h-7.5635V1700.85h-13.1758v-85.3955h25.9844C2024.0792,1615.4541,2036.0343,1624.1152,2036.0343,1640.8281Zm-39.5254-13.6631v27.083h12.1992c7.8077,0,13.6631-4.88,13.6631-13.42s-5.8554-13.6631-13.6631-13.6631Z"/><path class="q" d="M2058.9728,1700.85v-85.3955h48.31l-2.4395,11.7109h-32.6943v23.667h29.0341v11.7119h-29.0341v26.5948h35.1338V1700.85Z"/><path class="q" d="M2130.465,1700.85v-85.3955h48.3095l-2.4394,11.7109h-32.6943v23.667h29.0341v11.7119h-29.0341v26.5948h35.1337V1700.85Z"/><path class="q" d="M2231.9679,1627.165V1700.85h-13.1758V1627.165h-25.375v-11.7109h64.0469l-2.4395,11.7109Z"/><path class="q" d="M3402,1388.2949V1274.8935h83.4307v113.4014h-20.7363v-94.6094h-41.958v94.6094Z"/><path class="q" d="M3517.02,1388.2949V1274.8935h65.7724l-3.24,18.792H3537.756v26.5684h36.9365v18.792H3537.756v30.457h45.0361v18.792Z"/><path class="q" d="M3631.8781,1348.4424v39.8525h-20.7364V1274.8935H3648.24c21.5459,0,37.7461,12.4737,37.7461,36.7745s-16.2,36.7744-37.7461,36.7744Zm0-54.7569V1329.65h16.038c9.8819,0,16.5245-6.6426,16.5245-17.9824s-6.6426-17.9825-16.5245-17.9825Z"/><path class="q" d="M3715.3058,1366.91a11.5025,11.5025,0,1,1-11.502,11.503A11.5474,11.5474,0,0,1,3715.3058,1366.91Z"/><path class="q" d="M3795.7384,1348.4424v39.8525h-20.7363V1274.8935h37.0986c21.5459,0,37.7461,12.4737,37.7461,36.7745s-16.2,36.7744-37.7461,36.7744Zm0-54.7569V1329.65h16.0381c9.8818,0,16.5244-6.6426,16.5244-17.9824s-6.6426-17.9825-16.5244-17.9825Z"/><path class="q" d="M3874.1447,1388.2949V1274.8935h65.7724l-3.24,18.792H3894.881v26.5684h36.9365v18.792H3894.881v30.457h45.0361v18.792Z"/><path class="q" d="M4020.755,1388.2949v-45.1982a67.1719,67.1719,0,0,1-19.9258,3.5634c-23.9765,0-35.8027-10.53-35.8027-34.0205v-37.7461h20.7363V1312.64c0,11.34,6.8037,15.2286,16.6865,15.2286a52.4654,52.4654,0,0,0,18.3057-3.5645v-49.41h20.7363v113.4014Z"/><path class="q" d="M4093.8156,1320.2539H4136.26v-45.36h20.7363v113.4014H4136.26v-49.249h-42.4443v49.249h-20.7364V1274.8935h20.7364Z"/><path class="q" d="M4231.5138,1389.915c-33.6973,0-47.791-25.5967-47.791-58.3213s14.0937-58.32,47.791-58.32,47.79,25.5957,47.79,58.32S4265.21,1389.915,4231.5138,1389.915Zm0-97.85c-18.4687,0-26.4062,17.334-26.4062,39.5283s7.9375,39.5293,26.4062,39.5293,26.4063-17.3349,26.4063-39.5293S4249.9816,1292.0654,4231.5138,1292.0654Z"/><path class="q" d="M4374.3976,1313.126h-.4863l-50.545,75.1689h-17.3339V1274.8935h20.7363v75.3311h.4853l50.545-75.3311h17.3349v113.4014h-20.7363Zm5.3457-58.4834c-7.1279,11.0166-16.3623,15.3906-29.16,15.3906s-22.0322-4.374-29.1611-15.3906l12.9609-9.2344c3.8877,7.7764,10.2061,10.8545,16.2,10.8545s12.4737-3.24,16.2-10.8545Z"/><path class="q" d="M3449.91,1498.8281c0,13.1758-7.3194,21.1055-17.6885,23.9111l22.3242,36.11-14.2734,1.22-22.3242-36.11h-7.5635V1558.85h-13.1758v-85.3955h25.9844C3437.9552,1473.4541,3449.91,1482.1152,3449.91,1498.8281Zm-39.5254-13.6631v27.083h12.1992c7.8076,0,13.6631-4.88,13.6631-13.42s-5.8555-13.6631-13.6631-13.6631Z"/><path class="q" d="M3472.8488,1558.85v-85.3955h48.3095l-2.4394,11.7109h-32.6944v23.667h29.0342v11.7119h-29.0342v26.5948h35.1338V1558.85Z"/><path class="q" d="M3554.3449,1516.1514c0,18.0556,6.1,32.207,21.7148,32.207a36.9243,36.9243,0,0,0,18.665-5.2461l5.1231,10.3691c-7.6856,4.3926-14.1514,6.5879-23.7881,6.5879-25.375,0-35.3789-19.2744-35.3789-43.9179s10.0039-43.918,35.3789-43.918a44.082,44.082,0,0,1,22.3242,5.49l-5.123,10.3692a37.4056,37.4056,0,0,0-17.2012-4.1475C3560.4445,1483.9453,3554.3449,1498.0967,3554.3449,1516.1514Z"/><path class="q" d="M3633.1564,1508.832h35.622v-35.3779h13.1749V1558.85h-13.1749v-38.3057h-35.622V1558.85h-13.1758v-85.3955h13.1758Z"/><path class="q" d="M3757.9581,1537.0127h.4873v-63.5586h13.1758V1558.85H3757.47l-36.2325-63.4365h-.4873V1558.85h-13.1758v-85.3955h14.1514Z"/><path class="q" d="M3828.962,1560.0693c-25.375,0-35.3789-19.2744-35.3789-43.9179s10.0039-43.918,35.3789-43.918,35.378,19.2754,35.378,43.918S3854.3361,1560.0693,3828.962,1560.0693Zm0-76.124c-15.6152,0-21.7148,14.1514-21.7148,32.2061s6.1,32.207,21.7148,32.207,21.7149-14.1514,21.7149-32.207S3844.5773,1483.9453,3828.962,1483.9453Z"/><path class="q" d="M3928.6349,1473.4541h15.3711l-27.4483,49.7734V1558.85H3903.382v-35.6221l-27.4483-49.7734h15.3711l18.2988,35.6221h.4883Z"/><path class="q" d="M3397.2091,1700.85v-85.3955h13.1758v73.6846h38.6719l-2.44,11.7109Z"/><path class="q" d="M3457.5978,1700.85l28.5469-85.3955h13.0537l28.5468,85.3955h-14.0293l-6.1005-19.8848h-30.01l-5.9785,19.8848Zm35.3789-67.95h-.61l-11.3457,36.72h23.18Z"/><path class="q" d="M3595.21,1679.0127h.4873v-63.5586h13.1758V1700.85h-14.1514l-36.2324-63.4365h-.4873V1700.85h-13.1758v-85.3955h14.1514Z"/><path class="q" d="M3634.4952,1700.85v-85.3955h48.31l-2.4394,11.7109H3647.671v23.667h29.0342v11.7119H3647.671v26.5948h35.1338V1700.85Z"/><path class="q" d="M5017.7555,1274.8935h22.0332l-33.5352,89.1006c-5.3457,14.0948-13.6084,25.9209-29.16,25.9209a29.0527,29.0527,0,0,1-18.1445-5.67l9.8818-16.0381c2.5928,1.9434,4.5361,2.916,7.4521,2.916,3.24,0,6.9668-3.0781,10.2071-11.0166l2.2676-5.67h-6.48l-34.9922-79.543h23.6523l24.9483,58.4825h.4863Z"/><path class="q" d="M5067.1647,1274.8935h66.583v113.4014h-20.7363v-94.6094h-25.9209c0,58.6446-7.7754,95.419-33.21,95.419a29.5946,29.5946,0,0,1-11.6641-2.2676l3.8877-17.82a15.5427,15.5427,0,0,0,5.1836.9717c10.8545,0,15.877-22.3565,15.877-90.7207Z"/><path class="q" d="M5170.3561,1366.91a11.5025,11.5025,0,1,1-11.502,11.503A11.5475,11.5475,0,0,1,5170.3561,1366.91Z"/><path class="q" d="M5250.7887,1293.6855v25.92h14.0938c23.49,0,39.205,11.1787,39.205,34.3447s-15.5527,34.3447-39.205,34.3447h-34.83V1274.8935h66.4209l-3.24,18.792Zm0,44.7129v31.1045h13.1221c13.122,0,18.792-6.6426,18.792-15.5527,0-9.5576-5.5078-15.5518-18.9541-15.5518Z"/><path class="q" d="M5380.7116,1363.5088h-35.9639l-7.4522,24.7861h-21.8711l37.9092-113.4014h18.9541l37.9082,113.4014h-21.87Zm-30.4561-18.3067h24.9482l-12.15-41.1484h-.6475Z"/><path class="q" d="M5487.1432,1274.8935h22.0332l-33.5352,89.1006c-5.3457,14.0948-13.6084,25.9209-29.16,25.9209a29.0527,29.0527,0,0,1-18.1445-5.67l9.8818-16.0381c2.5928,1.9434,4.5361,2.916,7.4521,2.916,3.24,0,6.9668-3.0781,10.2071-11.0166l2.2675-5.67h-6.48l-34.9922-79.543h23.6523l24.9483,58.4825h.4863Z"/><path class="q" d="M5610.1012,1314.26h-.4863l-19.44,59.1308h-21.2216L5549.35,1314.26h-.4863l-6.8037,74.0351h-20.7363l10.53-113.4014h23.166l24.3008,72.9h.4864l24.3-72.9h23.166l10.53,113.4014H5617.067Z"/><path class="q" d="M5718.4782,1363.5088h-35.9639l-7.4522,24.7861H5653.191L5691.1,1274.8935h18.9541l37.9082,113.4014h-21.87Zm-30.4561-18.3067H5712.97l-12.15-41.1484h-.6475Z"/><path class="q" d="M5788.9459,1320.2539H5831.39v-45.36h20.7363v113.4014H5831.39v-49.249h-42.4444v49.249H5768.21V1274.8935h20.7363Z"/><path class="q" d="M5937.6608,1363.5088h-35.9639l-7.4521,24.7861h-21.8711l37.9091-113.4014h18.9541l37.9082,113.4014h-21.87Zm-30.4561-18.3067h24.9483l-12.15-41.1484h-.6475Z"/><path class="q" d="M4993.9606,1513.956c10.7353,2.5616,17.5674,9.3936,17.5674,21.2266,0,17.4453-13.0538,23.667-29.7666,23.667h-25.4971v-85.3955h25.4971c15.249,0,26.7168,5.6113,26.7168,20.4951,0,11.2227-6.71,17.4443-14.5176,19.5186Zm-24.5205-28.791V1509.32h11.4668c8.1738,0,13.9072-5.124,13.9072-12.3213,0-7.8076-5.002-11.834-14.3945-11.834Zm0,35.3789v26.5948h11.5888c10.4912,0,16.835-5.3682,16.835-13.542,0-8.6612-5.9775-13.0528-16.957-13.0528Z"/><path class="q" d="M5024.95,1558.85l28.5469-85.3955H5066.55l28.5469,85.3955H5081.068l-6.1006-19.8848h-30.01l-5.9785,19.8848Zm35.3789-67.95h-.61l-11.3457,36.72h23.18Z"/><path class="q" d="M5172.5651,1532.6211c0,16.2246-12.1992,27.4482-30.4981,27.4482s-30.499-11.2236-30.499-27.4482v-59.167h13.1758v58.5566c0,9.6377,6.5879,16.3477,17.3232,16.3477s17.3233-6.71,17.3233-16.3477v-58.5566h13.1748Z"/><path class="q" d="M5243.5709,1547.626h-12.8095l-17.3233-51.97h-.4883l-5.8554,63.1934h-13.1758l7.93-85.3955h16.2256l18.9091,56.1172h.3662l18.9083-56.1172h16.2255l7.93,85.3955h-13.1758l-5.8554-63.1934h-.4883Z"/><path class="q" d="M5293.8356,1558.85l28.5469-85.3955h13.0537l28.5468,85.3955h-14.03l-6.1-19.8848h-30.01l-5.9785,19.8848Zm35.3789-67.95h-.61l-11.3457,36.72h23.18Z"/><path class="q" d="M5431.4489,1537.0127h.4873v-63.5586h13.1757V1558.85h-14.1513l-36.2324-63.4365h-.4873V1558.85h-13.1758v-85.3955h14.1513Z"/><path class="q" d="M5462.193,1558.85l28.5469-85.3955h13.0537l28.5469,85.3955h-14.03l-6.1-19.8848h-30.01l-5.9785,19.8848Zm35.3789-67.95h-.61l-11.3457,36.72h23.18Z"/><path class="q" d="M4994.4489,1678.7685c0-8.4169-8.1739-13.0537-17.5674-16.7128-10.98-4.27-23.5449-10.4913-23.5449-24.6426,0-14.64,10.3691-23.18,27.6923-23.18,9.8819,0,17.2012,2.6846,24.3985,6.5879l-6.2217,10.37c-5.3672-3.1719-10.3691-5.2461-18.1768-5.2461-9.2714,0-14.0293,3.7822-14.0293,10.7354s8.418,11.4677,15.8594,14.3955c13.419,5.2461,25.2529,11.1015,25.2529,26.9609,0,15.127-10.6132,24.0322-29.7666,24.0322-11.7119,0-19.0312-2.6836-26.9609-7.5635l6.9541-10.7353a31.7835,31.7835,0,0,0,20.0068,6.5879C4987.861,1690.3584,4994.4489,1686.6982,4994.4489,1678.7685Z"/><path class="q" d="M5058.8639,1627.165V1700.85h-13.1758V1627.165h-25.375v-11.7109H5084.36l-2.4395,11.7109Z"/><path class="q" d="M5154.1422,1640.8281c0,13.1758-7.3193,21.1055-17.6885,23.9111l22.3243,36.11-14.2735,1.22-22.3242-36.11h-7.5635V1700.85H5101.441v-85.3955h25.9844C5142.1871,1615.4541,5154.1422,1624.1152,5154.1422,1640.8281Zm-39.5254-13.6631v27.083h12.1992c7.8077,0,13.6631-4.88,13.6631-13.42s-5.8554-13.6631-13.6631-13.6631Z"/><path class="q" d="M5177.0807,1700.85v-85.3955h48.31l-2.44,11.7109h-32.6943v23.667h29.0342v11.7119h-29.0342v26.5948H5225.39V1700.85Z"/><path class="q" d="M5248.5729,1700.85v-85.3955h48.31l-2.4395,11.7109h-32.6943v23.667h29.0341v11.7119h-29.0341v26.5948h35.1338V1700.85Z"/><path class="q" d="M5350.0758,1627.165V1700.85H5336.9V1627.165h-25.375v-11.7109h64.0469l-2.4394,11.7109Z"/><path class="q" d="M255.21,3543.3071v-84.7012H317.526v84.7012H302.0377v-70.665h-31.34v70.665Z"/><path class="q" d="M356.608,3513.5405v29.7666H341.12v-84.7012h27.71c16.0928,0,28.1934,9.3165,28.1934,27.4668s-12.1006,27.4678-28.1934,27.4678Zm0-40.8984v26.8623h11.9795c7.3809,0,12.3418-4.961,12.3418-13.4317s-4.9609-13.4306-12.3418-13.4306Z"/><path class="q" d="M411.5407,3508.2163v-13.4307h34.122l-2.42,13.4307Z"/><path class="q" d="M496.7233,3472.6421v70.665H481.1149v-70.665H456.5514v-14.0362h64.7353l-2.42,14.0362Z"/><path class="q" d="M602.96,3544.5171c-25.168,0-35.6953-19.1182-35.6953-43.5606s10.5273-43.56,35.6953-43.56,35.6963,19.1181,35.6963,43.56S628.1285,3544.5171,602.96,3544.5171Zm0-73.085c-13.7939,0-19.7236,12.9473-19.7236,29.5244s5.93,29.5244,19.7236,29.5244,19.7236-12.9472,19.7236-29.5244S616.7535,3471.4321,602.96,3471.4321Z"/><path class="q" d="M674.1071,3513.5405v29.7666H658.6188v-84.7012h27.71c16.0928,0,28.1934,9.3165,28.1934,27.4668s-12.1006,27.4678-28.1934,27.4678Zm0-40.8984v26.8623h11.98c7.3808,0,12.3418-4.961,12.3418-13.4317s-4.961-13.4306-12.3418-13.4306Z"/><path class="q" d="M737.8727,3561.0942H724.8043l-2.42-31.8232H731.46c9.1963-12.2217,12.3418-35.8164,12.3418-63.6475v-7.0176h51.91v70.6651h11.4951l-2.42,31.8232H791.7184v-17.7871H737.8727Zm42.3506-31.8232v-56.6289H758.9274v2.6621c0,21.0537-4.2354,41.9873-10.5274,53.9668Z"/><path class="q" d="M871.3366,3492.4858h5.2021l16.8193-33.88h18.03l-21.9023,40.7774,24.4433,43.9238-17.667,1.21-19.9648-37.9951h-4.9609v36.7851H855.8483V3506.522h-5.2032l-19.24,36.7851H813.2555l24.4424-43.9238-21.9014-40.7774h17.7871l17.0615,33.88h5.2032v-33.88h15.4883Z"/><path class="q" d="M959.9069,3544.5171c-25.168,0-35.6953-19.1182-35.6953-43.5606s10.5273-43.56,35.6953-43.56,35.6963,19.1181,35.6963,43.56S985.0758,3544.5171,959.9069,3544.5171Zm0-73.085c-13.794,0-19.7237,12.9473-19.7237,29.5244s5.93,29.5244,19.7237,29.5244,19.7236-12.9472,19.7236-29.5244S973.7008,3471.4321,959.9069,3471.4321Z"/><path class="q" d="M1011.9362,3508.2163v-13.4307h34.122l-2.42,13.4307Z"/><path class="q" d="M270.6979,3633.4858H302.4v-33.88h15.4883v84.7012H302.4V3647.522H270.6979v36.7851H255.21v-84.7012h15.4883Z"/><path class="q" d="M392.5436,3628.1626h-.3623l-37.7529,56.1445H341.4811v-84.7012h15.4883v56.2657h.3632l37.753-56.2657h12.9463v84.7012H392.5436Z"/><path class="q" d="M453.1627,3647.522h-6.05v36.7851H431.6246v-84.7012h15.4883v33.88h6.292l21.9014-33.88H492.61l-26.5,40.0518,29.041,44.6494-17.4248,1.21Z"/><path class="q" d="M560.1256,3628.1626h-.3623L522.01,3684.3071H509.0631v-84.7012h15.4883v56.2657h.3633l37.7529-56.2657h12.9463v84.7012H560.1256Z"/><path class="q" d="M604.41,3702.0942H591.3414l-2.42-31.8232h9.0752c9.1963-12.2217,12.3418-35.8164,12.3418-63.6475v-7.0176h51.91v70.6651h11.4951l-2.42,31.8232H658.2555v-17.7871H604.41ZM646.76,3670.271v-56.6289H625.4645v2.6621c0,21.0537-4.2354,41.9873-10.5274,53.9668Z"/><path class="q" d="M709.0739,3647.0386H698.5465V3633.97h10.4063c7.9863,0,13.0683-4.3564,13.0683-10.77,0-6.6553-5.2031-10.7686-13.0683-10.7686a39.8036,39.8036,0,0,0-17.3037,3.8721l-6.292-12.4639a51.8259,51.8259,0,0,1,24.2-5.4443c15.1259,0,28.3154,6.4131,28.3154,21.1748,0,11.1328-6.6553,17.7871-14.3994,19.8447v.3623c10.6474,2.3,17.4238,8.834,17.4238,20.5713,0,17.3027-14.1572,25.168-31.5811,25.168a48.3624,48.3624,0,0,1-25.8945-7.26l7.26-12.3428a36.9938,36.9938,0,0,0,18.6347,5.5664c9.0752,0,15.7295-4.7187,15.7295-12.2216C725.0455,3651.2739,718.8746,3647.0386,709.0739,3647.0386Z"/><path class="q" d="M760.2565,3684.3071v-84.7012h49.1269l-2.42,14.0362H775.7448v19.8437h27.5888v14.0362H775.7448v22.749h33.6386v14.0361Z"/><path class="q" d="M276.2506,3799.2349c-16.8467,0-23.4883-12.7969-23.4883-29.1573s6.6416-29.1582,23.4883-29.1582,23.4883,12.7979,23.4883,29.1582S293.0973,3799.2349,276.2506,3799.2349Zm0-50.54c-10.3672,0-14.417,9.3955-14.417,21.3828s4.05,21.3819,14.417,21.3819,14.417-9.3946,14.417-21.3819S286.6178,3748.6948,276.2506,3748.6948Z"/><path class="q" d="M349.3112,3758.5766c0,8.7471-4.8594,14.0118-11.7442,15.875l14.8223,23.9737-9.4766.81-14.8213-23.9737H323.07v23.1641h-8.7481V3741.73h17.252C341.3737,3741.73,349.3112,3747.48,349.3112,3758.5766Zm-26.2412-9.0712v17.98h8.0986c5.1836,0,9.0713-3.24,9.0713-8.9092s-3.8877-9.0712-9.0713-9.0712Z"/><path class="q" d="M364.5416,3798.4253V3741.73h18.0616c16.0371,0,23.165,11.8252,23.165,28.3476s-7.1279,28.3477-23.165,28.3477Zm8.7481-48.92V3790.65h9.3135c9.4765,0,14.0937-8.99,14.0937-20.5723s-4.6172-20.5722-14.0937-20.5722Z"/><path class="q" d="M444.4059,3749.8286l.081-.3232H417.111V3741.73h38.0674v7.1269l-28.9961,41.4688v.3242h28.9961l-1.62,7.7754H415.4909v-7.1279Z"/><path class="q" d="M476.0768,3765.2182h23.6494V3741.73h8.748v56.6953h-8.748v-25.4317H476.0768v25.4317h-8.7481V3741.73h8.7481Z"/><path class="q" d="M546.5446,3799.2349c-16.8467,0-23.4883-12.7969-23.4883-29.1573s6.6416-29.1582,23.4883-29.1582,23.4882,12.7979,23.4882,29.1582S563.3912,3799.2349,546.5446,3799.2349Zm0-50.54c-10.3672,0-14.417,9.3955-14.417,21.3828s4.05,21.3819,14.417,21.3819,14.417-9.3946,14.417-21.3819S556.9117,3748.6948,546.5446,3748.6948Z"/><path class="q" d="M618.067,3783.9272h.3233V3741.73h8.748v56.6953h-9.3955l-24.0557-42.1162h-.3232v42.1162h-8.748V3741.73h9.3955Z"/><path class="q" d="M641.72,3798.4253V3790.65h9.3145v-41.1445H641.72V3741.73h27.7813l-1.62,7.7754h-8.1V3790.65h9.3144v7.7754Z"/><path class="q" d="M704.3307,3768.5386l21.0586,29.8867-10.043.81-18.71-26.4034h-4.211v25.5938h-8.748V3741.73h8.748v23.6494H696.88l16.8467-23.6494h9.9619Z"/><path class="q" d="M733.4918,3798.4253V3790.65h9.3145v-41.1445h-9.3145V3741.73h27.7813l-1.62,7.7754h-8.1V3790.65h9.3144v7.7754Z"/><path class="q" d="M775.4489,3798.4253V3741.73H793.51c16.0371,0,23.165,11.8252,23.165,28.3476s-7.1279,28.3477-23.165,28.3477Zm8.748-48.92V3790.65H793.51c9.4765,0,14.0937-8.99,14.0937-20.5723s-4.6172-20.5722-14.0937-20.5722Z"/><path class="q" d="M855.3131,3749.8286l.0811-.3232h-27.376V3741.73h38.0664v7.1269L837.09,3790.3257v.3242h28.9951l-1.6191,7.7754H826.3981v-7.1279Z"/><path class="q" d="M878.2369,3798.4253V3741.73h32.0743l-1.62,7.7754H886.985v15.7128h19.2764v7.7754H886.985V3790.65h23.3262v7.7754Z"/><path class="q" d="M943.5231,3798.4253l18.9521-56.6953h8.666l18.9532,56.6953H980.78l-4.05-13.2022H956.8053l-3.9678,13.2022Zm23.4883-45.1133h-.4053l-7.5322,24.3789h15.3886Z"/><path class="q" d="M1030.4323,3741.73h9.5576l-17.6573,56.6953h-10.124L994.5524,3741.73h9.5566l12.959,44.6269h.3242Z"/><path class="q" d="M1050.1178,3798.4253V3741.73h32.0742l-1.62,7.7754h-21.706v15.7128h19.2763v7.7754h-19.2763V3790.65h23.3261v7.7754Z"/><path class="q" d="M1131.0348,3783.9272h.3232V3741.73h8.7481v56.6953h-9.3955l-24.0557-42.1162h-.3232v42.1162h-8.7481V3741.73h9.3955Z"/><path class="q" d="M1197.2086,3781.0112c0,10.7725-8.0986,18.2237-20.248,18.2237s-20.2481-7.4512-20.2481-18.2237V3741.73h8.7471v38.8769c0,6.3985,4.374,10.8526,11.501,10.8526s11.501-4.4541,11.501-10.8526V3741.73h8.747Z"/><path class="q" d="M1213.817,3798.4253V3741.73h32.0742l-1.62,7.7754h-21.706v15.7128h19.2763v7.7754h-19.2763V3790.65h23.3261v7.7754Z"/><path class="a" d="M599.2252,2582.8862c-28.35,0-54.9992,9.6387-79.9472,24.9483l-33.4532-57.2676c45.36-24.3809,77.6792-33.4531,124.1734-33.4531,69.7412,0,112.8332,39.69,112.8332,108.8642,0,87.3184-75.4111,170.668-144.5852,225.667v2.2676H734.1715l-11.34,65.7724H479.0209v-60.1025c77.6792-58.4,170.6675-150.2549,170.6675-226.2334C649.6884,2602.1645,632.1112,2582.8862,599.2252,2582.8862Z"/><path class="a" d="M1036.9481,2522.7837l-11.34,65.7724H890.0946v73.71c9.0723-1.7,19.2783-3.4014,28.35-3.4014,72.5762,0,133.2451,43.0918,133.2451,133.2452,0,87.3183-65.2051,133.2451-137.2138,133.2451-49.8965,0-85.6175-13.041-117.9366-33.4532l35.1543-57.2666c22.68,14.7413,46.4942,24.9473,78.813,24.9473,35.7212,0,68.04-22.1123,68.04-67.4726,0-45.9268-35.1538-69.7413-74.2769-69.7413-45.9272,0-85.05,16.4434-85.05,16.4434V2522.7837Z"/><path class="a" d="M455.611,3130.9043h46.1709l-3.2393,15.5527h-68.042v-13.9326c22.1944-16.6865,50.3828-46.1709,50.3828-67.8789,0-10.8545-5.3457-17.6582-16.8476-17.6582-8.7481,0-16.2,2.916-23.8145,7.6143l-7.7763-13.6084c12.96-6.9659,21.3847-9.5586,34.6689-9.5586,19.9258,0,31.4287,11.3408,31.4287,31.1045,0,24.9492-23.167,52.0029-42.9316,67.7177Z"/><path class="a" d="M568.525,3033.0547v97.85H594.77v15.5527H521.8688v-15.5527h29.6465v-82.2969H524.2985l3.24-15.5527Z"/><path class="a" d="M815.2535,3052.333l11.1788-11.1777,48.6,48.6005-48.6,48.6006-11.1788-11.1777,29.3223-28.8369v-.4854H655.6813v-16.2011H844.5758v-.4854Z"/><path class="a" d="M963.6432,3130.9043h46.1709l-3.24,15.5527H938.5328v-13.9326c22.1944-16.6865,50.3829-46.1709,50.3829-67.8789,0-10.8545-5.3457-17.6582-16.8477-17.6582-8.748,0-16.2,2.916-23.8145,7.6143l-7.7763-13.6084c12.96-6.9659,21.3847-9.5586,34.6689-9.5586,19.9258,0,31.4278,11.3408,31.4278,31.1045,0,24.9492-23.1661,52.0029-42.9307,67.7177Z"/><path class="a" d="M1082.7135,3110.0058c0-15.2275-10.8535-23.166-23.6523-23.166a57.2706,57.2706,0,0,0-23.49,4.86v-58.6455H1096.16l-3.24,15.5527h-40.3379v24.3a55.4236,55.4236,0,0,1,10.0439-.9717c20.7363,0,37.7461,12.3125,37.7461,38.07,0,24.9493-17.82,38.0713-38.3945,38.0713-14.2559,0-23.6524-3.7265-32.8867-9.5586l8.2627-13.6084c6.8037,4.5362,13.4462,7.6143,23.49,7.6143C1072.67,3132.5244,1082.7135,3125.2344,1082.7135,3110.0058Z"/><path class="q" d="M1884.9611,3458.6055h16.456l-25.0469,66.5507c-3.9931,10.5274-10.164,19.36-21.78,19.36a21.7,21.7,0,0,1-13.5528-4.2354l7.3819-11.9785c1.9355,1.4512,3.3877,2.1778,5.5654,2.1778,2.42,0,5.2031-2.2989,7.6231-8.2286l1.6943-4.2343h-4.84l-26.1367-59.4121h17.666l18.6348,43.6816h.3633Z"/><path class="q" d="M1921.8654,3458.6055h49.7324v84.7011H1956.11v-70.665h-19.3613c0,43.8027-5.8076,71.2705-24.8047,71.2705a22.1165,22.1165,0,0,1-8.7129-1.6943l2.9043-13.3106a11.6092,11.6092,0,0,0,3.8721.7266c8.1074,0,11.8584-16.6983,11.8584-67.7617Z"/><path class="q" d="M1998.9406,3527.334a8.5913,8.5913,0,1,1-8.5909,8.5918A8.6243,8.6243,0,0,1,1998.9406,3527.334Z"/><path class="q" d="M2082.7326,3543.3066v-33.76a50.1629,50.1629,0,0,1-14.8838,2.6621c-17.9082,0-26.7412-7.8653-26.7412-25.41v-28.1933h15.4882v28.1933c0,8.47,5.0821,11.374,12.4629,11.374a39.1942,39.1942,0,0,0,13.6739-2.6621v-36.9052h15.4882v84.7011Z"/><path class="q" d="M2121.8146,3543.3066v-84.7011h49.1269l-2.42,14.0361h-31.2187v19.8437h27.5888v14.0362h-27.5888v22.749h33.6386v14.0361Z"/><path class="q" d="M2207.6036,3513.54v29.7666h-15.4882v-84.7011h27.71c16.0928,0,28.1934,9.3164,28.1934,27.4668s-12.1006,27.4677-28.1934,27.4677Zm0-40.8984v26.8623h11.9795c7.3809,0,12.3418-4.9609,12.3418-13.4316s-4.9609-13.4307-12.3418-13.4307Z"/><path class="q" d="M2281.6544,3492.4853h31.7022v-33.88h15.4883v84.7011h-15.4883v-36.7851h-31.7022v36.7851h-15.4883v-84.7011h15.4883Z"/><path class="q" d="M2367.9259,3458.6055v32.9121h8.2285c17.5449,0,29.2823,8.5908,29.2823,25.8945s-11.6163,25.8945-29.2823,25.8945h-23.7168v-84.7011Zm0,46.9482v23.7168h7.502c9.8017,0,14.0361-5.082,14.0361-11.8584,0-7.1387-4.1133-11.8584-14.1572-11.8584Zm61.9531-46.9482v84.7011h-15.4882v-84.7011Z"/><path class="q" d="M2468.9611,3529.2705h21.5381v-70.665h15.4882v70.665h21.5391v-70.665h15.4883v84.7011h-89.542v-84.7011h15.4883Z"/><path class="q" d="M2566.6056,3543.3066v-84.7011h49.127l-2.42,14.0361h-31.2187v19.8437h27.5888v14.0362h-27.5888v22.749h33.6387v14.0361Z"/><path class="q" d="M2636.9074,3543.3066v-84.7011h26.499c15.126,0,26.5,5.5654,26.5,20.3281,0,11.1318-6.6553,17.3027-14.3994,19.36v.4834c10.6484,2.542,17.4248,9.3174,17.4248,21.0547,0,17.3037-12.9473,23.4746-29.5254,23.4746Zm25.6523-70.665h-10.1641v20.4492H2662.56c7.3809,0,11.374-4.1142,11.374-10.2851S2669.9406,3472.6416,2662.56,3472.6416Zm.1211,33.76h-10.2852v22.8691h10.2852c8.9541,0,14.2783-4.4775,14.2783-11.1318C2676.9591,3510.3945,2671.6349,3506.4014,2662.6808,3506.4014Z"/><path class="q" d="M2709.2648,3508.2158v-13.4307h34.122l-2.42,13.4307Z"/><path class="q" d="M1898.8761,3678.9824c-7.623,4.3565-14.0361,6.5342-23.5947,6.5342-25.169,0-36.3008-19.1182-36.3008-43.5606s11.1318-43.5605,36.3008-43.5605a43.7321,43.7321,0,0,1,22.1435,5.4443l-6.1718,12.4639a35.5053,35.5053,0,0,0-15.9717-3.8721c-13.7949,0-20.3291,12.9473-20.3291,29.5244s6.5342,29.5245,20.3291,29.5245a34.3012,34.3012,0,0,0,17.3027-4.84Z"/><path class="q" d="M1938.5636,3647.5215h-6.05v36.7851h-15.4883v-84.7011h15.4883v33.88h6.292l21.9014-33.88h17.3037l-26.5,40.0517,29.041,44.6494-17.4248,1.21Z"/><path class="q" d="M2026.5294,3685.5166c-25.1679,0-35.6953-19.1182-35.6953-43.5606s10.5274-43.5605,35.6953-43.5605,35.6963,19.1182,35.6963,43.5605S2051.6984,3685.5166,2026.5294,3685.5166Zm0-73.085c-13.7939,0-19.7236,12.9473-19.7236,29.5244s5.93,29.5245,19.7236,29.5245,19.7237-12.9473,19.7237-29.5245S2040.3243,3612.4316,2026.5294,3612.4316Z"/><path class="q" d="M2097.6769,3613.6416v70.665h-15.4883v-84.7011H2130.59l-2.4209,14.0361Z"/><path class="q" d="M2172.9376,3685.5166c-25.1679,0-35.6953-19.1182-35.6953-43.5606s10.5274-43.5605,35.6953-43.5605,35.6963,19.1182,35.6963,43.5605S2198.1066,3685.5166,2172.9376,3685.5166Zm0-73.085c-13.7939,0-19.7236,12.9473-19.7236,29.5244s5.93,29.5245,19.7236,29.5245,19.7237-12.9473,19.7237-29.5245S2186.7326,3612.4316,2172.9376,3612.4316Z"/><path class="q" d="M1849.235,3769.2954c0,11.9873,4.05,21.3818,14.417,21.3818a24.5178,24.5178,0,0,0,12.3926-3.4824l3.4013,6.8848a28.9447,28.9447,0,0,1-15.7939,4.373c-16.8467,0-23.4883-12.7969-23.4883-29.1572s6.6416-29.1582,23.4883-29.1582a29.2676,29.2676,0,0,1,14.8222,3.6455l-3.4023,6.8838a24.8371,24.8371,0,0,0-11.42-2.7539C1853.2848,3747.9126,1849.235,3757.3081,1849.235,3769.2954Z"/><path class="q" d="M1901.5612,3764.436h23.6494v-23.4883h8.748v56.6954h-8.748v-25.4317h-23.6494v25.4317h-8.7481v-56.6954h8.7481Z"/><path class="q" d="M1950.97,3797.6431v-56.6954h32.0743l-1.62,7.7754h-21.706v15.7129h19.2764v7.7754h-19.2764v17.6563h23.3262v7.7754Z"/><path class="q" d="M2033.4254,3757.7944c0,8.7471-4.8594,14.0117-11.7441,15.875l14.8222,23.9737-9.4765.81-14.8213-23.9736h-5.0215v23.1641h-8.748v-56.6954h17.2519C2025.4879,3740.9477,2033.4254,3746.6977,2033.4254,3757.7944Zm-26.2412-9.0713v17.98h8.0986c5.1836,0,9.0713-3.24,9.0713-8.9092s-3.8877-9.0713-9.0713-9.0713Z"/><path class="q" d="M2082.1071,3783.145h.3232v-42.1973h8.7481v56.6954h-9.3956l-24.0556-42.1163h-.3233v42.1163h-8.748v-56.6954h9.3955Z"/><path class="q" d="M2136.2955,3740.9477h10.2051l-18.2236,33.045v23.65H2119.53v-23.65l-18.2236-33.045h10.2051l12.1484,23.6495h.3242Z"/><path class="q" d="M2181.9791,3782.9829c0-5.5879-5.4267-8.666-11.6631-11.0957-7.29-2.835-15.6318-6.9658-15.6318-16.36,0-9.72,6.8848-15.39,18.3858-15.39a32.1191,32.1191,0,0,1,16.1982,4.374l-4.1309,6.8848a21.657,21.657,0,0,0-12.0673-3.4834c-6.1563,0-9.3145,2.5107-9.3145,7.1279s5.5889,7.6133,10.5293,9.5567c8.9092,3.4834,16.7656,7.371,16.7656,17.9,0,10.043-7.0469,15.9551-19.7627,15.9551a30.932,30.932,0,0,1-17.8994-5.0215l4.6162-7.1269a21.1006,21.1006,0,0,0,13.2832,4.373C2177.6051,3790.6772,2181.9791,3788.2475,2181.9791,3782.9829Z"/><path class="q" d="M2213.569,3764.436h23.6494v-23.4883h8.748v56.6954h-8.748v-25.4317H2213.569v25.4317h-8.7481v-56.6954h8.7481Z"/><path class="q" d="M2262.9782,3797.6431v-56.6954h32.0742l-1.62,7.7754h-21.7061v15.7129h19.2764v7.7754h-19.2764v17.6563h23.3262v7.7754Z"/><path class="q" d="M2339.44,3740.9477h9.5576l-17.6572,56.6954h-10.1241l-17.6562-56.6954h9.5566l12.959,44.627h.3242Z"/><path class="q" d="M2384.4762,3782.9829c0-5.5879-5.4268-8.666-11.6631-11.0957-7.29-2.835-15.6318-6.9658-15.6318-16.36,0-9.72,6.8847-15.39,18.3857-15.39a32.12,32.12,0,0,1,16.1983,4.374l-4.1309,6.8848a21.6574,21.6574,0,0,0-12.0674-3.4834c-6.1562,0-9.3144,2.5107-9.3144,7.1279s5.5888,7.6133,10.5293,9.5567c8.9091,3.4834,16.7656,7.371,16.7656,17.9,0,10.043-7.0469,15.9551-19.7627,15.9551a30.9318,30.9318,0,0,1-17.8994-5.0215l4.6162-7.1269a21.1006,21.1006,0,0,0,13.2832,4.373C2380.1022,3790.6772,2384.4762,3788.2475,2384.4762,3782.9829Z"/><path class="q" d="M2427.9723,3767.7563l21.0586,29.8868-10.043.81-18.71-26.4033h-4.211v25.5938h-8.748v-56.6954h8.748v23.6495h4.4541l16.8467-23.6495h9.9619Z"/><path class="q" d="M2480.6217,3798.4526c-16.8467,0-23.4883-12.7969-23.4883-29.1572s6.6416-29.1582,23.4883-29.1582,23.4883,12.7978,23.4883,29.1582S2497.4684,3798.4526,2480.6217,3798.4526Zm0-50.54c-10.3672,0-14.417,9.3955-14.417,21.3828s4.05,21.3818,14.417,21.3818,14.417-9.3945,14.417-21.3818S2490.9889,3747.9126,2480.6217,3747.9126Z"/><path class="q" d="M2525.3346,3769.2954c0,11.9873,4.374,21.3818,15.0654,21.3818a19.8867,19.8867,0,0,0,8.18-1.5381v-14.4169h-9.9619v-7.6133H2556.76v26.16a26.2134,26.2134,0,0,1-16.6846,5.1836c-16.8467,0-23.8125-12.7969-23.8125-29.1572s6.9658-29.1582,23.8125-29.1582a30.71,30.71,0,0,1,15.3887,3.6455l-3.4824,7.0459a24.9137,24.9137,0,0,0-11.9063-2.916C2529.7086,3747.9126,2525.3346,3757.3081,2525.3346,3769.2954Z"/><path class="q" d="M2592.8063,3798.4526c-16.8467,0-23.4883-12.7969-23.4883-29.1572s6.6416-29.1582,23.4883-29.1582,23.4883,12.7978,23.4883,29.1582S2609.653,3798.4526,2592.8063,3798.4526Zm0-50.54c-10.3672,0-14.417,9.3955-14.417,21.3828s4.05,21.3818,14.417,21.3818,14.417-9.3945,14.417-21.3818S2603.1735,3747.9126,2592.8063,3747.9126Z"/><path class="q" d="M1867.945,3896.9829c0-5.5879-5.4268-8.666-11.6631-11.0957-7.29-2.835-15.6319-6.9658-15.6319-16.36,0-9.72,6.8848-15.39,18.3858-15.39a32.1191,32.1191,0,0,1,16.1982,4.374l-4.1308,6.8848a21.6574,21.6574,0,0,0-12.0674-3.4834c-6.1563,0-9.3145,2.5107-9.3145,7.1279s5.5889,7.6133,10.5293,9.5567c8.9092,3.4834,16.7656,7.371,16.7656,17.9,0,10.043-7.0468,15.9551-19.7627,15.9551a30.9323,30.9323,0,0,1-17.8994-5.0215l4.6162-7.1269a21.1006,21.1006,0,0,0,13.2832,4.373C1863.5709,3904.6772,1867.945,3902.2475,1867.945,3896.9829Z"/><path class="q" d="M1910.7125,3862.7231v48.92h-8.747v-48.92h-16.8467v-7.7754H1927.64l-1.62,7.7754Z"/><path class="q" d="M1973.97,3871.7944c0,8.7471-4.8593,14.0117-11.7441,15.875l14.8223,23.9737-9.4766.81-14.8213-23.9736h-5.0215v23.1641h-8.748v-56.6954h17.2519C1966.0328,3854.9477,1973.97,3860.6977,1973.97,3871.7944Zm-26.2412-9.0713v17.98h8.0987c5.1836,0,9.0713-3.24,9.0713-8.9092s-3.8877-9.0713-9.0713-9.0713Z"/><path class="q" d="M1989.2008,3911.6431v-56.6954h32.0742l-1.62,7.7754h-21.706v15.7129h19.2763v7.7754h-19.2763v17.6563h23.3261v7.7754Z"/><path class="q" d="M2036.6666,3911.6431v-56.6954h32.0743l-1.62,7.7754h-21.706v15.7129h19.2763v7.7754h-19.2763v17.6563h23.3262v7.7754Z"/><path class="q" d="M2104.0582,3862.7231v48.92h-8.747v-48.92h-16.8467v-7.7754h42.5215l-1.62,7.7754Z"/><rect class="r" x="1757.4803" y="2352.7559" width="1190.5512" height="907.0866" rx="70.8661"/><path class="a" d="M2397.5612,2564.6074H2195.7045l12.16-70.5283h270.561v64.4482l-151.3926,361.1534h-81.4721Z"/><path class="a" d="M2141.7521,3033.0527v97.85h26.2441v15.5523h-72.9009v-15.5523h29.6465V3048.605h-27.2163l3.24-15.5523Z"/><path class="a" d="M2388.48,3052.331l11.1777-11.1782,48.6011,48.6011-48.6011,48.6006-11.1777-11.1782,29.3223-28.8365v-.4858h-188.895v-16.2h188.895v-.4863Z"/><path class="a" d="M2563.276,3096.5576c-5.1841,4.86-12.312,6.9663-20.5742,6.9663-19.2783,0-32.5625-12.7983-32.5625-35.6406,0-22.1943,15.7143-36.4507,36.9365-36.4507,22.8423,0,36.7749,15.3906,36.7749,41.6348,0,40.5005-22.6806,65.2871-56.2153,75.0073l-6.1558-13.2842c19.2783-7.29,36.9365-18.3066,42.2827-37.9087Zm-16.2-49.5727c-11.0161,0-19.44,7.4521-19.44,20.8984s8.4243,20.8984,19.44,20.8984c8.2622,0,16.2-5.67,19.6026-14.0942C2566.6784,3058.4873,2559.55,3046.9849,2547.0758,3046.9849Z"/><rect class="s" x="4903.9371" y="2352.7559" width="1190.5512" height="907.0866" rx="70.8661"/><path class="a" d="M5387.5158,2466.0845v331.1289h89.0195v65.7724H5215.714v-65.7724h100.9268V2531.8569h-92.4214l11.34-65.7724Z"/><path class="a" d="M5657.9728,2868.6557c-87.3174,0-141.75-69.7412-141.75-204.12s54.4326-204.1211,141.75-204.1211,141.751,69.7412,141.751,204.1211S5745.2911,2868.6557,5657.9728,2868.6557Zm0-65.7724c39.123,0,68.6074-40.8233,68.6074-138.3477s-29.4844-138.3486-68.6074-138.3486-68.6065,40.8242-68.6065,138.3486S5618.85,2802.8833,5657.9728,2802.8833Z"/><path class="a" d="M5147.6681,3087.3594h-11.0547v59.0952h-27.7392V3005.7519h27.7392v54.271h11.457l31.5577-54.271h32.5625l-41.0049,67.5372,45.2256,73.1655-32.9649,2.01Z"/><path class="a" d="M5301.8341,3148.4648c-42.8144,0-60.3017-30.5527-60.3017-72.3618s17.4873-72.3613,60.3017-72.3613,60.3008,30.5527,60.3008,72.3613S5344.6476,3148.4648,5301.8341,3148.4648Zm0-117.3867c-20.3017,0-29.749,18.6934-29.749,45.0249s9.4473,45.0249,29.749,45.0249,29.7481-18.6933,29.7481-45.0249S5322.1349,3031.0781,5301.8341,3031.0781Z"/><path class="a" d="M5433.0861,3099.0176v47.437H5403.337V3005.7519h48.04c26.7334,0,46.834,16.482,46.834,46.6329s-20.1006,46.6328-46.834,46.6328Zm16.8838-27.3365c9.85,0,17.4873-7.2363,17.4873-19.2963s-7.6377-19.2964-17.4873-19.2964h-16.8838v38.5927Z"/><path class="a" d="M5536.3966,3146.4546V3005.7519H5641.924v140.7027h-29.7491V3033.0884h-46.0293v113.3662Z"/><path class="a" d="M5696.3927,3117.9121a15.2764,15.2764,0,1,1-15.2764,15.2764A15.5342,15.5342,0,0,1,5696.3927,3117.9121Z"/><path class="a" d="M5851.9669,3005.7519v113.3663h31.5576v27.3364h-94.4716v-27.3364h33.7685v-86.03h-30.7539l4.02-27.3365Z"/></svg>