<?xml version="1.0" encoding="UTF-8"?><svg id="a" xmlns="http://www.w3.org/2000/svg" xmlns:xlink="http://www.w3.org/1999/xlink" viewBox="0 0 491 439.416"><defs><style>.i{fill:#56617d;}.i,.j,.k,.l,.m,.n,.o,.p,.q{stroke-width:0px;}.i,.j,.k,.l,.m,.n,.o,.q{isolation:isolate;}.i,.q{opacity:.2;}.r{stroke-width:2px;}.r,.s{fill:none;stroke:#56617d;stroke-linecap:round;stroke-linejoin:round;}.t{opacity:.5;}.j{fill:url(#c);}.j,.k,.l,.m,.n,.o{opacity:.69;}.k{fill:url(#b);}.l{fill:url(#f);}.m{fill:url(#d);}.n{fill:url(#e);}.o{fill:url(#g);}.s{stroke-width:.8px;}.p{fill:#f29100;}.q{fill:url(#h);}</style><linearGradient id="b" x1="264.693" y1="167.532" x2="398.654" y2="167.532" gradientTransform="translate(0 368) scale(1 -1)" gradientUnits="userSpaceOnUse"><stop offset="0" stop-color="#fff"/><stop offset=".188" stop-color="#fcfcfb" stop-opacity=".898"/><stop offset=".744" stop-color="#f3f3f0" stop-opacity=".613"/><stop offset="1" stop-color="#f0efeb" stop-opacity=".5"/></linearGradient><linearGradient id="c" x1="308.532" y1="124.576" x2="398.654" y2="124.576" gradientTransform="translate(0 368) scale(1 -1)" gradientUnits="userSpaceOnUse"><stop offset="0" stop-color="#fff"/><stop offset=".188" stop-color="#fcfcfb" stop-opacity=".898"/><stop offset=".744" stop-color="#f3f3f0" stop-opacity=".613"/><stop offset="1" stop-color="#f0efeb" stop-opacity=".5"/></linearGradient><linearGradient id="d" x1="9.674" y1="82.016" x2="94.502" y2="82.016" gradientTransform="translate(0 368) scale(1 -1)" gradientUnits="userSpaceOnUse"><stop offset="0" stop-color="#fff"/><stop offset=".188" stop-color="#fcfcfb" stop-opacity=".898"/><stop offset=".744" stop-color="#f3f3f0" stop-opacity=".613"/><stop offset="1" stop-color="#f0efeb" stop-opacity=".5"/></linearGradient><linearGradient id="e" x1="110.275" y1="135.023" x2="195.103" y2="135.023" gradientTransform="translate(0 368) scale(1 -1)" gradientUnits="userSpaceOnUse"><stop offset="0" stop-color="#fff"/><stop offset=".188" stop-color="#fcfcfb" stop-opacity=".898"/><stop offset=".744" stop-color="#f3f3f0" stop-opacity=".613"/><stop offset="1" stop-color="#f0efeb" stop-opacity=".5"/></linearGradient><linearGradient id="f" x1="9.674" y1="135.429" x2="94.502" y2="135.429" gradientTransform="translate(0 368) scale(1 -1)" gradientUnits="userSpaceOnUse"><stop offset="0" stop-color="#fff"/><stop offset=".188" stop-color="#fcfcfb" stop-opacity=".898"/><stop offset=".744" stop-color="#f3f3f0" stop-opacity=".613"/><stop offset="1" stop-color="#f0efeb" stop-opacity=".5"/></linearGradient><linearGradient id="g" x1="110.275" y1="217.962" x2="185.446" y2="217.962" gradientTransform="translate(0 368) scale(1 -1)" gradientUnits="userSpaceOnUse"><stop offset="0" stop-color="#fff"/><stop offset=".188" stop-color="#fcfcfb" stop-opacity=".898"/><stop offset=".744" stop-color="#f3f3f0" stop-opacity=".613"/><stop offset="1" stop-color="#f0efeb" stop-opacity=".5"/></linearGradient><linearGradient id="h" x1="204.429" y1="228.825" x2="204.429" y2="278.307" gradientTransform="translate(0 368) scale(1 -1)" gradientUnits="userSpaceOnUse"><stop offset="0" stop-color="#56617d" stop-opacity=".2"/><stop offset=".242" stop-color="#56617d" stop-opacity=".359"/><stop offset=".734" stop-color="#56617d" stop-opacity=".767"/><stop offset=".991" stop-color="#56617d"/></linearGradient></defs><rect class="i" x="264.475" y="111.563" width="133.964" height="176.03"/><rect class="i" x="110.49" y="111.563" width="84.831" height="233.733"/><rect class="i" x="9.887" y="111.563" width="84.831" height="233.733"/><path class="k" d="m398.654,112.452v56.66l-35.324,35.335-.227.227-.033.032-83.777,83.778h-14.6v-79.653l96.379-96.379h37.582Z"/><polygon class="j" points="398.654 198.363 398.654 217.437 327.617 288.484 308.532 288.484 398.654 198.363"/><polygon class="m" points="9.674 310.612 94.502 225.784 94.502 346.184 9.674 346.184 9.674 310.612"/><polygon class="n" points="195.103 125.183 195.103 255.954 110.275 340.771 110.275 210.011 195.103 125.183"/><polygon class="l" points="9.674 261.756 94.502 176.928 94.502 203.397 9.674 288.214 9.674 261.756"/><polygon class="o" points="185.446 112.452 110.275 187.624 110.275 161.156 158.978 112.452 185.446 112.452"/><path class="q" d="m376.483,89.693c-13.452,3.882-22.56,2.132-31.374,0-13.452,3.882-22.56,2.132-31.373,0-13.453,3.882-22.561,2.132-31.374,0-13.183,3.805-22.193,2.2-30.843.126-13.19,3.7-22.194,1.981-30.9-.126-13.453,3.882-22.561,2.132-31.374,0-13.452,3.882-22.56,2.132-31.374,0-13.452,3.882-22.56,2.132-31.374,0-13.452,3.882-22.56,2.132-31.374,0-13.452,3.882-22.56,2.132-31.373,0-13.453,3.882-22.561,2.132-31.374,0-13.452,3.882-22.56,2.132-31.374,0v47.18c8.814,2.132,17.922,3.883,31.374,0,8.813,2.132,17.921,3.883,31.374,0,8.813,2.132,17.921,3.883,31.373,0,8.814,2.132,17.922,3.883,31.374,0,8.814,2.132,17.922,3.883,31.374,0,8.814,2.132,17.922,3.883,31.374,0,8.813,2.132,17.921,3.883,31.374,0,8.708,2.107,17.712,3.831,30.9.126,8.65,2.073,17.66,3.679,30.843-.126,8.813,2.132,17.921,3.883,31.374,0,8.813,2.132,17.921,3.883,31.373,0,8.814,2.132,17.922,3.883,31.374,0,8.814,2.132,17.922,3.883,31.374,0v-7.927h0v-39.253c-13.452,3.882-22.557,2.132-31.374,0Z"/><path class="p" d="m407.857,1H1v88.693c8.814,2.132,17.922,3.882,31.374,0,8.813,2.132,17.921,3.882,31.374,0,8.813,2.132,17.921,3.882,31.373,0,8.814,2.132,17.922,3.882,31.374,0,8.814,2.132,17.922,3.882,31.374,0,8.814,2.132,17.922,3.882,31.374,0,8.813,2.132,17.921,3.882,31.374,0,8.708,2.107,17.712,3.831,30.9.126,8.65,2.073,17.66,3.679,30.843-.126,8.813,2.132,17.921,3.882,31.374,0,8.813,2.132,17.921,3.882,31.373,0,8.814,2.132,17.922,3.882,31.374,0,8.814,2.132,17.922,3.882,31.374,0v-7.927h0l.002-80.766Z"/><g class="t"><rect class="r" x="1" y="101.333" width="203.234" height="255.319"/><rect class="r" x="255.663" y="101.269" width="152.194" height="197.362"/><rect class="s" x="264.866" y="111.61" width="133.787" height="176.681"/><rect class="s" x="110.062" y="111.546" width="85.112" height="234.638"/><rect class="s" x="9.127" y="111.546" width="85.112" height="234.638"/><line class="s" x1="102.363" y1="101.333" x2="102.363" y2="356.652"/><rect class="s" x="105.735" y="140.907" width="1.956" height="170.043"/><rect class="s" x="97.323" y="140.907" width="1.956" height="170.043"/><line class="s" x1="1" y1="356.652" x2="407.857" y2="356.652"/><line class="s" x1="1" y1="365.503" x2="407.857" y2="365.503"/></g><g class="t"><path class="r" d="m407.857,1H1v88.693c8.814,2.132,17.922,3.882,31.374,0,8.813,2.132,17.921,3.882,31.374,0,8.813,2.132,17.921,3.882,31.373,0,8.814,2.132,17.922,3.882,31.374,0,8.814,2.132,17.922,3.882,31.374,0,8.814,2.132,17.922,3.882,31.374,0,8.813,2.132,17.921,3.882,31.374,0,8.708,2.107,17.712,3.831,30.9.126,8.65,2.073,17.66,3.679,30.843-.126,8.813,2.132,17.921,3.882,31.374,0,8.813,2.132,17.921,3.882,31.373,0,8.814,2.132,17.922,3.882,31.374,0,8.814,2.132,17.922,3.882,31.374,0v-7.927h0l.002-80.766Z"/><line class="s" x1="1" y1="77.919" x2="407.857" y2="77.919"/><line class="s" x1="376.483" y1="89.693" x2="376.483" y2="77.919"/><line class="s" x1="345.109" y1="89.693" x2="345.109" y2="77.919"/><line class="s" x1="313.511" y1="89.693" x2="313.511" y2="77.919"/><line class="s" x1="283.119" y1="89.693" x2="283.119" y2="77.919"/><line class="s" x1="251.745" y1="89.693" x2="251.745" y2="77.919"/><line class="s" x1="220.146" y1="89.693" x2="220.146" y2="77.919"/><line class="s" x1="188.231" y1="89.693" x2="188.231" y2="77.919"/><line class="s" x1="156.857" y1="89.693" x2="156.857" y2="77.919"/><line class="s" x1="125.258" y1="89.693" x2="125.258" y2="77.919"/><line class="s" x1="94.866" y1="89.693" x2="94.866" y2="77.919"/><line class="s" x1="63.492" y1="89.693" x2="63.492" y2="77.919"/><line class="s" x1="31.894" y1="89.693" x2="31.894" y2="77.919"/></g><path class="i" d="m1,77.919v11.774c8.814,2.132,17.922,3.882,31.374,0,8.813,2.132,17.921,3.882,31.374,0,8.813,2.132,17.921,3.882,31.373,0,8.814,2.132,17.922,3.882,31.374,0,8.814,2.132,17.922,3.882,31.374,0,8.814,2.132,17.922,3.882,31.374,0,8.813,2.132,17.921,3.882,31.374,0,8.708,2.106,17.712,3.831,30.9.126,8.65,2.073,17.66,3.678,30.843-.126,8.813,2.132,17.921,3.882,31.374,0,8.813,2.132,17.921,3.882,31.373,0,8.814,2.132,17.922,3.882,31.374,0,8.814,2.132,17.922,3.882,31.374,0v-7.927h0v-3.847H1Z"/></svg>