<svg xmlns="http://www.w3.org/2000/svg" viewBox="0 0 205 200"><defs><style>.a{fill:#556926;}.b{fill:#908a22;}.c{fill:#e2d030;}</style></defs><path class="a" d="M85.6,197.34c2.81-1.52,1.61-9.26-2.67-17.29s-10-13.32-12.83-11.8-1.61,9.26,2.67,17.29,10,13.31,12.83,11.8"/><path class="a" d="M67.8,164.76c2.88.05,5.82,7.75,6.57,17.19s-1,17.07-3.84,17-5.82-7.74-6.57-17.18,1-17.06,3.84-17"/><path class="b" d="M66.37,165.82c1.34-2.41,9.2-.17,17.56,5s14,11.33,12.71,13.75-9.2.17-17.56-5S65,168.24,66.37,165.82"/><path class="a" d="M57.94,160.26C57,162.9,63.53,168.17,72.47,172s17,4.87,17.87,2.24-5.58-7.91-14.53-11.77-16.94-4.88-17.87-2.25"/><path class="b" d="M60.33,159.32c-2.88-.29-5.26,7.09-5.3,16.49s2.26,17.26,5.14,17.54,5.26-7.09,5.31-16.48-2.26-17.25-5.15-17.55"/><path class="a" d="M52.41,149.91c2.87.05,5.82,7.75,6.57,17.19s-1,17.07-3.84,17-5.82-7.74-6.57-17.18,1-17.06,3.84-17"/><path class="b" d="M51,151c1.35-2.41,9.21-.17,17.57,5s14,11.33,12.71,13.75-9.2.17-17.57-5S49.63,153.39,51,151"/><path class="a" d="M42.55,145.41c-.92,2.64,5.59,7.91,14.53,11.78s17,4.87,17.87,2.24-5.58-7.91-14.53-11.78-16.94-4.87-17.87-2.24"/><path class="b" d="M44.94,144.47c-2.89-.29-5.26,7.09-5.3,16.49s2.26,17.26,5.14,17.54S50,171.41,50.08,162s-2.26-17.25-5.14-17.55"/><path class="c" d="M67.31,161.37a5.2,5.2,0,0,1,7.36.12,5.28,5.28,0,0,1,.59,7.39,5.18,5.18,0,0,1-7.36-.12,5.28,5.28,0,0,1-.59-7.39"/><path class="c" d="M41.32,158.25a5.21,5.21,0,0,1,7.37.12,5.31,5.31,0,0,1,.59,7.4,5.2,5.2,0,0,1-7.37-.13,5.28,5.28,0,0,1-.59-7.39"/><path class="a" d="M36.15,116.73c2,2.07-1.31,9.62-7.39,16.84S16.11,145,14.1,142.9s1.31-9.62,7.4-16.85,12.65-11.4,14.65-9.32"/><path class="b" d="M34.39,116.46c2.64-.76,6.65,6.41,8.94,16s2,18-.63,18.77-6.65-6.42-8.94-16-2-18,.63-18.77"/><path class="a" d="M32.32,106.54c-2.5,1.21-1.59,9.56,2,18.66S43,140.69,45.45,139.48s1.58-9.57-2-18.66-8.59-15.49-11.09-14.28"/><path class="b" d="M34.67,107.57c-1.84-2.26-8.69,1.28-15.31,7.91s-10.5,13.83-8.66,16.08,8.69-1.28,15.32-7.91,10.49-13.83,8.65-16.08"/><path class="a" d="M35.66,95.27c2,2.08-1.31,9.62-7.39,16.85s-12.65,11.4-14.66,9.32,1.31-9.62,7.4-16.84,12.65-11.4,14.65-9.33"/><path class="b" d="M33.9,95c2.64-.76,6.65,6.42,8.94,16s2,18-.63,18.77-6.65-6.41-8.94-16-2-18,.63-18.77"/><path class="a" d="M31.83,85.08c-2.5,1.21-1.59,9.57,2,18.66S42.46,119.24,45,118s1.58-9.56-2-18.66S34.33,83.87,31.83,85.08"/><path class="b" d="M34.18,86.11c-1.84-2.26-8.7,1.29-15.31,7.91s-10.5,13.83-8.66,16.08,8.69-1.28,15.32-7.9S36,88.37,34.18,86.11"/><path class="c" d="M38.18,114a5.52,5.52,0,0,1,.37,11,5.52,5.52,0,0,1-.37-11"/><path class="c" d="M22,93.3a5.52,5.52,0,0,1,.37,11,5.52,5.52,0,0,1-.37-11"/><path class="a" d="M44.53,145c2.41,1.59.83,9.68-3.53,18.08S31.16,177,28.75,175.41s-.83-9.68,3.53-18.07S42.13,143.41,44.53,145"/><path class="b" d="M42.76,145.12c2.41-1.32,7.88,4.79,12.22,13.65s5.9,17.12,3.48,18.45-7.88-4.79-12.22-13.65-5.89-17.13-3.48-18.45"/><path class="a" d="M38.57,135.9c-2.17,1.74.54,9.69,6.07,17.76s11.76,13.2,13.93,11.47-.54-9.68-6.06-17.75S40.74,134.17,38.57,135.9"/><path class="b" d="M41.09,136.39c-2.29-1.8-8.2,3.18-13.21,11.11S20.66,163.31,23,165.11s8.2-3.18,13.21-11.12,7.22-15.81,4.93-17.6"/><path class="a" d="M39.36,124.17c2.41,1.59.83,9.68-3.53,18.08S26,156.17,23.58,154.59s-.83-9.68,3.53-18.08S37,122.59,39.36,124.17"/><path class="b" d="M37.59,124.3C40,123,45.47,129.09,49.81,138s5.9,17.12,3.48,18.45-7.87-4.79-12.21-13.66-5.9-17.12-3.49-18.44"/><path class="a" d="M33.4,115.08c-2.17,1.74.54,9.69,6.07,17.76S51.23,146,53.4,144.31s-.54-9.68-6.06-17.75S35.57,113.35,33.4,115.08"/><path class="b" d="M35.92,115.56c-2.29-1.79-8.2,3.19-13.21,11.12s-7.22,15.81-4.93,17.61S26,141.11,31,133.17s7.22-15.81,4.93-17.61"/><path class="c" d="M45.91,141.86a5.52,5.52,0,0,1,2.76,10.62,5.21,5.21,0,0,1-6.17-4,5.26,5.26,0,0,1,3.41-6.57"/><path class="c" d="M25.57,125.29a5.51,5.51,0,0,1,2.75,10.62,5.51,5.51,0,0,1-2.75-10.62"/><path class="a" d="M35.71,78.2c1.19,2.63-4.45,8.62-12.59,13.36S7.4,98,6.21,95.39,10.65,86.77,18.8,82s15.72-6.46,16.91-3.83"/><path class="b" d="M34.14,77.35c2.74.18,4.12,8.29,3.07,18.12s-4.11,17.63-6.85,17.46-4.12-8.29-3.08-18.12,4.12-17.64,6.86-17.46"/><path class="a" d="M35.5,67.31c-2.76.29-4.69,8.47-4.31,18.26s2.92,17.5,5.68,17.2,4.69-8.47,4.31-18.26S38.26,67,35.5,67.31"/><path class="b" d="M37.37,69.07c-1-2.75-8.62-1.73-17.06,2.28S5.8,80.82,6.78,83.56s8.62,1.74,17.07-2.27,14.5-9.47,13.52-12.22"/><path class="a" d="M42.41,57.82C43.6,60.46,38,66.44,29.82,71.19S14.1,77.65,12.9,75s4.45-8.62,12.6-13.37,15.71-6.46,16.91-3.83"/><path class="b" d="M40.84,57c2.74.18,4.12,8.29,3.07,18.11s-4.12,17.64-6.86,17.46S32.93,84.26,34,74.44,38.1,56.79,40.84,57"/><path class="a" d="M42.2,46.93c-2.76.3-4.69,8.47-4.31,18.27s2.92,17.5,5.68,17.2,4.69-8.48,4.31-18.27S45,46.64,42.2,46.93"/><path class="b" d="M44.07,48.7C43.09,46,35.45,47,27,51S12.5,60.44,13.48,63.19s8.62,1.73,17.07-2.27,14.5-9.48,13.52-12.22"/><path class="c" d="M38.54,76.29A5.27,5.27,0,0,1,41.59,83a5.21,5.21,0,0,1-6.37,3.71,5.52,5.52,0,0,1,3.32-10.46"/><path class="c" d="M30.16,51.33a5.27,5.27,0,0,1,3.05,6.75,5.21,5.21,0,0,1-6.37,3.71,5.52,5.52,0,0,1,3.32-10.46"/><path class="a" d="M52.76,43.51c0,2.9-7.61,6-17,6.85s-17-.74-17-3.63,7.61-6,17-6.85,17,.74,17,3.63"/><path class="b" d="M51.69,42.08C54.1,43.4,52,51.34,47,59.83s-11.06,14.3-13.48,13-.3-9.26,4.73-17.75,11.06-14.3,13.48-13"/><path class="a" d="M57.09,33.53c-2.63-.9-7.77,5.72-11.49,14.79s-4.61,17.12-2,18,7.77-5.73,11.49-14.79,4.61-17.12,2-18"/><path class="b" d="M58.06,35.92c.25-2.91-7.12-5.2-16.45-5.11S24.5,33.32,24.25,36.22s7.12,5.2,16.45,5.12,17.11-2.51,17.36-5.42"/><path class="a" d="M67.3,27.82c0,2.89-7.61,6-17,6.85s-17-.74-17-3.64,7.61-6,17-6.85,17,.74,17,3.64"/><path class="b" d="M66.23,26.39c2.41,1.31.3,9.26-4.73,17.75S50.44,58.44,48,57.12s-.3-9.27,4.73-17.75,11.06-14.3,13.48-13"/><path class="a" d="M71.63,17.83c-2.63-.89-7.77,5.73-11.49,14.79s-4.61,17.12-2,18,7.77-5.72,11.49-14.78,4.61-17.12,2-18"/><path class="b" d="M72.6,20.22c.25-2.91-7.12-5.2-16.45-5.11S39,17.62,38.79,20.53s7.12,5.2,16.45,5.11,17.11-2.51,17.36-5.42"/><path class="c" d="M56.12,43a5.27,5.27,0,0,1,0,7.41,5.19,5.19,0,0,1-7.33.7,5.29,5.29,0,0,1,0-7.42A5.19,5.19,0,0,1,56.12,43"/><path class="c" d="M58.86,16.77a5.27,5.27,0,0,1,0,7.41,5.2,5.2,0,0,1-7.33.7,5.29,5.29,0,0,1,0-7.42,5.19,5.19,0,0,1,7.33-.69"/><path class="a" d="M114.27,176c3.28-1.34,1.89-8.17-3.12-15.27s-11.72-11.76-15-10.42-1.89,8.18,3.12,15.27,11.73,11.76,15,10.42"/><path class="a" d="M93.45,147.27c3.37,0,6.81,6.84,7.69,15.18s-1.13,15.07-4.5,15-6.8-6.84-7.68-15.18,1.13-15.07,4.49-15"/><path class="b" d="M91.77,148.21c1.57-2.13,10.77-.15,20.55,4.42s16.43,10,14.86,12.13-10.76.16-20.54-4.41-16.43-10-14.87-12.14"/><path class="a" d="M81.92,143.3c-1.08,2.32,6.53,7,17,10.4s19.81,4.3,20.89,2-6.53-7-17-10.4S83,141,81.92,143.3"/><path class="b" d="M84.72,142.47c-3.38-.26-6.15,6.26-6.21,14.56s2.65,15.24,6,15.5,6.15-6.26,6.2-14.57-2.64-15.23-6-15.49"/><path class="a" d="M75.45,134.16c3.37,0,6.81,6.84,7.69,15.18s-1.13,15.07-4.5,15-6.8-6.84-7.68-15.17,1.13-15.07,4.49-15"/><path class="b" d="M73.77,135.09c1.57-2.13,10.77-.15,20.55,4.42s16.43,10,14.86,12.14-10.76.15-20.54-4.42-16.43-10-14.87-12.14"/><path class="a" d="M63.92,130.19c-1.08,2.33,6.53,7,17,10.4s19.81,4.3,20.89,2-6.53-7-17-10.4-19.81-4.3-20.9-2"/><path class="b" d="M66.72,129.36c-3.38-.26-6.15,6.26-6.21,14.56s2.65,15.23,6,15.49,6.15-6.26,6.2-14.56-2.64-15.24-6-15.49"/><path class="c" d="M92.88,144.28c2.19-1.77,6-1.73,8.61.11s2.88,4.75.69,6.53-6,1.72-8.61-.12-2.88-4.75-.69-6.52"/><path class="c" d="M62.48,141.52c2.19-1.77,6.05-1.72,8.61.11s2.88,4.76.69,6.53-6,1.72-8.61-.11-2.88-4.76-.69-6.53"/><path class="a" d="M56.44,104.85c2.34,1.84-1.53,8.5-8.65,14.88S33,129.8,30.65,128s1.53-8.49,8.65-14.88S54.1,103,56.44,104.85"/><path class="b" d="M54.38,104.61c3.09-.67,7.77,5.67,10.45,14.16s2.35,15.9-.74,16.56-7.76-5.66-10.45-14.14-2.35-15.91.74-16.58"/><path class="a" d="M52,95.85c-2.92,1.07-1.86,8.45,2.38,16.48s10,13.68,13,12.61,1.86-8.44-2.38-16.48-10-13.68-13-12.61"/><path class="b" d="M54.71,96.76c-2.15-2-10.17,1.14-17.91,7S24.52,116,26.67,118s10.17-1.13,17.92-7S56.86,98.75,54.71,96.76"/><path class="a" d="M55.87,85.9c2.34,1.84-1.53,8.5-8.65,14.88S32.42,110.85,30.08,109s1.53-8.5,8.65-14.89S53.52,84.07,55.87,85.9"/><path class="b" d="M53.81,85.67c3.09-.68,7.76,5.66,10.45,14.15s2.35,15.9-.74,16.57-7.77-5.67-10.46-14.15-2.34-15.9.75-16.57"/><path class="a" d="M51.39,76.9c-2.92,1.07-1.86,8.45,2.38,16.48s10,13.69,13,12.62,1.85-8.45-2.39-16.48-10-13.69-13-12.62"/><path class="b" d="M54.14,77.81C52,75.82,44,79,36.22,84.8S23.94,97,26.1,99,36.27,97.87,44,92,56.28,79.81,54.14,77.81"/><path class="c" d="M58.81,102.42c3.2-.08,5.88,2,6,4.7s-2.38,4.91-5.57,5-5.88-2-6-4.7,2.38-4.91,5.57-5"/><path class="c" d="M39.84,84.16c3.19-.08,5.88,2,6,4.7s-2.38,4.91-5.57,5-5.89-2-6-4.7,2.38-4.91,5.57-5"/><path class="a" d="M66.24,129.82c2.82,1.39,1,8.54-4.13,16s-11.51,12.3-14.33,10.9-1-8.54,4.13-15.95,11.52-12.3,14.33-10.9"/><path class="b" d="M64.17,129.93c2.82-1.17,9.22,4.23,14.29,12s6.9,15.12,4.08,16.29-9.22-4.22-14.3-12.05-6.9-15.12-4.07-16.29"/><path class="a" d="M59.27,121.79c-2.54,1.52.63,8.54,7.09,15.68s13.76,11.66,16.31,10.13-.64-8.55-7.1-15.68-13.76-11.66-16.3-10.13"/><path class="b" d="M62.21,122.21c-2.67-1.58-9.59,2.81-15.45,9.82S38.32,146,41,147.58s9.59-2.81,15.45-9.82,8.44-14,5.76-15.55"/><path class="a" d="M60.2,111.43c2.81,1.4,1,8.54-4.13,16s-11.52,12.3-14.34,10.9-1-8.55,4.13-16S57.38,110,60.2,111.43"/><path class="b" d="M58.12,111.54c2.82-1.17,9.22,4.23,14.29,12s6.9,15.13,4.08,16.3-9.22-4.23-14.29-12.06-6.9-15.12-4.08-16.29"/><path class="a" d="M53.22,103.4c-2.54,1.53.64,8.55,7.1,15.68s13.75,11.66,16.3,10.13-.64-8.55-7.1-15.67-13.76-11.67-16.3-10.14"/><path class="b" d="M56.17,103.82c-2.68-1.58-9.59,2.82-15.45,9.82s-8.44,14-5.77,15.55,9.59-2.81,15.45-9.81,8.44-14,5.77-15.56"/><path class="c" d="M67.85,127.05c3.1-.62,6.32,1,7.22,3.58s-.9,5.18-4,5.8-6.32-1-7.22-3.58.9-5.19,4-5.8"/><path class="c" d="M44.06,112.41c3.1-.61,6.32,1,7.21,3.58s-.89,5.19-4,5.8-6.32-1-7.21-3.58.89-5.19,4-5.8"/><path class="a" d="M55.92,70.83c1.4,2.33-5.19,7.61-14.72,11.8S22.82,88.34,21.42,86s5.2-7.61,14.72-11.8,18.38-5.71,19.78-3.38"/><path class="b" d="M54.09,70.08c3.2.16,4.81,7.32,3.59,16s-4.81,15.58-8,15.42-4.81-7.32-3.59-16,4.81-15.58,8-15.42"/><path class="a" d="M55.68,61.21c-3.23.25-5.49,7.48-5,16.13s3.42,15.45,6.64,15.19,5.48-7.48,5-16.13S58.9,61,55.68,61.21"/><path class="b" d="M57.87,62.76c-1.15-2.42-10.08-1.52-20,2S21,73.14,22.09,75.56s10.08,1.53,20-2S59,65.19,57.87,62.76"/><path class="a" d="M63.75,52.83c1.4,2.33-5.19,7.61-14.72,11.81S30.65,70.34,29.25,68s5.2-7.6,14.73-11.8,18.38-5.71,19.77-3.38"/><path class="b" d="M61.92,52.08c3.21.16,4.81,7.32,3.59,16s-4.81,15.58-8,15.42-4.81-7.32-3.59-16,4.81-15.59,8-15.43"/><path class="a" d="M63.51,43.21c-3.22.26-5.48,7.49-5,16.14s3.42,15.45,6.64,15.18,5.49-7.48,5-16.12S66.74,43,63.51,43.21"/><path class="b" d="M65.7,44.77c-1.15-2.43-10.08-1.53-20,2s-17,8.37-15.82,10.79,10.09,1.53,20-2,17-8.37,15.81-10.8"/><path class="c" d="M59.23,69.14c3,.74,4.64,3.41,3.58,6s-4.41,4-7.46,3.28-4.65-3.41-3.57-6,4.41-4,7.45-3.28"/><path class="c" d="M49.43,47.1c3,.74,4.64,3.4,3.57,6s-4.41,4-7.45,3.28-4.65-3.41-3.57-6,4.41-4,7.45-3.28"/><path class="a" d="M75.86,40.19c0,2.56-8.9,5.27-19.86,6.05S36.16,45.59,36.17,43,45.07,37.76,56,37s19.83.66,19.82,3.21"/><path class="b" d="M74.61,38.93c2.82,1.16.35,8.18-5.53,15.67S56.14,67.23,53.32,66.07,53,57.89,58.84,50.39,71.78,37.77,74.61,38.93"/><path class="a" d="M80.93,31.38c-3.08-.79-9.1,5.05-13.45,13.05S62.1,59.56,65.17,60.34s9.09-5.05,13.44-13.05S84,32.16,80.93,31.38"/><path class="b" d="M82.06,33.49c.29-2.57-8.32-4.6-19.24-4.52s-20,2.22-20.3,4.79,8.32,4.59,19.24,4.51,20-2.21,20.3-4.78"/><path class="a" d="M92.86,26.33c0,2.56-8.9,5.27-19.86,6.05s-19.84-.65-19.82-3.21S62.08,23.9,73,23.12s19.84.65,19.82,3.21"/><path class="b" d="M91.61,25.07c2.83,1.16.35,8.18-5.52,15.67S73.15,53.37,70.32,52.21,70,44,75.85,36.53,88.78,23.9,91.61,25.07"/><path class="a" d="M97.93,17.51c-3.07-.78-9.09,5.06-13.44,13.06S79.1,45.7,82.17,46.48s9.1-5,13.45-13.06S101,18.3,97.93,17.51"/><path class="b" d="M99.06,19.62c.29-2.56-8.32-4.59-19.24-4.51s-20,2.22-20.29,4.79,8.31,4.59,19.24,4.51,20-2.22,20.29-4.79"/><path class="c" d="M79.79,39.71c2.36,1.64,2.35,4.57,0,6.55a7.47,7.47,0,0,1-8.57.61c-2.37-1.64-2.36-4.56,0-6.55a7.51,7.51,0,0,1,8.57-.61"/><path class="c" d="M83,16.57c2.36,1.65,2.35,4.57,0,6.55a7.51,7.51,0,0,1-8.58.62c-2.36-1.64-2.35-4.57,0-6.55A7.49,7.49,0,0,1,83,16.57"/><path class="a" d="M.29,70.69c1.25,3,9,2.43,17.34-1.15s14.06-8.87,12.81-11.82-9-2.44-17.34,1.14S-1,67.73.29,70.69"/><path class="a" d="M34.1,55.72c-.31,2.88-8.18,5.15-17.6,5.07S-.29,58.31,0,55.43s8.18-5.15,17.59-5.07,16.8,2.48,16.5,5.36"/><path class="b" d="M33.17,54.19c2.28,1.56-.64,9.24-6.5,17.17S14.22,84.44,12,82.89s.64-9.25,6.5-17.17S30.9,52.63,33.17,54.19"/><path class="a" d="M39.42,46.23c-2.53-1.15-8.32,4.9-12.94,13.53s-6.32,16.56-3.8,17.72S31,72.58,35.62,64s6.32-16.56,3.8-17.72"/><path class="b" d="M40.14,48.71c.54-2.87-6.55-5.9-15.85-6.77S7,42.67,6.48,45.54s6.55,5.9,15.84,6.77,17.28-.73,17.82-3.6"/><path class="a" d="M50.15,41.6c-.3,2.88-8.18,5.15-17.59,5.07s-16.8-2.48-16.5-5.36,8.18-5.15,17.6-5.06,16.8,2.47,16.49,5.35"/><path class="b" d="M49.23,40.07c2.27,1.56-.64,9.24-6.5,17.17S30.28,70.32,28,68.77s.65-9.25,6.51-17.17S47,38.51,49.23,40.07"/><path class="a" d="M55.47,32.11C53,31,47.16,37,42.54,45.64s-6.32,16.56-3.8,17.72,8.32-4.9,12.94-13.52S58,33.27,55.47,32.11"/><path class="b" d="M56.19,34.59c.55-2.87-6.55-5.9-15.84-6.77s-17.27.73-17.82,3.6,6.55,5.9,15.85,6.77,17.27-.73,17.81-3.6"/><path class="c" d="M37.5,55.53a5.28,5.28,0,0,1-.77,7.37,5.19,5.19,0,0,1-7.37-.07,5.27,5.27,0,0,1,.77-7.37,5.19,5.19,0,0,1,7.37.07"/><path class="c" d="M42.88,29.74a5.29,5.29,0,0,1-.77,7.38,5.2,5.2,0,0,1-7.37-.07,5.27,5.27,0,0,1,.78-7.37,5.19,5.19,0,0,1,7.36.06"/><path class="a" d="M84.43,28.23c-2.23,1.83-9.41-2.16-16-8.9S58.25,5.64,60.49,3.81s9.39,2.16,16,8.91,10.16,13.69,7.93,15.51"/><path class="b" d="M84.85,26.49c.51,2.72-6.93,6.1-16.65,7.55s-18,.42-18.51-2.3,6.94-6.09,16.64-7.54,18-.42,18.52,2.29"/><path class="a" d="M94.85,25.29c-1-2.61-9.32-2.44-18.65.39s-16.09,7.25-15.11,9.86,9.32,2.44,18.65-.39,16.08-7.25,15.11-9.86"/><path class="b" d="M93.62,27.56c2.4-1.65-.5-8.84-6.47-16.06S74.4-.24,72,1.4s.5,8.83,6.47,16.06,12.76,11.75,15.15,10.1"/><path class="a" d="M105.7,29.64c-2.23,1.82-9.4-2.17-16-8.91S79.52,7,81.76,5.21s9.4,2.17,16,8.91,10.16,13.7,7.93,15.52"/><path class="b" d="M106.12,27.9c.52,2.71-6.93,6.09-16.64,7.54s-18,.42-18.51-2.29,6.93-6.1,16.64-7.55,18-.42,18.51,2.3"/><path class="a" d="M116.12,26.7c-1-2.62-9.32-2.44-18.65.39S81.39,34.33,82.36,37s9.33,2.43,18.65-.4,16.09-7.24,15.11-9.85"/><path class="b" d="M114.9,29c2.39-1.65-.51-8.84-6.48-16.06S95.67,1.16,93.27,2.8s.51,8.84,6.48,16.06S112.5,30.61,114.9,29"/><path class="c" d="M87,30.51a5.47,5.47,0,0,1-10.89-.6,5.48,5.48,0,0,1,10.89.6"/><path class="c" d="M108.86,16.07A5.48,5.48,0,0,1,98,15.47a5.48,5.48,0,0,1,10.89.6"/><path class="a" d="M55.71,34.14c-1.78,2.27-9.64,0-17.56-5.14S25.24,17.89,27,15.62s9.64,0,17.57,5.14S57.5,31.86,55.71,34.14"/><path class="b" d="M55.75,32.35c1.09,2.53-5.44,7.48-14.59,11S23.7,47.79,22.6,45.26s5.43-7.48,14.58-11,17.47-4.4,18.57-1.86"/><path class="a" d="M65.24,29c-1.53-2.33-9.63-.31-18.11,4.52S33,44.1,34.55,46.44s9.63.31,18.1-4.51S66.76,31.3,65.24,29"/><path class="b" d="M64.54,31.44c2-2.13-2.43-8.5-9.83-14.22s-15-8.64-17-6.51S40.15,19.22,47.55,25s15,8.63,17,6.49"/><path class="a" d="M76.77,30.8c-1.78,2.27-9.64,0-17.56-5.14S46.3,14.55,48.08,12.28s9.64,0,17.57,5.14S78.56,28.52,76.77,30.8"/><path class="b" d="M76.81,29c1.09,2.54-5.44,7.49-14.59,11s-17.46,4.4-18.56,1.87,5.43-7.48,14.58-11S75.71,26.47,76.81,29"/><path class="a" d="M86.3,25.62c-1.53-2.33-9.63-.31-18.11,4.52s-14.11,10.62-12.58,13,9.63.32,18.1-4.51S87.82,28,86.3,25.62"/><path class="b" d="M85.6,28.1c2-2.13-2.43-8.51-9.83-14.23s-15-8.63-17-6.5,2.43,8.51,9.83,14.23,15,8.64,17,6.5"/><path class="c" d="M58.7,35.8a5.48,5.48,0,0,1-10.76,1.82A5.48,5.48,0,0,1,58.7,35.8"/><path class="c" d="M76.89,16.86a5.47,5.47,0,0,1-10.75,1.83,5.47,5.47,0,0,1,10.75-1.83"/><path class="a" d="M122.59,31.2c-2.71,1-8.14-5.22-12.11-13.81s-5-16.33-2.29-17.29,8.13,5.21,12.11,13.8,5,16.33,2.29,17.3"/><path class="b" d="M123.57,29.7c-.42,2.73-8.57,3.39-18.2,1.48S88.28,25.49,88.7,22.76s8.57-3.4,18.19-1.48S124,27,123.57,29.7"/><path class="a" d="M133.39,32c0-2.79-8-5.45-17.69-5.94S98.12,27.4,98.17,30.19s8,5.45,17.69,5.94,17.57-1.38,17.53-4.18"/><path class="b" d="M131.48,33.67c2.8-.74,2.47-8.49-.75-17.31S122.64,1,119.84,1.72s-2.48,8.49.74,17.31,8.09,15.38,10.9,14.64"/><path class="a" d="M142.16,39.71c-2.71,1-8.14-5.21-12.12-13.8s-5-16.33-2.29-17.29,8.14,5.21,12.12,13.8,5,16.33,2.29,17.29"/><path class="b" d="M143.14,38.22c-.42,2.73-8.57,3.39-18.2,1.47S107.85,34,108.27,31.27s8.57-3.39,18.19-1.47,17.1,5.68,16.68,8.42"/><path class="a" d="M153,40.47c-.05-2.79-8-5.45-17.7-5.94s-17.57,1.38-17.52,4.18,8,5.45,17.69,5.93S153,43.26,153,40.47"/><path class="b" d="M151,42.19c2.81-.74,2.48-8.49-.74-17.32S142.21,9.5,139.4,10.23s-2.47,8.5.75,17.32S148.24,42.93,151,42.19"/><path class="c" d="M124.23,34.2a5.2,5.2,0,0,1-7,2.47A5.27,5.27,0,0,1,114.17,30a5.2,5.2,0,0,1,6.94-2.47,5.28,5.28,0,0,1,3.12,6.72"/><path class="c" d="M149.66,28a5.2,5.2,0,0,1-6.94,2.47,5.27,5.27,0,0,1-3.11-6.72,5.19,5.19,0,0,1,6.94-2.47A5.26,5.26,0,0,1,149.66,28"/><path class="a" d="M155.41,51.36c-2.87-.26-5.23-8.16-5.28-17.63s2.23-16.95,5.09-16.68,5.23,8.16,5.28,17.63-2.23,16.94-5.09,16.68"/><path class="b" d="M156.92,50.41c-1.52,2.31-9.2-.52-17.15-6.31S126.6,31.75,128.11,29.44s9.2.52,17.15,6.31,13.17,12.36,11.66,14.66"/><path class="a" d="M164.9,56.59c1.12-2.56-5-8.3-13.61-12.84s-16.54-6.13-17.65-3.58,5,8.31,13.61,12.84,16.54,6.13,17.65,3.58"/><path class="b" d="M162.45,57.35c2.86.5,5.77-6.68,6.51-16.05s-1-17.37-3.82-17.88-5.77,6.67-6.51,16,1,17.38,3.82,17.89"/><path class="a" d="M169.65,67.33c-2.86-.27-5.23-8.16-5.27-17.64s2.23-16.94,5.09-16.68,5.23,8.16,5.27,17.64-2.23,16.94-5.09,16.68"/><path class="b" d="M171.16,66.38c-1.52,2.3-9.19-.52-17.14-6.31s-13.17-12.35-11.66-14.66,9.19.51,17.15,6.3,13.17,12.36,11.65,14.67"/><path class="a" d="M179.15,72.55c1.11-2.55-5-8.3-13.62-12.83S149,53.59,147.88,56.14s5,8.31,13.62,12.83,16.53,6.14,17.65,3.58"/><path class="b" d="M176.7,73.31c2.85.51,5.77-6.67,6.51-16s-1-17.38-3.83-17.88-5.77,6.67-6.51,16,1,17.38,3.83,17.88"/><path class="c" d="M155.65,54.78a5.2,5.2,0,0,1-7.34-.68,5.28,5.28,0,0,1,0-7.41,5.19,5.19,0,0,1,7.33.68,5.28,5.28,0,0,1,.05,7.41"/><path class="c" d="M181.33,59.85a5.22,5.22,0,0,1-7.34-.68,5.27,5.27,0,0,1,0-7.41,5.19,5.19,0,0,1,7.33.67,5.29,5.29,0,0,1,0,7.42"/><path class="a" d="M7.62,90.1c1.25,2.84,9,2.34,17.34-1.1S39,80.47,37.78,77.63s-9-2.34-17.35,1.1S6.37,87.27,7.62,90.1"/><path class="a" d="M41.43,75.71c-.31,2.77-8.18,5-17.6,4.88S7,78.21,7.34,75.44s8.18-5,17.59-4.88,16.8,2.38,16.5,5.15"/><path class="b" d="M40.51,74.24c2.27,1.5-.65,8.89-6.51,16.51s-12.45,12.58-14.72,11.08.64-8.89,6.5-16.51S38.23,72.74,40.51,74.24"/><path class="a" d="M46.75,66.59c-2.52-1.11-8.32,4.71-12.94,13s-6.32,15.92-3.79,17,8.31-4.71,12.93-13,6.32-15.93,3.8-17"/><path class="b" d="M47.47,69c.54-2.75-6.55-5.67-15.85-6.51s-17.27.71-17.81,3.47,6.55,5.67,15.85,6.51S46.93,71.73,47.47,69"/><path class="a" d="M57.48,62.14c-.3,2.77-8.17,5-17.59,4.87s-16.8-2.38-16.49-5.15S31.57,56.91,41,57s16.8,2.38,16.49,5.15"/><path class="b" d="M56.56,60.66c2.27,1.5-.64,8.89-6.5,16.51S37.61,89.76,35.34,88.26s.64-8.89,6.5-16.51S54.29,59.16,56.56,60.66"/><path class="a" d="M62.81,53c-2.53-1.11-8.32,4.71-12.94,13s-6.32,15.92-3.8,17,8.32-4.71,12.94-13,6.32-15.93,3.8-17"/><path class="b" d="M63.53,55.4c.54-2.76-6.56-5.68-15.85-6.52s-17.27.71-17.82,3.47S36.41,58,45.71,58.87,63,58.16,63.53,55.4"/><path class="c" d="M44.83,75.53a5,5,0,0,1-.77,7.09,5.34,5.34,0,0,1-7.37-.07,4.93,4.93,0,0,1,.77-7.08,5.35,5.35,0,0,1,7.37.06"/><path class="c" d="M50.21,50.74a4.94,4.94,0,0,1-.77,7.09,5.33,5.33,0,0,1-7.36-.07,4.92,4.92,0,0,1,.77-7.08,5.33,5.33,0,0,1,7.36.06"/><path class="a" d="M91.76,49.29c-2.23,1.75-9.41-2.09-16-8.57S65.58,27.56,67.82,25.8s9.39,2.08,16,8.57S94,47.53,91.76,49.29"/><path class="b" d="M92.18,47.61c.51,2.61-6.93,5.86-16.65,7.26s-18,.4-18.51-2.21S64,46.8,73.67,45.41s18-.41,18.51,2.2"/><path class="a" d="M102.18,46.46c-1-2.51-9.32-2.35-18.65.38s-16.08,7-15.11,9.47,9.32,2.34,18.65-.37,16.09-7,15.11-9.48"/><path class="b" d="M101,48.64c2.4-1.58-.5-8.5-6.47-15.44S81.73,21.9,79.33,23.49s.5,8.49,6.47,15.44S98.56,50.22,101,48.64"/><path class="a" d="M113,50.64c-2.23,1.75-9.4-2.08-16-8.57S86.85,28.91,89.09,27.15s9.4,2.08,16,8.57S115.26,48.88,113,50.64"/><path class="b" d="M113.45,49c.52,2.61-6.93,5.86-16.64,7.26s-18,.4-18.51-2.21,6.93-5.86,16.64-7.25,18-.41,18.51,2.2"/><path class="a" d="M123.45,47.81c-1-2.51-9.32-2.34-18.65.38s-16.08,7-15.11,9.47S99,60,108.34,57.29s16.09-7,15.11-9.48"/><path class="b" d="M122.23,50c2.39-1.58-.5-8.5-6.48-15.44S103,23.26,100.61,24.84s.5,8.49,6.47,15.44S119.83,51.57,122.23,50"/><path class="c" d="M94.3,51.48c-.15,2.64-2.71,4.65-5.71,4.49s-5.33-2.43-5.18-5.08,2.71-4.65,5.72-4.49,5.33,2.44,5.17,5.08"/><path class="c" d="M116.2,37.59c-.16,2.64-2.71,4.65-5.72,4.5s-5.32-2.43-5.18-5.08S108,32.36,111,32.52s5.33,2.43,5.18,5.07"/><path class="a" d="M63.05,55c-1.79,2.19-9.65,0-17.57-4.94S32.57,39.35,34.35,37.16s9.64,0,17.57,4.94S64.83,52.78,63.05,55"/><path class="b" d="M63.08,53.24c1.1,2.44-5.44,7.2-14.59,10.62S31,68.09,29.93,65.65,35.36,58.46,44.51,55,62,50.8,63.08,53.24"/><path class="a" d="M72.57,50c-1.52-2.25-9.63-.3-18.11,4.34S40.35,64.54,41.88,66.79s9.63.3,18.1-4.34S74.09,52.23,72.57,50"/><path class="b" d="M71.87,52.37c2-2-2.42-8.18-9.83-13.68s-15-8.3-17-6.25,2.43,8.18,9.83,13.68,15,8.31,17,6.25"/><path class="a" d="M84.11,51.75c-1.79,2.19-9.65,0-17.57-5S53.63,36.13,55.41,34,65.05,34,73,38.89,85.89,49.56,84.11,51.75"/><path class="b" d="M84.14,50c1.09,2.44-5.44,7.19-14.59,10.62S52.09,64.88,51,62.44s5.43-7.19,14.58-10.62S83,47.59,84.14,50"/><path class="a" d="M93.63,46.77c-1.52-2.24-9.63-.3-18.11,4.34S61.41,61.33,62.94,63.58s9.63.3,18.1-4.34S95.15,49,93.63,46.77"/><path class="b" d="M92.93,49.16c2-2-2.43-8.18-9.83-13.68s-15-8.3-17-6.25,2.43,8.18,9.83,13.68,15,8.3,17,6.25"/><path class="c" d="M66,56.56c.45,2.61-1.59,5.11-4.56,5.6s-5.75-1.24-6.2-3.85,1.59-5.12,4.55-5.6S65.57,54,66,56.56"/><path class="c" d="M84.23,38.35c.45,2.61-1.59,5.12-4.56,5.61s-5.75-1.25-6.2-3.86S75.06,35,78,34.51s5.75,1.23,6.21,3.84"/><path class="a" d="M129.92,52.13c-2.71.93-8.14-5-12.11-13.27s-5-15.7-2.29-16.63,8.13,5,12.11,13.28,5,15.7,2.29,16.62"/><path class="b" d="M130.9,50.69c-.42,2.63-8.57,3.27-18.19,1.43S95.61,46.65,96,44s8.57-3.27,18.19-1.42,17.1,5.47,16.68,8.09"/><path class="a" d="M140.72,52.86c-.05-2.69-8-5.24-17.69-5.71s-17.58,1.33-17.53,4,8,5.25,17.7,5.71,17.56-1.32,17.52-4"/><path class="b" d="M138.81,54.51c2.8-.71,2.47-8.16-.75-16.64S130,23.08,127.17,23.79s-2.47,8.16.74,16.65,8.09,14.79,10.9,14.07"/><path class="a" d="M149.49,60.32c-2.71.93-8.14-5-12.11-13.27s-5-15.7-2.29-16.63,8.13,5,12.11,13.28,5,15.69,2.29,16.62"/><path class="b" d="M150.47,58.88c-.42,2.63-8.57,3.27-18.2,1.43s-17.09-5.47-16.67-8.1,8.57-3.27,18.19-1.42,17.1,5.47,16.68,8.09"/><path class="a" d="M160.29,61.05c0-2.69-8-5.24-17.69-5.71s-17.58,1.33-17.53,4,8,5.25,17.69,5.71,17.57-1.32,17.53-4"/><path class="b" d="M158.38,62.7c2.8-.71,2.47-8.16-.75-16.64S149.54,31.27,146.73,32s-2.47,8.16.75,16.65,8.09,14.79,10.9,14.07"/><path class="c" d="M131.56,55c-1.06,2.45-4.17,3.51-7,2.38s-4.17-4-3.11-6.46,4.17-3.51,6.94-2.38,4.17,4,3.12,6.46"/><path class="c" d="M157,49.07c-1.06,2.44-4.17,3.5-6.95,2.37s-4.17-4-3.11-6.46,4.17-3.5,6.94-2.37,4.17,4,3.12,6.46"/><path class="a" d="M162.74,71.52c-2.87-.25-5.23-7.84-5.28-17s2.23-16.28,5.09-16,5.23,7.84,5.28,17-2.23,16.28-5.09,16"/><path class="b" d="M164.25,70.61c-1.52,2.22-9.2-.5-17.15-6.07s-13.17-11.88-11.65-14.09,9.19.49,17.14,6.06,13.18,11.88,11.66,14.1"/><path class="a" d="M172.23,76.55c1.12-2.46-5-8-13.61-12.34s-16.54-5.9-17.65-3.44,5,8,13.61,12.34,16.54,5.89,17.65,3.44"/><path class="b" d="M169.78,77.28c2.86.48,5.77-6.42,6.51-15.43s-1-16.71-3.82-17.19S166.7,51.08,166,60.08s1,16.71,3.82,17.2"/><path class="a" d="M177,86.87c-2.86-.25-5.23-7.84-5.27-17s2.23-16.29,5.09-16,5.23,7.85,5.27,17-2.23,16.29-5.09,16"/><path class="b" d="M178.49,86c-1.52,2.22-9.19-.5-17.14-6.07S148.18,68,149.69,65.8s9.19.49,17.15,6.06S180,83.75,178.49,86"/><path class="a" d="M186.48,91.9c1.11-2.46-5-8-13.62-12.34s-16.53-5.9-17.65-3.44,5,8,13.62,12.34,16.53,5.9,17.65,3.44"/><path class="b" d="M184,92.63c2.85.49,5.77-6.42,6.51-15.43s-1-16.7-3.83-17.19-5.77,6.42-6.51,15.43,1,16.7,3.83,17.19"/><path class="c" d="M163,74.81a5.34,5.34,0,0,1-7.34-.65,5,5,0,0,1,0-7.13,5.33,5.33,0,0,1,7.33.65,4.94,4.94,0,0,1,0,7.13"/><path class="c" d="M188.66,79.68a5.34,5.34,0,0,1-7.34-.65,4.94,4.94,0,0,1,0-7.13,5.33,5.33,0,0,1,7.33.65,4.94,4.94,0,0,1,0,7.13"/><path class="a" d="M175,33.89c-3.11-.66-7.16,6-9,14.94s-.87,16.69,2.24,17.35,7.17-6,9-14.94.87-16.68-2.25-17.35"/><path class="a" d="M167.7,70.34c-2.16-1.91.52-9.7,6-17.4s11.68-12.41,13.84-10.5-.52,9.69-6,17.4-11.68,12.4-13.85,10.5"/><path class="b" d="M169.48,70.46c-2.57,1-7.14-5.84-10.22-15.23s-3.47-17.78-.9-18.75,7.15,5.84,10.22,15.23,3.47,17.78.9,18.75"/><path class="a" d="M172.35,80.18c2.4-1.41.8-9.67-3.55-18.43S159,47,156.58,48.43s-.8,9.67,3.56,18.43S170,81.59,172.35,80.18"/><path class="b" d="M169.92,79.35c2,2.1,8.57-2,14.62-9.16s9.34-14.64,7.32-16.74-8.56,2-14.62,9.15-9.33,14.65-7.32,16.75"/><path class="a" d="M169.94,91.68c-2.16-1.9.52-9.69,6-17.4s11.68-12.41,13.84-10.5-.52,9.69-6,17.4-11.68,12.41-13.85,10.5"/><path class="b" d="M171.72,91.81c-2.57,1-7.14-5.85-10.22-15.23S158,58.8,160.6,57.82s7.15,5.85,10.22,15.23,3.47,17.78.9,18.76"/><path class="a" d="M174.59,101.52c2.4-1.41.8-9.66-3.55-18.43s-9.82-14.73-12.22-13.32-.8,9.67,3.56,18.43,9.82,14.73,12.21,13.32"/><path class="b" d="M172.16,100.69c2,2.1,8.57-2,14.62-9.15s9.34-14.65,7.32-16.75-8.56,2-14.62,9.16-9.33,14.64-7.32,16.74"/><path class="c" d="M165.91,73.25a5.52,5.52,0,1,1,4.28-6,5.23,5.23,0,0,1-4.28,6"/><path class="c" d="M183.76,92.51a5.52,5.52,0,1,1,4.29-6,5.23,5.23,0,0,1-4.29,6"/><path class="a" d="M161.09,127.6c-.2-2.89,7.17-6.5,16.45-8.07s17-.5,17.17,2.39-7.16,6.5-16.44,8.07-17,.49-17.18-2.39"/><path class="b" d="M162.27,128.94c-2.51-1.13-1-9.21,3.44-18s10-15.06,12.51-13.93,1,9.22-3.44,18-10,15.06-12.51,13.92"/><path class="a" d="M157.49,137.87c2.68.7,7.34-6.28,10.41-15.58s3.37-17.42.68-18.12-7.35,6.28-10.41,15.58-3.37,17.42-.68,18.12"/><path class="b" d="M156.35,135.56c0,2.91,7.47,4.66,16.78,3.9s16.88-3.75,16.92-6.66-7.47-4.67-16.78-3.91-16.88,3.75-16.92,6.67"/><path class="a" d="M147.72,144.31c-.2-2.89,7.16-6.5,16.44-8.07s17-.49,17.18,2.4-7.17,6.49-16.45,8.06-17,.49-17.17-2.39"/><path class="b" d="M148.89,145.66c-2.51-1.14-1-9.22,3.44-18s10-15.06,12.51-13.93,1,9.22-3.44,18-10,15.06-12.51,13.93"/><path class="a" d="M144.11,154.58c2.69.7,7.34-6.27,10.41-15.58s3.37-17.42.68-18.12-7.35,6.28-10.41,15.58-3.37,17.42-.68,18.12"/><path class="b" d="M143,152.27c0,2.91,7.47,4.66,16.78,3.9s16.88-3.75,16.92-6.66-7.47-4.67-16.78-3.91S143,149.35,143,152.27"/><path class="c" d="M157.78,128.38a5.26,5.26,0,0,1-.51-7.39,5.19,5.19,0,0,1,7.26-1.23,5.28,5.28,0,0,1,.51,7.4,5.19,5.19,0,0,1-7.26,1.22"/><path class="c" d="M156.92,154.71a5.27,5.27,0,0,1-.51-7.39,5.2,5.2,0,0,1,7.26-1.23,5.29,5.29,0,0,1,.52,7.4,5.2,5.2,0,0,1-7.27,1.22"/><path class="a" d="M172.81,100.55c-.83-2.77,5.56-7.92,14.28-11.51s16.45-4.24,17.27-1.47-5.57,7.93-14.28,11.51-16.45,4.25-17.27,1.47"/><path class="b" d="M174.25,101.61c-2.7-.55-3-8.78-.59-18.37s6.47-16.91,9.16-16.35,3,8.77.58,18.36-6.46,16.91-9.15,16.36"/><path class="a" d="M171.54,111.37c2.77.09,5.79-7.74,6.74-17.5s-.52-17.73-3.29-17.82-5.8,7.75-6.75,17.5.52,17.74,3.3,17.82"/><path class="b" d="M169.92,109.37c.6,2.86,8.31,2.9,17.22.09s15.65-7.39,15.05-10.25-8.31-2.9-17.22-.09-15.64,7.39-15.05,10.25"/><path class="a" d="M163.41,119.82c-.82-2.78,5.57-7.93,14.28-11.51s16.45-4.24,17.27-1.47-5.56,7.93-14.28,11.51-16.44,4.24-17.27,1.47"/><path class="b" d="M164.85,120.88c-2.69-.56-2.95-8.78-.59-18.37s6.47-16.91,9.16-16.36,3,8.78.59,18.37-6.47,16.91-9.16,16.36"/><path class="a" d="M162.14,130.64c2.77.09,5.79-7.75,6.75-17.5s-.53-17.74-3.3-17.82-5.79,7.74-6.74,17.5.52,17.73,3.29,17.82"/><path class="b" d="M160.53,128.64c.59,2.85,8.3,2.89,17.22.09s15.64-7.4,15-10.25-8.3-2.9-17.21-.09-15.65,7.39-15.05,10.25"/><path class="c" d="M169.75,102.06A5.28,5.28,0,0,1,167.63,95a5.21,5.21,0,0,1,6.82-2.8,5.27,5.27,0,0,1,2.11,7.1,5.2,5.2,0,0,1-6.81,2.81"/><path class="c" d="M174.67,127.93a5.28,5.28,0,0,1-2.12-7.1,5,5,0,1,1,2.12,7.1"/><path class="a" d="M136.74,157.32c.77-2.79,8.92-3.7,18.18-2s16.15,5.28,15.37,8.06-8.91,3.7-18.18,2-16.15-5.28-15.37-8.06"/><path class="b" d="M137.39,159c-2-1.91,2.17-9,9.26-15.83s14.45-10.81,16.43-8.88-2.16,9-9.26,15.83-14.45,10.8-16.43,8.88"/><path class="a" d="M129.91,165.77c2.3,1.57,9-3.42,15-11.15s9-15.26,6.69-16.83-9,3.43-15,11.16-9,15.26-6.69,16.82"/><path class="b" d="M129.61,163.21c-1,2.74,5.48,6.92,14.5,9.35s17.15,2.18,18.17-.55-5.48-6.92-14.5-9.35-17.16-2.18-18.17.55"/><path class="a" d="M118.56,168.53c.78-2.78,8.92-3.69,18.18-2s16.15,5.27,15.38,8.06-8.92,3.7-18.19,2-16.15-5.27-15.37-8.06"/><path class="b" d="M119.21,170.2c-2-1.92,2.17-9,9.27-15.83s14.45-10.81,16.43-8.89-2.17,9-9.27,15.84-14.45,10.8-16.43,8.88"/><path class="a" d="M111.74,177c2.29,1.56,9-3.43,15-11.15s9-15.27,6.69-16.84-9,3.43-15,11.16-9,15.27-6.68,16.83"/><path class="b" d="M111.44,174.43c-1,2.73,5.48,6.92,14.49,9.35s17.15,2.18,18.17-.56-5.48-6.92-14.5-9.35-17.15-2.18-18.16.56"/><path class="c" d="M133.35,156.94a5.28,5.28,0,0,1,2-7.14,5.2,5.2,0,0,1,7.25,1.3,5.27,5.27,0,0,1-2,7.14,5.21,5.21,0,0,1-7.25-1.3"/><path class="c" d="M123.76,181.45a5.28,5.28,0,0,1,2-7.14,5.21,5.21,0,0,1,7.26,1.3,5.28,5.28,0,0,1-2,7.14,5.2,5.2,0,0,1-7.25-1.3"/><path class="a" d="M101.48,172.74c1.86-2.2,9.63.39,17.36,5.8s12.49,11.58,10.63,13.79-9.64-.39-17.37-5.8S99.61,175,101.48,172.74"/><path class="b" d="M101.38,174.53c-1-2.57,5.71-7.27,15-10.49S134,160.3,135,162.88s-5.71,7.27-15,10.49-17.62,3.74-18.62,1.16"/><path class="a" d="M91.77,177.56c1.43,2.38,9.61.67,18.26-3.83s14.49-10.09,13.06-12.48-9.61-.67-18.26,3.83-14.5,10.09-13.06,12.48"/><path class="b" d="M92.56,175.1c-2.06,2.06,2.1,8.59,9.29,14.6s14.68,9.19,16.74,7.13-2.11-8.59-9.3-14.59-14.67-9.19-16.73-7.14"/><path class="a" d="M80.31,175.29c1.86-2.2,9.64.39,17.36,5.8s12.49,11.58,10.63,13.79-9.64-.39-17.37-5.8S78.44,177.5,80.31,175.29"/><path class="b" d="M80.21,177.08c-1-2.57,5.71-7.27,15-10.49s17.61-3.74,18.61-1.16-5.7,7.27-15,10.49-17.62,3.74-18.62,1.16"/><path class="a" d="M70.6,180.1c1.43,2.39,9.61.68,18.26-3.82s14.49-10.09,13.06-12.48-9.61-.68-18.26,3.83S69.16,177.72,70.6,180.1"/><path class="b" d="M71.39,177.65c-2.06,2.06,2.1,8.59,9.29,14.59s14.68,9.19,16.74,7.14-2.11-8.59-9.3-14.6-14.67-9.19-16.73-7.13"/><path class="c" d="M98.56,171a5.48,5.48,0,1,1,6,4.24,5.26,5.26,0,0,1-6-4.24"/><path class="c" d="M79.67,189.21a5.48,5.48,0,1,1,6,4.23,5.24,5.24,0,0,1-6-4.23"/><path class="a" d="M154.31,33.52c-3.19-.59-7.34,5.33-9.27,13.23s-.89,14.78,2.3,15.37,7.34-5.34,9.27-13.23.9-14.79-2.3-15.37"/><path class="a" d="M146.85,65.8c-2.22-1.69.53-8.59,6.15-15.41s12-11,14.18-9.31-.53,8.59-6.15,15.42-12,11-14.18,9.3"/><path class="b" d="M148.67,65.91c-2.63.86-7.32-5.18-10.46-13.49s-3.56-15.75-.93-16.62S144.6,41,147.75,49.29s3.56,15.75.92,16.62"/><path class="a" d="M151.62,74.51c2.45-1.25.82-8.56-3.64-16.32s-10.07-13-12.52-11.8-.82,8.56,3.64,16.33,10.06,13,12.52,11.79"/><path class="b" d="M149.13,73.78c2.07,1.86,8.77-1.77,15-8.11s9.56-13,7.5-14.83-8.78,1.77-15,8.1-9.56,13-7.49,14.84"/><path class="a" d="M149.15,84.7c-2.22-1.68.53-8.59,6.14-15.41s12-11,14.18-9.3-.53,8.59-6.14,15.41-12,11-14.18,9.3"/><path class="b" d="M151,84.81c-2.64.87-7.32-5.17-10.47-13.49s-3.56-15.75-.92-16.61,7.32,5.18,10.47,13.49S153.6,84,151,84.81"/><path class="a" d="M153.91,93.42c2.45-1.25.82-8.56-3.64-16.33S140.21,64,137.76,65.3s-.83,8.56,3.63,16.32,10.07,13,12.52,11.8"/><path class="b" d="M151.42,92.68c2.07,1.86,8.78-1.77,15-8.11s9.56-13,7.49-14.82-8.77,1.77-15,8.1-9.56,13-7.5,14.83"/><path class="c" d="M145,68.38a5.16,5.16,0,0,1-5.68-4.32,4.78,4.78,0,0,1,4.39-5.34A5.16,5.16,0,0,1,149.4,63,4.78,4.78,0,0,1,145,68.38"/><path class="c" d="M163.31,85.44a5.18,5.18,0,0,1-5.69-4.32,4.79,4.79,0,0,1,4.4-5.34,5.17,5.17,0,0,1,5.68,4.32,4.78,4.78,0,0,1-4.39,5.34"/><path class="a" d="M140.08,116.51c-.2-2.55,7.34-5.75,16.86-7.14s17.38-.43,17.59,2.12-7.34,5.76-16.86,7.15-17.39.43-17.59-2.13"/><path class="b" d="M141.28,117.71c-2.56-1-1-8.17,3.53-16s10.25-13.34,12.82-12.33,1,8.16-3.53,16-10.25,13.34-12.82,12.34"/><path class="a" d="M136.39,125.61c2.75.62,7.52-5.56,10.66-13.8s3.45-15.42.7-16-7.53,5.56-10.66,13.8-3.46,15.43-.7,16"/><path class="b" d="M135.22,123.56c0,2.59,7.65,4.14,17.19,3.46s17.3-3.31,17.34-5.9-7.65-4.13-17.19-3.46-17.3,3.32-17.34,5.9"/><path class="a" d="M126.37,131.32c-.2-2.56,7.35-5.76,16.86-7.15s17.39-.43,17.59,2.12-7.34,5.76-16.85,7.15-17.39.43-17.6-2.12"/><path class="b" d="M127.57,132.51c-2.56-1-1-8.17,3.53-16s10.25-13.34,12.82-12.33,1,8.17-3.53,16-10.25,13.34-12.82,12.33"/><path class="a" d="M122.68,140.41c2.75.62,7.52-5.56,10.66-13.79s3.46-15.43.7-16.05-7.52,5.56-10.66,13.8-3.45,15.43-.7,16"/><path class="b" d="M121.51,138.37c0,2.58,7.66,4.13,17.19,3.45s17.3-3.31,17.34-5.9-7.65-4.13-17.18-3.46-17.3,3.32-17.35,5.91"/><path class="c" d="M136.68,117.21a4.25,4.25,0,0,1-.52-6.55,5.88,5.88,0,0,1,7.44-1.09,4.25,4.25,0,0,1,.52,6.55,5.88,5.88,0,0,1-7.44,1.09"/><path class="c" d="M135.8,140.53a4.25,4.25,0,0,1-.52-6.55,5.88,5.88,0,0,1,7.45-1.08,4.25,4.25,0,0,1,.52,6.55,5.89,5.89,0,0,1-7.45,1.08"/><path class="a" d="M152.08,92.56c-.84-2.46,5.71-7,14.64-10.19s16.85-3.76,17.69-1.31-5.7,7-14.63,10.2-16.85,3.76-17.7,1.3"/><path class="b" d="M153.56,93.5c-2.76-.5-3-7.77-.6-16.27s6.62-15,9.38-14.49,3,7.78.6,16.27-6.63,15-9.38,14.49"/><path class="a" d="M150.78,102.15c2.84.07,5.93-6.87,6.91-15.51s-.53-15.71-3.38-15.78-5.93,6.86-6.91,15.5.54,15.71,3.38,15.79"/><path class="b" d="M149.13,100.37c.61,2.53,8.51,2.56,17.64.08s16-6.55,15.42-9.08-8.51-2.56-17.64-.08-16,6.55-15.42,9.08"/><path class="a" d="M142.46,109.63c-.85-2.46,5.7-7,14.63-10.2s16.85-3.76,17.7-1.3-5.71,7-14.64,10.2-16.85,3.75-17.69,1.3"/><path class="b" d="M143.93,110.56c-2.76-.49-3-7.77-.6-16.27s6.62-15,9.38-14.48,3,7.77.61,16.27-6.63,15-9.39,14.48"/><path class="a" d="M141.15,119.21c2.84.08,5.94-6.87,6.91-15.5s-.53-15.71-3.37-15.79-5.94,6.87-6.91,15.5.54,15.71,3.37,15.79"/><path class="b" d="M139.5,117.43c.61,2.53,8.51,2.57,17.64.09s16-6.55,15.42-9.08-8.51-2.57-17.64-.08-16,6.55-15.42,9.07"/><path class="c" d="M149,93.89a4.37,4.37,0,0,1-2.17-6.29,5.67,5.67,0,0,1,7-2.48,4.37,4.37,0,0,1,2.17,6.29,5.67,5.67,0,0,1-7,2.48"/><path class="c" d="M154,116.81a4.37,4.37,0,0,1-2.17-6.29,5.68,5.68,0,0,1,7-2.48,4.36,4.36,0,0,1,2.16,6.29,5.67,5.67,0,0,1-7,2.48"/><path class="a" d="M115.12,142.84c.8-2.47,9.14-3.27,18.64-1.8s16.54,4.67,15.75,7.14-9.14,3.27-18.63,1.8-16.55-4.67-15.76-7.14"/><path class="b" d="M115.79,144.32c-2-1.7,2.22-8,9.5-14s14.8-9.57,16.83-7.87-2.22,8-9.49,14-14.81,9.58-16.84,7.88"/><path class="a" d="M108.13,150.33c2.36,1.39,9.24-3,15.37-9.88s9.21-13.52,6.86-14.91-9.24,3-15.38,9.89-9.2,13.51-6.85,14.9"/><path class="b" d="M107.83,148.06c-1,2.42,5.61,6.13,14.85,8.28s17.57,1.93,18.61-.49-5.61-6.13-14.86-8.28-17.56-1.93-18.6.49"/><path class="a" d="M96.5,152.78c.79-2.47,9.13-3.28,18.63-1.81s16.55,4.67,15.75,7.14-9.14,3.28-18.63,1.8-16.54-4.67-15.75-7.13"/><path class="b" d="M97.17,154.25c-2-1.7,2.22-8,9.49-14s14.81-9.57,16.84-7.87-2.23,8-9.49,14S99.2,156,97.17,154.25"/><path class="a" d="M89.51,160.27c2.35,1.38,9.23-3,15.37-9.89s9.21-13.51,6.85-14.9-9.23,3-15.37,9.88-9.21,13.52-6.85,14.91"/><path class="b" d="M89.2,158c-1,2.42,5.61,6.13,14.85,8.27s17.58,1.94,18.62-.48-5.61-6.14-14.86-8.29-17.57-1.93-18.61.5"/><path class="c" d="M111.66,142.5c-1.49-2.06-.58-4.89,2-6.32s5.94-.91,7.43,1.16.58,4.89-2,6.32-6,.91-7.43-1.16"/><path class="c" d="M101.82,164.21c-1.48-2.06-.57-4.89,2-6.32s5.94-.91,7.43,1.16.58,4.89-2,6.32-5.94.91-7.43-1.16"/><path class="a" d="M79,156.5c1.91-1.95,9.87.35,17.79,5.14s12.79,10.26,10.88,12.21-9.87-.34-17.79-5.13S77.09,158.46,79,156.5"/><path class="b" d="M78.9,158.09c-1-2.28,5.84-6.44,15.35-9.29s18-3.32,19.08-1-5.85,6.45-15.36,9.3-18,3.31-19.07,1"/><path class="a" d="M69.05,160.77c1.47,2.11,9.84.6,18.7-3.39s14.86-8.94,13.39-11.06-9.85-.59-18.71,3.39-14.85,8.94-13.38,11.06"/><path class="b" d="M69.86,158.59c-2.11,1.83,2.15,7.61,9.52,12.93s15,8.14,17.14,6.32-2.15-7.61-9.52-12.92-15-8.15-17.14-6.33"/><path class="a" d="M57.31,158.76c1.91-1.95,9.87.35,17.79,5.14S87.89,174.15,86,176.11s-9.87-.35-17.79-5.14S55.4,160.71,57.31,158.76"/><path class="b" d="M57.21,160.35c-1-2.29,5.84-6.45,15.35-9.29s18-3.32,19.08-1-5.85,6.44-15.36,9.3-18.05,3.31-19.07,1"/><path class="a" d="M47.36,163c1.47,2.12,9.84.6,18.7-3.39s14.86-8.94,13.39-11S69.6,148,60.74,152,45.88,160.91,47.36,163"/><path class="b" d="M48.17,160.85c-2.11,1.82,2.15,7.61,9.52,12.92s15,8.15,17.14,6.32-2.15-7.61-9.52-12.92-15-8.14-17.14-6.32"/><path class="c" d="M76,154.94c-.37-2.42,1.82-4.66,4.89-5s5.82,1.33,6.19,3.75-1.83,4.66-4.89,5-5.83-1.34-6.19-3.75"/><path class="c" d="M56.65,171.09c-.36-2.42,1.83-4.66,4.89-5s5.83,1.32,6.19,3.74-1.82,4.66-4.88,5-5.84-1.33-6.2-3.75"/></svg>