<svg fill="none" height="313" viewBox="0 0 500 313" width="500" xmlns="http://www.w3.org/2000/svg" xmlns:xlink="http://www.w3.org/1999/xlink"><clipPath id="a"><path d="m0 0h500v313h-500z"/></clipPath><mask id="b" height="313" maskUnits="userSpaceOnUse" width="500" x="0" y="0"><path d="m0 0h500v313h-500z" fill="#fff"/></mask><g clip-path="url(#a)"><g mask="url(#b)"><g opacity=".7"><path d="m-1.7168 118.865 2.415984 408.135h371.170816" stroke="#c1b58f" stroke-miterlimit="10" stroke-width="1.72465"/><path d="m116.935 170.145h-22.3178v145.161h22.3178z" stroke="#c1b58f" stroke-miterlimit="10" stroke-width="1.72465"/><path d="m122.09 177.055h-32.6173v6.913h32.6173z" fill="#c1b58f"/><path d="m120.37 164.957h-29.1825v5.185h29.1825z" stroke="#c1b58f" stroke-miterlimit="10" stroke-width="1.72465"/><path d="m125.523 154.59h-37.7691v5.185h37.7691z" stroke="#c1b58f" stroke-miterlimit="10" stroke-width="1.72465"/><path d="m123.808 159.775h-34.3353v5.185h34.3353z" fill="#c1b58f"/><path d="m110.926 183.104h-11.1604v138.248h11.1604z" stroke="#c1b58f" stroke-miterlimit="10" stroke-width="1.72465"/><path d="m218.226 170.145h-22.318v145.161h22.318z" stroke="#c1b58f" stroke-miterlimit="10" stroke-width="1.72465"/><path d="m223.373 177.055h-32.617v6.913h32.617z" fill="#c1b58f"/><path d="m221.656 164.957h-29.183v5.185h29.183z" stroke="#c1b58f" stroke-miterlimit="10" stroke-width="1.72465"/><path d="m226.805 154.59h-37.77v5.185h37.77z" stroke="#c1b58f" stroke-miterlimit="10" stroke-width="1.72465"/><path d="m225.091 159.775h-34.335v5.185h34.335z" fill="#c1b58f"/><g stroke="#c1b58f" stroke-width="1.72465"><path d="m212.215 183.104h-11.16v138.248h11.16z" stroke-miterlimit="10"/><path d="m33.7637 290.246h43.6899v-76.9c-.4965-11.197-9.5095-20.255-20.5929-20.736-11.0833-.482-20.9385 7.836-22.3211 19.008z" stroke-miterlimit="10"/><path d="m25.1816 314.442h59.9951v-99.357c-.6767-14.466-13.0581-26.167-28.2894-26.792-15.3013-.626-28.7418 10.127-30.6503 24.56-.3481 33.866-.6999 67.729-1.0554 101.589z" stroke-miterlimit="10"/><path d="m14.793 314.442h78.9698v-106.159c-.8936-15.445-17.1877-27.948-37.2363-28.628-20.1478-.673-37.8319 10.819-40.3398 26.241-.4634 36.182-.9279 72.364-1.3937 108.546z" stroke-miterlimit="10"/><path d="m33.4375 231.49h21.8468 22.1704" stroke-miterlimit="10"/><path d="m56.0703 290.246v-58.756" stroke-miterlimit="10"/><path d="m47.2129 180.945v-10.8h14.7901v10.009" stroke-miterlimit="10"/><path d="m51.6993 299.752h-18.8829v10.366h18.8829z" stroke-miterlimit="10"/><path d="m75.7364 299.752h-18.8829v10.366h18.8829z" stroke-miterlimit="10"/></g><path d="m94.6205 215.075h-17.1693v5.185h17.1693z" fill="#dddacf"/><path d="m94.6205 215.075h-17.1693v5.185h17.1693z" stroke="#c4b894" stroke-miterlimit="10" stroke-width="1.72465"/><path d="m94.619 225.445h-12.0174v12.099h12.0174z" fill="#dddacf"/><path d="m94.619 225.445h-12.0174v12.099h12.0174z" stroke="#c4b894" stroke-miterlimit="10" stroke-width="1.72465"/><path d="m94.6175 220.259h-13.7347v5.185h13.7347z" fill="#dddacf"/><path d="m94.6175 220.259h-13.7347v5.185h13.7347z" stroke="#c4b894" stroke-miterlimit="10" stroke-width="1.72465"/><path d="m34.1408 215.075h-17.8459v5.185h17.8459z" fill="#dddacf"/><path d="m34.1408 215.075h-17.8459v5.185h17.8459z" stroke="#c4b894" stroke-miterlimit="10" stroke-width="1.80187"/><path d="m28.7867 225.445h-12.4918v12.099h12.4918z" fill="#dddacf"/><path d="m28.7867 225.445h-12.4918v12.099h12.4918z" stroke="#c4b894" stroke-miterlimit="10" stroke-width="1.80187"/><path d="m30.5702 220.259h-14.2753v5.185h14.2753z" fill="#dddacf"/><path d="m30.5702 220.259h-14.2753v5.185h14.2753z" stroke="#c4b894" stroke-miterlimit="10" stroke-width="1.80187"/><path d="m135.584 290.246h43.69v-76.9c-.493-11.197-9.51-20.255-20.593-20.736-11.083-.482-20.927 7.836-22.317 19.008z" stroke="#c1b58f" stroke-miterlimit="10" stroke-width="1.72465"/><path d="m127.002 314.442h59.999v-99.357c-.681-14.466-13.058-26.167-28.29-26.792-15.305-.626-28.745 10.127-30.65 24.56z" stroke="#c1b58f" stroke-miterlimit="10" stroke-width="1.72465"/><path d="m116.613 314.442h78.97v-106.159c-.893-15.445-17.188-27.948-37.236-28.628-20.141-.673-37.832 10.819-40.333 26.241-.468 36.182-.935 72.364-1.401 108.546z" stroke="#c1b58f" stroke-miterlimit="10" stroke-width="1.72465"/><path d="m135.254 231.49h21.847 22.17" stroke="#c1b58f" stroke-miterlimit="10" stroke-width="1.72465"/><path d="m157.891 290.246v-58.756" stroke="#c1b58f" stroke-miterlimit="10" stroke-width="1.72465"/><path d="m149.035 180.945v-10.8h14.787v10.009" stroke="#c1b58f" stroke-miterlimit="10" stroke-width="1.72465"/><path d="m153.524 299.752h-18.883v10.366h18.883z" stroke="#c1b58f" stroke-miterlimit="10" stroke-width="1.72465"/><path d="m177.555 299.752h-18.883v10.366h18.883z" stroke="#c1b58f" stroke-miterlimit="10" stroke-width="1.72465"/><path d="m196.443 215.075h-17.17v5.185h17.17z" fill="#dddacf"/><path d="m196.443 215.075h-17.17v5.185h17.17z" stroke="#c4b894" stroke-miterlimit="10" stroke-width="1.72465"/><path d="m196.443 225.445h-12.017v12.099h12.017z" fill="#dddacf"/><path d="m196.443 225.445h-12.017v12.099h12.017z" stroke="#c4b894" stroke-miterlimit="10" stroke-width="1.72465"/><path d="m196.444 220.259h-13.735v5.185h13.735z" fill="#dddacf"/><path d="m196.444 220.259h-13.735v5.185h13.735z" stroke="#c4b894" stroke-miterlimit="10" stroke-width="1.72465"/><path d="m135.963 215.075h-17.846v5.185h17.846z" fill="#dddacf"/><path d="m135.963 215.075h-17.846v5.185h17.846z" stroke="#c4b894" stroke-miterlimit="10" stroke-width="1.80187"/><path d="m130.609 225.445h-12.492v12.099h12.492z" fill="#dddacf"/><path d="m130.609 225.445h-12.492v12.099h12.492z" stroke="#c4b894" stroke-miterlimit="10" stroke-width="1.80187"/><path d="m132.392 220.259h-14.275v5.185h14.275z" fill="#dddacf"/><path d="m132.392 220.259h-14.275v5.185h14.275z" stroke="#c4b894" stroke-miterlimit="10" stroke-width="1.80187"/><path d="m250.133 290.246h43.69v-76.9c-.497-11.197-9.51-20.255-20.593-20.736-11.083-.482-20.931 7.836-22.318 19.008z" stroke="#c1b58f" stroke-miterlimit="10" stroke-width="1.72465"/><path d="m241.551 314.442h59.998v-99.357c-.68-14.466-13.061-26.167-28.293-26.792-15.301-.626-28.741 10.127-30.646 24.56z" stroke="#c1b58f" stroke-miterlimit="10" stroke-width="1.72465"/><path d="m231.158 314.442h78.97v-106.16c-.894-15.444-17.188-27.947-37.236-28.627-20.141-.67-37.832 10.818-40.34 26.241-.463 36.182-.928 72.364-1.394 108.546z" stroke="#c1b58f" stroke-miterlimit="10" stroke-width="1.72465"/><path d="m249.803 231.49h21.847 22.17" stroke="#c1b58f" stroke-miterlimit="10" stroke-width="1.72465"/><path d="m272.439 290.246v-58.756" stroke="#c1b58f" stroke-miterlimit="10" stroke-width="1.72465"/><path d="m263.582 180.945v-10.8h14.786v10.009" stroke="#c1b58f" stroke-miterlimit="10" stroke-width="1.72465"/><path d="m268.068 299.752h-18.882v10.366h18.882z" stroke="#c1b58f" stroke-miterlimit="10" stroke-width="1.72465"/><path d="m292.104 299.752h-18.883v10.366h18.883z" stroke="#c1b58f" stroke-miterlimit="10" stroke-width="1.72465"/><path d="m310.99 215.075h-17.17v5.185h17.17z" fill="#dddacf"/><path d="m310.99 215.075h-17.17v5.185h17.17z" stroke="#c4b894" stroke-miterlimit="10" stroke-width="1.72465"/><path d="m310.984 225.445h-12.017v12.099h12.017z" fill="#dddacf"/><path d="m310.984 225.445h-12.017v12.099h12.017z" stroke="#c4b894" stroke-miterlimit="10" stroke-width="1.72465"/><path d="m310.989 220.259h-13.735v5.185h13.735z" fill="#dddacf"/><path d="m310.989 220.259h-13.735v5.185h13.735z" stroke="#c4b894" stroke-miterlimit="10" stroke-width="1.72465"/><path d="m250.506 215.075h-17.846v5.185h17.846z" fill="#dddacf"/><path d="m250.506 215.075h-17.846v5.185h17.846z" stroke="#c4b894" stroke-miterlimit="10" stroke-width="1.80187"/><path d="m245.152 225.445h-12.492v12.099h12.492z" fill="#dddacf"/><path d="m245.152 225.445h-12.492v12.099h12.492z" stroke="#c4b894" stroke-miterlimit="10" stroke-width="1.80187"/><path d="m246.935 220.259h-14.275v5.185h14.275z" fill="#dddacf"/><path d="m246.935 220.259h-14.275v5.185h14.275z" stroke="#c4b894" stroke-miterlimit="10" stroke-width="1.80187"/><path d="m405.488 291.83h43.69v-76.9c-.496-11.197-9.509-20.255-20.593-20.736-11.083-.482-20.931 7.836-22.317 19.008z" stroke="#c1b58f" stroke-miterlimit="10" stroke-width="1.72465"/><path d="m396.906 316.027h59.995v-99.357c-.676-14.466-13.058-26.167-28.289-26.793-15.301-.625-28.742 10.128-30.65 24.561-.351 33.866-.703 67.728-1.056 101.589z" stroke="#c1b58f" stroke-miterlimit="10" stroke-width="1.72465"/><path d="m386.521 316.026h78.97v-106.156c-.893-15.444-17.187-27.947-37.236-28.627-20.14-.67-37.832 10.818-40.34 26.241-.463 36.179-.928 72.36-1.394 108.542z" stroke="#c1b58f" stroke-miterlimit="10" stroke-width="1.72465"/><path d="m405.162 233.074h21.847 22.17" stroke="#c1b58f" stroke-miterlimit="10" stroke-width="1.72465"/><path d="m427.795 291.83v-58.756" stroke="#c1b58f" stroke-miterlimit="10" stroke-width="1.72465"/><path d="m418.936 182.529v-10.803h14.79v10.013" stroke="#c1b58f" stroke-miterlimit="10" stroke-width="1.72465"/><path d="m423.428 301.336h-18.883v10.366h18.883z" stroke="#c1b58f" stroke-miterlimit="10" stroke-width="1.72465"/><path d="m447.463 301.336h-18.883v10.366h18.883z" stroke="#c1b58f" stroke-miterlimit="10" stroke-width="1.72465"/><path d="m466.347 216.659h-17.169v5.185h17.169z" fill="#dddacf"/><path d="m466.347 216.659h-17.169v5.185h17.169z" stroke="#c4b894" stroke-miterlimit="10" stroke-width="1.72465"/><path d="m466.344 227.026h-12.018v12.099h12.018z" fill="#dddacf"/><path d="m466.344 227.026h-12.018v12.099h12.018z" stroke="#c4b894" stroke-miterlimit="10" stroke-width="1.72465"/><path d="m466.346 221.843h-13.735v5.185h13.735z" fill="#dddacf"/><path d="m466.346 221.843h-13.735v5.185h13.735z" stroke="#c4b894" stroke-miterlimit="10" stroke-width="1.72465"/><path d="m405.865 216.659h-17.845v5.185h17.845z" fill="#dddacf"/><path d="m405.865 216.659h-17.845v5.185h17.845z" stroke="#c4b894" stroke-miterlimit="10" stroke-width="1.80187"/><path d="m400.511 227.026h-12.491v12.099h12.491z" fill="#dddacf"/><path d="m400.511 227.026h-12.491v12.099h12.491z" stroke="#c4b894" stroke-miterlimit="10" stroke-width="1.80187"/><path d="m402.295 221.843h-14.275v5.185h14.275z" fill="#dddacf"/><path d="m402.295 221.843h-14.275v5.185h14.275z" stroke="#c4b894" stroke-miterlimit="10" stroke-width="1.80187"/><path d="m322.17 153.726v6.05l4.288 4.317v162.444h45.411v-43.16-118.876l3.636-3.659v-7.98z" stroke="#c1b58f" stroke-miterlimit="10" stroke-width="1.72465"/><path d="m333.242 199.52h5.148s-1.717-8.638 10.297-8.638 10.296 8.638 10.296 8.638h6.88v55.299h-6.869s3.435 12.098-8.583 12.098c-12.017 0-10.296-12.098-10.296-12.098h-6.873z" stroke="#c1b58f" stroke-miterlimit="10" stroke-width="1.72465"/><path d="m365.86 289.382h-32.618v17.283h32.618z" stroke="#c1b58f" stroke-miterlimit="10" stroke-width="1.72465"/><path d="m372.726 163.231h-46.352l-3.435-5.185h51.505z" stroke="#c1b58f" stroke-miterlimit="10" stroke-width="1.72465"/><path d="m376.159 177.055h-54.075v6.913h54.075z" fill="#c1b58f"/><path d="m377.019 276.423h-54.935v6.913h54.935z" fill="#c1b58f"/><path d="m-2.19141 153.726 377.69441-.864" stroke="#c1b58f" stroke-miterlimit="10" stroke-width="1.72465"/><path d="m501.482 170.145h-22.318v145.161h22.318z" stroke="#c1b58f" stroke-miterlimit="10" stroke-width="1.72465"/><path d="m506.629 177.055h-32.617v6.913h32.617z" fill="#c1b58f"/><path d="m504.911 164.957h-29.182v5.185h29.182z" stroke="#c1b58f" stroke-miterlimit="10" stroke-width="1.72465"/><path d="m510.064 154.59h-37.769v5.185h37.769z" stroke="#c1b58f" stroke-miterlimit="10" stroke-width="1.72465"/><path d="m508.347 159.775h-34.335v5.185h34.335z" fill="#c1b58f"/><path d="m495.471 183.104h-11.16v138.248h11.16z" stroke="#c1b58f" stroke-miterlimit="10" stroke-width="1.72465"/><path d="m375.301 153.726 384.744-.864" stroke="#c1b58f" stroke-miterlimit="10" stroke-width="1.72465"/><path d="m778.507 117.736h-781.10856v25.922h781.10856z" fill="#c1b58f"/><path d="m390.434 210.647c.405 1.136 3.332 1.103 6.531-.055 3.199-1.159 5.465-3.034 5.056-4.167-.408-1.132-3.331-1.103-6.53.059-3.2 1.162-5.465 3.03-5.057 4.163z" fill="#6c8927"/><path d="m403.433 205.756c-.173 1.074-3.174 1.758-6.707 1.526-3.534-.231-6.252-1.29-6.075-2.364.176-1.074 3.177-1.758 6.707-1.526 3.53.231 6.251 1.29 6.075 2.364z" fill="#6c8927"/><path d="m403.121 205.161c.82.633-.434 3.457-2.802 6.303s-4.95 4.659-5.773 4.012c-.824-.647.433-3.453 2.802-6.303 2.368-2.85 4.946-4.644 5.766-4.012" fill="#a09912"/><path d="m405.635 202.31c-.923-.489-3.225 1.658-5.148 4.78-1.924 3.122-2.722 6.079-1.799 6.568s3.225-1.662 5.149-4.803c1.923-3.14 2.721-6.078 1.798-6.564" fill="#6c8927"/><path d="m405.849 203.252c.265-1.063-2.331-2.353-5.802-2.879-3.472-.526-6.498-.092-6.759.971-.261 1.062 2.331 2.353 5.802 2.883 3.472.529 6.495.092 6.759-.975z" fill="#a09912"/><path d="m409.759 200.798c-.173 1.074-3.178 1.758-6.708 1.526-3.53-.231-6.251-1.287-6.078-2.364.172-1.078 3.177-1.754 6.707-1.526s6.251 1.291 6.079 2.364z" fill="#6c8927"/><path d="m409.446 200.202c.816.633-.438 3.457-2.802 6.307-2.365 2.849-4.95 4.644-5.77 4.012-.82-.633.434-3.457 2.802-6.307s4.95-4.644 5.77-4.012z" fill="#a09912"/><path d="m411.957 197.368c-.923-.489-3.225 1.659-5.148 4.781s-2.721 6.078-1.798 6.567 3.225-1.658 5.148-4.78 2.717-6.079 1.798-6.568z" fill="#6c8927"/><path d="m412.176 198.299c.264-1.062-2.335-2.353-5.803-2.883-3.468-.529-6.498-.092-6.763.975-.264 1.066 2.335 2.353 5.803 2.879s6.498.092 6.763-.971z" fill="#a09912"/><path d="m404.717 205.756c.301.426.422.952.338 1.467-.084.514-.366.975-.786 1.283-.193.171-.418.301-.662.384-.243.083-.501.117-.757.1-.257-.017-.508-.085-.738-.199-.231-.115-.436-.274-.605-.468-.302-.425-.424-.952-.341-1.467.083-.514.366-.976.786-1.284.193-.17.418-.301.662-.384s.502-.117.759-.1.508.085.739.2c.231.114.436.273.605.468z" fill="#e2d030"/><path d="m407.283 196.194c.303.425.426.952.343 1.467s-.366.976-.788 1.284c-.192.17-.417.3-.66.383-.244.083-.501.117-.758.101-.256-.017-.507-.084-.738-.198-.23-.114-.436-.273-.605-.466-.303-.425-.426-.952-.343-1.467.084-.515.367-.976.788-1.284.193-.17.417-.3.661-.383.243-.083.5-.117.757-.1.257.016.507.084.738.197.23.114.436.273.605.466z" fill="#e2d030"/><path d="m422.902 196.516c-.876.64-3.483-1.011-5.821-3.677-2.339-2.666-3.523-5.358-2.648-5.994.875-.637 3.482 1.011 5.821 3.677s3.527 5.354 2.648 5.99" fill="#6c8927"/><path d="m423.096 195.871c.14 1.03-2.728 2.14-6.402 2.475-3.673.335-6.762-.224-6.902-1.258-.14-1.033 2.732-2.136 6.406-2.474 3.673-.339 6.762.228 6.898 1.257z" fill="#a09912"/><path d="m426.878 195.636c-.312-1.001-3.449-1.104-7.005-.254-3.556.849-6.192 2.375-5.884 3.376.309 1 3.446 1.103 6.987.253 3.542-.849 6.193-2.372 5.884-3.375" fill="#6c8927"/><path d="m426.37 196.46c.93-.566 0-3.309-2.093-6.163-2.092-2.853-4.538-4.696-5.461-4.115s0 3.31 2.093 6.163c2.092 2.854 4.538 4.682 5.472 4.115" fill="#a09912"/><path d="m430.855 197.501c-.875.636-3.483-1.015-5.821-3.677-2.339-2.663-3.523-5.358-2.648-5.994s3.482 1.015 5.821 3.677 3.527 5.358 2.648 5.994z" fill="#6c8927"/><path d="m431.048 196.854c.139 1.029-2.729 2.14-6.403 2.475-3.673.334-6.762-.225-6.902-1.254-.14-1.03 2.732-2.14 6.406-2.475s6.763.224 6.899 1.254z" fill="#a09912"/><path d="m434.832 196.632c-.312-1-3.449-1.103-6.986-.25-3.538.853-6.193 2.372-5.884 3.372s3.446 1.103 6.987.254c3.541-.85 6.189-2.372 5.883-3.376z" fill="#6c8927"/><path d="m434.323 197.441c.93-.566 0-3.309-2.092-6.163-2.093-2.853-4.538-4.681-5.472-4.115-.934.567 0 3.31 2.092 6.164 2.092 2.853 4.538 4.681 5.472 4.114z" fill="#a09912"/><path d="m423.807 197.428c-.009.415-.143.817-.384 1.155-.242.337-.579.593-.969.735s-.813.163-1.215.061c-.402-.103-.763-.325-1.037-.636-.274-.312-.447-.699-.497-1.11-.051-.412.025-.829.216-1.198.191-.368.488-.67.854-.866.365-.196.781-.277 1.194-.233.258.015.511.082.744.196.233.113.441.272.612.467.171.194.301.421.384.666.083.246.116.505.098.763z" fill="#e2d030"/><path d="m432.329 192.478c-.009.415-.143.817-.385 1.154-.241.338-.579.594-.968.736-.39.142-.814.163-1.216.06-.401-.102-.763-.324-1.037-.635-.273-.312-.447-.699-.497-1.111-.05-.411.025-.829.216-1.197s.489-.67.854-.866c.366-.196.782-.278 1.194-.233.259.015.512.082.745.195.232.114.44.273.611.468.171.194.302.421.385.666s.116.505.098.763z" fill="#e2d030"/><path d="m412.002 198.103c-.714.817-3.619-.217-6.483-2.305-2.865-2.089-4.608-4.442-3.894-5.259.713-.816 3.618.217 6.486 2.306 2.869 2.089 4.608 4.442 3.891 5.258z" fill="#6c8927"/><path d="m412.052 197.445c.368.974-2.206 2.692-5.707 3.835-3.501 1.144-6.648 1.276-6.987.302-.338-.975 2.207-2.692 5.707-3.832 3.501-1.14 6.645-1.28 6.987-.305z" fill="#a09912"/><path d="m415.688 196.378c-.522-.908-3.607-.323-6.887 1.306-3.281 1.629-5.516 3.677-4.998 4.596.519.92 3.608.324 6.888-1.305s5.516-3.677 4.997-4.597z" fill="#6c8927"/><path d="m415.37 197.295c.787-.758-.735-3.244-3.386-5.549-2.652-2.306-5.45-3.56-6.252-2.802-.801.757.736 3.243 3.387 5.552 2.651 2.31 5.45 3.56 6.251 2.799z" fill="#a09912"/><path d="m419.976 197.313c-.735.816-3.618-.213-6.487-2.302-2.868-2.089-4.607-4.442-3.89-5.258.717-.817 3.618.213 6.483 2.302 2.865 2.088 4.608 4.445 3.894 5.258z" fill="#6c8927"/><path d="m420.026 196.633c.367.975-2.207 2.692-5.708 3.832-3.5 1.14-6.644 1.28-6.986.302-.342-.979 2.206-2.689 5.703-3.832 3.497-1.144 6.649-1.276 6.987-.302" fill="#a09912"/><path d="m423.659 195.577c-.522-.908-3.604-.323-6.888 1.306-3.283 1.629-5.515 3.677-4.997 4.593.519.915 3.607.323 6.888-1.306 3.28-1.629 5.516-3.677 4.997-4.593z" fill="#6c8927"/><path d="m423.345 196.493c.787-.757-.736-3.243-3.391-5.549-2.655-2.305-5.449-3.563-6.251-2.806-.802.758.735 3.247 3.39 5.553s5.45 3.56 6.252 2.802z" fill="#a09912"/><path d="m413.085 198.805c.083.407.041.83-.121 1.212-.162.383-.435.708-.785.932-.349.224-.758.338-1.173.325-.415-.012-.817-.15-1.153-.394-.335-.245-.589-.586-.727-.977-.139-.392-.156-.816-.049-1.217s.333-.761.648-1.032c.315-.27.704-.44 1.117-.485.514-.078 1.038.05 1.459.356.42.307.702.767.784 1.28z" fill="#e2d030"/><path d="m420.317 192.086c.083.407.042.83-.119 1.213s-.434.708-.784.933c-.349.225-.758.339-1.173.327-.416-.012-.818-.149-1.153-.393-.336-.245-.59-.585-.729-.977-.139-.391-.156-.816-.05-1.217.107-.402.332-.761.647-1.032s.705-.441 1.118-.486c.513-.08 1.038.047 1.458.353s.702.766.785 1.279z" fill="#e2d030"/><path d="m437.16 198.446c-1.037.301-2.942-2.133-4.254-5.439-1.313-3.306-1.534-6.251-.497-6.542 1.037-.29 2.942 2.133 4.255 5.442 1.313 3.31 1.533 6.252.496 6.539z" fill="#6c8927"/><path d="m437.57 197.906c-.213 1.015-3.288 1.103-6.858.165-3.571-.937-6.296-2.5-6.079-3.515s3.288-1.103 6.858-.169c3.571.934 6.296 2.5 6.079 3.519z" fill="#a09912"/><path d="m441.194 198.96c.044-1.048-2.876-2.206-6.513-2.607s-6.619.143-6.663 1.191 2.876 2.207 6.513 2.607c3.636.401 6.619-.143 6.663-1.191z" fill="#6c8927"/><path d="m440.441 199.575c1.07-.217 1.103-3.134.088-6.513s-2.71-5.946-3.78-5.726c-1.071.221-1.104 3.134-.089 6.513s2.714 5.942 3.781 5.726z" fill="#a09912"/><path d="m444.328 202.06c-1.037.305-2.942-2.133-4.254-5.439-1.313-3.306-1.534-6.251-.497-6.542 1.037-.29 2.942 2.133 4.255 5.443 1.313 3.309 1.533 6.233.496 6.538z" fill="#6c8927"/><path d="m444.72 201.52c-.213 1.015-3.284 1.103-6.858.166-3.575-.938-6.292-2.501-6.079-3.516.214-1.015 3.288-1.103 6.858-.169 3.571.934 6.296 2.501 6.079 3.519z" fill="#a09912"/><path d="m448.36 202.575c.044-1.048-2.876-2.206-6.513-2.607s-6.619.143-6.663 1.191 2.876 2.207 6.513 2.608c3.636.4 6.619-.144 6.663-1.192z" fill="#6c8927"/><path d="m447.607 203.178c1.07-.217 1.103-3.133.088-6.512-1.015-3.38-2.71-5.947-3.78-5.726-1.071.221-1.104 3.133-.089 6.512 1.015 3.38 2.714 5.943 3.781 5.726z" fill="#a09912"/><path d="m437.713 199.608c-.146.391-.406.728-.747.967-.341.24-.747.37-1.163.375-.417.005-.825-.117-1.171-.349-.347-.232-.614-.563-.769-.95-.154-.387-.187-.812-.096-1.218.092-.407.305-.776.61-1.059.306-.283.69-.467 1.102-.528.413-.06.833.005 1.208.188.472.211.844.598 1.036 1.079.191.481.188 1.017-.01 1.495z" fill="#e2d030"/><path d="m447.385 197.828c-.123.225-.29.424-.491.586-.2.161-.43.281-.677.353s-.506.095-.762.067c-.255-.028-.503-.107-.729-.231-.474-.209-.847-.596-1.039-1.077-.191-.481-.187-1.019.013-1.497.124-.226.29-.425.49-.587.201-.161.431-.282.678-.354.247-.073.506-.096.762-.068s.503.106.729.23c.474.209.847.596 1.039 1.077.192.482.187 1.019-.013 1.497" fill="#e2d030"/><path d="m449.05 206.713c-1.07-.158-1.791-3.174-1.607-6.73s1.195-6.31 2.261-6.148c1.067.162 1.791 3.173 1.607 6.729s-1.195 6.311-2.261 6.149z" fill="#6c8927"/><path d="m449.637 206.389c-.618.835-3.438-.39-6.299-2.732s-4.681-4.916-4.045-5.751 3.438.39 6.299 2.732 4.681 4.92 4.045 5.751z" fill="#a09912"/><path d="m452.504 208.878c.471-.934-1.695-3.221-4.839-5.107-3.145-1.887-6.075-2.655-6.546-1.721s1.692 3.221 4.836 5.107c3.144 1.887 6.075 2.655 6.549 1.721z" fill="#6c8927"/><path d="m451.567 209.11c1.059.254 2.306-2.379 2.78-5.884.475-3.504 0-6.542-1.059-6.792s-2.305 2.38-2.78 5.884c-.474 3.505 0 6.542 1.059 6.792z" fill="#a09912"/><path d="m454.059 213.011c-1.07-.161-1.79-3.173-1.607-6.733.184-3.559 1.196-6.31 2.262-6.148s1.791 3.173 1.607 6.729-1.195 6.311-2.262 6.152z" fill="#6c8927"/><path d="m454.645 212.688c-.618.831-3.438-.394-6.299-2.736-2.861-2.343-4.682-4.917-4.045-5.751.636-.835 3.438.389 6.299 2.736 2.861 2.346 4.681 4.916 4.045 5.751z" fill="#a09912"/><path d="m457.512 215.174c.47-.934-1.696-3.221-4.84-5.107-3.144-1.887-6.074-2.655-6.545-1.721s1.691 3.225 4.835 5.107c3.145 1.883 6.075 2.659 6.55 1.721z" fill="#6c8927"/><path d="m456.577 215.405c1.059.254 2.306-2.379 2.78-5.883.474-3.505 0-6.538-1.059-6.792s-2.306 2.383-2.78 5.883c-.474 3.501 0 6.542 1.059 6.792z" fill="#a09912"/><path d="m449.071 208.002c-.207.154-.442.264-.692.327-.25.062-.509.074-.764.036-.254-.038-.499-.126-.719-.259s-.412-.308-.565-.515c-.347-.39-.527-.901-.5-1.422s.258-1.01.643-1.362c.207-.153.442-.264.691-.326s.509-.075.763-.036c.254.038.498.126.718.259s.412.308.564.515c.347.389.527.899.501 1.42s-.256 1.011-.64 1.363z" fill="#e2d030"/><path d="m458.602 210.452c-.207.153-.442.264-.692.326s-.509.074-.764.036c-.254-.038-.499-.126-.719-.259s-.412-.308-.565-.515c-.347-.389-.527-.899-.5-1.42.027-.52.258-1.009.643-1.36.206-.154.441-.265.69-.328.25-.063.509-.076.763-.038.255.038.499.126.719.259s.412.308.564.515c.347.389.527.9.501 1.42-.026.521-.256 1.011-.64 1.364z" fill="#e2d030"/><path d="m237.436 210.647c.408 1.136 3.332 1.103 6.531-.055 3.199-1.159 5.468-3.034 5.06-4.167-.408-1.132-3.332-1.103-6.534.059-3.203 1.162-5.465 3.03-5.057 4.163z" fill="#6c8927"/><path d="m250.438 205.756c-.176 1.074-3.177 1.758-6.707 1.526-3.53-.231-6.252-1.29-6.079-2.364s3.178-1.758 6.708-1.526c3.53.231 6.251 1.29 6.078 2.364z" fill="#6c8927"/><path d="m250.129 205.161c.816.633-.438 3.457-2.802 6.303-2.365 2.846-4.95 4.659-5.755 4.012-.806-.647.433-3.453 2.802-6.303 2.368-2.85 4.949-4.644 5.769-4.012" fill="#a09912"/><path d="m252.639 202.31c-.923-.489-3.225 1.658-5.149 4.78-1.923 3.122-2.721 6.079-1.798 6.568s3.225-1.662 5.148-4.803c1.924-3.14 2.718-6.078 1.799-6.564" fill="#6c8927"/><path d="m252.857 203.252c.265-1.063-2.335-2.353-5.802-2.879-3.468-.526-6.498-.092-6.763.971-.265 1.062 2.335 2.353 5.803 2.883 3.467.529 6.498.092 6.762-.975z" fill="#a09912"/><path d="m256.763 200.798c-.173 1.074-3.173 1.758-6.707 1.526-3.534-.231-6.252-1.287-6.075-2.364.176-1.078 3.177-1.754 6.707-1.526s6.252 1.291 6.075 2.364z" fill="#6c8927"/><path d="m256.449 200.202c.82.633-.434 3.457-2.802 6.307-2.369 2.849-4.95 4.644-5.766 4.012-.817-.633.434-3.457 2.802-6.307s4.946-4.644 5.766-4.012z" fill="#a09912"/><path d="m258.961 197.368c-.923-.489-3.225 1.659-5.148 4.781-1.924 3.122-2.721 6.078-1.798 6.567s3.224-1.658 5.148-4.78c1.923-3.122 2.721-6.079 1.798-6.568z" fill="#6c8927"/><path d="m259.175 198.299c.265-1.062-2.331-2.353-5.802-2.883-3.472-.529-6.498-.092-6.759.975-.261 1.066 2.331 2.353 5.803 2.879 3.471.526 6.494.092 6.758-.971z" fill="#a09912"/><path d="m251.719 205.756c.303.424.426.951.342 1.466-.083.515-.366.976-.787 1.284-.193.17-.418.301-.661.384-.244.083-.501.117-.758.1-.257-.018-.508-.085-.738-.2-.23-.114-.436-.273-.605-.468-.302-.424-.425-.951-.342-1.466s.366-.977.787-1.284c.193-.171.418-.301.662-.384.243-.083.501-.117.757-.1.257.017.508.085.738.2.231.114.436.273.605.468z" fill="#e2d030"/><path d="m254.288 196.194c.301.426.422.953.338 1.467-.084.515-.366.976-.786 1.284-.193.17-.418.3-.661.383-.244.083-.501.117-.758.101-.256-.017-.507-.084-.737-.198-.231-.114-.437-.273-.606-.466-.301-.426-.423-.953-.339-1.467.084-.515.367-.976.788-1.284.193-.17.417-.3.661-.383.243-.083.5-.117.757-.1.257.016.507.084.738.197.23.114.436.273.605.466z" fill="#e2d030"/><path d="m269.907 196.516c-.879.64-3.482-1.011-5.821-3.677s-3.527-5.358-2.648-5.994c.879-.637 3.483 1.011 5.821 3.677 2.339 2.666 3.523 5.354 2.648 5.99" fill="#6c8927"/><path d="m270.1 195.871c.136 1.03-2.732 2.14-6.406 2.475-3.673.335-6.762-.224-6.898-1.258-.136-1.033 2.732-2.136 6.406-2.474 3.673-.339 6.762.228 6.898 1.257z" fill="#a09912"/><path d="m273.88 195.636c-.309-1.001-3.446-1.104-7.005-.254-3.56.849-6.189 2.375-5.884 3.376.305 1 3.446 1.103 6.987.253 3.541-.849 6.192-2.372 5.883-3.375" fill="#6c8927"/><path d="m273.372 196.46c.934-.566 0-3.309-2.089-6.163-2.088-2.853-4.537-4.696-5.471-4.115-.935.581 0 3.31 2.088 6.163 2.089 2.854 4.538 4.682 5.472 4.115z" fill="#a09912"/><path d="m277.862 197.501c-.879.636-3.482-1.015-5.821-3.677-2.339-2.663-3.527-5.358-2.648-5.994s3.483 1.015 5.821 3.677c2.339 2.662 3.523 5.358 2.648 5.994z" fill="#6c8927"/><path d="m278.059 196.854c.136 1.029-2.732 2.14-6.406 2.475-3.673.334-6.762-.225-6.898-1.254-.136-1.03 2.732-2.14 6.406-2.475 3.673-.335 6.762.224 6.898 1.254z" fill="#a09912"/><path d="m281.834 196.632c-.309-1-3.446-1.103-6.987-.25s-6.189 2.372-5.884 3.372c.306 1 3.446 1.103 6.987.254 3.541-.85 6.193-2.372 5.884-3.376z" fill="#6c8927"/><path d="m281.326 197.441c.934-.566 0-3.309-2.089-6.163-2.089-2.853-4.542-4.681-5.472-4.115-.93.567 0 3.31 2.089 6.164 2.088 2.853 4.537 4.681 5.472 4.114z" fill="#a09912"/><path d="m270.815 197.428c-.009.415-.143.817-.384 1.155-.242.337-.579.593-.969.735s-.813.163-1.215.061c-.402-.103-.764-.325-1.037-.636-.274-.312-.447-.699-.498-1.11-.05-.412.026-.829.217-1.198.191-.368.488-.67.854-.866.365-.196.781-.277 1.194-.233.258.016.511.083.743.197.233.114.44.272.611.467.171.194.302.421.385.666s.117.504.099.762z" fill="#e2d030"/><path d="m279.337 192.478c-.009.415-.143.817-.385 1.154-.241.338-.579.594-.969.736-.389.142-.813.163-1.215.06-.402-.102-.763-.324-1.037-.635-.274-.312-.447-.699-.497-1.111-.05-.411.025-.829.216-1.197s.489-.67.854-.866c.366-.196.782-.278 1.194-.233.258.016.511.083.743.197s.44.273.611.468c.17.194.301.42.384.665.084.245.118.504.101.762z" fill="#e2d030"/><path d="m259.007 198.103c-.717.817-3.618-.217-6.486-2.305-2.869-2.089-4.608-4.442-3.891-5.259.717-.816 3.619.217 6.483 2.306 2.865 2.089 4.612 4.442 3.894 5.258z" fill="#6c8927"/><path d="m259.056 197.445c.368.974-2.206 2.692-5.703 3.835-3.497 1.144-6.649 1.276-6.987.302-.338-.975 2.206-2.692 5.707-3.832s6.645-1.28 6.987-.305" fill="#a09912"/><path d="m262.694 196.378c-.522-.908-3.607-.323-6.891 1.306s-5.516 3.677-4.998 4.596c.519.92 3.608.324 6.892-1.305 3.283-1.629 5.515-3.677 4.997-4.597z" fill="#6c8927"/><path d="m262.374 197.295c.787-.758-.735-3.244-3.386-5.549-2.652-2.306-5.45-3.56-6.252-2.802-.802.757.736 3.243 3.387 5.552 2.651 2.31 5.45 3.56 6.251 2.799z" fill="#a09912"/><path d="m266.98 197.313c-.713.816-3.618-.213-6.483-2.302-2.864-2.089-4.607-4.442-3.894-5.258.713-.817 3.619.213 6.483 2.302 2.865 2.088 4.611 4.445 3.894 5.258z" fill="#6c8927"/><path d="m267.031 196.633c.367.975-2.207 2.692-5.707 3.832-3.501 1.14-6.649 1.28-7.006.302-.356-.979 2.207-2.689 5.707-3.832 3.501-1.144 6.645-1.276 6.987-.302" fill="#a09912"/><path d="m270.665 195.577c-.523-.908-3.608-.323-6.892 1.306-3.283 1.629-5.516 3.677-4.997 4.593.518.915 3.611.323 6.891-1.306s5.516-3.677 4.998-4.593z" fill="#6c8927"/><path d="m270.347 196.493c.787-.757-.735-3.243-3.387-5.549-2.651-2.305-5.45-3.563-6.251-2.806-.802.758.735 3.247 3.387 5.553 2.651 2.306 5.449 3.56 6.251 2.802z" fill="#a09912"/><path d="m260.093 198.805c.083.407.04.83-.121 1.212-.162.383-.435.708-.785.932-.349.224-.758.338-1.173.325-.416-.012-.817-.15-1.153-.394-.335-.245-.589-.586-.727-.977-.139-.392-.156-.816-.049-1.217s.333-.761.648-1.032c.314-.27.704-.44 1.117-.485.514-.076 1.037.052 1.457.359.419.306.702.765.786 1.277z" fill="#e2d030"/><path d="m267.311 192.088c.083.407.042.83-.119 1.213s-.435.708-.784.933c-.35.225-.759.339-1.174.327-.416-.012-.818-.15-1.154-.395-.335-.244-.589-.585-.728-.977-.138-.392-.155-.816-.048-1.218.107-.401.333-.761.649-1.032.315-.27.705-.439 1.118-.484.513-.078 1.037.049 1.456.355.42.306.701.765.784 1.278z" fill="#e2d030"/><path d="m284.163 198.446c-1.037.301-2.942-2.133-4.251-5.439s-1.533-6.251-.496-6.542c1.037-.29 2.942 2.133 4.255 5.442 1.312 3.31 1.533 6.252.492 6.539z" fill="#6c8927"/><path d="m284.565 197.906c-.217 1.015-3.287 1.103-6.858.165-3.57-.937-6.295-2.5-6.082-3.515s3.288-1.103 6.862-.169 6.292 2.5 6.078 3.519z" fill="#a09912"/><path d="m288.199 198.96c.041-1.048-2.875-2.206-6.516-2.607-3.64-.401-6.619.143-6.663 1.191s2.876 2.207 6.516 2.607c3.641.401 6.619-.143 6.663-1.191z" fill="#6c8927"/><path d="m287.451 199.575c1.07-.217 1.103-3.134.088-6.513s-2.714-5.946-3.78-5.726c-1.066.221-1.103 3.134-.088 6.513s2.71 5.942 3.78 5.726z" fill="#a09912"/><path d="m291.329 202.06c-1.037.305-2.942-2.133-4.251-5.439s-1.533-6.251-.496-6.542c1.037-.29 2.942 2.133 4.255 5.443 1.312 3.309 1.533 6.233.492 6.538z" fill="#6c8927"/><path d="m291.726 201.52c-.217 1.015-3.288 1.103-6.859.166-3.57-.938-6.295-2.501-6.082-3.516s3.288-1.103 6.862-.169 6.292 2.501 6.079 3.519z" fill="#a09912"/><path d="m295.367 202.575c.041-1.048-2.875-2.206-6.516-2.607-3.64-.401-6.619.143-6.663 1.191s2.876 2.207 6.516 2.608c3.641.4 6.619-.144 6.663-1.192z" fill="#6c8927"/><path d="m294.613 203.178c1.07-.217 1.103-3.133.088-6.512-1.015-3.38-2.714-5.947-3.78-5.726s-1.103 3.133-.088 6.512c1.015 3.38 2.71 5.943 3.78 5.726z" fill="#a09912"/><path d="m284.717 199.608c-.123.226-.29.425-.491.586-.2.161-.43.281-.677.353s-.506.095-.762.067c-.255-.028-.503-.106-.729-.23-.474-.209-.847-.596-1.038-1.078-.192-.481-.188-1.018.012-1.496.124-.226.29-.426.49-.587.201-.162.431-.282.678-.355.247-.072.506-.095.762-.067.256.027.503.105.729.229.474.209.847.596 1.039 1.077.192.482.187 1.019-.013 1.497" fill="#e2d030"/><path d="m294.394 197.828c-.123.225-.29.424-.491.586-.2.161-.43.281-.677.353s-.506.095-.762.067-.503-.107-.729-.231c-.474-.208-.848-.595-1.04-1.076-.192-.482-.187-1.02.014-1.498.123-.226.29-.425.49-.587.201-.161.431-.282.678-.354.247-.073.506-.096.762-.068.255.028.503.106.729.23.473.211.845.597 1.036 1.078.192.481.188 1.018-.01 1.496" fill="#e2d030"/><path d="m296.053 206.712c-1.067-.158-1.788-3.173-1.607-6.729.18-3.556 1.18-6.292 2.283-6.149 1.103.144 1.787 3.174 1.607 6.73s-1.195 6.31-2.265 6.148" fill="#6c8927"/><path d="m296.642 206.389c-.618.835-3.439-.39-6.303-2.732-2.865-2.342-4.678-4.916-4.045-5.751.632-.835 3.442.39 6.303 2.732s4.681 4.92 4.045 5.751z" fill="#a09912"/><path d="m299.507 208.878c.474-.934-1.692-3.221-4.836-5.107-3.144-1.887-6.075-2.655-6.549-1.721-.475.934 1.695 3.221 4.839 5.107 3.144 1.887 6.075 2.655 6.546 1.721z" fill="#6c8927"/><path d="m298.569 209.11c1.059.254 2.306-2.379 2.784-5.884.478-3.504 0-6.542-1.059-6.792-1.06-.25-2.306 2.38-2.784 5.884-.478 3.505 0 6.542 1.059 6.792z" fill="#a09912"/><path d="m301.062 213.011c-1.066-.161-1.787-3.173-1.607-6.733.181-3.559 1.195-6.31 2.266-6.148 1.07.162 1.787 3.173 1.607 6.729-.181 3.556-1.196 6.311-2.266 6.152z" fill="#6c8927"/><path d="m301.65 212.688c-.618.831-3.439-.394-6.303-2.736-2.865-2.343-4.678-4.917-4.045-5.751.632-.835 3.442.389 6.303 2.736 2.86 2.346 4.681 4.916 4.045 5.751z" fill="#a09912"/><path d="m304.514 215.174c.475-.934-1.691-3.221-4.835-5.107-3.144-1.887-6.075-2.655-6.549-1.721-.475.934 1.695 3.225 4.839 5.107 3.144 1.883 6.075 2.659 6.545 1.721z" fill="#6c8927"/><path d="m303.581 215.405c1.059.254 2.305-2.379 2.783-5.883.478-3.505 0-6.538-1.059-6.792s-2.305 2.383-2.783 5.883c-.479 3.501 0 6.542 1.059 6.792z" fill="#a09912"/><path d="m296.071 208.003c-.206.153-.441.264-.691.326-.249.062-.508.074-.762.036-.255-.038-.499-.126-.719-.259s-.412-.308-.564-.515c-.347-.39-.527-.9-.5-1.421.026-.521.256-1.01.64-1.363.207-.153.442-.264.691-.326.25-.062.51-.075.764-.036.255.038.499.126.719.259.221.133.413.308.565.515.347.39.526.9.499 1.421s-.257 1.01-.642 1.363z" fill="#e2d030"/><path d="m305.604 210.452c-.207.153-.441.264-.691.326-.249.062-.508.075-.763.036-.254-.038-.498-.126-.718-.259s-.412-.308-.564-.515c-.347-.389-.526-.898-.5-1.419.026-.52.256-1.009.64-1.361.206-.154.441-.265.691-.328.249-.063.509-.076.763-.038.255.038.5.126.72.259.221.133.413.308.565.515.347.39.526.901.499 1.422-.027.52-.257 1.01-.642 1.362z" fill="#e2d030"/><path d="m122.231 210.647c.408 1.136 3.332 1.103 6.531-.055 3.199-1.159 5.468-3.034 5.06-4.167-.408-1.132-3.332-1.103-6.535.059-3.202 1.162-5.464 3.03-5.056 4.163z" fill="#6c8927"/><path d="m135.235 205.756c-.176 1.074-3.177 1.758-6.707 1.526-3.53-.231-6.252-1.29-6.079-2.364s3.177-1.758 6.708-1.526c3.53.231 6.251 1.29 6.078 2.364z" fill="#6c8927"/><path d="m134.928 205.161c.816.633-.438 3.457-2.802 6.303-2.365 2.846-4.957 4.659-5.777 4.012s.434-3.453 2.802-6.303 4.95-4.644 5.77-4.012" fill="#a09912"/><path d="m137.432 202.31c-.923-.489-3.225 1.658-5.149 4.78-1.923 3.122-2.721 6.079-1.798 6.568s3.225-1.662 5.148-4.803c1.924-3.14 2.718-6.078 1.799-6.564" fill="#6c8927"/><path d="m137.652 203.252c.265-1.063-2.335-2.353-5.803-2.879-3.467-.526-6.497-.092-6.762.971-.265 1.062 2.335 2.353 5.803 2.883 3.467.529 6.497.092 6.762-.975z" fill="#a09912"/><path d="m141.548 200.798c-.173 1.074-3.173 1.758-6.707 1.526-3.534-.231-6.252-1.287-6.075-2.364.176-1.078 3.177-1.754 6.707-1.526 3.531.228 6.252 1.291 6.075 2.364z" fill="#6c8927"/><path d="m141.246 200.202c.82.633-.434 3.457-2.803 6.307-2.368 2.849-4.949 4.644-5.766 4.012-.816-.633.434-3.457 2.803-6.307 2.368-2.85 4.946-4.644 5.766-4.012z" fill="#a09912"/><path d="m143.754 197.368c-.923-.489-3.225 1.659-5.148 4.781-1.924 3.122-2.722 6.078-1.799 6.567s3.225-1.658 5.149-4.78c1.923-3.122 2.721-6.079 1.798-6.568z" fill="#6c8927"/><path d="m143.973 198.299c.264-1.062-2.332-2.353-5.803-2.883-3.472-.529-6.498-.092-6.763.975-.265 1.066 2.335 2.353 5.807 2.879 3.471.526 6.494.092 6.759-.971z" fill="#a09912"/><path d="m136.516 205.756c.303.424.426.951.342 1.466-.083.515-.366.976-.787 1.284-.193.17-.418.301-.661.384-.244.083-.501.117-.758.1-.257-.018-.508-.085-.738-.2-.231-.114-.436-.273-.605-.468-.302-.424-.425-.951-.342-1.466s.366-.977.787-1.284c.193-.171.418-.301.661-.384.244-.083.502-.117.758-.1.257.017.508.085.738.2.231.114.436.273.605.468z" fill="#e2d030"/><path d="m139.081 196.195c.3.426.421.952.337 1.467-.083.514-.366.975-.786 1.283-.193.17-.418.301-.661.384s-.501.117-.757.1c-.257-.017-.508-.084-.738-.198-.231-.114-.436-.272-.606-.466-.301-.425-.424-.952-.341-1.466.084-.515.366-.976.786-1.285.194-.17.418-.3.662-.383s.501-.117.758-.1c.257.016.508.084.739.197.231.114.437.273.607.467z" fill="#e2d030"/><path d="m154.7 196.516c-.879.64-3.482-1.011-5.821-3.677s-3.527-5.358-2.648-5.994c.879-.637 3.483 1.011 5.821 3.677 2.339 2.666 3.523 5.354 2.648 5.99" fill="#6c8927"/><path d="m154.897 195.871c.136 1.03-2.732 2.14-6.406 2.475-3.673.335-6.762-.224-6.898-1.258-.137-1.033 2.732-2.136 6.405-2.474 3.674-.339 6.763.228 6.899 1.257z" fill="#a09912"/><path d="m158.673 195.636c-.309-1.001-3.446-1.104-7.005-.254-3.56.849-6.189 2.375-5.884 3.376.305 1 3.445 1.103 6.987.253 3.541-.849 6.192-2.372 5.883-3.375" fill="#6c8927"/><path d="m158.165 196.46c.934-.566 0-3.309-2.089-6.163-2.088-2.853-4.537-4.696-5.472-4.115-.934.581 0 3.31 2.089 6.163 2.089 2.854 4.538 4.682 5.472 4.115z" fill="#a09912"/><path d="m162.655 197.501c-.879.636-3.482-1.015-5.821-3.677-2.339-2.663-3.527-5.358-2.648-5.994s3.483 1.015 5.821 3.677c2.339 2.662 3.523 5.358 2.648 5.994z" fill="#6c8927"/><path d="m162.852 196.854c.136 1.029-2.732 2.14-6.406 2.475-3.673.334-6.762-.225-6.898-1.254-.136-1.03 2.732-2.14 6.405-2.475 3.674-.335 6.763.224 6.899 1.254z" fill="#a09912"/><path d="m166.628 196.632c-.309-1-3.446-1.103-7.005-.25-3.56.853-6.189 2.372-5.884 3.372s3.449 1.103 6.987.254c3.537-.85 6.192-2.372 5.883-3.376" fill="#6c8927"/><path d="m166.122 197.441c.934-.566 0-3.309-2.088-6.163-2.089-2.853-4.542-4.681-5.472-4.115-.93.567 0 3.31 2.089 6.164 2.088 2.853 4.537 4.681 5.471 4.114z" fill="#a09912"/><path d="m155.612 197.428c-.009.415-.143.817-.384 1.155-.242.337-.58.593-.969.735-.39.142-.813.163-1.215.061-.402-.103-.764-.325-1.037-.636-.274-.312-.448-.699-.498-1.11-.05-.412.025-.829.216-1.198.191-.368.489-.67.855-.866.365-.196.781-.277 1.194-.233.258.016.511.083.743.197.233.114.44.272.611.467.171.194.302.421.385.666s.117.504.099.762z" fill="#e2d030"/><path d="m164.124 192.478c-.009.413-.144.815-.385 1.151s-.578.591-.967.732c-.389.142-.812.163-1.212.06-.401-.103-.762-.324-1.035-.634-.273-.311-.446-.697-.496-1.108s.025-.827.215-1.194c.19-.368.487-.669.851-.865s.779-.278 1.191-.235c.258.016.511.082.744.196s.44.273.611.467c.171.195.302.421.385.667.083.245.116.504.098.763z" fill="#e2d030"/><path d="m143.804 198.103c-.717.817-3.618-.217-6.486-2.305-2.869-2.089-4.608-4.442-3.891-5.259.717-.816 3.618.217 6.483 2.306s4.611 4.442 3.894 5.258z" fill="#6c8927"/><path d="m143.851 197.445c.368.974-2.206 2.692-5.703 3.835-3.497 1.144-6.649 1.276-7.005.302-.357-.975 2.206-2.692 5.707-3.832 3.5-1.14 6.645-1.28 6.987-.305" fill="#a09912"/><path d="m147.487 196.378c-.522-.908-3.608-.323-6.891 1.306-3.284 1.629-5.516 3.677-4.998 4.596.519.92 3.608.324 6.891-1.305 3.284-1.629 5.516-3.677 4.998-4.597z" fill="#6c8927"/><path d="m147.171 197.295c.787-.758-.735-3.244-3.387-5.549-2.651-2.306-5.449-3.56-6.251-2.802-.802.757.735 3.243 3.387 5.552 2.651 2.31 5.45 3.56 6.251 2.799z" fill="#a09912"/><path d="m151.775 197.313c-.713.816-3.618-.213-6.483-2.302-2.864-2.089-4.607-4.442-3.894-5.258.713-.817 3.618.213 6.483 2.302 2.865 2.088 4.611 4.445 3.894 5.258z" fill="#6c8927"/><path d="m151.844 196.633c.368.974-2.207 2.691-5.707 3.831-3.501 1.14-6.645 1.28-7.006.302-.36-.978 2.207-2.688 5.708-3.832 3.5-1.143 6.637-1.265 7.005-.301z" fill="#a09912"/><path d="m155.46 195.577c-.523-.908-3.608-.323-6.892 1.306-3.283 1.629-5.516 3.677-4.997 4.593.518.915 3.611.323 6.891-1.306s5.516-3.677 4.998-4.593z" fill="#6c8927"/><path d="m155.154 196.493c.787-.757-.736-3.243-3.387-5.549-2.651-2.305-5.45-3.563-6.252-2.806-.801.758.736 3.247 3.387 5.553 2.652 2.306 5.45 3.56 6.252 2.802z" fill="#a09912"/><path d="m144.89 198.805c.083.407.04.83-.121 1.212-.162.383-.435.708-.785.932-.349.224-.759.338-1.174.325-.415-.012-.816-.15-1.152-.394-.335-.245-.589-.586-.728-.977-.138-.392-.155-.816-.048-1.217s.333-.761.647-1.032c.315-.27.705-.44 1.118-.485.513-.076 1.037.052 1.456.359.42.306.703.765.787 1.277z" fill="#e2d030"/><path d="m152.114 192.088c.083.407.042.83-.119 1.213-.162.383-.435.708-.784.933-.35.225-.759.339-1.175.327-.415-.012-.817-.15-1.153-.395-.336-.244-.589-.585-.728-.977s-.155-.816-.048-1.218c.107-.401.333-.761.649-1.032.315-.27.705-.439 1.118-.484.513-.078 1.037.049 1.456.355.42.306.701.765.784 1.278z" fill="#e2d030"/><path d="m168.958 198.446c-1.037.301-2.942-2.133-4.251-5.439s-1.533-6.251-.496-6.542c1.037-.29 2.942 2.133 4.254 5.442 1.313 3.31 1.53 6.252.493 6.539z" fill="#6c8927"/><path d="m169.36 197.906c-.217 1.015-3.287 1.103-6.858.165-3.57-.937-6.295-2.5-6.082-3.515s3.287-1.103 6.862-.169c3.574.934 6.292 2.5 6.078 3.519z" fill="#a09912"/><path d="m172.996 198.96c.041-1.048-2.875-2.206-6.516-2.607-3.64-.401-6.619.143-6.663 1.191s2.876 2.207 6.516 2.607c3.641.401 6.619-.143 6.663-1.191z" fill="#6c8927"/><path d="m172.24 199.575c1.07-.217 1.103-3.134.088-6.513s-2.714-5.946-3.78-5.726c-1.066.221-1.103 3.134-.088 6.513s2.71 5.942 3.78 5.726z" fill="#a09912"/><path d="m176.114 202.06c-1.037.305-2.941-2.133-4.25-5.439-1.31-3.306-1.534-6.251-.497-6.542 1.037-.29 2.942 2.133 4.255 5.443 1.313 3.309 1.533 6.233.492 6.538z" fill="#6c8927"/><path d="m176.522 201.52c-.217 1.015-3.287 1.103-6.858.166-3.57-.938-6.295-2.501-6.082-3.516s3.288-1.103 6.862-.169 6.292 2.501 6.078 3.519z" fill="#a09912"/><path d="m180.158 202.575c.041-1.048-2.875-2.206-6.516-2.607-3.64-.401-6.619.143-6.663 1.191s2.876 2.207 6.516 2.608c3.641.4 6.619-.144 6.663-1.192z" fill="#6c8927"/><path d="m179.426 203.178c1.07-.217 1.103-3.133.088-6.512-1.015-3.38-2.714-5.947-3.78-5.726-1.067.221-1.104 3.133-.089 6.512 1.015 3.38 2.677 5.943 3.781 5.726z" fill="#a09912"/><path d="m169.495 199.608c-.123.226-.29.425-.49.586-.201.161-.431.281-.678.353s-.506.095-.762.067c-.255-.028-.503-.106-.728-.23-.474-.21-.846-.597-1.038-1.078s-.188-1.018.012-1.496c.123-.226.289-.426.49-.587.2-.162.43-.282.677-.355.247-.072.506-.095.762-.067.256.027.504.105.729.229.474.209.847.596 1.039 1.077.192.482.187 1.019-.013 1.497" fill="#e2d030"/><path d="m179.187 197.828c-.123.225-.29.424-.491.586-.2.161-.43.281-.677.353s-.506.095-.762.067-.503-.107-.729-.231c-.474-.208-.848-.595-1.04-1.076-.192-.482-.187-1.02.014-1.498.123-.226.29-.425.49-.587.201-.161.431-.282.678-.354.247-.073.506-.096.762-.068.255.028.503.106.729.23.473.211.845.597 1.036 1.078.192.481.188 1.018-.01 1.496" fill="#e2d030"/><path d="m180.849 206.713c-1.066-.158-1.787-3.174-1.607-6.73.181-3.556 1.196-6.31 2.266-6.148s1.787 3.173 1.607 6.729c-.181 3.556-1.195 6.311-2.266 6.149z" fill="#6c8927"/><path d="m181.434 206.389c-.618.835-3.438-.39-6.303-2.732-2.864-2.342-4.681-4.916-4.063-5.751s3.442.39 6.303 2.732 4.681 4.92 4.063 5.751z" fill="#a09912"/><path d="m184.3 208.878c.474-.934-1.692-3.221-4.836-5.107-3.144-1.887-6.075-2.655-6.549-1.721-.475.934 1.691 3.221 4.839 5.107 3.148 1.887 6.075 2.655 6.546 1.721z" fill="#6c8927"/><path d="m183.366 209.11c1.059.254 2.306-2.379 2.784-5.884.478-3.504 0-6.542-1.059-6.792s-2.31 2.38-2.784 5.884c-.474 3.505 0 6.542 1.059 6.792z" fill="#a09912"/><path d="m185.855 213.011c-1.066-.161-1.787-3.173-1.607-6.733.181-3.559 1.195-6.31 2.266-6.148 1.07.162 1.787 3.173 1.607 6.729-.181 3.556-1.196 6.311-2.266 6.152z" fill="#6c8927"/><path d="m186.444 212.688c-.617.831-3.438-.394-6.299-2.736-2.861-2.343-4.681-4.917-4.067-5.751.614-.835 3.442.389 6.303 2.736 2.861 2.346 4.681 4.916 4.063 5.751z" fill="#a09912"/><path d="m189.311 215.174c.475-.934-1.691-3.221-4.835-5.107-3.144-1.887-6.075-2.655-6.55-1.721-.474.934 1.696 3.225 4.84 5.107 3.144 1.883 6.075 2.659 6.545 1.721z" fill="#6c8927"/><path d="m188.374 215.405c1.059.254 2.305-2.379 2.783-5.883.478-3.505 0-6.538-1.059-6.792s-2.305 2.383-2.783 5.883c-.479 3.501 0 6.542 1.059 6.792z" fill="#a09912"/><path d="m180.868 208.003c-.207.153-.441.264-.691.326-.249.062-.508.074-.763.036-.254-.038-.498-.126-.718-.259s-.412-.308-.564-.515c-.347-.39-.527-.9-.501-1.421.027-.521.257-1.01.641-1.363.207-.153.442-.264.691-.326.25-.062.509-.075.764-.036.254.038.499.126.719.259.221.133.413.308.565.515.347.39.526.9.499 1.421s-.257 1.01-.642 1.363z" fill="#e2d030"/><path d="m190.397 210.452c-.207.153-.441.264-.691.326-.249.062-.508.075-.763.036-.254-.038-.498-.126-.718-.259s-.412-.308-.564-.515c-.347-.389-.526-.898-.5-1.419.026-.52.256-1.009.64-1.361.206-.154.441-.265.691-.328.249-.063.509-.076.763-.038.255.038.5.126.72.259.221.133.413.308.565.515.347.39.526.901.499 1.422-.027.52-.257 1.01-.642 1.362z" fill="#e2d030"/><path d="m21.1699 210.647c.4082 1.136 3.3353 1.103 6.5346-.055 3.1992-1.159 5.4644-3.034 5.0562-4.167-.4081-1.132-3.3316-1.103-6.5345.059s-5.4608 3.019-5.0563 4.163z" fill="#6c8927"/><path d="m34.1732 205.756c-.1728 1.074-3.1772 1.758-6.7074 1.526-3.5302-.231-6.2514-1.29-6.0749-2.364s3.1735-1.758 6.7074-1.526c3.5339.231 6.2514 1.29 6.0749 2.364z" fill="#6c8927"/><path d="m33.8577 205.161c.82.633-.4339 3.457-2.8021 6.303s-4.9496 4.659-5.7697 4.012c-.82-.647.4376-3.453 2.8021-6.303s4.9497-4.644 5.7697-4.012z" fill="#a09912"/><path d="m36.3769 202.31c-.923-.489-3.225 1.658-5.1482 4.78s-2.7212 6.09-1.7982 6.586c.923.497 3.225-1.662 5.1482-4.802 1.9232-3.141 2.7212-6.079 1.7982-6.564z" fill="#6c8927"/><path d="m36.5858 203.252c.2648-1.063-2.3314-2.353-5.8028-2.879-3.4713-.526-6.4977-.092-6.7625.971-.2648 1.062 2.3351 2.353 5.8028 2.883 3.4677.529 6.4977.092 6.7625-.975z" fill="#a09912"/><path d="m40.4949 200.798c-.1765 1.074-3.1772 1.758-6.7074 1.526-3.5302-.231-6.2514-1.287-6.0785-2.364.1728-1.078 3.1771-1.754 6.7073-1.526s6.2514 1.291 6.0786 2.364z" fill="#6c8927"/><path d="m40.1832 200.202c.8164.633-.4376 3.457-2.8021 6.307-2.3645 2.849-4.9496 4.644-5.7843 4.012-.8348-.633.4339-3.457 2.8021-6.307 2.3681-2.85 4.9496-4.644 5.7696-4.012" fill="#a09912"/><path d="m42.694 197.368c-.9194-.489-3.2214 1.659-5.1483 4.781s-2.7211 6.078-1.7981 6.567 3.2213-1.658 5.1482-4.78 2.7212-6.079 1.7982-6.568z" fill="#6c8927"/><path d="m42.914 198.299c.2647-1.062-2.3351-2.353-5.8028-2.883-3.4677-.529-6.4978-.092-6.7625.975-.2648 1.066 2.3314 2.353 5.8027 2.879 3.4714.526 6.4978.092 6.7626-.971z" fill="#a09912"/><path d="m35.4535 205.756c.3027.424.4257.951.3424 1.466s-.3662.976-.7873 1.284c-.193.17-.4177.301-.6613.384-.2435.083-.5011.117-.7579.1-.2567-.018-.5075-.085-.7379-.2-.2305-.114-.4359-.273-.6046-.468-.3015-.426-.4228-.954-.3374-1.469s.3705-.975.7934-1.281c.1929-.171.4177-.301.6612-.384.2436-.083.5012-.117.7579-.1.2568.017.5076.085.738.2.2304.114.4359.273.6045.468" fill="#e2d030"/><path d="m38.0173 196.194c.3027.425.4257.952.3424 1.467s-.3662.976-.7874 1.284c-.1929.17-.4175.3-.6608.383-.2434.083-.5008.117-.7574.101-.2566-.017-.5074-.084-.7379-.198-.2306-.114-.4363-.273-.6055-.466-.3036-.425-.4272-.952-.3439-1.467s.3669-.977.7889-1.284c.1929-.17.4175-.3.6608-.383.2434-.083.5008-.117.7574-.1.2566.016.5074.084.7379.197.2306.114.4363.273.6055.466z" fill="#e2d030"/><path d="m53.638 196.516c-.8752.64-3.4824-1.011-5.8212-3.677-2.3387-2.666-3.5228-5.358-2.6476-5.994.8752-.637 3.4824 1.011 5.8211 3.677 2.3388 2.666 3.5266 5.354 2.6477 5.99" fill="#6c8927"/><path d="m53.8345 195.871c.1397 1.03-2.7286 2.14-6.4059 2.475s-6.7625-.224-6.8986-1.258c-.136-1.033 2.7323-2.136 6.4059-2.474 3.6736-.339 6.7625.228 6.8986 1.257z" fill="#a09912"/><path d="m57.6159 195.636c-.3126-1.001-3.4493-1.104-7.0089-.254-3.5596.849-6.1889 2.375-5.8837 3.376.3052 1 3.4456 1.103 6.9869.253 3.5412-.849 6.1889-2.372 5.8836-3.375" fill="#6c8927"/><path d="m57.1041 196.46c.9304-.566 0-3.309-2.0923-6.163-2.0924-2.853-4.5378-4.696-5.4718-4.115-.9341.581 0 3.31 2.0923 6.163 2.0924 2.854 4.5378 4.682 5.4718 4.115z" fill="#a09912"/><path d="m61.5926 197.501c-.8752.636-3.4824-1.015-5.8212-3.677-2.3387-2.663-3.5265-5.358-2.6476-5.994s3.4824 1.015 5.8211 3.677c2.3388 2.662 3.5266 5.358 2.6477 5.994z" fill="#6c8927"/><path d="m61.7876 196.854c.1361 1.029-2.7285 2.14-6.4058 2.475-3.6773.334-6.7626-.225-6.8986-1.254-.1361-1.03 2.7322-2.14 6.4058-2.475s6.7625.224 6.8986 1.254z" fill="#a09912"/><path d="m65.5671 196.632c-.3126-1-3.4493-1.103-7.0089-.25-3.5597.853-6.1889 2.372-5.8837 3.372s3.4456 1.103 6.9868.254c3.5413-.85 6.1889-2.372 5.8837-3.376" fill="#6c8927"/><path d="m65.062 197.441c.934-.566 0-3.309-2.0887-6.163-2.0887-2.853-4.5304-4.681-5.4755-4.115-.945.567 0 3.31 2.0924 6.164 2.0924 2.853 4.5378 4.681 5.4718 4.114z" fill="#a09912"/><path d="m54.5478 197.428c-.0091.415-.1431.817-.3846 1.155-.2415.337-.5792.593-.9689.735s-.8132.163-1.2151.061c-.4018-.103-.7633-.325-1.0371-.636-.2738-.312-.4471-.699-.4973-1.11-.0502-.412.0252-.829.2162-1.198.1909-.368.4886-.67.8541-.866s.7816-.277 1.194-.233c.2586.015.5115.082.7442.196.2327.113.4405.272.6115.467.171.194.3017.421.3846.666.0829.246.1163.505.0984.763z" fill="#e2d030"/><path d="m63.0673 192.478c-.009.415-.1431.817-.3846 1.154-.2415.338-.5792.594-.9689.736s-.8132.163-1.2151.06c-.4018-.102-.7633-.324-1.0371-.635-.2738-.312-.4471-.699-.4973-1.111-.0501-.411.0252-.829.2162-1.197s.4887-.67.8541-.866c.3655-.196.7817-.278 1.1941-.233.2583.016.511.083.7435.196.2325.114.4401.273.611.468.1709.194.3016.42.3847.666.0831.245.1169.504.0994.762z" fill="#e2d030"/><path d="m42.7402 198.103c-.7134.817-3.6185-.217-6.4831-2.305-2.8646-2.089-4.6076-4.442-3.8942-5.259.7134-.816 3.6184.217 6.483 2.306s4.6114 4.442 3.8943 5.258z" fill="#6c8927"/><path d="m42.7886 197.445c.3678.974-2.2063 2.692-5.7071 3.835-3.5008 1.144-6.6486 1.276-6.9869.302-.3383-.975 2.2064-2.692 5.7072-3.832s6.6449-1.28 6.9868-.305z" fill="#a09912"/><path d="m46.4244 196.378c-.5222-.908-3.6074-.323-6.8912 1.306-3.2839 1.629-5.516 3.677-4.9975 4.596.5185.92 3.6111.324 6.8913-1.305 3.2801-1.629 5.5159-3.677 4.9974-4.597z" fill="#6c8927"/><path d="m46.1067 197.295c.787-.758-.7354-3.244-3.3867-5.549-2.6514-2.306-5.4498-3.56-6.2514-2.802-.8017.757.7354 3.243 3.3868 5.552 2.6513 2.31 5.4497 3.56 6.2513 2.799z" fill="#a09912"/><path d="m50.7206 197.313c-.7354.816-3.6184-.213-6.4867-2.302s-4.6077-4.442-3.8943-5.258c.7134-.817 3.6222.213 6.4868 2.302 2.8646 2.088 4.6076 4.445 3.8942 5.258z" fill="#6c8927"/><path d="m50.7632 196.633c.3678.975-2.2063 2.692-5.7071 3.832s-6.6486 1.28-6.9869.302c-.3383-.979 2.2064-2.689 5.7072-3.832 3.5008-1.144 6.6485-1.276 7.0052-.302" fill="#a09912"/><path d="m54.3953 195.577c-.5222-.908-3.6075-.323-6.8876 1.306-3.2802 1.629-5.516 3.677-4.9975 4.593.5185.915 3.6075.323 6.8876-1.306 3.2802-1.629 5.5159-3.677 4.9975-4.593z" fill="#6c8927"/><path d="m54.0814 196.493c.7869-.757-.7355-3.243-3.3868-5.549-2.6514-2.305-5.4498-3.563-6.2514-2.806-.8017.758.7354 3.247 3.3868 5.553 2.6513 2.306 5.4497 3.56 6.2514 2.802z" fill="#a09912"/><path d="m43.8214 198.805c.0828.407.0406.83-.121 1.212-.1617.383-.4352.708-.7846.932-.3495.224-.7587.338-1.1738.325-.4151-.012-.8167-.15-1.1522-.394-.3355-.245-.5892-.586-.7277-.977-.1385-.392-.1555-.816-.0486-1.217s.3327-.761.6476-1.032c.3149-.27.7043-.44 1.1171-.485.5142-.078 1.0385.05 1.4586.356.4202.307.7022.767.7846 1.28z" fill="#e2d030"/><path d="m51.055 192.087c.0836.407.0421.83-.119 1.213-.161.383-.4341.708-.7834.933s-.7584.339-1.1736.327c-.4153-.012-.8172-.149-1.1531-.393-.3358-.245-.5899-.585-.7288-.977-.1389-.391-.1562-.816-.0496-1.217.1067-.402.3322-.761.6471-1.032s.7044-.441 1.1173-.486c.5134-.078 1.0367.05 1.4566.356.4198.305.7024.764.7865 1.276z" fill="#e2d030"/><path d="m67.8986 198.446c-1.0407.301-2.9418-2.133-4.2546-5.439s-1.5335-6.251-.4965-6.542c1.037-.29 2.9419 2.133 4.2547 5.442 1.3128 3.31 1.5334 6.252.4964 6.539z" fill="#6c8927"/><path d="m68.2945 197.906c-.2133 1.015-3.2875 1.103-6.8581.165-3.5707-.937-6.2955-2.5-6.0786-3.515.217-1.015 3.2875-1.103 6.8582-.169 3.5706.934 6.2918 2.5 6.0785 3.519z" fill="#a09912"/><path d="m71.9339 198.96c.0404-1.048-2.8756-2.206-6.5125-2.607-3.6368-.401-6.6191.143-6.6669 1.191s2.8756 2.207 6.5161 2.607c3.6406.401 6.6192-.143 6.6633-1.191z" fill="#6c8927"/><path d="m71.1794 199.575c1.0701-.217 1.1032-3.134.0883-6.513s-2.7138-5.946-3.7803-5.726c-1.0664.221-1.1031 3.134-.0882 6.513s2.7138 5.942 3.7802 5.726z" fill="#a09912"/><path d="m75.0646 202.06c-1.0407.305-2.9418-2.133-4.2546-5.439s-1.5334-6.251-.4964-6.542c1.0369-.29 2.9418 2.133 4.2546 5.443 1.3128 3.309 1.5334 6.233.4964 6.538z" fill="#6c8927"/><path d="m75.4605 201.52c-.2132 1.015-3.2875 1.103-6.8581.166-3.5707-.938-6.2955-2.501-6.0786-3.516.217-1.015 3.2875-1.103 6.8582-.169 3.5706.934 6.2955 2.501 6.0785 3.519z" fill="#a09912"/><path d="m79.096 202.575c.0441-1.048-2.8756-2.206-6.5125-2.607-3.6368-.401-6.6191.143-6.6669 1.191s2.8793 2.207 6.5162 2.608c3.6368.4 6.6191-.144 6.6632-1.192z" fill="#6c8927"/><path d="m78.3435 203.178c1.0701-.217 1.1032-3.133.0883-6.512-1.015-3.38-2.7139-5.947-3.7803-5.726s-1.1032 3.133-.0882 6.512c1.0149 3.38 2.7138 5.943 3.7802 5.726z" fill="#a09912"/><path d="m68.4489 199.608c-.1231.225-.2893.424-.4892.584-.1999.161-.4295.281-.6757.353s-.5042.095-.7593.067c-.255-.027-.5021-.105-.7272-.228-.4733-.21-.8458-.597-1.0375-1.078s-.1876-1.018.0116-1.496c.1231-.226.2896-.426.4899-.587.2004-.162.4307-.282.6776-.355.247-.072.5059-.095.7617-.067.2559.027.5038.105.7295.229.474.209.847.596 1.0389 1.077.1918.482.1872 1.019-.013 1.497" fill="#e2d030"/><path d="m78.1268 197.828c-.1234.225-.2902.425-.4907.586-.2004.161-.4308.281-.6777.353-.247.072-.5057.095-.7614.067-.2558-.028-.5034-.107-.7289-.23-.312-.189-.5622-.465-.7202-.794s-.2169-.696-.1695-1.058.1991-.702.4364-.979c.2374-.277.5502-.478.9004-.581.3501-.102.7224-.1 1.0715.006s.6598.311.8943.59c.2344.28.3825.621.4262.983.0436.363-.019.73-.1804 1.057z" fill="#e2d030"/><path d="m79.788 206.713c-1.0701-.158-1.7909-3.174-1.607-6.73.1838-3.556 1.1914-6.31 2.2615-6.148s1.7872 3.173 1.607 6.729-1.1951 6.311-2.2615 6.149z" fill="#6c8927"/><path d="m80.3734 206.389c-.6178.835-3.4383-.39-6.2992-2.732s-4.6812-4.916-4.045-5.751c.6361-.835 3.4382.39 6.2992 2.732 2.8609 2.342 4.6812 4.92 4.045 5.751z" fill="#a09912"/><path d="m83.2388 208.878c.4707-.934-1.6952-3.221-4.8393-5.107-3.1441-1.887-6.0749-2.655-6.5493-1.721-.4743.934 1.6953 3.221 4.8394 5.107 3.144 1.887 6.0749 2.655 6.5492 1.721z" fill="#6c8927"/><path d="m82.3039 209.11c1.0628.254 2.3094-2.379 2.7837-5.884.4744-3.504 0-6.542-1.059-6.792-1.0591-.25-2.3057 2.38-2.78 5.884-.4744 3.505-.0001 6.542 1.0553 6.792z" fill="#a09912"/><path d="m84.7977 213.011c-1.0701-.161-1.7908-3.173-1.607-6.733.1839-3.559 1.1952-6.31 2.2616-6.148s1.7908 3.173 1.607 6.729c-.1839 3.556-1.1952 6.311-2.2616 6.152z" fill="#6c8927"/><path d="m85.3832 212.688c-.6178.831-3.4383-.394-6.2992-2.736-2.861-2.343-4.6812-4.917-4.0451-5.751.6362-.835 3.4383.389 6.2992 2.736 2.861 2.346 4.6812 4.916 4.0451 5.751z" fill="#a09912"/><path d="m88.2505 215.174c.4707-.934-1.6952-3.221-4.8393-5.107-3.1441-1.887-6.0749-2.655-6.5492-1.721-.4744.934 1.6952 3.225 4.8393 5.107 3.1441 1.883 6.0749 2.659 6.5492 1.721z" fill="#6c8927"/><path d="m87.3098 215.405c1.0627.254 2.3093-2.379 2.7837-5.883.4744-3.505 0-6.538-1.0591-6.792-1.059-.254-2.3056 2.383-2.78 5.883-.4744 3.501 0 6.542 1.0554 6.792z" fill="#a09912"/><path d="m79.8033 208.002c-.2065.153-.4412.264-.6907.326-.2494.063-.5086.075-.7628.037-.2542-.039-.4983-.127-.7184-.26-.2201-.132-.4118-.307-.564-.514-.3474-.39-.5272-.901-.5003-1.422.0268-.521.2581-1.01.6437-1.362.2065-.153.4412-.264.6906-.326s.5087-.075.7629-.036c.2541.038.4983.126.7184.259.22.133.4117.308.564.515.3473.389.5271.9.5003 1.421-.0269.521-.2582 1.011-.6437 1.362z" fill="#e2d030"/><path d="m89.3322 210.452c-.2065.153-.4412.264-.6906.326s-.5086.074-.7628.036-.4984-.126-.7184-.259c-.2201-.133-.4118-.308-.5641-.515-.3471-.389-.5268-.899-.4999-1.42.0268-.52.258-1.009.6434-1.36.2059-.155.4405-.267.6901-.33s.5092-.077.764-.039c.2547.038.4995.125.7201.258s.4128.308.5653.515c.3465.39.5257.901.4988 1.422-.0268.521-.2575 1.01-.6422 1.362" fill="#e2d030"/></g></g></g></svg>