<svg xmlns="http://www.w3.org/2000/svg" viewBox="0 0 1347.82 991.34"><defs><style>.a{fill:#222c54;}.b{fill:#34a936;}.b,.g{opacity:0.5;}.c{fill:#fff;}.d{opacity:0.63;}.e,.g{fill:#0bbbef;}.f{fill:#38a032;}.h{fill:#77be7f;}</style></defs><rect class="a" x="81.47" y="48.9" width="1190.55" height="907.09" rx="70.87"/><rect class="b" x="81.46" y="275.67" width="1105.62" height="396.85"/><path class="c" d="M392.11,275.62V606.75h89v65.77H220.31V606.75H321.24V341.39H228.82l11.34-65.77Z"/><path class="c" d="M709.63,275.62V606.75h89v65.77H537.83V606.75H638.76V341.39H546.33l11.34-65.77Z"/><path class="c" d="M972.72,335.72c-28.35,0-55,9.64-80,24.95L859.32,303.4C904.68,279,937,270,983.49,270c69.74,0,112.83,39.69,112.83,108.86,0,87.32-75.41,170.67-144.58,225.67v2.27h155.92l-11.34,65.77H852.51v-60.1c77.68-58.4,170.67-150.26,170.67-226.24C1023.18,355,1005.6,335.72,972.72,335.72Z"/><g class="d"><rect class="e" x="683.67" y="28.82" width="1.76" height="21.43"/><rect class="e" x="683.67" y="60.74" width="1.76" height="21.43"/><rect class="e" x="683.67" y="92.67" width="1.76" height="21.44"/><rect class="e" x="683.67" y="124.59" width="1.76" height="21.44"/><rect class="e" x="683.67" y="156.51" width="1.76" height="21.44"/><rect class="e" x="683.67" y="188.45" width="1.76" height="21.43"/><rect class="e" x="683.67" y="220.37" width="1.76" height="21.44"/><rect class="e" x="683.67" y="252.3" width="1.76" height="21.43"/><rect class="e" x="683.67" y="284.22" width="1.76" height="21.43"/></g><g class="d"><rect class="e" x="683.67" y="318.04" width="1.76" height="21.44"/><rect class="e" x="683.67" y="349.96" width="1.76" height="21.44"/><rect class="e" x="683.67" y="381.88" width="1.76" height="21.44"/><rect class="e" x="683.67" y="413.82" width="1.76" height="21.43"/><rect class="e" x="683.67" y="445.74" width="1.76" height="21.44"/><rect class="e" x="683.67" y="477.67" width="1.76" height="21.43"/><rect class="e" x="683.67" y="509.59" width="1.76" height="21.43"/><rect class="e" x="683.67" y="541.52" width="1.76" height="21.44"/><rect class="e" x="683.67" y="573.44" width="1.76" height="21.44"/><rect class="e" x="683.67" y="605.36" width="1.76" height="21.44"/><rect class="e" x="683.67" y="637.3" width="1.76" height="21.43"/><rect class="e" x="683.67" y="669.22" width="1.76" height="21.44"/><rect class="e" x="683.67" y="701.15" width="1.76" height="21.43"/><rect class="e" x="683.67" y="733.07" width="1.76" height="21.43"/></g><path class="e" d="M1308.87,494.88c0,5.39-3.86,7.91-8.3,7.91a12.32,12.32,0,0,1-7.11-2.07l1.79-2.94a8.45,8.45,0,0,0,5.07,1.65c2.7,0,4.73-1.4,4.73-4.52s-2.1-4.55-4.87-4.55h-1.82v-1.89l5.25-7v-.14h-9.34l.7-3.36h12.81v3l-5,6.66v.1C1306.07,488.26,1308.87,490.15,1308.87,494.88Z"/><path class="e" d="M1318.1,499.08h10l-.7,3.36h-14.7v-3c4.79-3.61,10.89-10,10.89-14.67,0-2.35-1.16-3.82-3.65-3.82a9.47,9.47,0,0,0-5.14,1.65l-1.68-2.94a13.92,13.92,0,0,1,7.49-2.07c4.31,0,6.79,2.45,6.79,6.73,0,5.38-5,11.23-9.28,14.63Z"/><path class="e" d="M1339.24,502.79c-5.39,0-8.57-4.31-8.57-12.61s3.18-12.6,8.57-12.6,8.58,4.31,8.58,12.6S1344.63,502.79,1339.24,502.79Zm0-3.36c2.81,0,4.77-2.73,4.77-9.25s-2-9.24-4.77-9.24-4.76,2.74-4.76,9.24S1336.44,499.43,1339.24,499.43Z"/><path class="e" d="M667.29,966.49l-8.75,15.3v.14h5.56v-4.45h3.68v4.45h4l-.7,3.32h-3.33V991H664.1v-5.74h-10v-3l9-15.79Z"/><path class="e" d="M679.47,987.63h10l-.7,3.36H674v-3c4.8-3.6,10.89-10,10.89-14.66,0-2.35-1.16-3.82-3.64-3.82a9.53,9.53,0,0,0-5.15,1.65l-1.68-2.94a13.92,13.92,0,0,1,7.49-2.07c4.31,0,6.8,2.45,6.8,6.72,0,5.39-5,11.24-9.28,14.63Z"/><path class="e" d="M700.61,991.34c-5.39,0-8.58-4.3-8.58-12.6s3.19-12.6,8.58-12.6,8.58,4.31,8.58,12.6S706,991.34,700.61,991.34Zm0-3.36c2.8,0,4.76-2.73,4.76-9.24s-2-9.24-4.76-9.24-4.76,2.73-4.76,9.24S697.81,988,700.61,988Z"/><path class="f" d="M10.08,449.59v21.14h5.67v3.36H0v-3.36H6.41V453H.53l.7-3.36Z"/><path class="f" d="M30.8,449.59l-8.75,15.3V465h5.57v-4.45h3.67V465h4l-.7,3.32H31.29v5.74H27.62v-5.74h-10v-3l9-15.79Z"/><path class="f" d="M45.26,474.44c-5.39,0-8.58-4.3-8.58-12.6s3.19-12.6,8.58-12.6,8.57,4.31,8.57,12.6S50.65,474.44,45.26,474.44Zm0-3.36c2.8,0,4.76-2.73,4.76-9.24s-2-9.24-4.76-9.24-4.76,2.73-4.76,9.24S42.46,471.08,45.26,471.08Z"/><path class="e" d="M18.52,167.39a6.94,6.94,0,0,1,4.06-6.16v-.1a6.2,6.2,0,0,1-3.29-5.57c0-3.92,2.66-6.37,7.1-6.37s7.11,2.45,7.11,6.37a6.23,6.23,0,0,1-3.29,5.6v.11a6.87,6.87,0,0,1,4.06,6.12c0,4.41-3.08,7-7.88,7S18.52,171.8,18.52,167.39Zm6.72-4.83a5.5,5.5,0,0,0-3.08,4.83c0,2.56,1.78,3.64,4.23,3.64s4.24-1.22,4.24-3.64c0-2.1-1.86-3.32-3.92-4.2Zm1-3.11,1.12.45a5.18,5.18,0,0,0,2.52-4.34c0-1.89-1.47-3-3.47-3s-3.46,1.12-3.46,3C22.93,157.66,24.43,158.71,26.22,159.45Z"/><path class="e" d="M45.26,174.39c-5.39,0-8.58-4.3-8.58-12.6s3.19-12.6,8.58-12.6,8.57,4.31,8.57,12.6S50.65,174.39,45.26,174.39Zm0-3.36c2.8,0,4.76-2.73,4.76-9.24s-2-9.24-4.76-9.24-4.76,2.73-4.76,9.24S42.46,171,45.26,171Z"/><path class="e" d="M10.08,787.17v21.14h5.67v3.36H0v-3.36H6.41V790.53H.53l.7-3.36Z"/><path class="e" d="M26.39,812c-5.39,0-8.57-4.3-8.57-12.6s3.18-12.6,8.57-12.6,8.58,4.3,8.58,12.6S31.78,812,26.39,812Zm0-3.36c2.8,0,4.76-2.73,4.76-9.24s-2-9.24-4.76-9.24-4.76,2.73-4.76,9.24S23.59,808.66,26.39,808.66Z"/><path class="e" d="M45.26,812c-5.39,0-8.58-4.3-8.58-12.6s3.19-12.6,8.58-12.6,8.57,4.3,8.57,12.6S50.65,812,45.26,812Zm0-3.36c2.8,0,4.76-2.73,4.76-9.24s-2-9.24-4.76-9.24-4.76,2.73-4.76,9.24S42.46,808.66,45.26,808.66Z"/><rect class="g" x="1186.86" y="48.9" width="85.04" height="907.09"/><path class="h" d="M221.72,151.89v-3h2.83v-12h-2.83v-3h9.08l-.52,3h-2.44v12h2.83v3Z"/><path class="h" d="M233.39,142.23c0-2.18,1.77-3.7,4.65-3.7a10.34,10.34,0,0,1,4.27.9l-1.08,2.5a8.2,8.2,0,0,0-3-.65c-1.13,0-1.64.41-1.64,1.06s.77,1.18,2.08,1.61c1.93.65,4,1.65,4,4.24,0,2.39-2,4-5,4a10,10,0,0,1-4.55-1l1.1-2.57a8.34,8.34,0,0,0,3.34.77c1.11,0,1.88-.49,1.88-1.21,0-1-1.26-1.49-2.57-2C235.32,145.65,233.39,144.65,233.39,142.23Z"/><path class="h" d="M254.59,148.55l1.1,2.5a10.12,10.12,0,0,1-4.52,1.1c-3.85,0-6.5-2.52-6.5-6.81s2.31-6.81,6-6.81c3.42,0,5.56,2.14,5.56,5.81a18.27,18.27,0,0,1-.16,2h-8.17a3.38,3.38,0,0,0,3.42,3.08A7.66,7.66,0,0,0,254.59,148.55Zm-1.26-4.67a2.43,2.43,0,0,0-2.59-2.6,2.81,2.81,0,0,0-2.78,2.6Z"/><path class="h" d="M267.18,151.69a9.23,9.23,0,0,1-2.85.46c-2.36,0-4.29-1.08-4.29-4.13v-6.48h-2.26v-2.75H260v-3.55l3.19-.51v4.06h3.67l-.51,2.75h-3.16V148c0,1,.41,1.38,1.41,1.38a7.58,7.58,0,0,0,2-.33Z"/><path class="h" d="M280.67,144c-2.31-.89-5-2.51-5-5.49s2.31-4.81,6-4.81a10.74,10.74,0,0,1,5.27,1.39l-1.57,2.62a6.86,6.86,0,0,0-3.7-1c-1.62,0-2.57.57-2.57,1.67,0,1.31,1.57,2.29,3.06,2.88,2.82,1.1,5.34,2.49,5.34,5.83,0,3.19-2.36,5.14-6.4,5.14a10.22,10.22,0,0,1-5.8-1.59l1.77-2.67a6.73,6.73,0,0,0,4,1.28c1.73,0,3-.77,3-2.11C284.09,145.44,282.57,144.7,280.67,144Z"/><path class="h" d="M297,143.31c0-1.26-.65-2-2.21-2a10.37,10.37,0,0,0-3.5.7l-.95-2.57a13.11,13.11,0,0,1,4.75-.88c4,0,5.09,2.11,5.09,4.83v5a.83.83,0,0,0,.93.92h.28v2.5a6.09,6.09,0,0,1-1.82.25,2.33,2.33,0,0,1-2.32-1.26h-.1a4.39,4.39,0,0,1-3.44,1.26c-2.49,0-4.06-1.23-4.06-3.9s2-3.93,4.9-3.93H297Zm0,4.81v-1.49h-2.34c-1.18,0-1.85.59-1.85,1.44a1.3,1.3,0,0,0,1.41,1.33A3.78,3.78,0,0,0,297,148.12Z"/><path class="h" d="M307.17,151.89H304v-13.1h2.42l.51,1.13h.1a5.07,5.07,0,0,1,3.47-1.39c2.75,0,4.29,1.72,4.29,5.17v8.19h-3.18V144c0-1.82-.7-2.7-1.9-2.7a3.53,3.53,0,0,0-2.52,1.54Z"/><path class="h" d="M317.75,142.23c0-2.18,1.78-3.7,4.65-3.7a10.34,10.34,0,0,1,4.27.9l-1.08,2.5a8.14,8.14,0,0,0-3-.65c-1.14,0-1.65.41-1.65,1.06s.77,1.18,2.08,1.61c1.93.65,4,1.65,4,4.24,0,2.39-2,4-5,4a10.07,10.07,0,0,1-4.55-1l1.11-2.57a8.3,8.3,0,0,0,3.34.77c1.1,0,1.87-.49,1.87-1.21,0-1-1.26-1.49-2.57-2C319.68,145.65,317.75,144.65,317.75,142.23Z"/><path class="h" d="M350.05,140.15H350l-3.09,9.38h-3.36l-3.11-9.38h-.08l-1.08,11.74H336l1.67-18h3.68l3.85,11.56h.08l3.85-11.56h3.68l1.67,18h-3.29Z"/><path class="h" d="M366.94,148.55l1.1,2.5a10.15,10.15,0,0,1-4.52,1.1c-3.85,0-6.5-2.52-6.5-6.81s2.31-6.81,6-6.81c3.42,0,5.55,2.14,5.55,5.81a17.79,17.79,0,0,1-.15,2h-8.17a3.38,3.38,0,0,0,3.41,3.08A7.7,7.7,0,0,0,366.94,148.55Zm-1.26-4.67a2.43,2.43,0,0,0-2.6-2.6,2.81,2.81,0,0,0-2.77,2.6Z"/><path class="h" d="M379.66,150.76a4.83,4.83,0,0,1-3.39,1.39c-3.7,0-5.37-2.85-5.37-6.81s1.69-6.81,5.6-6.81a9,9,0,0,1,3,.49v-5.88l3.19-.52v19.27h-2.41l-.52-1.13Zm-5.53-5.42c0,2.39,1,4.06,2.91,4.06a3.46,3.46,0,0,0,2.46-1.28V142a4.94,4.94,0,0,0-2.57-.7C375.21,141.28,374.13,142.77,374.13,145.34Z"/><path class="h" d="M385.13,141.54l.52-2.75h4.83v13.1h-3.19V141.54Zm3.75-8.4a1.84,1.84,0,1,1,0,3.67A1.81,1.81,0,0,1,387,135,1.83,1.83,0,0,1,388.88,133.14Z"/><path class="h" d="M401.86,138.79h3.19v13.1h-2.42l-.51-1.13H402a5.46,5.46,0,0,1-3.64,1.39c-2.57,0-4.5-1.69-4.5-5.37v-8h3.19v8c0,1.83.89,2.62,2.1,2.62a3.88,3.88,0,0,0,2.7-1.54Z"/><path class="h" d="M418,140a6.21,6.21,0,0,1,4-1.44c2.75,0,4.34,1.72,4.34,5.17v8.19h-3.18V144c0-1.82-.7-2.7-1.9-2.7a3.3,3.3,0,0,0-2.16,1.11v9.5h-3.19V144c0-1.82-.64-2.7-1.75-2.7a3.21,3.21,0,0,0-2.31,1.54v9.07h-3.19v-13.1h2.42l.51,1.13h.11a4.67,4.67,0,0,1,3.29-1.39A3.82,3.82,0,0,1,418,140Z"/><path class="h" d="M227,169.62l5.65-7.71h2.57l-6.14,8.5,6.68,9.48-2.52.26L227,171.57h-2v8.32h-2.26v-18H225v7.71Z"/><path class="h" d="M239.28,174c.2,2.85,1.54,4.47,4.13,4.47a7,7,0,0,0,3.37-.92l.74,1.54a8.86,8.86,0,0,1-4.36,1.1c-3.65,0-6.15-2.52-6.15-6.81,0-4.06,2.09-6.81,5.79-6.81,3.52,0,5.26,2.06,5.26,5.27a10.6,10.6,0,0,1-.23,2.16Zm0-1.57H246a3.82,3.82,0,0,0,0-.59c0-2.06-1.08-3.55-3.21-3.55S239.4,170,239.28,172.39Z"/><path class="h" d="M259.58,166.79l-.52,1.72h-5.24v11.38h-2.16v-13.1Z"/><path class="h" d="M271.71,166.79v13.1h-2.16V168.51h-4.06v1.08c0,7-1.16,10.43-3.93,10.43a3.64,3.64,0,0,1-1.73-.46l.62-1.67a1.65,1.65,0,0,0,1,.31c1.36,0,2-2.55,2-9.23v-2.18Z"/><path class="h" d="M281.06,171.57c2.83,0,4.68,1.54,4.68,4.19s-1.85,4.13-4.68,4.13h-5v-13.1h2.16v4.78Zm-2.83,1.72v4.88h2.57c1.67,0,2.73-.9,2.73-2.44s-1.06-2.44-2.73-2.44Z"/><path class="h" d="M306,174.16c0,4-2.52,6-5.89,6a8.72,8.72,0,0,1-5.16-1.51l1-1.73a6.55,6.55,0,0,0,4,1.29c2.16,0,3.78-1.34,3.78-4a3.75,3.75,0,0,0-4.06-4,12.22,12.22,0,0,0-3.67.67v-8.89h9.35l-.52,2H298.2v4.63a9.21,9.21,0,0,1,2.05-.21C303.62,168.28,306,170.31,306,174.16Z"/><path class="h" d="M312.18,170.16a4.73,4.73,0,0,1,3.47-1.44c2.9,0,5,2.08,5,5.7a5.37,5.37,0,0,1-5.73,5.73c-3.62,0-5.7-2.72-5.7-6.76a12.4,12.4,0,0,1,9.15-11.74l.74,1.57a10.87,10.87,0,0,0-7,6.88Zm2.77,8c2.06,0,3.45-1.31,3.45-3.78s-1.39-3.75-3.45-3.75a3.94,3.94,0,0,0-3.49,2.72C311.46,176.27,312.64,178.2,315,178.2Z"/><path class="h" d="M332.74,163.86h-9.23l.52-2H335v1.69l-6.3,16.29h-2.21Z"/><path class="h" d="M355.4,179.89h-2.16V168.51h-5.73v11.38h-2.16v-13.1h10Z"/><path class="h" d="M358.23,166.79h10.84l-.51,1.72h-3.91v11.38h-2.13V168.51h-4.29Z"/><path class="e" d="M122.34,24.46c0,5.39-3.85,7.91-8.3,7.91a12.32,12.32,0,0,1-7.11-2.06l1.79-2.94A8.44,8.44,0,0,0,113.79,29c2.7,0,4.73-1.4,4.73-4.51,0-3.26-2.1-4.55-4.87-4.55h-1.82V18.06l5.26-7v-.14h-9.35l.7-3.36h12.81v3l-5,6.65v.11C119.54,17.85,122.34,19.74,122.34,24.46Z"/><path class="e" d="M133.85,32.37c-5.39,0-8.58-4.3-8.58-12.6s3.19-12.6,8.58-12.6,8.58,4.31,8.58,12.6S139.24,32.37,133.85,32.37Zm0-3.36c2.8,0,4.76-2.73,4.76-9.24s-2-9.24-4.76-9.24-4.76,2.73-4.76,9.24S131.05,29,133.85,29Z"/><path class="e" d="M1227,24.81c0,5.39-3.85,7.91-8.3,7.91a12.26,12.26,0,0,1-7.1-2.06l1.78-2.94a8.47,8.47,0,0,0,5.08,1.64c2.69,0,4.72-1.4,4.72-4.51,0-3.26-2.1-4.55-4.86-4.55h-1.82V18.41l5.25-7v-.14h-9.35l.7-3.36h12.81v3l-5,6.65v.11C1224.17,18.2,1227,20.09,1227,24.81Z"/><path class="e" d="M1238.48,32.72c-5.39,0-8.57-4.3-8.57-12.6s3.18-12.6,8.57-12.6,8.58,4.31,8.58,12.6S1243.87,32.72,1238.48,32.72Zm0-3.36c2.8,0,4.76-2.73,4.76-9.24s-2-9.24-4.76-9.24-4.76,2.73-4.76,9.24S1235.68,29.36,1238.48,29.36Z"/><rect class="g" x="81.46" y="48.84" width="85.04" height="907.15"/></svg>