<?xml version="1.0" encoding="UTF-8"?><svg id="a" xmlns="http://www.w3.org/2000/svg" xmlns:xlink="http://www.w3.org/1999/xlink" viewBox="0 0 660.556 286"><defs><style>.j{fill:#56617d;opacity:.2;}.j,.k,.l,.m,.n,.o,.p,.q,.r,.s{isolation:isolate;}.j,.k,.l,.m,.n,.o,.p,.q,.r,.s,.t,.u,.v{stroke-width:0px;}.w{stroke-dasharray:0 0 3.401 1.701;}.w,.x,.y,.z,.aa{fill:none;}.w,.x,.z{stroke:#f29108;stroke-miterlimit:10;stroke-width:.512px;}.x{stroke-dasharray:0 0 3.431 1.715;}.k{fill:#f29108;opacity:.3;}.y{stroke-width:2px;}.y,.aa{stroke:#56617d;stroke-linecap:round;stroke-linejoin:round;}.z{stroke-dasharray:0 0 3.323 1.662;}.ab{opacity:.5;}.l{fill:url(#c);}.l,.m,.n,.o,.p,.q,.r,.s{opacity:.69;}.m{fill:url(#b);}.n{fill:url(#f);}.o{fill:url(#d);}.p{fill:url(#e);}.q{fill:url(#h);}.r{fill:url(#g);}.s{fill:url(#i);}.t{fill-rule:evenodd;}.t,.u{fill:#fff;}.aa{stroke-width:.8px;}.v{fill:#f29100;}</style><linearGradient id="b" x1="8.848" y1="154.055" x2="132.6" y2="154.055" gradientTransform="translate(0 246) scale(1 -1)" gradientUnits="userSpaceOnUse"><stop offset="0" stop-color="#fff"/><stop offset=".188" stop-color="#fcfcfb" stop-opacity=".898"/><stop offset=".744" stop-color="#f3f3f0" stop-opacity=".613"/><stop offset="1" stop-color="#f0efeb" stop-opacity=".5"/></linearGradient><linearGradient id="c" x1="49.348" y1="114.375" x2="132.598" y2="114.375" gradientTransform="translate(0 246) scale(1 -1)" gradientUnits="userSpaceOnUse"><stop offset="0" stop-color="#fff"/><stop offset=".188" stop-color="#fcfcfb" stop-opacity=".898"/><stop offset=".744" stop-color="#f3f3f0" stop-opacity=".613"/><stop offset="1" stop-color="#f0efeb" stop-opacity=".5"/></linearGradient><linearGradient id="d" x1="432.529" y1="154.055" x2="556.279" y2="154.055" gradientTransform="translate(0 246) scale(1 -1)" gradientUnits="userSpaceOnUse"><stop offset="0" stop-color="#fff"/><stop offset=".188" stop-color="#fcfcfb" stop-opacity=".898"/><stop offset=".744" stop-color="#f3f3f0" stop-opacity=".613"/><stop offset="1" stop-color="#f0efeb" stop-opacity=".5"/></linearGradient><linearGradient id="e" x1="473.029" y1="114.375" x2="556.279" y2="114.375" gradientTransform="translate(0 246) scale(1 -1)" gradientUnits="userSpaceOnUse"><stop offset="0" stop-color="#fff"/><stop offset=".188" stop-color="#fcfcfb" stop-opacity=".898"/><stop offset=".744" stop-color="#f3f3f0" stop-opacity=".613"/><stop offset="1" stop-color="#f0efeb" stop-opacity=".5"/></linearGradient><linearGradient id="f" x1="196.958" y1="75.06" x2="275.318" y2="75.06" gradientTransform="translate(0 246) scale(1 -1)" gradientUnits="userSpaceOnUse"><stop offset="0" stop-color="#fff"/><stop offset=".188" stop-color="#fcfcfb" stop-opacity=".898"/><stop offset=".744" stop-color="#f3f3f0" stop-opacity=".613"/><stop offset="1" stop-color="#f0efeb" stop-opacity=".5"/></linearGradient><linearGradient id="g" x1="289.888" y1="124.025" x2="368.248" y2="124.025" gradientTransform="translate(0 246) scale(1 -1)" gradientUnits="userSpaceOnUse"><stop offset="0" stop-color="#fff"/><stop offset=".188" stop-color="#fcfcfb" stop-opacity=".898"/><stop offset=".744" stop-color="#f3f3f0" stop-opacity=".613"/><stop offset="1" stop-color="#f0efeb" stop-opacity=".5"/></linearGradient><linearGradient id="h" x1="196.958" y1="124.4" x2="275.318" y2="124.4" gradientTransform="translate(0 246) scale(1 -1)" gradientUnits="userSpaceOnUse"><stop offset="0" stop-color="#fff"/><stop offset=".188" stop-color="#fcfcfb" stop-opacity=".898"/><stop offset=".744" stop-color="#f3f3f0" stop-opacity=".613"/><stop offset="1" stop-color="#f0efeb" stop-opacity=".5"/></linearGradient><linearGradient id="i" x1="289.888" y1="200.64" x2="359.328" y2="200.64" gradientTransform="translate(0 246) scale(1 -1)" gradientUnits="userSpaceOnUse"><stop offset="0" stop-color="#fff"/><stop offset=".188" stop-color="#fcfcfb" stop-opacity=".898"/><stop offset=".744" stop-color="#f3f3f0" stop-opacity=".613"/><stop offset="1" stop-color="#f0efeb" stop-opacity=".5"/></linearGradient></defs><rect class="j" x="8.903" y="10.583" width="123.749" height="162.608"/><rect class="j" x="432.187" y="10.583" width="123.749" height="162.608"/><rect class="j" x="289.943" y="10.583" width="78.363" height="215.911"/><rect class="j" x="197.011" y="10.583" width="78.363" height="215.911"/><g class="ab"><rect class="y" x="189.529" y="1.059" width="187.118" height="235.073"/><rect class="y" x="423.999" y="1" width="140.125" height="181.712"/><rect class="y" x="1" y="1" width="140.125" height="181.712"/><rect class="aa" x="432.472" y="10.52" width="123.179" height="162.671"/><rect class="aa" x="9.473" y="10.52" width="123.179" height="162.671"/><rect class="aa" x="289.943" y="10.462" width="78.363" height="216.033"/><rect class="aa" x="197.011" y="10.462" width="78.363" height="216.033"/><line class="aa" x1="282.854" y1="1.059" x2="282.854" y2="236.132"/><rect class="aa" x="285.959" y="37.495" width="1.801" height="156.559"/><rect class="aa" x="278.214" y="37.495" width="1.801" height="156.559"/><line class="aa" x1="1" y1="236.132" x2="564.124" y2="236.132"/><line class="aa" x1="1" y1="244.281" x2="564.124" y2="244.281"/></g><path class="m" d="m132.6,10.64v52.34l-32.632,32.64-.21.21-.03.03L22.338,173.25h-13.49v-73.58L97.878,10.64h34.722Z"/><polygon class="l" points="132.598 90 132.598 107.62 66.978 173.25 49.348 173.25 132.598 90"/><path class="o" d="m556.279,10.64v52.34l-32.63,32.64-.21.21-.03.03-77.39,77.39h-13.49v-73.58l89.03-89.03h34.72Z"/><polygon class="p" points="556.279 90 556.279 107.62 490.659 173.25 473.029 173.25 556.279 90"/><polygon class="n" points="196.958 193.69 275.318 115.33 275.318 226.55 196.958 226.55 196.958 193.69"/><polygon class="r" points="368.248 22.4 368.248 143.2 289.888 221.55 289.888 100.76 368.248 22.4"/><polygon class="q" points="196.958 148.56 275.318 70.2 275.318 94.65 196.958 173 196.958 148.56"/><polygon class="s" points="359.328 10.64 289.888 80.08 289.888 55.63 334.878 10.64 359.328 10.64"/><path class="v" d="m65.217,70.368v5.432h1.461v1.08h-4.278v-1.08h1.656v-4.352h-1.52l.186-1.08h2.495Z"/><path class="v" d="m71.512,70.368l-.186,1.08h-2.226v1.21c.153-.032.309-.051.465-.056,1.123-.085,2.103.757,2.188,1.88.008.102.008.204,0,.307.039,1.171-.878,2.152-2.049,2.191-.068.002-.136.001-.204-.003-.686.015-1.36-.177-1.936-.55l.577-.939c.379.266.831.408,1.294.409.579.037,1.079-.402,1.116-.981.003-.042.003-.085,0-.127.011-.623-.484-1.137-1.107-1.148-.037,0-.075,0-.112.004-.479.006-.953.097-1.4.27v-3.546h3.579Z"/><path class="v" d="m74.186,73.44c-.874.047-1.621-.624-1.668-1.498s.624-1.621,1.498-1.668c.874-.047,1.621.624,1.668,1.498.002.028.002.056.002.085.082.789-.491,1.495-1.279,1.577-.073.008-.147.01-.221.006Zm3.614-3.072h1l-4.747,6.516h-1.021l4.768-6.516Zm-4.262,1.489c0,.559.251.875.651.875s.651-.316.651-.875-.251-.875-.651-.875-.654.318-.654.875h.003Zm4.123,5.12c-.874.047-1.621-.624-1.668-1.498s.624-1.621,1.498-1.668c.874-.047,1.621.624,1.668,1.498.002.028.002.056.002.085.082.789-.491,1.495-1.279,1.577-.074.008-.149.01-.224.006h.003Zm-.652-1.583c0,.559.251.875.652.875s.652-.316.652-.875-.252-.875-.652-.875-.655.317-.655.875h.003Z"/><path class="v" d="m323.608,70.368v5.432h1.461v1.08h-4.281v-1.08h1.656v-4.352h-1.518l.187-1.08h2.495Z"/><path class="v" d="m329.9,70.368l-.187,1.08h-2.224v1.21c.153-.032.309-.051.466-.056,1.124-.084,2.103.758,2.187,1.882.008.102.008.204,0,.305.039,1.171-.878,2.152-2.049,2.191-.068.002-.137.001-.205-.003-.686.014-1.36-.177-1.935-.55l.577-.939c.379.266.831.409,1.294.409.579.037,1.079-.402,1.116-.981.003-.042.003-.085,0-.127.011-.623-.484-1.137-1.107-1.149-.038,0-.075,0-.113.004-.477.006-.95.098-1.395.27v-3.546h3.574Z"/><path class="v" d="m332.577,73.44c-.874.047-1.621-.624-1.668-1.498s.624-1.621,1.498-1.668c.874-.047,1.621.624,1.668,1.498.002.028.002.056.002.085.083.788-.489,1.494-1.277,1.577-.074.008-.148.01-.223.006Zm3.611-3.072h1.006l-4.748,6.516h-1.024l4.766-6.516Zm-4.263,1.489c0,.559.251.875.652.875s.651-.316.651-.875-.251-.875-.651-.875-.652.318-.652.875Zm4.123,5.12c-.874.047-1.621-.624-1.668-1.498s.624-1.621,1.498-1.668c.874-.047,1.621.624,1.668,1.498.002.028.002.056.002.085.082.789-.492,1.496-1.282,1.577-.073.007-.146.009-.218.006h0Zm-.651-1.583c0,.559.251.875.651.875s.652-.316.652-.875-.251-.875-.652-.875-.648.317-.648.875h-.003Z"/><path class="v" d="m488.948,65.943v5.436h1.461v1.079h-4.282v-1.079h1.657v-4.356h-1.518l.187-1.08h2.495Z"/><path class="v" d="m495.243,65.943l-.187,1.08h-2.224v1.21c.153-.033.309-.052.465-.057,1.124-.084,2.104.759,2.188,1.883.008.102.008.204,0,.305.039,1.17-.877,2.151-2.047,2.19-.069.002-.138.001-.207-.003-.684.013-1.357-.179-1.931-.551l.578-.94c.379.266.831.409,1.294.409.579.037,1.079-.402,1.116-.981.003-.042.003-.084,0-.126.011-.623-.484-1.137-1.107-1.149-.038,0-.075,0-.113.004-.479.006-.953.097-1.4.27v-3.544h3.574Z"/><path class="v" d="m497.917,69.014c-.874.046-1.619-.624-1.666-1.498s.624-1.619,1.498-1.666,1.619.624,1.666,1.498c.001.028.002.056.002.084.082.789-.492,1.495-1.281,1.576-.073.008-.146.009-.219.006Zm3.611-3.071h1.006l-4.748,6.515h-1.024l4.766-6.515Zm-4.263,1.489c0,.558.251.875.652.875s.651-.317.651-.875-.251-.875-.651-.875-.652.316-.652.875h0Zm4.123,5.119c-.874.047-1.621-.624-1.668-1.498-.047-.874.624-1.621,1.498-1.668.874-.047,1.621.624,1.668,1.498.002.029.002.057.002.086.082.789-.492,1.495-1.281,1.576-.073.008-.146.009-.219.006h0Zm-.651-1.582c0,.559.251.875.651.875s.652-.316.652-.875-.251-.875-.652-.875-.651.316-.651.875h0Z"/><rect class="k" x="481.382" y="75.58" width="24.391" height="24.391" rx="1.654" ry="1.654"/><rect class="z" x="481.382" y="75.58" width="24.391" height="24.391" rx="1.654" ry="1.654"/><rect class="k" x="41.16" y="80.011" width="59.234" height="16.167" rx="1.654" ry="1.654"/><rect class="w" x="41.16" y="80.011" width="59.234" height="16.167" rx="1.654" ry="1.654"/><rect class="k" x="309.39" y="80.529" width="38.332" height="14.559" rx="1.654" ry="1.654"/><rect class="x" x="309.39" y="80.529" width="38.332" height="14.559" rx="1.654" ry="1.654"/><path class="u" d="m324.352,83.127l1.035,1.47-.493.04-.92-1.3h-.208v1.263h-.43v-2.791h.43v1.163h.22l.828-1.163h.49l-.952,1.318Z"/><path class="u" d="m325.627,83.581c.062-.517.532-.886,1.049-.823.517.062.886.532.823,1.049-.057.474-.459.83-.936.83-.513.009-.936-.4-.945-.913,0-.048.002-.096.009-.143Zm.422,0c0,.447.2.709.514.709s.514-.262.514-.709-.2-.709-.514-.709-.514.263-.514.709Z"/><path class="u" d="m329.387,85.394l-.414.079v-.857c-.078.014-.156.021-.235.021-.617,0-.84-.47-.84-1.056s.223-1.055.84-1.055c.079,0,.157.007.235.02v-.856l.414-.08v.936c.078-.013.157-.019.236-.02.617,0,.839.47.839,1.055s-.222,1.056-.839,1.056c-.079,0-.158-.007-.236-.021v.778Zm-.406-2.5c-.059-.015-.119-.022-.179-.021-.343,0-.486.287-.486.709s.143.709.486.709c.06,0,.12-.006.179-.019v-1.378Zm.4,1.378c.059.013.119.019.179.019.343,0,.486-.287.486-.709s-.143-.709-.486-.709c-.06,0-.12.006-.179.021v1.378Z"/><path class="u" d="m332.578,83.677h-1.291c.028.394.235.613.6.613.177-.006.351-.053.506-.139l.136.314c-.21.111-.444.17-.682.172-.523.025-.967-.379-.992-.902-.002-.052,0-.103.005-.154,0-.669.366-1.055.916-1.055.414-.046.788.252.834.666.006.05.006.1.002.15,0,.112-.012.225-.034.335Zm-1.275-.322h.94c.028-.238-.143-.453-.381-.481-.025-.003-.051-.004-.077-.002-.267,0-.483.216-.485.483h.003Z"/><path class="u" d="m333.131,84.6v-2.034h.414v1.354h.017l.936-1.354h.37v2.034h-.414v-1.358h-.016l-.938,1.358h-.369Zm1.526-2.712c-.216.363-.685.482-1.049.266-.11-.065-.201-.157-.266-.266l.264-.176c.069.156.223.257.394.259.17,0,.324-.102.39-.259l.267.176Z"/><path class="u" d="m337.134,84.6h-.414v-.872h-.8v.872h-.414v-2.034h.414v.812h.8v-.812h.414v2.034Z"/><path class="u" d="m338.083,83.8c-.241-.094-.393-.335-.374-.593-.012-.347.26-.637.606-.649.031-.001.062,0,.094.004h.8v2.038h-.409v-.736h-.314l-.438.736h-.474l.509-.8Zm.371-.286h.345v-.606h-.345c-.165-.013-.31.11-.323.275,0,.011-.001.021,0,.032-.007.161.118.297.279.305.015,0,.03,0,.045-.002v-.004Z"/><path class="t" d="m317.579,84.84h3.772v.508h-3.772v-.508Zm3.054-.868h.18c.265-.012.47-.237.458-.501-.011-.248-.21-.446-.458-.458h-.18v.959Zm-2.125-2.006c0-.832.718-.891.718-1.437h.509c0,.832-.719.89-.719,1.437h-.508Zm2.305.539c.545.017.973.474.956,1.019-.017.521-.435.939-.956.956h-2.156c-.396-.001-.717-.322-.719-.718v-1.257h1.437c0-.833.719-.891.719-1.437h.508c0,.834-.718.893-.718,1.437h.929Z"/><path class="u" d="m311.884,93.9l.179.448c-.246.109-.513.165-.783.162-.744.03-1.371-.549-1.401-1.293-.003-.063,0-.127.006-.19-.087-.729.434-1.39,1.163-1.477.067-.008.135-.011.203-.008.269-.001.536.051.785.152l-.18.448c-.181-.076-.375-.114-.571-.113-.482,0-.806.4-.806,1s.318,1,.8,1c.208-.004.413-.048.605-.129Z"/><path class="u" d="m313.99,93.391c.009-.426.262-.809.65-.986v-.016c-.329-.174-.533-.519-.526-.891-.033-.628.448-1.163,1.076-1.197.628-.033,1.163.448,1.197,1.076.022.41-.179.8-.526,1.021v.016c.516.388.619,1.121.231,1.637-.388.516-1.121.619-1.637.231-.281-.211-.451-.537-.465-.888v-.003Zm1.075-.773c-.296.145-.486.444-.492.773,0,.409.285.583.678.583s.676-.2.676-.583c0-.336-.3-.531-.627-.672l-.235-.101Zm.157-.5l.179.073c.244-.147.395-.41.4-.695-.045-.306-.33-.517-.636-.472-.244.036-.436.228-.472.472.007.338.244.504.529.624v-.002Z"/><path class="u" d="m317.464,91.543c.204,0,.37.165.371.369,0,.204-.165.37-.369.371s-.37-.165-.371-.369h0c.001-.205.165-.369.369-.371Zm0,2.229c.204,0,.37.165.371.369,0,.204-.165.37-.369.371s-.37-.165-.371-.369h0c.001-.205.165-.369.369-.371Z"/><path class="u" d="m319.681,94.511c-.862,0-1.372-.689-1.372-2.016s.51-2.015,1.372-2.015,1.372.688,1.372,2.015-.51,2.016-1.372,2.016Zm0-.537c.447,0,.762-.437.762-1.479s-.315-1.478-.762-1.478-.762.436-.762,1.478.314,1.479.762,1.479Z"/><path class="u" d="m322.813,94.511c-.862,0-1.372-.689-1.372-2.016s.51-2.015,1.372-2.015,1.372.688,1.372,2.015-.51,2.016-1.372,2.016Zm0-.537c.447,0,.761-.437.761-1.479s-.314-1.478-.761-1.478-.762.436-.762,1.478.314,1.479.762,1.479Z"/><path class="u" d="m326.241,93.968c.321-.634.455-1.347.385-2.055v-.313h1.874v2.369h.455l-.113,1.2h-.47v-.711h-1.932v.711h-.471l-.111-1.2h.383Zm.968-1.8c.018.618-.101,1.233-.347,1.8h1.058v-1.882h-.711v.082Z"/><path class="u" d="m329.317,93.028c.087-.727.747-1.245,1.474-1.158.727.087,1.245.747,1.158,1.474-.08.666-.645,1.167-1.316,1.167-.722.011-1.316-.565-1.327-1.287-.001-.066.003-.131.012-.196Zm.594,0c0,.626.285,1,.721,1s.723-.37.723-1-.285-1-.723-1-.721.372-.721,1h0Z"/><path class="u" d="m335.656,90.535v3.383h.907v.537h-2.52v-.537h1.025v-2.846h-.941l.112-.537h1.417Z"/><path class="u" d="m337.12,93.391c.009-.426.262-.809.65-.986v-.016c-.329-.174-.533-.519-.526-.891-.033-.628.448-1.163,1.076-1.197.628-.033,1.163.448,1.197,1.076.022.41-.179.8-.526,1.021v.016c.516.388.619,1.121.231,1.637-.388.516-1.121.619-1.637.231-.281-.211-.451-.537-.465-.888v-.003Zm1.075-.773c-.296.145-.486.444-.492.773,0,.409.285.583.677.583s.677-.2.677-.583c0-.336-.3-.531-.627-.672l-.235-.101Zm.157-.5l.179.073c.244-.147.395-.41.4-.695-.045-.306-.33-.517-.636-.472-.244.036-.436.228-.472.472.003.338.243.504.529.624v-.002Z"/><path class="u" d="m340.593,91.543c.204,0,.37.165.371.369,0,.204-.165.37-.369.371s-.37-.165-.371-.369h0c.002-.204.166-.369.369-.371Zm0,2.229c.204,0,.37.165.371.369,0,.204-.165.37-.369.371s-.37-.165-.371-.369h0c.002-.204.166-.369.369-.371Z"/><path class="u" d="m342.81,94.511c-.862,0-1.372-.689-1.372-2.016s.51-2.015,1.372-2.015,1.372.688,1.372,2.015-.51,2.016-1.372,2.016Zm0-.537c.447,0,.762-.437.762-1.479s-.315-1.478-.762-1.478-.762.436-.762,1.478.314,1.479.762,1.479Z"/><path class="u" d="m345.943,94.511c-.862,0-1.372-.689-1.372-2.016s.51-2.015,1.372-2.015,1.372.688,1.372,2.015-.51,2.016-1.372,2.016Zm0-.537c.447,0,.762-.437.762-1.479s-.315-1.478-.762-1.478-.762.436-.762,1.478.319,1.479.762,1.479Z"/><path class="t" d="m483.21,97.539h18.53v2.5h-18.53v-2.5Zm15-4.262h.882c1.301.001,2.357-1.053,2.358-2.354.001-1.301-1.053-2.357-2.354-2.358h-.886v4.712Zm-10.439-9.856c0-4.087,3.53-4.373,3.53-7.058h2.5c0,4.087-3.53,4.373-3.53,7.058h-2.5Zm11.321,2.648c2.68,0,4.853,2.173,4.853,4.853s-2.173,4.853-4.853,4.853h-10.587c-1.947-.006-3.524-1.583-3.53-3.53v-6.176h7.059c0-4.088,3.529-4.374,3.529-7.059h2.5c0,4.1-3.53,4.388-3.53,7.059h4.559Z"/><path class="u" d="m47.053,87.882l3.559,5.051-1.7.137-3.163-4.462h-.711v4.325h-1.475v-9.581h1.479v4h.752l2.847-4h1.684l-3.272,4.53Z"/><path class="u" d="m51.435,89.443c0-2.273,1.273-3.627,3.216-3.627s3.217,1.354,3.217,3.627-1.268,3.627-3.217,3.627-3.216-1.355-3.216-3.627Zm1.45,0c0,1.533.7,2.436,1.766,2.436s1.766-.9,1.766-2.436-.7-2.437-1.766-2.437-1.766.903-1.766,2.437Z"/><path class="u" d="m64.357,95.67l-1.424.274v-2.944c-.267.044-.537.067-.807.069-2.122,0-2.888-1.616-2.888-3.627s.766-3.627,2.888-3.627c.27.003.54.025.807.068v-2.941l1.424-.275v3.217c.267-.043.537-.066.808-.068,2.121,0,2.887,1.615,2.887,3.627s-.766,3.627-2.887,3.627c-.271-.003-.541-.026-.808-.07v2.67Zm-1.4-8.6c-.202-.047-.409-.07-.616-.068-1.176,0-1.67.985-1.67,2.437s.494,2.436,1.67,2.436c.207,0,.414-.022.616-.068v-4.737Zm1.37,4.737c.202.047.408.07.615.068,1.178,0,1.67-.985,1.67-2.436s-.492-2.437-1.67-2.437c-.207-.002-.413.021-.615.068v4.737Z"/><path class="u" d="m75.322,89.771h-4.436c.1,1.355.808,2.108,2.068,2.108.609-.021,1.204-.185,1.738-.479l.465,1.081c-.722.381-1.524.583-2.34.589-2.054,0-3.395-1.341-3.395-3.627s1.259-3.627,3.148-3.627c1.427-.157,2.712.873,2.868,2.3.018.166.02.333.007.5-.003.388-.044.775-.123,1.155Zm-4.38-1.109h3.229c.094-.816-.491-1.555-1.307-1.649-.088-.01-.176-.012-.264-.007-.912.006-1.651.744-1.658,1.656Z"/><path class="u" d="m77.225,92.933v-6.981h1.424v4.654h.051l3.216-4.654h1.273v6.981h-1.42v-4.654h-.055l-3.214,4.654h-1.275Zm5.242-9.321c-.738,1.247-2.348,1.66-3.595.921-.38-.225-.697-.542-.921-.921l.9-.6c.24.535.769.882,1.355.89.585-.002,1.112-.352,1.341-.89l.92.6Z"/><path class="u" d="m90.982,92.933h-1.424v-3h-2.751v3h-1.424v-6.981h1.424v2.792h2.751v-2.792h1.424v6.981Z"/><path class="u" d="m94.24,90.209c-.828-.326-1.349-1.151-1.286-2.039-.042-1.192.891-2.191,2.082-2.233.113-.004.227.001.34.015h2.751v6.981h-1.427v-2.533h-1.077l-1.506,2.532h-1.629l1.752-2.723Zm1.273-.985h1.187v-2.081h-1.187c-.562-.048-1.057.368-1.105.929-.004.042-.005.085-.003.128-.017.552.418,1.013.97,1.029.046.001.092,0,.138-.005Z"/></svg>