<?xml version="1.0" encoding="UTF-8"?><svg id="a" xmlns="http://www.w3.org/2000/svg" xmlns:xlink="http://www.w3.org/1999/xlink" viewBox="0 0 449.878 208.947"><defs><style>.d{stroke-dasharray:0 0 5.098 2.549;}.d,.e,.f,.g,.h,.i,.j,.k,.l,.m,.n,.o,.p,.q,.r,.s{fill:none;}.d,.e,.f,.g,.i,.j,.k,.l,.m,.o,.p,.s{stroke:#53af32;stroke-miterlimit:10;stroke-width:.719px;}.e{stroke-dasharray:0 0 4.884 2.442;}.f{stroke-dasharray:0 0 4.752 2.376;}.g{stroke-dasharray:0 0 4.905 2.453;}.h,.t,.u,.v{stroke-width:0px;}.i{stroke-dasharray:0 0 4.683 2.341;}.k{stroke-dasharray:0 0 5.06 2.53;}.l{stroke-dasharray:0 0 4.881 2.44;}.m{stroke-dasharray:0 0 5.032 2.516;}.t{fill:#88bd28;opacity:.3;}.t,.r{isolation:isolate;}.u{fill:rgba(136,189,40,.3);}.n{stroke-width:2px;}.n,.q,.r{stroke:#56617d;stroke-linecap:round;stroke-linejoin:round;}.w{opacity:.2;}.x{opacity:.5;}.o{stroke-dasharray:0 0 4.79 2.395;}.y{clip-path:url(#b);}.z{clip-path:url(#c);}.p{stroke-dasharray:0 0 4.834 2.417;}.q,.r{stroke-width:.8px;}.v{fill:#53af32;}.r{opacity:.55;}.s{stroke-dasharray:0 0 4.972 2.486;}</style><clipPath id="b"><polygon class="h" points="319.153 82.727 158.766 82.727 158.766 74.234 94.761 74.234 94.761 125.991 158.766 125.991 158.766 117.496 319.153 117.496 319.153 82.727"/></clipPath><clipPath id="c"><path class="h" d="m1,1v187.952h406.98V1H1Zm318.153,115.5h-160.387v8.5h-64v-51.766h64.005v8.493h160.382v34.773Z"/></clipPath></defs><g class="y"><g class="w"><path class="q" d="m407.98,25.512H1"/><path class="q" d="m407.98,47.722H1"/><rect class="q" x="4.575" y="64.574" width="48.511" height="34.723" rx=".766" ry=".766"/><path class="q" d="m1,64.572h2.81c.422.004.761.348.76.77v33.19c.001.422-.338.766-.76.77H1"/><rect class="q" x="53.086" y="64.574" width="48.511" height="34.723" rx=".766" ry=".766"/><rect class="q" x="101.596" y="64.574" width="48.511" height="34.723" rx=".766" ry=".766"/><rect class="q" x="150.107" y="64.574" width="48.511" height="34.723" rx=".766" ry=".766"/><rect class="q" x="198.617" y="64.574" width="48.511" height="34.723" rx=".766" ry=".766"/><rect class="q" x="247.128" y="64.574" width="48.511" height="34.723" rx=".766" ry=".766"/><rect class="q" x="295.639" y="64.574" width="48.511" height="34.723" rx=".766" ry=".766"/><rect class="q" x="344.149" y="64.574" width="48.511" height="34.723" rx=".766" ry=".766"/><path class="q" d="m407.98,99.3h-14.55c-.425,0-.77-.345-.77-.77v-33.188c0-.425.345-.77.77-.77h14.55"/><path class="q" d="m53.09,162.692v-27.9c0-.425-.345-.77-.77-.77H5.34c-.425,0-.77.345-.77.77h0v33.19c.004.422.348.761.77.76h35.09"/><path class="q" d="m1,134.022h2.81c.421.001.761.343.76.764,0,.002,0,.004,0,.006v33.19c0,.42-.34.76-.76.76H1"/><path class="q" d="m407.98,168.742h-14.55c-.421.004-.766-.333-.77-.754,0-.002,0-.004,0-.006v-33.19c-.003-.422.336-.767.758-.77.004,0,.008,0,.012,0h14.55"/><path class="q" d="m407.98,134.022h-38.81c-.425,0-.77-.345-.77-.77v-33.19c.004-.422.348-.761.77-.76h38.81"/><path class="q" d="m1,99.3h27.06c.421-.004.766.333.77.754,0,.002,0,.004,0,.006v33.19c.003.422-.336.767-.758.77-.004,0-.008,0-.012,0H1"/><rect class="q" x="28.83" y="99.298" width="48.511" height="34.723" rx=".766" ry=".766"/><rect class="q" x="77.341" y="99.298" width="48.511" height="34.723" rx=".766" ry=".766"/><path class="q" d="m152.48,134.022h-25.86c-.422.003-.767-.336-.77-.758,0-.004,0-.008,0-.012v-33.19c.001-.421.343-.761.764-.76.002,0,.004,0,.006,0h46.98c.42,0,.76.34.76.76v31.65"/><path class="q" d="m222.87,131.282v-31.22c0-.42-.34-.76-.76-.76h-46.98c-.422-.001-.766.338-.77.76v31.65"/><path class="q" d="m222.87,131.282v-31.22c.004-.422.348-.761.77-.76h46.98c.42,0,.76.34.76.76h0v33.19c.004.421-.333.766-.754.77-.002,0-.004,0-.006,0h-19.42"/><rect class="q" x="271.383" y="99.298" width="48.511" height="34.723" rx=".766" ry=".766"/><rect class="q" x="319.894" y="99.298" width="48.511" height="34.723" rx=".766" ry=".766"/><path class="q" d="m377.11,188.021v-18.509c.004-.424.346-.766.77-.77h30.1"/><path class="q" d="m28.83,188.952v-9.54"/><path class="q" d="m28.83,174.822v-5.31c0-.425-.345-.77-.77-.77H1"/><path class="q" d="m101.6,144.782v-9.99c0-.425-.345-.77-.77-.77h-46.98c-.421.001-.761.343-.76.764,0,.002,0,.004,0,.006v27.9"/><path class="q" d="m101.6,144.782v-9.99c-.004-.421.333-.766.754-.77.002,0,.004,0,.006,0h46.98c.261.004.503.134.65.35.077.127.118.272.12.42"/><path class="q" d="m152.48,134.022c-.74.1-1.48.21-2.22.31.142-.195.369-.31.61-.31h1.61Z"/><path class="q" d="m295.64,134.792v8.208c-14.609-3.929-29.452-6.928-44.44-8.98h43.67c.422-.003.767.336.77.758,0,.005,0,.009,0,.014h0Z"/><path class="q" d="m344.15,134.792v25.06c-15.745-6.772-31.957-12.404-48.51-16.852v-8.21c-.004-.421.333-.766.754-.77.002,0,.004,0,.006,0h46.98c.422-.003.767.336.77.758,0,.005,0,.009,0,.014h0Z"/><path class="q" d="m28.83,174.822v-5.31c0-.425.345-.77.77-.77h10.83"/><path class="q" d="m377.11,169.512v6.552s-12.13-6.462-13.86-7.322h13.1c.422.004.761.348.76.77h0Z"/><path class="q" d="m28.83,179.412l-2.26-3.34c.75-.42,1.5-.83,2.26-1.25"/><path class="q" d="m150.11,134.792c-.002-.148-.043-.293-.12-.42.09-.01.18-.03.27-.04-.095.135-.148.295-.15.46h0Z"/><path class="q" d="m303.38,188.952c-21.973-7.379-44.688-12.326-67.74-14.75-11.228-1.181-22.51-1.772-33.8-1.77-10.21,0-20.297.473-30.26,1.42-22.283,2.092-44.282,6.537-65.63,13.26-1.89.59-3.78,1.21-5.65,1.84"/><path class="q" d="m35.28,188.952l-6.45-9.54-2.26-3.34c.75-.42,1.5-.83,2.26-1.25,3.82-2.09,7.687-4.117,11.6-6.08,4.17-2.1,8.39-4.117,12.66-6.05,2.13-.96,4.273-1.907,6.43-2.84,13.7-5.892,27.754-10.925,42.08-15.07,8.88-2.56,17.9-4.787,27.06-6.68,7.04-1.45,14.15-2.693,21.33-3.73.09-.01.18-.03.27-.04.74-.1,1.48-.21,2.22-.31,4.75-.65,9.53-1.207,14.34-1.67,2.5-.24,5.02-.46,7.54-.64,9.067-.69,18.227-1.037,27.48-1.04.76,0,1.51,0,2.27.01,6.29.04,12.543.24,18.76.6,9.55.54,18.993,1.453,28.33,2.74,2.06.28,4.12.58,6.18.9,1.66.26,3.32.53,4.98.81,3.79.64,7.56,1.34,11.31,2.1.89.18,1.78.36,2.67.55.28.06.57.12.86.18.43.09.86.18,1.3.28.24.05.47.1.71.16.92.2,1.84.4,2.76.61.95.21,1.9.43,2.85.66.88.21,1.76.42,2.64.64.91.21,1.82.44,2.73.67s1.83.46,2.73.7,1.82.47,2.72.72c1.04.28,2.08.56,3.12.85s2.08.59,3.11.88,2.07.6,3.1.91,2.06.62,3.09.94,2.05.63,3.07.96,2.05.65,3.07.99c.88.28,1.76.58,2.64.87,2.28.77,4.54,1.55,6.79,2.36,1.77.64,3.533,1.29,5.29,1.95,2.267.85,4.527,1.727,6.78,2.63.78.31,1.55.63,2.32.94,2.05.84,4.1,1.7,6.13,2.57,6.46,2.78,12.827,5.743,19.1,8.89,1.73.86,3.44,1.74,5.15,2.63,2.93,1.53,5.833,3.097,8.71,4.7l-8.71,12.88"/><path class="q" d="m22.674,1v24.511h140.17V1"/><path class="q" d="m14.376,25.511h156.766v22.213H14.376v-22.213Z"/><path class="q" d="m21.589,47.723h31.085v16.851h-31.085v-16.851Z"/><path class="q" d="m132.844,47.723h31.085v16.851h-31.085v-16.851Z"/><path class="q" d="m51.78,25.511V1"/><path class="q" d="m63.488,25.511V1"/><path class="q" d="m86.905,25.511V1"/><path class="q" d="m98.613,25.511V1"/><path class="q" d="m110.321,25.511V1"/><path class="q" d="m122.029,25.511V1"/><path class="q" d="m133.738,25.511V1"/><path class="q" d="m75.196,25.511V1"/><path class="q" d="m245.072,1v24.511h140.17V1"/><path class="q" d="m236.774,25.511h156.766v22.213h-156.766v-22.213Z"/><path class="q" d="m243.987,47.723h31.085v16.851h-31.085v-16.851Z"/><path class="q" d="m355.242,47.723h31.085v16.851h-31.085v-16.851Z"/><path class="q" d="m274.178,25.511V1"/><path class="q" d="m285.886,25.511V1"/><path class="q" d="m309.303,25.511V1"/><path class="q" d="m321.011,25.511V1"/><path class="q" d="m332.719,25.511V1"/><path class="q" d="m344.427,25.511V1"/><path class="q" d="m356.136,25.511V1"/><path class="q" d="m297.595,25.511V1"/><path class="q" d="m73.13,188.952l-13.61-29.1"/><path class="q" d="m93.563,148.357l12.392,38.757"/><path class="q" d="m128.659,138.103l8.171,40.514"/><path class="q" d="m166.818,132.35l4.791,41.732"/><path class="q" d="m204.107,130.584v41.598"/><path class="q" d="m347.69,161.692l-13.22,27.26"/><path class="q" d="m313.651,148.831l-12.392,38.757"/><path class="q" d="m278.554,138.577l-8.171,40.514"/><path class="q" d="m240.395,132.824l-4.791,41.732"/></g></g><g class="z"><g class="x"><path class="n" d="m407.98,25.512H1"/><path class="n" d="m407.98,47.722H1"/><rect class="r" x="4.575" y="64.574" width="48.511" height="34.723" rx=".766" ry=".766"/><path class="r" d="m1,64.572h2.81c.422.004.761.348.76.77v33.19c.001.422-.338.766-.76.77H1"/><rect class="r" x="53.086" y="64.574" width="48.511" height="34.723" rx=".766" ry=".766"/><rect class="r" x="101.596" y="64.574" width="48.511" height="34.723" rx=".766" ry=".766"/><rect class="r" x="150.107" y="64.574" width="48.511" height="34.723" rx=".766" ry=".766"/><rect class="r" x="198.617" y="64.574" width="48.511" height="34.723" rx=".766" ry=".766"/><rect class="r" x="247.128" y="64.574" width="48.511" height="34.723" rx=".766" ry=".766"/><rect class="r" x="295.639" y="64.574" width="48.511" height="34.723" rx=".766" ry=".766"/><rect class="r" x="344.149" y="64.574" width="48.511" height="34.723" rx=".766" ry=".766"/><path class="r" d="m407.98,99.3h-14.55c-.425,0-.77-.345-.77-.77v-33.188c0-.425.345-.77.77-.77h14.55"/><path class="r" d="m53.09,162.692v-27.9c0-.425-.345-.77-.77-.77H5.34c-.425,0-.77.345-.77.77h0v33.19c.004.422.348.761.77.76h35.09"/><path class="r" d="m1,134.022h2.81c.421.001.761.343.76.764,0,.002,0,.004,0,.006v33.19c0,.42-.34.76-.76.76H1"/><path class="r" d="m407.98,168.742h-14.55c-.421.004-.766-.333-.77-.754,0-.002,0-.004,0-.006v-33.19c-.003-.422.336-.767.758-.77.004,0,.008,0,.012,0h14.55"/><path class="r" d="m407.98,134.022h-38.81c-.425,0-.77-.345-.77-.77v-33.19c.004-.422.348-.761.77-.76h38.81"/><path class="r" d="m1,99.3h27.06c.421-.004.766.333.77.754,0,.002,0,.004,0,.006v33.19c.003.422-.336.767-.758.77-.004,0-.008,0-.012,0H1"/><rect class="r" x="28.83" y="99.298" width="48.511" height="34.723" rx=".766" ry=".766"/><rect class="r" x="77.341" y="99.298" width="48.511" height="34.723" rx=".766" ry=".766"/><path class="r" d="m152.48,134.022h-25.86c-.422.003-.767-.336-.77-.758,0-.004,0-.008,0-.012v-33.19c.001-.421.343-.761.764-.76.002,0,.004,0,.006,0h46.98c.42,0,.76.34.76.76v31.65"/><path class="r" d="m222.87,131.282v-31.22c0-.42-.34-.76-.76-.76h-46.98c-.422-.001-.766.338-.77.76v31.65"/><path class="r" d="m222.87,131.282v-31.22c.004-.422.348-.761.77-.76h46.98c.42,0,.76.34.76.76h0v33.19c.004.421-.333.766-.754.77-.002,0-.004,0-.006,0h-19.42"/><rect class="r" x="271.383" y="99.298" width="48.511" height="34.723" rx=".766" ry=".766"/><rect class="r" x="319.894" y="99.298" width="48.511" height="34.723" rx=".766" ry=".766"/><path class="r" d="m377.11,188.021v-18.509c.004-.424.346-.766.77-.77h30.1"/><path class="r" d="m28.83,188.952v-9.54"/><path class="r" d="m28.83,174.822v-5.31c0-.425-.345-.77-.77-.77H1"/><path class="r" d="m101.6,144.782v-9.99c0-.425-.345-.77-.77-.77h-46.98c-.421.001-.761.343-.76.764,0,.002,0,.004,0,.006v27.9"/><path class="r" d="m101.6,144.782v-9.99c-.004-.421.333-.766.754-.77.002,0,.004,0,.006,0h46.98c.261.004.503.134.65.35.077.127.118.272.12.42"/><path class="r" d="m152.48,134.022c-.74.1-1.48.21-2.22.31.142-.195.369-.31.61-.31h1.61Z"/><path class="r" d="m295.64,134.792v8.208c-14.609-3.929-29.452-6.928-44.44-8.98h43.67c.422-.003.767.336.77.758,0,.005,0,.009,0,.014h0Z"/><path class="r" d="m344.15,134.792v25.06c-15.745-6.772-31.957-12.404-48.51-16.852v-8.21c-.004-.421.333-.766.754-.77.002,0,.004,0,.006,0h46.98c.422-.003.767.336.77.758,0,.005,0,.009,0,.014h0Z"/><path class="r" d="m28.83,174.822v-5.31c0-.425.345-.77.77-.77h10.83"/><path class="r" d="m377.11,169.512v6.552s-12.13-6.462-13.86-7.322h13.1c.422.004.761.348.76.77h0Z"/><path class="r" d="m28.83,179.412l-2.26-3.34c.75-.42,1.5-.83,2.26-1.25"/><path class="r" d="m150.11,134.792c-.002-.148-.043-.293-.12-.42.09-.01.18-.03.27-.04-.095.135-.148.295-.15.46h0Z"/><path class="n" d="m303.38,188.952c-21.973-7.379-44.688-12.326-67.74-14.75-11.228-1.181-22.51-1.772-33.8-1.77-10.21,0-20.297.473-30.26,1.42-22.283,2.092-44.282,6.537-65.63,13.26-1.89.59-3.78,1.21-5.65,1.84"/><path class="n" d="m35.28,188.952l-6.45-9.54-2.26-3.34c.75-.42,1.5-.83,2.26-1.25,3.82-2.09,7.687-4.117,11.6-6.08,4.17-2.1,8.39-4.117,12.66-6.05,2.13-.96,4.273-1.907,6.43-2.84,13.7-5.892,27.754-10.925,42.08-15.07,8.88-2.56,17.9-4.787,27.06-6.68,7.04-1.45,14.15-2.693,21.33-3.73.09-.01.18-.03.27-.04.74-.1,1.48-.21,2.22-.31,4.75-.65,9.53-1.207,14.34-1.67,2.5-.24,5.02-.46,7.54-.64,9.067-.69,18.227-1.037,27.48-1.04.76,0,1.51,0,2.27.01,6.29.04,12.543.24,18.76.6,9.55.54,18.993,1.453,28.33,2.74,2.06.28,4.12.58,6.18.9,1.66.26,3.32.53,4.98.81,3.79.64,7.56,1.34,11.31,2.1.89.18,1.78.36,2.67.55.28.06.57.12.86.18.43.09.86.18,1.3.28.24.05.47.1.71.16.92.2,1.84.4,2.76.61.95.21,1.9.43,2.85.66.88.21,1.76.42,2.64.64.91.21,1.82.44,2.73.67s1.83.46,2.73.7,1.82.47,2.72.72c1.04.28,2.08.56,3.12.85s2.08.59,3.11.88,2.07.6,3.1.91,2.06.62,3.09.94,2.05.63,3.07.96,2.05.65,3.07.99c.88.28,1.76.58,2.64.87,2.28.77,4.54,1.55,6.79,2.36,1.77.64,3.533,1.29,5.29,1.95,2.267.85,4.527,1.727,6.78,2.63.78.31,1.55.63,2.32.94,2.05.84,4.1,1.7,6.13,2.57,6.46,2.78,12.827,5.743,19.1,8.89,1.73.86,3.44,1.74,5.15,2.63,2.93,1.53,5.833,3.097,8.71,4.7l-8.71,12.88"/><path class="n" d="m22.674,1v24.511h140.17V1"/><path class="n" d="m14.376,25.511h156.766v22.213H14.376v-22.213Z"/><path class="n" d="m21.589,47.723h31.085v16.851h-31.085v-16.851Z"/><path class="n" d="m132.844,47.723h31.085v16.851h-31.085v-16.851Z"/><path class="n" d="m51.78,25.511V1"/><path class="n" d="m63.488,25.511V1"/><path class="n" d="m86.905,25.511V1"/><path class="n" d="m98.613,25.511V1"/><path class="n" d="m110.321,25.511V1"/><path class="n" d="m122.029,25.511V1"/><path class="n" d="m133.738,25.511V1"/><path class="n" d="m75.196,25.511V1"/><path class="n" d="m245.072,1v24.511h140.17V1"/><path class="n" d="m236.774,25.511h156.766v22.213h-156.766v-22.213Z"/><path class="n" d="m243.987,47.723h31.085v16.851h-31.085v-16.851Z"/><path class="n" d="m355.242,47.723h31.085v16.851h-31.085v-16.851Z"/><path class="n" d="m274.178,25.511V1"/><path class="n" d="m285.886,25.511V1"/><path class="n" d="m309.303,25.511V1"/><path class="n" d="m321.011,25.511V1"/><path class="n" d="m332.719,25.511V1"/><path class="n" d="m344.427,25.511V1"/><path class="n" d="m356.136,25.511V1"/><path class="n" d="m297.595,25.511V1"/><path class="n" d="m73.13,188.952l-13.61-29.1"/><path class="n" d="m93.563,148.357l12.392,38.757"/><path class="n" d="m128.659,138.103l8.171,40.514"/><path class="n" d="m166.818,132.35l4.791,41.732"/><path class="n" d="m204.107,130.584v41.598"/><path class="n" d="m347.69,161.692l-13.22,27.26"/><path class="n" d="m313.651,148.831l-12.392,38.757"/><path class="n" d="m278.554,138.577l-8.171,40.514"/><path class="n" d="m240.395,132.824l-4.791,40.732"/></g></g><path class="t" d="m204.095,118.605h-45.573v-37.109h45.573"/><path class="j" d="m204.095,118.605h-2.395"/><path class="d" d="m199.151,118.605h-36.959"/><path class="j" d="m160.918,118.605h-2.396v-2.395"/><path class="s" d="m158.522,113.724v-28.59"/><path class="j" d="m158.522,83.891v-2.396h2.396"/><path class="d" d="m163.467,81.495h36.958"/><path class="j" d="m201.7,81.495h2.395"/><path class="t" d="m204.095,81.496h101.476v37.109h-101.476"/><path class="j" d="m204.095,81.495h2.395"/><path class="p" d="m208.907,81.495h93.06"/><path class="j" d="m303.175,81.495h2.396v2.396"/><path class="s" d="m305.571,86.377v28.59"/><path class="j" d="m305.571,116.21v2.395h-2.396"/><path class="p" d="m300.758,118.605h-93.059"/><path class="j" d="m206.49,118.605h-2.395"/><path class="u" d="m158.522,89.326h147.048v21.002h-147.048v-21.002Z"/><path class="o" d="m158.522,89.326h147.049"/><path class="j" d="m158.522,110.329h2.396"/><path class="g" d="m163.37,110.329h138.579"/><path class="j" d="m303.175,110.329h2.396"/><path class="j" d="m186.362,99.828h-2.395"/><path class="f" d="m181.591,99.828H4.583"/><path class="j" d="m3.395,99.828H1"/><path class="t" d="m105.759,73.398h52.864v52.593h-52.864v-52.593Z"/><path class="j" d="m158.623,123.596v2.395h-2.395"/><path class="k" d="m153.698,125.991h-44.279"/><path class="j" d="m108.154,125.991h-2.395v-2.395"/><path class="m" d="m105.759,121.08v-44.029"/><path class="j" d="m105.759,75.793v-2.395h2.395"/><path class="k" d="m110.684,73.398h44.279"/><path class="j" d="m156.228,73.398h2.395v2.395"/><path class="m" d="m158.623,78.309v44.029"/><path class="v" d="m313.146,107.953c1.135-.03,2.079.865,2.109,2,.002.085,0,.169-.009.253.014.686-.177,1.36-.549,1.936l-.94-.578c.266-.379.409-.831.409-1.294.07-.542-.312-1.039-.854-1.109-.053-.007-.106-.009-.16-.008-.736,0-1.024.522-1.024,1.155v.531h-.68l-1.694-1.3h-.037v2.392l-1.08-.187v-3.5h.987l1.629,1.257h.028c.107-.932.929-1.615,1.865-1.548h0Z"/><path class="v" d="m315.25,104.739c0,1.434-1.145,2.326-3.351,2.326s-3.351-.892-3.351-2.326,1.145-2.327,3.351-2.327,3.351.894,3.351,2.327Zm-1.08,0c0-.642-.67-1.127-2.271-1.127s-2.271.485-2.271,1.127.67,1.126,2.271,1.126,2.271-.483,2.271-1.126Z"/><path class="v" d="m314.98,93.154c.182.427.274.886.27,1.35.052,1.256-.924,2.318-2.18,2.37-.095.004-.191.002-.286-.006-1.232.125-2.332-.772-2.457-2.004-.011-.104-.014-.209-.01-.313.001-.462.089-.92.26-1.35l.913.372c-.119.293-.179.606-.177.922,0,.689.6,1.2,1.471,1.2s1.47-.5,1.47-1.191c-.001-.334-.064-.666-.186-.977l.912-.373Z"/><path class="v" d="m312.336,88.386v.037l2.048.828v1.006l-2.048.838v.037l2.821.223v1.145l-4.747-.456v-1.219l2.532-1.052v-.037l-2.532-1.052v-1.22l4.747-.456v1.145l-2.821.233Z"/><path class="v" d="m97.081,108.642l3.974,2.3h.038v-1.218h-1.093v-1.164h1.089v-1.024l1.07.187v.837h1.441v1.164h-1.434v2.605h-.977l-4.105-2.391-.003-1.296Z"/><path class="v" d="m97.081,102.887l1.08.186v2.227h1.21c-.032-.153-.051-.309-.056-.466-.084-1.123.758-2.103,1.882-2.187.102-.008.204-.008.305,0,1.171-.039,2.152.878,2.191,2.049.002.068.001.136-.003.203.015.686-.177,1.36-.55,1.936l-.939-.576c.267-.381.409-.835.409-1.3.037-.579-.403-1.079-.982-1.116-.042-.003-.084-.003-.126,0-.623-.011-1.137.484-1.148,1.107,0,.037,0,.075.004.112.006.479.097.953.27,1.4h-3.546v-3.575Z"/><path class="v" d="m103.42,93.154c.182.427.274.886.27,1.35.052,1.257-.925,2.318-2.182,2.37-.095.004-.19.002-.285-.006-1.232.125-2.332-.773-2.456-2.005-.01-.104-.014-.208-.01-.312,0-.462.089-.92.26-1.35l.912.372c-.119.293-.179.606-.177.922,0,.689.6,1.2,1.471,1.2s1.471-.5,1.471-1.191c-.001-.334-.064-.666-.186-.977l.912-.373Z"/><path class="v" d="m100.776,88.386v.037l2.048.828v1.006l-2.048.838v.037l2.821.223v1.145l-4.748-.456v-1.219l2.532-1.052v-.037l-2.532-1.052v-1.22l4.748-.456v1.145l-2.821.233Z"/><path class="v" d="m173.381,110.218l9.419-28.177h4.307l9.419,28.177h-4.626l-2.013-6.561h-9.9l-1.972,6.561h-4.634Zm11.673-22.418h-.2l-3.743,12.116h7.648l-3.705-12.116Z"/><path class="v" d="m216.69,110.218h-4.19v-17.027h-7.769v17.027h-4.186v-20.529h16.145v20.529Z"/><path class="v" d="m220.713,89.689h17.387l-.806,3.5h-5.914v17.027h-4.145v-17.025h-6.522v-3.502Z"/><path class="v" d="m258.066,100.92h-13.041c.281,3.985,2.374,6.2,6.078,6.2,1.791-.061,3.542-.543,5.111-1.408l1.369,3.18c-2.123,1.118-4.483,1.711-6.883,1.73-6.038,0-9.983-3.943-9.983-10.666,0-6.763,3.7-10.667,9.258-10.667,5.515,0,8.453,3.22,8.453,8.251-.009,1.136-.13,2.268-.362,3.38Zm-12.881-3.261h9.5c0-2.817-1.529-4.87-4.629-4.87-2.777,0-4.509,1.972-4.871,4.87Z"/><path class="v" d="m273.481,99.591l6.8,10.627-4.267.4-5.917-9.3h-2.255v8.9h-4.182v-20.529h4.185v8.292h2.295l5.394-8.292h4.347l-6.4,9.902Z"/><path class="v" d="m294.41,98.143v-1.369c0-2.456-1.045-3.985-4.065-3.985-1.901.033-3.781.401-5.555,1.086l-1.208-3.26c2.313-.885,4.769-1.336,7.246-1.328,6.28,0,7.769,3.3,7.769,7.567v8.614c-.088.713.419,1.361,1.132,1.449.105.013.212.013.317,0h.443v3.1c-.777.267-1.593.402-2.415.4-1.514.088-2.879-.907-3.26-2.375h-.161c-1.494,1.6-3.613,2.468-5.8,2.375-3.9,0-6.36-1.932-6.36-6.117,0-3.906,3.22-6.159,7.769-6.159l4.148.002Zm-4.31,3.257c-2.013,0-3.462,1.127-3.462,2.979s1.369,2.736,3.019,2.736c1.896-.043,3.658-.984,4.749-2.535v-3.18h-4.306Z"/><path class="v" d="m122.791,73.398h18.7v52.764h-18.7v-52.764Z"/><path class="v" d="m105.759,109.129v-18.7h52.764v18.7h-52.764Z"/><path class="j" d="m204.095,81.495v2.396"/><path class="j" d="m204.095,86.931v2.395"/><path class="j" d="m204.095,1v2.395"/><path class="e" d="m204.095,5.837v72.042"/><path class="j" d="m204.095,79.1v2.395"/><path class="j" d="m407.98,99.828h-2.395"/><path class="l" d="m403.144,99.828h-93.958"/><path class="j" d="m307.966,99.828h-2.396"/><path class="j" d="m204.095,118.605v2.395"/><path class="i" d="m204.095,123.341v62.045"/><path class="j" d="m204.095,186.557v2.395"/><path class="j" d="m204.095,110.329v2.395"/><path class="j" d="m204.095,116.21v2.395"/></svg>