<svg xmlns="http://www.w3.org/2000/svg" xmlns:xlink="http://www.w3.org/1999/xlink" viewBox="0 0 1190.551 907.087"><defs><style>.a{fill:url(#a);}.b{fill:#fff;}</style><linearGradient id="a" x1="595.276" x2="595.276" y2="907.087" gradientUnits="userSpaceOnUse"><stop offset="0" stop-color="#222c54"/><stop offset="0.764" stop-color="#1e2649"/><stop offset="1" stop-color="#1c2344"/></linearGradient></defs><rect class="a" width="1190.551" height="907.087" rx="70.866"/><path class="b" d="M429.146,201.784c-28.35,0-55,9.639-79.947,24.948l-33.453-57.267c45.36-24.381,77.679-33.453,124.173-33.453,69.741,0,112.834,39.69,112.834,108.864,0,87.318-75.412,170.667-144.586,225.667v2.268H564.093l-11.34,65.772H308.942v-60.1c77.679-58.4,170.667-150.256,170.667-226.234C479.609,221.062,462.032,201.784,429.146,201.784Z"/><path class="b" d="M875.941,416.11c0,87.318-65.205,128.142-137.214,128.142-49.9,0-85.618-13.041-117.937-33.453l35.154-57.267c22.681,14.742,46.494,24.949,78.814,24.949,37.422,0,68.04-19.279,68.04-61.8,0-44.793-31.752-62.37-70.309-62.37H700.171V312.916l79.38-103.194v-2.268H633.831l11.341-65.772H858.364v60.1l-76.546,99.225v1.7C831.147,311.782,875.941,344.1,875.941,416.11Z"/><path class="b" d="M243.73,734.606H232.676v59.1H204.937V653h27.739V707.27h11.457L275.69,653h32.563l-41,67.537L312.474,793.7l-32.965,2.01Z"/><path class="b" d="M397.9,795.711c-42.814,0-60.3-30.552-60.3-72.361s17.487-72.362,60.3-72.362,60.3,30.553,60.3,72.362S440.71,795.711,397.9,795.711Zm0-117.386c-20.3,0-29.749,18.693-29.749,45.025s9.448,45.025,29.749,45.025,29.749-18.694,29.749-45.025S418.2,678.325,397.9,678.325Z"/><path class="b" d="M529.148,746.264V793.7H499.4V653h48.04c26.734,0,46.834,16.482,46.834,46.632s-20.1,46.633-46.834,46.633Zm16.884-27.336c9.85,0,17.488-7.237,17.488-19.3s-7.638-19.3-17.488-19.3H529.148v38.593Z"/><path class="b" d="M632.459,793.7V653H737.986V793.7H708.237V680.335H662.208V793.7Z"/><path class="b" d="M792.455,765.159a15.276,15.276,0,1,1-15.276,15.276A15.534,15.534,0,0,1,792.455,765.159Z"/><path class="b" d="M928.13,678.325c-9.447,0-18.693,3.216-27.337,8.241l-13.869-23.718c16.281-8.845,28.543-11.86,45.024-11.86,24.724,0,41.005,14.071,41.005,38.593,0,30.955-24.321,55.075-48.24,75.98v.8h51.858L972.552,793.7H884.109V768.375C911.647,747.671,943,719.129,943,692.194,943,683.752,937.979,678.325,928.13,678.325Z"/></svg>