<svg xmlns="http://www.w3.org/2000/svg" xmlns:xlink="http://www.w3.org/1999/xlink" viewBox="0 0 1358.56 1283.45"><defs><style>.a{fill:#fff;}.b{fill:url(#a);}.c,.i,.j,.l{fill:#38a032;}.c{opacity:0.17;}.d,.e{fill:#222c54;}.e,.f{opacity:0.5;}.g{fill:url(#b);}.h,.k{fill:#0bbbef;}.j{opacity:0.8;}.k,.l{opacity:0.3;}</style><linearGradient id="a" x1="678.83" y1="457.52" x2="678.83" y2="1222.88" gradientUnits="userSpaceOnUse"><stop offset="0" stop-color="#f2f2f2"/><stop offset="0.01" stop-color="#f1f1f1"/><stop offset="0.23" stop-color="#e4e4e4"/><stop offset="0.51" stop-color="#dbdbdb"/><stop offset="1" stop-color="#d9d9d9"/></linearGradient><linearGradient id="b" x1="679" y1="346.55" x2="679" gradientUnits="userSpaceOnUse"><stop offset="0" stop-color="#fff" stop-opacity="0.7"/><stop offset="0.03" stop-color="#fff" stop-opacity="0.72"/><stop offset="0.34" stop-color="#fff" stop-opacity="0.87"/><stop offset="0.6" stop-color="#fff" stop-opacity="0.96"/><stop offset="0.75" stop-color="#fff"/></linearGradient></defs><rect class="a" x="83.55" y="457.52" width="1190.55" height="765.35" rx="70.87"/><rect class="b" x="83.55" y="457.52" width="1190.55" height="765.35" rx="70.87"/><rect class="c" x="169.01" y="570.21" width="1019.95" height="113.4"/><rect class="c" x="169.01" y="767.55" width="1019.95" height="86.32"/><path class="d" d="M225.71,570.21h22l-33.54,89.1c-5.34,14.1-13.61,25.92-29.16,25.92a29,29,0,0,1-18.14-5.67l9.88-16c2.59,1.94,4.54,2.91,7.45,2.91,3.24,0,7-3.08,10.21-11l2.27-5.67h-6.48l-35-79.55H178.9l24.94,58.48h.49Z"/><path class="d" d="M275.12,570.21h66.59v113.4H321V589H295.05c0,58.65-7.78,95.42-33.21,95.42a29.66,29.66,0,0,1-11.66-2.26l3.88-17.82a15.78,15.78,0,0,0,5.19,1c10.85,0,15.87-22.36,15.87-90.72Z"/><path class="d" d="M378.32,662.23a11.5,11.5,0,1,1-11.51,11.5A11.55,11.55,0,0,1,378.32,662.23Z"/><path class="d" d="M521.93,609.58h-.49L502,668.71H480.78l-19.6-59.13h-.49l-6.8,74H433.15l10.53-113.4h23.17l24.3,72.9h.48l24.3-72.9H539.1l10.53,113.4H528.89Z"/><path class="d" d="M644.72,608.44h-.48l-50.55,75.17H576.36V570.21h20.73v75.33h.49l50.54-75.33h17.34v113.4H644.72Z"/><path class="d" d="M717.78,643.76v39.85H697.05V570.21h37.1c21.54,0,37.74,12.48,37.74,36.78s-16.2,36.77-37.74,36.77Zm0-54.76v36h16c9.88,0,16.53-6.64,16.53-18s-6.65-18-16.53-18Z"/><path class="d" d="M850.14,658.83h-36l-7.45,24.78H784.85l37.91-113.4h19l37.91,113.4H857.75Zm-30.46-18.31h25l-12.15-41.15h-.65Z"/><path class="d" d="M215.22,842.94H202.41l-17.33-52h-.48l-5.86,63.2H165.57l7.92-85.4h16.23l18.91,56.12H209l18.9-56.12h16.23l7.93,85.4H238.88L233,791h-.49Z"/><path class="d" d="M270.36,854.17V842.46h14v-62h-14V768.77h41.85l-2.44,11.71h-12.2v62h14v11.71Z"/><path class="d" d="M386.26,794.15c0,13.17-7.32,21.1-17.69,23.91l22.32,36.11-14.27,1.22L354.3,819.28h-7.57v34.89H333.56v-85.4h26C374.3,768.77,386.26,777.43,386.26,794.15Zm-39.53-13.67v27.08h12.2c7.81,0,13.67-4.87,13.67-13.41s-5.86-13.67-13.67-13.67Z"/><path class="d" d="M400.66,854.17l28.54-85.4h13.06l28.54,85.4h-14l-6.11-19.89h-30l-6,19.89ZM436,786.22h-.61l-11.35,36.72h23.18Z"/><path class="d" d="M561.45,832.09c0-8.42-8.17-13.06-17.57-16.72-11-4.27-23.54-10.49-23.54-24.64,0-14.64,10.37-23.18,27.69-23.18,9.88,0,17.2,2.68,24.4,6.59l-6.22,10.37c-5.37-3.17-10.37-5.25-18.18-5.25-9.27,0-14,3.78-14,10.74s8.42,11.47,15.86,14.39c13.42,5.25,25.25,11.1,25.25,27,0,15.13-10.61,24-29.76,24-11.72,0-19-2.69-27-7.57l7-10.73a31.83,31.83,0,0,0,20,6.59C554.86,843.68,561.45,840,561.45,832.09Z"/><path class="d" d="M625.86,780.48v73.69H612.69V780.48H587.31V768.77h64.05l-2.44,11.71Z"/><path class="d" d="M721.14,794.15c0,13.17-7.32,21.1-17.69,23.91l22.33,36.11-14.27,1.22-22.33-36.11h-7.56v34.89H668.44v-85.4h26C709.19,768.77,721.14,777.43,721.14,794.15Zm-39.52-13.67v27.08h12.2c7.8,0,13.66-4.87,13.66-13.41s-5.86-13.67-13.66-13.67Z"/><path class="d" d="M744.08,854.17v-85.4h48.31L790,780.48H757.26v23.67h29v11.71h-29v26.6h35.13v11.71Z"/><path class="d" d="M815.57,854.17v-85.4h48.31l-2.44,11.71H828.75v23.67h29v11.71h-29v26.6h35.13v11.71Z"/><path class="d" d="M917.08,780.48v73.69H903.9V780.48H878.53V768.77h64l-2.44,11.71Z"/><path class="e" d="M577.39-425.2H848.32a0,0,0,0,1,0,0V765.35a0,0,0,0,1,0,0H577.39a69.23,69.23,0,0,1-69.23-69.23V-356A69.23,69.23,0,0,1,577.39-425.2Z" transform="translate(508.16 848.32) rotate(-90)"/><g class="f"><path class="a" d="M327.28,167.67h-11v59.09H288.49V86.06h27.74v54.27h11.46l31.55-54.27h32.57l-41,67.54L396,226.76l-33,2Z"/><path class="a" d="M481.45,228.77c-42.82,0-60.3-30.55-60.3-72.36s17.48-72.36,60.3-72.36,60.3,30.55,60.3,72.36S524.26,228.77,481.45,228.77Zm0-117.38c-20.3,0-29.75,18.69-29.75,45s9.45,45,29.75,45,29.75-18.7,29.75-45S501.75,111.39,481.45,111.39Z"/><path class="a" d="M612.7,179.33v47.43H583V86.06h48c26.74,0,46.84,16.48,46.84,46.63s-20.1,46.64-46.84,46.64ZM629.59,152c9.84,0,17.48-7.24,17.48-19.3s-7.64-19.29-17.48-19.29H612.7V152Z"/><path class="a" d="M716,226.76V86.06H821.54v140.7H791.79V113.4h-46V226.76Z"/><path class="a" d="M876,198.22a15.28,15.28,0,1,1-15.28,15.28A15.53,15.53,0,0,1,876,198.22Z"/><path class="a" d="M1011.68,111.39c-9.44,0-18.69,3.21-27.33,8.24L970.48,95.91c16.28-8.85,28.54-11.86,45-11.86,24.72,0,41,14.07,41,38.59,0,31-24.33,55.08-48.24,76v.81h51.85l-4,27.33H967.66V201.44c27.54-20.71,58.9-49.25,58.9-76.18C1026.56,116.81,1021.53,111.39,1011.68,111.39Z"/></g><rect class="g" x="77.82" width="1202.36" height="346.55"/><path class="h" d="M120,428.43c0,5.39-3.85,7.91-8.3,7.91a12.26,12.26,0,0,1-7.1-2.06l1.78-2.94A8.47,8.47,0,0,0,111.5,433c2.69,0,4.72-1.4,4.72-4.51,0-3.26-2.1-4.55-4.86-4.55h-1.82V422l5.25-7v-.14h-9.35l.7-3.36H119v3l-5,6.65v.11C117.24,421.82,120,423.71,120,428.43Z"/><path class="h" d="M131.55,436.34c-5.39,0-8.57-4.3-8.57-12.6s3.18-12.6,8.57-12.6,8.58,4.31,8.58,12.6S137,436.34,131.55,436.34Zm0-3.36c2.8,0,4.77-2.73,4.77-9.24s-2-9.24-4.77-9.24-4.76,2.73-4.76,9.24S128.75,433,131.55,433Z"/><path class="h" d="M33.37,501.1l-8.75,15.3v.14h5.57v-4.45h3.67v4.45h4l-.7,3.32H33.86v5.74H30.19v-5.74h-10v-3l9-15.79Z"/><path class="h" d="M47.83,526c-5.39,0-8.58-4.3-8.58-12.6s3.19-12.6,8.58-12.6,8.57,4.31,8.57,12.6S53.22,526,47.83,526Zm0-3.36c2.8,0,4.76-2.73,4.76-9.24s-2-9.24-4.76-9.24-4.76,2.73-4.76,9.24S45,522.59,47.83,522.59Z"/><path class="h" d="M36.31,732.54c0,5.39-3.85,7.91-8.29,7.91a12.32,12.32,0,0,1-7.11-2.06l1.79-2.94a8.44,8.44,0,0,0,5.07,1.64c2.7,0,4.73-1.4,4.73-4.51S30.4,728,27.63,728H25.81v-1.89l5.25-7V719H21.72l.7-3.36H35.23v3l-5,6.65v.11C33.51,725.93,36.31,727.82,36.31,732.54Z"/><path class="h" d="M47.83,740.45c-5.39,0-8.58-4.3-8.58-12.6s3.19-12.6,8.58-12.6,8.57,4.31,8.57,12.6S53.22,740.45,47.83,740.45Zm0-3.36c2.8,0,4.76-2.73,4.76-9.24s-2-9.24-4.76-9.24-4.76,2.73-4.76,9.24S45,737.09,47.83,737.09Z"/><path class="h" d="M12.65,1027.62v21.15h5.67v3.36H2.57v-3.36H9V1031H3.1l.7-3.36Z"/><path class="h" d="M36.31,1044.57c0,5.39-3.85,7.91-8.29,7.91a12.32,12.32,0,0,1-7.11-2.07l1.79-2.94a8.45,8.45,0,0,0,5.07,1.65c2.7,0,4.73-1.4,4.73-4.52s-2.1-4.55-4.87-4.55H25.81v-1.89l5.25-7V1031H21.72l.7-3.36H35.23v3l-5,6.65v.11C33.51,1038,36.31,1039.84,36.31,1044.57Z"/><path class="h" d="M47.83,1052.48c-5.39,0-8.58-4.31-8.58-12.6s3.19-12.61,8.58-12.61,8.57,4.31,8.57,12.61S53.22,1052.48,47.83,1052.48Zm0-3.36c2.8,0,4.76-2.73,4.76-9.24s-2-9.25-4.76-9.25-4.76,2.73-4.76,9.25S45,1049.12,47.83,1049.12Z"/><path class="h" d="M1229.29,428.43c0,5.39-3.86,7.91-8.3,7.91a12.32,12.32,0,0,1-7.11-2.06l1.79-2.94a8.44,8.44,0,0,0,5.07,1.64c2.7,0,4.73-1.4,4.73-4.51,0-3.26-2.1-4.55-4.87-4.55h-1.82V422l5.25-7v-.14h-9.34l.7-3.36h12.81v3l-5,6.65v.11C1226.49,421.82,1229.29,423.71,1229.29,428.43Z"/><path class="h" d="M1240.8,436.34c-5.39,0-8.58-4.3-8.58-12.6s3.19-12.6,8.58-12.6,8.58,4.31,8.58,12.6S1246.19,436.34,1240.8,436.34Zm0-3.36c2.8,0,4.76-2.73,4.76-9.24s-2-9.24-4.76-9.24-4.76,2.73-4.76,9.24S1238,433,1240.8,433Z"/><path class="h" d="M664.86,1252.56l-8.75,15.29v.14h5.57v-4.44h3.67V1268h4l-.7,3.33h-3.33v5.74h-3.67v-5.74h-10v-3l9-15.78Z"/><path class="h" d="M677,1273.7h10l-.7,3.36h-14.7v-3c4.79-3.61,10.88-10,10.88-14.67,0-2.34-1.15-3.81-3.64-3.81a9.54,9.54,0,0,0-5.14,1.64l-1.68-2.94a14,14,0,0,1,7.49-2.06c4.3,0,6.79,2.45,6.79,6.72,0,5.39-5,11.23-9.28,14.63Z"/><path class="h" d="M698.18,1277.41c-5.39,0-8.57-4.31-8.57-12.6s3.18-12.6,8.57-12.6,8.58,4.3,8.58,12.6S703.57,1277.41,698.18,1277.41Zm0-3.36c2.8,0,4.76-2.73,4.76-9.24s-2-9.24-4.76-9.24-4.76,2.73-4.76,9.24S695.38,1274.05,698.18,1274.05Z"/><path class="h" d="M1306.55,845.08h10l-.7,3.36h-14.7v-3c4.8-3.6,10.89-10,10.89-14.66,0-2.35-1.16-3.82-3.64-3.82a9.6,9.6,0,0,0-5.15,1.64l-1.68-2.94a14,14,0,0,1,7.49-2.06c4.31,0,6.79,2.45,6.79,6.72,0,5.39-5,11.24-9.27,14.63Z"/><path class="h" d="M1331.68,827.3h-12l.7-3.36h15.22v3L1327,848.44h-4Z"/><path class="h" d="M1346.55,848.79c-5.39,0-8.57-4.3-8.57-12.6s3.18-12.6,8.57-12.6,8.58,4.31,8.58,12.6S1351.94,848.79,1346.55,848.79Zm0-3.36c2.8,0,4.76-2.73,4.76-9.24s-2-9.24-4.76-9.24-4.76,2.73-4.76,9.24S1343.75,845.43,1346.55,845.43Z"/><path class="i" d="M33.37,613.83l-8.75,15.29v.14h5.57v-4.44h3.67v4.44h4l-.7,3.33H33.86v5.74H30.19v-5.74h-10v-3l9-15.78Z"/><path class="i" d="M47.83,638.68c-5.39,0-8.58-4.31-8.58-12.6s3.19-12.6,8.58-12.6,8.57,4.3,8.57,12.6S53.22,638.68,47.83,638.68Zm0-3.36c2.8,0,4.76-2.73,4.76-9.24s-2-9.24-4.76-9.24-4.76,2.73-4.76,9.24S45,635.32,47.83,635.32Z"/><path class="i" d="M36.31,818.1c0,5.39-3.85,7.91-8.29,7.91A12.32,12.32,0,0,1,20.91,824L22.69,821a8.47,8.47,0,0,0,5.08,1.64c2.7,0,4.73-1.4,4.73-4.52s-2.1-4.55-4.87-4.55H25.81v-1.89l5.25-7v-.14H21.71l.7-3.36H35.23v3l-5,6.65v.1C33.51,811.48,36.31,813.37,36.31,818.1Z"/><path class="i" d="M47.83,826c-5.39,0-8.58-4.3-8.58-12.6s3.19-12.6,8.58-12.6,8.57,4.3,8.57,12.6S53.22,826,47.83,826Zm0-3.36c2.8,0,4.76-2.73,4.76-9.24s-2-9.24-4.76-9.24-4.76,2.73-4.76,9.24S45,822.65,47.83,822.65Z"/><path class="i" d="M963.92,604.78v-3h2.83v-12h-2.83v-3H973l-.51,3H970v12h2.82v3Z"/><path class="i" d="M975.59,595.12c0-2.19,1.77-3.7,4.65-3.7a10.19,10.19,0,0,1,4.27.9l-1.08,2.49a8.44,8.44,0,0,0-3-.64c-1.13,0-1.64.41-1.64,1.05,0,.8.77,1.18,2.08,1.62,1.92.64,3.95,1.64,3.95,4.24,0,2.39-2,3.95-4.95,3.95a10,10,0,0,1-4.55-.95l1.1-2.56a8.34,8.34,0,0,0,3.34.77c1.11,0,1.88-.49,1.88-1.21,0-1-1.26-1.49-2.57-2C977.52,598.53,975.59,597.53,975.59,595.12Z"/><path class="i" d="M996.79,601.44l1.1,2.49a10.15,10.15,0,0,1-4.52,1.1c-3.85,0-6.5-2.51-6.5-6.8s2.31-6.81,6-6.81c3.42,0,5.55,2.13,5.55,5.8a17.79,17.79,0,0,1-.15,2h-8.17a3.38,3.38,0,0,0,3.42,3.09A7.84,7.84,0,0,0,996.79,601.44Zm-1.26-4.68a2.43,2.43,0,0,0-2.6-2.59,2.8,2.8,0,0,0-2.77,2.59Z"/><path class="i" d="M1009.38,604.57a9.27,9.27,0,0,1-2.85.46c-2.37,0-4.29-1.07-4.29-4.13v-6.48H1000v-2.75h2.26v-3.54l3.18-.52v4.06h3.68l-.52,2.75h-3.16v6.48c0,1,.41,1.39,1.42,1.39a7.23,7.23,0,0,0,2-.34Z"/><path class="i" d="M1022.87,596.84c-2.31-.9-5-2.52-5-5.5s2.31-4.81,6-4.81a10.74,10.74,0,0,1,5.27,1.39l-1.57,2.62a7,7,0,0,0-3.7-1c-1.62,0-2.57.56-2.57,1.67,0,1.31,1.57,2.28,3.06,2.87,2.82,1.11,5.34,2.5,5.34,5.84,0,3.18-2.36,5.13-6.4,5.13a10.22,10.22,0,0,1-5.8-1.59l1.77-2.67a6.64,6.64,0,0,0,4,1.28c1.72,0,3-.77,3-2.1C1026.29,598.33,1024.77,597.58,1022.87,596.84Z"/><path class="i" d="M1039.21,596.2c0-1.26-.64-2-2.21-2a10.34,10.34,0,0,0-3.49.69l-1-2.57a13.1,13.1,0,0,1,4.75-.87c4,0,5.09,2.1,5.09,4.83v5a.83.83,0,0,0,.93.93h.28v2.49a6.13,6.13,0,0,1-1.83.26,2.34,2.34,0,0,1-2.31-1.26h-.1a4.43,4.43,0,0,1-3.44,1.26c-2.5,0-4.07-1.24-4.07-3.91s2-3.93,4.91-3.93h2.44Zm0,4.8v-1.49h-2.33c-1.19,0-1.85.59-1.85,1.44a1.3,1.3,0,0,0,1.41,1.34A3.71,3.71,0,0,0,1039.21,601Z"/><path class="i" d="M1049.36,604.78h-3.18V591.67h2.41l.52,1.13h.1a5,5,0,0,1,3.47-1.38c2.75,0,4.29,1.72,4.29,5.16v8.2h-3.19v-7.92c0-1.82-.69-2.69-1.9-2.69a3.55,3.55,0,0,0-2.52,1.54Z"/><path class="i" d="M1060,595.12c0-2.19,1.78-3.7,4.65-3.7a10.19,10.19,0,0,1,4.27.9l-1.08,2.49a8.39,8.39,0,0,0-3-.64c-1.13,0-1.64.41-1.64,1.05,0,.8.77,1.18,2.08,1.62,1.93.64,4,1.64,4,4.24,0,2.39-2,3.95-5,3.95a10,10,0,0,1-4.55-.95l1.11-2.56a8.3,8.3,0,0,0,3.34.77c1.1,0,1.87-.49,1.87-1.21,0-1-1.26-1.49-2.57-2C1061.88,598.53,1060,597.53,1060,595.12Z"/><path class="i" d="M1092.25,593h-.07l-3.09,9.38h-3.36l-3.11-9.38h-.08l-1.08,11.75h-3.29l1.67-18h3.68l3.85,11.56h.08l3.85-11.56H1095l1.67,18h-3.29Z"/><path class="i" d="M1109.14,601.44l1.1,2.49a10.15,10.15,0,0,1-4.52,1.1c-3.86,0-6.5-2.51-6.5-6.8s2.31-6.81,6-6.81c3.42,0,5.55,2.13,5.55,5.8a17.79,17.79,0,0,1-.15,2h-8.18a3.4,3.4,0,0,0,3.42,3.09A7.85,7.85,0,0,0,1109.14,601.44Zm-1.26-4.68a2.43,2.43,0,0,0-2.6-2.59,2.8,2.8,0,0,0-2.77,2.59Z"/><path class="i" d="M1121.86,603.65a4.87,4.87,0,0,1-3.4,1.38c-3.7,0-5.37-2.85-5.37-6.8s1.7-6.81,5.61-6.81a9.3,9.3,0,0,1,3,.48V586l3.19-.51v19.27h-2.42l-.51-1.13Zm-5.53-5.42c0,2.39,1,4.06,2.91,4.06a3.44,3.44,0,0,0,2.46-1.29v-6.14a5,5,0,0,0-2.57-.69C1117.41,594.17,1116.33,595.66,1116.33,598.23Z"/><path class="i" d="M1127.33,594.42l.51-2.75h4.83v13.11h-3.18V594.42Zm3.75-8.4a1.85,1.85,0,0,1,1.9,1.85,1.83,1.83,0,0,1-1.9,1.82,1.81,1.81,0,0,1-1.87-1.82A1.83,1.83,0,0,1,1131.08,586Z"/><path class="i" d="M1144.06,591.67h3.18v13.11h-2.41l-.51-1.13h-.11a5.51,5.51,0,0,1-3.65,1.38c-2.57,0-4.49-1.69-4.49-5.37v-8h3.18v8c0,1.83.9,2.63,2.11,2.63a3.86,3.86,0,0,0,2.7-1.55Z"/><path class="i" d="M1160.22,592.86a6.15,6.15,0,0,1,4-1.44c2.75,0,4.34,1.72,4.34,5.16v8.2h-3.18v-7.92c0-1.82-.7-2.69-1.91-2.69a3.29,3.29,0,0,0-2.15,1.1v9.51h-3.19v-7.92c0-1.82-.64-2.69-1.75-2.69a3.21,3.21,0,0,0-2.31,1.54v9.07h-3.19V591.67h2.42l.51,1.13h.1a4.68,4.68,0,0,1,3.29-1.38A3.84,3.84,0,0,1,1160.22,592.86Z"/><path class="j" d="M969.16,622.5l5.66-7.71h2.57l-6.14,8.51,6.68,9.48-2.52.25-6.25-8.58h-1.95v8.33H965v-18h2.26v7.71Z"/><path class="j" d="M981.47,626.84c.21,2.85,1.55,4.47,4.14,4.47a6.92,6.92,0,0,0,3.37-.92l.74,1.54a8.93,8.93,0,0,1-4.37,1.1c-3.65,0-6.14-2.51-6.14-6.8,0-4.06,2.08-6.81,5.78-6.81,3.52,0,5.27,2.05,5.27,5.26a10.6,10.6,0,0,1-.23,2.16Zm0-1.57h6.76a3.82,3.82,0,0,0,0-.59c0-2-1.08-3.54-3.21-3.54S981.6,622.83,981.47,625.27Z"/><path class="j" d="M1001.77,619.67l-.51,1.73H996v11.38h-2.16V619.67Z"/><path class="j" d="M1013.9,619.67v13.11h-2.16V621.4h-4v1.07c0,7-1.16,10.44-3.94,10.44a3.63,3.63,0,0,1-1.72-.47l.62-1.67a1.65,1.65,0,0,0,1,.31c1.36,0,2-2.54,2-9.22v-2.19Z"/><path class="j" d="M1023.26,624.45c2.82,0,4.67,1.54,4.67,4.19s-1.85,4.14-4.67,4.14h-5V619.67h2.16v4.78Zm-2.83,1.72v4.89H1023c1.67,0,2.72-.9,2.72-2.44s-1-2.45-2.72-2.45Z"/><path class="j" d="M1044.33,614.79v16h4.29v2h-11.31v-2h4.84V616.74h-4.45l.51-2Z"/><path class="j" d="M1054.38,623a4.73,4.73,0,0,1,3.47-1.44c2.9,0,5,2.08,5,5.71a5.36,5.36,0,0,1-5.73,5.72c-3.62,0-5.7-2.72-5.7-6.75a12.41,12.41,0,0,1,9.15-11.75l.74,1.57c-3.08,1.11-6,3.42-7,6.89Zm2.77,8c2.06,0,3.45-1.31,3.45-3.77s-1.39-3.76-3.45-3.76a3.94,3.94,0,0,0-3.49,2.73C1053.66,629.15,1054.84,631.08,1057.15,631.08Z"/><path class="j" d="M1071.16,616.49a7.87,7.87,0,0,0-3.93,1.28l-1-1.72a10.17,10.17,0,0,1,5.37-1.52c3.16,0,4.85,1.8,4.85,4.94,0,4.31-4.24,8.79-7.32,11.25v.1H1077l-.52,2H1066v-1.7c3.62-2.82,8.25-7.42,8.25-11.41C1074.22,617.64,1073.34,616.49,1071.16,616.49Z"/><path class="j" d="M1097.6,632.78h-2.16V621.4h-5.73v11.38h-2.16V619.67h10Z"/><path class="j" d="M1100.43,619.67h10.84l-.51,1.73h-3.91v11.38h-2.13V621.4h-4.29Z"/><path class="j" d="M970.89,644.74v16h-2.27v-16h-5.47v-2h13.24l-.52,2Z"/><path class="j" d="M978.54,660.11v5.81l-2.15.51V647.67h1.38l.52,1.65h.1a5.16,5.16,0,0,1,4.11-1.9c3.37,0,5.17,2.77,5.17,6.81s-1.62,6.8-5.53,6.8A7,7,0,0,1,978.54,660.11Zm6.92-5.88c0-3-1.26-5.09-3.63-5.09a4.44,4.44,0,0,0-3.29,2v7a5.36,5.36,0,0,0,3.29,1.18C984.2,659.31,985.46,657.46,985.46,654.23Z"/><path class="j" d="M992.76,654.84c.2,2.85,1.54,4.47,4.13,4.47a6.92,6.92,0,0,0,3.37-.92l.74,1.54a8.89,8.89,0,0,1-4.36,1.1c-3.65,0-6.15-2.51-6.15-6.8,0-4.06,2.09-6.81,5.79-6.81,3.52,0,5.26,2.05,5.26,5.26a10.6,10.6,0,0,1-.23,2.16Zm0-1.57h6.75a3.82,3.82,0,0,0,0-.59c0-2-1.08-3.54-3.21-3.54S992.88,650.83,992.76,653.27Z"/><path class="j" d="M1007.3,654.89v5.89h-2.16V647.67h2.16v5.5h1.85l3.78-5.5h2.31L1010.9,654l4.6,6.79-2.21.25-4.17-6.14Z"/><path class="j" d="M1018.07,660.78V647.67h2.16v9.43h.1l6.81-9.43H1029v13.11h-2.16V651.3h-.1l-6.81,9.48Z"/><path class="j" d="M1043.63,660.78h-2.15v-5.89h-5.94v5.89h-2.16V647.67h2.16v5.5h5.94v-5.5h2.15Z"/><path class="j" d="M1055.92,647.67l-.52,1.73h-5.24v11.38H1048V647.67Z"/><path class="j" d="M1069.72,644.49a7.87,7.87,0,0,0-3.93,1.28l-1-1.72a10.17,10.17,0,0,1,5.37-1.52c3.16,0,4.85,1.8,4.85,4.94,0,4.31-4.24,8.79-7.32,11.25v.1h7.84l-.52,2h-10.53v-1.7c3.62-2.82,8.25-7.42,8.25-11.41C1072.78,645.64,1071.9,644.49,1069.72,644.49Z"/><path class="j" d="M1090,655.05c0,4-2.52,6-5.89,6a8.72,8.72,0,0,1-5.16-1.51l1-1.72a6.55,6.55,0,0,0,4,1.28c2.16,0,3.78-1.33,3.78-4a3.75,3.75,0,0,0-4.06-4,12.22,12.22,0,0,0-3.67.67v-8.89h9.35l-.52,2h-6.65v4.63a9.87,9.87,0,0,1,2.06-.21C1087.55,649.16,1090,651.19,1090,655.05Z"/><path class="i" d="M964.05,790.88v-2.47h3v-13h-3v-2.47h8.81l-.51,2.47h-2.57v13h3v2.47Z"/><path class="i" d="M980.63,783.09c1.9.54,4.06,1.67,4.06,4.09s-1.88,4-4.83,4a10.83,10.83,0,0,1-4.42-.9l.89-2.1a8.66,8.66,0,0,0,3.45.77c1.51,0,2.23-.62,2.23-1.6,0-1.33-1.31-1.8-2.77-2.23s-3.52-1.47-3.52-4c0-2.31,1.82-3.55,4.57-3.55a9.69,9.69,0,0,1,4.09.9l-.88,2a8.23,8.23,0,0,0-3-.67c-1.41,0-2.08.54-2.08,1.44C978.39,782.29,979.21,782.68,980.63,783.09Z"/><path class="i" d="M998.07,784.94h-8.32c.18,2.54,1.51,4,3.88,4a7.24,7.24,0,0,0,3.26-.9l.88,2a9.64,9.64,0,0,1-4.4,1.1c-3.85,0-6.37-2.52-6.37-6.81s2.36-6.81,5.91-6.81,5.39,2.06,5.39,5.27A10.6,10.6,0,0,1,998.07,784.94Zm-8.22-2.08h6.06a2.79,2.79,0,0,0-2.95-3.11C991.19,779.75,990.08,781,989.85,782.86Z"/><path class="i" d="M1009.25,790.67a8.92,8.92,0,0,1-2.8.46c-2.36,0-4.11-1.08-4.11-4.13v-7h-2.24v-2.24h2.24v-3.55l2.67-.51v4.06h4l-.51,2.24H1005v7.11a1.58,1.58,0,0,0,1.75,1.78,7.35,7.35,0,0,0,2.11-.36Z"/><path class="i" d="M1026.67,786.22c0-1.77-1.72-2.74-3.7-3.52-2.31-.9-5-2.21-5-5.19s2.18-4.88,5.83-4.88A10.23,10.23,0,0,1,1029,774l-1.31,2.18a6.87,6.87,0,0,0-3.83-1.1c-2,0-3,.8-3,2.26s1.78,2.41,3.34,3c2.83,1.11,5.32,2.34,5.32,5.68,0,3.19-2.23,5.06-6.27,5.06a9.82,9.82,0,0,1-5.68-1.59l1.47-2.26a6.7,6.7,0,0,0,4.21,1.39C1025.29,788.67,1026.67,787.9,1026.67,786.22Z"/><path class="i" d="M1039.6,783.17v-.88c0-1.56-.67-2.54-2.6-2.54a10.49,10.49,0,0,0-3.54.69l-.77-2.08a12.92,12.92,0,0,1,4.62-.85c4,0,5,2.11,5,4.83v5.5a.83.83,0,0,0,.93.93h.28v2a4.87,4.87,0,0,1-1.54.25,2,2,0,0,1-2.08-1.51h-.11a4.78,4.78,0,0,1-3.7,1.51c-2.49,0-4.06-1.23-4.06-3.9,0-2.49,2.06-3.93,5-3.93Zm-2.75,2.08a2,2,0,0,0-2.21,1.9,1.72,1.72,0,0,0,1.93,1.75,3.83,3.83,0,0,0,3-1.62v-2Z"/><path class="i" d="M1049,790.88h-2.67V777.77h1.9l.51,1.39h.11a4.7,4.7,0,0,1,3.7-1.65c2.92,0,4.31,1.72,4.31,5.17v8.2h-2.67v-8c0-2.16-.74-3.11-2.29-3.11a4.1,4.1,0,0,0-2.9,1.82Z"/><path class="i" d="M1065,783.09c1.9.54,4.06,1.67,4.06,4.09s-1.88,4-4.83,4a10.83,10.83,0,0,1-4.42-.9l.9-2.1a8.57,8.57,0,0,0,3.44.77c1.52,0,2.24-.62,2.24-1.6,0-1.33-1.31-1.8-2.78-2.23s-3.52-1.47-3.52-4c0-2.31,1.83-3.55,4.57-3.55a9.69,9.69,0,0,1,4.09.9l-.87,2a8.32,8.32,0,0,0-3-.67c-1.41,0-2.08.54-2.08,1.44C1062.75,782.29,1063.58,782.68,1065,783.09Z"/><path class="i" d="M1090.17,778.23a4.84,4.84,0,0,1-3.72,5l4.7,7.61-3,.25-4.7-7.6h-1.59v7.35h-2.78v-18h5.47C1087.65,772.89,1090.17,774.71,1090.17,778.23Zm-8.32-2.87v5.7h2.57a2.68,2.68,0,0,0,2.87-2.83,2.71,2.71,0,0,0-2.87-2.87Z"/><path class="i" d="M1103.77,784.94h-8.33c.18,2.54,1.52,4,3.88,4a7.24,7.24,0,0,0,3.26-.9l.88,2a9.64,9.64,0,0,1-4.4,1.1c-3.85,0-6.37-2.52-6.37-6.81s2.36-6.81,5.91-6.81,5.4,2.06,5.4,5.27A11.36,11.36,0,0,1,1103.77,784.94Zm-8.23-2.08h6.07a2.8,2.8,0,0,0-3-3.11C1096.88,779.75,1095.77,781,1095.54,782.86Z"/><path class="i" d="M1112.32,786.71a7.2,7.2,0,0,1-2.21-.31,1.1,1.1,0,0,0-.41.8c0,.57.31.95,1,1.08l3.67.59c1.67.28,3.81,1.16,3.81,3.6,0,2.8-2.57,4.06-5.94,4.06-3.78,0-5.83-1.34-5.83-3.65a3.56,3.56,0,0,1,1.75-3,2.26,2.26,0,0,1-1-2,2.92,2.92,0,0,1,1.34-2.26,4.29,4.29,0,0,1-1.54-3.47c0-2.88,2.13-4.6,5.34-4.6a7,7,0,0,1,2.57.47l4.09-1-.52,2.49h-1.56a4.58,4.58,0,0,1,.77,2.62C1117.67,785,1115.54,786.71,1112.32,786.71Zm-3.44,5.71c0,1.15,1,1.87,3.39,1.87s3.21-.77,3.21-1.77-.69-1.29-2.08-1.52l-3.31-.51A2.21,2.21,0,0,0,1108.88,792.42Zm.69-10.31c0,1.39.9,2.42,2.75,2.42s2.75-1,2.75-2.42-.9-2.41-2.75-2.41S1109.57,780.73,1109.57,782.11Z"/><path class="i" d="M1129.41,777.77h2.67v13.11h-1.9l-.51-1.39h-.1a5.12,5.12,0,0,1-3.88,1.64c-2.8,0-4.53-1.64-4.53-5.34v-8h2.68v8c0,2.16,1,3.11,2.49,3.11a4.39,4.39,0,0,0,3.08-1.83Z"/><path class="i" d="M1141.59,790.75a5.8,5.8,0,0,1-2.18.38c-2.19,0-3.34-1.13-3.34-3.65V772.12l2.67-.52v15.88c0,1,.39,1.42,1.11,1.42a3.45,3.45,0,0,0,1.33-.26Z"/><path class="i" d="M1150.61,783.17v-.88c0-1.56-.67-2.54-2.59-2.54a10.5,10.5,0,0,0-3.55.69l-.77-2.08a13,13,0,0,1,4.62-.85c4,0,5,2.11,5,4.83v5.5a.83.83,0,0,0,.93.93h.28v2a4.82,4.82,0,0,1-1.54.25,2,2,0,0,1-2.08-1.51h-.1a4.79,4.79,0,0,1-3.7,1.51c-2.5,0-4.06-1.23-4.06-3.9,0-2.49,2-3.93,5-3.93Zm-2.75,2.08a2,2,0,0,0-2.21,1.9,1.73,1.73,0,0,0,1.93,1.75,3.83,3.83,0,0,0,3-1.62v-2Z"/><path class="i" d="M1164,780.26a3.2,3.2,0,0,0-1.36-.25c-1.39,0-2.39,1.41-2.62,3v7.84h-2.67V777.77h1.9l.51,2h.11a3.4,3.4,0,0,1,3.34-2.29,6,6,0,0,1,1.67.26Z"/><path class="j" d="M969.16,808.6l5.66-7.71h2.57l-6.14,8.5,6.68,9.49-2.52.25-6.25-8.58h-1.95v8.33H965v-18h2.26v7.71Z"/><path class="j" d="M981.47,812.94c.21,2.85,1.55,4.47,4.14,4.47a7,7,0,0,0,3.37-.92l.74,1.54a8.93,8.93,0,0,1-4.37,1.1c-3.65,0-6.14-2.52-6.14-6.81,0-4.06,2.08-6.81,5.78-6.81,3.52,0,5.27,2.06,5.27,5.27a10.6,10.6,0,0,1-.23,2.16Zm0-1.57h6.76a3.82,3.82,0,0,0,0-.59c0-2-1.08-3.55-3.21-3.55S981.6,808.93,981.47,811.37Z"/><path class="j" d="M1001.77,805.77l-.51,1.72H996v11.39h-2.16V805.77Z"/><path class="j" d="M1013.9,805.77v13.11h-2.16V807.49h-4v1.08c0,7-1.16,10.43-3.94,10.43a3.63,3.63,0,0,1-1.72-.46l.62-1.67a1.65,1.65,0,0,0,1,.31c1.36,0,2-2.54,2-9.23v-2.18Z"/><path class="j" d="M1023.26,810.55c2.82,0,4.67,1.54,4.67,4.19s-1.85,4.14-4.67,4.14h-5V805.77h2.16v4.78Zm-2.83,1.72v4.88H1023c1.67,0,2.72-.9,2.72-2.44s-1-2.44-2.72-2.44Z"/><path class="j" d="M1044.33,800.89v16h4.29v2h-11.31v-2h4.84V802.84h-4.45l.51-2Z"/><path class="j" d="M1056.77,802.58a7.89,7.89,0,0,0-3.93,1.29l-1-1.72a10.13,10.13,0,0,1,5.37-1.52c3.17,0,4.86,1.8,4.86,4.93,0,4.32-4.24,8.79-7.32,11.26v.1h7.84l-.52,2h-10.53v-1.7c3.62-2.83,8.24-7.43,8.24-11.41C1059.82,803.74,1059,802.58,1056.77,802.58Z"/><path class="j" d="M1071.16,802.58a7.89,7.89,0,0,0-3.93,1.29l-1-1.72a10.08,10.08,0,0,1,5.37-1.52c3.16,0,4.85,1.8,4.85,4.93,0,4.32-4.24,8.79-7.32,11.26v.1H1077l-.52,2H1066v-1.7c3.62-2.83,8.25-7.43,8.25-11.41C1074.22,803.74,1073.34,802.58,1071.16,802.58Z"/><path class="j" d="M1097.6,818.88h-2.16V807.49h-5.73v11.39h-2.16V805.77h10Z"/><path class="j" d="M1100.43,805.77h10.84l-.51,1.72h-3.91v11.39h-2.13V807.49h-4.29Z"/><path class="j" d="M970.89,830.84v16h-2.27v-16h-5.47v-2h13.24l-.52,2Z"/><path class="j" d="M978.54,846.21V852l-2.15.52V833.77h1.38l.52,1.64h.1a5.19,5.19,0,0,1,4.11-1.9c3.37,0,5.17,2.78,5.17,6.81s-1.62,6.81-5.53,6.81A7,7,0,0,1,978.54,846.21Zm6.92-5.89c0-3-1.26-5.09-3.63-5.09a4.45,4.45,0,0,0-3.29,2v7a5.43,5.43,0,0,0,3.29,1.18C984.2,845.41,985.46,843.56,985.46,840.32Z"/><path class="j" d="M992.76,840.94c.2,2.85,1.54,4.47,4.13,4.47a7,7,0,0,0,3.37-.92L1001,846a8.89,8.89,0,0,1-4.36,1.1c-3.65,0-6.15-2.52-6.15-6.81,0-4.06,2.09-6.81,5.79-6.81,3.52,0,5.26,2.06,5.26,5.27a10.6,10.6,0,0,1-.23,2.16Zm0-1.57h6.75a3.82,3.82,0,0,0,0-.59c0-2-1.08-3.55-3.21-3.55S992.88,836.93,992.76,839.37Z"/><path class="j" d="M1007.3,841v5.89h-2.16V833.77h2.16v5.5h1.85l3.78-5.5h2.31l-4.34,6.32,4.6,6.79-2.21.25-4.17-6.14Z"/><path class="j" d="M1018.07,846.88V833.77h2.16v9.43h.1l6.81-9.43H1029v13.11h-2.16v-9.49h-.1l-6.81,9.49Z"/><path class="j" d="M1043.63,846.88h-2.15V841h-5.94v5.89h-2.16V833.77h2.16v5.5h5.94v-5.5h2.15Z"/><path class="j" d="M1055.92,833.77l-.52,1.72h-5.24v11.39H1048V833.77Z"/><path class="j" d="M1069.36,847.13a8.66,8.66,0,0,1-5.09-1.51l1-1.72a6.23,6.23,0,0,0,3.86,1.28c2.29,0,3.85-1.18,3.85-3.83s-1.62-3.85-4-3.85h-.78v-.9l3.83-5.66v-.1h-7.27l.52-2h9.14v1.69L1070.9,836v.11c2.47.33,4.42,2,4.42,5.29C1075.32,845.31,1072.62,847.13,1069.36,847.13Z"/><path class="j" d="M1084.44,847.13c-4,0-6.16-3.16-6.16-9.25s2.21-9.25,6.16-9.25,6.17,3.16,6.17,9.25S1088.4,847.13,1084.44,847.13Zm0-2c2.37,0,3.88-2.16,3.88-7.3s-1.51-7.3-3.88-7.3-3.88,2.16-3.88,7.3S1082.08,845.18,1084.44,845.18Z"/><rect class="k" x="83.76" y="457.17" width="85.04" height="765.7"/><rect class="k" x="1189.18" y="457.52" width="85.04" height="765.35"/><rect class="l" x="83.76" y="570.22" width="85.04" height="113.39"/><rect class="l" x="83.76" y="768.37" width="85.04" height="85.04"/><rect class="l" x="389.8" y="570.22" width="48.22" height="113.39"/><path class="i" d="M405.45,613.83V635h5.67v3.36H395.37V635h6.4V617.19h-5.88l.7-3.36Z"/><path class="i" d="M425.75,617.19h-12l.7-3.36h15.22v3l-8.54,21.49h-4Z"/></svg>