<svg xmlns="http://www.w3.org/2000/svg" viewBox="0 0 790.407 115.111"><defs><style>.a{fill:#222c54;}.b{fill:none;stroke:#b3b2b2;stroke-miterlimit:10;stroke-width:2.5px;}.c{fill:#757575;opacity:0.8;}</style></defs><circle class="a" cx="56.188" cy="57.295" r="55.188"/><circle class="b" cx="462.974" cy="57.295" r="55.188"/><path d="M163.769,52.1c-7.28,0-10.15-5.531-10.15-12.6s2.87-12.6,10.15-12.6,10.152,5.53,10.152,12.6S171.05,52.1,163.769,52.1Zm0-21.843c-4.48,0-6.23,4.061-6.23,9.241s1.75,9.241,6.23,9.241S170,44.673,170,39.493,168.25,30.252,163.769,30.252Z"/><path d="M187.884,37.288a4.238,4.238,0,0,0-1.855-.35c-1.89,0-3.255,1.925-3.57,4.13V51.744h-3.64V33.892h2.59l.7,2.765h.14c.875-1.82,2.065-3.115,4.55-3.115a7.98,7.98,0,0,1,2.276.35Z"/><path d="M201.359,41.243v-1.19c0-2.136-.91-3.466-3.536-3.466a14.117,14.117,0,0,0-4.83.945l-1.05-2.834a17.466,17.466,0,0,1,6.3-1.156c5.46,0,6.755,2.871,6.755,6.581v7.492a1.127,1.127,0,0,0,1.26,1.259h.385v2.7a6.434,6.434,0,0,1-2.1.349,2.765,2.765,0,0,1-2.835-2.064h-.14a6.522,6.522,0,0,1-5.041,2.064c-3.4,0-5.53-1.679-5.53-5.32,0-3.4,2.8-5.356,6.756-5.356Zm-3.746,2.835c-1.75,0-3.01.981-3.01,2.591a2.345,2.345,0,0,0,2.625,2.38,5.2,5.2,0,0,0,4.131-2.2V44.078Z"/><path d="M221.938,48.279l1.12,2.8a11.8,11.8,0,0,1-4.9,1.016c-5.776,0-8.716-4.131-8.716-9.276s2.766-9.277,8.541-9.277a12.851,12.851,0,0,1,4.9.946l-1.12,2.8a9.136,9.136,0,0,0-3.57-.7c-3.01,0-5.04,2.522-5.04,6.232s2,6.23,5,6.23A10.269,10.269,0,0,0,221.938,48.279Z"/><path d="M236.044,41.243v-1.19c0-2.136-.911-3.466-3.536-3.466a14.123,14.123,0,0,0-4.831.945L226.628,34.7a17.46,17.46,0,0,1,6.3-1.156c5.46,0,6.755,2.871,6.755,6.581v7.492a1.127,1.127,0,0,0,1.261,1.259h.385v2.7a6.443,6.443,0,0,1-2.1.349,2.767,2.767,0,0,1-2.836-2.064h-.139a6.523,6.523,0,0,1-5.041,2.064c-3.4,0-5.531-1.679-5.531-5.32,0-3.4,2.8-5.356,6.756-5.356ZM232.3,44.078c-1.75,0-3.01.981-3.01,2.591a2.345,2.345,0,0,0,2.625,2.38,5.2,5.2,0,0,0,4.131-2.2V44.078Z"/><path d="M252.878,51.57a7.99,7.99,0,0,1-2.976.525c-2.975,0-4.55-1.541-4.55-4.971V26.192l3.64-.7V47.124c0,1.33.525,1.925,1.506,1.925a4.841,4.841,0,0,0,1.82-.35Z"/><path d="M276.013,43.868a4.78,4.78,0,0,0-5.11-5.005,12.376,12.376,0,0,0-5.076,1.05V27.241h13.092l-.7,3.362H269.5v5.25a11.874,11.874,0,0,1,2.17-.21c4.48,0,8.156,2.66,8.156,8.225,0,5.391-3.851,8.227-8.3,8.227a12.3,12.3,0,0,1-7.106-2.066l1.786-2.94a8.449,8.449,0,0,0,5.075,1.645A4.48,4.48,0,0,0,276.013,43.868Z"/><path d="M294.283,27.241V48.384h5.671v3.36H284.2v-3.36h6.405V30.6h-5.88l.7-3.362Z"/><path d="M303.451,45.093a6.932,6.932,0,0,1,4.06-6.16v-.106a6.186,6.186,0,0,1-3.29-5.564c0-3.921,2.661-6.371,7.106-6.371s7.106,2.45,7.106,6.371a6.244,6.244,0,0,1-3.291,5.6v.105a6.881,6.881,0,0,1,4.061,6.125c0,4.411-3.08,7-7.876,7S303.451,49.5,303.451,45.093Zm6.721-4.83a5.491,5.491,0,0,0-3.081,4.83c0,2.557,1.786,3.641,4.236,3.641s4.235-1.225,4.235-3.641c0-2.1-1.854-3.324-3.92-4.2Zm.98-3.115,1.12.455a5.183,5.183,0,0,0,2.521-4.34c0-1.891-1.471-3.011-3.466-3.011s-3.465,1.12-3.465,3.011C307.862,35.363,309.367,36.413,311.152,37.148Z"/><path d="M346.573,48.525H342.9l-4.97-14.912h-.14l-1.68,18.131h-3.78l2.274-24.5h4.656l5.425,16.1h.106l5.426-16.1h4.655l2.275,24.5h-3.78l-1.681-18.131h-.139Z"/><path class="c" d="M162.571,71.455V88.927h-2.464V71.455h-5.964V69.327h14.42L168,71.455Z"/><path class="c" d="M170.747,82.459c.223,3.109,1.679,4.872,4.508,4.872a7.563,7.563,0,0,0,3.668-1.007L179.735,88a9.68,9.68,0,0,1-4.76,1.2c-3.976,0-6.692-2.744-6.692-7.42,0-4.423,2.267-7.42,6.3-7.42,3.836,0,5.74,2.241,5.74,5.741a12.032,12.032,0,0,1-.252,2.351Zm.672-13.5a1.59,1.59,0,0,1,1.6,1.569,1.566,1.566,0,0,1-1.6,1.54,1.541,1.541,0,0,1-1.568-1.54A1.565,1.565,0,0,1,171.419,68.963Zm-.672,11.788h7.364a5.123,5.123,0,0,0,.027-.643c0-2.241-1.175-3.865-3.5-3.865C172.287,76.243,170.886,78.091,170.747,80.751ZM177.5,68.963a1.589,1.589,0,0,1,1.595,1.569,1.565,1.565,0,0,1-1.595,1.54,1.543,1.543,0,0,1-1.569-1.54A1.566,1.566,0,0,1,177.5,68.963Z"/><path class="c" d="M195,74.648h3l1.372,14.279h-2.324l-.924-11.508H196L192.7,86.6h-2.6l-3.332-9.184h-.112l-.924,11.508H183.4l1.372-14.279h3l3.584,9.884h.084Z"/><path class="c" d="M214.454,88.927H212.1V82.515h-6.468v6.412h-2.352V74.648h2.352v5.991H212.1V74.648h2.352Z"/><path class="c" d="M218.374,81.787c0-4.648,2.464-7.42,6.439-7.42s6.441,2.772,6.441,7.42-2.464,7.42-6.441,7.42S218.374,86.435,218.374,81.787Zm2.408,0c0,3.5,1.483,5.544,4.031,5.544s4.032-2.044,4.032-5.544-1.483-5.544-4.032-5.544S220.782,78.287,220.782,81.787Z"/><path class="c" d="M234.614,81.871V79.883h7.336l-.561,1.988Z"/><path class="c" d="M255.782,88.367a9.439,9.439,0,0,1-3.92.84c-4.62,0-6.692-3.3-6.692-7.42s1.931-7.42,6.551-7.42a10.31,10.31,0,0,1,3.92.785l-.672,1.735a7.99,7.99,0,0,0-3.08-.644c-2.771,0-4.311,2.241-4.311,5.544s1.512,5.544,4.284,5.544a9.031,9.031,0,0,0,3.247-.7Z"/><path class="c" d="M259.141,88.927V74.648h2.353V84.923h.111l7.42-10.275h2.044V88.927h-2.352V78.6h-.112l-7.42,10.332Z"/><path class="c" d="M287,88.927h-2.352V82.515h-6.468v6.412h-2.352V74.648h2.352v5.991h6.468V74.648H287Z"/><path class="c" d="M291.76,88.927V74.648h2.353V84.923h.111l7.42-10.275h2.044V88.927h-2.351V78.6h-.113L293.8,88.927Z"/><path class="c" d="M308.449,88.927V74.648H310.8V84.923h.112l7.42-10.275h2.044V88.927h-2.352V78.6h-.112l-7.42,10.332Zm10.444-19.04a5.336,5.336,0,0,1-8.96,0l1.652-1.092a3.149,3.149,0,0,0,5.656,0Z"/><path d="M570.863,52.1c-7.28,0-10.15-5.531-10.15-12.6s2.87-12.6,10.15-12.6,10.151,5.53,10.151,12.6S578.144,52.1,570.863,52.1Zm0-21.843c-4.481,0-6.231,4.061-6.231,9.241s1.75,9.241,6.231,9.241,6.231-4.061,6.231-9.241S575.343,30.252,570.863,30.252Z"/><path d="M594.978,37.288a4.238,4.238,0,0,0-1.855-.35c-1.89,0-3.255,1.925-3.571,4.13V51.744h-3.639V33.892h2.59l.7,2.765h.139c.875-1.82,2.066-3.115,4.551-3.115a7.986,7.986,0,0,1,2.276.35Z"/><path d="M608.453,41.243v-1.19c0-2.136-.91-3.466-3.536-3.466a14.113,14.113,0,0,0-4.83.945l-1.05-2.834a17.462,17.462,0,0,1,6.3-1.156c5.46,0,6.754,2.871,6.754,6.581v7.492a1.127,1.127,0,0,0,1.261,1.259h.385v2.7a6.436,6.436,0,0,1-2.1.349,2.767,2.767,0,0,1-2.835-2.064h-.139a6.523,6.523,0,0,1-5.041,2.064c-3.4,0-5.531-1.679-5.531-5.32,0-3.4,2.8-5.356,6.756-5.356Zm-3.746,2.835c-1.75,0-3.01.981-3.01,2.591a2.345,2.345,0,0,0,2.625,2.38,5.2,5.2,0,0,0,4.131-2.2V44.078Z"/><path d="M629.032,48.279l1.12,2.8a11.8,11.8,0,0,1-4.9,1.016c-5.776,0-8.716-4.131-8.716-9.276s2.765-9.277,8.541-9.277a12.859,12.859,0,0,1,4.9.946l-1.12,2.8a9.139,9.139,0,0,0-3.57-.7c-3.01,0-5.04,2.522-5.04,6.232s2,6.23,5,6.23A10.273,10.273,0,0,0,629.032,48.279Z"/><path d="M643.137,41.243v-1.19c0-2.136-.91-3.466-3.535-3.466a14.123,14.123,0,0,0-4.831.945l-1.05-2.834a17.47,17.47,0,0,1,6.3-1.156c5.46,0,6.755,2.871,6.755,6.581v7.492a1.127,1.127,0,0,0,1.261,1.259h.385v2.7a6.443,6.443,0,0,1-2.1.349,2.765,2.765,0,0,1-2.836-2.064h-.14a6.522,6.522,0,0,1-5.041,2.064c-3.4,0-5.53-1.679-5.53-5.32,0-3.4,2.8-5.356,6.756-5.356Zm-3.746,2.835c-1.75,0-3.009.981-3.009,2.591a2.345,2.345,0,0,0,2.625,2.38,5.2,5.2,0,0,0,4.13-2.2V44.078Z"/><path d="M659.971,51.57A7.982,7.982,0,0,1,657,52.1c-2.975,0-4.55-1.541-4.55-4.971V26.192l3.64-.7V47.124c0,1.33.525,1.925,1.5,1.925a4.846,4.846,0,0,0,1.821-.35Z"/><path d="M679.221,52.1c-5.39,0-8.575-4.307-8.575-12.6s3.185-12.6,8.575-12.6,8.577,4.305,8.577,12.6S684.612,52.1,679.221,52.1Zm0-3.361c2.8,0,4.761-2.731,4.761-9.241s-1.96-9.241-4.761-9.241-4.759,2.731-4.759,9.241S676.422,48.734,679.221,48.734Z"/><path d="M701.377,27.241V48.384h5.671v3.36H691.3v-3.36h6.4V30.6h-5.88l.7-3.362Z"/><path d="M718.421,52.1c-5.391,0-8.576-4.307-8.576-12.6s3.185-12.6,8.576-12.6S727,31.2,727,39.493,723.811,52.1,718.421,52.1Zm0-3.361c2.8,0,4.76-2.731,4.76-9.241s-1.96-9.241-4.76-9.241-4.76,2.731-4.76,9.241S715.621,48.734,718.421,48.734Z"/><path d="M753.667,48.525h-3.676l-4.97-14.912h-.14L743.2,51.744h-3.78l2.274-24.5h4.656l5.425,16.1h.106l5.425-16.1h4.656l2.275,24.5h-3.78l-1.681-18.131h-.14Z"/><path class="c" d="M565.661,71.455v5.657h3c4.059,0,6.775,1.9,6.775,5.907s-2.687,5.908-6.775,5.908H563.2v-19.6h10.92l-.561,2.128Zm0,7.785V86.8h2.828c3.052,0,4.368-1.567,4.368-3.78,0-2.323-1.288-3.779-4.4-3.779Z"/><path class="c" d="M580.556,82.459c.224,3.109,1.68,4.872,4.508,4.872a7.56,7.56,0,0,0,3.668-1.007L589.545,88a9.682,9.682,0,0,1-4.76,1.2c-3.977,0-6.693-2.744-6.693-7.42,0-4.423,2.268-7.42,6.3-7.42,3.836,0,5.74,2.241,5.74,5.741a12.026,12.026,0,0,1-.251,2.351Zm0-1.708h7.365a5.123,5.123,0,0,0,.027-.643c0-2.241-1.176-3.865-3.5-3.865C582.1,76.243,580.7,78.091,580.556,80.751Z"/><path class="c" d="M605.029,74.648V88.927h-2.353v-12.4h-4.423V77.7c0,7.617-1.26,11.369-4.285,11.369a3.986,3.986,0,0,1-1.876-.5l.673-1.821a1.844,1.844,0,0,0,1.064.336c1.484,0,2.212-2.772,2.212-10.051v-2.38Z"/><path class="c" d="M612.14,79.856h3.079c3.08,0,5.1,1.679,5.1,4.563s-2.017,4.508-5.1,4.508h-5.431V74.648h2.352Zm0,1.876v5.319h2.8c1.819,0,2.968-.979,2.968-2.66s-1.149-2.659-2.968-2.659Zm12.936,7.2h-2.352V74.648h2.352Z"/><path class="c" d="M629.836,88.927V74.648h2.352V84.923h.111l7.42-10.275h2.044V88.927h-2.351V78.6H639.3L631.88,88.927Zm10.444-19.04a5.336,5.336,0,0,1-8.96,0l1.651-1.092a3.15,3.15,0,0,0,5.657,0Z"/></svg>