<svg xmlns="http://www.w3.org/2000/svg" viewBox="0 0 1347.83 988.11"><defs><style>.a{fill:#222c54;}.b{fill:#34a936;}.b,.g{opacity:0.5;}.c{fill:#fff;}.d{opacity:0.63;}.e,.g{fill:#0bbbef;}.f{fill:#38a032;}.h{fill:#77be7f;}.i{fill:#76bd7e;}</style></defs><rect class="a" x="80.99" y="43.42" width="1190.55" height="907.09" rx="70.87"/><rect class="b" x="80.13" y="185.05" width="1105.62" height="368.5"/><rect class="b" x="838.97" y="284.38" width="347.66" height="269.17"/><rect class="b" x="80.13" y="696.03" width="1106.5" height="141.73"/><path class="c" d="M454.57,185.45V492.64h82.59v61h-242v-61h93.62V246.47H303.09l10.52-61Z"/><path class="c" d="M663.39,341.15c15.78-10.52,36.3-16.31,57.34-16.31,62.59,0,108.35,41.56,108.35,115.72,0,72.06-53.65,118.35-122.55,118.35-74.17,0-122-53.12-122-135.18,0-133.08,81.53-212,190.42-243.54l22.62,48.39c-57.34,22.1-114.67,55.23-135.71,111.52Zm-12.62,82.58c0,44.71,22.09,74.17,55.76,74.17,30,0,57.33-17.89,57.33-57.34s-27.35-57.33-57.33-57.33C684.43,383.23,660.24,400.59,650.77,423.73Z"/><path class="c" d="M1009.8,498.74H931.85l-15.74,54.91H856.59l86-268.79h56.44l86,268.79h-59.52ZM971.4,359h-1.53l-23.42,88.7h48.76Z"/><path class="c" d="M324.72,778H313.67v59.1H285.93V696.42h27.74v54.27h11.46l31.55-54.27h32.57l-41,67.53,45.23,73.17-33,2Z"/><path class="c" d="M478.89,839.13c-42.82,0-60.3-30.55-60.3-72.36s17.48-72.36,60.3-72.36,60.3,30.55,60.3,72.36S521.7,839.13,478.89,839.13Zm0-117.39c-20.3,0-29.75,18.7-29.75,45s9.45,45,29.75,45,29.75-18.69,29.75-45S499.19,721.74,478.89,721.74Z"/><path class="c" d="M610.14,789.68v47.44H580.39V696.42h48c26.74,0,46.84,16.48,46.84,46.63s-20.1,46.63-46.84,46.63ZM627,762.35c9.85,0,17.49-7.24,17.49-19.3s-7.64-19.3-17.49-19.3H610.14v38.6Z"/><path class="c" d="M713.45,837.12V696.42H819v140.7H789.23V723.75h-46V837.12Z"/><path class="c" d="M873.45,808.58a15.28,15.28,0,1,1-15.28,15.27A15.52,15.52,0,0,1,873.45,808.58Z"/><path class="c" d="M1009.12,721.74c-9.45,0-18.69,3.22-27.33,8.24l-13.87-23.71c16.28-8.85,28.54-11.86,45-11.86,24.72,0,41,14.07,41,38.59,0,31-24.33,55.07-48.24,76v.8h51.85l-4,27.34H965.1V811.79c27.54-20.7,58.9-49.24,58.9-76.18C1024,727.17,1019,721.74,1009.12,721.74Z"/><g class="d"><rect class="e" x="675.51" y="18.15" width="1.76" height="21.44"/><rect class="e" x="675.51" y="50.07" width="1.76" height="21.44"/><rect class="e" x="675.51" y="82" width="1.76" height="21.43"/><rect class="e" x="675.51" y="113.92" width="1.76" height="21.44"/><rect class="e" x="675.51" y="145.85" width="1.76" height="21.43"/><rect class="e" x="675.51" y="177.77" width="1.76" height="21.43"/></g><g class="d"><rect class="e" x="675.51" y="211.59" width="1.76" height="21.44"/><rect class="e" x="675.51" y="243.51" width="1.76" height="21.44"/><rect class="e" x="675.51" y="275.44" width="1.76" height="21.44"/><rect class="e" x="675.51" y="307.37" width="1.76" height="21.43"/><rect class="e" x="675.51" y="339.29" width="1.76" height="21.44"/><rect class="e" x="675.51" y="371.22" width="1.76" height="21.43"/><rect class="e" x="675.51" y="403.14" width="1.76" height="21.43"/><rect class="e" x="675.51" y="435.07" width="1.76" height="21.44"/><rect class="e" x="675.51" y="466.99" width="1.76" height="21.44"/><rect class="e" x="675.51" y="498.92" width="1.76" height="21.44"/><rect class="e" x="675.51" y="530.85" width="1.76" height="21.43"/><rect class="e" x="675.51" y="562.77" width="1.76" height="21.44"/><rect class="e" x="675.51" y="594.7" width="1.76" height="21.43"/><rect class="e" x="675.51" y="626.62" width="1.76" height="21.43"/></g><path class="e" d="M1307.63,489.66c0,5.39-3.85,7.91-8.29,7.91a12.32,12.32,0,0,1-7.11-2.06l1.79-2.95a8.45,8.45,0,0,0,5.07,1.65c2.7,0,4.73-1.4,4.73-4.52s-2.1-4.55-4.87-4.55h-1.82v-1.89l5.25-7v-.14H1293l.7-3.36h12.81v3l-5,6.65v.1C1304.83,483,1307.63,484.93,1307.63,489.66Z"/><path class="e" d="M1316.87,493.86h10l-.7,3.36h-14.7v-3c4.79-3.61,10.88-10,10.88-14.67,0-2.34-1.15-3.81-3.64-3.81a9.54,9.54,0,0,0-5.14,1.64l-1.68-2.94a14,14,0,0,1,7.49-2.06c4.3,0,6.79,2.45,6.79,6.72,0,5.39-5,11.23-9.28,14.63Z"/><path class="e" d="M1338,497.57c-5.39,0-8.57-4.3-8.57-12.6s3.18-12.6,8.57-12.6,8.58,4.3,8.58,12.6S1343.4,497.57,1338,497.57Zm0-3.36c2.8,0,4.76-2.73,4.76-9.24s-2-9.24-4.76-9.24-4.76,2.73-4.76,9.24S1335.21,494.21,1338,494.21Z"/><path class="e" d="M659.72,963.61,651,978.9V979h5.57V974.6h3.67V979h4l-.7,3.33h-3.33v5.74h-3.67v-5.74h-10v-3l9-15.78Z"/><path class="e" d="M671.9,984.75h10l-.7,3.36h-14.7v-3c4.79-3.61,10.88-10,10.88-14.67,0-2.34-1.15-3.81-3.64-3.81a9.54,9.54,0,0,0-5.14,1.64l-1.68-2.94a14,14,0,0,1,7.49-2.06c4.3,0,6.79,2.45,6.79,6.72,0,5.39-5,11.23-9.28,14.63Z"/><path class="e" d="M693,988.46c-5.39,0-8.57-4.31-8.57-12.6s3.18-12.6,8.57-12.6,8.58,4.3,8.58,12.6S698.43,988.46,693,988.46Zm0-3.36c2.8,0,4.76-2.73,4.76-9.24s-2-9.24-4.76-9.24-4.76,2.73-4.76,9.24S690.24,985.1,693,985.1Z"/><path class="f" d="M12.42,356.35v21.14h5.67v3.36H2.34v-3.36h6.4V359.71H2.86l.7-3.36Z"/><path class="f" d="M36.08,373.29c0,5.39-3.85,7.91-8.3,7.91a12.26,12.26,0,0,1-7.1-2.07l1.78-2.94a8.48,8.48,0,0,0,5.08,1.65c2.69,0,4.72-1.4,4.72-4.52s-2.1-4.55-4.86-4.55H25.58v-1.89l5.25-7v-.14H21.48l.7-3.36H35v3L30,366v.1C33.28,366.67,36.08,368.56,36.08,373.29Z"/><path class="f" d="M47.59,381.2c-5.39,0-8.57-4.31-8.57-12.6S42.2,356,47.59,356s8.58,4.3,8.58,12.6S53,381.2,47.59,381.2Zm0-3.36c2.8,0,4.76-2.73,4.76-9.24s-2-9.24-4.76-9.24-4.76,2.73-4.76,9.24S44.79,377.84,47.59,377.84Z"/><path class="f" d="M32.61,770.14a4.77,4.77,0,0,0-5.11-5,12.36,12.36,0,0,0-5.07,1.05V753.52H35.52l-.7,3.36H26.1v5.25a12,12,0,0,1,2.17-.21c4.48,0,8.16,2.66,8.16,8.22,0,5.39-3.85,8.23-8.3,8.23A12.26,12.26,0,0,1,21,776.3l1.78-2.94A8.48,8.48,0,0,0,27.89,775,4.48,4.48,0,0,0,32.61,770.14Z"/><path class="f" d="M47.59,778.37c-5.39,0-8.57-4.31-8.57-12.6s3.18-12.6,8.57-12.6,8.58,4.3,8.58,12.6S53,778.37,47.59,778.37Zm0-3.36c2.8,0,4.76-2.73,4.76-9.24s-2-9.24-4.76-9.24-4.76,2.73-4.76,9.24S44.79,775,47.59,775Z"/><path class="e" d="M32.61,628a4.78,4.78,0,0,0-5.11-5,12.36,12.36,0,0,0-5.07,1V611.33H35.52l-.7,3.36H26.1v5.25a12,12,0,0,1,2.17-.21c4.48,0,8.16,2.66,8.16,8.23,0,5.39-3.85,8.22-8.3,8.22a12.26,12.26,0,0,1-7.1-2.06l1.78-2.94a8.47,8.47,0,0,0,5.08,1.64A4.47,4.47,0,0,0,32.61,628Z"/><path class="e" d="M47.59,636.18c-5.39,0-8.57-4.3-8.57-12.6S42.2,611,47.59,611s8.58,4.31,8.58,12.6S53,636.18,47.59,636.18Zm0-3.36c2.8,0,4.76-2.73,4.76-9.24s-2-9.24-4.76-9.24-4.76,2.73-4.76,9.24S44.79,632.82,47.59,632.82Z"/><path class="e" d="M32.61,129.84a4.78,4.78,0,0,0-5.11-5,12.36,12.36,0,0,0-5.07,1V113.21H35.52l-.7,3.36H26.1v5.26a11.2,11.2,0,0,1,2.17-.21c4.48,0,8.16,2.66,8.16,8.22,0,5.39-3.85,8.23-8.3,8.23A12.26,12.26,0,0,1,21,136l1.78-2.94a8.48,8.48,0,0,0,5.08,1.65A4.48,4.48,0,0,0,32.61,129.84Z"/><path class="e" d="M47.59,138.07c-5.39,0-8.57-4.31-8.57-12.61s3.18-12.6,8.57-12.6,8.58,4.31,8.58,12.6S53,138.07,47.59,138.07Zm0-3.36c2.8,0,4.76-2.73,4.76-9.25s-2-9.24-4.76-9.24-4.76,2.74-4.76,9.24S44.79,134.71,47.59,134.71Z"/><path class="e" d="M33.14,878.57l-8.75,15.29V894H30v-4.44h3.68V894h4l-.7,3.33H33.63v5.74H30v-5.74H20v-3l9-15.78Z"/><path class="e" d="M47.59,903.42c-5.39,0-8.57-4.3-8.57-12.6s3.18-12.6,8.57-12.6,8.58,4.3,8.58,12.6S53,903.42,47.59,903.42Zm0-3.36c2.8,0,4.76-2.73,4.76-9.24s-2-9.24-4.76-9.24-4.76,2.73-4.76,9.24S44.79,900.06,47.59,900.06Z"/><rect class="g" x="1186.63" y="43.68" width="85.04" height="907.09"/><path class="h" d="M296.34,111.11v-3h2.83v-12h-2.83v-3h9.07l-.51,3h-2.45v12h2.83v3Z"/><path class="h" d="M308,101.45c0-2.18,1.77-3.7,4.65-3.7a10.33,10.33,0,0,1,4.26.9l-1.08,2.49a8.34,8.34,0,0,0-3-.64c-1.13,0-1.65.41-1.65,1,0,.8.77,1.19,2.08,1.62,1.93.64,4,1.65,4,4.24,0,2.39-2,4-5,4a10.07,10.07,0,0,1-4.55-1l1.11-2.57a8.3,8.3,0,0,0,3.34.77c1.1,0,1.87-.49,1.87-1.21,0-1-1.26-1.49-2.57-2C309.93,104.87,308,103.87,308,101.45Z"/><path class="h" d="M329.2,107.77l1.11,2.49a10,10,0,0,1-4.52,1.11c-3.86,0-6.5-2.52-6.5-6.81s2.31-6.81,6-6.81c3.42,0,5.55,2.13,5.55,5.81a16,16,0,0,1-.16,2h-8.17a3.39,3.39,0,0,0,3.42,3.08A7.76,7.76,0,0,0,329.2,107.77Zm-1.26-4.67a2.43,2.43,0,0,0-2.59-2.6,2.82,2.82,0,0,0-2.78,2.6Z"/><path class="h" d="M341.8,110.91a9.6,9.6,0,0,1-2.86.46c-2.36,0-4.29-1.08-4.29-4.14v-6.47h-2.26V98h2.26V94.46l3.19-.51V98h3.67l-.51,2.75h-3.16v6.47c0,1,.41,1.39,1.41,1.39a7.72,7.72,0,0,0,2-.33Z"/><path class="h" d="M355.29,103.17c-2.31-.9-5-2.52-5-5.5s2.31-4.8,6-4.8a10.57,10.57,0,0,1,5.27,1.39L360,96.88a6.84,6.84,0,0,0-3.7-1c-1.61,0-2.57.56-2.57,1.67,0,1.31,1.57,2.29,3.06,2.88,2.83,1.1,5.35,2.49,5.35,5.83,0,3.19-2.37,5.14-6.4,5.14a10.31,10.31,0,0,1-5.81-1.59l1.77-2.68a6.7,6.7,0,0,0,4,1.29c1.72,0,3-.77,3-2.11C358.7,104.66,357.19,103.92,355.29,103.17Z"/><path class="h" d="M371.63,102.53c0-1.26-.64-2-2.21-2a10.54,10.54,0,0,0-3.49.69L365,98.62a13.06,13.06,0,0,1,4.75-.87c4,0,5.09,2.11,5.09,4.83v5a.82.82,0,0,0,.92.92H376V111a5.76,5.76,0,0,1-1.82.26,2.33,2.33,0,0,1-2.31-1.26h-.11a4.38,4.38,0,0,1-3.44,1.26c-2.49,0-4.06-1.23-4.06-3.91,0-2.51,2-3.93,4.91-3.93h2.44Zm0,4.8v-1.49h-2.34c-1.18,0-1.85.6-1.85,1.44a1.3,1.3,0,0,0,1.42,1.34A3.71,3.71,0,0,0,371.63,107.33Z"/><path class="h" d="M381.78,111.11h-3.19V98H381l.51,1.13h.11a5.05,5.05,0,0,1,3.47-1.39c2.75,0,4.29,1.72,4.29,5.17v8.19H386.2V103.2c0-1.83-.69-2.7-1.9-2.7a3.53,3.53,0,0,0-2.52,1.54Z"/><path class="h" d="M392.37,101.45c0-2.18,1.77-3.7,4.65-3.7a10.3,10.3,0,0,1,4.26.9l-1.07,2.49a8.44,8.44,0,0,0-3-.64c-1.13,0-1.64.41-1.64,1,0,.8.77,1.19,2.08,1.62,1.92.64,3.95,1.65,3.95,4.24,0,2.39-2,4-5,4a10,10,0,0,1-4.54-1l1.1-2.57a8.34,8.34,0,0,0,3.34.77c1.11,0,1.88-.49,1.88-1.21,0-1-1.26-1.49-2.57-2C394.3,104.87,392.37,103.87,392.37,101.45Z"/><path class="h" d="M424.67,99.37h-.08l-3.08,9.38h-3.37L415,99.37H415l-1.08,11.74h-3.29l1.67-18h3.67l3.86,11.57h.07l3.86-11.57h3.67l1.67,18h-3.29Z"/><path class="h" d="M441.55,107.77l1.11,2.49a10.07,10.07,0,0,1-4.53,1.11c-3.85,0-6.5-2.52-6.5-6.81s2.32-6.81,6-6.81c3.41,0,5.55,2.13,5.55,5.81a16,16,0,0,1-.16,2h-8.17a3.38,3.38,0,0,0,3.42,3.08A7.8,7.8,0,0,0,441.55,107.77Zm-1.26-4.67a2.43,2.43,0,0,0-2.59-2.6,2.82,2.82,0,0,0-2.78,2.6Z"/><path class="h" d="M454.27,110a4.87,4.87,0,0,1-3.39,1.39c-3.7,0-5.37-2.85-5.37-6.81s1.7-6.81,5.6-6.81a9.09,9.09,0,0,1,3,.49V92.35l3.18-.51v19.27h-2.41l-.51-1.13Zm-5.52-5.42c0,2.39,1,4.06,2.9,4.06a3.44,3.44,0,0,0,2.47-1.29v-6.14a5.05,5.05,0,0,0-2.57-.69C449.83,100.5,448.75,102,448.75,104.56Z"/><path class="h" d="M459.75,100.76l.51-2.75h4.83v13.1H461.9V100.76Zm3.75-8.41a1.86,1.86,0,0,1,1.9,1.86A1.83,1.83,0,0,1,463.5,96a1.81,1.81,0,0,1-1.88-1.82A1.84,1.84,0,0,1,463.5,92.35Z"/><path class="h" d="M476.47,98h3.19v13.1h-2.41l-.52-1.13h-.1a5.52,5.52,0,0,1-3.65,1.39c-2.57,0-4.5-1.7-4.5-5.37V98h3.19v8c0,1.82.9,2.62,2.11,2.62a3.86,3.86,0,0,0,2.69-1.54Z"/><path class="h" d="M492.64,99.19a6.17,6.17,0,0,1,4-1.44c2.74,0,4.34,1.72,4.34,5.17v8.19h-3.19V103.2c0-1.83-.69-2.7-1.9-2.7a3.35,3.35,0,0,0-2.16,1.11v9.5h-3.18V103.2c0-1.83-.65-2.7-1.75-2.7a3.23,3.23,0,0,0-2.32,1.54v9.07h-3.18V98h2.41l.52,1.13h.1a4.67,4.67,0,0,1,3.29-1.39A3.84,3.84,0,0,1,492.64,99.19Z"/><path class="h" d="M301.58,128.83l5.65-7.71h2.57l-6.14,8.51,6.68,9.48-2.52.26-6.24-8.58h-1.95v8.32h-2.26v-18h2.26v7.71Z"/><path class="h" d="M313.89,133.18c.21,2.85,1.54,4.47,4.14,4.47a6.91,6.91,0,0,0,3.36-.93l.75,1.54a8.83,8.83,0,0,1-4.37,1.11c-3.65,0-6.14-2.52-6.14-6.81,0-4.06,2.08-6.81,5.78-6.81,3.52,0,5.27,2.06,5.27,5.27a11.36,11.36,0,0,1-.23,2.16Zm0-1.57h6.76c0-.21,0-.39,0-.59,0-2.06-1.08-3.55-3.21-3.55S314,129.17,313.89,131.61Z"/><path class="h" d="M334.19,126l-.51,1.72h-5.25v11.38h-2.15V126Z"/><path class="h" d="M346.32,126v13.1h-2.16V127.73H340.1v1.08c0,7-1.16,10.43-3.93,10.43a3.6,3.6,0,0,1-1.72-.46l.62-1.67a1.72,1.72,0,0,0,1,.31c1.36,0,2-2.55,2-9.23V126Z"/><path class="h" d="M355.67,130.79c2.83,0,4.68,1.54,4.68,4.18s-1.85,4.14-4.68,4.14h-5V126h2.16v4.78Zm-2.82,1.72v4.88h2.57c1.67,0,2.72-.9,2.72-2.44s-1.05-2.44-2.72-2.44Z"/><path class="h" d="M380.65,133.38c0,4-2.52,6-5.88,6a8.75,8.75,0,0,1-5.17-1.52l1-1.72a6.58,6.58,0,0,0,4,1.29c2.15,0,3.77-1.34,3.77-4a3.74,3.74,0,0,0-4.06-4,12.22,12.22,0,0,0-3.67.67v-8.9H380l-.51,2h-6.66v4.62a10,10,0,0,1,2.06-.2C378.23,127.5,380.65,129.53,380.65,133.38Z"/><path class="h" d="M389.18,122.82a7.85,7.85,0,0,0-3.93,1.29l-.95-1.73a10.16,10.16,0,0,1,5.37-1.51c3.16,0,4.86,1.8,4.86,4.93,0,4.32-4.24,8.79-7.33,11.26v.1H395l-.51,2H384v-1.69c3.62-2.83,8.25-7.43,8.25-11.41C392.24,124,391.37,122.82,389.18,122.82Z"/><path class="h" d="M401.18,129.37a4.76,4.76,0,0,1,3.47-1.44c2.91,0,5,2.09,5,5.71a5.37,5.37,0,0,1-5.73,5.73c-3.62,0-5.71-2.72-5.71-6.76a12.39,12.39,0,0,1,9.15-11.74l.75,1.57a10.83,10.83,0,0,0-7,6.88Zm2.78,8c2.05,0,3.44-1.31,3.44-3.78s-1.39-3.75-3.44-3.75a4,4,0,0,0-3.5,2.72C400.46,135.49,401.65,137.42,404,137.42Z"/><path class="h" d="M430,139.11h-2.16V127.73h-5.73v11.38H420V126h10Z"/><path class="h" d="M432.84,126h10.85l-.52,1.72h-3.9v11.38h-2.14V127.73h-4.29Z"/><path class="h" d="M836.26,885.22v-3.49H839v-11h-2.7v-3.5h9.33l-.52,3.5h-2.31v11h2.7v3.49Z"/><path class="h" d="M847.92,875.66c0-2.31,2-3.8,4.78-3.8a11.13,11.13,0,0,1,4.4.9l-1.31,3a7.68,7.68,0,0,0-2.91-.62c-.82,0-1.31.26-1.31.72s.44.85,1.67,1.24c1.91.59,4.17,1.8,4.17,4.34s-2,4.06-5.09,4.06a12.2,12.2,0,0,1-4.68-.93l1.31-3a9,9,0,0,0,3.29.71c.9,0,1.52-.41,1.52-1,0-.75-.93-1.08-2.21-1.47C850,879.31,847.92,878.49,847.92,875.66Z"/><path class="h" d="M863.06,880.06a3,3,0,0,0,3.08,2.15,7.23,7.23,0,0,0,3.06-.79l1.34,3a10.59,10.59,0,0,1-4.65,1.11c-3.81,0-6.68-2.39-6.68-6.81s2.39-6.81,6.19-6.81c3.57,0,5.63,2.21,5.63,5.4a12.26,12.26,0,0,1-.29,2.8Zm4.6-2.86a2,2,0,0,0-2.21-2.08A2.35,2.35,0,0,0,863,877.2Z"/><path class="h" d="M878,881.29c0,.69.49.92,1.14.92a8.89,8.89,0,0,0,2.13-.3L882,885a11.81,11.81,0,0,1-3.18.46c-2.37,0-4.53-1-4.53-4.19v-5.91h-2v-3.26h2v-3.55l3.7-.51v4.06h3.73l-.51,3.26H878Z"/><path class="h" d="M890.22,871.86c0-3.21,2.37-4.88,6.09-4.88a11.14,11.14,0,0,1,5.4,1.39l-1.83,3a6.89,6.89,0,0,0-3.57-.95c-1.33,0-2.18.54-2.18,1.39,0,1.16,1.31,1.9,2.72,2.47,2.83,1.1,5.42,2.67,5.42,6,0,3.19-2.49,5.14-6.52,5.14a10.68,10.68,0,0,1-5.94-1.6l2.08-3.08a6.39,6.39,0,0,0,3.86,1.18c1.44,0,2.62-.74,2.62-1.82,0-1.36-1.29-2-3.09-2.7C893,876.56,890.22,875,890.22,871.86Z"/><path class="h" d="M911.55,884.22a4.45,4.45,0,0,1-3,1.13c-2.49,0-4.32-1.31-4.32-4,0-2.49,1.95-4,4.86-4h2.23v-.77c0-.93-.59-1.52-1.82-1.52a10.2,10.2,0,0,0-3.44.65l-1.14-3.06a14.11,14.11,0,0,1,4.89-.85c4,0,5.21,2.11,5.21,4.83v4.47a.83.83,0,0,0,.93.93h.28v2.72a4.55,4.55,0,0,1-2.08.54,2.67,2.67,0,0,1-2.47-1.13Zm-2.62-1.85a3.68,3.68,0,0,0,2.36-.9v-1.34h-2.23c-.88,0-1.44.49-1.44,1.19S908.16,882.37,908.93,882.37Z"/><path class="h" d="M922.21,885.22h-3.7v-13.1h2.93l.52.87h.1a5.1,5.1,0,0,1,3.16-1.13c2.75,0,4.34,1.8,4.34,5.24v8.12h-3.7V877.1c0-1.41-.59-2-1.51-2a2.9,2.9,0,0,0-2.14,1.31Z"/><path class="h" d="M932.29,875.66c0-2.31,2-3.8,4.78-3.8a11.12,11.12,0,0,1,4.39.9l-1.31,3a7.63,7.63,0,0,0-2.9-.62c-.82,0-1.31.26-1.31.72s.43.85,1.67,1.24c1.9.59,4.16,1.8,4.16,4.34s-2,4.06-5.09,4.06a12.11,12.11,0,0,1-4.67-.93l1.31-3a8.92,8.92,0,0,0,3.29.71c.89,0,1.51-.41,1.51-1,0-.75-.92-1.08-2.21-1.47C934.34,879.31,932.29,878.49,932.29,875.66Z"/><path class="h" d="M950.66,871.86c0-3.21,2.37-4.88,6.09-4.88a11.14,11.14,0,0,1,5.4,1.39l-1.83,3a6.89,6.89,0,0,0-3.57-.95c-1.33,0-2.18.54-2.18,1.39,0,1.16,1.31,1.9,2.72,2.47,2.83,1.1,5.42,2.67,5.42,6,0,3.19-2.49,5.14-6.52,5.14a10.68,10.68,0,0,1-5.94-1.6l2.08-3.08a6.39,6.39,0,0,0,3.86,1.18c1.44,0,2.62-.74,2.62-1.82,0-1.36-1.29-2-3.09-2.7C953.41,876.56,950.66,875,950.66,871.86Z"/><path class="h" d="M968.62,880.06a3,3,0,0,0,3.09,2.15,7.19,7.19,0,0,0,3-.79l1.34,3a10.59,10.59,0,0,1-4.65,1.11c-3.8,0-6.68-2.39-6.68-6.81s2.39-6.81,6.19-6.81c3.57,0,5.63,2.21,5.63,5.4a12.85,12.85,0,0,1-.28,2.8Zm4.6-2.86a2,2,0,0,0-2.21-2.08,2.34,2.34,0,0,0-2.46,2.08Z"/><path class="h" d="M989,873a6.35,6.35,0,0,1,3.75-1.18c3.09,0,4.6,1.8,4.6,5.24v8.12h-3.7V877.1c0-1.41-.59-2-1.51-2a2.88,2.88,0,0,0-1.91,1v9.1h-3.7V877.1c0-1.41-.56-2-1.41-2a2.69,2.69,0,0,0-2,1.31v8.79h-3.7v-13.1h2.93l.51.87h.1a4.87,4.87,0,0,1,3.06-1.13A3.82,3.82,0,0,1,989,873Z"/><path class="h" d="M999.54,875.38l.51-3.26h5.14v13.1h-3.7v-9.84Zm3.8-9.17a2.07,2.07,0,0,1,2.11,2.08,2.11,2.11,0,0,1-4.22,0A2.07,2.07,0,0,1,1003.34,866.21Z"/><path class="h" d="M1008.79,885.22v-18h5.88c3.21,0,5.63,1.19,5.63,4.32a4,4,0,0,1-3.06,4.11v.11a4.31,4.31,0,0,1,3.7,4.47c0,3.67-2.75,5-6.27,5Zm3.54-10.84h2.16a1.83,1.83,0,1,0-.1-3.65h-2.06Zm2.16,3.18h-2.16v4.17h2.19c1.62,0,2.52-.85,2.52-2.09S1016.14,877.56,1014.49,877.56Z"/><path class="h" d="M1023.25,878.67c0-4.42,2.5-6.81,6.3-6.81s6.3,2.39,6.3,6.81-2.5,6.81-6.3,6.81S1023.25,883.09,1023.25,878.67Zm3.76,0c0,2.39,1,3.54,2.54,3.54s2.54-1.15,2.54-3.54-1-3.55-2.54-3.55S1027,876.28,1027,878.67Z"/><path class="h" d="M1042.5,881.6a.57.57,0,0,0,.59.61,2.28,2.28,0,0,0,1-.23l.74,3a6.83,6.83,0,0,1-2.44.52c-2.24,0-3.6-1.24-3.6-3.88V866.46l3.7-.51Z"/><path class="h" d="M1054.38,884.35a4.56,4.56,0,0,1-3.06,1.13c-3.7,0-5.45-2.85-5.45-6.81s1.77-6.81,5.68-6.81a9,9,0,0,1,2.67.38v-5.78l3.7-.51v19.27H1055l-.51-.87Zm-4.76-5.68c0,2.29.88,3.54,2.47,3.54a3.22,3.22,0,0,0,2.13-1v-5.65a5.42,5.42,0,0,0-2.23-.49C1050.57,875.12,1049.62,876.38,1049.62,878.67Z"/><path class="h" d="M841.63,902.94l5.65-7.71h2.57l-6.14,8.51,6.68,9.48-2.52.26-6.24-8.58h-2v8.32h-2.26v-18h2.26v7.71Z"/><path class="h" d="M853.94,907.29c.2,2.85,1.54,4.47,4.14,4.47a6.91,6.91,0,0,0,3.36-.93l.75,1.54a8.83,8.83,0,0,1-4.37,1.11c-3.65,0-6.14-2.52-6.14-6.81,0-4.06,2.08-6.81,5.78-6.81,3.52,0,5.27,2.06,5.27,5.27a11.53,11.53,0,0,1-.23,2.16Zm0-1.57h6.76c0-.21,0-.39,0-.59,0-2.06-1.08-3.55-3.21-3.55S854.07,903.28,853.94,905.72Z"/><path class="h" d="M874.24,900.12l-.52,1.72h-5.24v11.38h-2.16v-13.1Z"/><path class="h" d="M886.37,900.12v13.1h-2.16V901.84h-4.06v1.08c0,7-1.16,10.43-3.93,10.43a3.68,3.68,0,0,1-1.72-.46l.61-1.67a1.75,1.75,0,0,0,1,.31c1.36,0,2-2.55,2-9.23v-2.18Z"/><path class="h" d="M895.72,904.9c2.83,0,4.68,1.54,4.68,4.18s-1.85,4.14-4.68,4.14h-5v-13.1h2.16v4.78Zm-2.82,1.72v4.88h2.56c1.67,0,2.73-.9,2.73-2.44s-1.06-2.44-2.73-2.44Z"/><path class="h" d="M914.84,896.93a7.9,7.9,0,0,0-3.93,1.28l-.95-1.72a10.16,10.16,0,0,1,5.37-1.51c3.16,0,4.85,1.8,4.85,4.93,0,4.32-4.23,8.79-7.32,11.26v.1h7.84l-.52,2H909.65v-1.69c3.62-2.83,8.25-7.43,8.25-11.41C917.9,898.09,917,896.93,914.84,896.93Z"/><path class="h" d="M929.57,913.48c-4,0-6.17-3.16-6.17-9.25s2.21-9.25,6.17-9.25,6.16,3.16,6.16,9.25S933.52,913.48,929.57,913.48Zm0-2c2.36,0,3.88-2.16,3.88-7.3s-1.52-7.3-3.88-7.3-3.89,2.16-3.89,7.3S927.2,911.53,929.57,911.53Z"/><path class="h" d="M945.57,895.23v16h4.3v2H938.56v-2h4.83V897.19H939l.51-2Z"/><path class="h" d="M970.06,913.22h-2.15V901.84h-5.74v11.38H960v-13.1h10Z"/><path class="h" d="M972.89,900.12h10.84l-.51,1.72h-3.91v11.38h-2.13V901.84h-4.29Z"/><path class="h" d="M993.91,903.82a1.57,1.57,0,1,1-1.57,1.56A1.59,1.59,0,0,1,993.91,903.82Z"/><path class="h" d="M1012,897.19v16h-2.26v-16h-5.47v-2h13.23l-.52,2Z"/><path class="h" d="M1019.61,912.55v5.81l-2.16.52V900.12h1.39l.51,1.64h.1a5.21,5.21,0,0,1,4.12-1.9c3.36,0,5.16,2.77,5.16,6.81s-1.62,6.81-5.52,6.81A6.92,6.92,0,0,1,1019.61,912.55Zm6.91-5.88c0-3-1.26-5.09-3.62-5.09a4.45,4.45,0,0,0-3.29,1.95v7a5.33,5.33,0,0,0,3.29,1.19C1025.26,911.76,1026.52,909.91,1026.52,906.67Z"/><path class="h" d="M1033.82,907.29c.2,2.85,1.54,4.47,4.14,4.47a6.91,6.91,0,0,0,3.36-.93l.75,1.54a8.83,8.83,0,0,1-4.37,1.11c-3.65,0-6.14-2.52-6.14-6.81,0-4.06,2.08-6.81,5.78-6.81,3.52,0,5.27,2.06,5.27,5.27a11.53,11.53,0,0,1-.23,2.16Zm0-1.57h6.76c0-.21,0-.39,0-.59,0-2.06-1.08-3.55-3.21-3.55S1034,903.28,1033.82,905.72Z"/><path class="h" d="M1048.36,907.34v5.88h-2.15v-13.1h2.15v5.5h1.85l3.78-5.5h2.31l-4.34,6.32,4.6,6.78-2.21.26-4.16-6.14Z"/><path class="h" d="M1059.13,913.22v-13.1h2.16v9.43h.1l6.81-9.43h1.88v13.1h-2.16v-9.48h-.1l-6.81,9.48Z"/><path class="h" d="M1084.7,913.22h-2.16v-5.88h-5.94v5.88h-2.15v-13.1h2.15v5.5h5.94v-5.5h2.16Z"/><path class="h" d="M1097,900.12l-.51,1.72h-5.24v11.38h-2.16v-13.1Z"/><path class="h" d="M1114.56,897.19h-9.23l.52-2h10.92v1.7l-6.3,16.29h-2.21Z"/><path class="h" d="M1131,907.49c0,4-2.52,6-5.88,6A8.73,8.73,0,0,1,1120,912l1-1.72a6.58,6.58,0,0,0,4,1.29c2.15,0,3.77-1.34,3.77-4a3.74,3.74,0,0,0-4.06-4,12.59,12.59,0,0,0-3.67.66v-8.89h9.35l-.51,2h-6.66v4.62a10,10,0,0,1,2.06-.2C1128.61,901.61,1131,903.64,1131,907.49Z"/><path class="i" d="M835,110.11v-3.49h2.69v-11H835v-3.5h9.32l-.51,3.5h-2.31v11h2.7v3.49Z"/><path class="i" d="M846.62,100.55c0-2.31,2-3.8,4.78-3.8a11.13,11.13,0,0,1,4.4.9l-1.31,3a7.92,7.92,0,0,0-2.91-.62c-.82,0-1.31.26-1.31.72s.44.85,1.67,1.24c1.9.59,4.17,1.8,4.17,4.34s-2,4.06-5.09,4.06a12.31,12.31,0,0,1-4.68-.92l1.31-3.06a8.93,8.93,0,0,0,3.29.72c.9,0,1.52-.41,1.52-1,0-.75-.93-1.08-2.21-1.46C848.68,104.2,846.62,103.38,846.62,100.55Z"/><path class="i" d="M861.76,105a3,3,0,0,0,3.08,2.16,7.28,7.28,0,0,0,3.06-.8l1.34,3a10.59,10.59,0,0,1-4.65,1.11c-3.81,0-6.69-2.39-6.69-6.81s2.39-6.81,6.2-6.81c3.57,0,5.62,2.21,5.62,5.4a12.26,12.26,0,0,1-.28,2.8Zm4.6-2.85a2,2,0,0,0-2.21-2.09,2.34,2.34,0,0,0-2.47,2.09Z"/><path class="i" d="M876.66,106.18c0,.7.49.93,1.13.93a9,9,0,0,0,2.14-.31l.74,3.11a11.81,11.81,0,0,1-3.18.46c-2.37,0-4.53-1-4.53-4.19v-5.91h-2V97h2V93.46l3.7-.51V97h3.73l-.51,3.26h-3.22Z"/><path class="i" d="M888.92,96.75c0-3.21,2.36-4.88,6.09-4.88a11.14,11.14,0,0,1,5.4,1.39l-1.83,3a6.89,6.89,0,0,0-3.57-1c-1.34,0-2.18.54-2.18,1.39,0,1.16,1.31,1.9,2.72,2.47,2.83,1.1,5.42,2.67,5.42,6,0,3.19-2.49,5.14-6.52,5.14a10.76,10.76,0,0,1-5.94-1.59l2.08-3.09a6.4,6.4,0,0,0,3.86,1.19c1.43,0,2.62-.75,2.62-1.83,0-1.36-1.29-2-3.09-2.7C891.67,101.45,888.92,99.89,888.92,96.75Z"/><path class="i" d="M910.25,109.11a4.45,4.45,0,0,1-3,1.13c-2.5,0-4.32-1.31-4.32-4,0-2.49,2-4,4.86-4H910v-.77c0-.92-.59-1.52-1.82-1.52a10.5,10.5,0,0,0-3.45.65l-1.13-3.06a14.11,14.11,0,0,1,4.89-.85c4,0,5.21,2.11,5.21,4.83v4.47a.83.83,0,0,0,.93.93h.28v2.72a4.55,4.55,0,0,1-2.08.54,2.66,2.66,0,0,1-2.47-1.13Zm-2.62-1.85a3.68,3.68,0,0,0,2.36-.9V105h-2.23c-.88,0-1.44.48-1.44,1.18S906.86,107.26,907.63,107.26Z"/><path class="i" d="M920.91,110.11h-3.7V97h2.93l.52.87h.1a5.14,5.14,0,0,1,3.16-1.13c2.75,0,4.34,1.8,4.34,5.24v8.12h-3.7V102c0-1.41-.59-2-1.51-2a2.91,2.91,0,0,0-2.14,1.31Z"/><path class="i" d="M931,100.55c0-2.31,2-3.8,4.78-3.8a11.12,11.12,0,0,1,4.39.9l-1.31,3A7.83,7.83,0,0,0,936,100c-.83,0-1.31.26-1.31.72s.43.85,1.67,1.24c1.9.59,4.16,1.8,4.16,4.34s-2,4.06-5.09,4.06a12.39,12.39,0,0,1-4.68-.92l1.32-3.06a8.87,8.87,0,0,0,3.28.72c.9,0,1.52-.41,1.52-1,0-.75-.92-1.08-2.21-1.46C933,104.2,931,103.38,931,100.55Z"/><path class="i" d="M949.36,96.75c0-3.21,2.36-4.88,6.09-4.88a11.14,11.14,0,0,1,5.4,1.39l-1.83,3a6.91,6.91,0,0,0-3.57-1c-1.34,0-2.18.54-2.18,1.39,0,1.16,1.31,1.9,2.72,2.47,2.83,1.1,5.42,2.67,5.42,6,0,3.19-2.49,5.14-6.52,5.14a10.76,10.76,0,0,1-5.94-1.59l2.08-3.09a6.4,6.4,0,0,0,3.86,1.19c1.43,0,2.62-.75,2.62-1.83,0-1.36-1.29-2-3.09-2.7C952.11,101.45,949.36,99.89,949.36,96.75Z"/><path class="i" d="M967.32,105a3,3,0,0,0,3.09,2.16,7.2,7.2,0,0,0,3.05-.8l1.34,3a10.59,10.59,0,0,1-4.65,1.11c-3.8,0-6.68-2.39-6.68-6.81s2.39-6.81,6.19-6.81c3.57,0,5.63,2.21,5.63,5.4A12.85,12.85,0,0,1,975,105Zm4.6-2.85a2,2,0,0,0-2.21-2.09,2.35,2.35,0,0,0-2.47,2.09Z"/><path class="i" d="M987.7,97.93a6.42,6.42,0,0,1,3.75-1.18c3.09,0,4.6,1.8,4.6,5.24v8.12h-3.7V102c0-1.41-.59-2-1.51-2a2.85,2.85,0,0,0-1.91,1v9.09h-3.7V102c0-1.41-.56-2-1.41-2a2.72,2.72,0,0,0-2,1.31v8.79h-3.7V97h2.93l.51.87h.1a4.93,4.93,0,0,1,3.06-1.13A3.83,3.83,0,0,1,987.7,97.93Z"/><path class="i" d="M998.24,100.27l.51-3.26h5.14v13.1h-3.7v-9.84Zm3.8-9.17a2.07,2.07,0,0,1,2.11,2.08,2.11,2.11,0,0,1-4.22,0A2.07,2.07,0,0,1,1002,91.1Z"/><path class="i" d="M1007.49,110.11v-18h5.88c3.21,0,5.63,1.19,5.63,4.32a4,4,0,0,1-3.06,4.11v.11a4.31,4.31,0,0,1,3.7,4.47c0,3.67-2.75,5-6.27,5ZM1011,99.27h2.16a1.83,1.83,0,1,0-.1-3.65H1011Zm2.16,3.19H1011v4.16h2.19c1.62,0,2.51-.85,2.51-2.08S1014.84,102.46,1013.19,102.46Z"/><path class="i" d="M1022,103.56c0-4.42,2.5-6.81,6.3-6.81s6.3,2.39,6.3,6.81-2.5,6.81-6.3,6.81S1022,108,1022,103.56Zm3.76,0c0,2.39,1,3.55,2.54,3.55s2.54-1.16,2.54-3.55-1-3.55-2.54-3.55S1025.71,101.17,1025.71,103.56Z"/><path class="i" d="M1041.2,106.49a.58.58,0,0,0,.59.62,2.35,2.35,0,0,0,1-.23l.75,3a7,7,0,0,1-2.44.51c-2.24,0-3.6-1.23-3.6-3.88V91.36l3.7-.52Z"/><path class="i" d="M1053.07,109.24a4.51,4.51,0,0,1-3,1.13c-3.7,0-5.45-2.85-5.45-6.81s1.77-6.81,5.68-6.81a8.65,8.65,0,0,1,2.67.39V91.36l3.7-.52v19.27h-2.93l-.51-.87Zm-4.75-5.68c0,2.29.87,3.55,2.47,3.55a3.29,3.29,0,0,0,2.13-1V100.5a5.43,5.43,0,0,0-2.24-.49C1049.27,100,1048.32,101.27,1048.32,103.56Z"/><path class="i" d="M840.33,127.83l5.65-7.71h2.57l-6.14,8.51,6.68,9.48-2.52.26-6.24-8.58h-2v8.32h-2.26v-18h2.26v7.71Z"/><path class="i" d="M852.64,132.18c.2,2.85,1.54,4.47,4.13,4.47a6.92,6.92,0,0,0,3.37-.93l.75,1.54a8.83,8.83,0,0,1-4.37,1.11c-3.65,0-6.14-2.52-6.14-6.81,0-4.06,2.08-6.81,5.78-6.81,3.52,0,5.27,2.06,5.27,5.27a10.65,10.65,0,0,1-.24,2.16Zm0-1.57h6.76c0-.21,0-.39,0-.59,0-2.06-1.08-3.55-3.21-3.55S852.77,128.17,852.64,130.61Z"/><path class="i" d="M872.94,125l-.52,1.72h-5.24v11.38H865V125Z"/><path class="i" d="M885.07,125v13.1h-2.16V126.73h-4.06v1.08c0,7-1.16,10.43-3.93,10.43a3.64,3.64,0,0,1-1.73-.46l.62-1.67a1.75,1.75,0,0,0,1,.31c1.36,0,2-2.55,2-9.23V125Z"/><path class="i" d="M894.42,129.79c2.83,0,4.68,1.54,4.68,4.19s-1.85,4.13-4.68,4.13h-5V125h2.15v4.78Zm-2.83,1.72v4.88h2.57c1.67,0,2.73-.9,2.73-2.44s-1.06-2.44-2.73-2.44Z"/><path class="i" d="M919.4,132.38c0,4-2.52,6-5.89,6a8.72,8.72,0,0,1-5.16-1.52l1-1.72a6.55,6.55,0,0,0,4,1.29c2.16,0,3.78-1.34,3.78-4a3.74,3.74,0,0,0-4.06-4,12.22,12.22,0,0,0-3.67.67v-8.9h9.35l-.51,2h-6.66v4.62a9.91,9.91,0,0,1,2.06-.2C917,126.5,919.4,128.53,919.4,132.38Z"/><path class="i" d="M927.93,121.82a7.89,7.89,0,0,0-3.93,1.29l-1-1.73a10.16,10.16,0,0,1,5.37-1.51c3.16,0,4.85,1.8,4.85,4.93,0,4.32-4.24,8.79-7.32,11.26v.1h7.84l-.52,2H922.74v-1.69C926.36,133.59,931,129,931,125,931,123,930.11,121.82,927.93,121.82Z"/><path class="i" d="M939.93,128.37a4.73,4.73,0,0,1,3.47-1.43c2.9,0,5,2.08,5,5.7a5.37,5.37,0,0,1-5.73,5.73c-3.63,0-5.71-2.72-5.71-6.76a12.39,12.39,0,0,1,9.15-11.74l.74,1.57a10.87,10.87,0,0,0-7,6.88Zm2.78,8c2,0,3.44-1.31,3.44-3.78s-1.39-3.75-3.44-3.75a4,4,0,0,0-3.5,2.72C939.21,134.49,940.39,136.42,942.71,136.42Z"/><path class="i" d="M968.76,138.11H966.6V126.73h-5.73v11.38h-2.15V125h10Z"/><path class="i" d="M971.59,125h10.84l-.51,1.72H978v11.38h-2.13V126.73h-4.29Z"/><path class="i" d="M992.61,128.71a1.57,1.57,0,1,1-1.57,1.57A1.59,1.59,0,0,1,992.61,128.71Z"/><path class="i" d="M1013,133l4-12.85h3.21l1.67,18h-2.26l-1.39-15.21h-.1L1014,135.75h-2.19l-4.14-12.85h-.1l-1.39,15.21h-2.26l1.67-18h3.21l4,12.85Z"/><path class="i" d="M1032.72,129.53c0-1.88-.64-3.06-3-3.06a9.88,9.88,0,0,0-3.6.72l-.59-1.59a12.11,12.11,0,0,1,4.5-.85c4,0,4.83,2.06,4.83,4.78v6.06a.83.83,0,0,0,.93.93h.28V138a3.3,3.3,0,0,1-1.29.26,1.77,1.77,0,0,1-1.82-1.77h-.1a4.91,4.91,0,0,1-4,1.77c-2.44,0-4.06-1.18-4.06-3.85,0-2.5,1.93-3.88,4.83-3.88h3Zm-3.13,2.62c-1.6,0-2.65.77-2.65,2.26a2,2,0,0,0,2.24,2.19,4.32,4.32,0,0,0,3.54-1.85v-2.6Z"/><path class="i" d="M1048.14,137.6a8.63,8.63,0,0,1-3.6.77c-4.24,0-6.14-3-6.14-6.81s1.78-6.81,6-6.81a9.48,9.48,0,0,1,3.6.72l-.61,1.59a7.48,7.48,0,0,0-2.83-.59c-2.54,0-4,2.06-4,5.09s1.39,5.09,3.93,5.09a8.4,8.4,0,0,0,3-.64Z"/><path class="i" d="M1067,138.11h-15.72V125h2.15v11.38H1058V125h2.14v11.38h4.62V125H1067Z"/><path class="i" d="M1069.78,125h10.84l-.51,1.72h-3.91v11.38h-2.13V126.73h-4.29Z"/><path class="i" d="M1090,129.53c0-1.88-.65-3.06-3-3.06a9.79,9.79,0,0,0-3.6.72l-.59-1.59a12,12,0,0,1,4.5-.85c4,0,4.83,2.06,4.83,4.78v6.06a.83.83,0,0,0,.92.93h.28V138a3.21,3.21,0,0,1-1.28.26,1.77,1.77,0,0,1-1.83-1.77h-.1a4.91,4.91,0,0,1-4,1.77c-2.44,0-4.06-1.18-4.06-3.85,0-2.5,1.93-3.88,4.83-3.88h3Zm-3.14,2.62c-1.59,0-2.64.77-2.64,2.26a2,2,0,0,0,2.23,2.19,4.34,4.34,0,0,0,3.55-1.85v-2.6Z"/><path class="i" d="M1098,127.35a6.4,6.4,0,0,1,4.55-2c3.21,0,5.29,2.14,5.29,6.5s-2.42,6.48-6.06,6.48c-4.24,0-5.91-3.24-5.91-8.4,0-8.28,2.18-9.79,6.42-10.18a12.45,12.45,0,0,0,4.14-1l.64,1.72a12.45,12.45,0,0,1-4.55,1.06c-2.93.25-4.6,1.74-4.6,5.73Zm3.78,9.3c2.31,0,3.85-1.57,3.85-4.76s-1.41-4.77-3.55-4.77a5,5,0,0,0-4.06,2.74C1098,134.39,1099.07,136.65,1101.75,136.65Z"/><path class="i" d="M1126.67,122.08h-9.22l.51-2h10.92v1.7l-6.29,16.29h-2.21Z"/><path class="i" d="M1136.92,138.37a8.54,8.54,0,0,1-5.08-1.52l1.05-1.72a6.21,6.21,0,0,0,3.85,1.29c2.29,0,3.86-1.19,3.86-3.83s-1.62-3.86-4-3.86h-.77v-.9l3.83-5.65v-.1h-7.27l.51-2h9.15v1.7l-3.62,5.37v.1a4.89,4.89,0,0,1,4.42,5.3C1142.89,136.54,1140.19,138.37,1136.92,138.37Z"/><path class="i" d="M1150.18,128.61c-2.44,0-4-1.6-4-4.37s1.51-4.37,4-4.37,4,1.59,4,4.37S1152.63,128.61,1150.18,128.61Zm10.49-8.49h1.85l-13.36,18h-1.9ZM1148,124.24c0,1.87.69,2.93,2.15,2.93s2.16-1.06,2.16-2.93-.69-2.93-2.16-2.93S1148,122.36,1148,124.24Zm11.58,14.13c-2.44,0-3.95-1.59-3.95-4.37s1.51-4.37,3.95-4.37,4,1.6,4,4.37S1162.06,138.37,1159.61,138.37Zm-2.15-4.37c0,1.88.69,2.93,2.15,2.93s2.16-1.05,2.16-2.93-.69-2.93-2.16-2.93S1157.46,132.12,1157.46,134Z"/><path class="e" d="M121.11,19.25c0,5.39-3.86,7.91-8.3,7.91a12.32,12.32,0,0,1-7.11-2.07l1.79-2.94a8.45,8.45,0,0,0,5.07,1.65c2.7,0,4.73-1.4,4.73-4.52s-2.1-4.55-4.87-4.55H110.6V12.84l5.25-7V5.67h-9.34l.7-3.37H120v3L115,12v.1C118.31,12.63,121.11,14.52,121.11,19.25Z"/><path class="e" d="M132.62,27.16c-5.39,0-8.58-4.31-8.58-12.6S127.23,2,132.62,2s8.58,4.3,8.58,12.6S138,27.16,132.62,27.16Zm0-3.36c2.8,0,4.76-2.73,4.76-9.24s-2-9.24-4.76-9.24-4.76,2.72-4.76,9.24S129.82,23.8,132.62,23.8Z"/><path class="e" d="M1225.74,19.6c0,5.39-3.86,7.91-8.3,7.91a12.32,12.32,0,0,1-7.11-2.07l1.79-2.94a8.45,8.45,0,0,0,5.07,1.65c2.7,0,4.73-1.4,4.73-4.52s-2.1-4.55-4.87-4.55h-1.82V13.19l5.25-7V6h-9.34l.7-3.36h12.81v3l-5,6.65v.1C1222.94,13,1225.74,14.87,1225.74,19.6Z"/><path class="e" d="M1237.25,27.51c-5.39,0-8.58-4.31-8.58-12.6s3.19-12.61,8.58-12.61,8.58,4.31,8.58,12.61S1242.64,27.51,1237.25,27.51Zm0-3.36c2.8,0,4.76-2.73,4.76-9.24s-2-9.24-4.76-9.24-4.76,2.72-4.76,9.24S1234.45,24.15,1237.25,24.15Z"/><rect class="g" x="80.13" y="43.08" width="85.04" height="907.69"/></svg>