<?xml version="1.0" encoding="UTF-8"?><svg xmlns="http://www.w3.org/2000/svg" xmlns:xlink="http://www.w3.org/1999/xlink" viewBox="0 0 735.633 975.319"><defs><style>.eo,.ep,.eq,.er,.es,.et,.eu{fill:none;}.eo,.ep,.eq,.es,.et{stroke:#a9b1bc;}.eo,.ep,.eq,.es,.et,.eu{stroke-linejoin:round;}.eo,.ep,.eu{stroke-linecap:round;}.ep,.es{stroke-width:3px;}.er,.ev,.ew,.ex,.ey{stroke-width:0px;}.ez{filter:url(#ef);}.fa{filter:url(#ej);}.fb{filter:url(#ed);}.ev{filter:url(#eh);}.ev,.ey{fill:#040405;}.fc{clip-path:url(#b);}.fd{clip-path:url(#cl);}.et{stroke-width:2px;}.eu{stroke:#595959;stroke-width:.4px;}.ew{fill:#424343;}.ex{fill:#231300;}</style><clipPath id="b"><path class="er" d="m761.715,975.319H0V452.426C253.905,307.915,507.81,163.404,761.715,18.894v956.426Z"/></clipPath><clipPath id="cl"><path class="er" d="m-74.71,975.319h-761.715V452.426C-582.521,307.915-328.615,163.404-74.71,18.894v956.426Z"/></clipPath><filter id="ed" filterUnits="userSpaceOnUse"><feOffset dx="-2.835" dy="-1.134"/><feGaussianBlur result="ee" stdDeviation="2.268"/><feFlood flood-color="#231300" flood-opacity=".4"/><feComposite in2="ee" operator="in"/><feComposite in="SourceGraphic"/></filter><filter id="ef" filterUnits="userSpaceOnUse"><feOffset dx="-2.268" dy="-1.134"/><feGaussianBlur result="eg" stdDeviation="2.268"/><feFlood flood-color="#231300" flood-opacity=".4"/><feComposite in2="eg" operator="in"/><feComposite in="SourceGraphic"/></filter><filter id="eh" filterUnits="userSpaceOnUse"><feOffset dx="-2.268" dy="-1.134"/><feGaussianBlur result="ei" stdDeviation="2.268"/><feFlood flood-color="#231300" flood-opacity=".4"/><feComposite in2="ei" operator="in"/><feComposite in="SourceGraphic"/></filter><filter id="ej" filterUnits="userSpaceOnUse"><feOffset dx="-2.268" dy="-1.134"/><feGaussianBlur result="ek" stdDeviation="2.268"/><feFlood flood-color="#231300" flood-opacity=".4"/><feComposite in2="ek" operator="in"/><feComposite in="SourceGraphic"/></filter></defs><g id="a"><g class="fc"><path id="c" class="es" d="m1299.636-1642.162v23.297l-14.577,8.416V-254.148l59.032-34.082V178.125S37.777,932.326,37.777,932.326v-466.355s59.033-34.083,59.033-34.083V-924.413s-14.577,8.416-14.577,8.416v-23.297s1217.404-702.869,1217.404-702.869Z"/><g id="d"><polygon id="e" class="eq" points="96.811 431.886 96.811 -924.416 1285.058 -1610.45 1285.058 -254.149 96.811 431.886"/></g><g id="f"><polygon id="g" class="eq" points="365.243 276.91 365.243 -948.838 382.219 -958.639 382.219 267.109 365.243 276.91"/></g><g id="h"><polygon id="i" class="eq" points="471.24 215.713 471.24 -1010.035 488.215 -1019.836 488.215 205.912 471.24 215.713"/></g><g id="j"><polygon id="k" class="eq" points="577.239 154.514 577.239 -1071.234 594.214 -1081.035 594.214 144.713 577.239 154.514"/></g><g id="l"><polygon id="m" class="eq" points="683.238 93.315 683.238 -1132.433 700.214 -1142.234 700.214 83.514 683.238 93.315"/></g><g id="n"><path id="o" class="eq" d="m360.864-41.559L280.594,4.784v-171.857s80.27-46.344,80.27-46.344V-41.559Zm4.376-179.433l-89.022,51.397V12.367l89.022-51.397v-181.963Z"/></g><g id="p"><path id="q" class="eq" d="m360.864-41.559L280.594,4.784v-171.857s80.27-46.344,80.27-46.344V-41.559Zm4.376-179.433l-89.022,51.397V12.367l89.022-51.397v-181.963Z"/></g><g id="r"><path id="s" class="eq" d="m360.864,140.403l-80.27,46.344V14.889l80.27-46.344v171.857Zm4.376-179.436l-89.022,51.397v181.963l89.022-51.397V-39.033Z"/></g><g id="t"><path id="u" class="eq" d="m360.864,140.403l-80.27,46.344V14.889l80.27-46.344v171.857Zm4.376-179.436l-89.022,51.397v181.963l89.022-51.397V-39.033Z"/></g><g id="v"><polygon id="w" class="et" points="37.776 695.152 37.776 465.969 276.219 328.303 276.219 557.486 37.776 695.152"/></g><g id="x"><polygon id="y" class="et" points="37.779 695.15 37.779 465.967 1344.093 -288.233 1344.093 -59.051 37.779 695.15"/></g><g id="z"><polygon id="aa" class="eq" points="37.779 481.665 37.779 465.968 1344.093 -288.233 1344.093 -272.536 37.779 481.665"/></g><line class="eo" x1="320.729" y1="-13.334" x2="320.729" y2="168.629"/><line class="eo" x1="276.219" y1="73.018" x2="365.24" y2="21.622"/><g id="ab"><polygon id="ac" class="eq" points="37.776 638.45 37.776 522.674 276.219 385.009 276.219 500.784 37.776 638.45"/></g><line class="eo" x1="276.219" y1="133.671" x2="365.24" y2="82.275"/><g id="ad"><path id="ae" class="eq" d="m466.864,79.204l-80.27,46.344V-46.31l80.27-46.344V79.204Zm4.376-179.436l-89.022,51.397v181.963l89.022-51.397V-100.232Z"/></g><g id="af"><path id="ag" class="eq" d="m466.864,79.204l-80.27,46.344V-46.31l80.27-46.344V79.204Zm4.376-179.436l-89.022,51.397v181.963l89.022-51.397V-100.232Z"/></g><line class="eo" x1="426.728" y1="-74.532" x2="426.728" y2="107.431"/><g id="ah"><path id="ai" class="eq" d="m360.864,274.382l-80.27,46.344v-123.873s80.27-46.344,80.27-46.344v123.873Zm4.376-131.453l-89.022,51.397v133.978l89.022-51.397v-133.978Z"/></g><line class="eo" x1="382.217" y1="11.82" x2="471.238" y2="-39.577"/><line class="eo" x1="320.729" y1="302.607" x2="320.729" y2="168.629"/><line class="eo" x1="276.219" y1="254.979" x2="365.24" y2="203.583"/><line class="eo" x1="382.217" y1="72.473" x2="471.238" y2="21.077"/><g id="aj"><path id="ak" class="eq" d="m572.864,18.005l-80.27,46.344V-107.509l80.27-46.344V18.005Zm4.376-179.436l-89.022,51.397V71.929l89.022-51.397v-181.963Z"/></g><g id="al"><path id="am" class="eq" d="m572.864,18.005l-80.27,46.344V-107.509l80.27-46.344V18.005Zm4.376-179.436l-89.022,51.397V71.929l89.022-51.397v-181.963Z"/></g><g id="an"><polygon id="ao" class="et" points="37.779 924.333 37.779 695.15 62.645 680.794 62.645 909.976 37.779 924.333"/></g><line class="eo" x1="532.727" y1="-135.731" x2="532.727" y2="46.232"/><g id="ap"><path id="aq" class="eq" d="m466.864,213.183l-80.27,46.344v-123.873s80.27-46.344,80.27-46.344v123.873Zm4.376-131.453l-89.022,51.397v133.978l89.022-51.397V81.73Z"/></g><line class="eo" x1="426.728" y1="241.409" x2="426.728" y2="107.431"/><line class="eo" x1="382.217" y1="193.781" x2="471.238" y2="142.385"/><line class="eo" x1="488.216" y1="11.275" x2="577.237" y2="-40.122"/><g id="ar"><path id="as" class="eq" d="m678.86-43.192L598.59,3.152v-171.857s80.27-46.344,80.27-46.344V-43.192Zm4.376-179.436l-89.022,51.397V10.732s89.022-51.397,89.022-51.397v-181.963Z"/></g><g id="at"><path id="au" class="eq" d="m678.86-43.192L598.59,3.152v-171.857s80.27-46.344,80.27-46.344V-43.192Zm4.376-179.436l-89.022,51.397V10.732s89.022-51.397,89.022-51.397v-181.963Z"/></g><g id="av"><polygon id="aw" class="eq" points="276.219 500.784 276.219 385.009 1105.65 -93.863 1105.65 21.912 276.219 500.784"/></g><g id="ax"><path id="ay" class="eq" d="m195.004,799.792l-76.01,43.885v-153.017s76.01-43.885,76.01-43.885v153.017Zm4.376-160.592l-84.762,48.937v163.123l84.762-48.937v-163.123Z"/></g><g id="az"><path id="ba" class="eq" d="m357.895,436.328l-60.736,35.066v-81.174l60.736-35.066v81.174Zm4.376-88.753l-69.488,40.119v91.279s69.488-40.119,69.488-40.119v-91.279Z"/></g><g id="bb"><path id="bc" class="eq" d="m572.864,151.984l-80.27,46.344v-123.873s80.27-46.344,80.27-46.344v123.873Zm4.376-131.453l-89.022,51.397v133.978l89.022-51.397V20.531Z"/></g><line class="eo" x1="114.616" y1="722.753" x2="199.378" y2="673.816"/><line class="eo" x1="532.727" y1="180.211" x2="532.727" y2="46.232"/><line class="eo" x1="156.997" y1="698.284" x2="156.997" y2="823.966"/><line class="eo" x1="488.216" y1="132.582" x2="577.237" y2="81.186"/><g id="bd"><polygon id="be" class="eq" points="62.642 895.621 62.642 881.264 251.35 772.314 251.35 786.67 62.642 895.621"/></g><g id="bf"><polygon id="bg" class="eq" points="62.642 909.981 62.642 895.625 251.35 786.674 251.35 801.031 62.642 909.981"/></g><g id="bh"><polygon id="bi" class="et" points="251.353 801.025 251.353 571.843 276.219 557.486 276.219 786.669 251.353 801.025"/></g><g id="bj"><path id="bk" class="eq" d="m461.724,376.383l-60.736,35.066v-81.174s60.736-35.066,60.736-35.066v81.174Zm4.376-88.753l-69.488,40.119v91.279l69.488-40.119v-91.279Z"/></g><g id="bl"><path id="bm" class="eq" d="m460.551,646.478l-179.956,103.898v-190.364l179.956-103.898v190.364Zm4.376-197.943l-188.708,108.951v200.469s188.708-108.951,188.708-108.951v-200.469Z"/></g><g id="bn"><path id="bo" class="eq" d="m678.86,90.787l-80.27,46.344V13.258l80.27-46.344v123.873Zm4.376-131.453l-89.022,51.397v133.978l89.022-51.397V-40.666Z"/></g><line class="eo" x1="276.219" y1="594.835" x2="464.927" y2="485.885"/><line class="eo" x1="323.395" y1="530.251" x2="323.395" y2="730.721"/><line class="eo" x1="638.725" y1="119.012" x2="638.725" y2="-14.966"/><line class="eo" x1="594.214" y1="71.384" x2="683.235" y2="19.988"/><g id="bp"><path id="bq" class="eq" d="m565.556,316.435l-60.736,35.066v-81.174l60.736-35.066v81.174Zm4.376-88.753l-69.488,40.119v91.279l69.488-40.119v-91.279Z"/></g><line class="eo" x1="370.572" y1="503.013" x2="370.572" y2="703.483"/><g id="br"><path id="bs" class="eq" d="m784.859,29.588l-80.27,46.344V-47.941l80.27-46.344V29.588Zm4.376-131.453l-89.022,51.397V83.51l89.022-51.397V-101.865Z"/></g><line class="eo" x1="276.219" y1="711.465" x2="464.927" y2="602.515"/><line class="eo" x1="417.749" y1="475.775" x2="417.749" y2="676.245"/><line class="eo" x1="700.213" y1="10.186" x2="789.234" y2="-41.21"/><g id="bt"><polygon id="bu" class="eq" points="276.219 786.668 276.219 757.955 464.927 649.005 464.927 677.717 276.219 786.668"/></g><g id="bv"><polygon id="bw" class="et" points="464.927 677.718 464.927 448.536 489.793 434.179 489.793 663.362 464.927 677.718"/></g><g id="bx"><path id="by" class="eq" d="m669.388,256.488l-60.736,35.066v-81.174s60.736-35.066,60.736-35.066v81.174Zm4.376-88.753l-69.488,40.119v91.279l69.488-40.119v-91.279Z"/></g><g id="bz"><path id="ca" class="eq" d="m674.125,523.171l-179.956,103.898v-190.364l179.956-103.898v190.364Zm4.376-197.943l-188.708,108.951v200.469s188.708-108.951,188.708-108.951v-200.469Z"/></g><line class="eo" x1="489.793" y1="471.528" x2="678.501" y2="362.577"/><line class="eo" x1="536.97" y1="406.943" x2="536.97" y2="607.413"/><g id="cb"><path id="cc" class="eq" d="m773.217,196.542l-60.736,35.066v-81.174s60.736-35.066,60.736-35.066v81.174Zm4.376-88.753l-69.488,40.119v91.279l69.488-40.119v-91.279Z"/></g><line class="eo" x1="584.147" y1="379.705" x2="584.147" y2="580.175"/><line class="eo" x1="489.793" y1="588.158" x2="678.501" y2="479.207"/><line class="eo" x1="631.324" y1="352.468" x2="631.324" y2="552.938"/><g id="cd"><polygon id="ce" class="eq" points="489.793 663.361 489.793 634.648 678.501 525.698 678.501 554.41 489.793 663.361"/></g><g id="cf"><polygon id="cg" class="et" points="678.501 554.411 678.501 325.229 703.367 310.872 703.367 540.055 678.501 554.411"/></g><g id="ch"><path id="ci" class="eq" d="m887.699,399.864l-179.956,103.898v-190.364l179.956-103.898v190.364Zm4.376-197.943l-188.708,108.951v200.469l188.708-108.951v-200.469Z"/></g><line class="eo" x1="703.368" y1="348.22" x2="892.076" y2="239.27"/><line class="eo" x1="703.368" y1="464.85" x2="892.076" y2="355.9"/><g id="cj"><polygon id="ck" class="eq" points="703.367 540.054 703.367 511.341 892.075 402.391 892.075 431.103 703.367 540.054"/></g><line class="ep" x1="-217.324" y1="785.044" x2="37.777" y2="932.326"/><line class="ep" x1="-217.324" y1="547.868" x2="37.777" y2="695.15"/><line class="ep" x1="-217.324" y1="318.689" x2="37.777" y2="465.971"/><line class="ep" x1="-158.291" y1="284.606" x2="96.809" y2="431.888"/></g><g class="fd"><path id="cm" class="es" d="m463.21-1642.162v23.297l-14.577,8.416V-254.148l59.032-34.082V178.125S-798.649,932.326-798.649,932.326v-466.355s59.033-34.083,59.033-34.083V-924.413s-14.577,8.416-14.577,8.416v-23.297S463.21-1642.162,463.21-1642.162Z"/><g id="cn"><polygon id="co" class="eq" points="-739.614 431.886 -739.614 -924.416 448.632 -1610.45 448.632 -254.149 -739.614 431.886"/></g><g id="cp"><polygon id="cq" class="et" points="-798.647 695.15 -798.647 465.967 507.667 -288.233 507.667 -59.051 -798.647 695.15"/></g><g id="cr"><polygon id="cs" class="eq" points="-798.647 481.665 -798.647 465.968 507.667 -288.233 507.667 -272.536 -798.647 481.665"/></g><g id="ct"><polygon id="cu" class="eq" points="-560.206 500.784 -560.206 385.009 269.224 -93.863 269.224 21.912 -560.206 500.784"/></g><g id="cv"><path id="cw" class="eq" d="m54.433-31.611L-25.837,14.733v-123.873l80.27-46.344V-31.611Zm4.376-131.453L-30.213-111.667V22.312L58.809-29.085v-133.978Z"/></g><g id="cx"><path id="cy" class="eq" d="m40.623,136.594l-60.736,35.066v-81.174l60.736-35.066v81.174Zm4.376-88.753L-24.489,87.961v91.279l69.488-40.119V47.842Z"/></g><g id="cz"><path id="da" class="eq" d="m51.274,399.864l-179.956,103.898v-190.364L51.274,209.501v190.364Zm4.376-197.943l-188.708,108.951v200.469l188.708-108.951v-200.469Z"/></g><line class="eo" x1="-133.058" y1="348.22" x2="55.65" y2="239.27"/><g id="db"><path id="dc" class="eq" d="m144.453,76.649l-60.736,35.066V30.541S144.453-4.525,144.453-4.525v81.174Zm4.376-88.753L79.341,28.015v91.279s69.488-40.119,69.488-40.119V-12.104Z"/></g><line class="eo" x1="-133.058" y1="464.85" x2="55.65" y2="355.9"/><line class="eo" x1="8.473" y1="229.161" x2="8.473" y2="429.631"/><g id="dd"><polygon id="de" class="eq" points="-133.058 540.054 -133.058 511.341 55.65 402.391 55.65 431.103 -133.058 540.054"/></g><g id="df"><path id="dg" class="eq" d="m248.285,16.701l-60.736,35.066V-29.406l60.736-35.066V16.701Zm4.376-88.753l-69.488,40.119V59.347s69.488-40.119,69.488-40.119v-91.279Z"/></g><g id="dh"><polygon id="di" class="eq" points="55.65 431.104 55.65 201.921 80.516 187.565 80.516 416.747 55.65 431.104"/></g><g id="dj"><polygon id="dk" class="eq" points="269.226 78.613 269.226 -150.57 507.667 -288.233 507.667 -59.051 269.226 78.613"/></g><g id="dl"><path id="dm" class="eq" d="m264.849,276.557l-179.956,103.898v-190.364l179.956-103.898v190.364Zm4.376-197.943l-188.708,108.951v200.469l188.708-108.951V78.614Z"/></g><line class="eo" x1="80.517" y1="224.913" x2="269.225" y2="115.962"/><g id="dn"><polygon id="do" class="eq" points="269.226 21.911 269.226 -93.865 507.667 -231.528 507.667 -115.753 269.226 21.911"/></g><line class="eo" x1="127.694" y1="160.329" x2="127.694" y2="360.798"/><line class="eo" x1="174.871" y1="133.091" x2="174.871" y2="333.561"/><line class="eo" x1="80.517" y1="341.543" x2="269.225" y2="232.592"/><line class="eo" x1="222.048" y1="105.853" x2="222.048" y2="306.323"/><g id="dp"><polygon id="dq" class="eq" points="80.516 416.747 80.516 388.034 269.224 279.083 269.224 307.796 80.516 416.747"/></g><g id="dr"><polygon id="ds" class="eq" points="269.227 307.795 269.227 78.613 294.093 64.256 294.093 293.439 269.227 307.795"/></g><g id="dt"><path id="du" class="eq" d="m426.453,183.255l-76.01,43.885V74.122l76.01-43.885v153.017Zm4.376-160.592l-84.762,48.937v163.123s84.762-48.937,84.762-48.937V22.662Z"/></g><line class="eo" x1="346.064" y1="106.216" x2="430.826" y2="57.279"/><line class="eo" x1="388.446" y1="81.747" x2="388.446" y2="207.429"/><g id="dv"><polygon id="dw" class="eq" points="294.09 279.083 294.09 264.727 482.798 155.776 482.798 170.133 294.09 279.083"/></g><g id="dx"><polygon id="dy" class="eq" points="294.09 293.444 294.09 279.087 482.798 170.137 482.798 184.493 294.09 293.444"/></g><g id="dz"><polygon id="ea" class="eq" points="482.801 184.488 482.801 -44.694 507.667 -59.051 507.667 170.132 482.801 184.488"/></g></g></g><g id="eb"><line class="eu" x1="103.132" y1="632.636" x2="107.448" y2="635.128"/><line class="eu" x1="103.132" y1="618.815" x2="107.448" y2="621.307"/><line class="eu" x1="109.461" y1="629.412" x2="113.777" y2="631.904"/><line class="eu" x1="109.024" y1="615.729" x2="113.34" y2="618.22"/><line class="eu" x1="116.302" y1="616.08" x2="120.618" y2="618.572"/><line class="eu" x1="126.453" y1="609.568" x2="130.768" y2="612.06"/><line class="eu" x1="126.453" y1="619.915" x2="130.768" y2="622.407"/><line class="eu" x1="132.382" y1="616.08" x2="136.698" y2="618.572"/><line class="eu" x1="132.382" y1="606.918" x2="136.698" y2="609.409"/><line class="eu" x1="137.981" y1="603.611" x2="142.297" y2="606.103"/><line class="eu" x1="143.155" y1="604.501" x2="147.47" y2="606.993"/><line class="eu" x1="147.95" y1="596.844" x2="152.266" y2="599.336"/><line class="eu" x1="159.641" y1="590.292" x2="163.957" y2="592.784"/><line class="eu" x1="155.466" y1="597.524" x2="159.782" y2="600.016"/><line class="eu" x1="166.853" y1="586.494" x2="171.169" y2="588.986"/><line class="eu" x1="172.486" y1="583.721" x2="176.802" y2="586.213"/><line class="eu" x1="178.265" y1="579.942" x2="182.58" y2="582.434"/><line class="eu" x1="182.528" y1="577.343" x2="186.844" y2="579.834"/><line class="eu" x1="176.723" y1="588.575" x2="181.039" y2="591.066"/><line class="eu" x1="198.812" y1="577.637" x2="203.128" y2="580.128"/><line class="eu" x1="198.812" y1="563.321" x2="203.128" y2="565.812"/><line class="eu" x1="166.853" y1="596.383" x2="171.169" y2="598.874"/><line class="eu" x1="150.273" y1="606.047" x2="154.589" y2="608.539"/><line class="eu" x1="116.302" y1="625.326" x2="120.618" y2="627.818"/><line class="eu" x1="316.534" y1="508.693" x2="320.85" y2="511.185"/><line class="eu" x1="316.534" y1="494.872" x2="320.85" y2="497.364"/><line class="eu" x1="322.863" y1="505.469" x2="327.179" y2="507.961"/><line class="eu" x1="322.426" y1="491.785" x2="326.742" y2="494.277"/><line class="eu" x1="329.705" y1="492.137" x2="334.021" y2="494.629"/><line class="eu" x1="339.855" y1="485.625" x2="344.171" y2="488.117"/><line class="eu" x1="339.855" y1="495.972" x2="344.171" y2="498.463"/><line class="eu" x1="345.785" y1="492.137" x2="350.101" y2="494.629"/><line class="eu" x1="345.785" y1="482.974" x2="350.101" y2="485.466"/><line class="eu" x1="351.384" y1="479.668" x2="355.7" y2="482.16"/><line class="eu" x1="356.557" y1="480.558" x2="360.873" y2="483.05"/><line class="eu" x1="361.353" y1="472.901" x2="365.669" y2="475.392"/><line class="eu" x1="373.044" y1="466.349" x2="377.36" y2="468.841"/><line class="eu" x1="368.869" y1="473.581" x2="373.185" y2="476.072"/><line class="eu" x1="380.256" y1="462.551" x2="384.572" y2="465.043"/><line class="eu" x1="385.889" y1="459.778" x2="390.205" y2="462.269"/><line class="eu" x1="391.667" y1="455.999" x2="395.983" y2="458.491"/><line class="eu" x1="395.931" y1="453.399" x2="400.247" y2="455.891"/><line class="eu" x1="390.126" y1="464.631" x2="394.441" y2="467.123"/><line class="eu" x1="412.214" y1="439.377" x2="416.53" y2="441.869"/><line class="eu" x1="380.256" y1="472.439" x2="384.572" y2="474.931"/><line class="eu" x1="363.676" y1="482.104" x2="367.992" y2="484.595"/><line class="eu" x1="329.705" y1="501.383" x2="334.021" y2="503.875"/><line class="eu" x1="530.242" y1="385.616" x2="534.558" y2="388.108"/><line class="eu" x1="530.242" y1="371.794" x2="534.558" y2="374.286"/><line class="eu" x1="536.571" y1="382.392" x2="540.887" y2="384.884"/><line class="eu" x1="536.134" y1="368.708" x2="540.45" y2="371.2"/><line class="eu" x1="543.413" y1="369.06" x2="547.729" y2="371.552"/><line class="eu" x1="553.563" y1="362.548" x2="557.879" y2="365.04"/><line class="eu" x1="553.563" y1="372.894" x2="557.879" y2="375.386"/><line class="eu" x1="559.493" y1="369.06" x2="563.809" y2="371.552"/><line class="eu" x1="559.493" y1="359.897" x2="563.809" y2="362.389"/><line class="eu" x1="565.092" y1="356.591" x2="569.408" y2="359.082"/><line class="eu" x1="570.265" y1="357.481" x2="574.581" y2="359.972"/><line class="eu" x1="575.061" y1="349.823" x2="579.377" y2="352.315"/><line class="eu" x1="586.752" y1="343.271" x2="591.068" y2="345.763"/><line class="eu" x1="582.577" y1="350.503" x2="586.892" y2="352.995"/><line class="eu" x1="593.964" y1="339.473" x2="598.28" y2="341.965"/><line class="eu" x1="599.597" y1="336.7" x2="603.913" y2="339.192"/><line class="eu" x1="607.281" y1="331.455" x2="611.597" y2="333.947"/><line class="eu" x1="610.364" y1="335.81" x2="614.68" y2="338.302"/><line class="eu" x1="604.929" y1="343.271" x2="609.245" y2="345.763"/><line class="eu" x1="624.782" y1="331.718" x2="629.098" y2="334.21"/><line class="eu" x1="624.782" y1="316.091" x2="629.098" y2="318.583"/><line class="eu" x1="593.734" y1="349.759" x2="598.05" y2="352.251"/><line class="eu" x1="577.384" y1="359.026" x2="581.7" y2="361.518"/><line class="eu" x1="543.413" y1="378.306" x2="547.729" y2="380.798"/><line class="eu" x1="408.439" y1="456.672" x2="412.755" y2="459.164"/><line class="eu" x1="415.282" y1="452.509" x2="419.598" y2="455.001"/></g><g id="ec"><polyline class="ex" points="142.978 604.251 143.931 604.737 143.642 605.357 142.637 605 142.978 604.251"/><polyline class="ex" points="154.671 597.451 155.584 597.931 155.517 598.373 154.303 597.665 154.671 597.451"/><polyline class="ew" points="187.497 578.276 188.552 578.846 188.356 579.468 187.497 579.093 187.497 578.276"/><g class="fb"><polygon class="ey" points="208.469 576.417 207.516 575.907 204.026 577.922 204.026 564.724 204.212 564.927 204.979 563.44 204.026 562.93 198.068 566.37 197.622 569.605 198.575 570.115 199.527 568.731 199.342 568.612 201.247 567.512 201.247 579.526 197.29 581.811 197.29 584.789 198.243 585.3 198.978 584.204 198.679 583.987 207.516 578.885 207.516 577.923 207.556 577.974 208.469 576.417"/><polygon class="ey" points="128.958 611.148 128.958 624.241 129.911 624.751 130.586 623.604 130.333 623.447 131.715 622.648 131.715 611.274 132.101 611.314 132.668 610.067 131.715 609.556 128.958 611.148"/><path class="ey" d="m151.275,598.006c-3.202,1.848-5.202,5.493-5.202,9.807,0,2.179.594,3.555,1.613,4.132l.006.01c.328.175.656.35.984.525.019-.079.037-.157.055-.236.839.059,1.841-.226,2.966-.876,1.445-.834,2.823-2.092,3.913-3.363l-.258-.522.254-.906-.953-.511c-.778.912-1.89,1.939-2.823,2.478-1.467.847-2.668.462-2.956-1.374l7.07-4.082c.089-.771.133-1.695.133-2.054,0-3.671-1.845-4.736-4.802-3.029Zm-2.356,6.7c.266-1.848,1.223-3.299,2.4-3.979,1.445-.834,2.246-.193,2.246,1.296l-4.646,2.682Z"/><path class="ey" d="m163.747,593.553c.733-.423,1.511-.719,2.201-.783l.506-1.723.495.115.841-.91-.953-.511c-.956.09-2.156.526-3.223,1.142-3.669,2.118-5.536,6.226-5.536,9.999,0,1.833.471,3.215,1.372,3.915l-.003.014.056.031c.146.107.304.193.471.264l.843.471.028-.277c.797.04,1.758-.229,2.879-.876,1.156-.668,2.268-1.566,3.224-2.606l-.243-.547.154-.043.153-.902-.953-.511c-.689.732-1.601,1.438-2.334,1.862-1.645.95-2.845,0-2.845-2.413s1.222-4.762,2.868-5.712Z"/><path class="ey" d="m189.377,586.739c-.489.282-.8.18-.8-.462v-4.98c0-2.721-.934-4.288-4.402-2.285-1.445.834-2.757,1.875-4.112,3.247l.822,2.093.953.511.258-1.609-.011-.005c.626-.536,1.238-.996,1.824-1.335,1.357-.783,1.913-.334,1.913.924v.873l-2.112,1.219c-2.513,1.451-4.247,3.864-4.247,6.38,0,1.449.403,2.239,1.113,2.464l.684.401.194-.374c.446-.084.955-.29,1.522-.617,1.29-.745,2.179-1.591,2.979-2.978l.09-.052c.076.133.169.234.272.315l-.052.042,1.064.515.44-.625c.09-.044.18-.088.276-.144.556-.321,1.245-.821,1.579-1.168v-1.441l.624.033.329-.572-.953-.511-.245.141Zm-3.557.899c-.6,1.142-1.489,2.143-2.402,2.67-.666.385-1.223.243-1.223-.629,0-.847.578-1.771,1.601-2.362l2.023-1.168v1.489Z"/><path class="ey" d="m116.093,624.506l-.962-.511-.009.008c-.536-.269-1.237-.275-2.08-.021v-.103c1.423-1.257,2.645-3.273,2.645-5.634,0-.618-.084-1.108-.236-1.493l.267-.347-.964-.506c-.058-.033-.115-.068-.177-.093h-.001s0,0,0,0c-.878-.358-2.21.044-3.757.937l-4.869,2.811v17.97c.318.17.635.341.953.511.109-.204.217-.409.326-.613l-.045-.61,3.635-2.099c3.046-1.759,5.425-4.441,5.425-8.112,0-.752-.126-1.324-.339-1.766l.188-.329Zm-7.297-3.617l1.867-1.078c1.356-.783,2.09-.359,2.09.95s-.734,2.605-2.09,3.388l-1.867,1.078v-4.338Zm1.89,10.923l-1.89,1.091v-4.852l1.89-1.091c1.645-.95,2.623-.668,2.623.975,0,1.413-.978,2.927-2.623,3.877Z"/><path class="ey" d="m127.625,618.948l-.939-.498c-.709-.439-1.782-.289-3.107.476l-1.69.975v-2.844l.477.078.477-1.395-.953-.511-2.757,1.592v13.092l.953.51.493-1.255-.088-.04,3.089-1.783c2.445-1.413,4.046-3.877,4.046-6.521,0-.586-.083-1.069-.232-1.459l.019.008.213-.426Zm-4.269,5.78l-1.467.847v-3.029l1.467-.847c.912-.527,1.467-.205,1.467.667s-.555,1.835-1.467,2.362Z"/><path class="ey" d="m143.284,610.053c-.408-.217-.951-.23-1.611-.034v-.077c1.267-1.219,1.934-2.605,1.934-4.017,0-2.362-1.666-2.272-3.845-1.014l-4.714,2.721v13.093l.953.51.628-1.087-.27-.18,3.848-2.221c2.579-1.489,3.868-3.645,3.868-5.905,0-.295-.037-.544-.09-.77l.09.026.265-.481-1.055-.578v.015Zm-5.48-1.266l1.423-.821c.889-.514,1.578-.604,1.578.243,0,.822-.577,1.489-1.578,2.067l-1.423.821v-2.31Zm1.802,6.559l-1.802,1.04v-2.747l1.802-1.04c1.045-.603,1.667-.603,1.667.373s-.623,1.771-1.667,2.374Z"/><polygon class="ey" points="177.773 584.817 179.304 583.142 178.351 582.631 175.55 584.248 172.927 590.743 171.926 591.32 171.926 588.285 172.203 588.336 172.879 586.851 171.926 586.341 169.169 587.932 169.169 601.025 170.122 601.535 170.51 600.387 170.454 600.283 171.926 599.433 171.926 594.067 172.904 593.502 175.75 597.482 176.704 597.993 176.704 596.845 178.574 595.595 175.039 590.859 177.579 584.55 177.773 584.817"/></g><polyline class="ex" points="356.38 480.307 357.333 480.794 357.044 481.414 356.04 481.056 356.38 480.307"/><polyline class="ex" points="368.074 473.507 368.986 473.988 368.919 474.43 367.706 473.722 368.074 473.507"/><polyline class="ew" points="400.899 454.333 401.955 454.903 401.759 455.524 400.899 455.15 400.899 454.333"/><g class="ez"><polygon class="ey" points="342.361 487.205 342.361 500.297 343.314 500.808 343.989 499.661 343.735 499.504 345.118 498.705 345.118 487.331 345.503 487.371 346.071 486.124 345.118 485.613 342.361 487.205"/><path class="ey" d="m364.678,474.063c-3.202,1.848-5.202,5.493-5.202,9.807,0,2.179.594,3.555,1.613,4.132l.006.01c.328.175.656.35.984.525.019-.079.037-.157.055-.236.839.059,1.841-.226,2.966-.876,1.445-.834,2.823-2.092,3.913-3.363l-.258-.522.254-.906-.953-.511c-.778.912-1.89,1.939-2.823,2.478-1.467.847-2.668.462-2.956-1.374l7.07-4.082c.089-.771.133-1.695.133-2.054,0-3.671-1.845-4.736-4.802-3.029Zm-2.356,6.7c.266-1.848,1.223-3.299,2.4-3.979,1.445-.834,2.246-.193,2.246,1.296l-4.646,2.682Z"/><path class="ey" d="m377.149,469.61c.733-.423,1.511-.719,2.201-.783l.506-1.723.495.115.841-.91-.953-.511c-.956.09-2.156.526-3.223,1.142-3.669,2.118-5.536,6.226-5.536,9.999,0,1.833.471,3.215,1.372,3.915l-.003.014.056.031c.146.107.304.193.471.264l.843.471.028-.277c.797.04,1.758-.229,2.879-.876,1.156-.668,2.268-1.566,3.224-2.606l-.243-.547.154-.043.153-.902-.953-.511c-.689.732-1.601,1.438-2.334,1.862-1.645.95-2.845,0-2.845-2.413s1.222-4.762,2.868-5.712Z"/><path class="ey" d="m402.779,462.795c-.489.282-.8.18-.8-.462v-4.98c0-2.721-.934-4.288-4.402-2.285-1.445.834-2.757,1.875-4.112,3.247l.822,2.093.953.511.258-1.609-.011-.005c.626-.536,1.238-.996,1.824-1.335,1.357-.783,1.913-.334,1.913.924v.873l-2.112,1.219c-2.513,1.451-4.247,3.864-4.247,6.38,0,1.449.403,2.239,1.113,2.464l.684.401.194-.374c.446-.084.955-.29,1.522-.617,1.29-.745,2.179-1.591,2.979-2.978l.09-.052c.076.133.169.234.272.315l-.052.042,1.064.515.44-.625c.09-.044.18-.088.276-.144.556-.321,1.245-.821,1.579-1.168v-1.441l.624.033.329-.572-.953-.511-.245.141Zm-3.557.899c-.6,1.142-1.489,2.143-2.402,2.67-.666.385-1.223.243-1.223-.629,0-.847.578-1.771,1.601-2.362l2.023-1.168v1.489Z"/><path class="ey" d="m329.495,500.563l-.962-.511-.009.008c-.536-.269-1.237-.275-2.08-.021v-.103c1.423-1.257,2.645-3.273,2.645-5.634,0-.618-.084-1.108-.236-1.493l.267-.347-.964-.506c-.058-.033-.115-.068-.177-.093h-.001s0,0,0,0c-.878-.358-2.21.044-3.757.937l-4.869,2.811v17.97c.318.17.635.341.953.511.109-.204.217-.409.326-.613l-.045-.61,3.635-2.099c3.046-1.759,5.425-4.441,5.425-8.113,0-.752-.126-1.324-.339-1.766l.188-.329Zm-7.297-3.617l1.867-1.078c1.356-.783,2.09-.359,2.09.95s-.734,2.605-2.09,3.388l-1.867,1.078v-4.338Zm1.89,10.923l-1.89,1.091v-4.852l1.89-1.091c1.645-.95,2.623-.668,2.623.975,0,1.413-.978,2.927-2.623,3.877Z"/><path class="ey" d="m341.027,495.005l-.939-.498c-.709-.439-1.782-.289-3.107.476l-1.69.975v-2.844l.477.078.477-1.395-.953-.511-2.757,1.592v13.092l.953.51.493-1.255-.088-.04,3.089-1.783c2.445-1.412,4.046-3.877,4.046-6.521,0-.586-.083-1.069-.232-1.459l.019.008.213-.426Zm-4.269,5.78l-1.467.847v-3.029l1.467-.847c.912-.527,1.467-.205,1.467.667s-.555,1.835-1.467,2.362Z"/><path class="ey" d="m356.687,486.11c-.408-.217-.951-.23-1.611-.034v-.077c1.267-1.219,1.934-2.605,1.934-4.017,0-2.362-1.666-2.272-3.845-1.014l-4.714,2.721v13.093l.953.51.628-1.087-.27-.18,3.848-2.221c2.579-1.489,3.868-3.645,3.868-5.905,0-.295-.037-.544-.09-.77l.09.026.265-.481-1.055-.578v.015Zm-5.48-1.266l1.423-.821c.889-.514,1.578-.604,1.578.243,0,.822-.577,1.489-1.578,2.067l-1.423.821v-2.31Zm1.802,6.559l-1.802,1.04v-2.747l1.802-1.04c1.045-.603,1.667-.603,1.667.373s-.623,1.771-1.667,2.374Z"/><polygon class="ey" points="391.176 460.873 392.707 459.199 391.754 458.688 388.952 460.305 386.329 466.799 385.329 467.377 385.329 464.342 385.606 464.392 386.282 462.908 385.329 462.397 382.572 463.989 382.572 477.081 383.525 477.592 383.912 476.443 383.856 476.34 385.329 475.49 385.329 470.124 386.307 469.559 389.153 473.539 390.106 474.049 390.106 472.902 391.976 471.652 388.441 466.915 390.981 460.607 391.176 460.873"/></g><polyline class="ex" points="570.088 357.23 571.041 357.717 570.752 358.336 569.748 357.979 570.088 357.23"/><polyline class="ex" points="581.782 350.43 582.694 350.911 582.627 351.353 581.414 350.645 581.782 350.43"/><polyline class="ew" points="614.607 331.256 615.663 331.826 615.467 332.447 614.607 332.073 614.607 331.256"/><path class="ev" d="m421.58,452.667l-.995-.51-6.113,3.529v-.103c2.712-4.056,5.669-9.537,5.669-13.49,0-.87-.135-1.555-.382-2.067l.119-.407-.882-.453c-.031-.018-.064-.034-.096-.049l-.017-.009h-.001c-.761-.352-1.839-.156-3.166.61-1.823,1.052-3.09,2.194-4.868,4.325l1.311,1.836.995.51.509-1.478-.447-.255c.666-.703,1.356-1.3,2.077-1.716,1.289-.744,1.979-.27,1.979,1.142,0,3.44-3.647,9.703-6.692,14.106v2.721l.995.51.301-1.126-.106-.071,8.37-4.833.207-1.508.533.084.7-1.3Z"/><g class="fa"><polygon class="ey" points="556.069 364.128 556.069 377.22 557.022 377.73 557.697 376.583 557.443 376.426 558.826 375.628 558.826 364.253 559.211 364.294 559.779 363.047 558.826 362.536 556.069 364.128"/><path class="ey" d="m578.386,350.986c-3.202,1.848-5.202,5.493-5.202,9.807,0,2.179.594,3.555,1.613,4.132l.006.01c.328.175.656.35.984.525.019-.079.037-.157.055-.236.839.059,1.841-.226,2.966-.876,1.445-.834,2.823-2.092,3.913-3.362l-.258-.522.254-.906-.953-.511c-.778.912-1.89,1.939-2.823,2.478-1.467.847-2.668.462-2.956-1.374l7.07-4.082c.089-.771.133-1.695.133-2.054,0-3.671-1.845-4.736-4.802-3.029Zm-2.356,6.7c.266-1.848,1.223-3.299,2.4-3.979,1.445-.834,2.246-.193,2.246,1.296l-4.646,2.682Z"/><path class="ey" d="m590.857,346.533c.733-.423,1.511-.719,2.201-.783l.506-1.723.495.115.841-.91-.953-.511c-.956.09-2.156.526-3.223,1.142-3.669,2.118-5.536,6.226-5.536,9.999,0,1.833.471,3.215,1.372,3.915l-.003.014.056.031c.146.107.304.193.471.264l.843.471.028-.277c.797.04,1.758-.229,2.879-.876,1.156-.668,2.268-1.566,3.224-2.606l-.243-.547.154-.043.153-.902-.953-.511c-.689.732-1.601,1.438-2.334,1.862-1.645.95-2.845,0-2.845-2.413s1.222-4.762,2.868-5.712Z"/><path class="ey" d="m616.487,339.718c-.489.282-.8.18-.8-.462v-4.98c0-2.721-.934-4.288-4.402-2.285-1.445.834-2.757,1.875-4.113,3.247l.822,2.093.953.511.258-1.609-.011-.005c.626-.536,1.238-.996,1.824-1.335,1.357-.783,1.913-.334,1.913.924v.873l-2.112,1.219c-2.513,1.451-4.247,3.864-4.247,6.38,0,1.449.403,2.239,1.113,2.464l.684.401.194-.374c.446-.084.955-.29,1.522-.617,1.29-.745,2.179-1.591,2.979-2.978l.09-.052c.076.133.169.234.272.315l-.052.042,1.064.515.44-.625c.09-.044.18-.088.276-.144.556-.321,1.245-.821,1.579-1.168v-1.441l.624.033.329-.572-.953-.511-.245.141Zm-3.557.899c-.6,1.142-1.489,2.143-2.402,2.67-.666.385-1.223.243-1.223-.629,0-.847.578-1.771,1.601-2.362l2.023-1.168v1.489Z"/><path class="ey" d="m543.203,377.485l-.962-.511-.009.008c-.536-.269-1.237-.275-2.08-.021v-.103c1.423-1.257,2.645-3.273,2.645-5.634,0-.618-.084-1.108-.236-1.493l.267-.347-.964-.506c-.058-.033-.115-.068-.177-.093h-.001s0,0,0,0c-.878-.358-2.21.044-3.757.937l-4.869,2.811v17.97c.318.17.636.341.953.511.109-.204.217-.409.326-.613l-.045-.61,3.635-2.099c3.046-1.759,5.425-4.441,5.425-8.113,0-.752-.126-1.324-.339-1.766l.188-.329Zm-7.297-3.617l1.867-1.078c1.356-.783,2.09-.359,2.09.95s-.734,2.605-2.09,3.388l-1.867,1.078v-4.338Zm1.89,10.923l-1.89,1.091v-4.852l1.89-1.091c1.645-.95,2.623-.668,2.623.975,0,1.412-.978,2.927-2.623,3.877Z"/><path class="ey" d="m554.735,371.928l-.939-.498c-.709-.439-1.782-.289-3.107.476l-1.69.975v-2.844l.477.078.477-1.395-.953-.511-2.757,1.592v13.092l.953.51.493-1.255-.088-.04,3.089-1.783c2.445-1.413,4.046-3.877,4.046-6.521,0-.586-.083-1.069-.232-1.459l.019.008.213-.426Zm-4.269,5.78l-1.467.847v-3.029l1.467-.847c.912-.527,1.467-.205,1.467.667s-.555,1.835-1.467,2.362Z"/><path class="ey" d="m570.394,363.033c-.408-.217-.951-.23-1.611-.034v-.077c1.267-1.219,1.934-2.605,1.934-4.017,0-2.362-1.666-2.272-3.845-1.014l-4.714,2.721v13.093l.953.51.628-1.087-.27-.18,3.847-2.221c2.579-1.489,3.868-3.645,3.868-5.905,0-.295-.037-.544-.09-.77l.09.026.265-.481-1.055-.578v.015Zm-5.48-1.266l1.423-.821c.889-.514,1.578-.604,1.578.243,0,.822-.577,1.489-1.578,2.067l-1.423.821v-2.31Zm1.802,6.559l-1.802,1.04v-2.747l1.802-1.04c1.045-.603,1.667-.603,1.667.373s-.623,1.771-1.667,2.374Z"/><polygon class="ey" points="604.884 337.796 606.415 336.121 605.462 335.611 602.66 337.228 600.037 343.722 599.037 344.3 599.037 341.264 599.314 341.315 599.99 339.831 599.037 339.32 596.28 340.912 596.28 354.004 597.233 354.515 597.62 353.366 597.564 353.262 599.037 352.412 599.037 347.047 600.015 346.482 602.861 350.462 603.814 350.972 603.814 349.825 605.684 348.574 602.149 343.838 604.689 337.53 604.884 337.796"/><path class="ey" d="m633.382,317.335v-.996l.688-.092.307-1.125-.996-.51-8.359,4.826-.445,3.235.996.51.954-1.218-.347-.218,4.111-2.373v.103l-3.112,6.469v1.874l.996.51.546-1.391c1.385-.707,2.483-.524,2.483,1.381,0,1.926-1.201,3.492-2.669,4.339-1.267.732-2.201.808-3.09.654l-1.378,3.389.996.51.712-.53c.842-.14,1.785-.482,2.917-1.135,2.823-1.63,5.38-4.955,5.38-8.909,0-1.044-.182-1.797-.49-2.319l.226.133-.014-.364-.812-.417c-.684-.453-1.618-.395-2.599-.037v-.077l3.002-6.225Z"/></g></g><g id="em"><path class="ew" d="m106.982,638.014v-17.966l4.868-2.811c2.778-1.604,4.867-1.629,4.867,1.501,0,2.361-1.222,4.376-2.645,5.633v.104c1.955-.591,3.2.128,3.2,2.617,0,3.671-2.378,6.353-5.423,8.11l-4.868,2.811Zm4.713-17.709l-1.868,1.078v4.337l1.868-1.078c1.355-.783,2.089-2.078,2.089-3.388s-.733-1.732-2.089-.949Zm.021,7.147l-1.89,1.091v4.851l1.89-1.091c1.646-.95,2.623-2.463,2.623-3.875,0-1.643-.978-1.925-2.623-.975Z"/><path class="ew" d="m124.609,619.419c2.445-1.412,4.046-.745,4.046,1.898s-1.601,5.108-4.046,6.52l-4.445,2.566v-13.089l2.756-1.591v4.671l1.689-.975Zm-1.689,3.619v3.028l1.468-.847c.911-.526,1.467-1.488,1.467-2.361s-.556-1.193-1.467-.667l-1.468.847Zm9.824.103l-2.756,1.591v-13.089l2.756-1.591v13.089Z"/><path class="ew" d="m145.104,612.334c0,2.259-1.288,4.414-3.867,5.903l-5.156,2.977v-13.089l4.712-2.721c2.178-1.257,3.845-1.348,3.845,1.014,0,1.411-.666,2.797-1.933,4.017v.077c1.466-.437,2.399.103,2.399,1.822Zm-6.268-3.054v2.31l1.423-.821c1-.578,1.578-1.245,1.578-2.066,0-.847-.689-.756-1.578-.243l-1.423.821Zm0,4.851v2.746l1.801-1.04c1.045-.603,1.667-1.399,1.667-2.375s-.622-.975-1.667-.372l-1.801,1.04Z"/><path class="ew" d="m155.685,606.558l.956,1.938c-1.089,1.27-2.467,2.528-3.912,3.362-3.333,1.925-5.623.731-5.623-3.555,0-4.312,2-7.956,5.2-9.803,2.957-1.707,4.802-.642,4.802,3.028,0,.359-.044,1.283-.133,2.053l-7.068,4.081c.289,1.835,1.489,2.22,2.956,1.373.934-.539,2.044-1.565,2.822-2.477Zm-1.089-4.042c0-1.488-.8-2.13-2.245-1.296-1.178.68-2.134,2.13-2.399,3.978l4.645-2.682Z"/><path class="ew" d="m167.978,602.311c-.956,1.039-2.067,1.938-3.223,2.605-3.668,2.117-5.646.231-5.646-3.542s1.866-7.878,5.534-9.996c1.066-.616,2.267-1.052,3.223-1.142l-.89,3.028c-.688.065-1.466.359-2.2.783-1.645.949-2.867,3.298-2.867,5.71s1.2,3.363,2.846,2.413c.732-.423,1.645-1.129,2.334-1.861l.889,2.002Z"/><path class="ew" d="m173.935,593.994l-.978.564v5.364l-2.756,1.591v-13.089l2.756-1.591v4.979l1.001-.578,2.622-6.493,2.801-1.617-3.312,8.226,3.534,4.735-2.822,1.887-2.846-3.979Z"/><path class="ew" d="m186.851,583.329c0-1.258-.556-1.707-1.911-.924-.956.552-1.979,1.399-3.023,2.438l-.822-2.092c1.355-1.373,2.668-2.412,4.112-3.246,3.468-2.002,4.401-.437,4.401,2.284v4.979c0,.642.311.745.8.462l.244-.141v2.49c-.333.346-1.022.846-1.578,1.167-1,.578-1.645.514-2.001-.102l-.089.051c-.8,1.386-1.688,2.232-2.978,2.976-2.156,1.245-3.513.796-3.513-1.873,0-2.516,1.734-4.928,4.246-6.378l2.111-1.219v-.873Zm0,4.8v-1.489l-2.022,1.168c-1.022.59-1.601,1.515-1.601,2.361,0,.873.556,1.014,1.223.629.911-.526,1.8-1.528,2.4-2.669Z"/><path class="ew" d="m205.056,563.425v14.988l3.49-2.015v2.978l-10.225,5.903v-2.978l3.957-2.284v-12.011l-3.624,2.092.445-3.234,5.956-3.439Z"/><path class="ew" d="m320.346,514.092v-17.97l4.869-2.811c2.78-1.605,4.869-1.63,4.869,1.502,0,2.362-1.223,4.377-2.645,5.634v.103c1.957-.591,3.202.128,3.202,2.618,0,3.671-2.379,6.354-5.425,8.113l-4.869,2.811Zm4.713-17.713l-1.867,1.078v4.338l1.867-1.078c1.356-.783,2.09-2.079,2.09-3.389s-.734-1.733-2.09-.95Zm.023,7.15l-1.89,1.091v4.852l1.89-1.091c1.645-.95,2.623-2.464,2.623-3.877,0-1.643-.978-1.925-2.623-.975Z"/><path class="ew" d="m337.975,495.494c2.445-1.412,4.046-.745,4.046,1.9s-1.601,5.109-4.046,6.521l-4.447,2.567v-13.092l2.757-1.592v4.672l1.69-.975Zm-1.69,3.62v3.029l1.468-.847c.911-.526,1.466-1.488,1.466-2.362s-.555-1.193-1.466-.667l-1.468.847Zm9.827.102l-2.757,1.592v-13.092l2.757-1.592v13.092Z"/><path class="ew" d="m358.471,488.41c0,2.259-1.288,4.415-3.868,5.904l-5.158,2.978v-13.092l4.713-2.721c2.179-1.258,3.846-1.348,3.846,1.014,0,1.412-.666,2.798-1.934,4.017v.077c1.466-.437,2.4.103,2.4,1.823Zm-6.269-3.055v2.31l1.423-.821c1.001-.578,1.578-1.245,1.578-2.067,0-.847-.689-.757-1.578-.243l-1.423.821Zm0,4.852v2.747l1.801-1.04c1.045-.603,1.667-1.399,1.667-2.374s-.623-.976-1.667-.373l-1.801,1.04Z"/><path class="ew" d="m369.052,482.634l.956,1.939c-1.089,1.27-2.468,2.529-3.913,3.363-3.335,1.925-5.625.731-5.625-3.556,0-4.313,2.001-7.958,5.202-9.807,2.957-1.707,4.802-.642,4.802,3.029,0,.359-.044,1.283-.133,2.054l-7.07,4.082c.288,1.836,1.49,2.22,2.956,1.373.934-.539,2.045-1.566,2.823-2.478Zm-1.089-4.043c0-1.489-.801-2.131-2.246-1.296-1.177.68-2.134,2.13-2.4,3.979l4.646-2.682Z"/><path class="ew" d="m381.346,478.387c-.956,1.039-2.068,1.938-3.224,2.606-3.668,2.118-5.647.23-5.647-3.543s1.868-7.881,5.536-9.999c1.067-.616,2.267-1.052,3.223-1.142l-.889,3.029c-.689.064-1.467.36-2.201.783-1.645.95-2.868,3.299-2.868,5.712s1.2,3.363,2.845,2.413c.734-.423,1.645-1.13,2.334-1.862l.89,2.003Z"/><path class="ew" d="m387.302,470.069l-.978.565v5.366l-2.757,1.592v-13.092l2.757-1.592v4.98l1.001-.578,2.623-6.494,2.801-1.617-3.312,8.227,3.535,4.736-2.823,1.887-2.846-3.98Z"/><path class="ew" d="m400.217,459.404c0-1.258-.555-1.707-1.912-.924-.956.552-1.979,1.399-3.024,2.439l-.822-2.093c1.356-1.373,2.668-2.413,4.113-3.247,3.468-2.002,4.402-.436,4.402,2.285v4.98c0,.642.312.745.801.462l.244-.141v2.491c-.334.346-1.022.846-1.578,1.168-1.001.578-1.645.514-2.001-.103l-.089.052c-.801,1.386-1.69,2.233-2.979,2.978-2.156,1.245-3.513.796-3.513-1.873,0-2.516,1.734-4.929,4.247-6.38l2.112-1.219v-.873Zm0,4.801v-1.489l-2.023,1.168c-1.023.591-1.601,1.515-1.601,2.362,0,.873.556,1.014,1.223.629.912-.527,1.801-1.528,2.401-2.67Z"/><path class="ew" d="m416.288,443.451c-1.112.642-2.156,1.681-3.134,2.939l-1.312-1.835c1.778-2.13,3.045-3.273,4.869-4.326,2.734-1.579,4.424-.757,4.424,2.375,0,3.953-2.956,9.434-5.669,13.49v.102l6.113-3.53-.445,3.235-9.56,5.52v-2.721c3.046-4.403,6.692-10.667,6.692-14.107,0-1.412-.689-1.886-1.979-1.142Z"/><path class="ew" d="m534.055,391.014v-17.97l4.869-2.811c2.78-1.605,4.869-1.63,4.869,1.502,0,2.362-1.223,4.377-2.645,5.634v.103c1.957-.591,3.202.128,3.202,2.618,0,3.671-2.379,6.354-5.425,8.113l-4.869,2.811Zm4.713-17.713l-1.867,1.078v4.338l1.867-1.078c1.356-.783,2.09-2.079,2.09-3.389s-.734-1.733-2.09-.95Zm.023,7.15l-1.89,1.091v4.852l1.89-1.091c1.645-.95,2.623-2.464,2.623-3.877,0-1.643-.978-1.925-2.623-.975Z"/><path class="ew" d="m551.684,372.416c2.445-1.412,4.046-.745,4.046,1.9s-1.601,5.109-4.046,6.521l-4.447,2.567v-13.092l2.757-1.592v4.672l1.69-.975Zm-1.69,3.62v3.029l1.468-.847c.911-.526,1.466-1.488,1.466-2.362s-.555-1.193-1.466-.667l-1.468.847Zm9.827.102l-2.757,1.592v-13.092l2.757-1.592v13.092Z"/><path class="ew" d="m572.179,365.332c0,2.259-1.288,4.415-3.868,5.904l-5.158,2.978v-13.092l4.713-2.721c2.179-1.258,3.846-1.348,3.846,1.014,0,1.412-.666,2.798-1.934,4.017v.077c1.466-.437,2.4.103,2.4,1.823Zm-6.269-3.055v2.31l1.423-.821c1.001-.578,1.578-1.245,1.578-2.067,0-.847-.689-.757-1.578-.243l-1.423.821Zm0,4.852v2.747l1.801-1.04c1.045-.603,1.667-1.399,1.667-2.374s-.623-.976-1.667-.373l-1.801,1.04Z"/><path class="ew" d="m582.76,359.557l.956,1.939c-1.089,1.27-2.468,2.529-3.913,3.363-3.335,1.925-5.625.731-5.625-3.556,0-4.313,2.001-7.958,5.202-9.807,2.957-1.707,4.802-.642,4.802,3.029,0,.359-.044,1.283-.133,2.054l-7.07,4.082c.288,1.836,1.49,2.22,2.956,1.373.934-.539,2.045-1.566,2.823-2.478Zm-1.089-4.043c0-1.489-.801-2.131-2.246-1.296-1.177.68-2.134,2.13-2.4,3.979l4.646-2.682Z"/><path class="ew" d="m595.054,355.309c-.956,1.039-2.068,1.938-3.224,2.606-3.668,2.118-5.647.23-5.647-3.543s1.868-7.881,5.536-9.999c1.067-.616,2.267-1.052,3.223-1.142l-.889,3.029c-.689.064-1.467.36-2.201.783-1.645.95-2.868,3.299-2.868,5.712s1.2,3.363,2.845,2.413c.734-.423,1.645-1.13,2.334-1.862l.89,2.003Z"/><path class="ew" d="m601.01,346.992l-.978.565v5.366l-2.757,1.592v-13.092l2.757-1.592v4.98l1.001-.578,2.623-6.494,2.801-1.617-3.312,8.227,3.535,4.736-2.823,1.887-2.846-3.98Z"/><path class="ew" d="m613.926,336.327c0-1.258-.555-1.707-1.912-.924-.956.552-1.979,1.399-3.024,2.439l-.822-2.093c1.356-1.373,2.668-2.413,4.113-3.247,3.468-2.002,4.402-.436,4.402,2.285v4.98c0,.642.312.745.801.462l.244-.141v2.491c-.334.346-1.022.846-1.578,1.168-1.001.578-1.645.514-2.001-.103l-.089.052c-.801,1.386-1.69,2.233-2.979,2.978-2.156,1.245-3.513.796-3.513-1.873,0-2.516,1.734-4.929,4.247-6.38l2.112-1.219v-.873Zm0,4.801v-1.489l-2.023,1.168c-1.023.591-1.601,1.515-1.601,2.362,0,.873.556,1.014,1.223.629.912-.527,1.801-1.528,2.401-2.67Z"/><path class="ew" d="m635.066,327.151c0,3.954-2.556,7.278-5.38,8.909-1.956,1.129-3.357,1.347-4.624,1.155l1.378-3.389c.889.154,1.823.077,3.09-.654,1.468-.847,2.669-2.413,2.669-4.339,0-2.028-1.245-2.104-2.757-1.232l-1.267.732v-1.874l3.112-6.469v-.103l-5.714,3.299.445-3.235,8.359-4.826v2.722l-3.002,6.225v.077c1.934-.705,3.69-.256,3.69,3.004Z"/></g></svg>