<svg xmlns="http://www.w3.org/2000/svg" viewBox="0 0 200 200"><defs><style>.a{fill:#da7480;}.b{fill:#fff;}</style></defs><circle class="a" cx="100" cy="100" r="100"/><path class="b" d="M71.57,111.52l5.66-40.8C78.6,60.56,82.7,55.1,95,55.1c18.74,0,38.07-.59,54.66-8.79l6.64,13.08c-14.06,6.83-29.09,9.57-44.51,10.15-5.47,20.7-7,36.9-7,57.4,0,15.43.78,31.05,1.36,46.47H90.9c-.59-12.69-1.18-24-1.18-34.95,0-6.24,0-12.49.2-18.74l-4.3-.78c-4.68,22.65-12.49,29.68-34.75,37.68L45.8,143.15C62.59,137.1,68.05,128.7,71.57,111.52ZM90.12,20.34A14.75,14.75,0,0,1,104.76,35a14.65,14.65,0,0,1-29.29,0A14.75,14.75,0,0,1,90.12,20.34Zm68.13,45.88a52.67,52.67,0,0,1,4.88,21.29c0,11.51-4.49,22.06-14.25,29.09-14.64-4.1-23.62-16.6-23.62-26.17C125.26,74.23,151,78.52,158.25,66.22Z"/></svg>