<?xml version="1.0" encoding="UTF-8"?><svg id="a" xmlns="http://www.w3.org/2000/svg" viewBox="0 0 295.146 52.656"><defs><style>.b{stroke-width:.283px;}.b,.c{fill:none;stroke:#56617d;stroke-miterlimit:10;}.d{opacity:.5;}.e{fill:#56617d;}.e,.f{stroke-width:0px;}.f{fill:#fff;}.c{stroke-width:.25px;}</style></defs><g class="d"><polyline class="e" points="154.091 49.775 151.308 44.151 146.85 39.519 149.128 44.812 153.606 49.29"/><path class="e" d="m24.381,23.646c5.9,1.407,11.056,8.844,11.056,15.342,0,9.581-7.168,13-16.347,13H5.09L.125,47.022,5.088,5.088l15.041-2.841c8.375,0,13.634,5.923,13.634,14.1,0,6.163-3.685,9.58-7.973,10.719l-1.409-3.42Zm-12.057-12.126v13.265l2-2.216c4.489,0,8.643-2.327,8.643-6.279,0-4.288.542-4.77-4.617-4.77h-6.026Zm0,19.429v14.605h6.364c5.762,0,9.246-2.948,9.246-7.437,0-4.756-3.283-7.168-9.312-7.168h-6.298Z"/><path class="e" d="m51.786,27.03l3.179-1.6c7.371,0,15.111,8.87,15.111,15.77s-4.824,10.786-12.194,10.786h-13.064l-4.963-4.964,4.963-29.2,2.005-4.964,4.963,4.964v9.208Zm0,9.078v10.049h5.427c3.551,0,5.761-1.876,5.761-5.025s-2.21-5.024-5.761-5.024h-5.427Zm30.282,15.878h-6.968l-4.964-4.964,4.964-29.2,2-4.964,4.963,4.964.005,34.164Z"/><path class="e" d="m119.319,42.137c0,6.164-3.885,9.849-11.657,9.849h-14.873l-4.964-4.964,4.964-29.2,13.059-4.322c6.833,0,12.065,6.861,12.065,13.025-.057,3.476-2.452,6.475-5.829,7.3l-.8-1.547c3.286.742,8.035,4.902,8.035,9.859Zm-19.562-18.491v7.772l.564-2.881c3.148,0,8.8,1.373,8.8-1.507,0-3.015-.45-3.384-3.4-3.384h-5.964Zm0,13.6v8.911h6.766c3.551,0,5.7-1.407,5.7-4.422s-2.345-4.489-6.365-4.489h-6.101Z"/><path class="e" d="m154.9,36.51h-21.712c.469,6.632,2.83,9.226,8.993,9.226,3.082,0,4.468.349,6.947-.924l4.963,4.963c-3.533,1.862-7.462,2.85-11.456,2.881-10.05,0-19.347-6.71-19.347-17.9,0-11.256,7.35-21.9,16.6-21.9,9.179,0,15.615,9.653,15.615,18.028-.016,1.891-.218,3.775-.603,5.626Zm-21.439-5.427h15.812c0-4.69-2.546-8.107-7.705-8.107-4.628,0-7.509,3.283-8.112,8.107h.005Z"/><path class="e" d="m186.116,45.353l2.144,5.36c-2.951,1.311-6.15,1.973-9.379,1.943-11.055,0-20.615-9.564-20.615-19.412s9.225-16.1,20.28-16.1c1.956,0,4.416-3.155,4.416-3.155l4.963,4.964-2.144,5.359c-2.165-.9-4.489-1.356-6.833-1.34-5.762,0-9.648,4.824-9.648,11.926s3.819,11.925,9.581,11.925c1.8,0,.425-5.863,2.272-6.437.553-.168,4.963,4.967,4.963,4.967Z"/><path class="e" d="m211.978,34.3l11.322,17.686-7.1.67-4.963-4.964-4.887-10.512h-3.75v14.806h-6.967l-4.964-4.964,4.964-29.2,2-4.964,4.963,4.964v13.8l1.9-1.346,7.764-12.26,5.4-5.159,4.963,4.964-10.645,16.479Z"/><path class="e" d="m246.816,31.887v-2.278c0-4.087-1.742-6.633-6.766-6.633-3.164.056-6.294.668-9.246,1.809l-4.963-4.963,2.3-1.745c3.953-1.474,6.435-5.223,10.723-5.223,10.452,0,14.922,9.787,14.922,16.889v14.337c-.15,1.182.687,2.262,1.87,2.412.18.023.362.023.542,0h.737v5.159c-1.294.445-2.652.671-4.02.67-2.52.145-4.792-1.51-5.427-3.953h-.268c-2.485,2.662-6.009,4.106-9.648,3.953-6.5,0-14.793-5.659-14.793-12.627,0-6.5,9.568-7.807,17.138-7.807h6.899Zm-7.168,5.427c-3.35,0-5.762,1.875-5.762,4.957s.363,3.283,3.11,3.283c3.283,0,2.847-.938,4.857-3.484l4.963-4.756h-7.168Z"/><polygon class="e" points="251.969 41.529 256.933 46.492 256.933 50.587 251.969 46.687 251.969 41.529"/></g><path class="f" d="m20.827,22.368c5.9,1.407,9.647,5.159,9.647,11.657,0,9.581-7.168,13-16.347,13H.127V.125h14c8.373,0,14.673,3.082,14.673,11.256,0,6.163-3.684,9.58-7.972,10.719v.268ZM7.361,6.557v13.265h6.3c4.488,0,7.637-2.814,7.637-6.767,0-4.287-2.747-6.5-7.906-6.5l-6.031.002Zm0,19.429v14.605h6.364c5.762,0,9.246-2.948,9.246-7.437,0-4.757-3.283-7.168-9.312-7.168h-6.298Z"/><path class="f" d="m46.823,25.316h6.1c7.37,0,12.194,4.02,12.194,10.92s-4.828,10.786-12.198,10.786h-13.064V12.854h6.968v12.462Zm0,5.828v10.05h5.427c3.55,0,5.761-1.876,5.761-5.025s-2.211-5.025-5.761-5.025h-5.427Zm30.282,15.878h-6.968V12.854h6.968v34.168Z"/><path class="f" d="m114.356,37.174c0,6.164-3.886,9.848-11.657,9.848h-14.874V12.854h13.8c6.834,0,11.323,2.546,11.323,8.71-.056,3.476-2.452,6.476-5.829,7.3v.2c3.281.741,7.237,3.152,7.237,8.11Zm-19.563-18.491v7.772h5.494c3.149,0,5.561-1,5.561-3.886,0-3.015-2.144-3.886-5.092-3.886h-5.963Zm0,13.6v8.911h6.767c3.551,0,5.695-1.407,5.695-4.422s-2.345-4.489-6.365-4.489h-6.097Z"/><path class="f" d="m149.932,31.546h-21.707c.469,6.633,3.953,10.318,10.116,10.318,2.981-.102,5.897-.905,8.509-2.345l2.278,5.293c-3.534,1.862-7.462,2.85-11.456,2.88-10.05,0-16.616-6.565-16.616-17.754,0-11.255,6.164-17.753,15.41-17.753,9.178,0,14.069,5.359,14.069,13.734-.016,1.891-.218,3.776-.603,5.627Zm-21.439-5.427h15.807c0-4.689-2.546-8.106-7.705-8.106-4.618,0-7.495,3.287-8.102,8.106h0Z"/><path class="f" d="m181.153,40.39l2.144,5.36c-2.952,1.31-6.15,1.972-9.38,1.942-11.054,0-16.682-7.905-16.682-17.754s5.293-17.753,16.347-17.753c3.215-.016,6.401.599,9.38,1.808l-2.144,5.36c-2.165-.9-4.489-1.356-6.834-1.34-5.762,0-9.647,4.824-9.647,11.925s3.819,11.926,9.58,11.926c2.483-.03,4.939-.53,7.236-1.474Z"/><path class="f" d="m207.014,29.336l11.323,17.686-7.1.67-9.849-15.476h-3.751v14.806h-6.968V12.854h6.968v13.8h3.818l8.978-13.8h7.236l-10.655,16.482Z"/><path class="f" d="m241.853,26.924v-2.278c0-4.087-1.742-6.633-6.766-6.633-3.164.056-6.294.668-9.246,1.809l-2.01-5.427c3.849-1.473,7.938-2.222,12.059-2.21,10.452,0,12.93,5.493,12.93,12.6v14.332c-.149,1.183.689,2.263,1.872,2.412.18.023.361.023.541,0h.736v5.158c-1.293.445-2.651.672-4.019.671-2.52.145-4.792-1.51-5.427-3.953h-.268c-2.485,2.662-6.009,4.106-9.648,3.953-6.5,0-10.585-3.216-10.585-10.184,0-6.5,5.36-10.25,12.93-10.25h6.901Zm-7.168,5.426c-3.35,0-5.762,1.876-5.762,4.958s2.277,4.556,5.024,4.556c3.156-.072,6.09-1.639,7.906-4.221v-5.293h-7.168Z"/><g class="d"><path class="c" d="m20.827,22.368c5.9,1.407,9.647,5.159,9.647,11.657,0,9.581-7.168,13-16.347,13H.127V.125h14c8.373,0,14.673,3.082,14.673,11.256,0,6.163-3.684,9.58-7.972,10.719v.268ZM7.361,6.557v13.265h6.3c4.488,0,7.637-2.814,7.637-6.767,0-4.287-2.747-6.5-7.906-6.5l-6.031.002Zm0,19.429v14.605h6.364c5.762,0,9.246-2.948,9.246-7.437,0-4.757-3.283-7.168-9.312-7.168h-6.298Z"/><path class="c" d="m46.823,25.316h6.1c7.37,0,12.194,4.02,12.194,10.92s-4.828,10.786-12.198,10.786h-13.064V12.854h6.968v12.462Zm0,5.828v10.05h5.427c3.55,0,5.761-1.876,5.761-5.025s-2.211-5.025-5.761-5.025h-5.427Zm30.282,15.878h-6.968V12.854h6.968v34.168Z"/><path class="c" d="m114.356,37.174c0,6.164-3.886,9.848-11.657,9.848h-14.874V12.854h13.8c6.834,0,11.323,2.546,11.323,8.71-.056,3.476-2.452,6.476-5.829,7.3v.2c3.281.741,7.237,3.152,7.237,8.11Zm-19.563-18.491v7.772h5.494c3.149,0,5.561-1,5.561-3.886,0-3.015-2.144-3.886-5.092-3.886h-5.963Zm0,13.6v8.911h6.767c3.551,0,5.695-1.407,5.695-4.422s-2.345-4.489-6.365-4.489h-6.097Z"/><path class="c" d="m149.932,31.546h-21.707c.469,6.633,3.953,10.318,10.116,10.318,2.981-.102,5.897-.905,8.509-2.345l2.278,5.293c-3.534,1.862-7.462,2.85-11.456,2.88-10.05,0-16.616-6.565-16.616-17.754,0-11.255,6.164-17.753,15.41-17.753,9.178,0,14.069,5.359,14.069,13.734-.016,1.891-.218,3.776-.603,5.627Zm-21.439-5.427h15.807c0-4.689-2.546-8.106-7.705-8.106-4.618,0-7.495,3.287-8.102,8.106h0Z"/><path class="b" d="m181.153,40.39l2.144,5.36c-2.952,1.31-6.15,1.972-9.38,1.942-11.054,0-16.682-7.905-16.682-17.754s5.293-17.753,16.347-17.753c3.215-.016,6.401.599,9.38,1.808l-2.144,5.36c-2.165-.9-4.489-1.356-6.834-1.34-5.762,0-9.647,4.824-9.647,11.925s3.819,11.926,9.58,11.926c2.483-.03,4.939-.53,7.236-1.474Z"/><path class="c" d="m207.014,29.336l11.323,17.686-7.1.67-9.849-15.476h-3.751v14.806h-6.968V12.854h6.968v13.8h3.818l8.978-13.8h7.236l-10.655,16.482Z"/><path class="b" d="m241.853,26.924v-2.278c0-4.087-1.742-6.633-6.766-6.633-3.164.056-6.294.668-9.246,1.809l-2.01-5.427c3.849-1.473,7.938-2.222,12.059-2.21,10.452,0,12.93,5.493,12.93,12.6v14.332c-.149,1.183.689,2.263,1.872,2.412.18.023.361.023.541,0h.736v5.158c-1.293.445-2.651.672-4.019.671-2.52.145-4.792-1.51-5.427-3.953h-.268c-2.485,2.662-6.009,4.106-9.648,3.953-6.5,0-10.585-3.216-10.585-10.184,0-6.5,5.36-10.25,12.93-10.25h6.901Zm-7.168,5.426c-3.35,0-5.762,1.876-5.762,4.958s2.277,4.556,5.024,4.556c3.156-.072,6.09-1.639,7.906-4.221v-5.293h-7.168Z"/></g></svg>