<svg xmlns="http://www.w3.org/2000/svg" viewBox="0 0 1346.12 991.93"><defs><style>.a{fill:#222c54;}.b{fill:#34a936;}.b,.g{opacity:0.5;}.c{fill:#fff;}.d{opacity:0.63;}.e,.g{fill:#0bbbef;}.f{fill:#38a032;}.h{fill:#77be7f;}</style></defs><rect class="a" x="77.9" y="47.15" width="1190.55" height="907.09" rx="70.87"/><rect class="b" x="77.8" y="727.46" width="1105.62" height="113.39"/><path class="c" d="M371.61,727.45V825.3h26.25v15.55H325V825.3H354.6V743H327.39l3.24-15.55Z"/><path class="c" d="M439.81,825.3H486l-3.24,15.55H414.7V826.92c22.2-16.69,50.39-46.17,50.39-67.88,0-10.86-5.35-17.66-16.85-17.66-8.75,0-16.2,2.91-23.82,7.61l-7.77-13.61c13-7,21.38-9.55,34.67-9.55,19.92,0,31.43,11.34,31.43,31.1,0,25-23.17,52-42.94,67.72Z"/><path class="c" d="M708.9,746.73l11.18-11.18,48.6,48.6-48.6,48.6L708.9,821.57l29.32-28.84v-.48H549.33v-16.2H738.22v-.49Z"/><path class="c" d="M857.29,825.3h46.17l-3.24,15.55h-68V826.92c22.19-16.69,50.38-46.17,50.38-67.88,0-10.86-5.34-17.66-16.85-17.66-8.75,0-16.2,2.91-23.81,7.61l-7.78-13.61c13-7,21.39-9.55,34.67-9.55,19.93,0,31.43,11.34,31.43,31.1,0,25-23.17,52-42.93,67.72Z"/><path class="c" d="M978.79,727.45l-40.5,70.79v.65h25.76V778.32h17v20.57h18.63l-3.24,15.39H981.06v26.57h-17V814.28H917.88V800.51l41.79-73.06Z"/><rect class="b" x="77.79" y="217.38" width="1105.62" height="368.5"/><rect class="b" x="775.79" y="315.5" width="407.5" height="270.31"/><path class="c" d="M374.53,217.53V524.71h82.58v61h-242v-61h93.63V278.54H223l10.52-61Z"/><path class="c" d="M699.59,217.53,569.67,442.13v2.11h68.91V382.69h65.75v61.55h57.86l-10.52,60.49H704.33v81H638.58v-81H491.3V449.5l135.18-232Z"/><path class="c" d="M903.65,296.94h44.54L805.73,626.4H761.19Z"/><path class="c" d="M1000,467.08V433.67l51.84-63v-1.54H955.09l7.68-52.22H1111v48.38l-49.53,57.6v1.53c32.25,8.07,61.44,30.34,61.44,77.57,0,59.13-46.08,87.55-94.85,87.55-33.79,0-59.9-8.83-81.79-22.66l28-44.92a90.41,90.41,0,0,0,51.07,15.36c21.51,0,40.32-11.91,40.32-35.33,0-24.57-20.73-34.94-43-34.94Z"/><g class="d"><rect class="e" x="673.17" y="17.45" width="1.76" height="21.44"/><rect class="e" x="673.17" y="49.38" width="1.76" height="21.43"/><rect class="e" x="673.17" y="81.3" width="1.76" height="21.44"/><rect class="e" x="673.17" y="113.23" width="1.76" height="21.43"/><rect class="e" x="673.17" y="145.15" width="1.76" height="21.43"/><rect class="e" x="673.17" y="177.08" width="1.76" height="21.44"/><rect class="e" x="673.17" y="209" width="1.76" height="21.44"/><rect class="e" x="673.17" y="240.93" width="1.76" height="21.44"/><rect class="e" x="673.17" y="272.86" width="1.76" height="21.43"/><rect class="e" x="673.17" y="304.78" width="1.76" height="21.44"/><rect class="e" x="673.17" y="336.71" width="1.76" height="21.43"/><rect class="e" x="673.17" y="368.63" width="1.76" height="21.43"/></g><g class="d"><rect class="e" x="673.17" y="380.73" width="1.76" height="21.44"/><rect class="e" x="673.17" y="412.66" width="1.76" height="21.44"/><rect class="e" x="673.17" y="444.58" width="1.76" height="21.44"/><rect class="e" x="673.17" y="476.51" width="1.76" height="21.43"/><rect class="e" x="673.17" y="508.43" width="1.76" height="21.44"/><rect class="e" x="673.17" y="540.36" width="1.76" height="21.43"/><rect class="e" x="673.17" y="572.28" width="1.76" height="21.43"/><rect class="e" x="673.17" y="604.21" width="1.76" height="21.44"/><rect class="e" x="673.17" y="636.14" width="1.76" height="21.44"/><rect class="e" x="673.17" y="668.06" width="1.76" height="21.44"/></g><path class="e" d="M1305.3,493.13c0,5.39-3.86,7.91-8.3,7.91a12.32,12.32,0,0,1-7.11-2.07l1.79-2.94a8.48,8.48,0,0,0,5.08,1.65c2.69,0,4.72-1.4,4.72-4.52s-2.1-4.55-4.87-4.55h-1.82v-1.89l5.26-7v-.14h-9.35l.7-3.36h12.81v3l-5,6.65v.1C1302.5,486.51,1305.3,488.4,1305.3,493.13Z"/><path class="e" d="M1314.53,497.33h10l-.7,3.36h-14.7v-3c4.79-3.61,10.89-10,10.89-14.67,0-2.35-1.16-3.81-3.65-3.81a9.54,9.54,0,0,0-5.14,1.64l-1.68-2.94a13.92,13.92,0,0,1,7.49-2.07c4.31,0,6.79,2.46,6.79,6.73,0,5.39-5,11.23-9.28,14.63Z"/><path class="e" d="M1335.67,501c-5.39,0-8.57-4.31-8.57-12.6s3.18-12.61,8.57-12.61,8.58,4.31,8.58,12.61S1341.07,501,1335.67,501Zm0-3.36c2.81,0,4.76-2.73,4.76-9.24s-2-9.24-4.76-9.24-4.76,2.72-4.76,9.24S1332.87,497.68,1335.67,497.68Z"/><path class="e" d="M657.39,967.07l-8.76,15.3v.14h5.57v-4.44h3.68v4.44h4l-.7,3.33h-3.32v5.74H654.2v-5.74h-10v-3l9-15.79Z"/><path class="e" d="M669.57,988.22h10l-.7,3.36h-14.7v-3c4.79-3.61,10.89-10,10.89-14.67,0-2.35-1.16-3.82-3.64-3.82a9.5,9.5,0,0,0-5.15,1.65l-1.68-2.94a13.92,13.92,0,0,1,7.49-2.07c4.31,0,6.79,2.45,6.79,6.72,0,5.39-5,11.24-9.27,14.64Z"/><path class="e" d="M690.71,991.93c-5.4,0-8.58-4.31-8.58-12.6s3.18-12.61,8.58-12.61,8.57,4.31,8.57,12.61S696.1,991.93,690.71,991.93Zm0-3.36c2.8,0,4.76-2.73,4.76-9.24s-2-9.25-4.76-9.25-4.77,2.73-4.77,9.25S687.91,988.57,690.71,988.57Z"/><path class="f" d="M10.08,391.15v21.14h5.67v3.36H0v-3.36H6.4V394.51H.52l.7-3.36Z"/><path class="f" d="M33.74,408.09c0,5.39-3.85,7.91-8.3,7.91a12.26,12.26,0,0,1-7.1-2.07L20.12,411a8.48,8.48,0,0,0,5.08,1.65c2.69,0,4.72-1.4,4.72-4.52s-2.09-4.55-4.86-4.55H23.24v-1.89l5.25-7v-.14H19.14l.7-3.36H32.66v3l-5,6.65v.1C30.94,401.47,33.74,403.36,33.74,408.09Z"/><path class="f" d="M45.26,416c-5.4,0-8.58-4.31-8.58-12.6s3.18-12.6,8.58-12.6,8.57,4.3,8.57,12.6S50.64,416,45.26,416Zm0-3.36c2.79,0,4.75-2.73,4.75-9.24s-2-9.24-4.75-9.24-4.77,2.73-4.77,9.24S42.45,412.64,45.26,412.64Z"/><path class="f" d="M30.8,771.65,22.05,787v.14h5.57v-4.45h3.67v4.45h4l-.7,3.32H31.29v5.74H27.62v-5.74h-10v-3l9-15.79Z"/><path class="f" d="M45.26,796.5c-5.4,0-8.58-4.3-8.58-12.6s3.18-12.6,8.58-12.6,8.57,4.3,8.57,12.6S50.65,796.5,45.26,796.5Zm0-3.36c2.8,0,4.76-2.73,4.76-9.24s-2-9.24-4.76-9.24-4.77,2.73-4.77,9.24S42.46,793.14,45.26,793.14Z"/><path class="e" d="M30.27,660.89a4.78,4.78,0,0,0-5.11-5,12.36,12.36,0,0,0-5.07,1V644.26H33.18l-.7,3.36H23.76v5.25a12,12,0,0,1,2.17-.21c4.49,0,8.16,2.66,8.16,8.23,0,5.39-3.85,8.23-8.3,8.23a12.26,12.26,0,0,1-7.1-2.07l1.78-2.94a8.48,8.48,0,0,0,5.08,1.65A4.48,4.48,0,0,0,30.27,660.89Z"/><path class="e" d="M45.26,669.12c-5.4,0-8.58-4.31-8.58-12.61s3.18-12.6,8.58-12.6,8.57,4.31,8.57,12.6S50.64,669.12,45.26,669.12Zm0-3.36c2.79,0,4.75-2.73,4.75-9.25s-2-9.24-4.75-9.24-4.77,2.73-4.77,9.24S42.45,665.76,45.26,665.76Z"/><path class="e" d="M23,127.64A6.4,6.4,0,0,1,27.4,126c4,0,7,2.55,7,7.7,0,5-3.43,7.87-8,7.87-4.94,0-7.95-3.71-7.95-9.2,0-8.47,5.29-13.9,12.54-16l1.29,2.8c-4,1.44-8.19,4-9.49,8.44Zm3.5,10.53c2.38,0,4.17-1.61,4.17-4.51s-1.79-4.34-4.17-4.34a4.7,4.7,0,0,0-4.24,3C22.22,135.83,23.76,138.17,26.46,138.17Z"/><path class="e" d="M45.26,141.53c-5.4,0-8.58-4.3-8.58-12.6s3.18-12.6,8.58-12.6,8.57,4.31,8.57,12.6S50.64,141.53,45.26,141.53Zm0-3.36c2.79,0,4.75-2.73,4.75-9.24s-2-9.24-4.75-9.24-4.77,2.73-4.77,9.24S42.45,138.17,45.26,138.17Z"/><path class="e" d="M30.8,882l-8.75,15.3v.14h5.56V893h3.68v4.44h4l-.7,3.33H31.29v5.74H27.61V900.8h-10v-3l9-15.79Z"/><path class="e" d="M45.26,906.89c-5.4,0-8.58-4.31-8.58-12.6s3.18-12.61,8.58-12.61,8.57,4.31,8.57,12.61S50.64,906.89,45.26,906.89Zm0-3.36c2.79,0,4.75-2.73,4.75-9.24s-2-9.25-4.75-9.25-4.77,2.74-4.77,9.25S42.45,903.53,45.26,903.53Z"/><rect class="g" x="1183.29" y="47.15" width="85.04" height="907.09"/><path class="h" d="M220.54,141.06v-3h2.82v-12h-2.82v-3h9.07l-.52,3h-2.44v12h2.83v3Z"/><path class="h" d="M232.2,131.4c0-2.19,1.78-3.7,4.65-3.7a10.19,10.19,0,0,1,4.27.9L240,131.09a8.39,8.39,0,0,0-3-.64c-1.13,0-1.64.41-1.64,1.05,0,.8.77,1.18,2.08,1.62,1.93.64,4,1.64,4,4.24,0,2.39-2,4-5,4a10.18,10.18,0,0,1-4.55-.95l1.1-2.57a8.39,8.39,0,0,0,3.35.77c1.1,0,1.87-.49,1.87-1.21,0-1-1.26-1.49-2.57-2C234.13,134.82,232.2,133.81,232.2,131.4Z"/><path class="h" d="M253.4,137.72l1.11,2.49a10.2,10.2,0,0,1-4.53,1.11c-3.85,0-6.5-2.52-6.5-6.81s2.32-6.81,6-6.81c3.41,0,5.55,2.13,5.55,5.8a18.27,18.27,0,0,1-.16,2h-8.17a3.38,3.38,0,0,0,3.42,3.09A7.8,7.8,0,0,0,253.4,137.72ZM252.14,133a2.42,2.42,0,0,0-2.59-2.59,2.81,2.81,0,0,0-2.78,2.59Z"/><path class="h" d="M266,140.85a9.24,9.24,0,0,1-2.85.47c-2.36,0-4.29-1.08-4.29-4.14V130.7h-2.26V128h2.26v-3.54l3.19-.52V128h3.67l-.51,2.75H262v6.48c0,1,.41,1.39,1.41,1.39a7.23,7.23,0,0,0,2-.34Z"/><path class="h" d="M279.48,133.12c-2.31-.9-5-2.52-5-5.5s2.31-4.8,6-4.8a10.73,10.73,0,0,1,5.27,1.38l-1.57,2.62a7,7,0,0,0-3.7-1c-1.62,0-2.57.56-2.57,1.67,0,1.31,1.57,2.28,3.06,2.87,2.83,1.11,5.34,2.5,5.34,5.84,0,3.18-2.36,5.14-6.39,5.14a10.23,10.23,0,0,1-5.81-1.6l1.77-2.67a6.69,6.69,0,0,0,4,1.28c1.72,0,3-.77,3-2.1C282.9,134.61,281.39,133.86,279.48,133.12Z"/><path class="h" d="M295.83,132.48c0-1.26-.65-2-2.21-2a10.35,10.35,0,0,0-3.5.69l-.95-2.57a13.16,13.16,0,0,1,4.76-.87c4,0,5.08,2.1,5.08,4.83v5a.83.83,0,0,0,.93.93h.28v2.49a6.06,6.06,0,0,1-1.82.26,2.36,2.36,0,0,1-2.32-1.26H296a4.41,4.41,0,0,1-3.44,1.26c-2.49,0-4.06-1.24-4.06-3.91s2-3.93,4.91-3.93h2.44Zm0,4.8v-1.49h-2.34c-1.18,0-1.85.59-1.85,1.44a1.3,1.3,0,0,0,1.41,1.34A3.73,3.73,0,0,0,295.83,137.28Z"/><path class="h" d="M306,141.06h-3.19V128h2.42l.51,1.13h.1a5.08,5.08,0,0,1,3.47-1.38c2.75,0,4.29,1.72,4.29,5.16v8.2H310.4v-7.91c0-1.83-.7-2.7-1.9-2.7A3.53,3.53,0,0,0,306,132Z"/><path class="h" d="M316.57,131.4c0-2.19,1.77-3.7,4.65-3.7a10.17,10.17,0,0,1,4.26.9l-1.08,2.49a8.34,8.34,0,0,0-3-.64c-1.13,0-1.65.41-1.65,1.05,0,.8.77,1.18,2.08,1.62,1.93.64,4,1.64,4,4.24,0,2.39-2,4-5,4a10.21,10.21,0,0,1-4.55-.95l1.11-2.57a8.3,8.3,0,0,0,3.34.77c1.1,0,1.87-.49,1.87-1.21,0-1-1.26-1.49-2.57-2C318.49,134.82,316.57,133.81,316.57,131.4Z"/><path class="h" d="M348.87,129.32h-.08l-3.08,9.37h-3.37l-3.11-9.37h-.08l-1.08,11.74h-3.29l1.67-18h3.68L344,134.64h.08l3.86-11.57h3.67l1.67,18H350Z"/><path class="h" d="M365.75,137.72l1.1,2.49a10.16,10.16,0,0,1-4.52,1.11c-3.85,0-6.5-2.52-6.5-6.81s2.31-6.81,6-6.81c3.42,0,5.55,2.13,5.55,5.8a17.79,17.79,0,0,1-.15,2h-8.17a3.38,3.38,0,0,0,3.42,3.09A7.84,7.84,0,0,0,365.75,137.72ZM364.49,133a2.43,2.43,0,0,0-2.6-2.59,2.81,2.81,0,0,0-2.77,2.59Z"/><path class="h" d="M378.47,139.93a4.87,4.87,0,0,1-3.39,1.39c-3.7,0-5.37-2.86-5.37-6.81s1.69-6.81,5.6-6.81a9.13,9.13,0,0,1,3,.49V122.3l3.18-.51v19.27h-2.41l-.52-1.13Zm-5.53-5.42c0,2.39,1,4.06,2.91,4.06a3.46,3.46,0,0,0,2.47-1.29v-6.14a5,5,0,0,0-2.57-.69C374,130.45,372.94,131.94,372.94,134.51Z"/><path class="h" d="M383.94,130.7l.52-2.75h4.83v13.11H386.1V130.7Zm3.75-8.4a1.84,1.84,0,1,1,0,3.68,1.84,1.84,0,1,1,0-3.68Z"/><path class="h" d="M400.67,128h3.19v13.11h-2.42l-.51-1.13h-.1a5.56,5.56,0,0,1-3.65,1.39c-2.57,0-4.5-1.7-4.5-5.37v-8h3.19v8c0,1.82.9,2.62,2.1,2.62a3.86,3.86,0,0,0,2.7-1.55Z"/><path class="h" d="M416.84,129.14a6.11,6.11,0,0,1,4-1.44c2.75,0,4.34,1.72,4.34,5.16v8.2H422v-7.91c0-1.83-.7-2.7-1.9-2.7a3.31,3.31,0,0,0-2.16,1.1v9.51H414.7v-7.91c0-1.83-.64-2.7-1.75-2.7a3.21,3.21,0,0,0-2.31,1.54v9.07h-3.18V128h2.41l.51,1.13h.11a4.66,4.66,0,0,1,3.29-1.38A3.84,3.84,0,0,1,416.84,129.14Z"/><path class="h" d="M225.78,158.78l5.65-7.71H234l-6.14,8.51,6.68,9.48-2.52.26-6.24-8.59h-2v8.33h-2.26v-18h2.26v7.71Z"/><path class="h" d="M238.09,163.12c.2,2.86,1.54,4.47,4.13,4.47a6.92,6.92,0,0,0,3.37-.92l.75,1.54a8.83,8.83,0,0,1-4.37,1.11c-3.65,0-6.14-2.52-6.14-6.81,0-4.06,2.08-6.81,5.78-6.81,3.52,0,5.27,2.05,5.27,5.26a10.65,10.65,0,0,1-.24,2.16Zm0-1.56h6.75a4,4,0,0,0,0-.6c0-2.05-1.08-3.54-3.21-3.54S238.22,159.11,238.09,161.56Z"/><path class="h" d="M258.39,156l-.52,1.73h-5.24v11.38h-2.16V156Z"/><path class="h" d="M270.52,156v13.11h-2.16V157.68H264.3v1.07c0,7-1.16,10.44-3.93,10.44a3.76,3.76,0,0,1-1.73-.46l.62-1.68a1.68,1.68,0,0,0,1,.31c1.36,0,2-2.54,2-9.22V156Z"/><path class="h" d="M279.87,160.73c2.83,0,4.68,1.55,4.68,4.19s-1.85,4.14-4.68,4.14h-5V156H277v4.78ZM277,162.45v4.89h2.57c1.67,0,2.73-.9,2.73-2.44s-1.06-2.45-2.73-2.45Z"/><path class="h" d="M304.85,163.33c0,4-2.52,6-5.89,6a8.72,8.72,0,0,1-5.16-1.52l1-1.72a6.55,6.55,0,0,0,3.95,1.28c2.16,0,3.78-1.33,3.78-4a3.75,3.75,0,0,0-4.06-4,12.54,12.54,0,0,0-3.67.67v-8.89h9.35l-.51,2H297v4.63a9.87,9.87,0,0,1,2.06-.21C302.43,157.44,304.85,159.47,304.85,163.33Z"/><path class="h" d="M313.38,152.77a7.87,7.87,0,0,0-3.93,1.28l-.95-1.72a10.16,10.16,0,0,1,5.37-1.51c3.16,0,4.85,1.79,4.85,4.93,0,4.32-4.24,8.79-7.32,11.25v.11h7.84l-.52,1.95H308.19v-1.7c3.62-2.82,8.25-7.42,8.25-11.41C316.44,153.92,315.56,152.77,313.38,152.77Z"/><path class="h" d="M325.38,159.32a4.74,4.74,0,0,1,3.47-1.44c2.9,0,5,2.08,5,5.71a5.37,5.37,0,0,1-5.73,5.73c-3.63,0-5.71-2.73-5.71-6.76a12.38,12.38,0,0,1,9.15-11.74l.74,1.56a10.91,10.91,0,0,0-7,6.89Zm2.78,8c2,0,3.44-1.31,3.44-3.77s-1.39-3.76-3.44-3.76a3.94,3.94,0,0,0-3.5,2.73C324.66,165.44,325.84,167.36,328.16,167.36Z"/><path class="h" d="M354.21,169.06h-2.16V157.68h-5.73v11.38h-2.15V156h10Z"/><path class="h" d="M357,156h10.84l-.51,1.73h-3.91v11.38h-2.13V157.68H357Z"/><path class="h" d="M815.37,887.37V884.9h3v-13h-3v-2.47h8.81l-.51,2.47H821.1v13h2.95v2.47Z"/><path class="h" d="M831.94,879.58c1.9.54,4.06,1.67,4.06,4.09s-1.87,4-4.83,4a11.06,11.06,0,0,1-4.42-.9l.9-2.11a8.41,8.41,0,0,0,3.44.77c1.52,0,2.24-.62,2.24-1.59,0-1.34-1.31-1.8-2.78-2.24s-3.51-1.46-3.51-4c0-2.31,1.82-3.54,4.57-3.54a9.68,9.68,0,0,1,4.08.9l-.87,2a8.27,8.27,0,0,0-3-.67c-1.41,0-2.08.54-2.08,1.44C829.71,878.79,830.53,879.17,831.94,879.58Z"/><path class="h" d="M849.39,881.43h-8.33c.18,2.55,1.52,4,3.88,4a7.25,7.25,0,0,0,3.27-.9l.87,2a9.6,9.6,0,0,1-4.39,1.11c-3.86,0-6.37-2.52-6.37-6.81s2.36-6.81,5.9-6.81,5.4,2,5.4,5.26A11.36,11.36,0,0,1,849.39,881.43Zm-8.22-2.08h6.06a2.79,2.79,0,0,0-3-3.11C842.5,876.24,841.4,877.5,841.17,879.35Z"/><path class="h" d="M860.57,887.16a9,9,0,0,1-2.8.47c-2.37,0-4.11-1.08-4.11-4.14v-7h-2.24v-2.24h2.24v-3.54l2.67-.52v4.06h4l-.52,2.24h-3.44v7.12a1.56,1.56,0,0,0,1.75,1.77,7.24,7.24,0,0,0,2.1-.36Z"/><path class="h" d="M878,882.72c0-1.78-1.72-2.75-3.7-3.52-2.31-.9-5-2.21-5-5.19s2.19-4.89,5.84-4.89a10.17,10.17,0,0,1,5.13,1.39L879,872.7a6.84,6.84,0,0,0-3.82-1.11c-2,0-3,.8-3,2.26s1.77,2.42,3.34,3c2.83,1.11,5.32,2.34,5.32,5.68s-2.24,5.07-6.27,5.07a9.8,9.8,0,0,1-5.68-1.6l1.46-2.26a6.69,6.69,0,0,0,4.22,1.39C876.6,885.16,878,884.39,878,882.72Z"/><path class="h" d="M890.92,879.66v-.87c0-1.57-.67-2.55-2.6-2.55a10.22,10.22,0,0,0-3.54.7l-.78-2.09a13,13,0,0,1,4.63-.84c4,0,5,2.1,5,4.83v5.5a.82.82,0,0,0,.92.92h.29v2a4.86,4.86,0,0,1-1.54.26,2,2,0,0,1-2.09-1.52h-.1a4.79,4.79,0,0,1-3.7,1.52c-2.49,0-4.06-1.24-4.06-3.91,0-2.49,2.06-3.93,5-3.93Zm-2.75,2.08a2,2,0,0,0-2.21,1.9,1.72,1.72,0,0,0,1.92,1.75,3.82,3.82,0,0,0,3-1.62v-2Z"/><path class="h" d="M900.3,887.37h-2.68V874.26h1.91l.51,1.39h.1a4.75,4.75,0,0,1,3.7-1.64c2.93,0,4.32,1.72,4.32,5.16v8.2h-2.67v-8c0-2.16-.75-3.11-2.29-3.11a4.06,4.06,0,0,0-2.9,1.83Z"/><path class="h" d="M916.31,879.58c1.9.54,4.06,1.67,4.06,4.09s-1.88,4-4.83,4a11,11,0,0,1-4.42-.9l.89-2.11a8.5,8.5,0,0,0,3.45.77c1.51,0,2.23-.62,2.23-1.59,0-1.34-1.31-1.8-2.77-2.24s-3.52-1.46-3.52-4c0-2.31,1.82-3.54,4.57-3.54a9.69,9.69,0,0,1,4.09.9l-.88,2a8.23,8.23,0,0,0-3-.67c-1.41,0-2.08.54-2.08,1.44C914.07,878.79,914.89,879.17,916.31,879.58Z"/><path class="h" d="M941.49,874.73a4.84,4.84,0,0,1-3.73,5l4.71,7.61-3,.26-4.7-7.61h-1.6v7.35h-2.77v-18h5.47C939,869.38,941.49,871.21,941.49,874.73Zm-8.33-2.88v5.7h2.57a2.68,2.68,0,0,0,2.88-2.82,2.72,2.72,0,0,0-2.88-2.88Z"/><path class="h" d="M955.08,881.43h-8.32c.18,2.55,1.51,4,3.88,4a7.24,7.24,0,0,0,3.26-.9l.87,2a9.6,9.6,0,0,1-4.39,1.11c-3.85,0-6.37-2.52-6.37-6.81s2.36-6.81,5.91-6.81,5.39,2,5.39,5.26A10.6,10.6,0,0,1,955.08,881.43Zm-8.22-2.08h6.06a2.79,2.79,0,0,0-2.95-3.11C948.2,876.24,947.09,877.5,946.86,879.35Z"/><path class="h" d="M963.64,883.21a7.47,7.47,0,0,1-2.21-.31,1,1,0,0,0-.41.79c0,.57.31,1,1,1.08l3.67.59c1.67.29,3.8,1.16,3.8,3.6,0,2.8-2.56,4.06-5.93,4.06-3.78,0-5.83-1.33-5.83-3.65a3.59,3.59,0,0,1,1.74-3,2.26,2.26,0,0,1-1-2,2.89,2.89,0,0,1,1.34-2.26,4.3,4.3,0,0,1-1.54-3.47c0-2.88,2.13-4.6,5.34-4.6a7.19,7.19,0,0,1,2.57.46l4.09-1-.52,2.5h-1.57a4.54,4.54,0,0,1,.78,2.62C969,881.48,966.85,883.21,963.64,883.21Zm-3.44,5.7c0,1.16,1,1.88,3.39,1.88s3.21-.78,3.21-1.78-.69-1.28-2.08-1.51L961.4,887A2.23,2.23,0,0,0,960.2,888.91Zm.69-10.3c0,1.38.9,2.41,2.75,2.41s2.75-1,2.75-2.41-.9-2.42-2.75-2.42S960.89,877.22,960.89,878.61Z"/><path class="h" d="M980.73,874.26h2.67v13.11h-1.9L981,886h-.11a5.08,5.08,0,0,1-3.88,1.65c-2.8,0-4.52-1.65-4.52-5.35v-8h2.67v8c0,2.16,1,3.11,2.5,3.11a4.43,4.43,0,0,0,3.08-1.82Z"/><path class="h" d="M992.91,887.24a5.84,5.84,0,0,1-2.19.39c-2.18,0-3.34-1.13-3.34-3.65V868.61l2.68-.51V884c0,1,.38,1.41,1.1,1.41a3.53,3.53,0,0,0,1.34-.26Z"/><path class="h" d="M1001.93,879.66v-.87c0-1.57-.67-2.55-2.6-2.55a10.27,10.27,0,0,0-3.54.7l-.77-2.09a12.91,12.91,0,0,1,4.62-.84c4,0,5,2.1,5,4.83v5.5a.83.83,0,0,0,.93.92h.28v2a4.86,4.86,0,0,1-1.54.26,2,2,0,0,1-2.08-1.52h-.11a4.79,4.79,0,0,1-3.7,1.52c-2.49,0-4.06-1.24-4.06-3.91,0-2.49,2.06-3.93,5-3.93Zm-2.75,2.08a2,2,0,0,0-2.21,1.9,1.72,1.72,0,0,0,1.93,1.75,3.8,3.8,0,0,0,3-1.62v-2Z"/><path class="h" d="M1015.29,876.76a3,3,0,0,0-1.36-.26c-1.39,0-2.39,1.41-2.62,3v7.84h-2.67V874.26h1.9l.51,2h.1a3.43,3.43,0,0,1,3.34-2.28,6,6,0,0,1,1.68.25Z"/><path class="h" d="M820.48,905.09l5.65-7.71h2.57l-6.14,8.51,6.68,9.48-2.51.26L820.48,907h-2v8.33h-2.26v-18h2.26v7.71Z"/><path class="h" d="M832.79,909.43c.21,2.86,1.54,4.47,4.14,4.47a6.91,6.91,0,0,0,3.36-.92l.75,1.54a8.94,8.94,0,0,1-4.37,1.11c-3.65,0-6.14-2.52-6.14-6.81,0-4.06,2.08-6.81,5.78-6.81,3.52,0,5.27,2,5.27,5.26a11.36,11.36,0,0,1-.23,2.16Zm0-1.56h6.76c0-.21,0-.39,0-.6,0-2-1.07-3.54-3.21-3.54S832.92,905.42,832.79,907.87Z"/><path class="h" d="M853.09,902.26l-.51,1.73h-5.24v11.38h-2.16V902.26Z"/><path class="h" d="M865.22,902.26v13.11h-2.16V904H859v1.07c0,7-1.15,10.44-3.93,10.44a3.6,3.6,0,0,1-1.72-.47l.62-1.67a1.65,1.65,0,0,0,1,.31c1.36,0,2-2.54,2-9.22v-2.19Z"/><path class="h" d="M874.57,907c2.83,0,4.68,1.54,4.68,4.19s-1.85,4.14-4.68,4.14h-5V902.26h2.16V907Zm-2.82,1.72v4.89h2.57c1.67,0,2.72-.9,2.72-2.44s-1-2.45-2.72-2.45Z"/><path class="h" d="M895.65,897.38v16h4.29v2H888.63v-2h4.83V899.33H889l.51-2Z"/><path class="h" d="M905.69,905.63a4.76,4.76,0,0,1,3.47-1.44c2.91,0,5,2.08,5,5.71a5.37,5.37,0,0,1-5.73,5.73c-3.62,0-5.71-2.73-5.71-6.76a12.41,12.41,0,0,1,9.15-11.75l.75,1.57a10.86,10.86,0,0,0-7,6.89Zm2.78,8c2,0,3.44-1.31,3.44-3.77s-1.39-3.76-3.44-3.76a4,4,0,0,0-3.5,2.73C905,911.75,906.16,913.67,908.47,913.67Z"/><path class="h" d="M922.47,899.08a7.93,7.93,0,0,0-3.93,1.28l-.95-1.72a10.22,10.22,0,0,1,5.37-1.52c3.16,0,4.86,1.8,4.86,4.94,0,4.31-4.24,8.79-7.32,11.25v.1h7.83l-.51,2H917.28v-1.7c3.63-2.82,8.25-7.42,8.25-11.41C925.53,900.23,924.66,899.08,922.47,899.08Z"/><path class="h" d="M948.92,915.37h-2.16V904H941v11.38h-2.16V902.26h10Z"/><path class="h" d="M951.74,902.26h10.85l-.52,1.73h-3.9v11.38H956V904h-4.29Z"/><path class="h" d="M814.11,141.06v-3.5h2.7v-11h-2.7v-3.5h9.33l-.52,3.5h-2.31v11h2.7v3.5Z"/><path class="h" d="M825.78,131.5c0-2.31,2-3.8,4.78-3.8a11,11,0,0,1,4.39.9l-1.31,3a7.63,7.63,0,0,0-2.9-.62c-.82,0-1.31.26-1.31.72s.43.85,1.67,1.23c1.9.59,4.16,1.8,4.16,4.35s-2,4.06-5.09,4.06a12.11,12.11,0,0,1-4.67-.93l1.31-3.06a8.72,8.72,0,0,0,3.28.72c.9,0,1.52-.41,1.52-1,0-.75-.92-1.08-2.21-1.47C827.83,135.15,825.78,134.33,825.78,131.5Z"/><path class="h" d="M840.91,135.89a3,3,0,0,0,3.09,2.16,7.33,7.33,0,0,0,3-.79l1.34,3a10.73,10.73,0,0,1-4.65,1.11c-3.8,0-6.68-2.39-6.68-6.81s2.39-6.81,6.19-6.81c3.57,0,5.63,2.21,5.63,5.39a12.79,12.79,0,0,1-.28,2.8Zm4.6-2.85A2,2,0,0,0,843.3,131a2.34,2.34,0,0,0-2.46,2.08Z"/><path class="h" d="M855.82,137.13c0,.69.49.92,1.13.92a8.91,8.91,0,0,0,2.13-.31l.75,3.11a11.52,11.52,0,0,1-3.19.47c-2.36,0-4.52-1-4.52-4.19v-5.91h-2V128h2v-3.54l3.7-.52V128h3.72l-.51,3.27h-3.21Z"/><path class="h" d="M868.07,127.7c0-3.21,2.37-4.88,6.1-4.88a11.18,11.18,0,0,1,5.39,1.38l-1.82,3.06a6.94,6.94,0,0,0-3.57-1c-1.34,0-2.19.54-2.19,1.39,0,1.15,1.31,1.9,2.72,2.46,2.83,1.11,5.43,2.68,5.43,6,0,3.18-2.5,5.14-6.53,5.14a10.68,10.68,0,0,1-5.94-1.6l2.09-3.08a6.43,6.43,0,0,0,3.85,1.18c1.44,0,2.62-.74,2.62-1.82,0-1.36-1.28-2-3.08-2.7C870.82,132.4,868.07,130.83,868.07,127.7Z"/><path class="h" d="M889.4,140.06a4.48,4.48,0,0,1-3,1.13c-2.49,0-4.32-1.31-4.32-4,0-2.49,2-3.95,4.86-3.95h2.24v-.77c0-.93-.6-1.52-1.83-1.52a10.43,10.43,0,0,0-3.44.64l-1.13-3a13.87,13.87,0,0,1,4.88-.85c4,0,5.22,2.1,5.22,4.83V137a.82.82,0,0,0,.92.92h.28v2.73a4.52,4.52,0,0,1-2.08.54,2.65,2.65,0,0,1-2.46-1.13Zm-2.62-1.85a3.78,3.78,0,0,0,2.37-.9V136h-2.24c-.87,0-1.44.49-1.44,1.18S886,138.21,886.78,138.21Z"/><path class="h" d="M900.07,141.06h-3.7V128h2.93l.51.88h.1a5.1,5.1,0,0,1,3.16-1.13c2.75,0,4.35,1.8,4.35,5.24v8.12h-3.7v-8.12c0-1.41-.59-2-1.52-2a2.88,2.88,0,0,0-2.13,1.31Z"/><path class="h" d="M910.14,131.5c0-2.31,2-3.8,4.78-3.8a11,11,0,0,1,4.39.9l-1.31,3a7.63,7.63,0,0,0-2.9-.62c-.82,0-1.31.26-1.31.72s.44.85,1.67,1.23c1.9.59,4.16,1.8,4.16,4.35s-2,4.06-5.08,4.06a12.12,12.12,0,0,1-4.68-.93l1.31-3.06a8.73,8.73,0,0,0,3.29.72c.9,0,1.51-.41,1.51-1,0-.75-.92-1.08-2.21-1.47C912.2,135.15,910.14,134.33,910.14,131.5Z"/><path class="h" d="M928.51,127.7c0-3.21,2.37-4.88,6.09-4.88a11.22,11.22,0,0,1,5.4,1.38l-1.82,3.06a7,7,0,0,0-3.58-1c-1.33,0-2.18.54-2.18,1.39,0,1.15,1.31,1.9,2.72,2.46,2.83,1.11,5.43,2.68,5.43,6,0,3.18-2.5,5.14-6.53,5.14a10.68,10.68,0,0,1-5.94-1.6l2.08-3.08a6.48,6.48,0,0,0,3.86,1.18c1.44,0,2.62-.74,2.62-1.82,0-1.36-1.28-2-3.08-2.7C931.26,132.4,928.51,130.83,928.51,127.7Z"/><path class="h" d="M946.48,135.89a3,3,0,0,0,3.08,2.16,7.42,7.42,0,0,0,3.06-.79l1.33,3a10.73,10.73,0,0,1-4.65,1.11c-3.8,0-6.68-2.39-6.68-6.81s2.39-6.81,6.19-6.81c3.58,0,5.63,2.21,5.63,5.39a12.79,12.79,0,0,1-.28,2.8Zm4.6-2.85a2,2,0,0,0-2.21-2.08A2.34,2.34,0,0,0,946.4,133Z"/><path class="h" d="M966.85,128.88a6.38,6.38,0,0,1,3.76-1.18c3.08,0,4.6,1.8,4.6,5.24v8.12h-3.7v-8.12c0-1.41-.6-2-1.52-2a2.86,2.86,0,0,0-1.9,1v9.1h-3.7v-8.12c0-1.41-.57-2-1.42-2a2.69,2.69,0,0,0-2,1.31v8.79h-3.7V128h2.93l.51.88h.11a4.87,4.87,0,0,1,3-1.13A3.82,3.82,0,0,1,966.85,128.88Z"/><path class="h" d="M977.39,131.22l.51-3.27H983v13.11h-3.7v-9.84Zm3.8-9.18a2.07,2.07,0,0,1,2.11,2.09,2.11,2.11,0,1,1-2.11-2.09Z"/><path class="h" d="M986.64,141.06v-18h5.89c3.21,0,5.62,1.18,5.62,4.32a4,4,0,0,1-3.06,4.11v.1a4.32,4.32,0,0,1,3.71,4.47c0,3.68-2.75,5-6.27,5Zm3.55-10.84h2.15a1.83,1.83,0,1,0-.1-3.65h-2Zm2.15,3.18h-2.15v4.16h2.18c1.62,0,2.52-.84,2.52-2.08S994,133.4,992.34,133.4Z"/><path class="h" d="M1001.11,134.51c0-4.42,2.49-6.81,6.29-6.81s6.3,2.39,6.3,6.81-2.49,6.81-6.3,6.81S1001.11,138.93,1001.11,134.51Zm3.75,0c0,2.39,1,3.54,2.54,3.54s2.55-1.15,2.55-3.54-1-3.55-2.55-3.55S1004.86,132.12,1004.86,134.51Z"/><path class="h" d="M1020.35,137.44a.57.57,0,0,0,.6.61,2.24,2.24,0,0,0,1-.23l.74,3a6.78,6.78,0,0,1-2.44.52c-2.23,0-3.6-1.24-3.6-3.88V122.3l3.7-.51Z"/><path class="h" d="M1032.23,140.19a4.54,4.54,0,0,1-3.06,1.13c-3.7,0-5.45-2.86-5.45-6.81s1.78-6.81,5.68-6.81a8.87,8.87,0,0,1,2.67.38V122.3l3.7-.51v19.27h-2.93l-.51-.87Zm-4.76-5.68c0,2.28.88,3.54,2.47,3.54a3.27,3.27,0,0,0,2.13-1v-5.65a5.42,5.42,0,0,0-2.23-.49C1028.42,131,1027.47,132.22,1027.47,134.51Z"/><path class="h" d="M819.48,158.78l5.65-7.71h2.57l-6.14,8.51,6.68,9.48-2.51.26-6.25-8.59h-2v8.33h-2.26v-18h2.26v7.71Z"/><path class="h" d="M831.79,163.12c.21,2.86,1.54,4.47,4.14,4.47a6.91,6.91,0,0,0,3.36-.92l.75,1.54a8.83,8.83,0,0,1-4.37,1.11c-3.65,0-6.14-2.52-6.14-6.81,0-4.06,2.08-6.81,5.78-6.81,3.52,0,5.27,2.05,5.27,5.26a11.36,11.36,0,0,1-.23,2.16Zm0-1.56h6.76c0-.21,0-.39,0-.6,0-2.05-1.07-3.54-3.21-3.54S831.92,159.11,831.79,161.56Z"/><path class="h" d="M852.09,156l-.51,1.73h-5.24v11.38h-2.16V156Z"/><path class="h" d="M864.22,156v13.11h-2.16V157.68H858v1.07c0,7-1.15,10.44-3.93,10.44a3.72,3.72,0,0,1-1.72-.46l.62-1.68a1.65,1.65,0,0,0,1,.31c1.36,0,2-2.54,2-9.22V156Z"/><path class="h" d="M873.57,160.73c2.83,0,4.68,1.55,4.68,4.19s-1.85,4.14-4.68,4.14h-5V156h2.16v4.78Zm-2.82,1.72v4.89h2.57c1.67,0,2.72-.9,2.72-2.44s-1-2.45-2.72-2.45Z"/><path class="h" d="M898.55,163.33c0,4-2.52,6-5.88,6a8.75,8.75,0,0,1-5.17-1.52l1-1.72a6.58,6.58,0,0,0,4,1.28c2.16,0,3.77-1.33,3.77-4a3.74,3.74,0,0,0-4-4,12.62,12.62,0,0,0-3.68.67v-8.89h9.35l-.51,2h-6.66v4.63a10,10,0,0,1,2.06-.21C896.14,157.44,898.55,159.47,898.55,163.33Z"/><path class="h" d="M907.08,152.77a7.93,7.93,0,0,0-3.93,1.28l-.95-1.72a10.21,10.21,0,0,1,5.37-1.51c3.16,0,4.86,1.79,4.86,4.93,0,4.32-4.24,8.79-7.33,11.25v.11h7.84l-.51,1.95H901.89v-1.7c3.63-2.82,8.25-7.42,8.25-11.41C910.14,153.92,909.27,152.77,907.08,152.77Z"/><path class="h" d="M919.08,159.32a4.76,4.76,0,0,1,3.47-1.44c2.91,0,5,2.08,5,5.71a5.37,5.37,0,0,1-5.73,5.73c-3.62,0-5.7-2.73-5.7-6.76a12.39,12.39,0,0,1,9.14-11.74l.75,1.56c-3.08,1.11-6,3.42-7,6.89Zm2.78,8c2.06,0,3.44-1.31,3.44-3.77s-1.38-3.76-3.44-3.76a3.94,3.94,0,0,0-3.49,2.73C918.37,165.44,919.55,167.36,921.86,167.36Z"/><path class="h" d="M947.92,169.06h-2.16V157.68H940v11.38h-2.16V156h10Z"/><path class="h" d="M950.74,156h10.85l-.52,1.73h-3.9v11.38H955V157.68h-4.29Z"/><path class="h" d="M971.76,159.65a1.57,1.57,0,1,1-1.56,1.57A1.59,1.59,0,0,1,971.76,159.65Z"/><path class="h" d="M992.14,163.92l4-12.85h3.22l1.67,18H998.8l-1.39-15.21h-.1l-4.14,12.84H991l-4.13-12.84h-.1l-1.39,15.21H983.1l1.67-18H988l4,12.85Z"/><path class="h" d="M1011.88,160.48c0-1.88-.65-3.06-3-3.06a9.79,9.79,0,0,0-3.6.72l-.59-1.59a12,12,0,0,1,4.49-.85c4,0,4.84,2.05,4.84,4.78v6.06a.83.83,0,0,0,.92.93h.28v1.46a3.39,3.39,0,0,1-1.28.26,1.77,1.77,0,0,1-1.83-1.78h-.1a4.89,4.89,0,0,1-4,1.78c-2.44,0-4.06-1.19-4.06-3.86,0-2.49,1.93-3.88,4.83-3.88h3Zm-3.14,2.62c-1.59,0-2.65.77-2.65,2.26a2,2,0,0,0,2.24,2.18,4.31,4.31,0,0,0,3.55-1.85V163.1Z"/><path class="h" d="M1027.3,168.55a8.86,8.86,0,0,1-3.6.77c-4.24,0-6.14-3-6.14-6.81s1.77-6.81,6-6.81a9.37,9.37,0,0,1,3.6.72l-.62,1.59a7.25,7.25,0,0,0-2.83-.59c-2.54,0-4,2.05-4,5.09s1.38,5.08,3.93,5.08a8.19,8.19,0,0,0,3-.64Z"/><path class="h" d="M1046.1,169.06h-15.72V156h2.16v11.39h4.65V156h2.13v11.39H1044V156h2.15Z"/><path class="h" d="M1048.93,156h10.85l-.52,1.73h-3.9v11.38h-2.14V157.68h-4.29Z"/><path class="h" d="M1069.18,160.48c0-1.88-.64-3.06-3-3.06a9.88,9.88,0,0,0-3.6.72l-.59-1.59a12.08,12.08,0,0,1,4.5-.85c4,0,4.83,2.05,4.83,4.78v6.06a.83.83,0,0,0,.92.93h.29v1.46a3.49,3.49,0,0,1-1.29.26,1.76,1.76,0,0,1-1.82-1.78h-.1a4.91,4.91,0,0,1-4,1.78c-2.44,0-4.06-1.19-4.06-3.86,0-2.49,1.93-3.88,4.83-3.88h3Zm-3.13,2.62c-1.6,0-2.65.77-2.65,2.26a2,2,0,0,0,2.23,2.18,4.3,4.3,0,0,0,3.55-1.85V163.1Z"/><path class="h" d="M1077.12,158.29a6.45,6.45,0,0,1,4.55-1.95c3.21,0,5.29,2.13,5.29,6.5s-2.41,6.48-6.06,6.48c-4.24,0-5.91-3.24-5.91-8.41,0-8.27,2.18-9.79,6.42-10.17a12.45,12.45,0,0,0,4.14-1l.64,1.72a12.39,12.39,0,0,1-4.55,1.05c-2.92.26-4.59,1.75-4.59,5.73Zm3.78,9.3c2.31,0,3.85-1.56,3.85-4.75s-1.41-4.78-3.54-4.78a5,5,0,0,0-4.06,2.75C1077.15,165.33,1078.23,167.59,1080.9,167.59Z"/><path class="h" d="M1105.82,153h-9.22l.51-2H1108v1.7l-6.29,16.29h-2.21Z"/><path class="h" d="M1116.08,169.32a8.59,8.59,0,0,1-5.09-1.52l1-1.72a6.23,6.23,0,0,0,3.86,1.28c2.29,0,3.85-1.18,3.85-3.83s-1.62-3.85-4-3.85H1115v-.9l3.83-5.65V153h-7.27l.52-2h9.14v1.7l-3.62,5.37v.1a4.88,4.88,0,0,1,4.42,5.29C1122,167.49,1119.34,169.32,1116.08,169.32Z"/><path class="h" d="M1129.34,159.55c-2.44,0-4-1.59-4-4.37s1.52-4.36,4-4.36,4,1.59,4,4.36S1131.78,159.55,1129.34,159.55Zm10.48-8.48h1.85l-13.36,18h-1.9Zm-12.64,4.11c0,1.88.69,2.93,2.16,2.93s2.16-1.05,2.16-2.93-.7-2.93-2.16-2.93S1127.18,153.31,1127.18,155.18Zm11.59,14.14c-2.44,0-4-1.6-4-4.37s1.52-4.37,4-4.37,4,1.59,4,4.37S1141.21,169.32,1138.77,169.32Zm-2.16-4.37c0,1.87.69,2.93,2.16,2.93s2.16-1.06,2.16-2.93-.7-2.93-2.16-2.93S1136.61,163.07,1136.61,165Z"/><path class="e" d="M118.77,22.71c0,5.39-3.85,7.91-8.3,7.91a12.32,12.32,0,0,1-7.11-2.06l1.79-2.94a8.44,8.44,0,0,0,5.07,1.64c2.7,0,4.73-1.4,4.73-4.51,0-3.26-2.1-4.55-4.87-4.55h-1.82V16.31l5.25-7V9.13h-9.34l.7-3.36h12.81v3l-5,6.65v.11C116,16.1,118.77,18,118.77,22.71Z"/><path class="e" d="M130.28,30.62c-5.39,0-8.58-4.3-8.58-12.6s3.19-12.6,8.58-12.6,8.58,4.31,8.58,12.6S135.67,30.62,130.28,30.62Zm0-3.36c2.8,0,4.76-2.73,4.76-9.24s-2-9.24-4.76-9.24-4.76,2.73-4.76,9.24S127.48,27.26,130.28,27.26Z"/><path class="e" d="M1223.4,23.06c0,5.39-3.85,7.91-8.3,7.91a12.26,12.26,0,0,1-7.1-2.06l1.78-2.94a8.47,8.47,0,0,0,5.08,1.64c2.69,0,4.72-1.4,4.72-4.51,0-3.26-2.1-4.55-4.86-4.55h-1.82V16.66l5.25-7V9.48h-9.35l.7-3.36h12.81v3l-5,6.65v.11C1220.6,16.45,1223.4,18.34,1223.4,23.06Z"/><path class="e" d="M1234.91,31c-5.39,0-8.57-4.3-8.57-12.6s3.18-12.6,8.57-12.6,8.58,4.31,8.58,12.6S1240.3,31,1234.91,31Zm0-3.36c2.8,0,4.76-2.73,4.76-9.24s-2-9.24-4.76-9.24-4.76,2.73-4.76,9.24S1232.11,27.61,1234.91,27.61Z"/><rect class="g" x="77.8" y="47.03" width="85.04" height="907.2"/></svg>