<svg xmlns="http://www.w3.org/2000/svg" viewBox="0 0 6351.02 5574.36"><defs><style>.a{fill:none;stroke:#222c54;stroke-miterlimit:10;stroke-width:2.83px;}.b{fill:#222c54;}.c{fill:#fff;}</style></defs><rect class="a" x="1.42" y="1461.74" width="4535.43" height="907.09" rx="70.87"/><rect class="b" x="4593.54" y="1461.74" width="1190.55" height="907.09" rx="70.87"/><path class="b" d="M235.43,2233.09H209.92l-34.51-103.52h-1l-11.67,125.88H136.53l15.8-170.1h32.31l37.67,111.78H223l37.66-111.78H293l15.8,170.1H282.57l-11.66-125.88h-1Z"/><path class="b" d="M357.42,2255.45l56.86-170.1h26l56.86,170.1H469.2l-12.15-39.61H397.27l-11.91,39.61Zm70.47-135.35h-1.22l-22.6,73.14h46.17Z"/><path class="b" d="M553,2255.45v-170.1h26.25v146.77h77l-4.86,23.33Z"/><path class="b" d="M769.79,2085.35h30.62l-54.68,99.14v71H719.49v-71l-54.67-99.14h30.61l36.45,71h1Z"/><path class="b" d="M923.86,2211.46c0-16.76-16.29-26-35-33.29-21.87-8.5-46.89-20.9-46.89-49.08,0-29.16,20.65-46.17,55.16-46.17,19.68,0,34.26,5.34,48.6,13.12l-12.4,20.65c-10.69-6.31-20.65-10.44-36.2-10.44-18.47,0-28,7.53-28,21.38s16.77,22.84,31.59,28.67c26.73,10.45,50.3,22.12,50.3,53.7,0,30.14-21.14,47.87-59.29,47.87-23.33,0-37.91-5.34-53.7-15.06l13.85-21.38c11.18,8.26,23.33,13.12,39.85,13.12C910.73,2234.55,923.86,2227.26,923.86,2211.46Z"/><path class="b" d="M1040.5,2155.82h71v-70.47h26.24v170.1h-26.24v-76.31h-71v76.31h-26.25v-170.1h26.25Z"/><path class="b" d="M1210.6,2255.45v-170.1h96.22l-4.86,23.33h-65.12v47.14h57.83v23.32h-57.83v53h70v23.33Z"/><path class="b" d="M1461.86,2085.35h28.67l-53,170.1h-30.38l-53-170.1h28.67l38.88,133.89h1Z"/><path class="b" d="M1513.62,2255.45l56.86-170.1h26l56.86,170.1H1625.4l-12.15-39.61h-59.78l-11.9,39.61Zm70.47-135.35h-1.21l-22.6,73.14h46.17Z"/><path class="b" d="M1858.68,2211.46c0-16.76-16.28-26-35-33.29-21.87-8.5-46.9-20.9-46.9-49.08,0-29.16,20.65-46.17,55.16-46.17,19.68,0,34.26,5.34,48.6,13.12l-12.39,20.65c-10.7-6.31-20.66-10.44-36.21-10.44-18.47,0-28,7.53-28,21.38s16.77,22.84,31.59,28.67c26.73,10.45,50.3,22.12,50.3,53.7,0,30.14-21.14,47.87-59.29,47.87-23.32,0-37.9-5.34-53.7-15.06l13.85-21.38c11.18,8.26,23.33,13.12,39.85,13.12C1845.56,2234.55,1858.68,2227.26,1858.68,2211.46Z"/><path class="b" d="M2008.85,2108.68v146.77h-26.24V2108.68h-50.54v-23.33h127.57l-4.86,23.33Z"/><path class="b" d="M2220.51,2135.89c0,26.24-14.58,42-35.24,47.63l44.47,71.93-28.43,2.42L2156.84,2186h-15.06v69.5h-26.25v-170.1h51.76C2196.69,2085.35,2220.51,2102.6,2220.51,2135.89Zm-78.73-27.21v53.94h24.29c15.56,0,27.22-9.72,27.22-26.73s-11.66-27.21-27.22-27.21Z"/><path class="b" d="M2288.06,2255.45v-170.1h96.23l-4.86,23.33h-65.12v47.14h57.83v23.32h-57.83v53h70v23.33Z"/><path class="b" d="M2452.33,2255.45v-170.1h96.23l-4.86,23.33h-65.13v47.14h57.84v23.32h-57.84v53h70v23.33Z"/><path class="b" d="M2676.37,2108.68v146.77h-26.24V2108.68h-50.54v-23.33h127.57l-4.86,23.33Z"/><path class="b" d="M327.56,1604.12H399.1l-108.88,289.3c-17.36,45.76-44.19,84.16-94.68,84.16-21.57,0-40-4.73-58.91-18.41l32.08-52.07c8.42,6.31,14.73,9.46,24.2,9.46,10.52,0,22.62-10,33.14-35.77l7.36-18.41h-21L98.75,1604.12h76.8l81,189.88h1.58Z"/><path class="b" d="M469.58,1604.12H685.77v368.2H618.44V1665.13H534.28C534.28,1855.55,509,1975,426.45,1975c-15.78,0-30-3.68-37.87-7.36l12.62-57.86a50.77,50.77,0,0,0,16.84,3.15c35.24,0,51.54-72.59,51.54-294.56Z"/><path class="b" d="M823.06,1902.89a37.35,37.35,0,1,1-37.35,37.34A37.48,37.48,0,0,1,823.06,1902.89Z"/><path class="b" d="M1298.56,1731.94H1297l-63.12,192H1165l-63.65-192h-1.58l-22.09,240.38h-67.33l34.19-368.2h75.22l78.9,236.7h1.58l78.9-236.7h75.22l34.19,368.2h-67.33Z"/><path class="b" d="M1668.86,1891.84H1552.09l-24.19,80.48h-71L1580,1604.12h61.54l123.09,368.2h-71ZM1570,1832.4h81l-39.45-133.6h-2.1Z"/><path class="b" d="M1882.42,1604.12h216.19v368.2h-67.33V1665.13h-84.16c0,190.42-25.25,309.82-107.83,309.82-15.78,0-30-3.68-37.88-7.36l12.63-57.86a50.66,50.66,0,0,0,16.83,3.15c35.24,0,51.55-72.59,51.55-294.56Z"/><path class="b" d="M2286.91,1604.12v143.07h35.77c76.27,0,127.29,37.35,127.29,112.56s-50.49,112.57-127.29,112.57h-103.1v-368.2Zm0,204.09V1911.3h32.62c42.6,0,61-22.09,61-51.55,0-31-17.88-51.54-61.54-51.54Zm269.32-204.09v368.2H2488.9v-368.2Z"/><path class="b" d="M2744.53,1911.3h93.63V1604.12h67.33V1911.3h93.63V1604.12h67.33v368.2H2677.2v-368.2h67.33Z"/><path class="b" d="M3187.42,1972.32v-368.2H3401l-10.52,61H3254.75v86.27h119.93v61H3254.75v98.89H3401v61Z"/><path class="b" d="M3511.44,1972.32v-368.2h115.2c65.75,0,115.19,24.19,115.19,88.37,0,48.39-28.93,75.21-62.59,84.16v2.1c46.28,11,75.74,40.5,75.74,91.52,0,75.22-56.28,102-128.34,102ZM3623,1665.13h-44.18V1754H3623c32.09,0,49.45-17.89,49.45-44.71S3655,1665.13,3623,1665.13Zm.53,146.76h-44.71v99.41h44.71c38.92,0,62.07-19.46,62.07-48.39C3685.55,1829.25,3662.4,1811.89,3623.48,1811.89Z"/><path class="b" d="M4027.45,1891.84H3910.68l-24.2,80.48h-71l123.08-368.2h61.55l123.08,368.2h-71Zm-98.89-59.44h81l-39.45-133.6H3968Z"/><path class="c" d="M4922.26,1659.53c-26.3,0-51,8.94-74.17,23.14l-31-53.13c42.08-22.61,72.06-31,115.19-31,64.7,0,104.68,36.82,104.68,101,0,81-70,158.33-134.13,209.35V1911h144.65l-10.52,61H4810.75v-55.75c72.06-54.18,158.32-139.39,158.32-209.88C4969.07,1677.41,4952.77,1659.53,4922.26,1659.53Z"/><path class="c" d="M5186.83,1759.47c15.78-10.52,36.3-16.31,57.34-16.31,62.59,0,108.35,41.56,108.35,115.72,0,72.06-53.65,118.35-122.56,118.35-74.16,0-122-53.12-122-135.18,0-133.08,81.53-212,190.41-243.54L5321,1646.9c-57.33,22.09-114.67,55.23-135.71,111.51Zm-12.62,82.58c0,44.71,22.09,74.17,55.75,74.17,30,0,57.34-17.89,57.34-57.34s-27.35-57.33-57.34-57.33C5207.87,1801.55,5183.68,1818.91,5174.21,1842.05Z"/><path class="c" d="M5466.37,1755.4v53.38h29.56c55.68,0,92.93,26.49,92.93,81.4S5552,1972,5495.93,1972h-86.39V1703.18h161.27l-7.68,52.22Zm0,103.68v60.67h27.26c25.73,0,36.86-13.44,36.86-30.34,0-17.66-10.75-30.33-37.24-30.33Z"/><path class="c" d="M4821.09,2196.35H4810v59.09H4782.3v-140.7H4810V2169h11.46l31.55-54.27h32.57l-41,67.54,45.23,73.16-33,2Z"/><path class="c" d="M4975.26,2257.45c-42.81,0-60.3-30.55-60.3-72.36s17.49-72.36,60.3-72.36,60.3,30.55,60.3,72.36S5018.07,2257.45,4975.26,2257.45Zm0-117.38c-20.3,0-29.75,18.69-29.75,45s9.45,45,29.75,45,29.75-18.7,29.75-45S4995.56,2140.07,4975.26,2140.07Z"/><path class="c" d="M5106.51,2208v47.43h-29.75v-140.7h48c26.74,0,46.84,16.48,46.84,46.63s-20.1,46.64-46.84,46.64Zm16.89-27.34c9.85,0,17.48-7.24,17.48-19.3s-7.63-19.29-17.48-19.29h-16.89v38.59Z"/><path class="c" d="M5209.82,2255.44v-140.7h105.53v140.7H5285.6V2142.08h-46v113.36Z"/><path class="c" d="M5369.82,2226.9a15.28,15.28,0,1,1-15.28,15.28A15.53,15.53,0,0,1,5369.82,2226.9Z"/><path class="c" d="M5480.17,2285h-25.73l-4-56.88h15.07c15.28-20.3,19.7-51.46,19.7-97.69v-15.68h90.05v113.37h18.09l-4,56.88h-25.73v-29.55h-83.41Zm65.32-56.88v-86h-31.55v4.42c0,35-5.83,61.71-16.29,81.61Z"/><rect class="a" x="1.42" y="1.42" width="3401.57" height="907.09" rx="70.87"/><rect class="b" x="3459.69" y="1.42" width="1190.55" height="907.09" rx="70.87"/><path class="b" d="M205.19,705.45l63.18,89.67-30.13,2.43L182.1,718.33H169.47v76.79H143.22V625h26.25v71h13.36l50.55-71h29.88Z"/><path class="b" d="M314.54,795.12V771.79h27.94V648.35H314.54V625h83.35L393,648.35h-24.3V771.79h27.94v23.33Z"/><path class="b" d="M567.26,675.56c0,26.25-14.58,42-35.24,47.63l44.47,71.93-28.43,2.43-44.47-71.93H488.53v69.5H462.28V625H514C543.44,625,567.26,642.27,567.26,675.56Zm-78.73-27.21v53.94h24.3c15.55,0,27.21-9.72,27.21-26.73s-11.66-27.21-27.21-27.21Z"/><path class="b" d="M690.7,797.55c-50.54,0-70.47-38.39-70.47-87.48s19.93-87.48,70.47-87.48,70.47,38.39,70.47,87.48S741.25,797.55,690.7,797.55Zm0-151.63c-31.1,0-43.25,28.19-43.25,64.15s12.15,64.15,43.25,64.15S734,746,734,710.07,721.81,645.92,690.7,645.92Z"/><path class="b" d="M908.92,625h28.67l-53,170.1H854.24l-53-170.1H830l38.87,133.89h1Z"/><path class="b" d="M960.68,795.12,1017.54,625h26l56.86,170.1h-27.94l-12.15-39.61h-59.78l-11.9,39.61Zm70.47-135.35h-1.21l-22.6,73.14h46.17Z"/><path class="b" d="M1305.74,751.14c0-16.77-16.28-26-35-33.29-21.87-8.51-46.9-20.9-46.9-49.09,0-29.16,20.65-46.17,55.16-46.17,19.68,0,34.26,5.35,48.6,13.12l-12.39,20.66c-10.7-6.32-20.66-10.45-36.21-10.45-18.47,0-27.94,7.53-27.94,21.38s16.76,22.84,31.59,28.68c26.72,10.44,50.3,22.11,50.3,53.7,0,30.13-21.15,47.87-59.3,47.87-23.32,0-37.9-5.35-53.7-15.07l13.85-21.38c11.18,8.26,23.33,13.12,39.85,13.12C1292.62,774.22,1305.74,766.93,1305.74,751.14Z"/><path class="b" d="M1455.91,648.35V795.12h-26.24V648.35h-50.54V625H1506.7l-4.86,23.33Z"/><path class="b" d="M1667.57,675.56c0,26.25-14.58,42-35.24,47.63l44.47,71.93-28.43,2.43-44.47-71.93h-15.06v69.5h-26.25V625h51.76C1643.75,625,1667.57,642.27,1667.57,675.56Zm-78.73-27.21v53.94h24.3c15.55,0,27.21-9.72,27.21-26.73s-11.66-27.21-27.21-27.21Z"/><path class="b" d="M1735.12,795.12V625h96.23l-4.86,23.33h-65.12v47.14h57.83v23.33h-57.83v53h70v23.33Z"/><path class="b" d="M1899.39,795.12V625h96.23l-4.86,23.33h-65.13v47.14h57.84v23.33h-57.84v53h70v23.33Z"/><path class="b" d="M2123.44,648.35V795.12h-26.25V648.35h-50.54V625h127.57l-4.86,23.33Z"/><path class="b" d="M327.56,143.79H399.1L290.22,433.09c-17.36,45.76-44.19,84.16-94.68,84.16-21.57,0-40-4.73-58.92-18.41l32.09-52.07c8.42,6.31,14.73,9.47,24.2,9.47,10.52,0,22.62-10,33.13-35.77l7.37-18.41h-21L98.75,143.79h76.8l81,189.89h1.58Z"/><path class="b" d="M469.58,143.79H685.77V512H618.44V204.81H534.28c0,190.41-25.25,309.81-107.83,309.81-15.78,0-30-3.68-37.87-7.36L401.2,449.4A50.45,50.45,0,0,0,418,452.55c35.25,0,51.55-72.58,51.55-294.56Z"/><path class="b" d="M823.05,442.56a37.35,37.35,0,1,1-37.34,37.35A37.49,37.49,0,0,1,823.05,442.56Z"/><path class="b" d="M1119.72,352.09h-26.3V512h-67.33V143.79h67.33V291.07h27.35L1216,143.79h75.21L1176,317.9,1302.24,512l-75.74,5.26Z"/><path class="b" d="M1603.11,267.93h-1.58L1437.42,512h-56.28V143.79h67.33V388.38h1.58l164.11-244.59h56.28V512h-67.33Z"/><path class="b" d="M1858.75,382.6V512h-67.33V143.79h120.45c70,0,122.56,40.5,122.56,119.4s-52.6,119.41-122.56,119.41Zm0-177.79V321.58h52.07c32.09,0,53.65-21.57,53.65-58.39s-21.56-58.38-53.65-58.38Z"/><path class="b" d="M2263.24,517.25c-109.41,0-155.17-83.11-155.17-189.36s45.76-189.36,155.17-189.36,155.17,83.11,155.17,189.36S2372.65,517.25,2263.24,517.25Zm0-317.7c-60,0-85.74,56.28-85.74,128.34s25.78,128.35,85.74,128.35S2349,400,2349,327.89,2323.21,199.55,2263.24,199.55Z"/><path class="b" d="M2523.61,512V143.79h115.2c65.75,0,115.19,24.2,115.19,88.37,0,48.39-28.93,75.22-62.59,84.16v2.1c46.28,11.05,75.74,40.51,75.74,91.53,0,75.22-56.28,102-128.34,102Zm111.51-307.18h-44.18V293.7h44.18c32.09,0,49.45-17.88,49.45-44.71S2667.21,204.81,2635.12,204.81Zm.53,146.75h-44.71V451h44.71c38.92,0,62.07-19.47,62.07-48.4C2697.72,368.92,2674.57,351.56,2635.65,351.56Z"/><path class="b" d="M3039.62,431.51H2922.85L2898.65,512h-71l123.09-368.2h61.54L3135.35,512h-71Zm-98.89-59.43h81l-39.46-133.61h-2.1Z"/><path class="c" d="M4032.17,437c0,93.63-69.93,137.41-147.14,137.41-53.51,0-91.81-14-126.47-35.87l37.7-61.41c24.32,15.81,49.86,26.75,84.51,26.75,40.13,0,73-20.67,73-66.27,0-48-34.05-66.88-75.39-66.88h-34.66V326.36L3928.8,215.7v-2.43H3772.55l12.16-70.53h228.61v64.45l-82.08,106.4v1.82C3984.13,325.14,4032.17,359.8,4032.17,437Z"/><path class="c" d="M4200.58,207.19c-30.4,0-59,10.33-85.73,26.75L4079,172.53c48.64-26.14,83.3-35.87,133.15-35.87,74.79,0,121,42.56,121,116.74,0,93.63-80.86,183-155,242v2.43h167.2l-12.16,70.53H4071.68V503.89c83.3-62.62,183-161.12,183-242.59C4254.69,227.86,4235.84,207.19,4200.58,207.19Z"/><path class="c" d="M3742.3,779.57h46.17l-3.24,15.55h-68V781.19c22.2-16.69,50.38-46.17,50.38-67.88,0-10.86-5.34-17.66-16.84-17.66-8.75,0-16.2,2.91-23.82,7.61l-7.77-13.61c13-7,21.38-9.55,34.66-9.55,19.93,0,31.43,11.34,31.43,31.1,0,24.95-23.16,52-42.93,67.72Z"/><path class="c" d="M3808.72,764.34c0-12.8,7.78-22.84,18.79-28.51v-.49c-8.42-4.7-15.22-13.28-15.22-25.76,0-18.14,12.31-29.48,32.88-29.48s32.89,11.34,32.89,29.48a28.91,28.91,0,0,1-15.23,25.92V736c11,5.67,18.79,15.55,18.79,28.35,0,20.41-14.25,32.4-36.45,32.4S3808.72,784.75,3808.72,764.34ZM3839.83,742c-9.4,5.51-14.26,13.12-14.26,22.36,0,11.82,8.26,16.85,19.6,16.85s19.6-5.67,19.6-16.85c0-9.72-8.58-15.39-18.14-19.44Zm4.53-14.42,5.19,2.11c7.45-5.19,11.66-11.83,11.66-20.09,0-8.75-6.8-13.93-16-13.93s-16,5.18-16,13.93C3829.13,719.3,3836.1,724.16,3844.36,727.56Z"/><path class="c" d="M4104.86,701,4116,689.82l48.6,48.6L4116,787l-11.18-11.18L4134.18,747v-.48H3945.29v-16.2h188.89v-.49Z"/><path class="c" d="M4298.77,760.13c0,24.94-17.82,36.61-38.39,36.61-14.26,0-23.66-3.73-32.89-9.56l8.26-13.61c6.81,4.54,13.45,7.62,23.49,7.62,12.48,0,21.87-6.48,21.87-20.9,0-15.07-9.72-21.06-22.52-21.06h-8.42v-8.75l24.3-32.56v-.65h-43.25l3.24-15.55h59.29v13.93l-23.17,30.78v.49C4285.81,729.51,4298.77,738.26,4298.77,760.13Z"/><path class="c" d="M4377.5,681.72,4337,752.51v.65h25.76V732.59h17v20.57h18.63l-3.24,15.39h-15.39v26.57h-17V768.55h-46.17V754.78l41.8-73.06Z"/><rect class="a" x="1.42" y="2922.07" width="5102.36" height="907.09" rx="70.87"/><rect class="b" x="5160.47" y="2922.07" width="1190.55" height="907.09" rx="70.87"/><path class="c" d="M5456.62,3063.39v355.07h95.46V3489H5272.4v-70.53h108.22V3133.92h-99.11l12.17-70.53Z"/><path class="c" d="M5803.18,3063.39v355.07h95.45V3489H5619v-70.53h108.22V3133.92h-99.1l12.16-70.53Z"/><path class="c" d="M6161.28,3133.92H5959.43l12.16-70.53h270.56v64.45L6090.75,3489h-81.47Z"/><path class="c" d="M5372.3,3602.36v97.85h26.24v15.55h-72.9v-15.55h29.65v-82.3h-27.22l3.24-15.55Z"/><path class="c" d="M5453.62,3717.38c-24.95,0-39.69-19.92-39.69-58.32s14.74-58.32,39.69-58.32,39.69,19.93,39.69,58.32S5478.57,3717.38,5453.62,3717.38Zm0-15.55c13,0,22-12.63,22-42.77s-9.07-42.77-22-42.77-22,12.64-22,42.77S5440.66,3701.83,5453.62,3701.83Z"/><path class="c" d="M5557,3602.36v97.85h26.24v15.55h-72.9v-15.55H5540v-82.3h-27.22l3.24-15.55Z"/><path class="c" d="M5805.65,3621.64l11.17-11.18,48.61,48.6-48.61,48.6-11.17-11.17,29.32-28.84v-.49h-188.9V3651H5835v-.48Z"/><path class="c" d="M5976.55,3602.36v97.85h26.25v15.55h-72.9v-15.55h29.64v-82.3h-27.21l3.24-15.55Z"/><path class="c" d="M6047.35,3700.21h46.17l-3.24,15.55h-68v-13.93c22.19-16.68,50.38-46.17,50.38-67.88,0-10.85-5.35-17.66-16.85-17.66-8.75,0-16.2,2.92-23.81,7.62l-7.78-13.61c13-7,21.39-9.56,34.67-9.56,19.93,0,31.43,11.34,31.43,31.11,0,25-23.17,52-42.93,67.71Z"/><path class="c" d="M6166.09,3665.87c-5.18,4.86-12.31,7-20.57,7-19.28,0-32.56-12.8-32.56-35.64,0-22.19,15.71-36.45,36.93-36.45,22.85,0,36.78,15.39,36.78,41.64,0,40.5-22.68,65.28-56.22,75l-6.15-13.28c19.28-7.29,36.93-18.31,42.28-37.91Zm-16.2-49.58c-11,0-19.44,7.46-19.44,20.9s8.43,20.9,19.44,20.9c8.27,0,16.2-5.67,19.61-14.09C6169.5,3627.8,6162.37,3616.29,6149.89,3616.29Z"/><path class="b" d="M135.17,3687.38V3665.3h26.45V3548.46H135.17v-22.08h78.89l-4.6,22.08h-23V3665.3h26.45v22.08Z"/><path class="b" d="M370,3646.21h.92V3526.38h24.84v161H369.08l-68.31-119.6h-.92v119.6H275v-161h26.68Z"/><path class="b" d="M536.75,3645.75c0-15.87-15.41-24.61-33.12-31.51-20.7-8-44.39-19.78-44.39-46.46,0-27.6,19.55-43.7,52.21-43.7,18.63,0,32.43,5.06,46,12.42l-11.73,19.55c-10.12-6-19.55-9.89-34.27-9.89-17.48,0-26.45,7.13-26.45,20.24s15.87,21.62,29.9,27.14c25.3,9.89,47.61,20.93,47.61,50.83,0,28.52-20,45.31-56.12,45.31-22.08,0-35.88-5.06-50.83-14.26l13.11-20.24c10.58,7.82,22.08,12.42,37.72,12.42C524.33,3667.6,536.75,3660.7,536.75,3645.75Z"/><path class="b" d="M678.89,3548.46v138.92H654.05V3548.46H606.21v-22.08H727l-4.6,22.08Z"/><path class="b" d="M879.22,3574.22c0,24.84-13.8,39.79-33.35,45.08L888,3687.38l-26.91,2.3L819,3621.6H804.7v65.78H779.86v-161h49C856.68,3526.38,879.22,3542.71,879.22,3574.22Zm-74.52-25.76v51.06h23c14.72,0,25.76-9.2,25.76-25.3s-11-25.76-25.76-25.76Z"/><path class="b" d="M1057,3637.93c0,30.59-23,51.75-57.5,51.75s-57.5-21.16-57.5-51.75V3526.38h24.84v110.4c0,18.17,12.42,30.82,32.66,30.82s32.66-12.65,32.66-30.82v-110.4H1057Z"/><path class="b" d="M1211.57,3666.22h-24.15l-32.66-98h-.92l-11,119.14H1118l15-161h30.59l35.65,105.8h.69l35.65-105.8h30.59l15,161h-24.84l-11-119.14h-.92Z"/><path class="b" d="M1343.13,3687.38v-161h91.08l-4.6,22.08H1368v44.62h54.74v22.08H1368v50.14h66.24v22.08Z"/><path class="b" d="M1593.6,3646.21h.92V3526.38h24.84v161h-26.68l-68.31-119.6h-.92v119.6h-24.84v-161h26.68Z"/><path class="b" d="M1744.94,3548.46v138.92H1720.1V3548.46h-47.84v-22.08H1793l-4.6,22.08Z"/><path class="b" d="M1818.32,3687.38l53.82-161h24.61l53.81,161h-26.44l-11.5-37.49H1856l-11.27,37.49Zm66.7-128.11h-1.15l-21.39,69.23h43.7Z"/><path class="b" d="M2003.47,3687.38v-161h24.84V3665.3h72.91l-4.61,22.08Z"/><path class="b" d="M2226.11,3645.75c0-15.87-15.41-24.61-33.12-31.51-20.7-8-44.39-19.78-44.39-46.46,0-27.6,19.55-43.7,52.21-43.7,18.63,0,32.43,5.06,46,12.42l-11.72,19.55c-10.12-6-19.55-9.89-34.27-9.89-17.48,0-26.45,7.13-26.45,20.24s15.87,21.62,29.9,27.14c25.3,9.89,47.61,20.93,47.61,50.83,0,28.52-20,45.31-56.12,45.31-22.08,0-35.88-5.06-50.83-14.26l13.11-20.24c10.58,7.82,22.08,12.42,37.72,12.42C2213.69,3667.6,2226.11,3660.7,2226.11,3645.75Z"/><path class="b" d="M2336.51,3593.08h67.16v-66.7h24.83v161h-24.83v-72.22h-67.16v72.22h-24.84v-161h24.84Z"/><path class="b" d="M2516.37,3606.88c0,34,11.5,60.72,40.93,60.72,12.42,0,23.92-3.45,35.19-9.89l9.66,19.55c-14.48,8.28-26.68,12.42-44.85,12.42-47.83,0-66.69-36.34-66.69-82.8s18.86-82.8,66.69-82.8c14.72,0,26.68,2.3,42.09,10.35l-9.66,19.55a70.46,70.46,0,0,0-32.43-7.82C2527.87,3546.16,2516.37,3572.84,2516.37,3606.88Z"/><path class="b" d="M2685.65,3593.08h67.16v-66.7h24.83v161h-24.83v-72.22h-67.16v72.22h-24.84v-161h24.84Z"/><path class="b" d="M2839.75,3687.38V3665.3h26.45V3548.46h-26.45v-22.08h78.89l-4.6,22.08h-23V3665.3h26.45v22.08Z"/><path class="b" d="M3038.24,3602.51l59.79,84.87-28.52,2.3-53.12-75h-12v72.68h-24.84v-161h24.84v67.16h12.65l47.84-67.16h28.28Z"/><path class="b" d="M3199.24,3689.68c-47.84,0-66.7-36.34-66.7-82.8s18.86-82.8,66.7-82.8,66.7,36.34,66.7,82.8S3247.08,3689.68,3199.24,3689.68Zm0-143.52c-29.44,0-40.94,26.68-40.94,60.72s11.5,60.72,40.94,60.72,40.94-26.68,40.94-60.72S3228.68,3546.16,3199.24,3546.16Z"/><path class="b" d="M3405.78,3526.38h27.14l-50.14,161H3354l-50.14-161H3331l36.8,126.73h.92Z"/><path class="b" d="M3641.76,3645.75c0-15.87-15.41-24.61-33.12-31.51-20.7-8-44.39-19.78-44.39-46.46,0-27.6,19.55-43.7,52.21-43.7,18.63,0,32.43,5.06,46,12.42l-11.73,19.55c-10.12-6-19.55-9.89-34.27-9.89-17.48,0-26.45,7.13-26.45,20.24s15.87,21.62,29.9,27.14c25.3,9.89,47.61,20.93,47.61,50.83,0,28.52-20,45.31-56.12,45.31-22.08,0-35.88-5.06-50.83-14.26l13.11-20.24c10.58,7.82,22.08,12.42,37.72,12.42C3629.34,3667.6,3641.76,3660.7,3641.76,3645.75Z"/><path class="b" d="M3783.9,3548.46v138.92h-24.84V3548.46h-47.84v-22.08H3832l-4.6,22.08Z"/><path class="b" d="M3984.23,3574.22c0,24.84-13.8,39.79-33.35,45.08l42.09,68.08-26.91,2.3L3924,3621.6h-14.26v65.78h-24.84v-161h49C3961.69,3526.38,3984.23,3542.71,3984.23,3574.22Zm-74.52-25.76v51.06h23c14.72,0,25.76-9.2,25.76-25.3s-11-25.76-25.76-25.76Z"/><path class="b" d="M4048.17,3687.38v-161h91.08l-4.6,22.08H4073v44.62h54.74v22.08H4073v50.14h66.24v22.08Z"/><path class="b" d="M4203.65,3687.38v-161h91.08l-4.6,22.08h-61.64v44.62h54.74v22.08h-54.74v50.14h66.24v22.08Z"/><path class="b" d="M4415.71,3548.46v138.92h-24.84V3548.46H4343v-22.08h120.75l-4.6,22.08Z"/><path class="b" d="M261.11,3111.35h46l-70,185.9c-11.16,29.4-28.4,54.08-60.84,54.08-13.86,0-25.69-3-37.86-11.83L159,3306c5.41,4.05,9.46,6.08,15.55,6.08,6.76,0,14.53-6.42,21.29-23l4.73-11.83H187.09l-73-166h49.35l52,122h1Z"/><path class="b" d="M352.37,3111.35H491.29V3348H448V3150.56H394c0,122.35-16.23,199.08-69.29,199.08-10.14,0-19.27-2.37-24.34-4.74l8.11-37.18a32.32,32.32,0,0,0,10.82,2c22.65,0,33.12-46.64,33.12-189.28Z"/><path class="b" d="M579.51,3303.33a24,24,0,1,1-24,24A24.1,24.1,0,0,1,579.51,3303.33Z"/><path class="b" d="M852.61,3191.12h-1L746.14,3348H710v-236.6h43.26v157.17h1l105.45-157.17h36.17V3348H852.61Z"/><path class="b" d="M1016.88,3206h88.56v-94.64h43.26V3348h-43.26V3245.2h-88.56V3348H973.62v-236.6h43.26Z"/><path class="b" d="M1383.61,3333.08c-21.29,12.16-39.21,18.25-65.91,18.25-70.3,0-101.4-53.41-101.4-121.68S1247.4,3108,1317.7,3108c21.63,0,39.21,3.38,61.85,15.21L1362.32,3158a99.25,99.25,0,0,0-44.62-10.81c-38.53,0-56.78,36.16-56.78,82.47s18.25,82.47,56.78,82.47c17.24,0,32.79-4.73,48.33-13.52Z"/><path class="b" d="M1534.7,3150.56V3348h-43.6V3150.56h-68.62v-39.21h180.83l-6.76,39.21Z"/><path class="b" d="M1700.66,3264.8V3348h-43.27v-236.6h77.4c45,0,78.76,26,78.76,76.72s-33.8,76.73-78.76,76.73Zm0-114.24v75h33.46c20.62,0,34.47-13.86,34.47-37.52s-13.85-37.51-34.47-37.51Z"/><path class="b" d="M1987.62,3111.35h46l-70,185.9c-11.15,29.4-28.39,54.08-60.84,54.08-13.86,0-25.69-3-37.86-11.83l20.62-33.46c5.41,4.05,9.47,6.08,15.55,6.08,6.76,0,14.53-6.42,21.29-23l4.74-11.83H1913.6l-73-166h49.35l52,122h1Z"/><path class="b" d="M2256,3193.48h-1l-40.57,123.37h-44.27l-40.9-123.37h-1L2114,3348h-43.26l22-236.6h48.33l50.7,152.1h1l50.7-152.1h48.34l22,236.6h-43.27Z"/><path class="b" d="M2381.39,3348v-236.6h137.22l-6.75,39.21h-87.21V3206h77.06v39.21h-77.06v63.54h94V3348Z"/><path class="b" d="M2632.86,3206h88.55v-94.64h43.27V3348h-43.27V3245.2h-88.55V3348H2589.6v-236.6h43.26Z"/><path class="b" d="M2931,3150.56V3348h-43.61V3150.56h-68.61v-39.21h180.83l-6.76,39.21Z"/><path class="b" d="M3145.94,3296.23h-75L3055.36,3348h-45.63l79.09-236.6h39.55l79.09,236.6h-45.63ZM3082.4,3258h52l-25.35-85.85h-1.35Z"/><path class="b" d="M3283.17,3111.35h138.92V3348h-43.27V3150.56h-54.07c0,122.35-16.23,199.08-69.29,199.08-10.14,0-19.27-2.37-24.34-4.74l8.11-37.18a32.32,32.32,0,0,0,10.82,2c22.64,0,33.12-46.64,33.12-189.28Z"/><path class="b" d="M3543.09,3111.35v91.93h35.16c49,0,81.79,24,81.79,72.34s-32.45,72.33-81.79,72.33h-78.42v-236.6Zm0,131.14v66.25h33.13c27.38,0,39.21-14.2,39.21-33.12,0-19.95-11.5-33.13-39.55-33.13Z"/><path class="b" d="M3717.5,3348v-236.6h43.27v197.39h60.84V3111.35h43.26v197.39h61.18V3111.35h43.26v197.39h32.11l-6.76,88.89h-36.5V3348Z"/><path class="b" d="M4199.83,3191.12h-1L4093.36,3348h-36.17v-236.6h43.26v157.17h1l105.45-157.17h36.17V3348h-43.26Z"/><path class="b" d="M4381,3245.2h-16.9V3348h-43.27v-236.6h43.27V3206h17.57l61.18-94.64h48.33l-74,111.88L4498.28,3348l-48.67,3.38Z"/><path class="b" d="M4625,3351.33c-70.3,0-99.71-53.41-99.71-121.68S4554.73,3108,4625,3108s99.71,53.4,99.71,121.68S4695.33,3351.33,4625,3351.33Zm0-204.15c-38.53,0-55.09,36.16-55.09,82.47s16.56,82.47,55.09,82.47,55.09-36.17,55.09-82.47S4663.56,3147.18,4625,3147.18Z"/><path class="b" d="M4792.34,3348v-236.6h74c42.25,0,74,15.55,74,56.78,0,31.1-18.59,48.34-40.22,54.08v1.35c29.75,7.1,48.67,26,48.67,58.82,0,48.33-36.16,65.57-82.47,65.57ZM4864,3150.56h-28.39v57.12H4864c20.61,0,31.77-11.49,31.77-28.73S4884.61,3150.56,4864,3150.56Zm.34,94.3h-28.73v63.88h28.73c25,0,39.88-12.51,39.88-31.1C4904.22,3256,4889.35,3244.86,4864.34,3244.86Z"/><rect class="a" x="1.42" y="4382.4" width="3826.77" height="1190.55" rx="70.87"/><rect class="b" x="3884.88" y="4382.4" width="1360.63" height="1190.55" rx="70.87"/><path class="c" d="M4245.4,4636.06v379.6h102.05v75.4h-299v-75.4h115.7v-304.2H4058.2l13-75.4Z"/><path class="c" d="M4565.2,5097.56c-100.1,0-162.5-80-162.5-234s62.4-234,162.5-234,162.5,79.95,162.5,234S4665.3,5097.56,4565.2,5097.56Zm0-75.4c44.85,0,78.65-46.8,78.65-158.6s-33.8-158.6-78.65-158.6-78.65,46.8-78.65,158.6S4520.35,5022.16,4565.2,5022.16Z"/><path class="c" d="M5068.29,4636.06l-13,75.4H4899.94V4796c10.4-1.95,22.1-3.9,32.5-3.9,83.2,0,152.75,49.4,152.75,152.75,0,100.1-74.75,152.75-157.3,152.75-57.2,0-98.15-15-135.2-38.35l40.3-65.65c26,16.9,53.3,28.6,90.35,28.6,40.95,0,78-25.35,78-77.35,0-52.65-40.3-80-85.15-80-52.65,0-97.5,18.85-97.5,18.85V4636.06Z"/><path class="c" d="M4087.06,5318.17v122h32.73v19.4h-90.9v-19.4h37V5337.56h-33.93l4-19.39Z"/><path class="c" d="M4188.47,5461.59c-31.11,0-49.49-24.85-49.49-72.72s18.38-72.72,49.49-72.72S4238,5341,4238,5388.87,4219.57,5461.59,4188.47,5461.59Zm0-19.4c16.16,0,27.47-15.75,27.47-53.32s-11.31-53.33-27.47-53.33S4161,5351.3,4161,5388.87,4172.31,5442.19,4188.47,5442.19Z"/><path class="c" d="M4317.34,5318.17v122h32.73v19.4h-90.9v-19.4h37V5337.56H4262.2l4-19.39Z"/><path class="c" d="M4627.41,5342.21l13.94-13.94,60.59,60.6-60.59,60.6-13.94-13.94,36.56-36v-.6H4428.44v-20.2H4664v-.61Z"/><path class="c" d="M4840.52,5318.17v122h32.72v19.4h-90.89v-19.4h37V5337.56h-33.93l4-19.39Z"/><path class="c" d="M4955.66,5318.17v122h32.72v19.4h-90.89v-19.4h37V5337.56h-33.94l4-19.39Z"/><path class="c" d="M5076.86,5397.35c-6.46,6.06-15.35,8.69-25.65,8.69-24,0-40.6-16-40.6-44.44,0-27.68,19.59-45.45,46.05-45.45,28.48,0,45.85,19.19,45.85,51.91,0,50.5-28.28,81.41-70.09,93.53l-7.68-16.57c24-9.09,46.06-22.82,52.73-47.27Zm-20.2-61.81c-13.74,0-24.24,9.29-24.24,26.06s10.5,26,24.24,26c10.3,0,20.2-7.07,24.44-17.57C5081.1,5349.88,5072.21,5335.54,5056.66,5335.54Z"/><path class="b" d="M216,5318.16h23.84l-44,141.39H170.51l-44-141.39h23.84l32.32,111.3h.8Z"/><path class="b" d="M278.17,5459.55V5318.16H300v122h64l-4,19.39Z"/><path class="b" d="M391.29,5459.55l47.27-141.39h21.61l47.27,141.39H484.21l-10.1-32.92H424.42l-9.9,32.92ZM449.87,5347h-1l-18.78,60.8h38.37Z"/><path class="b" d="M548.85,5459.55V5318.16h45c40,0,57.77,29.49,57.77,70.69s-17.78,70.7-57.77,70.7Zm21.82-122v102.61H593.9c23.63,0,35.14-22.42,35.14-51.31s-11.51-51.3-35.14-51.3Z"/><path class="b" d="M695.1,5459.55v-19.39h23.23V5337.55H695.1v-19.39h69.28l-4,19.39H740.15v102.61h23.23v19.39Z"/><path class="b" d="M889,5441H867.81l-28.68-86.05h-.81l-9.7,104.63H806.81l13.13-141.39H846.8l31.31,92.91h.61L910,5318.16h26.86L950,5459.55H928.21l-9.7-104.63h-.81Z"/><path class="b" d="M993.45,5459.55v-19.39h23.23V5337.55H993.45v-19.39h69.29l-4,19.39h-20.2v102.61h23.23v19.39Z"/><path class="b" d="M1198.48,5360.17c0,21.82-12.12,34.95-29.29,39.59l37,59.79-23.63,2-37-59.79H1133v57.77h-21.82V5318.16h43C1178.69,5318.16,1198.48,5332.5,1198.48,5360.17ZM1133,5337.55v44.84h20.2c12.92,0,22.62-8.08,22.62-22.22s-9.7-22.62-22.62-22.62Z"/><path class="b" d="M1235.45,5459.55l47.27-141.39h21.61l47.27,141.39h-23.23l-10.1-32.92h-49.69l-9.9,32.92ZM1294,5347h-1l-18.79,60.8h38.38Z"/><path class="b" d="M1537,5318.16h23.84l-44,141.39h-25.25l-44-141.39h23.84l32.31,111.3h.81Z"/><path class="b" d="M1669.34,5318.16h25.46l-45.45,82.41v59h-21.82v-59l-45.45-82.41h25.45l30.3,59h.81Z"/><path class="b" d="M1792.36,5423c0-13.94-13.53-21.61-29.08-27.67-18.18-7.07-39-17.37-39-40.81,0-24.23,17.17-38.37,45.85-38.37,16.37,0,28.49,4.44,40.4,10.9l-10.3,17.17c-8.89-5.25-17.17-8.68-30.1-8.68-15.35,0-23.23,6.26-23.23,17.77s13.94,19,26.26,23.84c22.22,8.68,41.82,18.38,41.82,44.64,0,25.05-17.58,39.79-49.29,39.79-19.39,0-31.51-4.44-44.64-12.52l11.51-17.78a52.61,52.61,0,0,0,33.13,10.91C1781.46,5442.18,1792.36,5436.12,1792.36,5423Z"/><path class="b" d="M1915,5461.57c-42,0-58.58-31.91-58.58-72.72s16.56-72.71,58.58-72.71,58.58,31.91,58.58,72.71S1957,5461.57,1915,5461.57Zm0-126c-25.86,0-36,23.43-36,53.32s10.1,53.33,36,53.33,36-23.43,36-53.33S1940.83,5335.53,1915,5335.53Z"/><path class="b" d="M2068.7,5337.55v122h-21.81v-122h-42v-19.39h106.05l-4,19.39Z"/><path class="b" d="M2215.56,5423c0-13.94-13.54-21.61-29.09-27.67-18.18-7.07-39-17.37-39-40.81,0-24.23,17.17-38.37,45.86-38.37,16.36,0,28.48,4.44,40.4,10.9l-10.31,17.17c-8.88-5.25-17.17-8.68-30.09-8.68-15.35,0-23.23,6.26-23.23,17.77s13.93,19,26.26,23.84c22.22,8.68,41.81,18.38,41.81,44.64,0,25.05-17.57,39.79-49.29,39.79-19.39,0-31.51-4.44-44.64-12.52l11.52-17.78a52.6,52.6,0,0,0,33.12,10.91C2204.65,5442.18,2215.56,5436.12,2215.56,5423Z"/><path class="b" d="M2337.16,5385l52.52,74.53-25,2L2318,5395.72h-10.5v63.83h-21.82V5318.16h21.82v59h11.11l42-59h24.85Z"/><path class="b" d="M2473.51,5461.57c-42,0-58.58-31.91-58.58-72.72s16.57-72.71,58.58-72.71,58.58,31.91,58.58,72.71S2515.53,5461.57,2473.51,5461.57Zm0-126c-25.85,0-36,23.43-36,53.32s10.1,53.33,36,53.33,36-23.43,36-53.33S2499.37,5335.53,2473.51,5335.53Z"/><path class="b" d="M2598.15,5388.85c0,29.9,10.9,53.33,37.57,53.33a49.58,49.58,0,0,0,20.4-3.84v-35.95h-24.85v-19h45.25v65.24c-13.74,9.5-24.84,12.93-41.61,12.93-42,0-59.39-31.91-59.39-72.72s17.37-72.71,59.39-72.71c13.53,0,24.84,2,38.38,9.09l-8.69,17.57a62.06,62.06,0,0,0-29.69-7.27C2609.05,5335.53,2598.15,5359,2598.15,5388.85Z"/><path class="b" d="M2779.54,5461.57c-42,0-58.58-31.91-58.58-72.72s16.57-72.71,58.58-72.71,58.58,31.91,58.58,72.71S2821.56,5461.57,2779.54,5461.57Zm0-126c-25.85,0-35.95,23.43-35.95,53.32s10.1,53.33,35.95,53.33,36-23.43,36-53.33S2805.4,5335.53,2779.54,5335.53Z"/><path class="b" d="M3022.55,5423c0-13.94-13.54-21.61-29.09-27.67-18.18-7.07-39-17.37-39-40.81,0-24.23,17.17-38.37,45.86-38.37,16.36,0,28.48,4.44,40.4,10.9l-10.31,17.17c-8.88-5.25-17.17-8.68-30.09-8.68-15.35,0-23.23,6.26-23.23,17.77s13.93,19,26.26,23.84c22.22,8.68,41.81,18.38,41.81,44.64,0,25.05-17.57,39.79-49.29,39.79-19.39,0-31.51-4.44-44.64-12.52l11.52-17.78a52.6,52.6,0,0,0,33.12,10.91C3011.64,5442.18,3022.55,5436.12,3022.55,5423Z"/><path class="b" d="M3142.33,5337.55v122h-21.81v-122h-42v-19.39h106.05l-4,19.39Z"/><path class="b" d="M3217.08,5434.91a13.33,13.33,0,1,1-13.34,13.33A13.45,13.45,0,0,1,3217.08,5434.91Z"/><path class="b" d="M270.49,4524.44H320l-75.35,200.2c-12,31.67-30.57,58.24-65.52,58.24-14.92,0-27.66-3.28-40.76-12.74l22.2-36c5.82,4.37,10.19,6.55,16.74,6.55,7.28,0,15.66-6.91,22.94-24.75l5.09-12.74H190.77l-78.62-178.72h53.14l56.06,131.4h1.09Z"/><path class="b" d="M368.77,4524.44h149.6v254.8H471.78V4566.66H413.54c0,131.77-17.47,214.4-74.62,214.4-10.92,0-20.75-2.55-26.21-5.1l8.74-40a35,35,0,0,0,11.65,2.19c24.38,0,35.67-50.24,35.67-203.84Z"/><path class="b" d="M613.38,4731.19A25.85,25.85,0,1,1,587.53,4757,25.94,25.94,0,0,1,613.38,4731.19Z"/><path class="b" d="M753.88,4779.24v-254.8H833.6c45.5,0,79.71,16.74,79.71,61.15,0,33.49-20,52.05-43.31,58.24v1.46c32,7.64,52.41,28,52.41,63.33,0,52.05-38.95,70.62-88.81,70.62Zm77.17-212.58H800.47v61.52h30.58c22.2,0,34.21-12.38,34.21-30.94S853.25,4566.66,831.05,4566.66Zm.36,101.56H800.47V4737h30.94c26.94,0,43-13.46,43-33.48C874.36,4680.23,858.35,4668.22,831.41,4668.22Z"/><path class="b" d="M1018.51,4524.44h149.6v254.8h-46.59V4566.66h-58.24c0,131.77-17.47,214.4-74.62,214.4-10.92,0-20.75-2.55-26.21-5.1l8.74-40a35,35,0,0,0,11.65,2.19c24.38,0,35.67-50.24,35.67-203.84Z"/><path class="b" d="M1373,4723.55h-80.8l-16.75,55.69h-49.14l85.18-254.8h42.59l85.17,254.8h-49.14Zm-68.43-41.14h56.06l-27.3-92.45h-1.46Z"/><path class="b" d="M1513.18,4832.75h-39.31l-7.28-95.74h27.3c27.67-36.76,37.13-107.74,37.13-191.46v-21.11h156.16V4737h34.58l-7.29,95.74h-39.31v-53.51h-162Zm127.4-95.74V4566.66h-64.06v8c0,63.34-12.74,126.31-31.67,162.34Z"/><path class="b" d="M1935.42,4610.34h-1.09l-113.57,168.9h-38.94v-254.8h46.59V4693.7h1.09l113.57-169.26H1982v254.8h-46.59Z"/><path class="b" d="M2254.29,4612.89h-1.09l-43.68,132.86h-47.69l-44-132.86h-1.09l-15.29,166.35h-46.59l23.66-254.8h52.05l54.6,163.8h1.09l54.6-163.8h52l23.66,254.8h-46.59Z"/><path class="b" d="M2542.94,4610.34h-1.09l-113.57,168.9h-39v-254.8h46.59V4693.7h1.1l113.56-169.26h39v254.8h-46.59Z"/><path class="b" d="M2719.84,4689.69v89.55h-46.59v-254.8h83.36c48.41,0,84.81,28,84.81,82.63s-36.4,82.62-84.81,82.62Zm0-123v80.81h36c22.2,0,37.13-14.92,37.13-40.4s-14.93-40.41-37.13-40.41Z"/><path class="b" d="M3011.77,4723.55H2931l-16.74,55.69h-49.14l85.18-254.8h42.58l85.18,254.8h-49.14Zm-68.43-41.14h56l-27.3-92.45h-1.45Z"/><path class="b" d="M143.09,5147.24v-254.8H222.8c45.5,0,79.72,16.74,79.72,61.15,0,33.49-20,52.05-43.32,58.24v1.46c32,7.64,52.42,28,52.42,63.33,0,52.05-38.95,70.62-88.82,70.62Zm77.17-212.58H189.68v61.52h30.58c22.2,0,34.21-12.38,34.21-30.94S242.46,4934.66,220.26,4934.66Zm.36,101.56H189.68V5105h30.94c26.94,0,42.95-13.46,42.95-33.48C263.57,5048.23,247.56,5036.22,220.62,5036.22Z"/><path class="b" d="M431,4892.44v99h24.75c52.78,0,88.09,25.84,88.09,77.89s-34.94,77.9-88.09,77.9H384.42v-254.8Zm0,141.23V5105h22.57c29.48,0,42.22-15.28,42.22-35.67,0-21.47-12.37-35.67-42.58-35.67Zm186.37-141.23v254.8H570.79v-254.8Z"/><path class="b" d="M870.36,5131.22c-22.93,13.11-42.22,19.66-71,19.66-75.71,0-109.2-57.51-109.2-131s33.49-131,109.2-131c23.3,0,42.22,3.64,66.61,16.38l-18.56,37.49a106.89,106.89,0,0,0-48-11.65c-41.5,0-61.15,38.95-61.15,88.82s19.65,88.81,61.15,88.81c18.56,0,35.31-5.09,52-14.56Z"/><path class="b" d="M1026.88,5150.88c-75.71,0-107.38-57.51-107.38-131s31.67-131,107.38-131,107.38,57.51,107.38,131S1102.59,5150.88,1026.88,5150.88Zm0-219.86c-41.5,0-59.33,38.95-59.33,88.82s17.83,88.81,59.33,88.81,59.33-38.94,59.33-88.81S1068.38,4931,1026.88,4931Z"/><path class="b" d="M1207.06,5147.24v-254.8h46.59V5105H1349V4892.44h46.59V5105h34.58l-7.28,95.74H1383.6v-53.51Z"/><path class="b" d="M1555,5036.58h-18.2v110.66h-46.59v-254.8h46.59v101.92h18.93l65.89-101.92h52L1594,5012.92l87.36,134.32-52.41,3.64Z"/><path class="b" d="M1817.85,5150.88c-75.71,0-107.38-57.51-107.38-131s31.67-131,107.38-131,107.38,57.51,107.38,131S1893.56,5150.88,1817.85,5150.88Zm0-219.86c-41.49,0-59.33,38.95-59.33,88.82s17.84,88.81,59.33,88.81,59.33-38.94,59.33-88.81S1859.35,4931,1817.85,4931Z"/><path class="b" d="M2044.62,4934.66v212.58H1998v-254.8h145.6l-7.28,42.22Z"/><path class="b" d="M2280.13,5150.88c-75.71,0-107.38-57.51-107.38-131s31.67-131,107.38-131,107.38,57.51,107.38,131S2355.84,5150.88,2280.13,5150.88Zm0-219.86c-41.49,0-59.33,38.95-59.33,88.82s17.84,88.81,59.33,88.81,59.33-38.94,59.33-88.81S2321.63,4931,2280.13,4931Z"/></svg>