<svg xmlns="http://www.w3.org/2000/svg" viewBox="0 0 1130.564 115.111"><defs><style>.a{fill:none;stroke:#b3b2b2;stroke-miterlimit:10;stroke-width:2.5px;}.b{fill:#222c54;}.c{fill:#757575;opacity:0.8;}</style></defs><circle cx="851.787" cy="58.188" r="55.188"/><circle class="a" cx="461.217" cy="58.295" r="55.188"/><circle class="b" cx="55.188" cy="58.188" r="55.188"/><path d="M169.2,33.282a6.6,6.6,0,0,1-5.074,6.861l6.4,10.361-4.094.351L160.03,40.493h-2.17V50.5h-3.781V26h7.457C165.77,26,169.2,28.487,169.2,33.282Zm-11.34-3.92v7.77h3.5a3.654,3.654,0,0,0,3.92-3.85,3.71,3.71,0,0,0-3.92-3.92Z"/><path d="M172.278,50.5,180.469,26h3.746l8.19,24.5H188.38L186.63,44.8h-8.612L176.3,50.5Zm10.152-19.5h-.175L179,41.543h6.65Z"/><path d="M196.255,50.5V26h3.779V47.144h11.1l-.7,3.36Z"/><path d="M234.614,42.628a4.781,4.781,0,0,0-5.109-5.006,12.369,12.369,0,0,0-5.077,1.051V26H237.52l-.7,3.361H228.1v5.25a11.946,11.946,0,0,1,2.17-.21c4.481,0,8.156,2.661,8.156,8.226,0,5.391-3.851,8.227-8.3,8.227a12.286,12.286,0,0,1-7.105-2.067l1.785-2.939a8.463,8.463,0,0,0,5.076,1.644A4.48,4.48,0,0,0,234.614,42.628Z"/><path d="M250.329,50.855c-5.391,0-8.576-4.307-8.576-12.6s3.185-12.6,8.576-12.6,8.576,4.305,8.576,12.6S255.719,50.855,250.329,50.855Zm0-3.362c2.8,0,4.76-2.73,4.76-9.24s-1.959-9.241-4.76-9.241-4.762,2.73-4.762,9.241S247.528,47.493,250.329,47.493Z"/><path d="M272.485,26V47.144h5.67V50.5H262.4v-3.36h6.406V29.362h-5.881l.7-3.361Z"/><path d="M296.88,42.943c0,5.39-3.85,7.912-8.3,7.912a12.289,12.289,0,0,1-7.106-2.067l1.785-2.939a8.466,8.466,0,0,0,5.077,1.644c2.695,0,4.724-1.4,4.724-4.515,0-3.255-2.1-4.55-4.865-4.55h-1.82v-1.89L291.63,29.5v-.14h-9.346l.7-3.361h12.811v3.011l-5,6.65v.106C294.079,36.327,296.88,38.218,296.88,42.943Z"/><path class="c" d="M161.981,70.215V87.687h-2.464V70.215h-5.964V68.087h14.42l-.56,2.128Z"/><path class="c" d="M170.157,81.219c.224,3.108,1.68,4.872,4.508,4.872a7.553,7.553,0,0,0,3.668-1.008l.812,1.68a9.679,9.679,0,0,1-4.76,1.2c-3.976,0-6.692-2.743-6.692-7.42,0-4.424,2.268-7.42,6.3-7.42,3.836,0,5.74,2.24,5.74,5.74a12.043,12.043,0,0,1-.252,2.353Zm.672-13.5a1.589,1.589,0,0,1,1.6,1.567,1.566,1.566,0,0,1-1.6,1.541,1.542,1.542,0,0,1-1.568-1.541A1.565,1.565,0,0,1,170.829,67.723Zm-.672,11.788h7.364a4.972,4.972,0,0,0,.028-.645c0-2.24-1.176-3.863-3.5-3.863C171.7,75,170.3,76.851,170.157,79.511Zm6.748-11.788a1.589,1.589,0,0,1,1.6,1.567,1.566,1.566,0,0,1-1.6,1.541,1.542,1.542,0,0,1-1.568-1.541A1.565,1.565,0,0,1,176.905,67.723Z"/><path class="c" d="M194.405,73.407h3l1.372,14.28h-2.324l-.924-11.508h-.112l-3.3,9.183h-2.6l-3.332-9.183h-.113l-.924,11.508h-2.324l1.372-14.28h3l3.584,9.883h.084Z"/><path class="c" d="M213.864,87.687h-2.352V81.275h-6.467v6.412h-2.353V73.407h2.353V79.4h6.467V73.407h2.352Z"/><path class="c" d="M217.784,80.546c0-4.647,2.464-7.42,6.439-7.42s6.441,2.773,6.441,7.42-2.464,7.42-6.441,7.42S217.784,85.194,217.784,80.546Zm2.408,0c0,3.5,1.483,5.545,4.031,5.545s4.033-2.045,4.033-5.545S226.772,75,224.223,75,220.192,77.046,220.192,80.546Z"/><path class="c" d="M234.024,80.63V78.643h7.336L240.8,80.63Z"/><path class="c" d="M255.192,87.126a9.439,9.439,0,0,1-3.92.84c-4.62,0-6.692-3.3-6.692-7.42s1.931-7.42,6.552-7.42a10.308,10.308,0,0,1,3.919.785l-.671,1.736A8,8,0,0,0,251.3,75c-2.771,0-4.311,2.24-4.311,5.543s1.512,5.545,4.284,5.545a9.031,9.031,0,0,0,3.247-.7Z"/><path class="c" d="M258.551,87.687V73.407H260.9V83.683h.111l7.42-10.276h2.044v14.28h-2.351V77.355h-.113L260.6,87.687Z"/><path class="c" d="M286.411,87.687h-2.352V81.275h-6.468v6.412h-2.352V73.407h2.352V79.4h6.468V73.407h2.352Z"/><path class="c" d="M291.171,87.687V73.407h2.352V83.683h.111l7.42-10.276H303.1v14.28h-2.351V77.355h-.113l-7.419,10.332Z"/><path class="c" d="M307.859,87.687V73.407h2.353V83.683h.111l7.42-10.276h2.044v14.28h-2.352V77.355h-.112L309.9,87.687ZM318.3,68.647a5.338,5.338,0,0,1-8.96,0L311,67.555a3.15,3.15,0,0,0,5.656,0Z"/><path d="M576.616,33.282a6.6,6.6,0,0,1-5.075,6.861l6.4,10.361-4.1.351-6.406-10.362h-2.17V50.5H561.5V26h7.456C573.186,26,576.616,28.487,576.616,33.282Zm-11.341-3.92v7.77h3.5a3.655,3.655,0,0,0,3.921-3.85,3.711,3.711,0,0,0-3.921-3.92Z"/><path d="M579.694,50.5l8.19-24.5h3.747l8.19,24.5H595.8l-1.75-5.706h-8.612L583.719,50.5Zm10.151-19.5h-.175l-3.255,10.536h6.65Z"/><path d="M603.67,50.5V26h3.78V47.144h11.1l-.7,3.36Z"/><path d="M641.575,39.723a6.292,6.292,0,0,1-4.445,1.505c-4.166,0-7.037-2.765-7.037-7.7,0-4.8,3.4-7.876,7.982-7.876,4.935,0,7.945,3.326,7.945,9,0,8.75-4.9,14.106-12.146,16.207l-1.33-2.871c4.166-1.575,7.981-3.956,9.135-8.191Zm-3.5-10.711c-2.381,0-4.2,1.61-4.2,4.515s1.82,4.515,4.2,4.515A4.725,4.725,0,0,0,642.31,35C642.31,31.5,640.77,29.012,638.075,29.012Z"/><path d="M657.744,50.855c-5.391,0-8.575-4.307-8.575-12.6s3.184-12.6,8.575-12.6,8.576,4.305,8.576,12.6S663.134,50.855,657.744,50.855Zm0-3.362c2.8,0,4.761-2.73,4.761-9.24s-1.96-9.241-4.761-9.241-4.761,2.73-4.761,9.241S654.944,47.493,657.744,47.493Z"/><path d="M679.9,26V47.144h5.671V50.5H669.819v-3.36h6.405V29.362h-5.88l.7-3.361Z"/><path d="M693.514,36.958a6.4,6.4,0,0,1,4.446-1.681c3.955,0,7.035,2.556,7.035,7.7,0,5.006-3.43,7.877-7.981,7.877-4.935,0-7.946-3.711-7.946-9.207,0-8.471,5.286-13.9,12.531-16l1.3,2.8c-4.025,1.435-8.191,3.991-9.486,8.436Zm3.5,10.535c2.38,0,4.165-1.609,4.165-4.515s-1.785-4.34-4.165-4.34a4.69,4.69,0,0,0-4.235,3.01C692.779,45.149,694.319,47.493,697.014,47.493Z"/><path class="c" d="M564.392,70.215V75.87h3c4.06,0,6.776,1.905,6.776,5.908s-2.688,5.909-6.776,5.909h-5.46v-19.6h10.92l-.56,2.128Zm0,7.784v7.56h2.828c3.052,0,4.369-1.568,4.369-3.781,0-2.324-1.289-3.779-4.4-3.779Z"/><path class="c" d="M579.288,81.219c.223,3.108,1.679,4.872,4.508,4.872a7.553,7.553,0,0,0,3.668-1.008l.812,1.68a9.679,9.679,0,0,1-4.76,1.2c-3.976,0-6.692-2.743-6.692-7.42,0-4.424,2.267-7.42,6.3-7.42,3.836,0,5.74,2.24,5.74,5.74a12.043,12.043,0,0,1-.252,2.353Zm0-1.708h7.364a5.155,5.155,0,0,0,.027-.645c0-2.24-1.175-3.863-3.5-3.863C580.828,75,579.427,76.851,579.288,79.511Z"/><path class="c" d="M603.76,73.407v14.28h-2.352v-12.4h-4.424v1.176c0,7.617-1.26,11.369-4.284,11.369a3.968,3.968,0,0,1-1.876-.5l.673-1.82a1.838,1.838,0,0,0,1.063.336c1.485,0,2.212-2.772,2.212-10.053V73.407Z"/><path class="c" d="M610.872,78.614h3.079c3.08,0,5.1,1.68,5.1,4.565s-2.017,4.508-5.1,4.508h-5.432V73.407h2.353Zm0,1.877v5.32h2.8c1.819,0,2.967-.98,2.967-2.66s-1.148-2.66-2.967-2.66Zm12.935,7.2h-2.351V73.407h2.351Z"/><path class="c" d="M628.567,87.687V73.407h2.353V83.683h.111l7.42-10.276H640.5v14.28h-2.352V77.355h-.112l-7.42,10.332Zm10.444-19.04a5.338,5.338,0,0,1-8.96,0l1.652-1.092a3.15,3.15,0,0,0,5.656,0Z"/><path d="M966.259,33.282a6.6,6.6,0,0,1-5.075,6.861L967.59,50.5l-4.1.351-6.406-10.362h-2.17V50.5h-3.781V26h7.456C962.83,26,966.259,28.487,966.259,33.282Zm-11.34-3.92v7.77h3.5a3.655,3.655,0,0,0,3.921-3.85,3.711,3.711,0,0,0-3.921-3.92Z"/><path d="M969.338,50.5l8.19-24.5h3.746l8.191,24.5h-4.026l-1.75-5.706h-8.611L973.363,50.5Zm10.151-19.5h-.176l-3.255,10.536h6.651Z"/><path d="M993.313,50.5V26h3.78V47.144h11.1l-.7,3.36Z"/><path d="M1031.218,39.723a6.292,6.292,0,0,1-4.445,1.505c-4.166,0-7.036-2.765-7.036-7.7,0-4.8,3.395-7.876,7.981-7.876,4.936,0,7.946,3.326,7.946,9,0,8.75-4.9,14.106-12.147,16.207l-1.33-2.871c4.166-1.575,7.982-3.956,9.136-8.191Zm-3.5-10.711c-2.38,0-4.2,1.61-4.2,4.515s1.821,4.515,4.2,4.515A4.726,4.726,0,0,0,1031.954,35C1031.954,31.5,1030.414,29.012,1027.718,29.012Z"/><path d="M1047.387,50.855c-5.39,0-8.575-4.307-8.575-12.6s3.185-12.6,8.575-12.6,8.577,4.305,8.577,12.6S1052.778,50.855,1047.387,50.855Zm0-3.362c2.8,0,4.761-2.73,4.761-9.24s-1.96-9.241-4.761-9.241-4.76,2.73-4.76,9.241S1044.588,47.493,1047.387,47.493Z"/><path d="M1066.988,50.855c-5.391,0-8.575-4.307-8.575-12.6s3.184-12.6,8.575-12.6,8.576,4.305,8.576,12.6S1072.379,50.855,1066.988,50.855Zm0-3.362c2.8,0,4.761-2.73,4.761-9.24s-1.96-9.241-4.761-9.241-4.76,2.73-4.76,9.241S1064.188,47.493,1066.988,47.493Z"/><path d="M1090.473,42.628a4.781,4.781,0,0,0-5.11-5.006,12.367,12.367,0,0,0-5.076,1.051V26h13.092l-.7,3.361h-8.715v5.25a11.961,11.961,0,0,1,2.169-.21c4.481,0,8.157,2.661,8.157,8.226,0,5.391-3.851,8.227-8.3,8.227a12.287,12.287,0,0,1-7.106-2.067l1.786-2.939a8.455,8.455,0,0,0,5.075,1.644A4.48,4.48,0,0,0,1090.473,42.628Z"/><path class="c" d="M963.669,68.087v19.6h-2.464v-8.68a13.351,13.351,0,0,1-4.284.924c-4.144,0-5.909-1.485-5.909-5.46V68.087h2.465v5.964c0,2.8,1.316,3.752,3.724,3.752a9.71,9.71,0,0,0,4-1.009V68.087Z"/><path class="c" d="M970.333,81.219c.223,3.108,1.679,4.872,4.507,4.872a7.547,7.547,0,0,0,3.668-1.008l.813,1.68a9.679,9.679,0,0,1-4.76,1.2c-3.976,0-6.692-2.743-6.692-7.42,0-4.424,2.267-7.42,6.3-7.42,3.836,0,5.74,2.24,5.74,5.74a12.043,12.043,0,0,1-.252,2.353Zm.672-13.5a1.588,1.588,0,0,1,1.6,1.567,1.565,1.565,0,0,1-1.6,1.541,1.541,1.541,0,0,1-1.568-1.541A1.565,1.565,0,0,1,971.005,67.723Zm-.672,11.788H977.7a5.155,5.155,0,0,0,.027-.645c0-2.24-1.175-3.863-3.5-3.863C971.873,75,970.472,76.851,970.333,79.511Zm6.748-11.788a1.588,1.588,0,0,1,1.6,1.567,1.565,1.565,0,0,1-1.6,1.541,1.543,1.543,0,0,1-1.569-1.541A1.566,1.566,0,0,1,977.081,67.723Z"/><path class="c" d="M986.18,86.958v6.328l-2.352.561V73.407h1.512l.56,1.791h.112a5.651,5.651,0,0,1,4.48-2.072c3.668,0,5.628,3.025,5.628,7.42,0,4.257-1.764,7.42-6.02,7.42A7.537,7.537,0,0,1,986.18,86.958Zm7.532-6.412c0-3.275-1.372-5.543-3.948-5.543a4.832,4.832,0,0,0-3.584,2.127V84.8a5.857,5.857,0,0,0,3.584,1.288C992.34,86.091,993.712,84.075,993.712,80.546Z"/><path class="c" d="M1011.212,87.687h-2.352V81.275h-6.468v6.412h-2.352V73.407h2.352V79.4h6.468V73.407h2.352Z"/><path class="c" d="M1018.324,78.614h3.079c3.08,0,5.1,1.68,5.1,4.565s-2.017,4.508-5.1,4.508h-5.432V73.407h2.353Zm0,1.877v5.32h2.8c1.819,0,2.967-.98,2.967-2.66s-1.148-2.66-2.967-2.66Zm12.935,7.2h-2.351V73.407h2.351Z"/><path class="c" d="M1036.019,87.687V73.407h2.353V83.683h.111l7.42-10.276h2.044v14.28H1045.6V77.355h-.112l-7.42,10.332Zm10.445-19.04a5.338,5.338,0,0,1-8.96,0l1.651-1.092a3.15,3.15,0,0,0,5.656,0Z"/></svg>