<svg xmlns="http://www.w3.org/2000/svg" viewBox="0 0 1985.54 567.06"><defs><style>.a,.b,.d{fill:#38a032;}.a{opacity:0.22;}.b{opacity:0.08;}.c{fill:#222c54;}</style></defs><rect class="a" y="19.76" width="551.15" height="368.2"/><rect class="b" x="551.15" y="117.71" width="255.12" height="270.25"/><path class="c" d="M159.38,19.76V326.94H242v61H0v-61H93.63V80.77H7.89l10.52-61Z"/><path class="c" d="M368.2,175.45c15.78-10.52,36.29-16.3,57.33-16.3,62.6,0,108.36,41.55,108.36,115.72,0,72.06-53.65,118.35-122.56,118.35-74.16,0-122-53.13-122-135.18,0-133.08,81.53-212,190.41-243.54l22.62,48.39C445,85,387.66,118.12,366.62,174.4ZM355.58,258c0,44.71,22.09,74.16,55.75,74.16,30,0,57.34-17.88,57.34-57.33s-27.36-57.34-57.34-57.34C389.24,217.53,365,234.89,355.58,258Z"/><path class="c" d="M714.61,333.05h-78L620.92,388H561.4l86-268.79h56.45l86,268.79H730.35Zm-38.4-139.77h-1.54L651.25,282H700Z"/><rect class="b" x="1631.45" y="117.71" width="354.09" height="270.25"/><rect class="a" x="1062.44" y="19.76" width="569.01" height="368.2"/><path class="d" d="M2.7,473V452H17.85v21H14.61V454.88H5.94V473Z"/><path class="d" d="M35,466.07H25.26c.21,3,1.77,4.62,4.53,4.62a8.49,8.49,0,0,0,3.81-1.05l1,2.37a11.19,11.19,0,0,1-5.13,1.29c-4.5,0-7.44-2.94-7.44-7.95s2.76-8,6.9-8,6.3,2.4,6.3,6.15A12.89,12.89,0,0,1,35,466.07Zm-9.6-2.43h7.08c0-2.1-1.14-3.63-3.45-3.63C26.94,460,25.65,461.48,25.38,463.64Z"/><path class="d" d="M42.27,479l-3.12.6V457.7h2.22l.6,1.62h.12a5.42,5.42,0,0,1,4.35-1.92c4.32,0,6.18,3.39,6.18,8s-1.89,7.95-6.45,7.95a9,9,0,0,1-3.9-.81Zm7.17-13.65c0-3.15-1.26-5.34-3.9-5.34a4.33,4.33,0,0,0-3.27,1.89v7.71a5.58,5.58,0,0,0,3.39,1.08C48,470.69,49.44,468.74,49.44,465.35Z"/><path class="d" d="M68.4,468.59c0,2.76-1.74,4.41-5.22,4.41H56.52V457.7H62.7c3.06,0,5.07,1.14,5.07,3.9a3.42,3.42,0,0,1-2.61,3.27V465A3.78,3.78,0,0,1,68.4,468.59Zm-8.76-8.28v3.48H62.1c1.41,0,2.49-.45,2.49-1.74s-1-1.74-2.28-1.74Zm0,6.09v4h3c1.59,0,2.55-.63,2.55-2s-1-2-2.85-2Z"/><path class="d" d="M75.42,463.28h2.73c3.3,0,5.46,1.8,5.46,4.89S81.45,473,78.15,473H72.3V457.7h3.12Zm0,2.61v4.5h2.43c1.59,0,2.58-.84,2.58-2.25s-1-2.25-2.58-2.25ZM89,473H85.86V457.7H89Z"/><path class="d" d="M93.78,473V457.7H96.9v10.2H97l7-10.2h2.79V473h-3.12V462.8h-.12L96.57,473Zm11.49-20.43a5.75,5.75,0,0,1-9.9,0l2-1.32a3.3,3.3,0,0,0,3,1.95,3.21,3.21,0,0,0,2.94-1.95Z"/><path class="d" d="M119.49,476.6a4.45,4.45,0,0,0,1.65.39c.69,0,1.47-.33,1.89-1.77l.66-2.22h-1.11l-5.37-15.3h3.42l4,11.73h.12l3.54-11.73h3.36l-5.88,18.24c-1,2.94-2.76,3.66-4.41,3.66a6.9,6.9,0,0,1-2.64-.57Z"/><path class="d" d="M137.28,479l-3.12.6V457.7h2.22l.6,1.62h.12a5.42,5.42,0,0,1,4.35-1.92c4.32,0,6.18,3.39,6.18,8s-1.89,7.95-6.45,7.95a9,9,0,0,1-3.9-.81Zm7.17-13.65c0-3.15-1.26-5.34-3.9-5.34a4.33,4.33,0,0,0-3.27,1.89v7.71a5.58,5.58,0,0,0,3.39,1.08C143,470.69,144.45,468.74,144.45,465.35Z"/><path class="d" d="M150.63,465.35c0-5,2.79-8,7.05-8s7,3,7,8-2.79,7.95-7,7.95S150.63,470.33,150.63,465.35Zm3.18,0c0,3.36,1.53,5.34,3.87,5.34s3.87-2,3.87-5.34S160,460,157.68,460,153.81,462,153.81,465.35Z"/><path class="d" d="M180.51,468.59c0,2.76-1.74,4.41-5.22,4.41h-6.66V457.7h6.18c3.06,0,5.07,1.14,5.07,3.9a3.42,3.42,0,0,1-2.61,3.27V465A3.78,3.78,0,0,1,180.51,468.59Zm-8.76-8.28v3.48h2.46c1.41,0,2.49-.45,2.49-1.74s-1-1.74-2.28-1.74Zm0,6.09v4h3c1.59,0,2.55-.63,2.55-2s-1.05-2-2.85-2Z"/><path class="d" d="M196.44,466.07h-9.72c.21,3,1.77,4.62,4.53,4.62a8.49,8.49,0,0,0,3.81-1.05l1,2.37A11.19,11.19,0,0,1,191,473.3c-4.5,0-7.44-2.94-7.44-7.95s2.76-8,6.9-8,6.3,2.4,6.3,6.15A12.89,12.89,0,0,1,196.44,466.07Zm-9.6-2.43h7.08c0-2.1-1.14-3.63-3.45-3.63C188.4,460,187.11,461.48,186.84,463.64Z"/><path class="d" d="M212.88,473h-3.12v-6.57h-6V473h-3.12V457.7h3.12v6.12h6V457.7h3.12Z"/><path class="d" d="M223.8,463.28c3.3,0,5.46,1.8,5.46,4.89S227.1,473,223.8,473h-6.12V457.7h3.12v5.58Zm-3,2.61v4.5h2.7c1.59,0,2.58-.84,2.58-2.25s-1-2.25-2.58-2.25Z"/><path class="d" d="M565.82,462c2.64.63,4.32,2.31,4.32,5.22,0,4.29-3.21,5.82-7.32,5.82h-6.27V452h6.27c3.75,0,6.57,1.38,6.57,5a4.66,4.66,0,0,1-3.57,4.8Zm-6-7.08v5.94h2.82a3.11,3.11,0,0,0,3.42-3c0-1.92-1.23-2.91-3.54-2.91Zm0,8.7v6.54h2.85c2.58,0,4.14-1.32,4.14-3.33s-1.47-3.21-4.17-3.21Z"/><path class="d" d="M572.54,457.7h13l-.6,2.61h-4.41V473H577.4V460.31h-4.86Z"/><path class="d" d="M587,465.35c0-5,2.79-8,7-8s7.05,3,7.05,8-2.79,7.95-7.05,7.95S587,470.33,587,465.35Zm3.18,0c0,3.36,1.53,5.34,3.87,5.34s3.87-2,3.87-5.34-1.53-5.34-3.87-5.34S590.18,462,590.18,465.35Z"/><path class="d" d="M608.12,479l-3.12.6V457.7h2.22l.6,1.62h.12a5.42,5.42,0,0,1,4.35-1.92c4.32,0,6.18,3.39,6.18,8s-1.89,7.95-6.45,7.95a9,9,0,0,1-3.9-.81Zm7.17-13.65c0-3.15-1.26-5.34-3.9-5.34a4.33,4.33,0,0,0-3.27,1.89v7.71a5.58,5.58,0,0,0,3.39,1.08C613.88,470.69,615.29,468.74,615.29,465.35Z"/><path class="d" d="M621.47,465.35c0-5,2.79-8,7-8s7.05,3,7.05,8-2.79,7.95-7.05,7.95S621.47,470.33,621.47,465.35Zm3.18,0c0,3.36,1.53,5.34,3.87,5.34s3.87-2,3.87-5.34-1.53-5.34-3.87-5.34S624.65,462,624.65,465.35Z"/><path class="d" d="M639.47,473V457.7h3.12v10.2h.12l7-10.2h2.79V473h-3.12V462.8h-.12l-7,10.2ZM651,452.57a5.75,5.75,0,0,1-9.9,0l2-1.32a3.3,3.3,0,0,0,3,1.95,3.21,3.21,0,0,0,2.94-1.95Z"/><path class="d" d="M665.18,476.6a4.45,4.45,0,0,0,1.65.39c.69,0,1.47-.33,1.89-1.77l.66-2.22h-1.11l-5.37-15.3h3.42l4,11.73h.12l3.54-11.73h3.36l-5.88,18.24c-1,2.94-2.76,3.66-4.41,3.66a6.9,6.9,0,0,1-2.64-.57Z"/><path class="d" d="M683,479l-3.12.6V457.7h2.22l.6,1.62h.12a5.42,5.42,0,0,1,4.35-1.92c4.32,0,6.18,3.39,6.18,8s-1.89,7.95-6.45,7.95a9,9,0,0,1-3.9-.81Zm7.17-13.65c0-3.15-1.26-5.34-3.9-5.34A4.33,4.33,0,0,0,683,461.9v7.71a5.58,5.58,0,0,0,3.39,1.08C688.73,470.69,690.14,468.74,690.14,465.35Z"/><path class="d" d="M696.32,465.35c0-5,2.79-8,7-8s7,3,7,8-2.79,7.95-7,7.95S696.32,470.33,696.32,465.35Zm3.18,0c0,3.36,1.53,5.34,3.87,5.34s3.87-2,3.87-5.34-1.53-5.34-3.87-5.34S699.5,462,699.5,465.35Z"/><path class="d" d="M726.2,468.59c0,2.76-1.74,4.41-5.22,4.41h-6.66V457.7h6.18c3.06,0,5.07,1.14,5.07,3.9a3.42,3.42,0,0,1-2.61,3.27V465A3.78,3.78,0,0,1,726.2,468.59Zm-8.76-8.28v3.48h2.46c1.41,0,2.49-.45,2.49-1.74s-1-1.74-2.28-1.74Zm0,6.09v4h3c1.59,0,2.55-.63,2.55-2s-1-2-2.85-2Z"/><path class="d" d="M742.13,466.07h-9.72c.21,3,1.77,4.62,4.53,4.62a8.49,8.49,0,0,0,3.81-1.05l1,2.37a11.19,11.19,0,0,1-5.13,1.29c-4.5,0-7.44-2.94-7.44-7.95s2.76-8,6.9-8,6.3,2.4,6.3,6.15A12.89,12.89,0,0,1,742.13,466.07Zm-9.6-2.43h7.08c0-2.1-1.14-3.63-3.45-3.63C734.09,460,732.8,461.48,732.53,463.64Z"/><path class="d" d="M758.57,473h-3.12v-6.57h-6V473H746.3V457.7h3.12v6.12h6V457.7h3.12Z"/><path class="d" d="M769.49,463.28c3.3,0,5.46,1.8,5.46,4.89s-2.16,4.83-5.46,4.83h-6.12V457.7h3.12v5.58Zm-3,2.61v4.5h2.7c1.59,0,2.58-.84,2.58-2.25s-1-2.25-2.58-2.25Z"/><path class="d" d="M1066.94,473V452h15.15v21h-3.24V454.88h-8.67V473Z"/><path class="d" d="M1099.22,466.07h-9.72c.21,3,1.77,4.62,4.53,4.62a8.49,8.49,0,0,0,3.81-1.05l1,2.37a11.19,11.19,0,0,1-5.13,1.29c-4.5,0-7.44-2.94-7.44-7.95s2.76-8,6.9-8,6.3,2.4,6.3,6.15A12.89,12.89,0,0,1,1099.22,466.07Zm-9.6-2.43h7.08c0-2.1-1.14-3.63-3.45-3.63C1091.18,460,1089.89,461.48,1089.62,463.64Z"/><path class="d" d="M1106.51,479l-3.12.6V457.7h2.22l.6,1.62h.12a5.42,5.42,0,0,1,4.35-1.92c4.32,0,6.18,3.39,6.18,8s-1.89,7.95-6.45,7.95a9,9,0,0,1-3.9-.81Zm7.17-13.65c0-3.15-1.26-5.34-3.9-5.34a4.33,4.33,0,0,0-3.27,1.89v7.71a5.58,5.58,0,0,0,3.39,1.08C1112.27,470.69,1113.68,468.74,1113.68,465.35Z"/><path class="d" d="M1132.64,468.59c0,2.76-1.74,4.41-5.22,4.41h-6.66V457.7h6.18c3.06,0,5.07,1.14,5.07,3.9a3.42,3.42,0,0,1-2.61,3.27V465A3.78,3.78,0,0,1,1132.64,468.59Zm-8.76-8.28v3.48h2.46c1.41,0,2.49-.45,2.49-1.74s-1-1.74-2.28-1.74Zm0,6.09v4h3c1.59,0,2.55-.63,2.55-2s-1-2-2.85-2Z"/><path class="d" d="M1139.66,463.28h2.73c3.3,0,5.46,1.8,5.46,4.89s-2.16,4.83-5.46,4.83h-5.85V457.7h3.12Zm0,2.61v4.5h2.43c1.59,0,2.58-.84,2.58-2.25s-1-2.25-2.58-2.25Zm13.56,7.11h-3.12V457.7h3.12Z"/><path class="d" d="M1158,473V457.7h3.12v10.2h.12l7-10.2h2.79V473H1168V462.8h-.12l-7,10.2Zm11.49-20.43a5.75,5.75,0,0,1-9.9,0l2-1.32a3.3,3.3,0,0,0,3,1.95,3.21,3.21,0,0,0,2.94-1.95Z"/><path class="d" d="M1183.73,476.6a4.45,4.45,0,0,0,1.65.39c.69,0,1.47-.33,1.89-1.77l.66-2.22h-1.11l-5.37-15.3h3.42l4,11.73h.12l3.54-11.73h3.36L1190,475.94c-1,2.94-2.76,3.66-4.41,3.66a6.9,6.9,0,0,1-2.64-.57Z"/><path class="d" d="M1201.52,479l-3.12.6V457.7h2.22l.6,1.62h.12a5.42,5.42,0,0,1,4.35-1.92c4.32,0,6.17,3.39,6.17,8s-1.88,7.95-6.44,7.95a9,9,0,0,1-3.9-.81Zm7.17-13.65c0-3.15-1.26-5.34-3.9-5.34a4.33,4.33,0,0,0-3.27,1.89v7.71a5.57,5.57,0,0,0,3.38,1.08C1207.28,470.69,1208.69,468.74,1208.69,465.35Z"/><path class="d" d="M1214.87,465.35c0-5,2.79-8,7.05-8s7,3,7,8-2.79,7.95-7,7.95S1214.87,470.33,1214.87,465.35Zm3.18,0c0,3.36,1.53,5.34,3.87,5.34s3.87-2,3.87-5.34-1.53-5.34-3.87-5.34S1218.05,462,1218.05,465.35Z"/><path class="d" d="M1244.74,468.59c0,2.76-1.74,4.41-5.21,4.41h-6.67V457.7h6.19c3.06,0,5.06,1.14,5.06,3.9a3.41,3.41,0,0,1-2.6,3.27V465A3.77,3.77,0,0,1,1244.74,468.59Zm-8.75-8.28v3.48h2.46c1.41,0,2.49-.45,2.49-1.74s-1-1.74-2.29-1.74Zm0,6.09v4h3c1.59,0,2.55-.63,2.55-2s-1-2-2.85-2Z"/><path class="d" d="M1260.67,466.07H1251c.21,3,1.77,4.62,4.53,4.62a8.49,8.49,0,0,0,3.81-1.05l1,2.37a11.19,11.19,0,0,1-5.13,1.29c-4.5,0-7.44-2.94-7.44-7.95s2.76-8,6.9-8,6.3,2.4,6.3,6.15A12.89,12.89,0,0,1,1260.67,466.07Zm-9.6-2.43h7.08c0-2.1-1.14-3.63-3.45-3.63C1252.63,460,1251.34,461.48,1251.07,463.64Z"/><path class="d" d="M1277.11,473H1274v-6.57h-6V473h-3.11V457.7H1268v6.12h6V457.7h3.12Z"/><path class="d" d="M1288,463.28c3.3,0,5.46,1.8,5.46,4.89S1291.33,473,1288,473h-6.12V457.7H1285v5.58Zm-3,2.61v4.5h2.7c1.59,0,2.58-.84,2.58-2.25s-1-2.25-2.58-2.25Z"/><path class="d" d="M1668.63,462c2.64.63,4.32,2.31,4.32,5.22,0,4.29-3.21,5.82-7.32,5.82h-6.27V452h6.27c3.75,0,6.57,1.38,6.57,5a4.66,4.66,0,0,1-3.57,4.8Zm-6-7.08v5.94h2.82a3.11,3.11,0,0,0,3.42-3c0-1.92-1.23-2.91-3.54-2.91Zm0,8.7v6.54h2.85c2.58,0,4.14-1.32,4.14-3.33s-1.47-3.21-4.17-3.21Z"/><path class="d" d="M1675.35,457.7h13l-.6,2.61h-4.41V473h-3.09V460.31h-4.86Z"/><path class="d" d="M1689.81,465.35c0-5,2.79-8,7-8s7.05,3,7.05,8-2.79,7.95-7.05,7.95S1689.81,470.33,1689.81,465.35Zm3.18,0c0,3.36,1.53,5.34,3.87,5.34s3.87-2,3.87-5.34-1.53-5.34-3.87-5.34S1693,462,1693,465.35Z"/><path class="d" d="M1710.93,479l-3.12.6V457.7H1710l.6,1.62h.12a5.42,5.42,0,0,1,4.35-1.92c4.32,0,6.18,3.39,6.18,8s-1.89,7.95-6.45,7.95a9,9,0,0,1-3.9-.81Zm7.17-13.65c0-3.15-1.26-5.34-3.9-5.34a4.33,4.33,0,0,0-3.27,1.89v7.71a5.58,5.58,0,0,0,3.39,1.08C1716.69,470.69,1718.1,468.74,1718.1,465.35Z"/><path class="d" d="M1724.28,465.35c0-5,2.79-8,7-8s7.05,3,7.05,8-2.79,7.95-7.05,7.95S1724.28,470.33,1724.28,465.35Zm3.18,0c0,3.36,1.53,5.34,3.87,5.34s3.87-2,3.87-5.34-1.53-5.34-3.87-5.34S1727.46,462,1727.46,465.35Z"/><path class="d" d="M1742.28,473V457.7h3.12v10.2h.12l7-10.2h2.79V473h-3.12V462.8h-.12l-7,10.2Zm11.49-20.43a5.75,5.75,0,0,1-9.9,0l2-1.32a3.3,3.3,0,0,0,3,1.95,3.21,3.21,0,0,0,2.94-1.95Z"/><path class="d" d="M1768,476.6a4.45,4.45,0,0,0,1.65.39c.69,0,1.47-.33,1.89-1.77l.66-2.22h-1.11l-5.37-15.3h3.42l4,11.73h.12l3.54-11.73h3.36l-5.88,18.24c-1,2.94-2.76,3.66-4.41,3.66a6.9,6.9,0,0,1-2.64-.57Z"/><path class="d" d="M1785.78,479l-3.12.6V457.7h2.22l.6,1.62h.12a5.42,5.42,0,0,1,4.35-1.92c4.32,0,6.18,3.39,6.18,8s-1.89,7.95-6.45,7.95a9,9,0,0,1-3.9-.81Zm7.17-13.65c0-3.15-1.26-5.34-3.9-5.34a4.33,4.33,0,0,0-3.27,1.89v7.71a5.58,5.58,0,0,0,3.39,1.08C1791.54,470.69,1793,468.74,1793,465.35Z"/><path class="d" d="M1799.13,465.35c0-5,2.79-8,7-8s7,3,7,8-2.79,7.95-7,7.95S1799.13,470.33,1799.13,465.35Zm3.18,0c0,3.36,1.53,5.34,3.87,5.34s3.87-2,3.87-5.34-1.53-5.34-3.87-5.34S1802.31,462,1802.31,465.35Z"/><path class="d" d="M1829,468.59c0,2.76-1.74,4.41-5.22,4.41h-6.66V457.7h6.18c3.06,0,5.07,1.14,5.07,3.9a3.42,3.42,0,0,1-2.61,3.27V465A3.78,3.78,0,0,1,1829,468.59Zm-8.76-8.28v3.48h2.46c1.41,0,2.49-.45,2.49-1.74s-1-1.74-2.28-1.74Zm0,6.09v4h3c1.59,0,2.55-.63,2.55-2s-1-2-2.85-2Z"/><path class="d" d="M1844.94,466.07h-9.72c.21,3,1.77,4.62,4.53,4.62a8.49,8.49,0,0,0,3.81-1.05l1,2.37a11.19,11.19,0,0,1-5.13,1.29c-4.5,0-7.44-2.94-7.44-7.95s2.76-8,6.9-8,6.3,2.4,6.3,6.15A12.89,12.89,0,0,1,1844.94,466.07Zm-9.6-2.43h7.08c0-2.1-1.14-3.63-3.45-3.63C1836.9,460,1835.61,461.48,1835.34,463.64Z"/><path class="d" d="M1861.38,473h-3.12v-6.57h-6V473h-3.12V457.7h3.12v6.12h6V457.7h3.12Z"/><path class="d" d="M1872.3,463.28c3.3,0,5.46,1.8,5.46,4.89s-2.16,4.83-5.46,4.83h-6.12V457.7h3.12v5.58Zm-3,2.61v4.5h2.7c1.59,0,2.58-.84,2.58-2.25s-1-2.25-2.58-2.25Z"/><path class="d" d="M1.65,530.76v-3.48H5v-14H1.65v-3.48H12.24l-.6,3.48H8.79v14h3.3v3.48Z"/><path class="d" d="M15.27,519.48c0-2.55,2.07-4.32,5.43-4.32a12,12,0,0,1,5,1.05l-1.26,2.91a9.8,9.8,0,0,0-3.51-.75c-1.32,0-1.92.48-1.92,1.23,0,.93.9,1.38,2.43,1.89,2.25.75,4.62,1.92,4.62,5,0,2.79-2.34,4.62-5.79,4.62A11.78,11.78,0,0,1,14.94,530l1.29-3a9.69,9.69,0,0,0,3.9.9c1.29,0,2.19-.57,2.19-1.41,0-1.14-1.47-1.74-3-2.31C17.52,523.47,15.27,522.3,15.27,519.48Z"/><path class="d" d="M40,526.86l1.29,2.91A11.83,11.83,0,0,1,36,531.06c-4.5,0-7.59-2.94-7.59-7.95s2.7-8,7-8c4,0,6.48,2.49,6.48,6.78a20.19,20.19,0,0,1-.18,2.31H32.22a4,4,0,0,0,4,3.6A9.08,9.08,0,0,0,40,526.86Zm-1.47-5.46a2.83,2.83,0,0,0-3-3,3.29,3.29,0,0,0-3.24,3Z"/><path class="d" d="M54.72,530.52a10.88,10.88,0,0,1-3.33.54c-2.76,0-5-1.26-5-4.83v-7.56H43.74v-3.21h2.64v-4.14l3.72-.6v4.74h4.29l-.6,3.21H50.1v7.56c0,1.2.48,1.62,1.65,1.62a8.66,8.66,0,0,0,2.34-.39Z"/><path class="d" d="M70.47,521.49c-2.7-1-5.82-2.94-5.82-6.42s2.7-5.61,7-5.61a12.48,12.48,0,0,1,6.15,1.62l-1.83,3.06a8,8,0,0,0-4.32-1.2c-1.89,0-3,.66-3,1.95,0,1.53,1.83,2.67,3.57,3.36,3.3,1.29,6.24,2.91,6.24,6.81,0,3.72-2.76,6-7.47,6a12,12,0,0,1-6.78-1.86l2.07-3.12a7.81,7.81,0,0,0,4.71,1.5c2,0,3.51-.9,3.51-2.46C74.46,523.23,72.69,522.36,70.47,521.49Z"/><path class="d" d="M89.55,520.74c0-1.47-.75-2.37-2.58-2.37a12.17,12.17,0,0,0-4.08.81l-1.11-3a15.29,15.29,0,0,1,5.55-1c4.68,0,5.94,2.46,5.94,5.64v5.82a1,1,0,0,0,1.08,1.08h.33v2.91a7,7,0,0,1-2.13.3,2.73,2.73,0,0,1-2.7-1.47h-.12a5.15,5.15,0,0,1-4,1.47c-2.91,0-4.74-1.44-4.74-4.56,0-2.94,2.34-4.59,5.73-4.59h2.85Zm0,5.61v-1.74H86.82c-1.38,0-2.16.69-2.16,1.68a1.52,1.52,0,0,0,1.65,1.56A4.36,4.36,0,0,0,89.55,526.35Z"/><path class="d" d="M101.4,530.76H97.68v-15.3h2.82l.6,1.32h.12a5.9,5.9,0,0,1,4-1.62c3.21,0,5,2,5,6v9.57h-3.72v-9.24c0-2.13-.81-3.15-2.22-3.15a4.12,4.12,0,0,0-2.94,1.8Z"/><path class="d" d="M113.76,519.48c0-2.55,2.07-4.32,5.43-4.32a12,12,0,0,1,5,1.05l-1.26,2.91a9.8,9.8,0,0,0-3.51-.75c-1.32,0-1.92.48-1.92,1.23,0,.93.9,1.38,2.43,1.89,2.25.75,4.62,1.92,4.62,5,0,2.79-2.34,4.62-5.79,4.62a11.78,11.78,0,0,1-5.31-1.11l1.29-3a9.69,9.69,0,0,0,3.9.9c1.29,0,2.19-.57,2.19-1.41,0-1.14-1.47-1.74-3-2.31C116,523.47,113.76,522.3,113.76,519.48Z"/><path class="d" d="M151.47,517.05h-.09l-3.6,11h-3.93l-3.63-11h-.09l-1.26,13.71H135l1.95-21h4.29l4.5,13.5h.09l4.5-13.5h4.29l1.95,21h-3.84Z"/><path class="d" d="M171.18,526.86l1.29,2.91a11.83,11.83,0,0,1-5.28,1.29c-4.5,0-7.59-2.94-7.59-7.95s2.7-8,7-8c4,0,6.48,2.49,6.48,6.78a20.19,20.19,0,0,1-.18,2.31h-9.54a4,4,0,0,0,4,3.6A9.08,9.08,0,0,0,171.18,526.86Zm-1.47-5.46a2.83,2.83,0,0,0-3-3,3.29,3.29,0,0,0-3.24,3Z"/><path class="d" d="M186,529.44a5.67,5.67,0,0,1-4,1.62c-4.32,0-6.27-3.33-6.27-7.95s2-8,6.54-8a10.63,10.63,0,0,1,3.51.57v-6.87l3.72-.6v22.5h-2.82l-.6-1.32Zm-6.45-6.33c0,2.79,1.14,4.74,3.39,4.74a4,4,0,0,0,2.88-1.5v-7.17a5.82,5.82,0,0,0-3-.81C180.84,518.37,179.58,520.11,179.58,523.11Z"/><path class="d" d="M192.42,518.67l.6-3.21h5.64v15.3h-3.72V518.67Zm4.38-9.81A2.16,2.16,0,0,1,199,511a2.14,2.14,0,0,1-2.22,2.13,2.11,2.11,0,0,1-2.19-2.13A2.14,2.14,0,0,1,196.8,508.86Z"/><path class="d" d="M212,515.46h3.72v15.3h-2.82l-.6-1.32h-.12a6.44,6.44,0,0,1-4.26,1.62c-3,0-5.25-2-5.25-6.27v-9.33h3.72v9.33c0,2.13,1,3.06,2.46,3.06a4.52,4.52,0,0,0,3.15-1.8Z"/><path class="d" d="M230.82,516.84a7.2,7.2,0,0,1,4.62-1.68c3.21,0,5.06,2,5.06,6v9.57h-3.72v-9.24c0-2.13-.8-3.15-2.21-3.15a3.89,3.89,0,0,0-2.52,1.29v11.1h-3.72v-9.24c0-2.13-.75-3.15-2-3.15a3.75,3.75,0,0,0-2.7,1.8v10.59h-3.72v-15.3h2.82l.6,1.32h.12a5.44,5.44,0,0,1,3.84-1.62A4.49,4.49,0,0,1,230.82,516.84Z"/><path class="d" d="M10.35,555.69l7.8,11.07-3.72.3L7.5,557.28H5.94v9.48H2.7v-21H5.94v8.76H7.59l6.24-8.76h3.69Z"/><path class="d" d="M32.28,559.83H22.56c.21,3,1.77,4.62,4.53,4.62a8.49,8.49,0,0,0,3.81-1.05l1,2.37a11.19,11.19,0,0,1-5.13,1.29c-4.5,0-7.44-2.94-7.44-7.95s2.76-8,6.9-8,6.3,2.4,6.3,6.15A12.89,12.89,0,0,1,32.28,559.83Zm-9.6-2.43h7.08c0-2.1-1.14-3.63-3.45-3.63C24.24,553.77,23,555.24,22.68,557.4Z"/><path class="d" d="M46,551.46l-.6,2.61H39.57v12.69H36.45v-15.3Z"/><path class="d" d="M46.71,563.88a1.9,1.9,0,0,0,1,.3c1.41,0,2.19-2.91,2.19-10.17v-2.55H60.15v15.3H57V554.07H52.89v.66c0,8.16-1.47,12.18-4.92,12.18a3.36,3.36,0,0,1-2-.54Z"/><path class="d" d="M71.07,557c3.3,0,5.46,1.8,5.46,4.89s-2.16,4.83-5.46,4.83H65v-15.3h3.12V557Zm-3,2.61v4.5h2.7c1.59,0,2.58-.84,2.58-2.25s-1-2.25-2.58-2.25Z"/><path class="d" d="M97,560a4.1,4.1,0,0,0-4.38-4.29,10.61,10.61,0,0,0-4.35.9V545.76H99.45l-.6,2.88H91.38v4.5a10.25,10.25,0,0,1,1.86-.18c3.84,0,7,2.28,7,7s-3.3,7-7.11,7A10.53,10.53,0,0,1,87,565.29l1.53-2.52a7.25,7.25,0,0,0,4.35,1.41A3.84,3.84,0,0,0,97,560Z"/><path class="d" d="M108.48,563.88H117l-.6,2.88h-12.6v-2.58c4.11-3.09,9.33-8.55,9.33-12.57,0-2-1-3.27-3.12-3.27a8.17,8.17,0,0,0-4.41,1.41l-1.44-2.52a12,12,0,0,1,6.42-1.77c3.69,0,5.82,2.1,5.82,5.76,0,4.62-4.29,9.63-8,12.54Z"/><path class="d" d="M124.29,555.15a5.49,5.49,0,0,1,3.81-1.44c3.39,0,6,2.19,6,6.6s-2.94,6.75-6.84,6.75c-4.23,0-6.81-3.18-6.81-7.89,0-7.26,4.53-11.91,10.74-13.71l1.11,2.4c-3.45,1.23-7,3.42-8.13,7.23Zm3,9c2,0,3.57-1.38,3.57-3.87a3.37,3.37,0,0,0-3.57-3.72,4,4,0,0,0-3.63,2.58C123.66,562.17,125,564.18,127.29,564.18Z"/><path class="d" d="M157.86,566.76h-3.12V554.07H149v12.69h-3.12v-15.3h12Z"/><path class="d" d="M160.86,551.46h13l-.6,2.61h-4.41v12.69h-3.09V554.07h-4.86Z"/><path class="d" d="M556.54,530.76v-4.08h3.15V513.84h-3.15v-4.08h10.89l-.6,4.08h-2.7v12.84h3.15v4.08Z"/><path class="d" d="M570.16,519.6c0-2.7,2.37-4.44,5.58-4.44a13,13,0,0,1,5.13,1.05l-1.53,3.48A9.05,9.05,0,0,0,576,519c-1,0-1.53.3-1.53.84s.51,1,2,1.44c2.22.69,4.86,2.1,4.86,5.07s-2.34,4.74-5.94,4.74a14.28,14.28,0,0,1-5.46-1.08l1.53-3.57a10.31,10.31,0,0,0,3.84.84c1,0,1.77-.48,1.77-1.14,0-.87-1.08-1.26-2.58-1.71C572.56,523.86,570.16,522.9,570.16,519.6Z"/><path class="d" d="M587.83,524.73a3.52,3.52,0,0,0,3.6,2.52,8.52,8.52,0,0,0,3.57-.93l1.56,3.45a12.49,12.49,0,0,1-5.43,1.29c-4.44,0-7.8-2.79-7.8-7.95s2.79-8,7.23-8c4.17,0,6.57,2.58,6.57,6.3a14.57,14.57,0,0,1-.33,3.27Zm5.37-3.33a2.3,2.3,0,0,0-2.58-2.43,2.73,2.73,0,0,0-2.88,2.43Z"/><path class="d" d="M605.23,526.17c0,.81.57,1.08,1.32,1.08a10.4,10.4,0,0,0,2.49-.36l.87,3.63a13.44,13.44,0,0,1-3.72.54c-2.76,0-5.28-1.17-5.28-4.89v-6.9h-2.28v-3.81h2.28v-4.14l4.32-.6v4.74h4.35l-.6,3.81h-3.75Z"/><path class="d" d="M619.54,515.16c0-3.75,2.76-5.7,7.11-5.7a13.07,13.07,0,0,1,6.3,1.62l-2.13,3.57a8,8,0,0,0-4.17-1.11c-1.56,0-2.55.63-2.55,1.62,0,1.35,1.53,2.22,3.18,2.88,3.3,1.29,6.33,3.12,6.33,7,0,3.72-2.91,6-7.62,6a12.48,12.48,0,0,1-6.93-1.86l2.43-3.6A7.5,7.5,0,0,0,626,527c1.68,0,3.06-.87,3.06-2.13,0-1.59-1.5-2.34-3.6-3.15C622.75,520.65,619.54,518.82,619.54,515.16Z"/><path class="d" d="M644.44,529.59a5.22,5.22,0,0,1-3.54,1.32c-2.91,0-5-1.53-5-4.65,0-2.91,2.28-4.62,5.67-4.62h2.61v-.9c0-1.08-.69-1.77-2.13-1.77a12.17,12.17,0,0,0-4,.75l-1.32-3.57a16.41,16.41,0,0,1,5.7-1c4.68,0,6.09,2.46,6.09,5.64V526a1,1,0,0,0,1.08,1.08h.33v3.18a5.27,5.27,0,0,1-2.43.63,3.11,3.11,0,0,1-2.88-1.32Zm-3.06-2.16a4.33,4.33,0,0,0,2.76-1v-1.56h-2.61c-1,0-1.68.57-1.68,1.38S640.48,527.43,641.38,527.43Z"/><path class="d" d="M656.89,530.76h-4.32v-15.3H656l.6,1h.12a6,6,0,0,1,3.69-1.32c3.21,0,5.07,2.1,5.07,6.12v9.48h-4.32v-9.48c0-1.65-.69-2.31-1.77-2.31a3.37,3.37,0,0,0-2.49,1.53Z"/><path class="d" d="M668.65,519.6c0-2.7,2.37-4.44,5.58-4.44a13,13,0,0,1,5.13,1.05l-1.53,3.48a9.05,9.05,0,0,0-3.39-.72c-1,0-1.53.3-1.53.84s.51,1,2,1.44c2.22.69,4.86,2.1,4.86,5.07s-2.34,4.74-5.94,4.74a14.28,14.28,0,0,1-5.46-1.08l1.53-3.57a10.31,10.31,0,0,0,3.84.84c1,0,1.77-.48,1.77-1.14,0-.87-1.08-1.26-2.58-1.71C671.05,523.86,668.65,522.9,668.65,519.6Z"/><path class="d" d="M690.1,515.16c0-3.75,2.76-5.7,7.11-5.7a13.07,13.07,0,0,1,6.3,1.62l-2.13,3.57a8,8,0,0,0-4.17-1.11c-1.56,0-2.55.63-2.55,1.62,0,1.35,1.53,2.22,3.18,2.88,3.3,1.29,6.33,3.12,6.33,7,0,3.72-2.91,6-7.62,6a12.48,12.48,0,0,1-6.93-1.86l2.43-3.6a7.5,7.5,0,0,0,4.5,1.38c1.68,0,3.06-.87,3.06-2.13,0-1.59-1.5-2.34-3.6-3.15C693.31,520.65,690.1,518.82,690.1,515.16Z"/><path class="d" d="M711.07,524.73a3.52,3.52,0,0,0,3.6,2.52,8.52,8.52,0,0,0,3.57-.93l1.56,3.45a12.49,12.49,0,0,1-5.43,1.29c-4.44,0-7.8-2.79-7.8-7.95s2.79-8,7.23-8c4.17,0,6.57,2.58,6.57,6.3a14.57,14.57,0,0,1-.33,3.27Zm5.37-3.33a2.3,2.3,0,0,0-2.58-2.43A2.73,2.73,0,0,0,711,521.4Z"/><path class="d" d="M734.86,516.54a7.44,7.44,0,0,1,4.38-1.38c3.6,0,5.37,2.1,5.37,6.12v9.48h-4.32v-9.48c0-1.65-.69-2.31-1.77-2.31a3.33,3.33,0,0,0-2.22,1.17v10.62H732v-9.48c0-1.65-.66-2.31-1.65-2.31A3.16,3.16,0,0,0,728,520.5v10.26h-4.32v-15.3h3.42l.6,1h.12a5.72,5.72,0,0,1,3.57-1.32A4.47,4.47,0,0,1,734.86,516.54Z"/><path class="d" d="M747.16,519.27l.6-3.81h6v15.3h-4.32V519.27Zm4.44-10.71a2.41,2.41,0,0,1,2.46,2.43,2.46,2.46,0,0,1-4.92,0A2.41,2.41,0,0,1,751.6,508.56Z"/><path class="d" d="M758,530.76v-21h6.87c3.75,0,6.57,1.38,6.57,5a4.66,4.66,0,0,1-3.57,4.8v.12c2.64.63,4.32,2.31,4.32,5.22,0,4.29-3.21,5.82-7.32,5.82Zm4.14-12.66h2.52a2.14,2.14,0,1,0-.12-4.26h-2.4Zm2.52,3.72H762.1v4.86h2.55c1.89,0,2.94-1,2.94-2.43S766.54,521.82,764.62,521.82Z"/><path class="d" d="M774.85,523.11c0-5.16,2.91-8,7.35-8s7.35,2.79,7.35,8-2.91,7.95-7.35,7.95S774.85,528.27,774.85,523.11Zm4.38,0c0,2.79,1.17,4.14,3,4.14s3-1.35,3-4.14S784,519,782.2,519,779.23,520.32,779.23,523.11Z"/><path class="d" d="M797.32,526.53a.67.67,0,0,0,.69.72,2.62,2.62,0,0,0,1.17-.27l.87,3.48a8.1,8.1,0,0,1-2.85.6c-2.61,0-4.2-1.44-4.2-4.53V508.86l4.32-.6Z"/><path class="d" d="M811.18,529.74a5.25,5.25,0,0,1-3.57,1.32c-4.32,0-6.36-3.33-6.36-7.95s2.07-8,6.63-8a10.18,10.18,0,0,1,3.12.45v-6.75l4.32-.6v22.5H811.9l-.6-1Zm-5.55-6.63c0,2.67,1,4.14,2.88,4.14a3.83,3.83,0,0,0,2.49-1.11v-6.6a6.38,6.38,0,0,0-2.61-.57C806.74,519,805.63,520.44,805.63,523.11Z"/><path class="d" d="M565.39,555.69l7.8,11.07-3.72.3-6.93-9.78H561v9.48h-3.24v-21H561v8.76h1.65l6.24-8.76h3.69Z"/><path class="d" d="M587.32,559.83H577.6c.21,3,1.77,4.62,4.53,4.62a8.49,8.49,0,0,0,3.81-1.05l1,2.37a11.19,11.19,0,0,1-5.13,1.29c-4.5,0-7.44-2.94-7.44-7.95s2.76-8,6.9-8,6.3,2.4,6.3,6.15A12.89,12.89,0,0,1,587.32,559.83Zm-9.6-2.43h7.08c0-2.1-1.14-3.63-3.45-3.63C579.28,553.77,578,555.24,577.72,557.4Z"/><path class="d" d="M601,551.46l-.6,2.61h-5.82v12.69h-3.12v-15.3Z"/><path class="d" d="M601.75,563.88a1.9,1.9,0,0,0,1,.3c1.41,0,2.19-2.91,2.19-10.17v-2.55h10.23v15.3h-3.12V554.07h-4.14v.66c0,8.16-1.47,12.18-4.92,12.18a3.36,3.36,0,0,1-2-.54Z"/><path class="d" d="M626.11,557c3.3,0,5.46,1.8,5.46,4.89s-2.16,4.83-5.46,4.83H620v-15.3h3.12V557Zm-3,2.61v4.5h2.7c1.59,0,2.58-.84,2.58-2.25s-1-2.25-2.58-2.25Z"/><path class="d" d="M652,560a4.1,4.1,0,0,0-4.38-4.29,10.61,10.61,0,0,0-4.35.9V545.76h11.22l-.6,2.88h-7.47v4.5a10.25,10.25,0,0,1,1.86-.18c3.84,0,7,2.28,7,7s-3.3,7-7.11,7a10.53,10.53,0,0,1-6.09-1.77l1.53-2.52a7.25,7.25,0,0,0,4.35,1.41A3.84,3.84,0,0,0,652,560Z"/><path class="d" d="M663.52,563.88h8.55l-.6,2.88h-12.6v-2.58c4.11-3.09,9.33-8.55,9.33-12.57,0-2-1-3.27-3.12-3.27a8.17,8.17,0,0,0-4.41,1.41l-1.44-2.52a12,12,0,0,1,6.42-1.77c3.69,0,5.82,2.1,5.82,5.76,0,4.62-4.29,9.63-8,12.54Z"/><path class="d" d="M679.33,555.15a5.49,5.49,0,0,1,3.81-1.44c3.39,0,6,2.19,6,6.6s-2.94,6.75-6.84,6.75c-4.23,0-6.81-3.18-6.81-7.89,0-7.26,4.53-11.91,10.74-13.71l1.11,2.4c-3.45,1.23-7,3.42-8.13,7.23Zm3,9c2,0,3.57-1.38,3.57-3.87a3.37,3.37,0,0,0-3.57-3.72,4,4,0,0,0-3.63,2.58C678.7,562.17,680,564.18,682.33,564.18Z"/><path class="d" d="M712.9,566.76h-3.12V554.07H704v12.69h-3.12v-15.3h12Z"/><path class="d" d="M715.9,551.46h13l-.6,2.61h-4.41v12.69h-3.09V554.07H715.9Z"/><path class="d" d="M740.59,555.48a2,2,0,1,1-2,2A2,2,0,0,1,740.59,555.48Z"/><path class="d" d="M765.88,564h-3.15l-4.26-12.78h-.12l-1.44,15.54h-3.24l2-21h4l4.65,13.8h.09l4.65-13.8h4l2,21H771.7l-1.44-15.54h-.12Z"/><path class="d" d="M787,557.76v-1c0-1.83-.78-3-3-3a12.08,12.08,0,0,0-4.14.81l-.9-2.43a15,15,0,0,1,5.4-1c4.68,0,5.79,2.46,5.79,5.64v6.42a1,1,0,0,0,1.08,1.08h.33v2.31a5.51,5.51,0,0,1-1.8.3,2.37,2.37,0,0,1-2.43-1.77h-.12a5.59,5.59,0,0,1-4.32,1.77c-2.91,0-4.74-1.44-4.74-4.56,0-2.91,2.4-4.59,5.79-4.59Zm-3.21,2.43a2.28,2.28,0,0,0-2.58,2.22,2,2,0,0,0,2.25,2,4.45,4.45,0,0,0,3.54-1.89v-2.37Z"/><path class="d" d="M804.61,563.79l1,2.4a10.11,10.11,0,0,1-4.2.87c-5,0-7.47-3.54-7.47-7.95s2.37-8,7.32-8a11,11,0,0,1,4.2.81l-1,2.4a7.83,7.83,0,0,0-3.06-.6c-2.58,0-4.32,2.16-4.32,5.34s1.71,5.34,4.29,5.34A8.81,8.81,0,0,0,804.61,563.79Z"/><path class="d" d="M827.53,566.76H808.87v-15.3H812v12.69h4.68V551.46h3.09v12.69h4.65V551.46h3.12Z"/><path class="d" d="M830.53,551.46h13l-.6,2.61h-4.41v12.69h-3.09V554.07h-4.86Z"/><path class="d" d="M853.87,557.76v-1c0-1.83-.78-3-3-3a12.08,12.08,0,0,0-4.14.81l-.9-2.43a15,15,0,0,1,5.4-1c4.68,0,5.79,2.46,5.79,5.64v6.42a1,1,0,0,0,1.08,1.08h.33v2.31a5.51,5.51,0,0,1-1.8.3,2.37,2.37,0,0,1-2.43-1.77h-.12a5.59,5.59,0,0,1-4.32,1.77c-2.91,0-4.74-1.44-4.74-4.56,0-2.91,2.4-4.59,5.79-4.59Zm-3.21,2.43a2.28,2.28,0,0,0-2.58,2.22,2,2,0,0,0,2.25,2,4.45,4.45,0,0,0,3.54-1.89v-2.37Z"/><path class="d" d="M868.9,548.1c-3.33.24-4.95,1.41-4.95,5.79H864a6.3,6.3,0,0,1,4.86-2c3.75,0,6.33,2.49,6.33,7.59s-3,7.56-7.23,7.56c-5,0-7-3.69-7-9.81,0-9.66,2.7-11.43,7.65-11.88a15.49,15.49,0,0,0,5-1.11l.93,2.49A15.72,15.72,0,0,1,868.9,548.1Zm-.9,16.35c2.34,0,4-1.62,4-5s-1.56-5-3.69-5a5.06,5.06,0,0,0-4.29,2.61C864.07,562,865.3,564.45,868,564.45Z"/><path class="d" d="M896.5,548.64H886.18l.6-2.88h13.05v2.58l-7.32,18.42h-3.42Z"/><path class="d" d="M916.18,560.28c0,4.62-3.3,6.78-7.11,6.78a10.53,10.53,0,0,1-6.09-1.77l1.53-2.52a7.25,7.25,0,0,0,4.35,1.41c2.31,0,4-1.2,4-3.87s-1.8-3.9-4.17-3.9h-1.56v-1.62l4.5-6v-.12h-8l.6-2.88h11v2.58L911,554v.09C913.78,554.61,916.18,556.23,916.18,560.28Z"/><path class="d" d="M924.55,555.66c-2.85,0-4.77-1.86-4.77-5.1s1.92-5.1,4.77-5.1,4.77,1.86,4.77,5.1S927.4,555.66,924.55,555.66Zm12-9.9h2.64l-15.6,21h-2.7Zm-14.28,4.8c0,2,.78,3.12,2.28,3.12s2.28-1.11,2.28-3.12-.78-3.12-2.28-3.12S922.27,548.55,922.27,550.56Zm13.29,16.5c-2.85,0-4.77-1.86-4.77-5.1s1.92-5.1,4.77-5.1,4.77,1.86,4.77,5.1S938.41,567.06,935.56,567.06Zm-2.28-5.1c0,2,.78,3.12,2.28,3.12s2.28-1.11,2.28-3.12-.78-3.12-2.28-3.12S933.28,560,933.28,562Z"/><path class="c" d="M1221.82,19.76V326.94h82.58v61h-242v-61h93.63V80.77h-85.74l10.52-61Z"/><path class="c" d="M1546.89,19.76,1417,244.36v2.1h68.91V184.92h65.75v61.54h57.86L1599,307h-47.34v81h-65.75V307H1338.59V251.72l135.18-232Z"/><path class="c" d="M1750.94,99.17h44.54L1653,428.63h-44.54Z"/><path class="c" d="M1925.26,119.17V335.73h60.29V388H1805.07V335.73h64.51V171.39h-58.75l7.68-52.22Z"/></svg>