<?xml version="1.0" encoding="UTF-8"?><svg id="a" xmlns="http://www.w3.org/2000/svg" xmlns:xlink="http://www.w3.org/1999/xlink" viewBox="0 0 2211.02 1020.47"><defs><style>.h{fill:url(#d);}.h,.i,.j{stroke:#b3b2b2;stroke-miterlimit:10;stroke-width:2px;}.i{fill:url(#c);}.j{fill:url(#e);}.k{isolation:isolate;}.l{fill:#54647d;}.l,.m,.n{stroke-width:0px;}.m{fill:#222c54;}.n{fill:#fff;}</style><linearGradient id="c" x1="433.135" y1="874.61" x2="433.135" y2="24.22" gradientTransform="translate(0 1020) scale(1 -1)" gradientUnits="userSpaceOnUse"><stop offset="0" stop-color="#fff"/><stop offset=".18" stop-color="#f6f6f6"/><stop offset=".47" stop-color="#ededed"/><stop offset="1" stop-color="#ebebeb"/><stop offset="1" stop-color="#ddd"/></linearGradient><linearGradient id="d" x1="1169.855" y1="874.61" x2="1169.855" y2="24.22" gradientTransform="translate(0 1020) scale(1 -1)" gradientUnits="userSpaceOnUse"><stop offset="0" stop-color="#fff"/><stop offset=".18" stop-color="#f6f6f6"/><stop offset=".47" stop-color="#ededed"/><stop offset="1" stop-color="#ebebeb"/><stop offset="1" stop-color="#ddd"/></linearGradient><linearGradient id="e" x1="1906.865" y1="874.61" x2="1906.865" y2="24.22" gradientTransform="translate(0 1020) scale(1 -1)" gradientUnits="userSpaceOnUse"><stop offset="0" stop-color="#fff"/><stop offset=".18" stop-color="#f6f6f6"/><stop offset=".47" stop-color="#ededed"/><stop offset="1" stop-color="#ebebeb"/><stop offset="1" stop-color="#ddd"/></linearGradient></defs><g id="b"><rect class="n" x="149.67" y="145.39" width="566.93" height="850.39" rx="28.26" ry="28.26"/><rect class="n" x="886.39" y="145.39" width="566.93" height="850.39" rx="28.26" ry="28.26"/><rect class="n" x="1623.4" y="145.39" width="566.93" height="850.39" rx="28.26" ry="28.26"/><rect class="i" x="149.67" y="145.39" width="566.93" height="850.39" rx="28.26" ry="28.26"/><rect class="h" x="886.39" y="145.39" width="566.93" height="850.39" rx="28.26" ry="28.26"/><rect class="j" x="1623.4" y="145.39" width="566.93" height="850.39" rx="28.26" ry="28.26"/></g><g id="f"><g class="k"><path class="l" d="m85.84,703.83c0,7.04-1.84,11.28-4.72,15.84l-5.36-3.279c2.4-3.601,4-6.641,4-12.001,0-7.12-3.68-12-11.92-12-8.561,0-12,5.04-12,12.32v2.399h-2.801l-17.601-11.92h-.319v22.641l-6.08-1.6v-28.48h5.28l16.72,11.279h.32c1.04-7.68,6.24-13.76,16.48-13.76,12.32,0,18,8.4,18,18.561Z"/><path class="l" d="m85.84,656.87c0,12.32-9.84,19.2-28.801,19.2s-28.801-6.88-28.801-19.2,9.841-19.2,28.801-19.2,28.801,6.88,28.801,19.2Zm-6.08,0c0-7.36-6.72-12.081-22.721-12.081s-22.72,4.721-22.72,12.081,6.72,12.08,22.72,12.08,22.721-4.72,22.721-12.08Z"/><path class="l" d="m85.84,612.07c0,12.32-9.84,19.2-28.801,19.2s-28.801-6.88-28.801-19.2,9.841-19.201,28.801-19.201,28.801,6.881,28.801,19.201Zm-6.08,0c0-7.36-6.72-12.08-22.721-12.08s-22.72,4.72-22.72,12.08,6.72,12.08,22.72,12.08,22.721-4.721,22.721-12.08Z"/><path class="l" d="m44.239,531.35v-8.56l40.801-3.92v6.64l-32.881,2.641v.32l26.24,9.439v7.44l-26.24,9.521v.32l32.881,2.64v6.64l-40.801-3.92v-8.561l28.24-10.24v-.24l-28.24-10.16Z"/><path class="l" d="m44.239,476.951v-8.56l40.801-3.92v6.64l-32.881,2.64v.32l26.24,9.44v7.44l-26.24,9.52v.32l32.881,2.64v6.641l-40.801-3.921v-8.56l28.24-10.24v-.24l-28.24-10.16Z"/></g><g class="k"><path class="l" d="m325.41,34.319c-4.16,0-8.08,1.6-12.24,4l-2.96-5.36c6.24-3.28,10.16-4.721,16.72-4.721,9.84,0,15.121,5.601,15.121,15.36,0,13.44-13.2,27.361-22.801,35.041v.32h24.401l-1.6,6.08h-32.801v-5.28c11.28-8.8,25.681-23.12,25.681-35.521,0-6.32-2.72-9.92-9.521-9.92Z"/><path class="l" d="m371.25,85.84c-12.32,0-19.2-9.84-19.2-28.801s6.88-28.801,19.2-28.801,19.201,9.841,19.201,28.801-6.88,28.801-19.201,28.801Zm0-6.08c7.36,0,12.081-6.72,12.081-22.721s-4.72-22.72-12.081-22.72-12.08,6.72-12.08,22.72,4.72,22.721,12.08,22.721Z"/><path class="l" d="m416.05,85.84c-12.32,0-19.2-9.84-19.2-28.801s6.88-28.801,19.2-28.801,19.201,9.841,19.201,28.801-6.88,28.801-19.201,28.801Zm0-6.08c7.36,0,12.081-6.72,12.081-22.721s-4.72-22.72-12.081-22.72-12.08,6.72-12.08,22.72,4.72,22.721,12.08,22.721Z"/><path class="l" d="m496.77,44.239h8.56l3.92,40.801h-6.64l-2.64-32.881h-.32l-9.44,26.24h-7.44l-9.52-26.24h-.32l-2.64,32.881h-6.64l3.92-40.801h8.56l10.24,28.24h.24l10.16-28.24Z"/><path class="l" d="m551.169,44.239h8.56l3.92,40.801h-6.64l-2.64-32.881h-.32l-9.44,26.24h-7.44l-9.52-26.24h-.32l-2.64,32.881h-6.64l3.92-40.801h8.56l10.24,28.24h.24l10.16-28.24Z"/></g></g><g id="g"><g class="k"><path class="m" d="m364.128,228.889v307.186h82.582v61.016h-241.96v-61.016h93.628v-246.169h-85.738l10.52-61.017h140.968Z"/></g><g class="k"><path class="m" d="m240.432,834.086v65.996h17.742v13.108h-51.983v-13.108h20.115v-52.888h-18.42l2.26-13.108h30.286Z"/><path class="m" d="m274.556,886.973v-12.544h53.339l-2.26,12.544h-51.079Z"/><path class="m" d="m395.128,888.781c0,17.402-12.996,25.539-27.348,25.539-9.945,0-17.064-2.599-23.505-6.667l7.006-11.414c4.52,2.938,9.267,4.973,15.708,4.973,7.458,0,13.561-3.843,13.561-12.318,0-8.927-6.328-12.431-14.013-12.431h-6.441v-8.249l15.821-20.567v-.452h-29.042l2.26-13.108h42.491v11.979l-15.256,19.776v.339c9.832,1.808,18.759,8.249,18.759,22.602Z"/><path class="m" d="m432.642,846.064c-5.65,0-10.962,1.921-15.934,4.973l-6.667-11.414c9.041-4.859,15.482-6.667,24.749-6.667,13.9,0,22.488,7.91,22.488,21.697,0,17.402-15.03,34.015-28.816,44.977v.452h31.077l-2.26,13.108h-48.593v-11.979c15.482-11.64,34.015-29.947,34.015-45.09,0-6.215-3.503-10.058-10.058-10.058Z"/></g><g class="k"><path class="m" d="m215.993,778.643h-2.75v16.718h-7.039v-38.495h7.039v15.398h2.86l9.954-15.398h7.864l-12.043,18.203,13.198,20.292-7.919.55-11.164-17.268Z"/><path class="m" d="m244.429,795.36v-38.495h12.043c6.874,0,12.043,2.53,12.043,9.239,0,5.059-3.025,7.863-6.544,8.799v.22c4.84,1.155,7.919,4.234,7.919,9.568,0,7.864-5.884,10.669-13.418,10.669h-12.043Zm11.659-32.115h-4.62v9.293h4.62c3.354,0,5.169-1.869,5.169-4.674s-1.814-4.619-5.169-4.619Zm.055,15.343h-4.674v10.394h4.674c4.069,0,6.489-2.035,6.489-5.06,0-3.52-2.42-5.334-6.489-5.334Z"/><path class="m" d="m299.481,786.946h-12.208l-2.53,8.414h-7.424l12.869-38.495h6.434l12.868,38.495h-7.424l-2.585-8.414Zm-10.338-6.214h8.469l-4.125-13.968h-.22l-4.125,13.968Z"/><path class="m" d="m326.432,781.832v13.528h-7.039v-38.495h12.593c7.314,0,12.813,4.234,12.813,12.483s-5.5,12.483-12.813,12.483h-5.554Zm0-18.587v12.208h5.444c3.354,0,5.609-2.255,5.609-6.104s-2.255-6.104-5.609-6.104h-5.444Z"/><path class="m" d="m369.661,763.245v32.115h-7.094v-32.115h-11.164v-6.38h29.421l-1.1,6.38h-10.063Z"/><path class="m" d="m413.934,769.844h-.165l-17.158,25.517h-5.884v-38.495h7.039v25.572h.165l17.158-25.572h5.884v38.495h-7.039v-25.517Z"/><path class="m" d="m441.765,781.832v13.528h-7.039v-38.495h12.593c7.314,0,12.813,4.234,12.813,12.483s-5.5,12.483-12.813,12.483h-5.554Zm0-18.587v12.208h5.444c3.354,0,5.609-2.255,5.609-6.104s-2.255-6.104-5.609-6.104h-5.444Z"/><path class="m" d="m478.449,756.865v14.958h3.74c7.974,0,13.308,3.904,13.308,11.769s-5.279,11.769-13.308,11.769h-10.779v-38.495h7.039Zm0,21.337v10.779h3.41c4.454,0,6.379-2.31,6.379-5.39,0-3.244-1.87-5.39-6.434-5.39h-3.354Zm28.156-21.337v38.495h-7.039v-38.495h7.039Z"/></g><g class="k"><path class="m" d="m1172.511,483.474c0,81.004-60.49,118.876-127.292,118.876-46.288,0-79.426-12.098-109.408-31.034l32.612-53.126c21.04,13.676,43.132,23.145,73.114,23.145,34.716,0,63.12-17.885,63.12-57.334,0-41.555-29.456-57.86-65.225-57.86h-29.982v-38.398l73.64-95.731v-2.104h-135.182l10.52-61.017h197.776v55.757l-71.01,92.05v1.578c45.762,8.416,87.316,38.398,87.316,105.2Z"/></g><g class="k"><path class="m" d="m953.203,778.522h-2.75v16.718h-7.039v-38.495h7.039v15.398h2.86l9.953-15.398h7.864l-12.044,18.203,13.198,20.292-7.919.55-11.163-17.268Z"/><path class="m" d="m981.639,795.24v-38.495h12.044c6.874,0,12.043,2.53,12.043,9.239,0,5.059-3.024,7.863-6.544,8.799v.22c4.84,1.155,7.919,4.234,7.919,9.568,0,7.864-5.884,10.669-13.418,10.669h-12.044Zm11.659-32.115h-4.62v9.293h4.62c3.354,0,5.169-1.869,5.169-4.674s-1.814-4.619-5.169-4.619Zm.055,15.343h-4.675v10.394h4.675c4.069,0,6.489-2.035,6.489-5.06,0-3.52-2.42-5.334-6.489-5.334Z"/><path class="m" d="m1036.691,786.826h-12.208l-2.53,8.414h-7.424l12.868-38.495h6.435l12.868,38.495h-7.424l-2.585-8.414Zm-10.339-6.214h8.469l-4.124-13.968h-.22l-4.125,13.968Z"/><path class="m" d="m1063.643,781.712v13.528h-7.039v-38.495h12.593c7.314,0,12.813,4.234,12.813,12.483s-5.499,12.483-12.813,12.483h-5.554Zm0-18.587v12.208h5.444c3.354,0,5.609-2.255,5.609-6.104s-2.255-6.104-5.609-6.104h-5.444Z"/><path class="m" d="m1106.871,763.125v32.115h-7.095v-32.115h-11.163v-6.38h29.421l-1.1,6.38h-10.063Z"/><path class="m" d="m1151.144,769.724h-.165l-17.157,25.517h-5.885v-38.495h7.039v25.572h.165l17.158-25.572h5.884v38.495h-7.039v-25.517Z"/><path class="m" d="m1178.976,781.712v13.528h-7.039v-38.495h12.593c7.314,0,12.813,4.234,12.813,12.483s-5.499,12.483-12.813,12.483h-5.554Zm0-18.587v12.208h5.444c3.354,0,5.609-2.255,5.609-6.104s-2.255-6.104-5.609-6.104h-5.444Z"/><path class="m" d="m1215.659,756.745v14.958h3.74c7.974,0,13.308,3.904,13.308,11.769s-5.279,11.769-13.308,11.769h-10.779v-38.495h7.039Zm0,21.337v10.779h3.41c4.454,0,6.379-2.31,6.379-5.39,0-3.244-1.87-5.39-6.435-5.39h-3.354Zm28.156-21.337v38.495h-7.039v-38.495h7.039Z"/></g><g class="k"><path class="m" d="m977.472,834.086v65.996h17.742v13.108h-51.983v-13.108h20.115v-52.888h-18.42l2.26-13.108h30.286Z"/><path class="m" d="m1055.668,888.781c0,17.402-12.996,25.539-27.348,25.539-9.945,0-17.064-2.599-23.505-6.667l7.006-11.414c4.52,2.938,9.267,4.973,15.708,4.973,7.458,0,13.561-3.843,13.561-12.318,0-8.927-6.328-12.431-14.013-12.431h-6.441v-8.249l15.821-20.567v-.452h-29.042l2.26-13.108h42.49v11.979l-15.256,19.776v.339c9.832,1.808,18.759,8.249,18.759,22.602Z"/><path class="m" d="m1105.613,847.194h-37.518l2.26-13.108h50.288v11.979l-28.138,67.126h-15.143l28.251-65.996Z"/><path class="m" d="m1132.506,886.973v-12.544h53.339l-2.26,12.544h-51.079Z"/><path class="m" d="m1227.312,846.064c-5.65,0-10.962,1.921-15.934,4.973l-6.668-11.414c9.041-4.859,15.482-6.667,24.749-6.667,13.899,0,22.488,7.91,22.488,21.697,0,17.402-15.03,34.015-28.816,44.977v.452h31.076l-2.26,13.108h-48.593v-11.979c15.481-11.64,34.015-29.947,34.015-45.09,0-6.215-3.503-10.058-10.058-10.058Z"/><path class="m" d="m1292.062,914.32c-17.403,0-28.252-13.899-28.252-40.683s10.849-40.682,28.252-40.682,28.252,13.899,28.252,40.682-10.849,40.683-28.252,40.683Zm0-13.108c7.798,0,13.674-8.137,13.674-27.574s-5.876-27.573-13.674-27.573-13.674,8.137-13.674,27.573,5.876,27.574,13.674,27.574Z"/><path class="m" d="m1364.382,879.74c-3.391,2.261-7.798,3.504-12.317,3.504-13.448,0-23.279-8.928-23.279-24.862,0-15.481,11.526-25.426,26.33-25.426,15.934,0,26.218,11.413,26.218,29.042,0,28.591-17.517,45.542-40.908,52.322l-4.859-10.396c12.317-4.746,24.635-11.865,29.155-23.957l-.339-.227Zm2.712-17.742c0-9.605-4.746-15.934-11.979-15.934-6.441,0-12.317,3.843-12.317,12.317s5.876,12.318,12.317,12.318c4.746,0,9.944-3.729,11.979-8.702Z"/></g><g class="k"><path class="m" d="m1813.16,228.748v256.962h69.081v51.04h-202.401v-51.04h78.32v-205.921h-71.721l8.801-51.041h117.92Z"/><path class="m" d="m2059.56,228.748v256.962h69.081v51.04h-202.402v-51.04h78.321v-205.921h-71.721l8.8-51.041h117.921Z"/></g><g class="k"><path class="m" d="m1690.213,778.522h-2.75v16.718h-7.039v-38.495h7.039v15.398h2.86l9.954-15.398h7.863l-12.043,18.203,13.197,20.292-7.918.55-11.164-17.268Z"/><path class="m" d="m1718.648,795.24v-38.495h12.044c6.874,0,12.044,2.53,12.044,9.239,0,5.059-3.025,7.863-6.545,8.799v.22c4.84,1.155,7.919,4.234,7.919,9.568,0,7.864-5.884,10.669-13.418,10.669h-12.044Zm11.659-32.115h-4.62v9.293h4.62c3.354,0,5.169-1.869,5.169-4.674s-1.814-4.619-5.169-4.619Zm.055,15.343h-4.675v10.394h4.675c4.069,0,6.489-2.035,6.489-5.06,0-3.52-2.42-5.334-6.489-5.334Z"/><path class="m" d="m1773.701,786.826h-12.208l-2.53,8.414h-7.424l12.869-38.495h6.434l12.868,38.495h-7.424l-2.585-8.414Zm-10.338-6.214h8.469l-4.125-13.968h-.22l-4.124,13.968Z"/><path class="m" d="m1800.652,781.712v13.528h-7.039v-38.495h12.594c7.313,0,12.812,4.234,12.812,12.483s-5.499,12.483-12.812,12.483h-5.555Zm0-18.587v12.208h5.444c3.354,0,5.609-2.255,5.609-6.104s-2.255-6.104-5.609-6.104h-5.444Z"/><path class="m" d="m1843.881,763.125v32.115h-7.094v-32.115h-11.164v-6.38h29.422l-1.101,6.38h-10.063Z"/><path class="m" d="m1888.154,769.724h-.166l-17.157,25.517h-5.884v-38.495h7.039v25.572h.164l17.158-25.572h5.885v38.495h-7.039v-25.517Z"/><path class="m" d="m1915.985,781.712v13.528h-7.039v-38.495h12.593c7.314,0,12.814,4.234,12.814,12.483s-5.5,12.483-12.814,12.483h-5.554Zm0-18.587v12.208h5.444c3.354,0,5.609-2.255,5.609-6.104s-2.255-6.104-5.609-6.104h-5.444Z"/><path class="m" d="m1952.67,756.745v14.958h3.739c7.974,0,13.308,3.904,13.308,11.769s-5.279,11.769-13.308,11.769h-10.778v-38.495h7.039Zm0,21.337v10.779h3.409c4.454,0,6.379-2.31,6.379-5.39,0-3.244-1.87-5.39-6.435-5.39h-3.354Zm28.156-21.337v38.495h-7.039v-38.495h7.039Z"/></g><g class="k"><path class="m" d="m1716.063,847.194h-37.519l2.26-13.108h50.289v11.979l-28.139,67.126h-15.143l28.251-65.996Z"/><path class="m" d="m1790.87,834.086l-2.261,13.108h-27.008v14.691c1.808-.339,3.842-.679,5.65-.679,14.465,0,26.557,8.589,26.557,26.557,0,17.403-12.996,26.557-27.348,26.557-9.945,0-17.064-2.599-23.506-6.667l7.006-11.414c4.521,2.938,9.268,4.973,15.709,4.973,7.119,0,13.561-4.407,13.561-13.448,0-9.153-7.007-13.899-14.805-13.899-9.152,0-16.95,3.277-16.95,3.277v-43.056h43.395Z"/><path class="m" d="m1831.661,914.32c-17.403,0-28.251-13.899-28.251-40.683s10.848-40.682,28.251-40.682,28.252,13.899,28.252,40.682-10.849,40.683-28.252,40.683Zm0-13.108c7.798,0,13.674-8.137,13.674-27.574s-5.876-27.573-13.674-27.573-13.673,8.137-13.673,27.573,5.875,27.574,13.673,27.574Z"/><path class="m" d="m1875.165,886.973v-12.544h53.339l-2.26,12.544h-51.079Z"/><path class="m" d="m1980.481,879.74c-3.391,2.261-7.798,3.504-12.317,3.504-13.448,0-23.279-8.928-23.279-24.862,0-15.481,11.525-25.426,26.33-25.426,15.934,0,26.217,11.413,26.217,29.042,0,28.591-17.516,45.542-40.908,52.322l-4.859-10.396c12.318-4.746,24.636-11.865,29.156-23.957l-.339-.227Zm2.712-17.742c0-9.605-4.746-15.934-11.979-15.934-6.441,0-12.318,3.843-12.318,12.317s5.877,12.318,12.318,12.318c4.746,0,9.944-3.729,11.979-8.702Z"/><path class="m" d="m2043.761,879.74c-3.391,2.261-7.798,3.504-12.317,3.504-13.448,0-23.279-8.928-23.279-24.862,0-15.481,11.525-25.426,26.33-25.426,15.934,0,26.217,11.413,26.217,29.042,0,28.591-17.516,45.542-40.908,52.322l-4.859-10.396c12.318-4.746,24.636-11.865,29.156-23.957l-.339-.227Zm2.712-17.742c0-9.605-4.746-15.934-11.979-15.934-6.441,0-12.318,3.843-12.318,12.317s5.877,12.318,12.318,12.318c4.746,0,9.944-3.729,11.979-8.702Z"/><path class="m" d="m2107.04,879.74c-3.39,2.261-7.798,3.504-12.317,3.504-13.447,0-23.279-8.928-23.279-24.862,0-15.481,11.526-25.426,26.33-25.426,15.934,0,26.218,11.413,26.218,29.042,0,28.591-17.517,45.542-40.908,52.322l-4.859-10.396c12.317-4.746,24.636-11.865,29.155-23.957l-.339-.227Zm2.712-17.742c0-9.605-4.746-15.934-11.979-15.934-6.441,0-12.317,3.843-12.317,12.317s5.876,12.318,12.317,12.318c4.746,0,9.945-3.729,11.979-8.702Z"/></g></g></svg>