<svg xmlns="http://www.w3.org/2000/svg" viewBox="0 0 200 200"><defs><style>.a{fill:#aa82c8;}.b{fill:#fff;}</style></defs><circle class="a" cx="100" cy="100" r="100"/><path class="b" d="M147,161.52H40.55V147.07H147Zm12.5-52.32a27.58,27.58,0,0,1-27.73,27.72H71A20.25,20.25,0,0,1,50.7,116.81V81.28H91.11c0-23.43,20.31-25,20.31-40.42h14.45c0,23.43-20.31,25.19-20.31,40.42h26.16A27.75,27.75,0,0,1,159.45,109.2ZM87,25.05h14.26c0,23.43-20.11,25.77-20.11,41.2H66.71C66.71,42.82,87,40.47,87,25.05ZM145.2,109.2a13.5,13.5,0,0,0-13.48-13.47h-5.07v26.94h5.07A13.5,13.5,0,0,0,145.2,109.2Z"/></svg>