<svg xmlns="http://www.w3.org/2000/svg" xmlns:xlink="http://www.w3.org/1999/xlink" viewBox="0 0 3126.24 1244.44"><defs><style>.a,.g{fill:#fff;}.a,.b{fill-rule:evenodd;}.b{stroke:#b3b2b2;fill:url(#a);}.b,.i{stroke-miterlimit:10;}.c{fill:url(#b);}.d{fill:url(#c);}.e{opacity:0.1;}.f{fill:#222c54;}.h{fill:url(#d);}.i{stroke:#e0e0e0;stroke-width:2px;opacity:0.5;fill:url(#e);}</style><linearGradient id="a" x1="-4.43" y1="455.09" x2="255.69" y2="455.09" gradientUnits="userSpaceOnUse"><stop offset="0" stop-color="#fff"/><stop offset="1" stop-color="#ebebeb"/><stop offset="1" stop-color="#ddd"/></linearGradient><linearGradient id="b" x1="935.31" y1="-0.48" x2="935.31" y2="906.6" gradientUnits="userSpaceOnUse"><stop offset="0" stop-color="#222c54"/><stop offset="0.76" stop-color="#1e2649"/><stop offset="1" stop-color="#1c2344"/></linearGradient><linearGradient id="c" x1="2532.2" y1="0" x2="2532.2" y2="907.09" xlink:href="#b"/><linearGradient id="d" x1="2532.2" y1="1113.77" x2="2532.2" y2="1244.44" gradientUnits="userSpaceOnUse"><stop offset="0" stop-color="#fff" stop-opacity="0"/><stop offset="0.16" stop-color="#fff" stop-opacity="0.2"/><stop offset="0.36" stop-color="#fff" stop-opacity="0.41"/><stop offset="0.53" stop-color="#fff" stop-opacity="0.57"/><stop offset="0.67" stop-color="#fff" stop-opacity="0.66"/><stop offset="0.75" stop-color="#fff" stop-opacity="0.7"/></linearGradient><linearGradient id="e" x1="2532.62" y1="1249.77" x2="2532.62" y2="992.13" gradientUnits="userSpaceOnUse"><stop offset="0" stop-color="#fff"/><stop offset="1" stop-color="#d9d9d9"/></linearGradient></defs><path class="a" d="M-4.43,908.63H194.62a61.07,61.07,0,0,0,61.07-61.07V62.62A61.07,61.07,0,0,0,194.62,1.55h-199Z"/><path class="b" d="M-4.43,908.63H194.62a61.07,61.07,0,0,0,61.07-61.07V62.62A61.07,61.07,0,0,0,194.62,1.55h-199Z"/><rect class="c" x="340.04" y="-0.48" width="1190.55" height="907.09" rx="60.5"/><rect class="d" x="1936.92" width="1190.55" height="907.09" rx="70.87"/><g class="e"><path class="f" d="M2101.94,1104.82h22l-33.54,89.1c-5.34,14.09-13.61,25.92-29.16,25.92a29.05,29.05,0,0,1-18.14-5.67l9.88-16c2.59,1.94,4.54,2.91,7.45,2.91,3.24,0,7-3.07,10.21-11l2.27-5.67h-6.48l-35-79.54h23.66l24.94,58.48h.49Z"/><path class="f" d="M2151.35,1104.82h66.59v113.4H2197.2v-94.61h-25.92c0,58.64-7.78,95.42-33.21,95.42a29.64,29.64,0,0,1-11.66-2.27l3.88-17.82a15.78,15.78,0,0,0,5.19,1c10.85,0,15.87-22.36,15.87-90.72Z"/><path class="f" d="M2254.55,1196.83a11.51,11.51,0,1,1-11.51,11.5A11.55,11.55,0,0,1,2254.55,1196.83Z"/><path class="f" d="M2366.73,1218.22V1173a67.36,67.36,0,0,1-19.93,3.56c-24,0-35.8-10.53-35.8-34v-37.74h20.74v37.74c0,11.34,6.8,15.23,16.68,15.23a52.68,52.68,0,0,0,18.31-3.56v-49.41h20.74v113.4Z"/><path class="f" d="M2473,1193.43h-36l-7.46,24.79h-21.87l37.91-113.4h19l37.9,113.4h-21.87Zm-30.46-18.31h24.95L2455.34,1134h-.65Z"/><path class="f" d="M2522.73,1218.22v-113.4h83.43v113.4h-20.73v-94.61h-42v94.61Z"/><path class="f" d="M2691.7,1193.43h-36l-7.45,24.79h-21.87l37.91-113.4h18.95l37.91,113.4h-21.87Zm-30.46-18.31h25L2674,1134h-.65Z"/><path class="f" d="M2741.43,1218.22v-113.4h65.77l-3.24,18.79h-41.79v26.57h36.93V1169h-36.93v30.45h45v18.8Z"/><path class="f" d="M2835.55,1218.22v-113.4H2871c20.25,0,35.48,7.45,35.48,27.21,0,14.91-8.91,23.17-19.28,25.92v.65c14.26,3.4,23.33,12.47,23.33,28.19,0,23.16-17.33,31.43-39.53,31.43Zm34.35-94.61h-13.61V1151h13.61c9.88,0,15.23-5.51,15.23-13.77S2879.78,1123.61,2869.9,1123.61Zm.16,45.2h-13.77v30.61h13.77c12,0,19.12-6,19.12-14.9C2889.18,1174.15,2882.05,1168.81,2870.06,1168.81Z"/><path class="f" d="M2991.23,1193.43h-36l-7.45,24.79H2926l37.91-113.4h18.95l37.91,113.4h-21.87Zm-30.45-18.31h24.95L2973.58,1134h-.65Z"/></g><path class="g" d="M2275.94,226.37V581.44h95.46V652H2091.72V581.44h108.22V296.9h-99.1L2113,226.37Z"/><path class="g" d="M2696.68,520.64c0,93.63-69.92,137.41-147.14,137.41-53.5,0-91.81-14-126.46-35.87l37.69-61.41c24.32,15.81,49.86,26.75,84.52,26.75,40.12,0,73-20.67,73-66.27,0-48-34.05-66.88-75.4-66.88H2508.2V410l85.12-110.65V296.9H2437.06l12.16-70.53h228.61v64.45l-82.08,106.4V399C2648.65,408.77,2696.68,443.42,2696.68,520.64Z"/><path class="g" d="M2917.73,588.5h-90.1L2809.43,652h-68.79l99.42-310.69h65.24L3004.72,652h-68.79Zm-44.39-161.56h-1.77L2844.5,529.47h56.36Z"/><path class="g" d="M620.69,289.82c-30.4,0-59,10.33-85.73,26.75l-35.87-61.41c48.64-26.14,83.3-35.87,133.15-35.87,74.79,0,121,42.56,121,116.73,0,93.64-80.87,183-155,242v2.43H765.4L753.24,651H491.8V586.52c83.29-62.62,183-161.12,183-242.59C674.8,310.49,656,289.82,620.69,289.82Z"/><path class="g" d="M1099.8,519.64c0,93.63-69.92,137.41-147.14,137.41-53.51,0-91.81-14-126.47-35.87l37.7-61.41c24.32,15.81,49.86,26.75,84.51,26.75,40.13,0,73-20.67,73-66.27,0-48-34.05-66.88-75.39-66.88H911.31V409l85.12-110.65V295.9H840.18l12.16-70.53H1081v64.45l-82.08,106.4V398C1051.76,407.77,1099.8,442.42,1099.8,519.64Z"/><path class="g" d="M1320.85,587.5h-90.1L1212.55,651h-68.8l99.42-310.69h65.25L1407.84,651H1339Zm-44.39-161.56h-1.77l-27.08,102.53H1304Z"/><rect class="h" x="1936.92" y="1113.77" width="1190.55" height="130.67"/><path class="i" d="M1979.29,992.13H3086a41.52,41.52,0,0,1,41.52,41.52v216.13a0,0,0,0,1,0,0H1937.78a0,0,0,0,1,0,0V1033.64A41.52,41.52,0,0,1,1979.29,992.13Z"/></svg>