<?xml version="1.0" encoding="UTF-8"?><svg xmlns="http://www.w3.org/2000/svg" xmlns:xlink="http://www.w3.org/1999/xlink" viewBox="0 0 735.633 972.885"><defs><style>.cx,.cy{stroke-linecap:round;}.cx,.cy,.cz,.da,.db,.dc{fill:none;}.cx,.cy,.cz,.db,.dc{stroke:#a9b1bc;stroke-linejoin:round;}.cy,.db{stroke-width:3px;}.da,.dd,.de,.df,.dg{stroke-width:0px;}.dh{filter:url(#ct);}.di{filter:url(#cp);}.dj{filter:url(#cr);}.dk{clip-path:url(#b);}.dl{clip-path:url(#c);}.dc{stroke-width:2px;}.dd{fill:#53ba58;}.de{fill:#5874b8;}.df{fill:#de7f44;}.dg{fill:#fff;}</style><clipPath id="b"><path class="da" d="m1598.141,972.885h-761.715V449.991c253.905-144.511,507.81-289.021,761.715-433.532v956.426Z"/></clipPath><clipPath id="c"><path class="da" d="m761.715,972.885H0V449.991C253.905,305.481,507.81,160.97,761.715,16.459v956.426Z"/></clipPath><filter id="cp" filterUnits="userSpaceOnUse"><feOffset dx="-.283" dy="-.283"/><feGaussianBlur result="cq" stdDeviation="2.835"/><feFlood flood-color="#231300" flood-opacity=".2"/><feComposite in2="cq" operator="in"/><feComposite in="SourceGraphic"/></filter><filter id="cr" filterUnits="userSpaceOnUse"><feOffset dx="-.283" dy="-.283"/><feGaussianBlur result="cs" stdDeviation="2.835"/><feFlood flood-color="#231300" flood-opacity=".2"/><feComposite in2="cs" operator="in"/><feComposite in="SourceGraphic"/></filter><filter id="ct" filterUnits="userSpaceOnUse"><feOffset dx="-.283" dy="-.283"/><feGaussianBlur result="cu" stdDeviation="2.835"/><feFlood flood-color="#231300" flood-opacity=".2"/><feComposite in2="cu" operator="in"/><feComposite in="SourceGraphic"/></filter></defs><g id="a"><g class="dk"><line class="cy" x1="619.102" y1="782.61" x2="874.202" y2="929.892"/><line class="cy" x1="619.102" y1="545.434" x2="874.202" y2="692.716"/><line class="cy" x1="619.102" y1="316.255" x2="874.202" y2="463.537"/><line class="cy" x1="678.135" y1="282.172" x2="933.235" y2="429.454"/></g><g class="dl"><path id="d" class="db" d="m1299.636-1644.596v23.297l-14.577,8.416V-256.582l59.032-34.082V175.691S37.777,929.892,37.777,929.892v-466.355s59.033-34.083,59.033-34.083V-926.847s-14.577,8.416-14.577,8.416v-23.297s1217.404-702.869,1217.404-702.869Z"/><g id="e"><polygon id="f" class="cz" points="96.811 429.451 96.811 -926.85 1285.058 -1612.884 1285.058 -256.583 96.811 429.451"/></g><g id="g"><polygon id="h" class="cz" points="365.243 274.476 365.243 -951.273 382.219 -961.073 382.219 264.675 365.243 274.476"/></g><g id="i"><polygon id="j" class="cz" points="471.24 213.278 471.24 -1012.47 488.215 -1022.27 488.215 203.478 471.24 213.278"/></g><g id="k"><polygon id="l" class="cz" points="577.239 152.08 577.239 -1073.668 594.214 -1083.469 594.214 142.279 577.239 152.08"/></g><g id="m"><polygon id="n" class="cz" points="683.238 90.881 683.238 -1134.867 700.214 -1144.668 700.214 81.08 683.238 90.881"/></g><g id="o"><path id="p" class="cz" d="m360.864-43.994L280.594,2.35v-171.857s80.27-46.344,80.27-46.344V-43.994Zm4.376-179.433l-89.022,51.397V9.933l89.022-51.397v-181.963Z"/></g><g id="q"><path id="r" class="cz" d="m360.864-43.994L280.594,2.35v-171.857s80.27-46.344,80.27-46.344V-43.994Zm4.376-179.433l-89.022,51.397V9.933l89.022-51.397v-181.963Z"/></g><g id="s"><path id="t" class="cz" d="m360.864,137.968l-80.27,46.344V12.455l80.27-46.344v171.857Zm4.376-179.436l-89.022,51.397v181.963l89.022-51.397V-41.467Z"/></g><g id="u"><path id="v" class="cz" d="m360.864,137.968l-80.27,46.344V12.455l80.27-46.344v171.857Zm4.376-179.436l-89.022,51.397v181.963l89.022-51.397V-41.467Z"/></g><g id="w"><polygon id="x" class="dc" points="37.776 692.717 37.776 463.535 276.219 325.869 276.219 555.052 37.776 692.717"/></g><g id="y"><polygon id="z" class="dc" points="37.779 692.716 37.779 463.533 1344.093 -290.668 1344.093 -61.485 37.779 692.716"/></g><g id="aa"><polygon id="ab" class="cz" points="37.779 479.231 37.779 463.534 1344.093 -290.667 1344.093 -274.97 37.779 479.231"/></g><line class="cx" x1="320.729" y1="-15.768" x2="320.729" y2="166.195"/><line class="cx" x1="276.219" y1="70.584" x2="365.24" y2="19.187"/><g id="ac"><polygon id="ad" class="cz" points="37.776 636.016 37.776 520.24 276.219 382.575 276.219 498.35 37.776 636.016"/></g><line class="cx" x1="276.219" y1="131.237" x2="365.24" y2="79.841"/><g id="ae"><path id="af" class="cz" d="m466.864,76.77l-80.27,46.344V-48.744l80.27-46.344V76.77Zm4.376-179.436l-89.022,51.397v181.963l89.022-51.397V-102.666Z"/></g><g id="ag"><path id="ah" class="cz" d="m466.864,76.77l-80.27,46.344V-48.744l80.27-46.344V76.77Zm4.376-179.436l-89.022,51.397v181.963l89.022-51.397V-102.666Z"/></g><line class="cx" x1="426.728" y1="-76.966" x2="426.728" y2="104.996"/><g id="ai"><path id="aj" class="cz" d="m360.864,271.948l-80.27,46.344v-123.873s80.27-46.344,80.27-46.344v123.873Zm4.376-131.453l-89.022,51.397v133.978l89.022-51.397v-133.978Z"/></g><line class="cx" x1="382.217" y1="9.385" x2="471.238" y2="-42.011"/><line class="cx" x1="320.729" y1="300.173" x2="320.729" y2="166.195"/><line class="cx" x1="276.219" y1="252.545" x2="365.24" y2="201.149"/><line class="cx" x1="382.217" y1="70.039" x2="471.238" y2="18.643"/><g id="ak"><path id="al" class="cz" d="m572.864,15.571l-80.27,46.344V-109.943l80.27-46.344V15.571Zm4.376-179.436l-89.022,51.397V69.494l89.022-51.397v-181.963Z"/></g><g id="am"><path id="an" class="cz" d="m572.864,15.571l-80.27,46.344V-109.943l80.27-46.344V15.571Zm4.376-179.436l-89.022,51.397V69.494l89.022-51.397v-181.963Z"/></g><g id="ao"><polygon id="ap" class="dc" points="37.779 921.898 37.779 692.716 62.645 678.359 62.645 907.542 37.779 921.898"/></g><line class="cx" x1="532.727" y1="-138.165" x2="532.727" y2="43.798"/><g id="aq"><path id="ar" class="cz" d="m466.864,210.749l-80.27,46.344v-123.873s80.27-46.344,80.27-46.344v123.873Zm4.376-131.453l-89.022,51.397v133.978l89.022-51.397V79.296Z"/></g><line class="cx" x1="426.728" y1="238.975" x2="426.728" y2="104.996"/><line class="cx" x1="382.217" y1="191.347" x2="471.238" y2="139.95"/><line class="cx" x1="488.216" y1="8.841" x2="577.237" y2="-42.556"/><g id="as"><path id="at" class="cz" d="m678.86-45.626L598.59.717v-171.857s80.27-46.344,80.27-46.344V-45.626Zm4.376-179.436l-89.022,51.397V8.297s89.022-51.397,89.022-51.397v-181.963Z"/></g><g id="au"><path id="av" class="cz" d="m678.86-45.626L598.59.717v-171.857s80.27-46.344,80.27-46.344V-45.626Zm4.376-179.436l-89.022,51.397V8.297s89.022-51.397,89.022-51.397v-181.963Z"/></g><g id="aw"><polygon id="ax" class="cz" points="276.219 498.35 276.219 382.575 1105.65 -96.297 1105.65 19.478 276.219 498.35"/></g><g id="ay"><path id="az" class="cz" d="m195.004,797.358l-76.01,43.885v-153.017s76.01-43.885,76.01-43.885v153.017Zm4.376-160.592l-84.762,48.937v163.123l84.762-48.937v-163.123Z"/></g><g id="ba"><path id="bb" class="cx" d="m357.895,433.894l-60.736,35.066v-81.174l60.736-35.066v81.174Zm4.376-88.753l-69.488,40.119v91.279s69.488-40.119,69.488-40.119v-91.279Z"/></g><g id="bc"><path id="bd" class="cz" d="m572.864,149.55l-80.27,46.344v-123.873s80.27-46.344,80.27-46.344v123.873Zm4.376-131.453l-89.022,51.397v133.978l89.022-51.397V18.097Z"/></g><line class="cx" x1="114.616" y1="720.319" x2="199.378" y2="671.382"/><line class="cx" x1="532.727" y1="177.776" x2="532.727" y2="43.798"/><line class="cx" x1="156.997" y1="695.85" x2="156.997" y2="821.532"/><line class="cx" x1="488.216" y1="130.148" x2="577.237" y2="78.752"/><g id="be"><polygon id="bf" class="cz" points="62.642 893.186 62.642 878.83 251.35 769.879 251.35 784.236 62.642 893.186"/></g><g id="bg"><polygon id="bh" class="cz" points="62.642 907.547 62.642 893.191 251.35 784.24 251.35 798.596 62.642 907.547"/></g><g id="bi"><polygon id="bj" class="dc" points="251.353 798.591 251.353 569.408 276.219 555.052 276.219 784.235 251.353 798.591"/></g><g id="bk"><path id="bl" class="cx" d="m461.724,373.949l-60.736,35.066v-81.174s60.736-35.066,60.736-35.066v81.174Zm4.376-88.753l-69.488,40.119v91.279l69.488-40.119v-91.279Z"/></g><g id="bm"><path id="bn" class="cz" d="m460.551,644.044l-179.956,103.898v-190.364l179.956-103.898v190.364Zm4.376-197.943l-188.708,108.951v200.469s188.708-108.951,188.708-108.951v-200.469Z"/></g><g id="bo"><path id="bp" class="cz" d="m678.86,88.353l-80.27,46.344V10.824l80.27-46.344v123.873Zm4.376-131.453l-89.022,51.397v133.978l89.022-51.397V-43.1Z"/></g><line class="cx" x1="276.219" y1="592.401" x2="464.927" y2="483.45"/><line class="cx" x1="323.395" y1="527.817" x2="323.395" y2="728.286"/><line class="cx" x1="638.725" y1="116.578" x2="638.725" y2="-17.4"/><line class="cx" x1="594.214" y1="68.95" x2="683.235" y2="17.554"/><g id="bq"><path id="br" class="cx" d="m565.556,314.001l-60.736,35.066v-81.174l60.736-35.066v81.174Zm4.376-88.753l-69.488,40.119v91.279l69.488-40.119v-91.279Z"/></g><line class="cx" x1="370.572" y1="500.579" x2="370.572" y2="701.049"/><g id="bs"><path id="bt" class="cz" d="m784.859,27.154l-80.27,46.344V-50.375l80.27-46.344V27.154Zm4.376-131.453l-89.022,51.397V81.076l89.022-51.397V-104.299Z"/></g><line class="cx" x1="276.219" y1="709.031" x2="464.927" y2="600.081"/><line class="cx" x1="417.749" y1="473.341" x2="417.749" y2="673.811"/><line class="cx" x1="700.213" y1="7.752" x2="789.234" y2="-43.645"/><g id="bu"><polygon id="bv" class="cz" points="276.219 784.234 276.219 755.521 464.927 646.57 464.927 675.283 276.219 784.234"/></g><g id="bw"><polygon id="bx" class="dc" points="464.927 675.284 464.927 446.101 489.793 431.745 489.793 660.928 464.927 675.284"/></g><g id="by"><path id="bz" class="cx" d="m669.388,254.054l-60.736,35.066v-81.174s60.736-35.066,60.736-35.066v81.174Zm4.376-88.753l-69.488,40.119v91.279l69.488-40.119v-91.279Z"/></g><g id="ca"><path id="cb" class="cz" d="m674.125,520.737l-179.956,103.898v-190.364l179.956-103.898v190.364Zm4.376-197.943l-188.708,108.951v200.469s188.708-108.951,188.708-108.951v-200.469Z"/></g><line class="cx" x1="489.793" y1="469.094" x2="678.501" y2="360.143"/><line class="cx" x1="536.97" y1="404.509" x2="536.97" y2="604.979"/><g id="cc"><path id="cd" class="cx" d="m773.217,194.108l-60.736,35.066v-81.174s60.736-35.066,60.736-35.066v81.174Zm4.376-88.753l-69.488,40.119v91.279s69.488-40.119,69.488-40.119v-91.279Z"/></g><line class="cx" x1="584.147" y1="377.271" x2="584.147" y2="577.741"/><line class="cx" x1="489.793" y1="585.724" x2="678.501" y2="476.773"/><line class="cx" x1="631.324" y1="350.034" x2="631.324" y2="550.504"/><g id="ce"><polygon id="cf" class="cz" points="489.793 660.927 489.793 632.214 678.501 523.263 678.501 551.976 489.793 660.927"/></g><g id="cg"><polygon id="ch" class="dc" points="678.501 551.977 678.501 322.794 703.367 308.438 703.367 537.621 678.501 551.977"/></g><g id="ci"><path id="cj" class="cz" d="m887.699,397.43l-179.956,103.898v-190.364l179.956-103.898v190.364Zm4.376-197.943l-188.708,108.951v200.469l188.708-108.951v-200.469Z"/></g><line class="cx" x1="703.368" y1="345.786" x2="892.076" y2="236.836"/><line class="cx" x1="703.368" y1="462.416" x2="892.076" y2="353.466"/><g id="ck"><polygon id="cl" class="cz" points="703.367 537.62 703.367 508.907 892.075 399.956 892.075 428.669 703.367 537.62"/></g><line class="cy" x1="-217.324" y1="782.61" x2="37.777" y2="929.892"/><line class="cy" x1="-217.324" y1="545.434" x2="37.777" y2="692.716"/><line class="cy" x1="-217.324" y1="316.255" x2="37.777" y2="463.537"/><line class="cy" x1="-158.291" y1="282.172" x2="96.809" y2="429.454"/></g></g><g id="co"><g class="di"><path class="df" d="m129.634,607.344v8.607c-.794-.458-1.588-.916-2.382-1.374,0,.005.002.01.002.015-.708-.364-1.739-.199-3,.529l-1.689.975v-1.25l.136.018,2.318-2.022c-.818-.472-1.636-.945-2.454-1.417l-2.756,1.591v13.089c.818.472,1.636.945,2.454,1.417.164-.954.328-1.908.492-2.861l-.232-.123,1.731-.999c.162-.094.311-.204.465-.307l.37.664,2.537-1.676,1.101-2.936-.726-.304c.193-.633.298-1.291.298-1.961,0-.149-.023-.268-.033-.404l1.083.323c.094-.174.189-.348.283-.522v4.017l2.454,1.417.699-2.981-.397-.189v-9.431l1.589-.13.865-1.949-2.454-1.417-2.756,1.591Zm-5.601,13.576l-1.468.847v-3.028l1.468-.847c.91-.526,1.466-.205,1.466.667s-.556,1.835-1.466,2.361Z"/><path class="df" d="m190.053,582.932c-.489.283-.8.18-.8-.462v-4.979c0-.05-.003-.098-.003-.147l.835.243.722-1.592c-.815-.469-1.629-.938-2.444-1.408-.075-.056-.158-.101-.245-.141-.011-.006-.022-.013-.033-.019h0c-.681-.289-1.714-.097-3.233.78-1.444.834-2.756,1.874-4.111,3.246l.693,1.763-2.406-1.389-2.8,1.617-1.371,3.392-2.252-1.301-2.757,1.591v3.158l-2.335-1.348c-.956.09-2.155.526-3.222,1.142-3.668,2.118-5.535,6.224-5.535,9.996,0,1.96.538,3.403,1.565,4.048l-.002.007,2.366,1.359.614-1.156-.194-.104c.406-.144.838-.346,1.298-.611.38-.219.752-.472,1.119-.738l.331.602,3-1.617.339-1.437-2.454-1.417c-.689.732-1.601,1.438-2.334,1.861-1.291.746-2.299.306-2.676-1.08l.508.158,1.83-4.638,3.128-2.873,1.383-.638,1.274-1.323v9.738l2.454,1.417.974-3.497h-.672v-4.876l.978-.564,2.845,3.979,2.454,1.417.369-1.227-1.401-1.141,1.401-.936-2.593-3.474,4.802-8.032.104.264,1.966,1.135c-2.04,1.469-3.388,3.604-3.388,5.821,0,1.27.315,2.023.869,2.344l-.007.008.062.034c.013.007.026.016.039.022l2.1,1.166.913-.611-.543-1.051c.027-.015.051-.023.078-.039.618-.357,1.14-.741,1.609-1.193l.708.609,2.681-2.087-.176-.126c.081-.04.161-.079.247-.129.556-.321,1.244-.821,1.578-1.167v-1.031l2.021.902.433-.943c-.818-.472-1.636-.945-2.454-1.417l-.245.141Zm-16.448,4.004l-1,.578v-1.267h.501l1.479-1.738-.981,2.428Zm10.491-.436c-.138.08-.27.131-.395.164l.632-1.29,1.78-.911c-.567.869-1.28,1.611-2.017,2.036Z"/><path class="df" d="m118.5,621.743c-.869-.531-1.738-1.062-2.606-1.592-.01.027-.02.054-.029.082-.029-.016-.058-.032-.088-.046l.011-.004.952-2.809-.893-.32c.32-.801.517-1.679.517-2.614,0-.093-.008-.174-.011-.262l1.112.189c.162-.275.324-.55.486-.825-.849-.489-1.698-.978-2.546-1.467,0,.001-.002.002-.002.003-.872-.476-2.266-.087-3.906.859l-4.868,2.811v17.966l2.454,1.417.96-2.109-.891-.765,2.344-1.353c.445-.257.87-.54,1.281-.837.095.081.191.162.286.242.599-.303,1.199-.606,1.798-.91l1.229-1.356,1.058-2.691-.548-.391c.155-.547.25-1.122.282-1.724.539-.498,1.078-.996,1.617-1.494Zm-9.027-4.659l1.867-1.078c1.356-.783,2.09-.359,2.09.949s-.733,2.605-2.09,3.388l-1.867,1.078v-4.337Zm1.89,10.92l-1.89,1.091v-4.851l1.89-1.091c1.645-.95,2.623-.667,2.623.975,0,1.412-.979,2.926-2.623,3.875Z"/><path class="df" d="m143.707,600.484c-.668-.511-1.86-.191-3.268.622l-4.713,2.721v13.089l2.454,1.417.777-2.575-.292-.539,1.627-.939.372.568,1.5-1.005,2.441-2.15.287-2.302h-.317c.106-.445.173-.896.173-1.355,0-.698-.16-1.191-.441-1.514l.345-1.105-1.117-.75c.449-.747.693-1.53.733-2.323l1.246.136.492-.683-2.299-1.318-.002.004Zm-5.224,4.874l2.9-1.378c.062.101.101.236.101.424,0,.821-.578,1.489-1.578,2.066l-1.423.821v-1.933Zm1.801,6.181l-1.801,1.04v-2.746l1.801-1.04c.148-.086.286-.155.416-.216v1.005l1.026-1.093c.144.118.225.334.225.675,0,.976-.623,1.771-1.667,2.375Z"/><path class="df" d="m157.816,595.062l-2.348-1.358c-.006-.004-.013-.007-.019-.011l-.043-.025-.002.003c-.828-.472-2.006-.304-3.452.53-3.2,1.848-5.2,5.492-5.2,9.803,0,1.968.487,3.276,1.332,3.938l-.004.006.061.036c.129.095.266.176.411.241l2.312,1.356.305-1.203-.292-.147c.471-.148.969-.366,1.497-.671.254-.147.503-.321.752-.492l-.053.115.926.229,3.786-2.654v-1.081l-2.454-1.417c-.272.319-.591.646-.922.967l-.409-.31-2.596,1.946.197.237c-1.035.236-1.823-.3-2.049-1.737l1.949-1.125-.097,1.242,5.553-2.581.553-2.227-.784-.693c.017-.315.027-.592.027-.75,0-.474-.032-.903-.092-1.29l.871.137.284-1.015Zm-6.104,4.616l2.042-2.892c.315.268.487.757.487,1.432l-2.529,1.46Z"/><path class="df" d="m208.192,572.101l-3.489,2.015v-11.555l.319.091,2.135-2.107-2.454-1.417-5.957,3.439-.444,3.234,2.454,1.417,1.169-2.903v11.405l-3.956,2.284v2.978l2.454,1.417.674-2.768-.281-.292,7.142-4.124.511.363,2.178-2.059-2.454-1.417Zm-6.268-7.793l-.211-.477.211-.122v.599Z"/></g><g class="dj"><polygon class="dd" points="342.896 483.953 342.896 492.571 342.896 497.045 345.35 498.463 346.298 495.268 345.653 494.898 345.653 485.768 347.043 485.098 348.108 483.779 345.653 482.361 342.896 483.953"/><path class="dd" d="m402.515,459.081v-4.98c0-.384-.021-.742-.063-1.074l1.192.06.344-.536-2.479-1.431v.007c-.675-.402-1.746-.263-3.394.689-1.445.834-2.757,1.875-4.113,3.247l.689,1.754-2.4-1.382-2.801,1.617-2.624,6.494-1.001.578v-1.781c.818-.594,1.637-1.188,2.455-1.782-.818-.472-1.637-.945-2.455-1.417l-2.757,1.592v3.097l-2.333-1.288c-.956.09-2.156.526-3.223,1.142-3.668,2.118-5.536,6.226-5.536,9.999,0,2.126.629,3.653,1.833,4.203l2.367,1.373.593-.612-.727-.727c.487-.144,1.011-.365,1.58-.694.253-.146.503-.308.751-.476h.492l1.626-.465,1.702-1.596.217-.655-2.455-1.417c-.689.732-1.601,1.438-2.334,1.862-1.307.755-2.321.294-2.688-1.13l.281-.19,4.298-7.278v-.254c.051-.009.101-.018.151-.026l.062.28,2.292-.787,1.05-.928v9.659l2.455,1.417.8-2.936-.497-.293v-5.146l.978-.565,2.846,3.98,2.455,1.417.112-1.776-1.065-.644,1.322-.884-2.601-3.485,2.378-5.961,2.426-2.07.107.273,1.906,1.177c-2.007,1.468-3.328,3.585-3.328,5.781,0,1.189.282,1.914.771,2.269l2.406,1.411.349-.887-.423-.713c.136-.068.267-.123.41-.206.593-.343,1.095-.714,1.549-1.142l.474.514,1.835-.726.948-.867.455.277-.335.167,1.071.601.285-.553-.622-.415-.182.091-.317-.493.138-.126-.165-.295c.544-.321,1.191-.793,1.511-1.126v-2.491l-.244.141c-.489.282-.801.18-.801-.462Z"/><path class="dd" d="m329.286,496.927c-.022-.016-.049-.023-.071-.037l.486-2.09-.415-1.27-.128.019c.292-.769.466-1.609.466-2.498,0-.052-.005-.097-.006-.147l1.339.217.326-.918-2.465-1.425c-.017-.012-.036-.019-.053-.031l-.186-.107v.003c-.876-.408-2.237-.011-3.824.906l-4.869,2.811v17.97l2.455,1.417,1.339-2.202-.541-1.093,1.533-.885.317.542,3.989-2.4,1.468-3.791-.333-1.466h-.018c.044-.342.085-.685.085-1.045,0-.264-.021-.498-.049-.723l1.049.541.612-.843-2.507-1.457v.004Zm-6.553-3.233l1.867-1.078c1.356-.783,2.09-.36,2.09.95s-.734,2.605-2.09,3.389l-1.867,1.078v-4.338Zm0,7.162l1.89-1.091c1.645-.95,2.624-.668,2.624.975,0,1.412-.978,2.927-2.624,3.877l-1.89,1.091v-4.852Z"/><path class="dd" d="m340.817,491.417c-.697-.614-1.844-.528-3.301.314l-1.69.975v-1.117l1.228-.469,1.227-1.669-2.455-1.417-2.757,1.592v13.092l2.455,1.417.731-1.762-.234-1.36,1.494-.863c.027-.016.051-.036.079-.052l.15.541,2.66-1.237,1.451-2.359-.174-1.379-.402-.122c.184-.618.283-1.26.283-1.914,0-.197-.026-.36-.044-.535l.337.151,1.041-.676-2.082-1.178.003.025Zm-4.991,6.963v-3.029l1.468-.847c.911-.526,1.466-.205,1.466.667s-.555,1.836-1.466,2.362l-1.468.847Z"/><path class="dd" d="m357.75,481.699l-1.032-.295c.471-.743.742-1.523.806-2.316l1.28-.13.555-.501-2.393-1.371v.005c-.669-.507-1.859-.187-3.266.625l-4.713,2.721v13.092l2.455,1.417.98-1.918-.373-1.267,1.578-.911.215.407,3.75-2.489.782-1.58-.271-1.069-.279-.046c.116-.46.185-.927.187-1.401l1.464.059.294-.416-2.476-1.431.459-1.185Zm-3.383-.918l.241-.245c.086.102.135.257.135.478,0,.822-.577,1.489-1.578,2.067l-1.423.822v-1.857l2.625-1.264Zm-2.625,5.663l1.801-1.04c.085-.049.163-.088.243-.129l.102.397.855-.112.38-.266c.054.122.087.276.087.482,0,.975-.623,1.771-1.667,2.374l-1.801,1.04v-2.747Z"/><path class="dd" d="m371.211,471.747l-2.479-1.432c-.008-.005-.017-.01-.026-.015l-.049-.028v.005c-.828-.466-2.002-.298-3.444.534-3.201,1.848-5.202,5.493-5.202,9.807,0,2.156.58,3.528,1.581,4.116l2.438,1.407.237-1.337c.433-.148.889-.353,1.369-.63.33-.19.655-.408.975-.638l.687.368,3.234-2.104.516-1.509-2.455-1.417c-.778.912-1.89,1.939-2.823,2.478-1.466.847-2.668.462-2.956-1.373l2.081-1.201v.876l5.936-3.447-.836-1.735c.013-.261.021-.493.021-.629,0-.641-.059-1.197-.168-1.679h.834l.53-.414Zm-5.742,3.095l1.457-1.531c.379.243.578.774.578,1.517l-3.4,1.963,1.365-1.949Z"/><polygon class="dd" points="404.138 460.779 405.255 461.465 406.015 460.82 403.56 459.402 404.138 460.779"/><path class="dd" d="m421.121,448.904l-3.134,1.81,2.173-4.776.798-4.021v-1.564h-.409c.082-.523.128-1.029.128-1.512,0-.3-.029-.56-.06-.818l1.075.383.499-.941-2.531-1.471.003.034c-.766-.543-1.927-.418-3.411.439-1.823,1.053-3.091,2.195-4.869,4.326l1.312,1.835,2.455,1.417,2.385-4.369c.179.252.274.639.274,1.154,0,3.44-3.646,9.703-6.692,14.107v2.721l2.455,1.417,1.738-3.64-.048-.17,5.143-2.969.33.44,1.883-1.085.958-1.329-2.455-1.417Z"/></g><g class="dh"><polygon class="de" points="556.747 360.537 556.747 369.155 556.747 373.629 559.202 375.047 560.149 371.852 559.504 371.482 559.504 362.352 560.894 361.682 561.959 360.363 559.504 358.945 556.747 360.537"/><path class="de" d="m616.366,335.665v-4.98c0-.384-.021-.742-.063-1.074l1.192.06.344-.536-2.479-1.431v.007c-.675-.402-1.746-.263-3.394.689-1.445.834-2.757,1.875-4.113,3.247l.689,1.754-2.4-1.382-2.801,1.617-2.624,6.494-1.001.578v-1.781c.818-.594,1.637-1.188,2.455-1.782-.818-.472-1.637-.945-2.455-1.417l-2.757,1.592v3.097l-2.333-1.288c-.956.09-2.156.526-3.223,1.142-3.668,2.118-5.536,6.226-5.536,9.999,0,2.126.629,3.653,1.833,4.203l2.367,1.373.593-.612-.727-.727c.487-.144,1.011-.365,1.58-.694.253-.146.503-.308.751-.476h.492l1.626-.465,1.702-1.596.217-.655-2.455-1.417c-.689.732-1.601,1.438-2.334,1.862-1.307.755-2.321.294-2.688-1.13l.281-.19,4.298-7.278v-.254c.051-.009.101-.018.151-.026l.062.28,2.292-.787,1.05-.928v9.659l2.455,1.417.8-2.936-.497-.293v-5.146l.978-.565,2.846,3.98,2.455,1.417.112-1.776-1.065-.644,1.322-.884-2.601-3.485,2.378-5.961,2.426-2.07.107.273,1.906,1.177c-2.007,1.468-3.328,3.585-3.328,5.781,0,1.189.282,1.914.771,2.269l2.406,1.411.349-.887-.423-.713c.136-.068.267-.123.41-.206.593-.343,1.095-.714,1.549-1.142l.474.514,1.835-.726.948-.867.455.277-.335.167,1.071.601.285-.553-.622-.415-.182.091-.317-.493.138-.126-.165-.295c.544-.321,1.191-.793,1.511-1.126v-2.491l-.244.141c-.489.282-.801.18-.801-.462Z"/><path class="de" d="m543.138,373.511c-.022-.016-.049-.023-.071-.037l.486-2.09-.415-1.27-.128.019c.292-.769.466-1.609.466-2.498,0-.052-.005-.097-.006-.147l1.339.217.326-.918-2.465-1.425c-.017-.012-.036-.019-.053-.031l-.186-.107v.003c-.876-.408-2.237-.011-3.824.906l-4.869,2.811v17.97l2.455,1.417,1.339-2.202-.541-1.093,1.533-.885.317.542,3.989-2.4,1.468-3.791-.333-1.466h-.018c.044-.342.085-.685.085-1.045,0-.264-.021-.498-.049-.723l1.049.541.612-.843-2.507-1.457v.004Zm-6.553-3.233l1.867-1.078c1.356-.783,2.09-.36,2.09.95s-.734,2.605-2.09,3.389l-1.867,1.078v-4.338Zm0,7.162l1.89-1.091c1.645-.95,2.624-.668,2.624.975,0,1.412-.978,2.927-2.624,3.877l-1.89,1.091v-4.852Z"/><path class="de" d="m554.668,368.001c-.697-.614-1.844-.528-3.301.314l-1.69.975v-1.117l1.228-.469,1.227-1.669-2.455-1.417-2.757,1.592v13.092l2.455,1.417.731-1.762-.234-1.36,1.494-.863c.027-.016.051-.036.079-.052l.15.541,2.66-1.237,1.451-2.359-.174-1.379-.402-.122c.184-.618.283-1.26.283-1.914,0-.197-.026-.36-.044-.535l.337.151,1.041-.676-2.082-1.178.003.025Zm-4.991,6.963v-3.029l1.468-.847c.911-.526,1.466-.205,1.466.667s-.555,1.836-1.466,2.362l-1.468.847Z"/><path class="de" d="m571.601,358.283l-1.032-.295c.471-.743.742-1.523.806-2.316l1.28-.13.555-.501-2.393-1.371v.005c-.669-.507-1.859-.187-3.266.625l-4.713,2.721v13.092l2.455,1.417.98-1.918-.373-1.267,1.578-.911.215.407,3.75-2.489.782-1.58-.271-1.069-.279-.046c.116-.46.185-.927.187-1.401l1.464.059.294-.416-2.476-1.431.459-1.185Zm-3.383-.918l.241-.245c.086.102.135.257.135.478,0,.822-.577,1.489-1.578,2.067l-1.423.822v-1.857l2.625-1.264Zm-2.625,5.663l1.801-1.04c.085-.049.163-.088.243-.129l.102.397.855-.112.38-.266c.054.122.087.276.087.482,0,.975-.623,1.771-1.667,2.374l-1.801,1.04v-2.747Z"/><path class="de" d="m585.062,348.331l-2.479-1.432c-.008-.005-.017-.01-.026-.015l-.049-.028v.005c-.828-.466-2.002-.298-3.444.534-3.201,1.848-5.202,5.493-5.202,9.807,0,2.156.58,3.528,1.581,4.116l2.438,1.407.237-1.337c.433-.148.889-.353,1.369-.63.33-.19.655-.408.975-.638l.687.368,3.234-2.104.516-1.509-2.455-1.417c-.778.912-1.89,1.939-2.823,2.478-1.466.847-2.668.462-2.956-1.373l2.081-1.201v.876l5.936-3.447-.836-1.735c.013-.261.021-.493.021-.629,0-.641-.059-1.197-.168-1.679h.834l.53-.414Zm-5.742,3.095l1.457-1.531c.379.243.578.774.578,1.517l-3.4,1.963,1.365-1.949Z"/><polygon class="de" points="617.99 337.363 619.106 338.049 619.866 337.404 617.411 335.986 617.99 337.363"/><path class="de" d="m633.65,320.076c-.252-.165-.539-.261-.849-.298l1.294-2.712-.202-.734-1.473.813,1.229-2.549,2.031-.69.835-1.467-2.455-1.417-8.359,4.826-.445,3.235,2.455,1.417.725-1.201.175-2.153,2.359-1.362v.103l-3.113,6.469v1.874l2.455,1.417.977-2.496c.365.238.592.729.592,1.579,0,1.926-1.201,3.492-2.669,4.339-1.267.732-2.201.808-3.09.654l-1.378,3.389,2.455,1.417,1.332-.709.317-1.583c.171-.089.341-.177.521-.281.373-.216.741-.462,1.1-.735l.488.427,3.415-2.872,1.053-3.383-.907-.314c.147-.654.231-1.333.231-2.032,0-.396-.027-.749-.076-1.065l1.457.251v-.725l-2.48-1.436h0Z"/></g></g><g id="cw"><path class="dg" d="m322.342,511.747v-17.97l4.869-2.811c2.78-1.605,4.869-1.63,4.869,1.502,0,2.362-1.223,4.377-2.645,5.634v.103c1.957-.591,3.202.128,3.202,2.618,0,3.671-2.379,6.354-5.425,8.113l-4.869,2.811Zm4.713-17.713l-1.867,1.078v4.338l1.867-1.078c1.356-.783,2.09-2.079,2.09-3.389s-.734-1.733-2.09-.95Zm.023,7.15l-1.89,1.091v4.852l1.89-1.091c1.645-.95,2.623-2.464,2.623-3.877,0-1.643-.978-1.925-2.623-.975Z"/><path class="dg" d="m339.971,493.148c2.445-1.412,4.046-.745,4.046,1.9s-1.601,5.109-4.046,6.521l-4.447,2.567v-13.092l2.757-1.592v4.672l1.69-.975Zm-1.69,3.62v3.029l1.468-.847c.911-.526,1.466-1.488,1.466-2.362s-.555-1.193-1.466-.667l-1.468.847Zm9.827.102l-2.757,1.592v-13.092l2.757-1.592v13.092Z"/><path class="dg" d="m360.466,486.065c0,2.259-1.288,4.415-3.868,5.904l-5.158,2.978v-13.092l4.713-2.721c2.179-1.258,3.846-1.348,3.846,1.014,0,1.412-.666,2.798-1.934,4.017v.077c1.466-.437,2.4.103,2.4,1.823Zm-6.269-3.055v2.31l1.423-.821c1.001-.578,1.578-1.245,1.578-2.067,0-.847-.689-.757-1.578-.243l-1.423.821Zm0,4.852v2.747l1.801-1.04c1.045-.603,1.667-1.399,1.667-2.374s-.623-.976-1.667-.373l-1.801,1.04Z"/><path class="dg" d="m371.047,480.289l.956,1.939c-1.089,1.27-2.468,2.529-3.913,3.363-3.335,1.925-5.625.731-5.625-3.556,0-4.313,2.001-7.958,5.202-9.807,2.957-1.707,4.802-.642,4.802,3.029,0,.359-.044,1.283-.133,2.054l-7.07,4.082c.288,1.836,1.49,2.22,2.956,1.373.934-.539,2.045-1.566,2.823-2.478Zm-1.089-4.043c0-1.489-.801-2.131-2.246-1.296-1.177.68-2.134,2.13-2.4,3.979l4.646-2.682Z"/><path class="dg" d="m383.341,476.041c-.956,1.039-2.068,1.938-3.224,2.606-3.668,2.118-5.647.23-5.647-3.543s1.868-7.881,5.536-9.999c1.067-.616,2.267-1.052,3.223-1.142l-.889,3.029c-.689.064-1.467.36-2.201.783-1.645.95-2.868,3.299-2.868,5.712s1.2,3.363,2.845,2.413c.734-.423,1.645-1.13,2.334-1.862l.89,2.003Z"/><path class="dg" d="m389.297,467.724l-.978.565v5.366l-2.757,1.592v-13.092l2.757-1.592v4.98l1.001-.578,2.623-6.494,2.801-1.617-3.312,8.227,3.535,4.736-2.823,1.887-2.846-3.98Z"/><path class="dg" d="m402.213,457.059c0-1.258-.555-1.707-1.912-.924-.956.552-1.979,1.399-3.024,2.439l-.822-2.093c1.356-1.373,2.668-2.413,4.113-3.247,3.468-2.002,4.402-.436,4.402,2.285v4.98c0,.642.312.745.801.462l.244-.141v2.491c-.334.346-1.022.846-1.578,1.168-1.001.578-1.645.514-2.001-.103l-.089.052c-.801,1.386-1.69,2.233-2.979,2.978-2.156,1.245-3.513.796-3.513-1.873,0-2.516,1.734-4.929,4.247-6.38l2.112-1.219v-.873Zm0,4.801v-1.489l-2.023,1.168c-1.023.591-1.601,1.515-1.601,2.362,0,.873.556,1.014,1.223.629.912-.527,1.801-1.528,2.401-2.67Z"/><path class="dg" d="m418.284,441.106c-1.112.642-2.156,1.681-3.134,2.939l-1.312-1.835c1.778-2.13,3.045-3.273,4.869-4.326,2.734-1.579,4.424-.757,4.424,2.375,0,3.953-2.956,9.434-5.669,13.49v.102l6.113-3.53-.445,3.235-9.56,5.52v-2.721c3.046-4.403,6.692-10.667,6.692-14.107,0-1.412-.689-1.886-1.979-1.142Z"/><path class="dg" d="m536.193,388.331v-17.97l4.869-2.811c2.78-1.605,4.869-1.63,4.869,1.502,0,2.362-1.223,4.377-2.645,5.634v.103c1.957-.591,3.202.128,3.202,2.618,0,3.671-2.379,6.354-5.425,8.113l-4.869,2.811Zm4.713-17.713l-1.867,1.078v4.338l1.867-1.078c1.356-.783,2.09-2.079,2.09-3.389s-.734-1.733-2.09-.95Zm.023,7.15l-1.89,1.091v4.852l1.89-1.091c1.645-.95,2.623-2.464,2.623-3.877,0-1.643-.978-1.925-2.623-.975Z"/><path class="dg" d="m553.822,369.732c2.445-1.412,4.046-.745,4.046,1.9s-1.601,5.109-4.046,6.521l-4.447,2.567v-13.092l2.757-1.592v4.672l1.69-.975Zm-1.69,3.62v3.029l1.468-.847c.911-.526,1.466-1.488,1.466-2.362s-.555-1.193-1.466-.667l-1.468.847Zm9.827.102l-2.757,1.592v-13.092l2.757-1.592v13.092Z"/><path class="dg" d="m574.317,362.649c0,2.259-1.288,4.415-3.868,5.904l-5.158,2.978v-13.092l4.713-2.721c2.179-1.258,3.846-1.348,3.846,1.014,0,1.412-.666,2.798-1.934,4.017v.077c1.466-.437,2.4.103,2.4,1.823Zm-6.269-3.055v2.31l1.423-.821c1.001-.578,1.578-1.245,1.578-2.067,0-.847-.689-.757-1.578-.243l-1.423.821Zm0,4.852v2.747l1.801-1.04c1.045-.603,1.667-1.399,1.667-2.374s-.623-.976-1.667-.373l-1.801,1.04Z"/><path class="dg" d="m584.899,356.873l.956,1.939c-1.089,1.27-2.468,2.529-3.913,3.363-3.335,1.925-5.625.731-5.625-3.556,0-4.313,2.001-7.958,5.202-9.807,2.957-1.707,4.802-.642,4.802,3.029,0,.359-.044,1.283-.133,2.054l-7.07,4.082c.288,1.836,1.49,2.22,2.956,1.373.934-.539,2.045-1.566,2.823-2.478Zm-1.089-4.043c0-1.489-.801-2.131-2.246-1.296-1.177.68-2.134,2.13-2.4,3.979l4.646-2.682Z"/><path class="dg" d="m597.192,352.625c-.956,1.039-2.068,1.938-3.224,2.606-3.668,2.118-5.647.23-5.647-3.543s1.868-7.881,5.536-9.999c1.067-.616,2.267-1.052,3.223-1.142l-.889,3.029c-.689.064-1.467.36-2.201.783-1.645.95-2.868,3.299-2.868,5.712s1.2,3.363,2.845,2.413c.734-.423,1.645-1.13,2.334-1.862l.89,2.003Z"/><path class="dg" d="m603.149,344.308l-.978.565v5.366l-2.757,1.592v-13.092l2.757-1.592v4.98l1.001-.578,2.623-6.494,2.801-1.617-3.312,8.227,3.535,4.736-2.823,1.887-2.846-3.98Z"/><path class="dg" d="m616.064,333.643c0-1.258-.555-1.707-1.912-.924-.956.552-1.979,1.399-3.024,2.439l-.822-2.093c1.356-1.373,2.668-2.413,4.113-3.247,3.468-2.002,4.402-.436,4.402,2.285v4.98c0,.642.312.745.801.462l.244-.141v2.491c-.334.346-1.022.846-1.578,1.168-1.001.578-1.645.514-2.001-.103l-.089.052c-.801,1.386-1.69,2.233-2.979,2.978-2.156,1.245-3.513.796-3.513-1.873,0-2.516,1.734-4.929,4.247-6.38l2.112-1.219v-.873Zm0,4.801v-1.489l-2.023,1.168c-1.023.591-1.601,1.515-1.601,2.362,0,.873.556,1.014,1.223.629.912-.527,1.801-1.528,2.401-2.67Z"/><path class="dg" d="m637.204,324.467c0,3.954-2.556,7.278-5.38,8.909-1.956,1.129-3.357,1.347-4.624,1.155l1.378-3.389c.889.154,1.823.077,3.09-.654,1.468-.847,2.669-2.413,2.669-4.339,0-2.028-1.245-2.104-2.757-1.232l-1.267.732v-1.874l3.112-6.469v-.103l-5.714,3.299.445-3.235,8.359-4.826v2.722l-3.002,6.225v.077c1.934-.705,3.69-.256,3.69,3.004Z"/><path class="dg" d="m109.082,635.132v-17.966l4.868-2.811c2.778-1.604,4.867-1.629,4.867,1.501,0,2.361-1.223,4.376-2.645,5.633v.104c1.955-.591,3.2.128,3.2,2.617,0,3.671-2.378,6.353-5.423,8.11l-4.868,2.811Zm4.712-17.709l-1.867,1.078v4.337l1.867-1.078c1.356-.783,2.09-2.078,2.09-3.388s-.733-1.732-2.09-.949Zm.022,7.147l-1.89,1.091v4.851l1.89-1.091c1.645-.95,2.623-2.463,2.623-3.875,0-1.643-.979-1.925-2.623-.975Z"/><path class="dg" d="m126.709,616.538c2.444-1.412,4.046-.745,4.046,1.898s-1.602,5.108-4.046,6.52l-4.445,2.566v-13.089l2.756-1.591v4.671l1.689-.975Zm-1.689,3.619v3.028l1.468-.847c.91-.526,1.466-1.488,1.466-2.361s-.556-1.193-1.466-.667l-1.468.847Zm9.824.103l-2.756,1.591v-13.089l2.756-1.591v13.089Z"/><path class="dg" d="m147.204,609.453c0,2.259-1.289,4.414-3.867,5.903l-5.157,2.977v-13.089l4.713-2.721c2.178-1.257,3.845-1.348,3.845,1.014,0,1.411-.667,2.797-1.934,4.017v.077c1.467-.437,2.4.103,2.4,1.822Zm-6.268-3.054v2.31l1.423-.821c1-.578,1.578-1.245,1.578-2.066,0-.847-.689-.756-1.578-.243l-1.423.821Zm0,4.851v2.746l1.801-1.04c1.044-.603,1.667-1.399,1.667-2.375s-.623-.975-1.667-.372l-1.801,1.04Z"/><path class="dg" d="m157.786,603.677l.955,1.938c-1.088,1.27-2.467,2.528-3.911,3.362-3.334,1.925-5.623.731-5.623-3.555,0-4.312,2-7.956,5.2-9.803,2.957-1.707,4.801-.642,4.801,3.028,0,.359-.044,1.283-.132,2.053l-7.069,4.081c.289,1.835,1.489,2.22,2.957,1.373.933-.539,2.044-1.565,2.822-2.477Zm-1.09-4.042c0-1.488-.8-2.13-2.244-1.296-1.178.68-2.134,2.13-2.4,3.978l4.645-2.682Z"/><path class="dg" d="m170.078,599.429c-.955,1.039-2.066,1.938-3.223,2.605-3.667,2.117-5.646.231-5.646-3.542s1.867-7.878,5.535-9.996c1.066-.616,2.266-1.052,3.222-1.142l-.889,3.028c-.688.064-1.467.359-2.201.783-1.644.949-2.866,3.298-2.866,5.71s1.2,3.363,2.845,2.413c.733-.423,1.645-1.129,2.334-1.861l.889,2.002Z"/><path class="dg" d="m176.036,591.112l-.978.564v5.364l-2.757,1.591v-13.089l2.757-1.591v4.979l1-.578,2.623-6.493,2.8-1.617-3.312,8.226,3.534,4.735-2.823,1.887-2.845-3.979Z"/><path class="dg" d="m188.952,580.448c0-1.258-.556-1.707-1.911-.924-.957.552-1.979,1.399-3.023,2.438l-.822-2.092c1.355-1.373,2.667-2.412,4.111-3.246,3.468-2.002,4.401-.437,4.401,2.284v4.979c0,.642.311.745.8.462l.245-.141v2.49c-.334.346-1.022.846-1.578,1.167-1.001.578-1.646.514-2.001-.102l-.089.051c-.801,1.386-1.689,2.232-2.979,2.976-2.156,1.245-3.512.796-3.512-1.873,0-2.516,1.733-4.928,4.245-6.378l2.112-1.219v-.873Zm0,4.8v-1.489l-2.023,1.168c-1.022.59-1.6,1.515-1.6,2.361,0,.873.556,1.014,1.222.629.912-.526,1.801-1.528,2.401-2.669Z"/><path class="dg" d="m207.157,560.544v14.988l3.489-2.015v2.978l-10.224,5.903v-2.978l3.956-2.284v-12.011l-3.623,2.092.444-3.234,5.957-3.439Z"/></g></svg>