<?xml version="1.0" encoding="UTF-8"?><svg xmlns="http://www.w3.org/2000/svg" xmlns:xlink="http://www.w3.org/1999/xlink" viewBox="0 0 577.103 281.172"><defs><style>.w,.x,.y,.z{stroke-linecap:round;stroke-linejoin:round;}.w,.x,.z{fill:none;}.w,.y{stroke:#b8bebf;}.x{mix-blend-mode:multiply;stroke:#899097;}.x,.aa,.ab,.ac,.ad{stroke-width:.25px;}.aa{fill:url(#v);}.aa,.ab,.ac,.ad{stroke:#bebdbd;stroke-miterlimit:10;}.ab{fill:url(#r);}.ac{fill:url(#p);}.ad{fill:url(#q);}.y{stroke-width:.5px;}.y,.ae{fill:#fff;}.z{stroke:#151616;stroke-width:.43px;}.af{isolation:isolate;}.ag{fill:#4f5050;}.ag,.ah,.ai,.aj,.ak,.al,.am,.ae,.an,.ao,.ap,.aq,.ar{stroke-width:0px;}.ah{fill:#3d3f40;}.ai{fill:#424343;}.aj{fill:#231300;}.ak{fill:#d2dce0;}.al{fill:#a9b1bc;}.am{fill:#f1ea35;}.an{fill:#040405;}.ao{fill:url(#t);}.ap{fill:url(#h);}.aq{fill:url(#k);}.ar{fill:url(#n);}</style><linearGradient id="h" x1="33.098" y1="253.136" x2="33.098" y2="256.623" gradientTransform="translate(-.566 18.224) rotate(30) scale(.816 .707) skewX(26.565)" gradientUnits="userSpaceOnUse"><stop offset="0" stop-color="#a9b1bc"/><stop offset="1" stop-color="#2b4245"/></linearGradient><linearGradient id="k" x1="132.217" y1="-40.871" x2="132.217" y2="-37.384" xlink:href="#h"/><linearGradient id="n" x1="29.682" y1="60.502" x2="29.682" y2="63.989" xlink:href="#h"/><linearGradient id="p" x1="96.146" y1="188.028" x2="96.146" y2="198.107" gradientTransform="translate(52.149 -10.571) rotate(30) scale(1 1.198)" gradientUnits="userSpaceOnUse"><stop offset="0" stop-color="#d2d9e0"/><stop offset=".117" stop-color="#dee3e8"/><stop offset=".327" stop-color="#fff"/><stop offset=".486" stop-color="#fafbfb"/><stop offset=".655" stop-color="#edf1f1"/><stop offset=".827" stop-color="#d8e0e0"/><stop offset="1" stop-color="#bcc9c9"/></linearGradient><linearGradient id="q" x1="15.929" y1="74.514" x2="15.929" y2="84.592" xlink:href="#p"/><linearGradient id="r" x1="57.298" y1="14.647" x2="57.298" y2="24.726" xlink:href="#p"/><linearGradient id="t" x1="132.217" y1="153.004" x2="132.217" y2="156.491" xlink:href="#h"/><linearGradient id="v" x1="136.862" y1="129.066" x2="136.862" y2="139.144" xlink:href="#p"/></defs><g class="af"><g id="e"><rect class="ak" x="271.534" y="137.29" width="210.723" height="40.84"/><path class="ai" d="m320.507,134.111v-1.376h5.815v1.376h-5.815Z"/><rect class="ai" x="322.03" y="134.111" width="2.843" height="36.211"/><path class="ai" d="m418.983,134.111v-1.376h5.815v1.376h-5.815Z"/><rect class="ai" x="420.506" y="134.11" width="2.843" height="36.211"/><path class="ak" d="m328.215,125.335h-9.277c.251,3.008.501,6.016.752,9.024h7.774c.251-3.008.501-6.016.752-9.024Z"/><path class="ak" d="m426.529,125.335h-9.277c.251,3.008.501,6.016.752,9.024h7.774c.251-3.008.501-6.016.752-9.024Z"/><rect class="w" x="294.086" y="119.673" width="157.482" height="5.662"/><rect class="ai" x="293.524" y="113.081" width="158.606" height="6.095" rx=".54" ry=".54"/><rect class="ae" x="339.654" y="125.457" width="7.561" height="2.154"/><path class="ah" d="m347.092,125.579v1.91h-7.315v-1.91h7.315m.245-.245h-7.804v2.399h7.804v-2.399h0Z"/><rect class="am" x="342.256" y="127.232" width="2.342" height=".597"/><rect class="ae" x="397.684" y="125.457" width="7.561" height="2.154"/><path class="ah" d="m405.121,125.579v1.91h-7.315v-1.91h7.315m.245-.245h-7.804v2.399h7.804v-2.399h0Z"/><rect class="am" x="400.285" y="127.232" width="2.342" height=".597"/><path class="aj" d="m445.259,89.508c0,1.332.45,2.376,1.603,2.376.485,0,.936-.135,1.377-.387l.378.766c-.567.323-1.044.485-1.755.485-1.873,0-2.611-1.422-2.611-3.24s.738-3.241,2.611-3.241c.576,0,1.044.09,1.647.405l-.379.765c-.44-.225-.873-.306-1.269-.306-1.152,0-1.603,1.044-1.603,2.377Z"/><path class="aj" d="m453.305,91.335c0,.828-.522,1.323-1.566,1.323h-1.998v-4.591h1.854c.918,0,1.521.342,1.521,1.17,0,.495-.369.883-.784.981v.027c.441.099.973.423.973,1.089Zm-2.629-2.484v1.044h.738c.423,0,.747-.135.747-.522,0-.404-.288-.521-.684-.521h-.802Zm0,1.827v1.197h.909c.478,0,.766-.188.766-.594s-.315-.604-.855-.604h-.819Z"/><path class="aj" d="m458.084,90.579h-2.917c.063.891.531,1.386,1.359,1.386.414,0,.811-.144,1.144-.314l.307.711c-.441.225-.955.387-1.54.387-1.351,0-2.232-.882-2.232-2.386,0-1.512.828-2.386,2.07-2.386,1.233,0,1.891.721,1.891,1.846,0,.234-.026.486-.081.757Zm-2.881-.729h2.125c0-.63-.342-1.089-1.035-1.089-.621,0-1.009.44-1.09,1.089Z"/><path class="aj" d="m458.793,88.067h3.89l-.181.783h-1.323v3.808h-.927v-3.808h-1.459v-.783Z"/><path class="aj" d="m463.132,90.362c0-1.494.837-2.386,2.115-2.386s2.116.892,2.116,2.386-.838,2.386-2.116,2.386-2.115-.891-2.115-2.386Zm.954,0c0,1.009.459,1.603,1.161,1.603s1.162-.594,1.162-1.603-.46-1.602-1.162-1.602-1.161.594-1.161,1.602Z"/><path class="aj" d="m468.379,91.875c.495-.837.621-1.701.621-3.304v-.504h3.016v3.808h.729l-.18,1.927h-.757v-1.144h-3.105v1.144h-.757l-.18-1.927h.612Zm1.558-2.89c0,1.062-.198,2.232-.559,2.89h1.702v-3.024h-1.144v.135Z"/><path class="aj" d="m473.6,92.658v-4.591h.936v3.061h.036l2.116-3.061h.837v4.591h-.937v-3.061h-.036l-2.115,3.061h-.837Z"/><path class="aj" d="m478.693,90.362c0-1.494.837-2.386,2.115-2.386s2.116.892,2.116,2.386-.838,2.386-2.116,2.386-2.115-.891-2.115-2.386Zm.954,0c0,1.009.459,1.603,1.161,1.603s1.162-.594,1.162-1.603-.46-1.602-1.162-1.602-1.161.594-1.161,1.602Z"/><path class="aj" d="m483.94,91.875c.495-.837.621-1.701.621-3.304v-.504h3.016v3.808h.729l-.18,1.927h-.757v-1.144h-3.105v1.144h-.757l-.18-1.927h.612Zm1.558-2.89c0,1.062-.198,2.232-.559,2.89h1.702v-3.024h-1.144v.135Z"/><path class="aj" d="m492.842,92.658h-.937v-1.972h-1.81v1.972h-.936v-4.591h.936v1.836h1.81v-1.836h.937v4.591Z"/><path class="aj" d="m496.631,89.958v-.307c0-.549-.234-.891-.91-.891-.414,0-.818.09-1.242.242l-.27-.729c.531-.198,1.044-.298,1.62-.298,1.404,0,1.737.738,1.737,1.693v1.926c0,.226.126.324.324.324h.1v.693c-.136.054-.36.09-.541.09-.423,0-.647-.252-.729-.531h-.036c-.333.334-.702.531-1.297.531-.873,0-1.422-.432-1.422-1.368,0-.873.72-1.377,1.737-1.377h.928Zm-.964.729c-.45,0-.774.252-.774.667s.307.611.676.611c.441,0,.792-.225,1.062-.566v-.712h-.964Z"/><path class="aj" d="m499.682,90.867c-.541-.217-.847-.685-.847-1.342,0-.892.604-1.458,1.594-1.458h1.81v4.591h-.937v-1.665h-.711l-.99,1.665h-1.071l1.152-1.791Zm.837-.648h.783v-1.368h-.783c-.45,0-.729.288-.729.693s.279.675.729.675Z"/><path class="aj" d="m505.648,91.794c.099.063.207.09.306.09.423,0,.657-.873.657-3.052v-.765h3.07v4.591h-.937v-3.808h-1.242v.198c0,2.448-.441,3.654-1.477,3.654-.252,0-.433-.054-.595-.162l.217-.747Z"/><path class="aj" d="m514.73,90.579h-2.917c.063.891.531,1.386,1.359,1.386.414,0,.811-.144,1.144-.314l.307.711c-.441.225-.955.387-1.54.387-1.351,0-2.232-.882-2.232-2.386,0-1.512.828-2.386,2.07-2.386,1.233,0,1.891.721,1.891,1.846,0,.234-.026.486-.081.757Zm-2.881-.729h2.125c0-.63-.342-1.089-1.035-1.089-.621,0-1.009.44-1.09,1.089Z"/><path class="aj" d="m519.661,92.658h-.937v-1.972h-1.81v1.972h-.937v-4.591h.937v1.836h1.81v-1.836h.937v4.591Z"/><path class="aj" d="m520.56,88.067h3.89l-.18.783h-1.324v3.808h-.927v-3.808h-1.459v-.783Z"/><path class="aj" d="m527.564,89.958v-.307c0-.549-.234-.891-.909-.891-.415,0-.819.09-1.243.242l-.27-.729c.531-.198,1.044-.298,1.62-.298,1.404,0,1.737.738,1.737,1.693v1.926c0,.226.126.324.324.324h.1v.693c-.136.054-.36.09-.54.09-.424,0-.648-.252-.729-.531h-.036c-.333.334-.702.531-1.297.531-.873,0-1.422-.432-1.422-1.368,0-.873.72-1.377,1.737-1.377h.928Zm-.964.729c-.45,0-.774.252-.774.667s.307.611.676.611c.44,0,.792-.225,1.062-.566v-.712h-.964Z"/><path class="aj" d="m503.143,129.331l2.341,3.321-1.116.09-2.079-2.935h-.469v2.845h-.972v-6.302h.972v2.629h.495l1.873-2.629h1.107l-2.152,2.98Z"/><path class="aj" d="m507.229,134.453l-.937.18v-6.571h.667l.18.485h.036c.324-.351.693-.576,1.306-.576,1.296,0,1.854,1.018,1.854,2.386s-.567,2.386-1.936,2.386c-.469,0-.838-.09-1.171-.242v1.953Zm2.152-4.097c0-.945-.379-1.602-1.171-1.602-.378,0-.702.225-.981.566v2.314c.288.207.612.323,1.018.323.711,0,1.135-.585,1.135-1.603Z"/><path class="aj" d="m515.113,130.573h-2.917c.063.891.531,1.386,1.359,1.386.414,0,.811-.144,1.144-.314l.307.711c-.441.225-.955.387-1.54.387-1.351,0-2.232-.882-2.232-2.386,0-1.512.828-2.386,2.07-2.386,1.233,0,1.891.721,1.891,1.846,0,.234-.026.486-.081.757Zm-2.881-.729h2.125c0-.63-.342-1.089-1.035-1.089-.621,0-1.009.44-1.09,1.089Z"/><path class="aj" d="m519.973,132.652h-.937v-3.808h-1.737v3.808h-.937v-4.591h3.61v4.591Z"/><path class="aj" d="m525.022,130.573h-2.917c.063.891.531,1.386,1.359,1.386.414,0,.811-.144,1.144-.314l.307.711c-.441.225-.955.387-1.54.387-1.351,0-2.232-.882-2.232-2.386,0-1.512.828-2.386,2.07-2.386,1.233,0,1.891.721,1.891,1.846,0,.234-.026.486-.081.757Zm-2.881-.729h2.125c0-.63-.342-1.089-1.035-1.089-.621,0-1.009.44-1.09,1.089Z"/><path class="aj" d="m530.197,130.275l1.566,2.377-1.009.09-1.296-2.079h-.279v1.989h-.909v-1.989h-.279l-1.233,1.989h-1.071l1.566-2.377-1.477-2.214h.964l1.215,1.854h.315v-1.854h.909v1.854h.315l1.215-1.854h.964l-1.477,2.214Z"/><path class="aj" d="m536.299,132.652h-.937v-1.972h-1.81v1.972h-.937v-4.591h.937v1.836h1.81v-1.836h.937v4.591Z"/><path class="aj" d="m540.088,129.952v-.307c0-.549-.234-.891-.909-.891-.415,0-.819.09-1.243.242l-.27-.729c.531-.198,1.044-.298,1.62-.298,1.404,0,1.737.738,1.737,1.693v1.926c0,.226.126.324.324.324h.1v.693c-.136.054-.36.09-.54.09-.424,0-.648-.252-.729-.531h-.036c-.333.334-.702.531-1.297.531-.873,0-1.422-.432-1.422-1.368,0-.873.72-1.377,1.737-1.377h.928Zm-.964.729c-.45,0-.774.252-.774.667s.307.611.676.611c.44,0,.792-.225,1.062-.566v-.712h-.964Z"/><path class="aj" d="m543.139,130.861c-.541-.217-.847-.685-.847-1.342,0-.892.604-1.458,1.594-1.458h1.81v4.591h-.937v-1.665h-.711l-.99,1.665h-1.071l1.152-1.791Zm.837-.648h.783v-1.368h-.783c-.45,0-.729.288-.729.693s.279.675.729.675Z"/><path class="aj" d="m549.41,131.869c.495-.837.621-1.701.621-3.304v-.504h3.016v3.808h.729l-.18,1.927h-.757v-1.144h-3.105v1.144h-.757l-.18-1.927h.612Zm1.558-2.89c0,1.062-.198,2.232-.559,2.89h1.702v-3.024h-1.144v.135Z"/><path class="aj" d="m558.195,130.573h-2.917c.063.891.531,1.386,1.359,1.386.414,0,.811-.144,1.144-.314l.307.711c-.441.225-.955.387-1.54.387-1.351,0-2.232-.882-2.232-2.386,0-1.512.828-2.386,2.07-2.386,1.233,0,1.891.721,1.891,1.846,0,.234-.026.486-.081.757Zm-2.881-.729h2.125c0-.63-.342-1.089-1.035-1.089-.621,0-1.009.44-1.09,1.089Z"/><path class="aj" d="m558.905,128.062h3.89l-.181.783h-1.323v3.808h-.927v-3.808h-1.459v-.783Z"/><path class="aj" d="m565.908,129.952v-.307c0-.549-.234-.891-.909-.891-.415,0-.819.09-1.243.242l-.27-.729c.531-.198,1.044-.298,1.62-.298,1.404,0,1.737.738,1.737,1.693v1.926c0,.226.126.324.324.324h.1v.693c-.136.054-.36.09-.54.09-.424,0-.648-.252-.729-.531h-.036c-.333.334-.702.531-1.297.531-.873,0-1.422-.432-1.422-1.368,0-.873.72-1.377,1.737-1.377h.928Zm-.964.729c-.45,0-.774.252-.774.667s.307.611.676.611c.44,0,.792-.225,1.062-.566v-.712h-.964Z"/><path class="aj" d="m567.888,131.788c.099.063.207.09.306.09.423,0,.657-.873.657-3.052v-.765h3.07v4.591h-.937v-3.808h-1.242v.198c0,2.448-.441,3.654-1.477,3.654-.252,0-.433-.054-.595-.162l.217-.747Z"/><path class="aj" d="m575.195,129.735c.99,0,1.639.54,1.639,1.468s-.648,1.449-1.639,1.449h-1.837v-4.591h.937v1.674h.9Zm-.9.783v1.351h.811c.478,0,.774-.252.774-.675s-.297-.676-.774-.676h-.811Z"/><path class="aj" d="m126.79,4.328l2.341,3.321-1.116.09-2.079-2.934h-.469v2.844h-.972V1.349h.972v2.629h.495l1.873-2.629h1.107l-2.152,2.979Z"/><path class="aj" d="m130.876,9.45l-.937.18V3.059h.667l.18.485h.036c.324-.351.693-.576,1.306-.576,1.296,0,1.854,1.018,1.854,2.387s-.567,2.385-1.936,2.385c-.469,0-.838-.09-1.171-.242v1.953Zm2.152-4.096c0-.945-.379-1.603-1.171-1.603-.378,0-.702.226-.981.567v2.313c.288.207.612.323,1.018.323.711,0,1.135-.584,1.135-1.602Z"/><path class="aj" d="m138.761,5.57h-2.917c.063.892.531,1.386,1.359,1.386.414,0,.811-.144,1.144-.314l.307.711c-.441.225-.955.387-1.54.387-1.351,0-2.232-.881-2.232-2.385,0-1.513.828-2.387,2.07-2.387,1.233,0,1.891.721,1.891,1.846,0,.234-.026.486-.081.757Zm-2.881-.729h2.125c0-.63-.342-1.089-1.035-1.089-.621,0-1.009.44-1.09,1.089Z"/><path class="aj" d="m143.62,7.649h-.937v-3.808h-1.737v3.808h-.937V3.059h3.61v4.591Z"/><path class="aj" d="m148.669,5.57h-2.917c.063.892.531,1.386,1.359,1.386.414,0,.811-.144,1.144-.314l.307.711c-.441.225-.955.387-1.54.387-1.351,0-2.232-.881-2.232-2.385,0-1.513.828-2.387,2.07-2.387,1.233,0,1.891.721,1.891,1.846,0,.234-.026.486-.081.757Zm-2.881-.729h2.125c0-.63-.342-1.089-1.035-1.089-.621,0-1.009.44-1.09,1.089Z"/><path class="aj" d="m153.845,5.272l1.566,2.377-1.009.09-1.296-2.079h-.279v1.989h-.909v-1.989h-.279l-1.233,1.989h-1.071l1.566-2.377-1.477-2.214h.964l1.215,1.854h.315v-1.854h.909v1.854h.315l1.215-1.854h.964l-1.477,2.214Z"/><path class="aj" d="m159.946,7.649h-.937v-1.971h-1.81v1.971h-.937V3.059h.937v1.837h1.81v-1.837h.937v4.591Z"/><path class="aj" d="m163.735,4.949v-.306c0-.55-.234-.892-.909-.892-.415,0-.819.09-1.243.243l-.27-.729c.531-.198,1.044-.298,1.62-.298,1.404,0,1.737.738,1.737,1.693v1.926c0,.226.126.324.324.324h.1v.693c-.136.055-.36.09-.54.09-.424,0-.648-.252-.729-.531h-.036c-.333.334-.702.531-1.297.531-.873,0-1.422-.432-1.422-1.367,0-.874.72-1.378,1.737-1.378h.928Zm-.964.729c-.45,0-.774.252-.774.666s.307.611.676.611c.44,0,.792-.225,1.062-.566v-.711h-.964Z"/><path class="aj" d="m166.786,5.858c-.541-.217-.847-.684-.847-1.342,0-.891.604-1.458,1.594-1.458h1.81v4.591h-.937v-1.665h-.711l-.99,1.665h-1.071l1.152-1.791Zm.837-.648h.783v-1.368h-.783c-.45,0-.729.288-.729.693s.279.675.729.675Z"/><path class="aj" d="m173.058,6.866c.495-.837.621-1.701.621-3.304v-.504h3.016v3.808h.729l-.18,1.928h-.757v-1.145h-3.105v1.145h-.757l-.18-1.928h.612Zm1.558-2.889c0,1.062-.198,2.232-.559,2.889h1.702v-3.024h-1.144v.136Z"/><path class="aj" d="m181.843,5.57h-2.917c.063.892.531,1.386,1.359,1.386.414,0,.811-.144,1.144-.314l.307.711c-.441.225-.955.387-1.54.387-1.351,0-2.232-.881-2.232-2.385,0-1.513.828-2.387,2.07-2.387,1.233,0,1.891.721,1.891,1.846,0,.234-.026.486-.081.757Zm-2.881-.729h2.125c0-.63-.342-1.089-1.035-1.089-.621,0-1.009.44-1.09,1.089Z"/><path class="aj" d="m182.553,3.059h3.89l-.181.783h-1.323v3.808h-.927v-3.808h-1.459v-.783Z"/><path class="aj" d="m189.556,4.949v-.306c0-.55-.234-.892-.909-.892-.415,0-.819.09-1.243.243l-.27-.729c.531-.198,1.044-.298,1.62-.298,1.404,0,1.737.738,1.737,1.693v1.926c0,.226.126.324.324.324h.1v.693c-.136.055-.36.09-.54.09-.424,0-.648-.252-.729-.531h-.036c-.333.334-.702.531-1.297.531-.873,0-1.422-.432-1.422-1.367,0-.874.72-1.378,1.737-1.378h.928Zm-.964.729c-.45,0-.774.252-.774.666s.307.611.676.611c.44,0,.792-.225,1.062-.566v-.711h-.964Z"/><path class="aj" d="m191.535,6.786c.099.062.207.09.306.09.423,0,.657-.873.657-3.053v-.765h3.07v4.591h-.937v-3.808h-1.242v.198c0,2.449-.441,3.654-1.477,3.654-.252,0-.433-.053-.595-.162l.217-.746Z"/><path class="aj" d="m198.843,4.733c.99,0,1.639.539,1.639,1.467s-.648,1.449-1.639,1.449h-1.837V3.059h.937v1.675h.9Zm-.9.783v1.35h.811c.478,0,.774-.252.774-.675s-.297-.675-.774-.675h-.811Z"/><path class="aj" d="m504.107,155.252v-.864c-.233.054-.441.09-.738.09-1.494,0-2.16-1.125-2.16-2.593,0-1.485.666-2.61,2.16-2.61.297,0,.505.035.738.09v-.864h.954v.864c.226-.055.441-.09.738-.09,1.495,0,2.161,1.125,2.161,2.61,0,1.468-.666,2.593-2.161,2.593-.297,0-.513-.036-.738-.09v.864h-.954Zm0-1.692v-3.367c-.188-.055-.342-.072-.603-.072-.892,0-1.297.774-1.297,1.756s.405,1.756,1.297,1.756c.261,0,.414-.019.603-.072Zm2.854-1.684c0-.981-.405-1.756-1.297-1.756-.261,0-.414.018-.604.072v3.367c.189.054.343.072.604.072.892,0,1.297-.775,1.297-1.756Z"/><path class="aj" d="m511.388,152.371v-.306c0-.55-.234-.892-.909-.892-.415,0-.819.09-1.243.243l-.27-.729c.531-.198,1.044-.297,1.62-.297,1.404,0,1.737.737,1.737,1.692v1.926c0,.226.126.324.324.324h.1v.693c-.136.055-.36.09-.54.09-.424,0-.648-.252-.729-.531h-.036c-.333.334-.702.531-1.297.531-.873,0-1.422-.432-1.422-1.367,0-.874.72-1.378,1.737-1.378h.928Zm-.964.729c-.45,0-.774.252-.774.666s.307.611.676.611c.44,0,.792-.225,1.062-.566v-.711h-.964Z"/><path class="aj" d="m516.68,154.181l.288.721c-.387.17-.792.26-1.261.26-1.485,0-2.241-1.062-2.241-2.385s.711-2.386,2.196-2.386c.433,0,.874.081,1.261.243l-.288.72c-.307-.126-.604-.18-.918-.18-.774,0-1.297.647-1.297,1.603s.514,1.602,1.287,1.602c.315,0,.667-.071.973-.197Z"/><path class="aj" d="m520.307,152.371v-.306c0-.55-.234-.892-.91-.892-.414,0-.818.09-1.242.243l-.27-.729c.531-.198,1.044-.297,1.62-.297,1.404,0,1.737.737,1.737,1.692v1.926c0,.226.126.324.324.324h.1v.693c-.136.055-.36.09-.541.09-.423,0-.647-.252-.729-.531h-.036c-.333.334-.702.531-1.297.531-.873,0-1.422-.432-1.422-1.367,0-.874.72-1.378,1.737-1.378h.928Zm-.964.729c-.45,0-.774.252-.774.666s.307.611.676.611c.441,0,.792-.225,1.062-.566v-.711h-.964Z"/><path class="aj" d="m522.592,154.288c.495-.837.621-1.701.621-3.304v-.504h3.016v3.808h.729l-.18,1.928h-.757v-1.145h-3.105v1.145h-.757l-.18-1.928h.612Zm1.558-2.89c0,1.062-.198,2.233-.559,2.89h1.702v-3.024h-1.144v.135Z"/><line class="z" x1="271.534" y1="137.29" x2="482.258" y2="137.29"/></g><g id="f"><g id="g"><path id="i" class="ap" d="m3.882,227.477c13.126,7.61,26.252,15.22,39.378,22.83-.258.768-.516,1.537-.774,2.305L2.587,229.576c-.074-.155-.257-.596-.125-1.121.029-.115.208-.828.809-1,.253-.073.482-.021.612.021Z"/></g><g id="j"><path id="l" class="aq" d="m73.97,27.887c13.126,7.61,26.252,15.22,39.378,22.83-.258.768-.516,1.537-.774,2.305l-39.899-23.036c-.074-.155-.257-.596-.125-1.121.029-.115.208-.828.809-1,.253-.073.482-.021.612.021Z"/></g><g id="m"><path id="o" class="ar" d="m1.467,68.798c13.126,7.61,26.252,15.22,39.378,22.83-.258.768-.516,1.537-.774,2.305L.172,70.897c-.074-.155-.257-.596-.125-1.121.029-.115.208-.828.809-1,.253-.073.482-.021.612.021Z"/></g><path class="ac" d="m23.509,247.006l-12.16-7.021c-.362-.209-.637-.563-.725-1.014-.538-2.766.272-5.726,2.13-7.659,1.188-1.235,2.517-1.751,3.393-1.974.414-.105.822-.055,1.163.142l12.237,7.065c.815.47,1.018,1.643.455,2.619l-3.997,6.924c-.564.976-1.681,1.386-2.496.916Z"/><path class="ad" d="m22.05,89.099l-12.16-7.021c-.362-.209-.637-.563-.725-1.014-.538-2.766.272-5.726,2.13-7.659,1.188-1.235,2.517-1.751,3.393-1.974.414-.105.822-.055,1.163.142l12.237,7.065c.815.47,1.018,1.643.455,2.619l-3.997,6.924c-.564.976-1.681,1.386-2.496.916Z"/><path class="ab" d="m93.745,47.656l-12.16-7.021c-.362-.209-.637-.563-.725-1.014-.538-2.766.272-5.726,2.13-7.659,1.188-1.235,2.517-1.751,3.393-1.974.414-.105.822-.055,1.163.142l12.237,7.065c.815.47,1.018,1.643.455,2.619l-3.997,6.924c-.564.976-1.681,1.386-2.496.916Z"/><g id="s"><path id="u" class="ao" d="m73.97,186.185c13.126,7.61,26.252,15.22,39.378,22.83-.258.768-.516,1.537-.774,2.305l-39.899-23.036c-.074-.155-.257-.596-.125-1.121.029-.115.208-.828.809-1,.253-.073.482-.021.612.021Z"/></g><path class="aa" d="m94.096,206.176l-12.16-7.021c-.362-.209-.637-.563-.725-1.014-.538-2.766.272-5.726,2.13-7.659,1.188-1.235,2.517-1.751,3.393-1.974.414-.105.822-.055,1.163.142l12.237,7.065c.815.47,1.018,1.643.455,2.619l-3.997,6.924c-.564.976-1.681,1.386-2.496.916Z"/><path class="aj" d="m159.23,89.032c-1.873,0-2.611-1.423-2.611-3.241s.738-3.241,2.611-3.241,2.61,1.423,2.61,3.241-.738,3.241-2.61,3.241Zm0-5.618c-1.152,0-1.603,1.045-1.603,2.377s.45,2.377,1.603,2.377,1.603-1.044,1.603-2.377-.45-2.377-1.603-2.377Z"/><path class="aj" d="m166.042,88.051l.288.721c-.387.171-.792.261-1.261.261-1.485,0-2.241-1.062-2.241-2.386s.711-2.386,2.196-2.386c.433,0,.874.081,1.261.243l-.288.72c-.306-.126-.604-.18-.918-.18-.774,0-1.297.648-1.297,1.603s.514,1.603,1.287,1.603c.315,0,.667-.072.973-.198Z"/><path class="aj" d="m171.001,88.942h-.937v-1.972h-1.81v1.972h-.937v-4.592h.937v1.837h1.81v-1.837h.937v4.592Z"/><path class="aj" d="m172.17,86.646c0-1.494.837-2.386,2.115-2.386s2.116.892,2.116,2.386-.838,2.386-2.116,2.386-2.115-.892-2.115-2.386Zm.954,0c0,1.008.459,1.603,1.161,1.603s1.162-.595,1.162-1.603-.46-1.603-1.162-1.603-1.161.594-1.161,1.603Z"/><path class="aj" d="m181.135,87.619c0,.828-.522,1.323-1.566,1.323h-1.998v-4.592h1.854c.918,0,1.521.343,1.521,1.171,0,.495-.369.882-.784.98v.027c.441.1.973.423.973,1.09Zm-2.629-2.485v1.045h.738c.423,0,.747-.136.747-.522,0-.405-.288-.522-.684-.522h-.802Zm0,1.828v1.197h.909c.478,0,.766-.189.766-.595s-.315-.603-.855-.603h-.819Z"/><path class="aj" d="m184.654,86.241v-.306c0-.55-.234-.892-.91-.892-.414,0-.818.09-1.242.243l-.27-.729c.531-.198,1.044-.297,1.62-.297,1.404,0,1.737.738,1.737,1.692v1.927c0,.225.126.324.324.324h.1v.693c-.136.054-.36.09-.541.09-.423,0-.647-.252-.729-.531h-.036c-.333.333-.702.531-1.297.531-.873,0-1.422-.433-1.422-1.368,0-.874.72-1.378,1.737-1.378h.928Zm-.964.729c-.45,0-.774.252-.774.666s.307.612.676.612c.441,0,.792-.226,1.062-.567v-.711h-.964Z"/><path class="aj" d="m191.502,83.343c-.999.071-1.485.423-1.485,1.737h.027c.396-.414.864-.595,1.458-.595,1.125,0,1.899.748,1.899,2.278,0,1.494-.892,2.269-2.17,2.269-1.485,0-2.115-1.107-2.115-2.944,0-2.898.811-3.43,2.296-3.564.675-.063,1.026-.145,1.494-.333l.279.747c-.495.243-1.099.36-1.684.405Zm-.271,4.906c.702,0,1.216-.486,1.216-1.485s-.468-1.494-1.107-1.494c-.459,0-.945.233-1.287.783,0,1.467.369,2.196,1.179,2.196Z"/><path class="aj" d="m194.535,90.022c.135.054.306.117.495.117.207,0,.44-.1.567-.531l.197-.666h-.333l-1.611-4.592h1.026l1.188,3.521h.036l1.062-3.521h1.008l-1.765,5.474c-.288.883-.828,1.099-1.323,1.099-.324,0-.594-.09-.792-.171l.243-.729Z"/><path class="aj" d="m201.133,86.565l1.521,2.377-.954.09-1.323-2.08h-.505v1.99h-.937v-4.592h.937v1.854h.514l1.206-1.854h.973l-1.432,2.215Z"/><path class="aj" d="m207.027,87.619c0,.828-.522,1.323-1.566,1.323h-1.998v-4.592h1.854c.918,0,1.521.343,1.521,1.171,0,.495-.369.882-.784.98v.027c.441.1.973.423.973,1.09Zm-2.629-2.485v1.045h.738c.423,0,.747-.136.747-.522,0-.405-.288-.522-.684-.522h-.802Zm0,1.828v1.197h.909c.478,0,.766-.189.766-.595s-.315-.603-.855-.603h-.819Z"/><path class="aj" d="m209.133,86.025h.819c.99,0,1.639.54,1.639,1.468s-.648,1.449-1.639,1.449h-1.755v-4.592h.936v1.675Zm0,.783v1.351h.729c.478,0,.774-.252.774-.676s-.297-.675-.774-.675h-.729Zm4.069,2.134h-.937v-4.592h.937v4.592Z"/><path class="al" d="m159.742,98.851l.288.721c-.387.171-.792.261-1.261.261-1.485,0-2.241-1.062-2.241-2.386s.711-2.386,2.196-2.386c.433,0,.874.081,1.261.243l-.288.72c-.307-.126-.604-.18-.918-.18-.774,0-1.297.648-1.297,1.603s.514,1.603,1.287,1.603c.315,0,.667-.072.973-.198Z"/><path class="al" d="m163.368,100.822c.135.054.306.117.495.117.207,0,.44-.1.567-.531l.197-.666h-.333l-1.611-4.592h1.026l1.188,3.521h.036l1.062-3.521h1.008l-1.765,5.474c-.288.883-.828,1.099-1.323,1.099-.324,0-.594-.09-.792-.171l.243-.729Z"/><path class="al" d="m170.623,98.851l.288.721c-.387.171-.792.261-1.261.261-1.485,0-2.241-1.062-2.241-2.386s.711-2.386,2.196-2.386c.433,0,.874.081,1.261.243l-.288.72c-.307-.126-.604-.18-.918-.18-.774,0-1.297.648-1.297,1.603s.514,1.603,1.287,1.603c.315,0,.667-.072.973-.198Z"/><path class="al" d="m171.36,95.15h3.89l-.181.783h-1.323v3.809h-.927v-3.809h-1.459v-.783Z"/><path class="al" d="m178.363,97.041v-.306c0-.55-.234-.892-.91-.892-.414,0-.818.09-1.242.243l-.27-.729c.531-.198,1.044-.297,1.62-.297,1.404,0,1.737.738,1.737,1.692v1.927c0,.225.126.324.324.324h.1v.693c-.136.054-.36.09-.541.09-.423,0-.647-.252-.729-.531h-.036c-.333.333-.702.531-1.297.531-.873,0-1.422-.433-1.422-1.368,0-.874.72-1.378,1.737-1.378h.928Zm-.964.729c-.45,0-.774.252-.774.666s.307.612.676.612c.441,0,.792-.226,1.062-.567v-.711h-.964Z"/><path class="al" d="m184.394,99.742h-.937v-1.972h-1.81v1.972h-.937v-4.592h.937v1.837h1.81v-1.837h.937v4.592Z"/><path class="al" d="m185.562,97.446c0-1.494.837-2.386,2.115-2.386s2.116.892,2.116,2.386-.838,2.386-2.116,2.386-2.115-.892-2.115-2.386Zm.954,0c0,1.008.459,1.603,1.161,1.603s1.162-.595,1.162-1.603-.46-1.603-1.162-1.603-1.161.594-1.161,1.603Z"/><path class="al" d="m194.527,98.419c0,.828-.522,1.323-1.566,1.323h-1.999v-4.592h1.855c.918,0,1.521.343,1.521,1.171,0,.495-.369.882-.783.98v.027c.44.1.972.423.972,1.09Zm-2.629-2.485v1.045h.738c.423,0,.747-.136.747-.522,0-.405-.288-.522-.684-.522h-.802Zm0,1.828v1.197h.909c.478,0,.766-.189.766-.595s-.315-.603-.855-.603h-.819Z"/><path class="al" d="m195.327,98.878c.099.062.207.09.306.09.423,0,.657-.873.657-3.052v-.766h3.07v4.592h-.937v-3.809h-1.242v.198c0,2.449-.441,3.655-1.477,3.655-.252,0-.433-.054-.595-.162l.217-.747Z"/><path class="al" d="m204.408,97.662h-2.917c.063.892.531,1.387,1.359,1.387.414,0,.811-.145,1.144-.315l.307.712c-.441.225-.955.387-1.54.387-1.351,0-2.232-.882-2.232-2.386,0-1.513.828-2.386,2.07-2.386,1.233,0,1.891.721,1.891,1.846,0,.234-.026.486-.081.756Zm-2.881-.729h2.125c0-.631-.342-1.09-1.035-1.09-.621,0-1.009.441-1.09,1.09Z"/><path class="al" d="m209.341,99.742h-.937v-1.972h-1.81v1.972h-.937v-4.592h.937v1.837h1.81v-1.837h.937v4.592Z"/><path class="al" d="m214.462,99.742h-.937v-1.972h-1.81v1.972h-.937v-4.592h.937v1.837h1.81v-1.837h.937v4.592Z"/><path class="al" d="m216.836,96.825h.819c.99,0,1.639.54,1.639,1.468s-.648,1.449-1.639,1.449h-1.755v-4.592h.936v1.675Zm0,.783v1.351h.729c.478,0,.774-.252.774-.676s-.297-.675-.774-.675h-.729Zm4.069,2.134h-.937v-4.592h.937v4.592Z"/><path class="al" d="m225.171,98.995h-.972l-.9-2.503h-.036l-.262,3.25h-.927l.441-4.592h1.071l1.08,2.936h.036l1.08-2.936h1.071l.441,4.592h-.928l-.261-3.25h-.036l-.9,2.503Z"/><path class="al" d="m228.465,99.742v-4.592h.936v3.062h.036l2.116-3.062h.837v4.592h-.937v-3.062h-.036l-2.115,3.062h-.837Z"/><path class="al" d="m160.481,110.542h-.937v-1.972h-1.81v1.972h-.936v-4.591h.936v1.836h1.81v-1.836h.937v4.591Z"/><path class="al" d="m164.27,107.842v-.307c0-.549-.234-.891-.91-.891-.414,0-.818.09-1.242.242l-.27-.729c.531-.198,1.044-.297,1.62-.297,1.404,0,1.737.737,1.737,1.692v1.926c0,.226.126.324.324.324h.1v.693c-.136.054-.36.09-.541.09-.423,0-.647-.252-.729-.531h-.036c-.333.334-.702.531-1.297.531-.873,0-1.422-.432-1.422-1.368,0-.873.72-1.377,1.737-1.377h.928Zm-.964.729c-.45,0-.774.252-.774.667s.307.611.676.611c.441,0,.792-.225,1.062-.566v-.712h-.964Z"/><path class="al" d="m168.688,108.246c0-1.494.837-2.385,2.115-2.385s2.116.891,2.116,2.385-.838,2.386-2.116,2.386-2.115-.891-2.115-2.386Zm.954,0c0,1.009.459,1.603,1.161,1.603s1.162-.594,1.162-1.603-.46-1.602-1.162-1.602-1.161.594-1.161,1.602Z"/><path class="al" d="m176.248,104.942c-.999.072-1.485.423-1.485,1.737h.027c.396-.414.864-.594,1.458-.594,1.125,0,1.899.747,1.899,2.277,0,1.495-.892,2.269-2.17,2.269-1.485,0-2.115-1.106-2.115-2.943,0-2.899.811-3.43,2.296-3.565.675-.062,1.026-.144,1.494-.333l.279.747c-.495.243-1.099.36-1.684.405Zm-.271,4.906c.702,0,1.216-.485,1.216-1.485s-.468-1.494-1.107-1.494c-.459,0-.945.234-1.287.783,0,1.468.369,2.196,1.179,2.196Z"/><path class="al" d="m180.297,112.343l-.936.18v-6.571h.666l.18.486h.036c.324-.352.693-.576,1.306-.576,1.296,0,1.854,1.017,1.854,2.385s-.567,2.386-1.936,2.386c-.469,0-.838-.09-1.171-.242v1.953Zm2.152-4.097c0-.944-.379-1.602-1.171-1.602-.378,0-.702.225-.981.566v2.314c.288.207.612.323,1.018.323.711,0,1.135-.585,1.135-1.603Z"/><path class="al" d="m186.922,107.842v-.307c0-.549-.234-.891-.91-.891-.414,0-.818.09-1.242.242l-.27-.729c.531-.198,1.044-.297,1.62-.297,1.404,0,1.737.737,1.737,1.692v1.926c0,.226.126.324.324.324h.1v.693c-.136.054-.36.09-.541.09-.423,0-.647-.252-.729-.531h-.036c-.333.334-.702.531-1.297.531-.873,0-1.422-.432-1.422-1.368,0-.873.72-1.377,1.737-1.377h.928Zm-.964.729c-.45,0-.774.252-.774.667s.307.611.676.611c.441,0,.792-.225,1.062-.566v-.712h-.964Z"/><path class="al" d="m188.73,105.951h3.89l-.18.783h-1.324v3.808h-.927v-3.808h-1.459v-.783Z"/><path class="al" d="m197.155,110.542h-.937v-1.972h-1.81v1.972h-.937v-4.591h.937v1.836h1.81v-1.836h.937v4.591Z"/><path class="al" d="m198.323,108.246c0-1.494.837-2.385,2.115-2.385s2.116.891,2.116,2.385-.838,2.386-2.116,2.386-2.115-.891-2.115-2.386Zm.954,0c0,1.009.459,1.603,1.161,1.603s1.162-.594,1.162-1.603-.46-1.602-1.162-1.602-1.161.594-1.161,1.602Z"/><path class="al" d="m203.723,110.542v-4.591h.937v3.061h.036l2.116-3.061h.837v4.591h-.937v-3.061h-.036l-2.115,3.061h-.838Zm3.448-6.131c-.324.567-.854.847-1.485.847-.639,0-1.161-.288-1.485-.847l.595-.396c.197.378.513.585.891.585s.685-.198.883-.585l.603.396Z"/><path class="al" d="m214.371,109.651l.288.72c-.387.171-.792.261-1.261.261-1.485,0-2.241-1.062-2.241-2.386s.711-2.385,2.196-2.385c.433,0,.874.08,1.261.242l-.288.721c-.307-.126-.604-.18-.918-.18-.774,0-1.297.647-1.297,1.602s.514,1.603,1.287,1.603c.315,0,.667-.071.973-.197Z"/><path class="al" d="m215.108,105.951h3.89l-.181.783h-1.323v3.808h-.927v-3.808h-1.459v-.783Z"/><path class="al" d="m219.446,108.246c0-1.494.837-2.385,2.115-2.385s2.116.891,2.116,2.385-.838,2.386-2.116,2.386-2.115-.891-2.115-2.386Zm.954,0c0,1.009.459,1.603,1.161,1.603s1.162-.594,1.162-1.603-.46-1.602-1.162-1.602-1.161.594-1.161,1.602Z"/><path class="al" d="m225.782,112.343l-.937.18v-6.571h.667l.18.486h.036c.324-.352.693-.576,1.306-.576,1.296,0,1.854,1.017,1.854,2.385s-.567,2.386-1.936,2.386c-.469,0-.838-.09-1.171-.242v1.953Zm2.152-4.097c0-.944-.379-1.602-1.171-1.602-.378,0-.702.225-.981.566v2.314c.288.207.612.323,1.018.323.711,0,1.135-.585,1.135-1.603Z"/><path class="al" d="m229.787,108.246c0-1.494.837-2.385,2.115-2.385s2.116.891,2.116,2.385-.838,2.386-2.116,2.386-2.115-.891-2.115-2.386Zm.954,0c0,1.009.459,1.603,1.161,1.603s1.162-.594,1.162-1.603-.46-1.602-1.162-1.602-1.161.594-1.161,1.602Z"/><path class="al" d="m238.869,110.542h-.937v-1.972h-1.81v1.972h-.936v-4.591h.936v1.836h1.81v-1.836h.937v4.591Z"/><path class="al" d="m243.918,108.463h-2.917c.063.891.531,1.386,1.359,1.386.414,0,.811-.144,1.144-.314l.307.711c-.441.226-.955.387-1.54.387-1.351,0-2.232-.882-2.232-2.386,0-1.512.828-2.385,2.07-2.385,1.233,0,1.891.72,1.891,1.845,0,.234-.026.486-.081.757Zm-2.881-.729h2.125c0-.63-.342-1.089-1.035-1.089-.621,0-1.009.44-1.09,1.089Z"/><path class="al" d="m159.742,120.451l.288.72c-.387.171-.792.261-1.261.261-1.485,0-2.241-1.062-2.241-2.386s.711-2.385,2.196-2.385c.433,0,.874.08,1.261.242l-.288.721c-.307-.126-.604-.18-.918-.18-.774,0-1.297.647-1.297,1.602s.514,1.603,1.287,1.603c.315,0,.667-.071.973-.197Z"/><path class="al" d="m164.584,120.019c0,.828-.522,1.323-1.566,1.323h-1.998v-4.591h1.854c.918,0,1.521.342,1.521,1.17,0,.495-.369.883-.784.981v.027c.441.099.973.423.973,1.089Zm-2.629-2.484v1.044h.738c.423,0,.747-.135.747-.522,0-.404-.288-.521-.684-.521h-.802Zm0,1.827v1.197h.909c.478,0,.766-.188.766-.594s-.315-.604-.855-.604h-.819Z"/><path class="al" d="m169.363,119.263h-2.917c.063.891.531,1.386,1.359,1.386.414,0,.811-.144,1.144-.314l.307.711c-.441.226-.955.387-1.54.387-1.351,0-2.232-.882-2.232-2.386,0-1.512.828-2.385,2.07-2.385,1.233,0,1.891.72,1.891,1.845,0,.234-.026.486-.081.757Zm-2.881-.729h2.125c0-.63-.342-1.089-1.035-1.089-.621,0-1.009.44-1.09,1.089Z"/><path class="al" d="m170.072,116.751h3.89l-.181.783h-1.323v3.808h-.927v-3.808h-1.459v-.783Z"/><path class="al" d="m174.411,119.046c0-1.494.837-2.385,2.115-2.385s2.116.891,2.116,2.385-.838,2.386-2.116,2.386-2.115-.891-2.115-2.386Zm.954,0c0,1.009.459,1.603,1.161,1.603s1.162-.594,1.162-1.603-.46-1.602-1.162-1.602-1.161.594-1.161,1.602Z"/><path class="al" d="m179.658,120.559c.495-.837.621-1.701.621-3.304v-.504h3.016v3.808h.729l-.18,1.927h-.757v-1.144h-3.105v1.144h-.757l-.18-1.927h.612Zm1.558-2.89c0,1.062-.198,2.232-.559,2.89h1.702v-3.024h-1.144v.135Z"/><path class="al" d="m184.879,121.342v-4.591h.936v3.061h.036l2.116-3.061h.837v4.591h-.937v-3.061h-.036l-2.115,3.061h-.837Z"/><path class="al" d="m189.972,119.046c0-1.494.837-2.385,2.115-2.385s2.116.891,2.116,2.385-.838,2.386-2.116,2.386-2.115-.891-2.115-2.386Zm.954,0c0,1.009.459,1.603,1.161,1.603s1.162-.594,1.162-1.603-.46-1.602-1.162-1.602-1.161.594-1.161,1.602Z"/><path class="al" d="m195.219,120.559c.495-.837.621-1.701.621-3.304v-.504h3.016v3.808h.729l-.18,1.927h-.757v-1.144h-3.105v1.144h-.757l-.18-1.927h.612Zm1.558-2.89c0,1.062-.198,2.232-.559,2.89h1.702v-3.024h-1.144v.135Z"/><path class="al" d="m204.121,121.342h-.937v-1.972h-1.81v1.972h-.936v-4.591h.936v1.836h1.81v-1.836h.937v4.591Z"/><path class="al" d="m206.496,118.425h.819c.99,0,1.639.541,1.639,1.468s-.648,1.449-1.639,1.449h-1.755v-4.591h.936v1.674Zm0,.783v1.351h.729c.478,0,.774-.252.774-.675s-.297-.676-.774-.676h-.729Zm4.069,2.134h-.937v-4.591h.937v4.591Z"/><path class="al" d="m214.83,120.595h-.972l-.9-2.503h-.036l-.262,3.25h-.927l.441-4.591h1.071l1.08,2.935h.036l1.08-2.935h1.071l.441,4.591h-.928l-.261-3.25h-.036l-.9,2.503Z"/><path class="al" d="m218.123,121.342v-4.591h.937v3.061h.036l2.116-3.061h.837v4.591h-.937v-3.061h-.036l-2.115,3.061h-.838Z"/><path class="al" d="m159.625,131.396h-.972l-.9-2.503h-.036l-.262,3.25h-.927l.441-4.592h1.071l1.08,2.936h.036l1.08-2.936h1.071l.441,4.592h-.928l-.261-3.25h-.036l-.9,2.503Z"/><path class="al" d="m162.649,129.847c0-1.494.837-2.386,2.115-2.386s2.116.892,2.116,2.386-.838,2.386-2.116,2.386-2.115-.892-2.115-2.386Zm.954,0c0,1.008.459,1.603,1.161,1.603s1.162-.595,1.162-1.603-.46-1.603-1.162-1.603-1.161.594-1.161,1.603Z"/><path class="al" d="m167.896,131.359c.495-.838.621-1.702.621-3.305v-.504h3.016v3.809h.729l-.18,1.927h-.757v-1.144h-3.105v1.144h-.757l-.18-1.927h.612Zm1.558-2.89c0,1.062-.198,2.232-.559,2.89h1.702v-3.025h-1.144v.136Z"/><path class="al" d="m173.124,133.223c.135.054.306.117.495.117.207,0,.44-.1.567-.531l.197-.666h-.333l-1.611-4.592h1.026l1.188,3.521h.036l1.062-3.521h1.008l-1.765,5.474c-.288.883-.828,1.099-1.323,1.099-.324,0-.594-.09-.792-.171l.243-.729Z"/><path class="al" d="m176.977,131.278c.099.062.207.09.306.09.423,0,.657-.873.657-3.052v-.766h3.07v4.592h-.937v-3.809h-1.242v.198c0,2.449-.441,3.655-1.477,3.655-.252,0-.433-.054-.595-.162l.217-.747Z"/><path class="al" d="m183.151,130.351c-.541-.216-.847-.684-.847-1.341,0-.892.604-1.459,1.594-1.459h1.81v4.592h-.937v-1.666h-.711l-.99,1.666h-1.071l1.152-1.792Zm.837-.648h.783v-1.368h-.783c-.45,0-.729.288-.729.693s.279.675.729.675Z"/><path class="al" d="m189.973,131.396h-.972l-.9-2.503h-.036l-.262,3.25h-.927l.441-4.592h1.071l1.08,2.936h.036l1.08-2.936h1.071l.441,4.592h-.928l-.261-3.25h-.036l-.9,2.503Z"/><path class="al" d="m193.266,132.143v-4.592h.937v3.062h.036l2.116-3.062h.837v4.592h-.937v-3.062h-.036l-2.115,3.062h-.838Z"/><path class="aj" d="m161.254,52.168v6.302h-.972v-5.438h-1.621c0,3.718-.44,5.482-1.81,5.482-.27,0-.459-.063-.594-.126l.18-.819c.072.036.153.062.271.062.72,0,.981-1.584.981-5.464h3.564Z"/><path class="aj" d="m162.783,58.47v-4.592h.936v3.062h.036l2.116-3.062h.837v4.592h-.937v-3.062h-.036l-2.115,3.062h-.837Z"/><path class="aj" d="m172.297,59.613h-.756v-1.144h-3.395v-4.592h.937v3.809h1.729v-3.809h.937v3.809h.729l-.181,1.927Z"/><path class="aj" d="m176.896,56.39h-2.917c.063.892.531,1.387,1.359,1.387.414,0,.811-.145,1.144-.315l.307.712c-.441.225-.955.387-1.54.387-1.351,0-2.232-.882-2.232-2.386,0-1.513.828-2.386,2.07-2.386,1.233,0,1.891.721,1.891,1.846,0,.234-.026.486-.081.756Zm-2.881-.729h2.125c0-.631-.342-1.09-1.035-1.09-.621,0-1.009.441-1.09,1.09Z"/><path class="aj" d="m181.711,57.146c0,.828-.522,1.323-1.566,1.323h-1.998v-4.592h1.854c.918,0,1.521.343,1.521,1.171,0,.495-.369.882-.784.98v.027c.441.1.973.423.973,1.09Zm-2.629-2.485v1.045h.738c.423,0,.747-.136.747-.522,0-.405-.288-.522-.684-.522h-.802Zm0,1.828v1.197h.909c.478,0,.766-.189.766-.595s-.315-.603-.855-.603h-.819Z"/><path class="aj" d="m185.23,55.769v-.306c0-.55-.234-.892-.909-.892-.415,0-.819.09-1.243.243l-.27-.729c.531-.198,1.044-.297,1.62-.297,1.404,0,1.737.738,1.737,1.692v1.927c0,.225.126.324.324.324h.1v.693c-.136.054-.36.09-.54.09-.424,0-.648-.252-.729-.531h-.036c-.333.333-.702.531-1.297.531-.873,0-1.422-.433-1.422-1.368,0-.874.72-1.378,1.737-1.378h.928Zm-.964.729c-.45,0-.774.252-.774.666s.307.612.676.612c.44,0,.792-.226,1.062-.567v-.711h-.964Z"/><path class="aj" d="m188.28,56.678c-.541-.216-.847-.684-.847-1.341,0-.892.604-1.459,1.594-1.459h1.81v4.592h-.937v-1.666h-.711l-.99,1.666h-1.071l1.152-1.792Zm.837-.648h.783v-1.368h-.783c-.45,0-.729.288-.729.693s.279.675.729.675Z"/><path class="aj" d="m194.346,55.301v-1.423h.937v1.342c0,.549.342.783.792.783.351,0,.621-.072.873-.162v-1.963h.937v4.592h-.937v-1.873c-.252.1-.639.189-1.018.189-.909,0-1.584-.478-1.584-1.485Z"/><path class="aj" d="m201.673,55.769v-.306c0-.55-.234-.892-.909-.892-.415,0-.819.09-1.243.243l-.27-.729c.531-.198,1.044-.297,1.62-.297,1.404,0,1.737.738,1.737,1.692v1.927c0,.225.126.324.324.324h.1v.693c-.136.054-.36.09-.54.09-.424,0-.648-.252-.729-.531h-.036c-.333.333-.702.531-1.297.531-.873,0-1.422-.433-1.422-1.368,0-.874.72-1.378,1.737-1.378h.928Zm-.964.729c-.45,0-.774.252-.774.666s.307.612.676.612c.44,0,.792-.226,1.062-.567v-.711h-.964Z"/><path class="aj" d="m206.964,57.578l.288.721c-.387.171-.792.261-1.261.261-1.485,0-2.241-1.062-2.241-2.386s.711-2.386,2.196-2.386c.433,0,.874.081,1.261.243l-.288.72c-.306-.126-.604-.18-.918-.18-.774,0-1.297.648-1.297,1.603s.514,1.603,1.287,1.603c.315,0,.667-.072.973-.198Z"/><path class="aj" d="m207.7,53.878h3.89l-.18.783h-1.324v3.809h-.927v-3.809h-1.459v-.783Z"/><path class="aj" d="m214.28,55.553c.99,0,1.639.54,1.639,1.468s-.648,1.449-1.639,1.449h-1.837v-4.592h.937v1.675h.9Zm-.9.783v1.351h.811c.478,0,.774-.252.774-.676s-.297-.675-.774-.675h-.811Z"/><path class="aj" d="m221.408,52.87c-.999.071-1.485.423-1.485,1.737h.027c.396-.414.864-.595,1.458-.595,1.125,0,1.899.748,1.899,2.278,0,1.494-.892,2.269-2.17,2.269-1.485,0-2.115-1.107-2.115-2.944,0-2.898.811-3.43,2.296-3.564.675-.063,1.026-.145,1.494-.333l.279.747c-.495.243-1.099.36-1.684.405Zm-.271,4.906c.702,0,1.216-.486,1.216-1.485s-.468-1.494-1.107-1.494c-.459,0-.945.233-1.287.783,0,1.467.369,2.196,1.179,2.196Z"/><path class="aj" d="m224.442,59.55c.135.054.306.117.495.117.207,0,.44-.1.567-.531l.197-.666h-.333l-1.611-4.592h1.026l1.188,3.521h.036l1.062-3.521h1.008l-1.765,5.474c-.288.883-.828,1.099-1.323,1.099-.324,0-.594-.09-.792-.171l.243-.729Z"/><path class="aj" d="m231.039,56.093l1.521,2.377-.954.09-1.323-2.08h-.505v1.99h-.937v-4.592h.937v1.854h.514l1.206-1.854h.973l-1.432,2.215Z"/><path class="aj" d="m236.934,57.146c0,.828-.522,1.323-1.566,1.323h-1.998v-4.592h1.854c.918,0,1.521.343,1.521,1.171,0,.495-.369.882-.784.98v.027c.441.1.973.423.973,1.09Zm-2.629-2.485v1.045h.738c.423,0,.747-.136.747-.522,0-.405-.288-.522-.684-.522h-.802Zm0,1.828v1.197h.909c.478,0,.766-.189.766-.595s-.315-.603-.855-.603h-.819Z"/><path class="aj" d="m239.039,55.553h.819c.99,0,1.639.54,1.639,1.468s-.648,1.449-1.639,1.449h-1.755v-4.592h.936v1.675Zm0,.783v1.351h.729c.478,0,.774-.252.774-.676s-.297-.675-.774-.675h-.729Zm4.069,2.134h-.937v-4.592h.937v4.592Z"/><path class="aj" d="m156.258,155.071l2.107-6.302h.963l2.106,6.302h-1.035l-.45-1.467h-2.215l-.44,1.467h-1.036Zm2.611-5.015h-.045l-.838,2.71h1.711l-.828-2.71Z"/><path class="aj" d="m166.016,155.071h-.937v-1.972h-1.81v1.972h-.936v-4.592h.936v1.837h1.81v-1.837h.937v4.592Z"/><path class="aj" d="m169.652,152.694l1.521,2.377-.954.09-1.324-2.08h-.504v1.99h-.936v-4.592h.936v1.855h.514l1.206-1.855h.973l-1.432,2.215Z"/><path class="aj" d="m175.501,152.991h-2.917c.063.892.531,1.387,1.359,1.387.414,0,.811-.145,1.144-.314l.307.711c-.441.225-.955.387-1.54.387-1.351,0-2.232-.882-2.232-2.386,0-1.513.828-2.386,2.07-2.386,1.233,0,1.891.721,1.891,1.846,0,.234-.026.486-.081.756Zm-2.881-.729h2.125c0-.631-.342-1.09-1.035-1.09-.621,0-1.009.441-1.09,1.09Z"/><path class="aj" d="m177.688,156.872l-.936.18v-6.572h.666l.18.486h.036c.324-.352.693-.576,1.306-.576,1.296,0,1.854,1.018,1.854,2.386s-.567,2.386-1.936,2.386c-.469,0-.838-.09-1.171-.242v1.953Zm2.152-4.097c0-.945-.379-1.603-1.171-1.603-.378,0-.702.226-.981.567v2.313c.288.207.612.324,1.018.324.711,0,1.135-.585,1.135-1.603Z"/><path class="x" d="m439.557,90.09c-4.53.905-15.492,3.79-25.369,14.019-8.08,8.366-11.568,17.643-13.027,22.425"/><path class="x" d="m121.139,5.377c-4.231.842-12.103,2.988-20.042,9.015-8.239,6.254-12.465,13.586-14.374,17.488"/><path class="y" d="m15.345,272.079V75.14L116.192,17.517c.441.255.882.51,1.324.765,2.059,1.187,4.115,2.364,6.168,3.53-4.115,11.872-8.229,23.744-12.344,35.616-20.847,11.914-41.694,23.827-62.542,35.74v38.822l55.27-31.582c.441.255.883.51,1.325.765,2.059,1.187,4.115,2.363,6.168,3.53-2.497,10.949-4.995,21.898-7.492,32.847-18.423,10.527-36.846,21.055-55.27,31.582v45.572l67.393-38.509c.441.255.882.51,1.324.765,2.059,1.187,4.115,2.364,6.168,3.53-1.615,11.832-3.229,23.664-4.843,35.496-32.001,20.13-64.002,40.259-96.003,60.388-2.053-1.166-4.109-2.343-6.168-3.53-.442-.255-.883-.51-1.324-.765Z"/><line class="y" x1="15.345" y1="75.14" x2="22.838" y2="79.435"/><path class="an" d="m22.838,276.374V79.435L123.684,21.811c.013.007,1.312.757,1.324.765.355.205,6.627,3.826,6.985,4.033-4.387,11.704-8.774,23.409-13.161,35.113-20.847,11.914-41.694,23.827-62.542,35.74v38.822l55.27-31.582c.014.008,1.31.756,1.325.765.393.227,6.589,3.804,6.985,4.033-2.77,10.781-5.54,21.563-8.31,32.344-18.423,10.527-36.846,21.055-55.27,31.582v45.572l67.393-38.509c.013.007,1.312.757,1.324.765.355.205,6.627,3.826,6.985,4.033-1.887,11.664-3.774,23.329-5.661,34.993-31.729,20.297-63.457,40.594-95.186,60.892-.325-.187-6.659-3.844-6.985-4.033-.012-.007-1.313-.758-1.324-.765Z"/><path class="ag" d="m22.838,79.435c2.77,1.599,5.54,3.198,8.31,4.798,33.616-19.208,67.231-38.416,100.847-57.623-2.77-1.599-5.54-3.198-8.31-4.798-33.616,19.208-67.231,38.416-100.847,57.623Z"/><path class="ai" d="m31.147,281.172V84.233l100.847-57.623-4.851,41.03-62.542,35.74v37.702l55.27-31.582v38.262l-55.27,31.582v44.452l67.393-38.509v38.262l-100.847,57.623Z"/><path class="x" d="m153.225,153.13c-10.179.753-22.835,3.207-36.968,9.558-16.228,7.293-29.411,17.48-39.223,26.597"/><path class="x" d="m295.81,123.812c-6.909-7.219-18.049-17.163-33.845-25.093-17.939-9.006-34.214-11.564-44.471-12.328"/><path class="x" d="m324.873,116.129c-2.936-7.82-11.052-26.127-30.882-41.114-18.393-13.901-37.243-17.675-45.883-18.884"/><path class="x" d="m153.225,86.392c-5.807.346-13.227,1.366-21.475,4.011-12.048,3.864-20.975,9.63-26.695,14.032"/><line class="x" x1="323.415" y1="152.838" x2="184.511" y2="152.838"/><line class="x" x1="497.054" y1="129.647" x2="421.927" y2="129.647"/><line class="x" x1="497.054" y1="152.838" x2="472.203" y2="152.838"/><line class="x" x1="153.225" y1="56.131" x2="124.494" y2="56.131"/></g></g></svg>