<svg xmlns="http://www.w3.org/2000/svg" xmlns:xlink="http://www.w3.org/1999/xlink" viewBox="0 0 1341.14 1280.45"><defs><style>.a{fill:#fff;}.b{fill:url(#a);}.c,.i,.j,.l{fill:#38a032;}.c{opacity:0.17;}.d,.e{fill:#222c54;}.e,.f{opacity:0.5;}.g{fill:url(#b);}.h,.k{fill:#0bbbef;}.j{opacity:0.8;}.k,.l{opacity:0.3;}</style><linearGradient id="a" x1="661.88" y1="458.36" x2="661.88" y2="1223.72" gradientUnits="userSpaceOnUse"><stop offset="0" stop-color="#f2f2f2"/><stop offset="0.01" stop-color="#f1f1f1"/><stop offset="0.23" stop-color="#e4e4e4"/><stop offset="0.51" stop-color="#dbdbdb"/><stop offset="1" stop-color="#d9d9d9"/></linearGradient><linearGradient id="b" x1="661.88" y1="346.55" x2="661.88" gradientUnits="userSpaceOnUse"><stop offset="0" stop-color="#fff" stop-opacity="0.7"/><stop offset="0.03" stop-color="#fff" stop-opacity="0.72"/><stop offset="0.34" stop-color="#fff" stop-opacity="0.87"/><stop offset="0.6" stop-color="#fff" stop-opacity="0.96"/><stop offset="0.75" stop-color="#fff"/></linearGradient></defs><rect class="a" x="66.6" y="458.36" width="1190.55" height="765.35" rx="70.87"/><rect class="b" x="66.6" y="458.36" width="1190.55" height="765.35" rx="70.87"/><rect class="c" x="152.11" y="571.67" width="1018.84" height="85.12"/><rect class="c" x="152.11" y="712.88" width="1018.84" height="85.12"/><rect class="c" x="152.11" y="854.42" width="1018.84" height="56.7"/><rect class="c" x="152.11" y="968.55" width="1018.84" height="56.7"/><path class="d" d="M194.08,572.08h16.46l-25,66.55c-4,10.53-10.16,19.37-21.78,19.37a21.68,21.68,0,0,1-13.55-4.24l7.38-12c1.94,1.45,3.39,2.18,5.57,2.18,2.42,0,5.2-2.3,7.62-8.23l1.69-4.23h-4.84l-26.13-59.42h17.66l18.64,43.69h.36Z"/><path class="d" d="M231,572.08h49.73v84.71H265.23V586.12H245.87c0,43.8-5.81,71.27-24.8,71.27a22.3,22.3,0,0,1-8.72-1.69l2.91-13.31a11.71,11.71,0,0,0,3.87.72c8.11,0,11.86-16.7,11.86-67.76Z"/><path class="d" d="M308.06,640.81a8.6,8.6,0,1,1-8.59,8.59A8.62,8.62,0,0,1,308.06,640.81Z"/><path class="d" d="M392.94,638.27H366.08l-5.56,18.52H344.18l28.31-84.71h14.16L415,656.79H398.63ZM370.2,624.6h18.63l-9.08-30.74h-.48Z"/><path class="d" d="M451.63,620h-6.05v36.79H430.09V572.08h15.49V606h6.29l21.9-33.88h17.31l-26.5,40.06,29,44.65L476.19,658Z"/><path class="d" d="M547.82,638.27H521l-5.57,18.52H499.06l28.31-84.71h14.16l28.31,84.71H553.51ZM525.07,624.6h18.64l-9.08-30.74h-.48Z"/><path class="d" d="M590.17,674.57H577.1l-2.42-31.82h9.08c9.19-12.22,12.34-35.82,12.34-63.65v-7H648v70.67H659.5l-2.42,31.82H644V656.79H590.17Zm42.35-31.82V586.12H611.23v2.66c0,21.06-4.24,42-10.53,54Z"/><path class="d" d="M675.23,656.79V572.08h49.13l-2.42,14H690.72V606h27.59v14H690.72v22.75h33.64v14Z"/><path class="d" d="M808.21,601.49h-.36l-14.52,44.16H777.48l-14.64-44.16h-.37l-5.08,55.3H741.9l7.87-84.71h17.3l18.15,54.45h.36l18.16-54.45H821l7.86,84.71H813.41Z"/><path class="d" d="M899.93,600.64h-.36l-37.76,56.15H848.87V572.08h15.49v56.27h.36l37.75-56.27h12.95v84.71H899.93Z"/><path class="d" d="M960.55,620h-6v36.79H939V572.08H954.5V606h6.29l21.9-33.88H1000l-26.5,40.06,29,44.65L985.11,658Z"/><path class="d" d="M1056.74,638.27h-26.86l-5.57,18.52H1008l28.31-84.71h14.16l28.32,84.71h-16.34ZM1034,624.6h18.64l-9.08-30.74h-.48Z"/><path class="d" d="M151.73,797.79V713.08h26.5c15.13,0,26.5,5.57,26.5,20.33,0,11.13-6.65,17.3-14.4,19.36v.49c10.65,2.54,17.43,9.31,17.43,21,0,17.3-12.95,23.48-29.53,23.48Zm25.66-70.67H167.22v20.45h10.17c7.38,0,11.37-4.11,11.37-10.29S184.77,727.12,177.39,727.12Zm.12,33.76H167.22v22.87h10.29c9,0,14.28-4.48,14.28-11.13C191.79,764.87,186.46,760.88,177.51,760.88Z"/><path class="d" d="M259.79,799c-25.17,0-35.7-19.12-35.7-43.57s10.53-43.56,35.7-43.56,35.69,19.12,35.69,43.56S285,799,259.79,799Zm0-73.09c-13.8,0-19.73,13-19.73,29.52S246,785,259.79,785s19.72-13,19.72-29.53S273.58,725.91,259.79,725.91Z"/><path class="d" d="M330.93,747h31.71V713.08h15.48v84.71H362.64V761H330.93v36.79H315.45V713.08h15.48Z"/><path class="d" d="M458,792.46c-7.62,4.36-14,6.54-23.59,6.54-25.17,0-36.3-19.12-36.3-43.57s11.13-43.56,36.3-43.56a43.69,43.69,0,0,1,22.14,5.45l-6.17,12.46a35.55,35.55,0,0,0-16-3.87c-13.8,0-20.33,13-20.33,29.52S420.59,785,434.39,785a34.36,34.36,0,0,0,17.3-4.84Z"/><path class="d" d="M508.2,799c-25.17,0-35.7-19.12-35.7-43.57s10.53-43.56,35.7-43.56,35.69,19.12,35.69,43.56S533.37,799,508.2,799Zm0-73.09c-13.8,0-19.73,13-19.73,29.52S494.4,785,508.2,785s19.72-13,19.72-29.53S522,725.91,508.2,725.91Z"/><path class="d" d="M563.86,797.79V713.08h26.5c15.12,0,26.5,5.57,26.5,20.33,0,11.13-6.66,17.3-14.4,19.36v.49c10.64,2.54,17.42,9.31,17.42,21,0,17.3-13,23.48-29.52,23.48Zm25.65-70.67H579.34v20.45h10.17c7.38,0,11.37-4.11,11.37-10.29S596.89,727.12,589.51,727.12Zm.12,33.76H579.34v22.87h10.29c9,0,14.28-4.48,14.28-11.13C603.91,764.87,598.58,760.88,589.63,760.88Z"/><path class="d" d="M696.11,792.46c-7.62,4.36-14,6.54-23.6,6.54-25.16,0-36.3-19.12-36.3-43.57s11.14-43.56,36.3-43.56a43.7,43.7,0,0,1,22.15,5.45l-6.17,12.46a35.56,35.56,0,0,0-16-3.87c-13.79,0-20.32,13-20.32,29.52S658.72,785,672.51,785a34.37,34.37,0,0,0,17.31-4.84Z"/><path class="d" d="M735.8,761h-6v36.79H714.26V713.08h15.49V747H736l21.9-33.88h17.3l-26.5,40.06,29,44.65L760.36,799Z"/><path class="d" d="M823.76,799c-25.17,0-35.69-19.12-35.69-43.57s10.52-43.56,35.69-43.56,35.7,19.12,35.7,43.56S848.93,799,823.76,799Zm0-73.09c-13.79,0-19.72,13-19.72,29.52S810,785,823.76,785s19.73-13,19.73-29.53S837.56,725.91,823.76,725.91Z"/><path class="d" d="M894.91,727.12v70.67H879.42V713.08h48.4l-2.42,14Z"/><path class="d" d="M970.17,799c-25.17,0-35.69-19.12-35.69-43.57s10.52-43.56,35.69-43.56,35.7,19.12,35.7,43.56S995.34,799,970.17,799Zm0-73.09c-13.79,0-19.72,13-19.72,29.52S956.38,785,970.17,785s19.73-13,19.73-29.53S984,725.91,970.17,725.91Z"/><path class="d" d="M146.05,911.12,165,854.43h8.66l19,56.69H183.3l-4.05-13.2H159.33l-4,13.2ZM169.53,866h-.4l-7.53,24.38H177Z"/><path class="d" d="M224.61,881.23l21.06,29.89-10,.81-18.71-26.4h-4.21v25.59H204V854.43h8.75v23.65h4.45L234,854.43h10Z"/><path class="d" d="M250.53,911.12l19-56.69h8.66l19,56.69h-9.32l-4.05-13.2H263.82l-4,13.2ZM274,866h-.4l-7.53,24.38h15.38Z"/><path class="d" d="M308.45,911.12V854.43h18.06c16,0,23.16,11.82,23.16,28.34s-7.12,28.35-23.16,28.35Zm8.75-48.92v41.15h9.31c9.48,0,14.09-9,14.09-20.58S336,862.2,326.51,862.2Z"/><path class="d" d="M364.26,911.12V854.43h32.07l-1.62,7.77H373v15.71h19.28v7.78H373v17.66h23.33v7.77Z"/><path class="d" d="M442.26,903.67h-8.51l-11.5-34.5h-.32l-3.89,42h-8.75l5.27-56.69h10.77l12.55,37.25h.25l12.55-37.25h10.77l5.27,56.69H458l-3.89-42h-.32Z"/><path class="d" d="M478.87,911.12v-7.77h9.32V862.2h-9.32v-7.77h27.78L505,862.2h-8.1v41.15h9.32v7.77Z"/><path class="d" d="M541.48,881.23l21.06,29.89-10,.81-18.71-26.4h-4.21v25.59h-8.75V854.43h8.75v23.65H534l16.85-23.65h10Z"/><path class="d" d="M567.4,911.12l19-56.69H595l19,56.69h-9.31l-4-13.2H580.69l-4,13.2ZM590.89,866h-.4L583,890.39h15.39Z"/><path class="d" d="M180.71,968.43h9.56l-17.66,56.69H162.49l-17.66-56.69h9.56l13,44.62h.32Z"/><path class="d" d="M221.45,1025.93c-16.84,0-23.48-12.8-23.48-29.16s6.64-29.15,23.48-29.15,23.49,12.79,23.49,29.15S238.3,1025.93,221.45,1025.93Zm0-50.54c-10.36,0-14.41,9.4-14.41,21.38s4.05,21.39,14.41,21.39,14.42-9.4,14.42-21.39S231.82,975.39,221.45,975.39Z"/><path class="d" d="M293,1010.62h.32V968.43h8.75v56.69h-9.4L268.6,983h-.33v42.12h-8.74V968.43h9.39Z"/><path class="d" d="M344.41,1010.46c0-5.59-5.43-8.67-11.66-11.09-7.29-2.84-15.63-7-15.63-16.37,0-9.71,6.88-15.38,18.38-15.38A32.15,32.15,0,0,1,351.7,972l-4.13,6.88a21.69,21.69,0,0,0-12.07-3.48c-6.15,0-9.31,2.51-9.31,7.13s5.59,7.61,10.53,9.56c8.91,3.48,16.76,7.37,16.76,17.9,0,10-7,16-19.76,16a30.94,30.94,0,0,1-17.9-5l4.62-7.13a21,21,0,0,0,13.28,4.38C340,1018.16,344.41,1015.73,344.41,1010.46Z"/><path class="d" d="M388.31,1025.93c-16.84,0-23.49-12.8-23.49-29.16s6.65-29.15,23.49-29.15,23.49,12.79,23.49,29.15S405.16,1025.93,388.31,1025.93Zm0-50.54c-10.37,0-14.42,9.4-14.42,21.38s4.05,21.39,14.42,21.39,14.42-9.4,14.42-21.39S398.68,975.39,388.31,975.39Z"/><path class="d" d="M455.38,968.43h9.56l-17.66,56.69H437.16L419.5,968.43h9.56l13,44.62h.32Z"/><path class="d" d="M500.42,1010.46c0-5.59-5.43-8.67-11.67-11.09-7.29-2.84-15.63-7-15.63-16.37,0-9.71,6.89-15.38,18.39-15.38a32.15,32.15,0,0,1,16.2,4.37l-4.14,6.88a21.68,21.68,0,0,0-12.06-3.48c-6.16,0-9.32,2.51-9.32,7.13s5.59,7.61,10.53,9.56c8.91,3.48,16.77,7.37,16.77,17.9,0,10-7.05,16-19.77,16a30.9,30.9,0,0,1-17.89-5l4.61-7.13a21.08,21.08,0,0,0,13.28,4.38C496,1018.16,500.42,1015.73,500.42,1010.46Z"/><path class="d" d="M543.91,995.23,565,1025.12l-10,.81-18.71-26.4H532v25.59h-8.75V968.43H532v23.65h4.45l16.85-23.65h10Z"/><path class="d" d="M596.56,1025.93c-16.85,0-23.49-12.8-23.49-29.16s6.64-29.15,23.49-29.15,23.49,12.79,23.49,29.15S613.41,1025.93,596.56,1025.93Zm0-50.54c-10.37,0-14.42,9.4-14.42,21.38s4.05,21.39,14.42,21.39,14.42-9.4,14.42-21.39S606.93,975.39,596.56,975.39Z"/><path class="d" d="M641.27,996.77c0,12,4.38,21.39,15.07,21.39a19.93,19.93,0,0,0,8.18-1.54V1002.2h-10v-7.61H672.7v26.16a26.25,26.25,0,0,1-16.68,5.18c-16.85,0-23.82-12.8-23.82-29.16s7-29.15,23.82-29.15a30.72,30.72,0,0,1,15.38,3.64l-3.48,7a24.84,24.84,0,0,0-11.9-2.92C645.65,975.39,641.27,984.79,641.27,996.77Z"/><path class="d" d="M708.75,1025.93c-16.85,0-23.49-12.8-23.49-29.16s6.64-29.15,23.49-29.15,23.48,12.79,23.48,29.15S725.59,1025.93,708.75,1025.93Zm0-50.54c-10.37,0-14.42,9.4-14.42,21.38s4,21.39,14.42,21.39,14.41-9.4,14.41-21.39S719.11,975.39,708.75,975.39Z"/><path class="d" d="M795.66,1010.46c0-5.59-5.43-8.67-11.66-11.09-7.29-2.84-15.64-7-15.64-16.37,0-9.71,6.89-15.38,18.39-15.38A32.15,32.15,0,0,1,803,972l-4.13,6.88a21.74,21.74,0,0,0-12.07-3.48c-6.16,0-9.32,2.51-9.32,7.13s5.59,7.61,10.53,9.56c8.91,3.48,16.77,7.37,16.77,17.9,0,10-7.05,16-19.76,16a30.92,30.92,0,0,1-17.9-5l4.61-7.13a21.09,21.09,0,0,0,13.29,4.38C791.28,1018.16,795.66,1015.73,795.66,1010.46Z"/><path class="d" d="M838.43,976.2v48.92h-8.75V976.2H812.83v-7.77h42.52l-1.62,7.77Z"/><path class="d" d="M901.68,985.27c0,8.75-4.86,14-11.74,15.88l14.82,24-9.47.81-14.83-24h-5v23.16h-8.75V968.43H884C893.75,968.43,901.68,974.18,901.68,985.27Zm-26.24-9.07v18h8.1c5.18,0,9.07-3.24,9.07-8.91s-3.89-9.07-9.07-9.07Z"/><path class="d" d="M916.91,1025.12V968.43H949l-1.62,7.77H925.66v15.71h19.28v7.78H925.66v17.66H949v7.77Z"/><path class="d" d="M964.38,1025.12V968.43h32.07l-1.62,7.77h-21.7v15.71H992.4v7.78H973.13v17.66h23.32v7.77Z"/><path class="d" d="M1031.77,976.2v48.92H1023V976.2h-16.84v-7.77h42.52l-1.62,7.77Z"/><path class="e" d="M560-425.2H830.9a0,0,0,0,1,0,0V765.35a0,0,0,0,1,0,0H560a69.23,69.23,0,0,1-69.23-69.23V-356A69.23,69.23,0,0,1,560-425.2Z" transform="translate(490.75 830.9) rotate(-90)"/><g class="f"><path class="a" d="M445.79,117.62c-8.64-4.22-16.68-6.23-25.32-6.23-18.9,0-30.76,17.68-30.76,45s11.86,45,30.56,45a55.36,55.36,0,0,0,27.53-7.64l12.47,24.12a82,82,0,0,1-41.61,10.85c-43.22,0-59.9-30.55-59.9-72.36s16.68-72.36,59.9-72.36a86.15,86.15,0,0,1,39.2,9Z"/><path class="a" d="M553.93,113.4V226.76H524.18V113.4h-39.8V86.06H593.93l-4,27.34Z"/><path class="a" d="M656.84,179.33v47.43H627.09V86.06h48c26.74,0,46.84,16.48,46.84,46.63s-20.1,46.64-46.84,46.64ZM673.72,152c9.85,0,17.49-7.24,17.49-19.3s-7.64-19.29-17.49-19.29H656.84V152Z"/><path class="a" d="M767.39,198.22a15.28,15.28,0,1,1-15.28,15.28A15.53,15.53,0,0,1,767.39,198.22Z"/><path class="a" d="M885.17,164.65V146.56l27.14-32.36v-.8H861.66l4-27.34h77.58v25.33l-25.93,30.15v.8c16.89,4.22,32.16,15.88,32.16,40.6,0,31-24.12,45.83-49.64,45.83-17.69,0-31.36-4.62-42.82-11.86l14.68-23.51a47.31,47.31,0,0,0,26.73,8c11.26,0,21.1-5.43,21.1-18.29s-10-18.5-23.31-18.5Z"/></g><rect class="g" x="60.7" width="1202.36" height="346.55"/><path class="h" d="M647.09,1252.9l-8.75,15.3v.14h5.56v-4.44h3.68v4.44h4l-.7,3.33h-3.32v5.74H643.9v-5.74h-10v-3l9-15.79Z"/><path class="h" d="M659.27,1274.05h10l-.7,3.36h-14.7v-3c4.8-3.61,10.89-10,10.89-14.67,0-2.34-1.16-3.81-3.64-3.81a9.6,9.6,0,0,0-5.15,1.64l-1.68-2.94a13.9,13.9,0,0,1,7.49-2.06c4.31,0,6.79,2.45,6.79,6.72,0,5.39-5,11.23-9.27,14.63Z"/><path class="h" d="M680.41,1277.76c-5.39,0-8.58-4.31-8.58-12.6s3.19-12.6,8.58-12.6,8.57,4.3,8.57,12.6S685.8,1277.76,680.41,1277.76Zm0-3.36c2.8,0,4.76-2.73,4.76-9.24s-2-9.24-4.76-9.24-4.76,2.73-4.76,9.24S677.61,1274.4,680.41,1274.4Z"/><path class="i" d="M875.41,490.48v-2.67h2.53V477.05h-2.53v-2.67h8.12l-.46,2.67h-2.19v10.76h2.53v2.67Z"/><path class="i" d="M885.85,481.83c0-2,1.59-3.31,4.17-3.31a9.19,9.19,0,0,1,3.81.8l-1,2.23a7.57,7.57,0,0,0-2.69-.57c-1,0-1.47.37-1.47.94s.69,1.06,1.86,1.45c1.72.57,3.54,1.47,3.54,3.79,0,2.14-1.79,3.54-4.44,3.54a8.94,8.94,0,0,1-4.07-.85l1-2.3a7.4,7.4,0,0,0,3,.69c1,0,1.68-.43,1.68-1.08,0-.87-1.13-1.33-2.3-1.77C887.58,484.89,885.85,484,885.85,481.83Z"/><path class="i" d="M904.83,487.49l1,2.23a9.17,9.17,0,0,1-4.05,1c-3.45,0-5.82-2.25-5.82-6.09s2.07-6.09,5.38-6.09c3.06,0,5,1.91,5,5.19a15.82,15.82,0,0,1-.14,1.77h-7.31a3,3,0,0,0,3.06,2.76A7.05,7.05,0,0,0,904.83,487.49Zm-1.13-4.19a2.17,2.17,0,0,0-2.32-2.32,2.52,2.52,0,0,0-2.49,2.32Z"/><path class="i" d="M916.1,490.29a8.25,8.25,0,0,1-2.56.41c-2.11,0-3.84-1-3.84-3.7v-5.79h-2v-2.46h2v-3.18l2.86-.46v3.64h3.28l-.46,2.46h-2.82V487c0,.92.36,1.24,1.26,1.24a6.73,6.73,0,0,0,1.79-.29Z"/><path class="i" d="M928.17,483.37c-2.07-.81-4.46-2.25-4.46-4.92s2.07-4.3,5.34-4.3a9.52,9.52,0,0,1,4.71,1.24l-1.4,2.35a6.11,6.11,0,0,0-3.31-.92c-1.45,0-2.3.5-2.3,1.49,0,1.17,1.4,2.05,2.73,2.58,2.53,1,4.79,2.23,4.79,5.22s-2.12,4.59-5.73,4.59a9.18,9.18,0,0,1-5.2-1.42l1.59-2.39a6,6,0,0,0,3.61,1.15c1.54,0,2.69-.69,2.69-1.89C931.23,484.7,929.87,484,928.17,483.37Z"/><path class="i" d="M942.8,482.79c0-1.12-.57-1.81-2-1.81a9.3,9.3,0,0,0-3.12.62l-.86-2.3a11.73,11.73,0,0,1,4.26-.78c3.59,0,4.55,1.88,4.55,4.32v4.46a.74.74,0,0,0,.83.83h.25v2.23a5.27,5.27,0,0,1-1.63.23,2.08,2.08,0,0,1-2.07-1.13h-.09a3.94,3.94,0,0,1-3.08,1.13c-2.23,0-3.64-1.1-3.64-3.5,0-2.25,1.8-3.51,4.4-3.51h2.18Zm0,4.3v-1.33h-2.09c-1.06,0-1.66.53-1.66,1.29a1.17,1.17,0,0,0,1.27,1.19A3.31,3.31,0,0,0,942.8,487.09Z"/><path class="i" d="M951.88,490.48H949V478.75h2.16l.46,1h.1a4.49,4.49,0,0,1,3.1-1.24c2.46,0,3.84,1.54,3.84,4.62v7.34h-2.85v-7.09c0-1.63-.62-2.41-1.7-2.41a3.15,3.15,0,0,0-2.26,1.38Z"/><path class="i" d="M961.36,481.83c0-2,1.59-3.31,4.16-3.31a9.21,9.21,0,0,1,3.82.8l-1,2.23a7.57,7.57,0,0,0-2.69-.57c-1,0-1.48.37-1.48.94s.69,1.06,1.87,1.45c1.72.57,3.54,1.47,3.54,3.79,0,2.14-1.8,3.54-4.44,3.54a8.94,8.94,0,0,1-4.07-.85l1-2.3a7.4,7.4,0,0,0,3,.69c1,0,1.68-.43,1.68-1.08,0-.87-1.13-1.33-2.3-1.77C963.09,484.89,961.36,484,961.36,481.83Z"/><path class="i" d="M990.27,480h-.07l-2.76,8.39h-3L981.65,480h-.07l-1,10.51h-2.94l1.49-16.1h3.29l3.45,10.35H986l3.45-10.35h3.29l1.49,16.1h-2.94Z"/><path class="i" d="M1005.38,487.49l1,2.23a9.13,9.13,0,0,1-4,1c-3.45,0-5.81-2.25-5.81-6.09s2.07-6.09,5.38-6.09c3.05,0,5,1.91,5,5.19a13.73,13.73,0,0,1-.14,1.77H999.4a3,3,0,0,0,3.06,2.76A7,7,0,0,0,1005.38,487.49Zm-1.13-4.19a2.17,2.17,0,0,0-2.32-2.32,2.51,2.51,0,0,0-2.48,2.32Z"/><path class="i" d="M1016.77,489.46a4.34,4.34,0,0,1-3,1.24c-3.31,0-4.8-2.55-4.8-6.09s1.51-6.09,5-6.09a8.29,8.29,0,0,1,2.69.43v-5.26l2.85-.46v17.25h-2.16l-.46-1Zm-4.95-4.85c0,2.14.88,3.63,2.6,3.63a3.06,3.06,0,0,0,2.21-1.15V481.6a4.46,4.46,0,0,0-2.3-.62C1012.79,481,1011.82,482.31,1011.82,484.61Z"/><path class="i" d="M1021.67,481.21l.46-2.46h4.32v11.73h-2.85v-9.27Zm3.35-7.52a1.65,1.65,0,1,1,0,3.29,1.65,1.65,0,1,1,0-3.29Z"/><path class="i" d="M1036.64,478.75h2.85v11.73h-2.16l-.46-1h-.09a4.92,4.92,0,0,1-3.27,1.24c-2.3,0-4-1.51-4-4.8v-7.15h2.85v7.15c0,1.63.8,2.34,1.88,2.34a3.45,3.45,0,0,0,2.42-1.38Z"/><path class="i" d="M1051.1,479.81a5.51,5.51,0,0,1,3.55-1.29c2.46,0,3.88,1.54,3.88,4.62v7.34h-2.85v-7.09c0-1.63-.62-2.41-1.7-2.41a2.93,2.93,0,0,0-1.93,1v8.51h-2.85v-7.09c0-1.63-.58-2.41-1.57-2.41a2.87,2.87,0,0,0-2.07,1.38v8.12h-2.85V478.75h2.16l.46,1h.09a4.16,4.16,0,0,1,2.95-1.24A3.42,3.42,0,0,1,1051.1,479.81Z"/><path class="j" d="M880.1,509.28l5.06-6.9h2.3L882,510l6,8.49-2.25.22L880.1,511h-1.74v7.46h-2v-16.1h2v6.9Z"/><path class="j" d="M891.12,513.16c.18,2.56,1.38,4,3.7,4a6.2,6.2,0,0,0,3-.82l.67,1.38a8,8,0,0,1-3.91,1c-3.26,0-5.49-2.25-5.49-6.09,0-3.63,1.86-6.09,5.17-6.09,3.15,0,4.71,1.84,4.71,4.71a9.66,9.66,0,0,1-.2,1.93Zm0-1.4h6a4.61,4.61,0,0,0,0-.53c0-1.84-1-3.17-2.87-3.17S891.24,509.58,891.12,511.76Z"/><path class="j" d="M909.29,506.75l-.46,1.54h-4.69v10.19h-1.93V506.75Z"/><path class="j" d="M920.15,506.75v11.73h-1.94V508.29h-3.63v1c0,6.26-1,9.34-3.52,9.34a3.26,3.26,0,0,1-1.54-.41l.55-1.5a1.56,1.56,0,0,0,.88.28c1.22,0,1.81-2.28,1.81-8.26v-1.95Z"/><path class="j" d="M928.52,511c2.53,0,4.18,1.38,4.18,3.75s-1.65,3.71-4.18,3.71h-4.46V506.75H926V511ZM926,512.56v4.37h2.3a2.2,2.2,0,1,0,0-4.37Z"/><path class="j" d="M947.38,502.38v14.35h3.84v1.75H941.1v-1.75h4.32v-12.6h-4l.46-1.75Z"/><path class="j" d="M958.51,503.9a7.08,7.08,0,0,0-3.52,1.15l-.85-1.54a9,9,0,0,1,4.81-1.36c2.83,0,4.34,1.61,4.34,4.41,0,3.87-3.79,7.87-6.55,10.08v.09h7l-.46,1.75h-9.42V517c3.24-2.53,7.38-6.65,7.38-10.21C961.25,504.93,960.46,503.9,958.51,503.9Z"/><path class="j" d="M973.14,502.38v14.35H977v1.75H966.86v-1.75h4.32v-12.6h-4l.46-1.75Z"/><path class="j" d="M995.05,518.48h-1.93V508.29H988v10.19h-1.93V506.75h9Z"/><path class="j" d="M997.59,506.75h9.7l-.46,1.54h-3.49v10.19h-1.91V508.29h-3.84Z"/><path class="j" d="M1016.71,509.07a1.57,1.57,0,1,1-1.56,1.57A1.59,1.59,0,0,1,1016.71,509.07Z"/><path class="j" d="M1033.87,504.13v14.35h-2V504.13H1027v-1.75h11.84l-.46,1.75Z"/><path class="j" d="M1040.73,517.88v5.19l-1.94.46V506.75H1040l.46,1.47h.09a4.64,4.64,0,0,1,3.68-1.7c3,0,4.62,2.48,4.62,6.09s-1.45,6.09-4.94,6.09A6.16,6.16,0,0,1,1040.73,517.88Zm6.18-5.27c0-2.69-1.12-4.55-3.24-4.55a3.94,3.94,0,0,0-2.94,1.75v6.3a4.82,4.82,0,0,0,2.94,1C1045.79,517.16,1046.91,515.51,1046.91,512.61Z"/><path class="j" d="M1053.45,513.16c.18,2.56,1.38,4,3.7,4a6.23,6.23,0,0,0,3-.82l.67,1.38a8,8,0,0,1-3.91,1c-3.27,0-5.5-2.25-5.5-6.09,0-3.63,1.87-6.09,5.18-6.09,3.15,0,4.71,1.84,4.71,4.71a9.71,9.71,0,0,1-.21,1.93Zm0-1.4h6a3.08,3.08,0,0,0,0-.53c0-1.84-1-3.17-2.88-3.17S1053.56,509.58,1053.45,511.76Z"/><path class="j" d="M1066.46,513.21v5.27h-1.93V506.75h1.93v4.92h1.66l3.38-4.92h2.07l-3.89,5.65,4.12,6.08-2,.22-3.72-5.49Z"/><path class="j" d="M1076.1,518.48V506.75H1078v8.44h.09l6.1-8.44h1.68v11.73H1084V510h-.1l-6.09,8.49Z"/><path class="j" d="M1099,518.48h-1.93v-5.27h-5.31v5.27h-1.93V506.75h1.93v4.92h5.31v-4.92H1099Z"/><path class="j" d="M1110,506.75l-.46,1.54h-4.69v10.19h-1.93V506.75Z"/><path class="j" d="M1122.33,503.9a7.08,7.08,0,0,0-3.52,1.15l-.85-1.54a9,9,0,0,1,4.81-1.36c2.82,0,4.34,1.61,4.34,4.41,0,3.87-3.79,7.87-6.55,10.08v.09h7l-.46,1.75h-9.43V517c3.25-2.53,7.39-6.65,7.39-10.21C1125.07,504.93,1124.28,503.9,1122.33,503.9Z"/><path class="j" d="M1140.45,513.35c0,3.54-2.25,5.35-5.26,5.35a7.84,7.84,0,0,1-4.63-1.35l.92-1.54A5.91,5.91,0,0,0,1135,517c1.93,0,3.38-1.2,3.38-3.61a3.35,3.35,0,0,0-3.64-3.61,11.5,11.5,0,0,0-3.29.59v-7.95h8.37l-.46,1.75h-6v4.14a8.46,8.46,0,0,1,1.84-.19C1138.29,508.08,1140.45,509.9,1140.45,513.35Z"/><path class="j" d="M878.29,542.48h-2v-16.1h2V539h.09l8.11-12.6h2v16.1h-2V529.92h-.1Z"/><path class="j" d="M901.84,542.48h-1.93v-5.27h-5.32v5.27h-1.93V530.75h1.93v4.92h5.32v-4.92h1.93Z"/><path class="j" d="M904.37,530.75h9.7l-.46,1.54h-3.49v10.19h-1.91V532.29h-3.84Z"/><path class="j" d="M917.48,537.16c.18,2.56,1.38,4,3.7,4a6.2,6.2,0,0,0,3-.82l.67,1.38a8,8,0,0,1-3.91,1c-3.27,0-5.5-2.25-5.5-6.09,0-3.63,1.87-6.09,5.18-6.09,3.15,0,4.71,1.84,4.71,4.71a9.71,9.71,0,0,1-.21,1.93Zm0-1.4h6a4.61,4.61,0,0,0,0-.53c0-1.84-1-3.17-2.88-3.17S917.59,533.58,917.48,535.76Z"/><path class="j" d="M930.49,541.88v5.19l-1.93.46V530.75h1.25l.46,1.47h.09a4.64,4.64,0,0,1,3.68-1.7c3,0,4.62,2.48,4.62,6.09s-1.45,6.09-4.95,6.09A6.21,6.21,0,0,1,930.49,541.88Zm6.19-5.27c0-2.69-1.13-4.55-3.24-4.55a4,4,0,0,0-3,1.75v6.3a4.87,4.87,0,0,0,3,1C935.55,541.16,936.68,539.51,936.68,536.61Z"/><path class="j" d="M950.78,530.75v11.73h-1.93V532.29h-3.64v1c0,6.26-1,9.34-3.51,9.34a3.22,3.22,0,0,1-1.54-.41l.55-1.5a1.55,1.55,0,0,0,.87.28c1.22,0,1.82-2.28,1.82-8.26v-2Z"/><path class="j" d="M954.69,542.48V530.75h1.93v8.44h.1l6.09-8.44h1.68v11.73h-1.93V534h-.1l-6.09,8.49Z"/><path class="j" d="M977.58,542.48h-1.94v-5.27h-5.31v5.27H968.4V530.75h1.93v4.92h5.31v-4.92h1.94Z"/><path class="j" d="M986,535c2.53,0,4.18,1.38,4.18,3.75s-1.65,3.71-4.18,3.71h-4.46V530.75h1.93V535Zm-2.53,1.54v4.37h2.3a2.2,2.2,0,1,0,0-4.37Z"/><path class="j" d="M1001,530.75v11.73h-1.93v-4.26h-2.44l-2.6,4.26h-2.28l3-4.58a3.42,3.42,0,0,1-2.18-3.4c0-2.28,1.54-3.75,4.07-3.75Zm-4.16,1.54a2.21,2.21,0,1,0,0,4.41h2.23v-4.41Z"/><path class="j" d="M1016.54,530.75h1.93l-3.71,5.65,3.94,6.08-2,.22-3.48-5.49H1012v5.27h-1.86v-5.27h-1.24l-3.31,5.27h-2.16l3.93-6.08-3.71-5.65h1.94l3.22,4.92h1.33v-4.92H1012v4.92h1.34Z"/><path class="j" d="M1033,526.38v14.35h3.84v1.75h-10.12v-1.75h4.32v-12.6h-4l.46-1.75Z"/><path class="j" d="M1047.13,526.38l-5.87,10.28v.09h4.23V533.6h2v3.15h2.76l-.46,1.72h-2.3v4h-2v-4h-6.67V537l6-10.6Z"/><path class="j" d="M1058.79,526.38v14.35h3.84v1.75h-10.12v-1.75h4.32v-12.6h-4l.46-1.75Z"/><path class="i" d="M877.71,1081.22V1079h2.65v-11.68h-2.65v-2.21h7.89l-.46,2.21h-2.3V1079h2.64v2.21Z"/><path class="i" d="M892.55,1074.25c1.7.48,3.63,1.49,3.63,3.66s-1.68,3.54-4.32,3.54a9.72,9.72,0,0,1-4-.81l.81-1.88a7.55,7.55,0,0,0,3.08.69c1.35,0,2-.56,2-1.43,0-1.2-1.17-1.61-2.49-2s-3.15-1.31-3.15-3.59c0-2.07,1.64-3.17,4.1-3.17a8.75,8.75,0,0,1,3.65.8l-.78,1.8a7.35,7.35,0,0,0-2.71-.6c-1.27,0-1.87.48-1.87,1.29C890.54,1073.54,891.28,1073.88,892.55,1074.25Z"/><path class="i" d="M908.16,1075.9h-7.45c.16,2.28,1.36,3.55,3.47,3.55a6.46,6.46,0,0,0,2.92-.81l.78,1.82a8.59,8.59,0,0,1-3.93,1c-3.45,0-5.7-2.26-5.7-6.1s2.12-6.09,5.29-6.09,4.83,1.84,4.83,4.71A9.64,9.64,0,0,1,908.16,1075.9ZM900.8,1074h5.43a2.5,2.5,0,0,0-2.65-2.78A2.81,2.81,0,0,0,900.8,1074Z"/><path class="i" d="M918.17,1081a8,8,0,0,1-2.51.42c-2.12,0-3.68-1-3.68-3.71v-6.25h-2v-2h2v-3.17l2.39-.46v3.63h3.54l-.46,2h-3.08v6.37a1.41,1.41,0,0,0,1.57,1.59,6.37,6.37,0,0,0,1.88-.33Z"/><path class="i" d="M933.76,1077.05c0-1.58-1.54-2.46-3.31-3.15-2.07-.8-4.44-2-4.44-4.64s2-4.37,5.22-4.37a9.2,9.2,0,0,1,4.6,1.24l-1.17,2a6.15,6.15,0,0,0-3.43-1c-1.75,0-2.64.71-2.64,2s1.58,2.16,3,2.72c2.53,1,4.76,2.09,4.76,5.08s-2,4.53-5.62,4.53a8.81,8.81,0,0,1-5.08-1.43l1.31-2a6,6,0,0,0,3.77,1.24C932.52,1079.24,933.76,1078.55,933.76,1077.05Z"/><path class="i" d="M945.33,1074.32v-.78c0-1.41-.6-2.28-2.32-2.28a9.3,9.3,0,0,0-3.18.62l-.69-1.86a11.42,11.42,0,0,1,4.14-.76c3.59,0,4.44,1.89,4.44,4.32v4.92a.74.74,0,0,0,.83.83h.25v1.77a4.15,4.15,0,0,1-1.38.23,1.81,1.81,0,0,1-1.86-1.35h-.09a4.29,4.29,0,0,1-3.31,1.35c-2.23,0-3.64-1.1-3.64-3.49,0-2.23,1.84-3.52,4.44-3.52Zm-2.46,1.86a1.75,1.75,0,0,0-2,1.7,1.55,1.55,0,0,0,1.73,1.57,3.43,3.43,0,0,0,2.71-1.45v-1.82Z"/><path class="i" d="M953.72,1081.22h-2.39v-11.73H953l.46,1.24h.1a4.24,4.24,0,0,1,3.31-1.47c2.62,0,3.86,1.54,3.86,4.62v7.34h-2.39V1074c0-1.93-.67-2.78-2-2.78a3.66,3.66,0,0,0-2.6,1.63Z"/><path class="i" d="M968.05,1074.25c1.71.48,3.64,1.49,3.64,3.66s-1.68,3.54-4.33,3.54a9.7,9.7,0,0,1-4-.81l.8-1.88a7.62,7.62,0,0,0,3.08.69c1.36,0,2-.56,2-1.43,0-1.2-1.18-1.61-2.49-2s-3.15-1.31-3.15-3.59c0-2.07,1.63-3.17,4.09-3.17a8.76,8.76,0,0,1,3.66.8l-.78,1.8a7.39,7.39,0,0,0-2.71-.6c-1.27,0-1.87.48-1.87,1.29C966.05,1073.54,966.79,1073.88,968.05,1074.25Z"/><path class="i" d="M990.59,1069.9a4.34,4.34,0,0,1-3.33,4.51l4.2,6.81-2.69.23-4.2-6.81h-1.43v6.58h-2.48v-16.1h4.9C988.34,1065.12,990.59,1066.75,990.59,1069.9Zm-7.45-2.57v5.1h2.3a2.41,2.41,0,0,0,2.58-2.53,2.44,2.44,0,0,0-2.58-2.57Z"/><path class="i" d="M1002.76,1075.9h-7.45c.16,2.28,1.35,3.55,3.47,3.55a6.46,6.46,0,0,0,2.92-.81l.78,1.82a8.59,8.59,0,0,1-3.93,1c-3.45,0-5.7-2.26-5.7-6.1s2.11-6.09,5.29-6.09,4.83,1.84,4.83,4.71A9.64,9.64,0,0,1,1002.76,1075.9ZM995.4,1074h5.43a2.5,2.5,0,0,0-2.65-2.78A2.81,2.81,0,0,0,995.4,1074Z"/><path class="i" d="M1010.42,1077.49a6.68,6.68,0,0,1-2-.27,1,1,0,0,0-.37.71c0,.5.28.85.92,1l3.29.53c1.5.26,3.4,1,3.4,3.22,0,2.51-2.3,3.64-5.31,3.64-3.38,0-5.22-1.2-5.22-3.27a3.18,3.18,0,0,1,1.57-2.71,2,2,0,0,1-.9-1.8,2.6,2.6,0,0,1,1.2-2,3.83,3.83,0,0,1-1.38-3.1c0-2.58,1.9-4.12,4.78-4.12a6.51,6.51,0,0,1,2.3.41l3.65-.87-.46,2.23h-1.4a4.08,4.08,0,0,1,.69,2.35C1015.2,1076,1013.29,1077.49,1010.42,1077.49Zm-3.08,5.11c0,1,.92,1.67,3,1.67s2.88-.68,2.88-1.58-.62-1.15-1.87-1.36l-3-.46A2,2,0,0,0,1007.34,1082.6Zm.62-9.22c0,1.24.8,2.16,2.46,2.16s2.46-.92,2.46-2.16-.81-2.17-2.46-2.17S1008,1072.13,1008,1073.38Z"/><path class="i" d="M1025.71,1069.49h2.39v11.73h-1.7l-.46-1.24h-.09a4.58,4.58,0,0,1-3.47,1.47c-2.51,0-4-1.47-4-4.79v-7.17h2.39v7.17c0,1.94.85,2.79,2.23,2.79a3.94,3.94,0,0,0,2.76-1.64Z"/><path class="i" d="M1036.62,1081.1a5.22,5.22,0,0,1-2,.35c-2,0-3-1-3-3.27v-13.75l2.39-.46v14.21c0,.88.35,1.27,1,1.27a3.3,3.3,0,0,0,1.2-.23Z"/><path class="i" d="M1044.69,1074.32v-.78c0-1.41-.6-2.28-2.32-2.28a9.3,9.3,0,0,0-3.18.62l-.69-1.86a11.42,11.42,0,0,1,4.14-.76c3.59,0,4.44,1.89,4.44,4.32v4.92a.74.74,0,0,0,.83.83h.25v1.77a4.15,4.15,0,0,1-1.38.23,1.81,1.81,0,0,1-1.86-1.35h-.09a4.3,4.3,0,0,1-3.32,1.35c-2.23,0-3.63-1.1-3.63-3.49,0-2.23,1.84-3.52,4.44-3.52Zm-2.46,1.86a1.75,1.75,0,0,0-2,1.7,1.54,1.54,0,0,0,1.72,1.57,3.43,3.43,0,0,0,2.72-1.45v-1.82Z"/><path class="i" d="M1056.65,1071.72a2.78,2.78,0,0,0-1.22-.23c-1.24,0-2.14,1.26-2.35,2.71v7h-2.39v-11.73h1.7l.46,1.82h.1a3,3,0,0,1,3-2,5.12,5.12,0,0,1,1.5.23Z"/><path class="j" d="M882.29,1096l5.06-6.9h2.3l-5.5,7.61,6,8.49-2.25.23-5.59-7.68h-1.75v7.45h-2v-16.1h2v6.9Z"/><path class="j" d="M893.3,1099.9c.19,2.56,1.38,4,3.71,4a6.24,6.24,0,0,0,3-.83l.67,1.38a8,8,0,0,1-3.91,1c-3.27,0-5.5-2.26-5.5-6.1,0-3.63,1.86-6.09,5.17-6.09,3.16,0,4.72,1.84,4.72,4.71a9.64,9.64,0,0,1-.21,1.93Zm0-1.4h6.05a3.08,3.08,0,0,0,0-.53c0-1.84-1-3.17-2.88-3.17S893.42,1096.32,893.3,1098.5Z"/><path class="j" d="M911.47,1093.49,911,1095h-4.69v10.19h-1.93v-11.73Z"/><path class="j" d="M922.33,1093.49v11.73H920.4V1095h-3.64v1c0,6.25-1,9.33-3.51,9.33a3.22,3.22,0,0,1-1.54-.41l.55-1.5a1.48,1.48,0,0,0,.87.28c1.22,0,1.82-2.28,1.82-8.26v-2Z"/><path class="j" d="M930.7,1097.77c2.53,0,4.19,1.38,4.19,3.74s-1.66,3.71-4.19,3.71h-4.46v-11.73h1.93v4.28Zm-2.53,1.54v4.37h2.3a2.2,2.2,0,1,0,0-4.37Z"/><path class="j" d="M943.05,1100.94a4.78,4.78,0,0,1,2.67-4.19v-.06a4.12,4.12,0,0,1-2.16-3.68c0-2.51,1.7-4.12,4.55-4.12s4.56,1.61,4.56,4.12a4.57,4.57,0,0,1-2.17,3.79v.07a4.57,4.57,0,0,1,2.67,4.07c0,2.9-1.91,4.51-5.06,4.51S943.05,1103.84,943.05,1100.94Zm5.64-2.94-1.36-.58a4.21,4.21,0,0,0-2.34,3.52c0,2,1.24,2.76,3.12,2.76s3.13-.87,3.13-2.76C951.24,1099.56,950,1098.55,948.69,1098Zm.16-1.77a4.07,4.07,0,0,0,1.88-3.22,2.63,2.63,0,0,0-5.24,0,2.91,2.91,0,0,0,2.07,2.69Z"/><path class="j" d="M962.44,1089.12v14.35h3.84v1.75H956.16v-1.75h4.33v-12.6h-4l.46-1.75Z"/><path class="j" d="M984.36,1105.22h-1.93V1095H977.3v10.19h-1.93v-11.73h9Z"/><path class="j" d="M986.89,1093.49h9.71l-.46,1.54h-3.5v10.19h-1.91V1095h-3.84Z"/><path class="j" d="M883.83,1114.87v14.35h-2v-14.35h-4.89v-1.75h11.84l-.46,1.75Z"/><path class="j" d="M890.68,1128.62v5.2l-1.93.46v-16.79H890l.46,1.47h.09a4.66,4.66,0,0,1,3.68-1.7c3,0,4.63,2.48,4.63,6.09s-1.45,6.1-5,6.1A6.21,6.21,0,0,1,890.68,1128.62Zm6.19-5.27c0-2.69-1.13-4.55-3.24-4.55a4,4,0,0,0-3,1.75v6.3a4.82,4.82,0,0,0,3,1.06C895.74,1127.91,896.87,1126.25,896.87,1123.35Z"/><path class="j" d="M903.4,1123.9c.19,2.56,1.38,4,3.7,4a6.27,6.27,0,0,0,3-.83l.66,1.38a7.93,7.93,0,0,1-3.91,1c-3.26,0-5.49-2.26-5.49-6.1,0-3.63,1.86-6.09,5.17-6.09,3.15,0,4.72,1.84,4.72,4.71a9.64,9.64,0,0,1-.21,1.93Zm0-1.4h6.05a4.61,4.61,0,0,0,0-.53c0-1.84-1-3.17-2.87-3.17S903.52,1120.32,903.4,1122.5Z"/><path class="j" d="M916.42,1124v5.27h-1.93v-11.73h1.93v4.92h1.66l3.38-4.92h2.07l-3.89,5.66,4.12,6.07-2,.23-3.73-5.5Z"/><path class="j" d="M926.06,1129.22v-11.73H928v8.44h.09l6.09-8.44h1.68v11.73h-1.93v-8.49h-.09l-6.09,8.49Z"/><path class="j" d="M948.94,1129.22H947V1124H941.7v5.27h-1.94v-11.73h1.94v4.92H947v-4.92h1.93Z"/><path class="j" d="M959.93,1117.49l-.46,1.54h-4.69v10.19h-1.93v-11.73Z"/><path class="j" d="M972,1129.45a7.68,7.68,0,0,1-4.55-1.36l.94-1.54a5.56,5.56,0,0,0,3.45,1.15,3.11,3.11,0,0,0,3.45-3.43c0-2.46-1.45-3.45-3.54-3.45H971v-.8l3.43-5.06v-.09h-6.51l.46-1.75h8.18v1.52l-3.24,4.8v.1a4.36,4.36,0,0,1,4,4.73C977.3,1127.81,974.88,1129.45,972,1129.45Z"/><path class="j" d="M985.46,1129.45c-3.54,0-5.51-2.83-5.51-8.28s2-8.28,5.51-8.28,5.52,2.83,5.52,8.28S989,1129.45,985.46,1129.45Zm0-1.75c2.12,0,3.48-1.93,3.48-6.53s-1.36-6.53-3.48-6.53-3.47,1.93-3.47,6.53S983.35,1127.7,985.46,1127.7Z"/><path class="j" d="M880.47,1153.22h-2v-16.1h2v12.6h.09l8.12-12.6h2v16.1h-2v-12.56h-.09Z"/><path class="j" d="M904,1153.22h-1.93V1148h-5.31v5.27h-1.93v-11.73h1.93v4.92h5.31v-4.92H904Z"/><path class="j" d="M906.55,1141.49h9.71l-.46,1.54h-3.5v10.19h-1.91V1143h-3.84Z"/><path class="j" d="M919.66,1147.9c.19,2.56,1.38,4,3.7,4a6.27,6.27,0,0,0,3-.83l.66,1.38a7.93,7.93,0,0,1-3.91,1c-3.26,0-5.49-2.26-5.49-6.1,0-3.63,1.86-6.09,5.17-6.09,3.15,0,4.72,1.84,4.72,4.71a9.64,9.64,0,0,1-.21,1.93Zm0-1.4h6.05a4.61,4.61,0,0,0,0-.53c0-1.84-1-3.17-2.87-3.17S919.78,1144.32,919.66,1146.5Z"/><path class="j" d="M932.68,1152.62v5.2l-1.93.46v-16.79H932l.46,1.47h.09a4.66,4.66,0,0,1,3.68-1.7c3,0,4.62,2.48,4.62,6.09s-1.45,6.1-4.94,6.1A6.18,6.18,0,0,1,932.68,1152.62Zm6.19-5.27c0-2.69-1.13-4.55-3.25-4.55a4,4,0,0,0-2.94,1.75v6.3a4.77,4.77,0,0,0,2.94,1.06C937.74,1151.91,938.87,1150.25,938.87,1147.35Z"/><path class="j" d="M953,1141.49v11.73H951V1143H947.4v1c0,6.25-1,9.33-3.52,9.33a3.26,3.26,0,0,1-1.54-.41l.55-1.5a1.49,1.49,0,0,0,.88.28c1.22,0,1.81-2.28,1.81-8.26v-2Z"/><path class="j" d="M956.88,1153.22v-11.73h1.93v8.44h.09l6.09-8.44h1.68v11.73h-1.93v-8.49h-.09l-6.1,8.49Z"/><path class="j" d="M979.76,1153.22h-1.93V1148h-5.31v5.27h-1.94v-11.73h1.94v4.92h5.31v-4.92h1.93Z"/><path class="j" d="M988.13,1145.77c2.53,0,4.19,1.38,4.19,3.74s-1.66,3.71-4.19,3.71h-4.46v-11.73h1.93v4.28Zm-2.53,1.54v4.37h2.3a2.2,2.2,0,1,0,0-4.37Z"/><path class="j" d="M1003.17,1141.49v11.73h-1.93V1149H998.8l-2.6,4.26h-2.27l3-4.58a3.43,3.43,0,0,1-2.19-3.4c0-2.28,1.54-3.75,4.07-3.75ZM999,1143a2.21,2.21,0,1,0,0,4.41h2.23V1143Z"/><path class="j" d="M1018.72,1141.49h1.93l-3.7,5.66,3.93,6.07-2,.23-3.47-5.5h-1.24v5.27h-1.87V1148h-1.24l-3.31,5.27h-2.16l3.93-6.07-3.7-5.66h1.93l3.22,4.92h1.33v-4.92h1.87v4.92h1.33Z"/><path class="j" d="M1035.21,1137.12v14.35h3.84v1.75h-10.12v-1.75h4.33v-12.6h-4l.46-1.75Z"/><path class="j" d="M1048.09,1137.12v14.35h3.84v1.75h-10.12v-1.75h4.33v-12.6h-4l.46-1.75Z"/><path class="j" d="M1062.19,1137.12l-5.86,10.28v.09h4.23v-3.15h2v3.15h2.76l-.46,1.73h-2.3v4h-2v-4h-6.67v-1.5l6-10.6Z"/><path class="h" d="M1211.06,428.78c0,5.39-3.85,7.91-8.3,7.91a12.26,12.26,0,0,1-7.1-2.06l1.78-2.94a8.47,8.47,0,0,0,5.08,1.64c2.69,0,4.72-1.4,4.72-4.51s-2.1-4.55-4.86-4.55h-1.82v-1.89l5.25-7v-.14h-9.35l.7-3.36H1210v3l-5,6.65v.11C1208.26,422.17,1211.06,424.06,1211.06,428.78Z"/><path class="h" d="M1222.57,436.69c-5.39,0-8.57-4.3-8.57-12.6s3.18-12.6,8.57-12.6,8.58,4.31,8.58,12.6S1228,436.69,1222.57,436.69Zm0-3.36c2.8,0,4.76-2.73,4.76-9.24s-2-9.24-4.76-9.24-4.76,2.73-4.76,9.24S1219.77,433.33,1222.57,433.33Z"/><path class="h" d="M1288.32,845.43h10l-.7,3.36h-14.7v-3c4.79-3.6,10.88-10,10.88-14.67,0-2.34-1.15-3.81-3.64-3.81a9.54,9.54,0,0,0-5.14,1.64l-1.68-2.94a14,14,0,0,1,7.49-2.06c4.3,0,6.79,2.45,6.79,6.72,0,5.39-5,11.24-9.28,14.63Z"/><path class="h" d="M1313.45,827.65h-12l.7-3.36h15.23v3l-8.54,21.49h-4Z"/><path class="h" d="M1328.33,849.14c-5.39,0-8.58-4.3-8.58-12.6s3.19-12.6,8.58-12.6,8.57,4.3,8.57,12.6S1333.72,849.14,1328.33,849.14Zm0-3.36c2.8,0,4.76-2.73,4.76-9.24s-2-9.24-4.76-9.24-4.76,2.73-4.76,9.24S1325.53,845.78,1328.33,845.78Z"/><rect class="k" x="1170.95" y="457.87" width="85.04" height="765.35"/><path class="h" d="M103.35,428.78c0,5.39-3.85,7.91-8.29,7.91A12.27,12.27,0,0,1,88,434.63l1.78-2.94a8.47,8.47,0,0,0,5.08,1.64c2.7,0,4.73-1.4,4.73-4.51s-2.1-4.55-4.87-4.55H92.85v-1.89l5.25-7v-.14H88.75l.7-3.36h12.82v3l-5,6.65v.11C100.55,422.17,103.35,424.06,103.35,428.78Z"/><path class="h" d="M114.87,436.69c-5.4,0-8.58-4.3-8.58-12.6s3.18-12.6,8.58-12.6,8.57,4.31,8.57,12.6S120.26,436.69,114.87,436.69Zm0-3.36c2.8,0,4.76-2.73,4.76-9.24s-2-9.24-4.76-9.24-4.77,2.73-4.77,9.24S112.06,433.33,114.87,433.33Z"/><path class="h" d="M16.68,501.45l-8.75,15.3v.14H13.5v-4.45h3.67v4.45h4l-.7,3.32H17.17V526H13.5v-5.74h-10v-3l9-15.79Z"/><path class="h" d="M31.14,526.3c-5.39,0-8.58-4.3-8.58-12.6s3.19-12.6,8.58-12.6,8.57,4.3,8.57,12.6S36.53,526.3,31.14,526.3Zm0-3.36c2.8,0,4.76-2.73,4.76-9.24s-2-9.24-4.76-9.24-4.76,2.73-4.76,9.24S28.34,522.94,31.14,522.94Z"/><path class="h" d="M10,692.87H20l-.7,3.36H4.57v-3c4.8-3.6,10.89-10,10.89-14.66,0-2.35-1.16-3.82-3.64-3.82a9.53,9.53,0,0,0-5.15,1.65L5,673.45a13.92,13.92,0,0,1,7.49-2.07c4.31,0,6.79,2.45,6.79,6.72,0,5.39-5,11.24-9.27,14.63Z"/><path class="h" d="M31.14,696.58c-5.39,0-8.58-4.3-8.58-12.6s3.19-12.6,8.58-12.6,8.57,4.31,8.57,12.6S36.53,696.58,31.14,696.58Zm0-3.36c2.8,0,4.76-2.73,4.76-9.24s-2-9.24-4.76-9.24-4.76,2.73-4.76,9.24S28.34,693.22,31.14,693.22Z"/><path class="h" d="M16.26,1114.88h-12l.7-3.36H20.15v3L11.61,1136h-4Z"/><path class="h" d="M31.14,1136.38c-5.39,0-8.58-4.31-8.58-12.6s3.19-12.61,8.58-12.61,8.57,4.31,8.57,12.61S36.53,1136.38,31.14,1136.38Zm0-3.36c2.8,0,4.76-2.73,4.76-9.24s-2-9.25-4.76-9.25-4.76,2.74-4.76,9.25S28.34,1133,31.14,1133Z"/><path class="i" d="M19.62,617.83c0,5.39-3.85,7.91-8.29,7.91a12.32,12.32,0,0,1-7.11-2.06L6,620.74a8.44,8.44,0,0,0,5.07,1.64c2.7,0,4.73-1.4,4.73-4.51s-2.1-4.55-4.87-4.55H9.12v-1.89l5.25-7v-.14H5l.7-3.36H18.54v3l-5,6.65v.11C16.82,611.22,19.62,613.11,19.62,617.83Z"/><path class="i" d="M31.14,625.74c-5.39,0-8.58-4.3-8.58-12.6s3.19-12.6,8.58-12.6,8.57,4.31,8.57,12.6S36.53,625.74,31.14,625.74Zm0-3.36c2.8,0,4.76-2.73,4.76-9.24s-2-9.24-4.76-9.24-4.76,2.73-4.76,9.24S28.34,622.38,31.14,622.38Z"/><path class="i" d="M19.62,760.34c0,5.39-3.85,7.91-8.29,7.91a12.32,12.32,0,0,1-7.11-2.07L6,763.24a8.45,8.45,0,0,0,5.07,1.65c2.7,0,4.73-1.4,4.73-4.52s-2.1-4.55-4.87-4.55H9.12v-1.89l5.25-7v-.14H5l.7-3.36H18.54v3l-5,6.65v.1C16.82,753.72,19.62,755.61,19.62,760.34Z"/><path class="i" d="M31.14,768.25c-5.39,0-8.58-4.31-8.58-12.6s3.19-12.6,8.58-12.6,8.57,4.3,8.57,12.6S36.53,768.25,31.14,768.25Zm0-3.36c2.8,0,4.76-2.73,4.76-9.24s-2-9.24-4.76-9.24-4.76,2.73-4.76,9.24S28.34,764.89,31.14,764.89Z"/><path class="i" d="M10,890.81H20l-.7,3.36H4.57v-3c4.8-3.61,10.89-10,10.89-14.67,0-2.34-1.16-3.81-3.64-3.81a9.6,9.6,0,0,0-5.15,1.64L5,871.38a14,14,0,0,1,7.49-2.06c4.31,0,6.79,2.45,6.79,6.72,0,5.39-5,11.23-9.27,14.63Z"/><path class="i" d="M31.14,894.52c-5.39,0-8.58-4.31-8.58-12.6s3.19-12.6,8.58-12.6,8.57,4.3,8.57,12.6S36.53,894.52,31.14,894.52Zm0-3.36c2.8,0,4.76-2.73,4.76-9.24s-2-9.24-4.76-9.24-4.76,2.73-4.76,9.24S28.34,891.16,31.14,891.16Z"/><rect class="k" x="67.08" y="458.28" width="85.04" height="764.68"/><rect class="l" x="67.08" y="854.46" width="85.04" height="56.69"/><path class="i" d="M10,1004.77H20l-.7,3.36H4.57v-3c4.8-3.6,10.89-10,10.89-14.66,0-2.35-1.16-3.82-3.64-3.82a9.53,9.53,0,0,0-5.15,1.65L5,985.35a13.92,13.92,0,0,1,7.49-2.07c4.31,0,6.79,2.45,6.79,6.72,0,5.39-5,11.24-9.27,14.63Z"/><path class="i" d="M31.14,1008.48c-5.39,0-8.58-4.3-8.58-12.6s3.19-12.6,8.58-12.6,8.57,4.31,8.57,12.6S36.53,1008.48,31.14,1008.48Zm0-3.36c2.8,0,4.76-2.73,4.76-9.24s-2-9.24-4.76-9.24-4.76,2.73-4.76,9.24S28.34,1005.12,31.14,1005.12Z"/><rect class="l" x="67.08" y="968.43" width="85.04" height="56.69"/><path class="h" d="M10,833.75H20l-.7,3.36H4.57v-3c4.8-3.6,10.89-10,10.89-14.66,0-2.35-1.16-3.82-3.64-3.82a9.53,9.53,0,0,0-5.15,1.65L5,814.33a13.92,13.92,0,0,1,7.49-2.07c4.31,0,6.79,2.45,6.79,6.72,0,5.39-5,11.24-9.27,14.63Z"/><path class="h" d="M31.14,837.46c-5.39,0-8.58-4.3-8.58-12.6s3.19-12.6,8.58-12.6,8.57,4.31,8.57,12.6S36.53,837.46,31.14,837.46Zm0-3.36c2.8,0,4.76-2.73,4.76-9.24s-2-9.24-4.76-9.24-4.76,2.73-4.76,9.24S28.34,834.1,31.14,834.1Z"/><path class="h" d="M10,947.25H20l-.7,3.36H4.57v-3c4.8-3.61,10.89-10,10.89-14.67,0-2.35-1.16-3.82-3.64-3.82a9.53,9.53,0,0,0-5.15,1.65L5,927.82a13.92,13.92,0,0,1,7.49-2.07c4.31,0,6.79,2.45,6.79,6.72,0,5.39-5,11.24-9.27,14.64Z"/><path class="h" d="M31.14,951c-5.39,0-8.58-4.31-8.58-12.6s3.19-12.61,8.58-12.61,8.57,4.31,8.57,12.61S36.53,951,31.14,951Zm0-3.36c2.8,0,4.76-2.73,4.76-9.24s-2-9.25-4.76-9.25-4.76,2.73-4.76,9.25S28.34,947.6,31.14,947.6Z"/><rect class="l" x="67.08" y="571.92" width="85.04" height="85.04"/><rect class="l" x="67.08" y="712.94" width="85.04" height="85.04"/><rect class="l" x="316.41" y="571.68" width="36.85" height="85.09"/><path class="i" d="M328.41,599.51v18.12h4.86v2.88h-13.5v-2.88h5.49V602.39h-5l.6-2.88Z"/><path class="i" d="M348.69,614c0,4.62-3.3,6.78-7.11,6.78a10.53,10.53,0,0,1-6.09-1.77l1.53-2.52a7.25,7.25,0,0,0,4.35,1.41c2.31,0,4.05-1.2,4.05-3.87s-1.8-3.9-4.17-3.9h-1.56v-1.62l4.5-6v-.12h-8l.6-2.88h11v2.58l-4.29,5.7v.09C346.29,608.36,348.69,610,348.69,614Z"/></svg>