<svg xmlns="http://www.w3.org/2000/svg" viewBox="0 0 7908.6615 3288.189"><defs><style>.a{fill:#54647d;}.b{fill:#2e2d2c;}.c{fill:#1d1d1b;}.d{fill:#fff;}</style></defs><path class="a" d="M64.97,950.29C78.83,950.29,85.94,959.11,85.94,970.9a30.5688,30.5688,0,0,1-5.31,18.0894l-6.0293-3.6c2.7-4.05,4.5-7.9194,4.5-13.8594,0-7.5595-4.68-13.23-14.13-13.23s-14.1289,6.12-14.1289,14.22a43.3131,43.3131,0,0,0,2.34,12.8691H22.0426V952.63l6.8394,1.8V977.74h16.2a33.6734,33.6734,0,0,1-.7207-7.2C44.361,958.75,51.4713,950.29,64.97,950.29Z"/><path class="a" d="M22.0426,915.37H78.2V900.3411h6.84v39.5981H78.2V923.02H28.882v15.5693l-6.8394-1.8Z"/><path class="a" d="M85.94,872.44c0,13.86-11.07,21.6-32.3989,21.6s-32.3985-7.74-32.3985-21.6,11.0694-21.5986,32.3985-21.5986S85.94,858.58,85.94,872.44Zm-6.8394,0c0-8.2793-7.56-13.5894-25.5595-13.5894S27.9821,864.16,27.9821,872.44s7.56,13.59,25.5586,13.59S79.1,880.72,79.1,872.44Z"/><path class="a" d="M39.1413,785.2312v-9.6294l45.8984-4.41v7.47l-36.9883,2.97v.36l29.5186,10.62v8.37L48.0514,811.69v.36L85.04,815.02v7.47l-45.8984-4.41v-9.63L70.91,796.9309v-.27Z"/><path class="a" d="M39.1413,725.8318v-9.6294l45.8984-4.41v7.47l-36.9883,2.97v.36l29.5186,10.62v8.37L48.0514,752.2908v.36l36.9883,2.97v7.47l-45.8984-4.41v-9.63L70.91,737.5315v-.27Z"/><path class="a" d="M741.1339,50.3884,718.1847,90.6167v.36h16.56V78.6472h7.6494V90.9766h10.8l-1.8,6.75h-9v15.6594h-7.6494V97.7263H708.6452v-5.85l23.6689-41.4883Z"/><path class="a" d="M788.8336,84.4968a16.5781,16.5781,0,0,1-12.15,5.04c-10.1694,0-17.6391-7.29-17.6391-19.979s8.37-20.0693,20.0693-20.0693c12.69,0,19.979,9.54,19.979,23.6692,0,19.3491-13.4092,35.8183-31.8584,41.1281l-2.79-5.49c10.62-4.23,21.1489-11.9695,24.6592-24.1189Zm-9.72-28.1687c-7.2,0-12.06,4.59-12.06,13.2295s4.86,13.1394,12.06,13.1394c5.4,0,9.99-3.96,12.2393-9.54C791.3532,63.0779,787.2135,56.3281,779.1139,56.3281Z"/><path class="a" d="M827.8942,114.2856c-13.86,0-21.6-11.07-21.6-32.3986s7.74-32.3987,21.6-32.3987,21.5986,11.07,21.5986,32.3987S841.7536,114.2856,827.8942,114.2856Zm0-6.84c8.2793,0,13.5893-7.56,13.5893-25.559s-5.31-25.5589-13.5893-25.5589-13.59,7.56-13.59,25.5589S819.6144,107.446,827.8942,107.446Z"/><path class="a" d="M915.1027,67.4875h9.6294l4.41,45.8982h-7.47l-2.97-36.9885h-.36l-10.62,29.5188h-8.37l-10.71-29.5188h-.36l-2.97,36.9885h-7.47l4.41-45.8982h9.63l11.52,31.7688h.27Z"/><path class="a" d="M974.5021,67.4875h9.6294l4.41,45.8982h-7.47l-2.97-36.9885h-.36l-10.62,29.5188h-8.37l-10.71-29.5188h-.36l-2.97,36.9885h-7.47l4.41-45.8982h9.63l11.5195,31.7688h.27Z"/><rect class="b" x="170.9296" y="198.4253" width="1388.9764" height="1445.6693" rx="137.1461"/><path class="c" d="M1409.9061,1605.5434H319.2283a110.61,110.61,0,0,1-110.61-110.61V347.5869a110.61,110.61,0,0,1,110.61-110.61H1409.9061a110.61,110.61,0,0,1,110.61,110.61V1494.9336A110.61,110.61,0,0,1,1409.9061,1605.5434ZM319.2283,262.9765a84.61,84.61,0,0,0-84.61,84.61V1494.9336a84.61,84.61,0,0,0,84.61,84.61H1409.9061a84.61,84.61,0,0,0,84.61-84.61V347.5869a84.61,84.61,0,0,0-84.61-84.61Z"/><rect class="b" x="1757.4803" y="198.4254" width="1388.9764" height="1445.6693" rx="137.1461"/><path class="c" d="M2997.3077,1605.5434H1906.63a110.61,110.61,0,0,1-110.61-110.61V347.5869a110.61,110.61,0,0,1,110.61-110.61H2997.3077a110.61,110.61,0,0,1,110.61,110.61V1494.9336A110.61,110.61,0,0,1,2997.3077,1605.5434ZM1906.63,262.9766a84.61,84.61,0,0,0-84.61,84.61V1494.9336a84.61,84.61,0,0,0,84.61,84.61H2997.3077a84.61,84.61,0,0,0,84.61-84.61V347.5869a84.61,84.61,0,0,0-84.61-84.61Z"/><rect class="b" x="3344.8819" y="198.4254" width="1388.9764" height="1445.6693" rx="137.1461"/><path class="c" d="M4584.7092,1605.5434H3494.0315a110.61,110.61,0,0,1-110.61-110.61V347.5869a110.61,110.61,0,0,1,110.61-110.61H4584.7092a110.61,110.61,0,0,1,110.61,110.61V1494.9336A110.61,110.61,0,0,1,4584.7092,1605.5434ZM3494.0315,262.9766a84.61,84.61,0,0,0-84.61,84.61V1494.9336a84.61,84.61,0,0,0,84.61,84.61H4584.7092a84.61,84.61,0,0,0,84.61-84.61V347.5869a84.61,84.61,0,0,0-84.61-84.61Z"/><rect class="b" x="4932.2835" y="198.4252" width="1388.9764" height="1445.6693" rx="137.1461"/><path class="c" d="M6172.1108,1605.5433H5081.433a110.61,110.61,0,0,1-110.61-110.61V347.5867a110.61,110.61,0,0,1,110.61-110.61H6172.1108a110.61,110.61,0,0,1,110.61,110.61V1494.9335A110.61,110.61,0,0,1,6172.1108,1605.5433ZM5081.433,262.9764a84.61,84.61,0,0,0-84.61,84.61V1494.9335a84.61,84.61,0,0,0,84.61,84.61H6172.1108a84.61,84.61,0,0,0,84.61-84.61V347.5867a84.61,84.61,0,0,0-84.61-84.61Z"/><rect class="b" x="6519.6851" y="198.4253" width="1388.9764" height="1445.6693" rx="137.1461"/><path class="c" d="M7759.5124,1605.5434H6668.8346a110.61,110.61,0,0,1-110.61-110.61V347.5869a110.61,110.61,0,0,1,110.61-110.61H7759.5124a110.61,110.61,0,0,1,110.61,110.61V1494.9336A110.61,110.61,0,0,1,7759.5124,1605.5434ZM6668.8346,262.9765a84.61,84.61,0,0,0-84.61,84.61V1494.9336a84.61,84.61,0,0,0,84.61,84.61H7759.5124a84.61,84.61,0,0,0,84.61-84.61V347.5869a84.61,84.61,0,0,0-84.61-84.61Z"/><rect class="b" x="1757.4803" y="1842.5199" width="1388.9764" height="1445.6693" rx="137.1461"/><path class="c" d="M2997.3077,3249.6379H1906.63a110.61,110.61,0,0,1-110.61-110.61V1991.6814a110.61,110.61,0,0,1,110.61-110.61H2997.3077a110.61,110.61,0,0,1,110.61,110.61V3139.0281A110.61,110.61,0,0,1,2997.3077,3249.6379ZM1906.63,1907.0711a84.61,84.61,0,0,0-84.61,84.61V3139.0281a84.61,84.61,0,0,0,84.61,84.61H2997.3077a84.61,84.61,0,0,0,84.61-84.61V1991.6814a84.61,84.61,0,0,0-84.61-84.61Z"/><rect class="b" x="6519.6851" y="1842.5197" width="1388.9764" height="1445.6693" rx="137.1461"/><path class="c" d="M7759.5124,3249.6378H6668.8346a110.61,110.61,0,0,1-110.61-110.61V1991.6812a110.61,110.61,0,0,1,110.61-110.61H7759.5124a110.61,110.61,0,0,1,110.61,110.61V3139.028A110.61,110.61,0,0,1,7759.5124,3249.6378ZM6668.8346,1907.0709a84.61,84.61,0,0,0-84.61,84.61V3139.028a84.61,84.61,0,0,0,84.61,84.61H7759.5124a84.61,84.61,0,0,0,84.61-84.61V1991.6812a84.61,84.61,0,0,0-84.61-84.61Z"/><rect class="b" x="4960.6299" y="1842.5198" width="1388.9764" height="1445.6693" rx="137.1461"/><path class="c" d="M6200.4572,3249.6379H5109.7794a110.61,110.61,0,0,1-110.61-110.61V1991.6814a110.61,110.61,0,0,1,110.61-110.61H6200.4572a110.61,110.61,0,0,1,110.61,110.61V3139.0281A110.61,110.61,0,0,1,6200.4572,3249.6379ZM5109.7794,1907.071a84.61,84.61,0,0,0-84.61,84.61V3139.0281a84.61,84.61,0,0,0,84.61,84.61H6200.4572a84.61,84.61,0,0,0,84.61-84.61V1991.6814a84.61,84.61,0,0,0-84.61-84.61Z"/><rect class="b" x="3344.8819" y="1842.5199" width="1388.9764" height="1445.6693" rx="137.1461"/><path class="c" d="M4584.7092,3249.6379H3494.0315a110.61,110.61,0,0,1-110.61-110.61V1991.6814a110.61,110.61,0,0,1,110.61-110.61H4584.7092a110.61,110.61,0,0,1,110.61,110.61V3139.0281A110.61,110.61,0,0,1,4584.7092,3249.6379ZM3494.0315,1907.0711a84.61,84.61,0,0,0-84.61,84.61V3139.0281a84.61,84.61,0,0,0,84.61,84.61H4584.7092a84.61,84.61,0,0,0,84.61-84.61V1991.6814a84.61,84.61,0,0,0-84.61-84.61Z"/><rect class="b" x="170.0787" y="1842.5198" width="1388.9764" height="1445.6693" rx="137.1461"/><path class="c" d="M1409.9061,3249.6379H319.2283a110.61,110.61,0,0,1-110.61-110.61V1991.6814a110.61,110.61,0,0,1,110.61-110.61H1409.9061a110.61,110.61,0,0,1,110.61,110.61V3139.0281A110.61,110.61,0,0,1,1409.9061,3249.6379ZM319.2283,1907.071a84.61,84.61,0,0,0-84.61,84.61V3139.0281a84.61,84.61,0,0,0,84.61,84.61H1409.9061a84.61,84.61,0,0,0,84.61-84.61V1991.6814a84.61,84.61,0,0,0-84.61-84.61Z"/><path class="d" d="M663.8366,555.1055c-34.4,0-66.7364,11.6962-97.0088,30.2724L526.236,515.89c55.04-29.5844,94.2558-40.5922,150.6719-40.5922,84.625,0,136.913,48.16,136.913,132.0966,0,105.9527-91.5048,207.0889-175.44,273.8252v2.752h189.2l-13.76,79.8086H517.9791V890.8516c94.2569-70.8648,207.09-182.3213,207.09-274.5137C725.069,578.4975,703.7409,555.1055,663.8366,555.1055Z"/><path class="d" d="M1115.1627,482.1772v401.794h108.0166V963.78H906.6979V883.9712h122.4648V561.9858H917.0182l13.76-79.8086Z"/><path class="d" d="M620.4606,1181.0925H638.82L610.8761,1255.34c-4.4551,11.7441-11.34,21.5986-24.2993,21.5986a24.2084,24.2084,0,0,1-15.1191-4.7246l8.2343-13.3642c2.16,1.62,3.78,2.43,6.21,2.43,2.7,0,5.8047-2.5644,8.5044-9.18l1.89-4.7247h-5.4l-29.1587-66.2822h19.709l20.79,48.7334h.4048Z"/><path class="d" d="M654.2125,1181.0925H709.695v94.4961H692.4157v-78.8369H670.817c0,48.8682-6.48,79.5117-27.6743,79.5117a24.6518,24.6518,0,0,1-9.7192-1.89l3.24-14.85a12.9513,12.9513,0,0,0,4.32.8105c9.0444,0,13.2294-18.63,13.2294-75.5976Z"/><path class="d" d="M742.2311,1257.7693a9.5845,9.5845,0,1,1-9.5845,9.5849A9.622,9.622,0,0,1,742.2311,1257.7693Z"/><path class="d" d="M864.2677,1213.8962h-.4053l-16.1992,49.2725H829.9791l-16.3344-49.2725h-.4053l-5.6694,61.6924H790.2907l8.7744-94.4961h19.3042l20.25,60.7471h.4048l20.249-60.7471h19.3042l8.7749,94.4961H870.0724Z"/><path class="d" d="M968.6227,1212.9509h-.4053l-42.1181,62.6377H911.6549v-94.4961h17.2793v62.7725h.4048l42.1187-62.7725H985.902v94.4961H968.6227Z"/><path class="d" d="M1031.5324,1242.38v33.209h-17.2793v-94.4961h30.9135c17.9546,0,31.4537,10.3946,31.4537,30.6436s-13.4991,30.6435-31.4537,30.6435Zm0-45.6279V1226.72h13.3642c8.2349,0,13.77-5.5341,13.77-14.9843s-5.5347-14.9844-13.77-14.9844Z"/><path class="d" d="M1137.1017,1254.9343H1107.133l-6.21,20.6543h-18.2241l31.5888-94.4961h15.7945l31.5884,94.4961h-18.2242Zm-25.3789-15.2539h20.7891l-10.1245-34.2891h-.54Z"/><path class="d" d="M708.4562,1408.4914H698.3771l-13.6309-40.893h-.3842l-4.6075,49.7246H669.3874l6.2392-67.1953h12.7671l14.8789,44.1567h.2881l14.8789-44.1567h12.7671l6.24,67.1953H727.0788l-4.6075-49.7246h-.3838Z"/><path class="d" d="M754.7311,1417.323v-9.2153H765.77V1359.343H754.7311v-9.2153h32.9253l-1.92,9.2153h-9.5991v48.7647h11.039v9.2153Z"/><path class="d" d="M848.8068,1370.0945c0,10.3672-5.76,16.6069-13.919,18.8144l17.5664,28.4141-11.2309.96-17.5669-28.414h-5.9512v27.4541H807.3375v-67.1953h20.4468C839.4,1350.1277,848.8068,1356.9436,848.8068,1370.0945Zm-31.1016-10.7515v21.3106h9.5991c6.1436,0,10.751-3.84,10.751-10.5591s-4.6074-10.7515-10.751-10.7515Z"/><path class="d" d="M863.0182,1417.323l22.4624-67.1953h10.271l22.4624,67.1953H907.1749l-4.8-15.647H878.7609l-4.7036,15.647Zm27.8379-53.4683h-.48l-8.9272,28.8941h18.2387Z"/><path class="d" d="M995.3019,1399.9485c0-6.6236-6.4316-10.2715-13.8228-13.1514-8.64-3.36-18.5268-8.2554-18.5268-19.3906,0-11.5191,8.16-18.2388,21.79-18.2388a38.0659,38.0659,0,0,1,19.1987,5.1841l-4.8959,8.1592a25.6787,25.6787,0,0,0-14.3028-4.128c-7.2954,0-11.039,2.9761-11.039,8.4478s6.6235,9.023,12.479,11.3271c10.559,4.1275,19.8706,8.7354,19.8706,21.2144,0,11.9033-8.3516,18.9106-23.4224,18.9106-9.2153,0-14.9751-2.1118-21.2144-5.9516l5.4717-8.4473a25.01,25.01,0,0,0,15.7427,5.1836C990.1183,1409.0676,995.3019,1406.1877,995.3019,1399.9485Z"/><path class="d" d="M1048.8693,1359.343v57.98h-10.3677v-57.98h-19.9663v-9.2153h50.3965l-1.92,9.2153Z"/><path class="d" d="M1081.03,1405.6121a6.3354,6.3354,0,1,1-6.3354,6.3354A6.3915,6.3915,0,0,1,1081.03,1405.6121Z"/><path class="d" d="M2089.6969,1181.0925h18.3594l-27.9434,74.2471c-4.455,11.7441-11.34,21.5986-24.2988,21.5986a24.2067,24.2067,0,0,1-15.1191-4.7246l8.2343-13.3642c2.16,1.62,3.7793,2.43,6.209,2.43,2.7,0,5.8047-2.5644,8.5049-9.18l1.89-4.7247h-5.3995l-29.1591-66.2822h19.7089l20.79,48.7334h.4053Z"/><path class="d" d="M2123.4489,1181.0925h55.4824v94.4961H2161.652v-78.8369h-21.5977c0,48.8682-6.48,79.5117-27.6748,79.5117a24.6566,24.6566,0,0,1-9.72-1.89l3.24-14.85a12.9544,12.9544,0,0,0,4.32.8105c9.0439,0,13.2285-18.63,13.2285-75.5976Z"/><path class="d" d="M2211.4684,1257.7693a9.5845,9.5845,0,1,1-9.585,9.5849A9.6214,9.6214,0,0,1,2211.4684,1257.7693Z"/><path class="d" d="M2263.5778,1275.5886v-94.4961H2293.14c16.875,0,29.5644,6.21,29.5644,22.6787,0,12.42-7.4248,19.3047-16.0644,21.6v.54c11.88,2.8349,19.4394,10.3945,19.4394,23.4892,0,19.3037-14.4443,26.1885-32.9394,26.1885Zm28.6181-78.8369h-11.3388v22.8145h11.3388c8.2354,0,12.6895-4.59,12.6895-11.4747S2300.4313,1196.7517,2292.1959,1196.7517Zm.1358,37.6641h-11.4746v25.5136h11.4746c9.9883,0,15.9287-4.9951,15.9287-12.42C2308.26,1238.87,2302.32,1234.4158,2292.3317,1234.4158Z"/><path class="d" d="M2393.31,1254.9343h-29.9687l-6.21,20.6543h-18.2236l31.5878-94.4961h15.795l31.5879,94.4961h-18.2237Zm-25.3789-15.2539H2388.72l-10.125-34.2891h-.5391Z"/><path class="d" d="M2493.7487,1212.9509h-.4053l-42.1182,62.6377h-14.4443v-94.4961H2454.06v62.7725h.4043l42.1191-62.7725h14.4444v94.4961h-17.2793Zm4.4541-48.7324c-5.9395,9.18-13.6338,12.8242-24.2988,12.8242s-18.3594-3.6445-24.2989-12.8242l10.8-7.6953c3.2393,6.48,8.5049,9.0449,13.4991,9.0449s10.3945-2.7,13.5-9.0449Z"/><path class="d" d="M2556.6579,1218.8913h35.3691v-37.7988h17.2793v94.4961H2592.027v-41.0381h-35.3691v41.0381h-17.2793v-94.4961h17.2793Z"/><path class="d" d="M2637.6579,1275.5886v-94.4961h54.8066l-2.6992,15.6592h-34.8281v22.14h30.7783v15.6592h-30.7783v25.3789h37.5273v15.6592Z"/><path class="d" d="M2735.3961,1242.38v33.209h-17.2793v-94.4961h30.9141c17.9551,0,31.4531,10.3946,31.4531,30.6436s-13.498,30.6435-31.4531,30.6435Zm0-45.6279V1226.72h13.3653c8.2343,0,13.77-5.5341,13.77-14.9843s-5.5352-14.9844-13.77-14.9844Z"/><path class="d" d="M2840.9665,1254.9343h-29.9688l-6.2109,20.6543h-18.2237l31.5889-94.4961h15.7949l31.5879,94.4961H2847.31Zm-25.379-15.2539h20.7891l-10.125-34.2891h-.54Z"/><path class="d" d="M2206.8805,1350.1277h11.3272l-20.9268,67.1953h-11.999l-20.9268-67.1953h11.3281l15.3584,52.8926h.3838Z"/><path class="d" d="M2221.5729,1417.323l22.4619-67.1953h10.2715l22.4629,67.1953H2265.73l-4.8008-15.647h-23.6132l-4.7041,15.647Zm27.8379-53.4683h-.4795l-8.9277,28.8941h18.2382Z"/><path class="d" d="M2320.64,1350.1277h12.0957l-21.5977,39.1655v28.03h-10.3672v-28.03l-21.6-39.1655h12.0957l14.3985,28.03h.3847Z"/><path class="d" d="M2387.2643,1400.14h.3838v-50.0127h10.3672v67.1953h-11.1348l-28.51-49.9165h-.3847v49.9165h-10.3672v-67.1953h11.1348Z"/><path class="d" d="M2421.0573,1417.323v-67.1953h38.0136l-1.92,9.2153h-25.7256v18.6231h22.8457v9.2153h-22.8457v20.9263h27.6455v9.2153Z"/><path class="d" d="M2521.6627,1370.0945c0,10.3672-5.76,16.6069-13.9189,18.8144l17.5664,28.4141-11.2305.96-17.5673-28.414h-5.9512v27.4541H2480.193v-67.1953H2500.64C2512.2555,1350.1277,2521.6627,1356.9436,2521.6627,1370.0945Zm-31.1015-10.7515v21.3106h9.5986c6.1445,0,10.752-3.84,10.752-10.5591s-4.6075-10.7515-10.752-10.7515Z"/><path class="d" d="M2535.8737,1417.323l22.4619-67.1953h10.2715l22.4629,67.1953h-11.0391l-4.8008-15.647h-23.6133l-4.7041,15.647Zm27.8379-53.4683h-.4795l-8.9278,28.8941h18.2383Z"/><path class="d" d="M2668.1579,1399.9485c0-6.6236-6.4317-10.2715-13.8233-13.1514-8.64-3.36-18.5264-8.2554-18.5264-19.3906,0-11.5191,8.1592-18.2388,21.79-18.2388a38.0628,38.0628,0,0,1,19.1982,5.1841l-4.8955,8.1592a25.6783,25.6783,0,0,0-14.3027-4.128c-7.2959,0-11.0391,2.9761-11.0391,8.4478s6.624,9.023,12.4795,11.3271c10.5586,4.1275,19.87,8.7354,19.87,21.2144,0,11.9033-8.3515,18.9106-23.4228,18.9106-9.2149,0-14.9746-2.1118-21.2139-5.9516l5.4717-8.4473a25.0089,25.0089,0,0,0,15.7422,5.1836C2662.9743,1409.0676,2668.1579,1406.1877,2668.1579,1399.9485Z"/><path class="d" d="M2721.7243,1359.343v57.98h-10.3672v-57.98h-19.9658v-9.2153h50.3964l-1.92,9.2153Z"/><path class="d" d="M2753.8864,1405.6121a6.3354,6.3354,0,1,1-6.336,6.3354A6.3913,6.3913,0,0,1,2753.8864,1405.6121Z"/><path class="d" d="M3542.3034,1181.0925h18.3593l-27.9443,74.2471c-4.4551,11.7441-11.34,21.5986-24.2988,21.5986a24.207,24.207,0,0,1-15.1192-4.7246l8.2344-13.3642c2.16,1.62,3.7793,2.43,6.21,2.43,2.7,0,5.8047-2.5644,8.5049-9.18l1.89-4.7247H3512.74l-29.1592-66.2822h19.709l20.79,48.7334h.4043Z"/><path class="d" d="M3576.0553,1181.0925h55.4834v94.4961h-17.2793v-78.8369h-21.6c0,48.8682-6.4805,79.5117-27.6738,79.5117a24.6486,24.6486,0,0,1-9.72-1.89l3.2392-14.85a12.9589,12.9589,0,0,0,4.32.8105c9.0449,0,13.2295-18.63,13.2295-75.5976Z"/><path class="d" d="M3664.0739,1257.7693a9.5845,9.5845,0,1,1-9.584,9.5849A9.6216,9.6216,0,0,1,3664.0739,1257.7693Z"/><path class="d" d="M3733.4625,1196.7517v21.6h11.7442c19.5742,0,32.6689,9.3145,32.6689,28.6182s-12.96,28.6191-32.6689,28.6191h-29.0235v-94.4961h55.3477l-2.6992,15.6592Zm0,37.2588v25.9189h10.9346c10.9346,0,15.6592-5.5351,15.6592-12.96,0-7.9649-4.59-12.959-15.7949-12.959Z"/><path class="d" d="M3798.8024,1275.5886v-94.4961H3853.61l-2.7,15.6592h-34.8281v22.14h30.7793v15.6592h-30.7793v25.3789H3853.61v15.6592Z"/><path class="d" d="M3887.902,1181.0925h55.4824v94.4961h-17.2793v-78.8369h-21.6c0,48.8682-6.4785,79.5117-27.6738,79.5117a24.6556,24.6556,0,0,1-9.7188-1.89l3.24-14.85a12.9425,12.9425,0,0,0,4.3193.8105c9.044,0,13.2295-18.63,13.2295-75.5976Z"/><path class="d" d="M4028.7028,1212.9509h-.4043l-42.1192,62.6377H3971.736v-94.4961h17.2793v62.7725h.4043l42.1191-62.7725h14.4434v94.4961h-17.2793Z"/><path class="d" d="M4091.6129,1218.8913h35.3692v-37.7988h17.2793v94.4961h-17.2793v-41.0381h-35.3692v41.0381h-17.2793v-94.4961h17.2793Z"/><path class="d" d="M4235.3844,1269.6492c-8.5039,4.8593-15.6592,7.289-26.3242,7.289-28.0781,0-40.498-21.3291-40.498-48.5976s12.42-48.5977,40.498-48.5977a48.784,48.784,0,0,1,24.7051,6.0742l-6.8848,13.9043a39.6241,39.6241,0,0,0-17.82-4.3193c-15.3887,0-22.6777,14.4443-22.6777,32.9385s7.289,32.9384,22.6777,32.9384a38.2653,38.2653,0,0,0,19.3047-5.3994Z"/><path class="d" d="M4281.6911,1234.5505h-6.75v41.0381h-17.2793v-94.4961h17.2793v37.7988h7.02l24.4336-37.7988h19.3047l-29.5645,44.6836,32.3994,49.8125-19.4394,1.35Z"/><path class="d" d="M4376.46,1276.9382c-28.0791,0-39.8232-21.3291-39.8232-48.5976s11.7441-48.5977,39.8232-48.5977,39.8233,21.3291,39.8233,48.5977S4404.5387,1276.9382,4376.46,1276.9382Zm0-81.5361c-15.39,0-22.0039,14.4443-22.0039,32.9385s6.6143,32.9384,22.0039,32.9384,22.0039-14.4443,22.0039-32.9384S4391.8493,1195.4021,4376.46,1195.4021Z"/><path class="d" d="M4457.8649,1196.7517v78.8369h-17.2793v-94.4961h53.998l-2.6992,15.6592Z"/><path class="d" d="M4542.5094,1276.9382c-28.0791,0-39.8242-21.3291-39.8242-48.5976s11.7451-48.5977,39.8242-48.5977,39.8223,21.3291,39.8223,48.5977S4570.5875,1276.9382,4542.5094,1276.9382Zm0-81.5361c-15.39,0-22.0039,14.4443-22.0039,32.9385s6.6143,32.9384,22.0039,32.9384,22.0039-14.4443,22.0039-32.9384S4557.8981,1195.4021,4542.5094,1195.4021Z"/><path class="d" d="M3689.1637,1381.9973c8.4473,2.0161,13.8223,7.3916,13.8223,16.7031,0,13.7271-10.2715,18.6226-23.4219,18.6226h-20.0625v-67.1953h20.0625c11.999,0,21.0225,4.416,21.0225,16.1269,0,8.8316-5.28,13.7271-11.4229,15.3589Zm-19.2949-22.6543V1378.35h9.0234c6.4317,0,10.9434-4.0317,10.9434-9.6953,0-6.1435-3.9356-9.3115-11.3281-9.3115Zm0,27.8384v20.9263h9.1191c8.2559,0,13.2471-4.2237,13.2471-10.6553,0-6.8154-4.7041-10.271-13.3428-10.271Z"/><path class="d" d="M3723.1491,1417.323v-67.1953h38.0136l-1.92,9.2153h-25.7256v18.6231h22.8457v9.2153h-22.8457v20.9263h27.6455v9.2153Z"/><path class="d" d="M3782.2848,1417.323v-67.1953h10.3672v57.98h30.43l-1.92,9.2153Z"/><path class="d" d="M3836.525,1417.323v-9.2153h11.0391V1359.343H3836.525v-9.2153H3869.45l-1.92,9.2153h-9.5986v48.7647H3868.97v9.2153Z"/><path class="d" d="M3928.777,1400.14h.3828v-50.0127h10.3672v67.1953h-11.1348l-28.51-49.9165h-.3838v49.9165h-10.3682v-67.1953h11.1358Z"/><path class="d" d="M3992.6159,1399.9485c0-6.6236-6.4307-10.2715-13.8233-13.1514-8.6386-3.36-18.5263-8.2554-18.5263-19.3906,0-11.5191,8.1591-18.2388,21.79-18.2388a38.0692,38.0692,0,0,1,19.1992,5.1841l-4.8965,8.1592a25.6734,25.6734,0,0,0-14.3027-4.128c-7.2949,0-11.0391,2.9761-11.0391,8.4478s6.6241,9.023,12.48,11.3271c10.56,4.1275,19.87,8.7354,19.87,21.2144,0,11.9033-8.3515,18.9106-23.4218,18.9106-9.2149,0-14.9746-2.1118-21.2149-5.9516l5.4727-8.4473a25.0069,25.0069,0,0,0,15.7422,5.1836C3987.4323,1409.0676,3992.6159,1406.1877,3992.6159,1399.9485Z"/><path class="d" d="M4047.0465,1381.9016l24.959,35.4214-11.9033.96-22.1748-31.2939h-4.9912v30.334H4022.568v-67.1953h10.3682v28.03h5.2793l19.9668-28.03H4069.99Z"/><path class="d" d="M4108.487,1418.2829c-19.9668,0-27.8379-15.1669-27.8379-34.5576s7.8711-34.5576,27.8379-34.5576,27.8379,15.167,27.8379,34.5576S4128.4528,1418.2829,4108.487,1418.2829Zm0-59.9c-12.2871,0-17.087,11.1353-17.087,25.3423s4.8,25.3423,17.087,25.3423,17.0869-11.1352,17.0869-25.3423S4120.7741,1358.383,4108.487,1358.383Z"/><path class="d" d="M4164.359,1383.7253c0,14.2071,5.1836,25.3423,17.8555,25.3423a23.573,23.573,0,0,0,9.6953-1.8237V1390.157h-11.8066v-9.0235h21.5019v31.0059c-6.5273,4.5117-11.8076,6.1435-19.7754,6.1435-19.9658,0-28.2207-15.1669-28.2207-34.5576s8.2549-34.5576,28.2207-34.5576a36.4,36.4,0,0,1,18.2393,4.32l-4.1279,8.3516a29.52,29.52,0,0,0-14.1114-3.4561C4169.5426,1358.383,4164.359,1369.5183,4164.359,1383.7253Z"/><path class="d" d="M4247.2067,1418.2829c-19.9668,0-27.8379-15.1669-27.8379-34.5576s7.8711-34.5576,27.8379-34.5576,27.8379,15.167,27.8379,34.5576S4267.1735,1418.2829,4247.2067,1418.2829Zm0-59.9c-12.2871,0-17.0869,11.1353-17.0869,25.3423s4.8,25.3423,17.0869,25.3423,17.0859-11.1352,17.0859-25.3423S4259.4938,1358.383,4247.2067,1358.383Z"/><path class="d" d="M4355.9733,1399.9485c0-6.6236-6.4307-10.2715-13.8233-13.1514-8.6386-3.36-18.5263-8.2554-18.5263-19.3906,0-11.5191,8.1592-18.2388,21.79-18.2388a38.0692,38.0692,0,0,1,19.1992,5.1841l-4.8964,8.1592a25.674,25.674,0,0,0-14.3028-4.128c-7.2949,0-11.039,2.9761-11.039,8.4478s6.624,9.023,12.4794,11.3271c10.56,4.1275,19.87,8.7354,19.87,21.2144,0,11.9033-8.3516,18.9106-23.4219,18.9106-9.2149,0-14.9746-2.1118-21.2149-5.9516l5.4727-8.4473a25.0069,25.0069,0,0,0,15.7422,5.1836C4350.79,1409.0676,4355.9733,1406.1877,4355.9733,1399.9485Z"/><path class="d" d="M4409.5407,1359.343v57.98h-10.3672v-57.98h-19.9668v-9.2153h50.3965l-1.92,9.2153Z"/><path class="d" d="M4441.7018,1405.6121a6.3354,6.3354,0,1,1-6.335,6.3354A6.3907,6.3907,0,0,1,4441.7018,1405.6121Z"/><path class="d" d="M2352.5749,760.1309c-20.6407,13.76-47.4727,21.3281-74.9932,21.3281-81.8721,0-141.7285-54.3526-141.7285-151.3609,0-94.2563,70.1767-154.8007,160.3047-154.8007,97.0087,0,159.6171,69.4882,159.6171,176.8168,0,174.065-106.6406,277.2652-249.0576,318.5455l-29.584-63.2964c74.9922-28.896,149.9854-72.24,177.5049-145.8565Zm16.5117-108.0167c0-58.48-28.8965-97.0087-72.9287-97.0087-39.2159,0-74.9922,23.392-74.9922,74.9926s35.7763,74.9922,74.9922,74.9922C2325.0543,705.09,2356.7028,682.3862,2369.0866,652.1142Z"/><path class="d" d="M2695.5885,891.959H2593.6334L2573.0416,963.78H2495.194l112.5019-351.57h73.83l112.503,351.57h-77.8477Zm-50.2236-182.8164h-2.0088l-30.6377,116.018h63.7852Z"/><path class="d" d="M3788.9577,701.8323c37.9882,24.3808,60.6689,52.164,60.6689,96.39,0,74.8442-49.3291,114.5342-130.41,114.5342s-130.4112-39.69-130.4112-114.5342c0-41.958,21.5469-75.978,60.67-98.6582v-2.2681c-28.917-15.8759-48.1953-46.4941-48.1953-87.8852,0-66.9063,42.5254-104.895,117.9366-104.895s117.9355,37.9887,117.9355,104.895c0,38.5561-21.5459,70.3081-48.1943,90.1533Zm-85.0508,25.5151c-30.6182,18.144-44.793,41.3911-44.793,70.875,0,34.5869,26.6494,48.7622,60.1026,48.7622s60.1015-14.1753,60.1015-48.7622c0-28.917-20.4121-48.1953-50.4629-60.6689Zm8.5049-63.5044,20.9795,9.0723c21.5459-16.4434,33.4531-37.9893,33.4531-63.5044,0-24.9478-18.711-39.1231-47.6279-39.1231s-47.629,14.1753-47.629,39.1231C3671.5875,637.761,3687.4635,653.07,3712.4118,663.843Z"/><path class="d" d="M4019.1178,617.35h48.0137L3913.5709,972.4846h-48.0136Z"/><path class="d" d="M4207.028,617.35V850.7952h64.9834v56.2915H4077.4733V850.7952H4147.01V673.6413h-63.3281l8.2783-56.2915Z"/><path class="d" d="M4402.3913,911.2258c-63.7422,0-105.5469-50.9111-105.5469-149.0078s41.8047-149.0073,105.5469-149.0073,105.5468,50.9106,105.5468,149.0073S4466.1334,911.2258,4402.3913,911.2258Zm0-56.292c24.0068,0,43.875-27.3178,43.875-92.7158s-19.8682-92.7158-43.875-92.7158-43.8741,27.3183-43.8741,92.7158S4378.3844,854.9338,4402.3913,854.9338Z"/><path class="d" d="M5098.3864,1199.988h14.6885l-22.3565,59.4014c-3.5644,9.3965-9.0723,17.28-19.44,17.28a19.3635,19.3635,0,0,1-12.0957-3.78l6.5879-10.6924a7.6108,7.6108,0,0,0,4.9677,1.9443c2.16,0,4.6446-2.0517,6.8047-7.3437l1.5117-3.78h-4.32l-23.3281-53.0293h15.7676l16.6328,38.9893h.3242Z"/><path class="d" d="M5125.3864,1199.988h44.3886V1275.59h-13.8242v-63.0733h-17.28c0,39.0967-5.1846,63.6133-22.14,63.6133a19.7416,19.7416,0,0,1-7.7773-1.5117l2.5927-11.8808a10.3581,10.3581,0,0,0,3.4561.6484c7.2363,0,10.584-14.9043,10.584-60.4815Z"/><path class="d" d="M5195.8014,1261.3337a7.668,7.668,0,1,1-7.6689,7.668A7.6977,7.6977,0,0,1,5195.8014,1261.3337Z"/><path class="d" d="M5256.7125,1242.7566h-5.4v32.833h-13.8243V1199.988h13.8243v30.2412h5.6171l19.5479-30.2412h15.4443l-23.6523,35.7491,25.92,39.8525-15.5527,1.08Z"/><path class="d" d="M5332.529,1276.67c-22.4649,0-31.8614-17.0645-31.8614-38.8809s9.3965-38.8809,31.8614-38.8809,31.86,17.0645,31.86,38.8809S5354.9938,1276.67,5332.529,1276.67Zm0-65.2334c-12.3125,0-17.6045,11.5566-17.6045,26.3525s5.292,26.3525,17.6045,26.3525,17.6035-11.5556,17.6035-26.3525S5344.8415,1211.4363,5332.529,1211.4363Z"/><path class="d" d="M5439.7731,1226.2331h-.3242l-12.961,39.42H5412.34l-13.0674-39.42h-.3242l-4.5361,49.3565h-13.8243l7.0206-75.6016h15.4443l16.1992,48.6016h.3242l16.2012-48.6016H5451.22l7.02,75.6016h-13.8243Z"/><path class="d" d="M5527.9,1270.8376c-6.8046,3.8877-12.5283,5.8321-21.06,5.8321-22.4639,0-32.4-17.0645-32.4-38.8809s9.9365-38.8809,32.4-38.8809a39.026,39.026,0,0,1,19.7646,4.86l-5.5087,11.124a31.7,31.7,0,0,0-14.2559-3.456c-12.3125,0-18.1445,11.5566-18.1445,26.3525s5.832,26.3525,18.1445,26.3525a30.6089,30.6089,0,0,0,15.4443-4.32Z"/><path class="d" d="M5572.1813,1276.67c-22.4648,0-31.8613-17.0645-31.8613-38.8809s9.3965-38.8809,31.8613-38.8809,31.8594,17.0645,31.8594,38.8809S5594.6452,1276.67,5572.1813,1276.67Zm0-65.2334c-12.3125,0-17.6055,11.5566-17.6055,26.3525s5.293,26.3525,17.6055,26.3525,17.6035-11.5556,17.6035-26.3525S5584.4928,1211.4363,5572.1813,1211.4363Z"/><path class="d" d="M5679.4245,1226.2331H5679.1l-12.96,39.42h-14.1485l-13.0683-39.42h-.3242l-4.5352,49.3565H5620.24l7.02-75.6016h15.4444l16.2,48.6016h.3242l16.2-48.6016h15.4443l7.02,75.6016H5684.068Z"/><path class="d" d="M5745.9518,1276.67c-22.4639,0-31.86-17.0645-31.86-38.8809s9.3964-38.8809,31.86-38.8809,31.86,17.0645,31.86,38.8809S5768.4157,1276.67,5745.9518,1276.67Zm0-65.2334c-12.3125,0-17.6045,11.5566-17.6045,26.3525s5.292,26.3525,17.6045,26.3525,17.6045-11.5556,17.6045-26.3525S5758.2633,1211.4363,5745.9518,1211.4363Z"/><path class="d" d="M5800.9235,1199.988h44.3887V1275.59h-13.8243v-63.0733h-17.2812c0,39.0967-5.1836,63.6133-22.14,63.6133a19.732,19.732,0,0,1-7.7763-1.5117l2.5918-11.8808a10.3633,10.3633,0,0,0,3.457.6484c7.2354,0,10.584-14.9043,10.584-60.4815Z"/><path class="d" d="M5881.8141,1199.988v29.377h11.2324c15.66,0,26.1367,7.6679,26.1367,23.1123s-10.3691,23.1123-26.1367,23.1123H5867.99V1199.988Zm0,41.9053v21.168h10.584c8.748,0,12.5283-4.5362,12.5283-10.584,0-6.3721-3.6719-10.584-12.6357-10.584Z"/><path class="d" d="M5985.6032,1270.8376c-6.8047,3.8877-12.5293,5.8321-21.0606,5.8321-22.4648,0-32.4-17.0645-32.4-38.8809s9.9356-38.8809,32.4-38.8809a39.0229,39.0229,0,0,1,19.7637,4.86l-5.5078,11.124a31.7024,31.7024,0,0,0-14.2559-3.456c-12.3125,0-18.1445,11.5566-18.1445,26.3525s5.832,26.3525,18.1445,26.3525a30.6032,30.6032,0,0,0,15.4434-4.32Z"/><path class="d" d="M6022.6461,1242.7566h-5.4v32.833h-13.8242V1199.988h13.8242v30.2412h5.6163l19.5478-30.2412h15.4443l-23.6523,35.7491,25.9209,39.8525-15.5527,1.08Z"/><path class="d" d="M6110.1247,1259.0652h-23.9766L6081.18,1275.59H6066.6l25.2725-75.6016h12.6367l25.2715,75.6016h-14.58Zm-20.3047-12.2041h16.6328l-8.1-27.4326h-.4326Z"/><path class="d" d="M6170.0641,1247.0769l-16.417,28.5127h-15.7685l17.6045-30.0244c-8.5323-3.0244-14.58-10.8-14.58-22.0323,0-14.7968,10.584-23.5449,23.6523-23.5449h24.085V1275.59h-13.8242v-28.5127Zm-4.9687-12.5283h9.7207v-22.0323h-9.7207c-5.7247,0-9.9356,4.86-9.9356,11.0166S6159.3707,1234.5486,6165.0954,1234.5486Z"/><path class="d" d="M5252.6315,1388.9123l20.0185,28.4117-9.5468.77-17.7862-25.1006h-4.0039v24.3306h-8.3154v-53.897h8.3154v22.4824h4.2354l16.0146-22.4824h9.4707Z"/><path class="d" d="M5301.9118,1418.094c-16.0157,0-22.33-12.1655-22.33-27.7188s6.3144-27.7182,22.33-27.7182,22.3281,12.1655,22.3281,27.7182S5317.9264,1418.094,5301.9118,1418.094Zm0-48.0454c-9.8555,0-13.7061,8.9316-13.7061,20.3266s3.8506,20.3272,13.7061,20.3272,13.705-8.9317,13.705-20.3272S5311.7672,1370.0486,5301.9118,1370.0486Z"/><path class="d" d="M5369.4391,1410.2405h-8.084l-10.9336-32.8h-.3076l-3.6963,39.8838h-8.3154l5.0049-53.897h10.24l11.9346,35.418h.2314l11.9336-35.418h10.24l5.0058,53.897h-8.3164l-3.6953-39.8838h-.3086Z"/><path class="d" d="M5432.9645,1403.3879c0-5.313-5.1582-8.2387-11.0879-10.5488-6.93-2.6948-14.8594-6.6216-14.8594-15.5527,0-9.24,6.545-14.6294,17.4776-14.6294a30.5359,30.5359,0,0,1,15.3994,4.1577l-3.9268,6.5444a20.6,20.6,0,0,0-11.4726-3.31c-5.8516,0-8.8545,2.3867-8.8545,6.7754s5.3125,7.2378,10.01,9.0854c8.4688,3.311,15.9375,7.0069,15.9375,17.0161,0,9.5479-6.6982,15.1685-18.7871,15.1685a29.4094,29.4094,0,0,1-17.0156-4.7739l4.3887-6.7754a20.0637,20.0637,0,0,0,12.6269,4.1577C5428.8063,1410.7024,5432.9645,1408.3923,5432.9645,1403.3879Z"/><path class="d" d="M5477.0075,1418.094c-16.0147,0-22.3282-12.1655-22.3282-27.7188s6.3135-27.7182,22.3282-27.7182,22.3291,12.1655,22.3291,27.7182S5493.0231,1418.094,5477.0075,1418.094Zm0-48.0454c-9.8555,0-13.7051,8.9316-13.7051,20.3266s3.85,20.3272,13.7051,20.3272,13.705-8.9317,13.705-20.3272S5486.8629,1370.0486,5477.0075,1370.0486Z"/><path class="d" d="M5544.5358,1410.2405h-8.085l-10.9336-32.8h-.3076l-3.6953,39.8838h-8.3154l5.0039-53.897h10.24l11.9356,35.418h.23l11.9346-35.418h10.24l5.0049,53.897h-8.3164l-3.6953-39.8838h-.3076Z"/><path class="d" d="M5603.98,1418.094c-16.0156,0-22.3291-12.1655-22.3291-27.7188s6.3135-27.7182,22.3291-27.7182,22.3281,12.1655,22.3281,27.7182S5619.9957,1418.094,5603.98,1418.094Zm0-48.0454c-9.8554,0-13.7051,8.9316-13.7051,20.3266s3.85,20.3272,13.7051,20.3272,13.7051-8.9317,13.7051-20.3272S5613.8356,1370.0486,5603.98,1370.0486Z"/><path class="d" d="M5642.4811,1417.324v-53.897h8.3154v46.5054h24.4082l-1.541,7.3916Z"/><path class="d" d="M5712.3942,1403.3879c0-5.313-5.1582-8.2387-11.0869-10.5488-6.93-2.6948-14.86-6.6216-14.86-15.5527,0-9.24,6.5449-14.6294,17.4785-14.6294a30.535,30.535,0,0,1,15.3985,4.1577l-3.9258,6.5444a20.6028,20.6028,0,0,0-11.4727-3.31c-5.8515,0-8.8554,2.3867-8.8554,6.7754s5.3134,7.2378,10.01,9.0854c8.47,3.311,15.9385,7.0069,15.9385,17.0161,0,9.5479-6.6982,15.1685-18.7871,15.1685a29.4127,29.4127,0,0,1-17.0166-4.7739l4.39-6.7754a20.0617,20.0617,0,0,0,12.627,4.1577C5708.237,1410.7024,5712.3942,1408.3923,5712.3942,1403.3879Z"/><path class="d" d="M5756.0524,1388.9123l20.02,28.4117-9.5469.77-17.7871-25.1006h-4.0039v24.3306H5736.42v-53.897h8.3144v22.4824h4.2354l16.0146-22.4824h9.4707Z"/><path class="d" d="M5783.0036,1417.324l18.0175-53.897h8.2383l18.0166,53.897h-8.8545l-3.85-12.55h-18.9414l-3.7724,12.55Zm22.3281-42.8868h-.3848l-7.16,23.1758h14.6289Z"/><path class="d" d="M5862.4645,1363.427h9.7021l-17.3242,31.4141v22.4829h-8.3154v-22.4829l-17.3242-31.4141h9.7012l11.55,22.4824h.3076Z"/><path class="d" d="M5874.0934,1417.324l18.0176-53.897h8.2383l18.0175,53.897h-8.8554l-3.85-12.55h-18.94l-3.7724,12.55Zm22.3291-42.8868h-.3848l-7.1611,23.1758h14.6289Z"/><path class="d" d="M5969.8024,1403.3879c0-5.313-5.1582-8.2387-11.0879-10.5488-6.93-2.6948-14.8594-6.6216-14.8594-15.5527,0-9.24,6.5449-14.6294,17.4776-14.6294a30.5359,30.5359,0,0,1,15.3994,4.1577l-3.9268,6.5444a20.6,20.6,0,0,0-11.4726-3.31c-5.8516,0-8.8545,2.3867-8.8545,6.7754s5.3125,7.2378,10.01,9.0854c8.4688,3.311,15.9375,7.0069,15.9375,17.0161,0,9.5479-6.6982,15.1685-18.7871,15.1685a29.4094,29.4094,0,0,1-17.0156-4.7739l4.3887-6.7754a20.0637,20.0637,0,0,0,12.6269,4.1577C5965.6442,1410.7024,5969.8024,1408.3923,5969.8024,1403.3879Z"/><path class="d" d="M6012.7672,1370.8186v46.5054h-8.3144v-46.5054h-16.0156v-7.3916H6028.86l-1.54,7.3916Z"/><path class="d" d="M6038.5631,1407.93a5.0818,5.0818,0,1,1-5.082,5.0816A5.1266,5.1266,0,0,1,6038.5631,1407.93Z"/><path class="d" d="M5547.9606,396.7986l-140.0488,242.11v2.2676h74.2773V574.8376h70.875v66.3389h62.37l-11.34,65.2051h-51.03V793.7h-70.875V706.3816H5323.4284V646.8464l145.72-250.0478Z"/><path class="d" d="M5898.3659,396.7986l-11.34,65.7724H5751.5124v73.71c9.0722-1.7012,19.2783-3.4014,28.3505-3.4014,72.5762,0,133.2452,43.0918,133.2452,133.2451,0,87.3184-65.2051,133.2452-137.2149,133.2452-49.8955,0-85.6172-13.0411-117.9365-33.4532L5693.111,708.65c22.6806,14.7412,46.4941,24.9473,78.8135,24.9473,35.7216,0,68.04-22.1123,68.04-67.4727,0-45.9267-35.1543-69.7412-74.2773-69.7412-45.9268,0-85.05,16.4434-85.05,16.4434V396.7986Z"/><path class="d" d="M5268.9567,973.3528h-8.5244v45.57h-21.3907V910.4236h21.3907v41.85h8.8349l24.335-41.85h25.1094l-31.62,52.08,34.875,56.4194-25.42,1.55Z"/><path class="d" d="M5387.8405,1020.4724c-33.0156,0-46.5-23.56-46.5-55.7993s13.4844-55.8,46.5-55.8,46.499,23.56,46.499,55.8S5420.8551,1020.4724,5387.8405,1020.4724Zm0-90.519c-15.6553,0-22.9405,14.415-22.9405,34.72s7.2852,34.72,22.9405,34.72,22.9394-14.415,22.9394-34.72S5403.4948,929.9534,5387.8405,929.9534Z"/><path class="d" d="M5489.0553,982.343v36.58h-22.9394V910.4236H5503.16c20.6152,0,36.1152,12.71,36.1152,35.9594s-15.5,35.96-36.1152,35.96Zm13.02-21.08c7.5947,0,13.4853-5.58,13.4853-14.88s-5.8906-14.88-13.4853-14.88h-13.02v29.76Z"/><path class="d" d="M5568.7233,1018.9226V910.4236h81.375v108.499h-22.94V931.5032h-35.4942v87.4194Z"/><path class="d" d="M5719.5387,961.883h.4649l18.1347-51.4594h25.2647l-32.085,85.249c-5.1142,13.4849-13.33,24.8-28.21,24.8-6.3545,0-13.02-1.395-18.6-5.4248l10.3848-17.67a10.2359,10.2359,0,0,0,6.2,2.0151c2.6348,0,5.58-1.55,7.9053-7.5952l2.3242-6.0449h-6.8193l-31.1553-75.3291h25.7305Z"/><path class="d" d="M5848.3415,934.758a43.2169,43.2169,0,0,0-19.5293-4.8046c-14.57,0-23.7149,13.64-23.7149,34.72s9.1445,34.72,23.56,34.72a42.6575,42.6575,0,0,0,21.2344-5.89l9.61,18.6a63.1311,63.1311,0,0,1-32.085,8.37c-33.3242,0-46.1894-23.56-46.1894-55.7993s12.8652-55.8,46.1894-55.8a66.4885,66.4885,0,0,1,30.2247,6.9751Z"/><path class="d" d="M5980.5553,973.8181a29.9831,29.9831,0,0,1-15.499,4.03c-17.9805,0-30.38-12.2451-30.38-34.1,0-21.2349,16.585-34.875,36.89-34.875,23.4043,0,36.7343,17.05,36.7343,41.0747,0,36.58-24.4892,61.2246-56.5742,70.5244l-7.75-15.0347c18.1348-6.82,29.6045-16.2749,37.0449-31.3095Zm5.1153-25.5747c0-11.0054-6.2-18.29-14.1045-18.29s-14.57,4.96-14.57,13.7949,5.7354,13.7949,14.57,13.7949C5977.611,957.5432,5983.0358,953.5129,5985.6706,948.2434Z"/><path class="d" d="M6781.5309,1199.988h14.6885l-22.3565,59.4014c-3.5644,9.3965-9.0722,17.28-19.44,17.28a19.3637,19.3637,0,0,1-12.0957-3.78l6.5879-10.6924a7.6108,7.6108,0,0,0,4.9678,1.9443c2.16,0,4.6445-2.0517,6.8047-7.3437l1.5117-3.78h-4.32L6734.55,1199.988h15.7676l16.6328,38.9893h.3242Z"/><path class="d" d="M6808.5309,1199.988H6852.92V1275.59h-13.8242v-63.0733h-17.28c0,39.0967-5.1846,63.6133-22.14,63.6133a19.7416,19.7416,0,0,1-7.7773-1.5117l2.5928-11.8808a10.357,10.357,0,0,0,3.456.6484c7.2363,0,10.584-14.9043,10.584-60.4815Z"/><path class="d" d="M6878.9459,1261.3337a7.668,7.668,0,1,1-7.6689,7.668A7.6976,7.6976,0,0,1,6878.9459,1261.3337Z"/><path class="d" d="M6925.277,1291.4656h-11.6641l-2.16-28.4043h8.1c8.209-10.9082,11.0166-31.9688,11.0166-56.8086v-6.2647h46.333v63.0733h10.26l-2.16,28.4043h-11.6641V1275.59h-48.06Zm37.8008-28.4043v-50.545H6944.07v2.376c0,18.793-3.7813,37.4766-9.3965,48.169Z"/><path class="d" d="M7002.82,1275.59V1199.988h43.85l-2.16,12.5283h-27.8652v17.7129h24.625v12.5274h-24.625v20.3047H7046.67V1275.59Z"/><path class="d" d="M7086.4118,1242.7566h-5.3994v32.833h-13.8243V1199.988h13.8243v30.2412h5.6162l19.5488-30.2412h15.4433l-23.6523,35.7491,25.92,39.8525-15.5517,1.08Z"/><path class="d" d="M7173.8922,1259.0652h-23.9765l-4.9688,16.5244h-14.58l25.2735-75.6016h12.6357l25.2725,75.6016h-14.58Zm-20.3047-12.2041H7170.22l-8.1006-27.4326h-.4326Z"/><path class="d" d="M7222.49,1212.5163v17.28h9.3965c15.66,0,26.1367,7.4522,26.1367,22.8965s-10.3682,22.8965-26.1367,22.8965h-23.2207V1199.988h44.2812l-2.16,12.5283Zm0,29.8086v20.7364h8.748c8.7481,0,12.5293-4.4278,12.5293-10.3682,0-6.3721-3.6728-10.3682-12.6367-10.3682Z"/><path class="d" d="M7288.5856,1249.0212V1275.59h-13.8242V1199.988h24.7324c14.3643,0,25.1641,8.3164,25.1641,24.5166s-10.8,24.5166-25.1641,24.5166Zm0-36.5049v23.9766h10.6924c6.5879,0,11.0166-4.4277,11.0166-11.9883s-4.4287-11.9883-11.0166-11.9883Z"/><path class="d" d="M7388.0524,1225.4773h-.3233l-33.6962,50.1123h-11.5567V1199.988H7356.3v50.2207h.3243l33.6962-50.2207h11.5557V1275.59h-13.8242Z"/><path class="d" d="M7474.775,1270.8376c-6.8037,3.8877-12.5273,5.8321-21.0595,5.8321-22.4639,0-32.4014-17.0645-32.4014-38.8809s9.9375-38.8809,32.4014-38.8809a39.026,39.026,0,0,1,19.7646,4.86l-5.5088,11.124a31.702,31.702,0,0,0-14.2558-3.456c-12.3125,0-18.1446,11.5566-18.1446,26.3525s5.8321,26.3525,18.1446,26.3525a30.6117,30.6117,0,0,0,15.4443-4.32Z"/><path class="d" d="M7520.89,1212.5163V1275.59h-13.9317v-63.0733h-21.9238V1199.988h57.78l-2.16,12.5283Z"/><path class="d" d="M7582.234,1276.67c-22.4648,0-31.8613-17.0645-31.8613-38.8809s9.3965-38.8809,31.8613-38.8809,31.86,17.0645,31.86,38.8809S7604.6989,1276.67,7582.234,1276.67Zm0-65.2334c-12.3125,0-17.6045,11.5566-17.6045,26.3525s5.292,26.3525,17.6045,26.3525,17.6035-11.5556,17.6035-26.3525S7594.5465,1211.4363,7582.234,1211.4363Z"/><path class="d" d="M7633.5329,1275.59V1199.988h23.6523c13.5,0,23.6523,4.9688,23.6523,18.1446,0,9.9365-5.9394,15.4443-12.8515,17.28v.4317c9.5039,2.2685,15.5527,8.3164,15.5527,18.7929,0,15.4444-11.5566,20.9522-26.3535,20.9522Zm22.8964-63.0733h-9.0722v18.253h9.0722c6.5879,0,10.1524-3.6729,10.1524-9.1807S7663.0172,1212.5163,7656.4293,1212.5163Zm.1084,30.1329h-9.1806v20.4121h9.1806c7.9922,0,12.7442-3.9961,12.7442-9.9356C7669.2819,1246.2136,7664.53,1242.6492,7656.5377,1242.6492Z"/><path class="d" d="M6896.0114,1417.324v-53.897h17.17c15.2441,0,22.02,11.2412,22.02,26.9482s-6.7764,26.9488-22.02,26.9488Zm8.3144-46.5054v39.1138h8.8555c9.0078,0,13.3965-8.5464,13.3965-19.5572s-4.3887-19.5566-13.3965-19.5566Z"/><path class="d" d="M6951.3737,1417.324v-53.897h30.49l-1.54,7.3916h-20.6348v14.937h18.3252v7.3916h-18.3252v16.7852h22.1748v7.3916Z"/><path class="d" d="M7018.4391,1388.9123l20.02,28.4117-9.5478.77-17.7861-25.1006h-4.004v24.3306h-8.3154v-53.897h8.3154v22.4824h4.2344l16.0156-22.4824h9.4708Z"/><path class="d" d="M7045.39,1417.324l18.0176-53.897h8.2382l18.0166,53.897h-8.8545l-3.85-12.55h-18.9414l-3.7724,12.55Zm22.3281-42.8868h-.3848l-7.16,23.1758h14.6289Z"/><path class="d" d="M7126.5456,1388.99c6.7763,1.6167,11.0869,5.9287,11.0869,13.3975,0,11.01-8.2383,14.937-18.7862,14.937h-16.0927v-53.897h16.0927c9.6241,0,16.8623,3.5415,16.8623,12.9351,0,7.0834-4.2353,11.0107-9.163,12.3193Zm-15.4756-18.1709v15.2451h7.2373c5.1592,0,8.7773-3.2339,8.7773-7.7768,0-4.9278-3.1572-7.4683-9.0849-7.4683Zm0,22.3286v16.7852h7.3144c6.6211,0,10.625-3.3877,10.625-8.5464,0-5.4668-3.7724-8.2388-10.7021-8.2388Z"/><path class="d" d="M7187.067,1379.4421c0,8.3155-4.62,13.32-11.165,15.0913l14.0908,22.7906-9.0088.77-14.09-22.791h-4.7735v22.021h-8.3164v-53.897h16.4C7179.5211,1363.427,7187.067,1368.8938,7187.067,1379.4421Zm-24.9463-8.6235v17.0928h7.6993c4.9277,0,8.623-3.08,8.623-8.4693s-3.6953-8.6235-8.623-8.6235Z"/><path class="d" d="M7201.5446,1417.324v-7.3916h8.8545v-39.1138h-8.8545v-7.3916h26.41l-1.541,7.3916h-7.6992v39.1138h8.8555v7.3916Z"/><path class="d" d="M7267.84,1403.3879c0-5.313-5.1582-8.2387-11.0879-10.5488-6.93-2.6948-14.8594-6.6216-14.8594-15.5527,0-9.24,6.545-14.6294,17.4776-14.6294a30.5359,30.5359,0,0,1,15.3994,4.1577l-3.9268,6.5444a20.6,20.6,0,0,0-11.4726-3.31c-5.8516,0-8.8545,2.3867-8.8545,6.7754s5.3125,7.2378,10.01,9.0854c8.4688,3.311,15.9375,7.0069,15.9375,17.0161,0,9.5479-6.6982,15.1685-18.7871,15.1685a29.4094,29.4094,0,0,1-17.0156-4.7739l4.3887-6.7754a20.0637,20.0637,0,0,0,12.6269,4.1577C7263.6813,1410.7024,7267.84,1408.3923,7267.84,1403.3879Z"/><path class="d" d="M7310.8043,1370.8186v46.5054H7302.49v-46.5054h-16.0156v-7.3916h40.4228l-1.54,7.3916Z"/><path class="d" d="M7357.6969,1418.094c-16.0156,0-22.3291-12.1655-22.3291-27.7188s6.3135-27.7182,22.3291-27.7182,22.3281,12.1655,22.3281,27.7182S7373.7125,1418.094,7357.6969,1418.094Zm0-48.0454c-9.8554,0-13.7051,8.9316-13.7051,20.3266s3.85,20.3272,13.7051,20.3272,13.7051-8.9317,13.7051-20.3272S7367.5524,1370.0486,7357.6969,1370.0486Z"/><path class="d" d="M7422.2233,1363.427h9.0849l-16.7851,53.897h-9.624l-16.7852-53.897h9.086l12.3193,42.4248h.3076Z"/><path class="d" d="M7481.5905,1403.3879c0-5.313-5.1592-8.2387-11.0869-10.5488-6.93-2.6948-14.8614-6.6216-14.8614-15.5527,0-9.24,6.545-14.6294,17.4785-14.6294a30.5388,30.5388,0,0,1,15.3995,4.1577l-3.9268,6.5444a20.6,20.6,0,0,0-11.4727-3.31c-5.8515,0-8.8544,2.3867-8.8544,6.7754s5.3134,7.2378,10.01,9.0854c8.47,3.311,15.9385,7.0069,15.9385,17.0161,0,9.5479-6.6992,15.1685-18.7871,15.1685a29.4083,29.4083,0,0,1-17.0166-4.7739l4.39-6.7754a20.0581,20.0581,0,0,0,12.627,4.1577C7477.4332,1410.7024,7481.5905,1408.3923,7481.5905,1403.3879Z"/><path class="d" d="M7524.5563,1370.8186v46.5054H7516.24v-46.5054h-16.0147v-7.3916h40.4229l-1.54,7.3916Z"/><path class="d" d="M7550.3512,1407.93a5.0818,5.0818,0,1,1-5.082,5.0816A5.1274,5.1274,0,0,1,7550.3512,1407.93Z"/><path class="d" d="M7177.32,699.5749c0,87.3184-65.2051,128.1426-137.2139,128.1426-49.8955,0-85.6172-13.041-117.9365-33.4531l35.1543-57.2666c22.68,14.7412,46.4941,24.9473,78.8135,24.9473,37.4218,0,68.04-19.2774,68.04-61.8028,0-44.7929-31.752-62.37-70.3086-62.37H7001.55V596.3806l79.38-103.1934v-2.2685h-145.72l11.34-65.7725h213.1934v60.1026l-76.5449,99.2256v1.7011C7132.527,595.2468,7177.32,627.5662,7177.32,699.5749Z"/><path class="d" d="M7442.6754,616.7927c37.9883,24.3819,60.669,52.1641,60.669,96.3906,0,74.8438-49.3291,114.5342-130.4112,114.5342-81.08,0-130.41-39.69-130.41-114.5342,0-41.958,21.5469-75.9785,60.67-98.6582v-2.2675c-28.918-15.877-48.1953-46.4942-48.1953-87.8858,0-66.9062,42.5254-104.8955,117.9355-104.8955,75.4122,0,117.9375,37.9893,117.9375,104.8955,0,38.5557-21.5468,70.3086-48.1953,90.1533Zm-85.0507,25.5156c-30.6182,18.1436-44.793,41.3907-44.793,70.875,0,34.587,26.6494,48.7618,60.1015,48.7618s60.1026-14.1748,60.1026-48.7618c0-28.917-20.4121-48.1953-50.4629-60.6689Zm8.5048-63.5039,20.98,9.0713c21.5459-16.4424,33.4532-37.9892,33.4532-63.5039,0-24.9482-18.711-39.123-47.629-39.123-28.916,0-47.6269,14.1748-47.6269,39.123C7325.3063,552.7224,7341.1813,568.031,7366.13,578.8044Z"/><path class="d" d="M7000.1207,934.2239,6969.87,987.1018v.4844h19.2392V972.2185h12.7061v15.3677h13.915l-2.42,11.4951h-11.4951v19.8442H6989.109V999.0813h-34.4853V988.7961l31.2187-54.5722Z"/><path class="d" d="M7044.6481,1007.3093h34.4853l-2.42,11.6162h-50.8213v-10.4062c16.5782-12.4634,37.6319-34.4854,37.6319-50.7,0-8.1075-3.9932-13.19-12.584-13.19-6.5342,0-12.1006,2.1782-17.7871,5.687l-5.8086-10.164c9.6806-5.2032,15.9726-7.1392,25.8945-7.1392,14.8838,0,23.4746,8.47,23.4746,23.2324,0,18.6343-17.3037,38.8418-32.0654,50.5791Z"/><path class="d" d="M7245.6315,948.6233l8.3486-8.3491,36.3008,36.3007-36.3008,36.3-8.3486-8.3491,21.9014-21.5381v-.3633H7126.444v-12.1h141.0889v-.3627Z"/><path class="d" d="M7389.7409,992.7893c0,18.6343-13.3106,27.3462-28.6778,27.3462a42.4934,42.4934,0,0,1-24.5634-7.1392l6.1718-10.164c5.0821,3.3881,10.043,5.687,17.545,5.687,9.3173,0,16.3349-4.84,16.3349-15.6094,0-11.2529-7.26-15.73-16.8193-15.73h-6.292v-6.5342l18.15-24.3212V945.84h-32.3076l2.42-11.6162H7385.99V944.63l-17.3037,22.99v.3632C7380.0612,969.92,7389.7409,976.4538,7389.7409,992.7893Z"/><path class="d" d="M7447.2155,934.2239l-30.251,52.8779v.4844h19.2393V972.2185h12.706v15.3677h13.9151l-2.42,11.4951H7448.91v19.8442h-12.706V999.0813h-34.4854V988.7961l31.2188-54.5722Z"/><path class="d" d="M1886.9723,2919.6843v-75.6015h23.6524c13.5,0,23.6523,4.9687,23.6523,18.1445,0,9.9365-5.9395,15.4443-12.8516,17.28v.4316c9.5039,2.2686,15.5518,8.3164,15.5518,18.793,0,15.4443-11.5557,20.9521-26.3525,20.9521Zm22.8965-63.0732h-9.0723v18.2529h9.0723c6.5879,0,10.1523-3.6728,10.1523-9.1807S1916.4567,2856.6111,1909.8688,2856.6111Zm.1084,30.1328h-9.1807v20.4121h9.1807c7.9922,0,12.7441-3.9961,12.7441-9.9356C1922.7213,2890.3083,1917.9694,2886.7439,1909.9772,2886.7439Z"/><path class="d" d="M1956.4166,2919.6843v-75.6015h43.8487l-2.16,12.5283h-27.8642v17.7129h24.624v12.5273h-24.624v20.3047h30.0244v12.5283Z"/><path class="d" d="M2034.6081,2893.116v26.5683h-13.8243v-75.6015h24.7325c14.3642,0,25.165,8.3164,25.165,24.5166s-10.8008,24.5166-25.165,24.5166Zm0-36.5049v23.9765H2045.3c6.5879,0,11.0166-4.4277,11.0166-11.9882s-4.4287-11.9883-11.0166-11.9883Z"/><path class="d" d="M2108.3727,2891.82h-.3242l-15.4434,27.8642h-15.9844l22.7881-39.2051-20.6279-36.3964h15.9834l13.1768,25.5966h.4316l13.1768-25.5966h15.9843l-20.6289,36.3964,22.7881,39.2051-15.4433,1.08Z"/><path class="d" d="M2147.7907,2888.364v-11.9883h30.457l-2.16,11.9883Z"/><path class="d" d="M2242.7233,2869.572h-.3242l-33.6963,50.1123h-11.5567v-75.6015H2210.97v50.2207h.3242l33.6963-50.2207h11.5566v75.6015h-13.8242Z"/><path class="d" d="M2329.4459,2914.9324c-6.8046,3.8877-12.5283,5.832-21.0605,5.832-22.4639,0-32.4-17.0645-32.4-38.8809s9.9365-38.8808,32.4-38.8808a39.0269,39.0269,0,0,1,19.7646,4.86l-5.5087,11.1241a31.7029,31.7029,0,0,0-14.2559-3.4561c-12.3125,0-18.1445,11.5566-18.1445,26.3525s5.832,26.3526,18.1445,26.3526a30.6089,30.6089,0,0,0,15.4443-4.32Z"/><path class="d" d="M2347.2643,2919.6843v-75.6015h43.8486l-2.16,12.5283h-27.8643v17.7129h24.625v12.5273h-24.625v20.3047h30.0244v12.5283Z"/><path class="d" d="M2439.9293,2856.6111v63.0732h-13.9326v-63.0732h-21.9238v-12.5283h57.78l-2.16,12.5283Z"/><path class="d" d="M2522.8727,2914.9324c-6.8037,3.8877-12.5283,5.832-21.06,5.832-22.4648,0-32.4013-17.0645-32.4013-38.8809s9.9365-38.8808,32.4013-38.8808a39.0237,39.0237,0,0,1,19.7637,4.86l-5.5078,11.1241a31.7026,31.7026,0,0,0-14.2559-3.4561c-12.3125,0-18.1445,11.5566-18.1445,26.3525s5.832,26.3526,18.1445,26.3526a30.606,30.606,0,0,0,15.4434-4.32Z"/><path class="d" d="M2559.9157,2886.8513h-5.3994v32.833H2540.692v-75.6015h13.8243v30.2412h5.6162l19.5478-30.2412h15.4444l-23.6524,35.749,25.92,39.8525-15.5517,1.08Z"/><path class="d" d="M2657.0075,2869.572h-.3243l-33.6962,50.1123H2611.43v-75.6015h13.8242v50.2207h.3243l33.6962-50.2207h11.5567v75.6015h-13.8242Z"/><path class="d" d="M2739.0856,2869.572h-.3232l-33.6973,50.1123h-11.5557v-75.6015h13.8242v50.2207h.3243l33.6962-50.2207H2752.91v75.6015h-13.8242Zm3.5644-38.9892c-4.7519,7.3447-10.9082,10.2607-19.44,10.2607s-14.6885-2.916-19.44-10.2607l8.6406-6.1563c2.5918,5.1846,6.8037,7.2363,10.8,7.2363s8.3164-2.16,10.8-7.2363Z"/><path class="d" d="M2821.8112,2856.6111v17.28h9.3955c15.66,0,26.1367,7.4522,26.1367,22.8965s-10.3682,22.8965-26.1367,22.8965h-23.22v-75.6015h44.28l-2.16,12.5283Zm0,29.8086v20.7363h8.748c8.7481,0,12.5283-4.4277,12.5283-10.3682,0-6.372-3.6718-10.3681-12.6367-10.3681Z"/><path class="d" d="M2911.8825,2844.0828h14.6884l-22.3564,59.4013c-3.5645,9.3965-9.0723,17.28-19.44,17.28a19.3635,19.3635,0,0,1-12.0957-3.78l6.5879-10.6924a7.6089,7.6089,0,0,0,4.9677,1.9444c2.16,0,4.6446-2.0518,6.8037-7.3438l1.5127-3.78h-4.32l-23.3281-53.0293H2880.67l16.6328,38.9892h.3242Z"/><path class="d" d="M2938.8825,2844.0828h44.3886v75.6015h-13.8242v-63.0732h-17.28c0,39.0967-5.1845,63.6133-22.1406,63.6133a19.7318,19.7318,0,0,1-7.7763-1.5118l2.5927-11.8808a10.3581,10.3581,0,0,0,3.4561.6484c7.2353,0,10.584-14.9043,10.584-60.4814Z"/><path class="d" d="M3009.2975,2905.4285a7.668,7.668,0,1,1-7.6689,7.6679A7.6976,7.6976,0,0,1,3009.2975,2905.4285Z"/><path class="d" d="M2053.2653,3007.52h9.0849l-16.7851,53.8969h-9.624l-16.7852-53.8969h9.0859l12.3184,42.4248h.3086Z"/><path class="d" d="M2074.2868,3061.4172V3007.52h30.49l-1.5391,7.3916h-20.6347v14.937h18.3242v7.3916h-18.3242v16.7851h22.1738v7.3916Z"/><path class="d" d="M2154.9821,3023.5354c0,8.3154-4.62,13.32-11.1651,15.0913l14.0909,22.7905-9.0088.77-14.0909-22.791h-4.7734v22.021h-8.3154V3007.52h16.3994C2147.4362,3007.52,2154.9821,3012.9871,2154.9821,3023.5354Zm-24.9473-8.6235v17.0927h7.6992c4.9278,0,8.6241-3.08,8.6241-8.4692s-3.6963-8.6235-8.6241-8.6235Z"/><path class="d" d="M2191.402,3033.0056l20.0195,28.4116-9.5468.77-17.7872-25.1005h-4.0039v24.3305h-8.3144V3007.52h8.3144v22.4824h4.2354l16.0146-22.4824h9.4707Z"/><path class="d" d="M2232.0582,3029.8489h22.4834V3007.52h8.3155v53.8969h-8.3155v-24.1767h-22.4834v24.1767h-8.3144V3007.52h8.3144Z"/><path class="d" d="M2279.028,3038.3186v-7.0068H2299.97l-1.5391,7.0068Z"/><path class="d" d="M2313.4469,3061.4172v-7.3916H2322.3v-39.1137h-8.8535V3007.52h26.4092l-1.54,7.3916h-7.6993v39.1137h8.8545v7.3916Z"/><path class="d" d="M2379.7418,3047.4812c0-5.313-5.1582-8.2388-11.0878-10.5488-6.93-2.6949-14.8594-6.6216-14.8594-15.5528,0-9.24,6.5449-14.6294,17.4775-14.6294a30.5366,30.5366,0,0,1,15.3994,4.1577l-3.9267,6.5445a20.6,20.6,0,0,0-11.4727-3.3106c-5.8515,0-8.8545,2.3868-8.8545,6.7754s5.3125,7.2378,10.01,9.0855c8.4687,3.311,15.9375,7.0068,15.9375,17.0161,0,9.5478-6.6983,15.1684-18.7871,15.1684a29.4085,29.4085,0,0,1-17.0156-4.7739l4.3886-6.7754a20.0632,20.0632,0,0,0,12.627,4.1577C2375.5836,3054.7956,2379.7418,3052.4856,2379.7418,3047.4812Z"/><path class="d" d="M2403.7663,3061.4172V3007.52h30.49l-1.54,7.3916h-20.6348v14.937h18.3252v7.3916h-18.3252v16.7851h22.1748v7.3916Z"/><path class="d" d="M2470.1383,3014.9119v46.5053h-8.3144v-46.5053h-16.0157V3007.52h40.4229l-1.54,7.3916Z"/><path class="d" d="M2523.4215,3047.4812c0-5.313-5.1582-8.2388-11.0879-10.5488-6.93-2.6949-14.8593-6.6216-14.8593-15.5528,0-9.24,6.5449-14.6294,17.4775-14.6294a30.5369,30.5369,0,0,1,15.3994,4.1577l-3.9267,6.5445a20.6,20.6,0,0,0-11.4727-3.3106c-5.8516,0-8.8545,2.3868-8.8545,6.7754s5.3125,7.2378,10.01,9.0855c8.4687,3.311,15.9375,7.0068,15.9375,17.0161,0,9.5478-6.6983,15.1684-18.7871,15.1684a29.4088,29.4088,0,0,1-17.0157-4.7739l4.3887-6.7754a20.0632,20.0632,0,0,0,12.627,4.1577C2519.2633,3054.7956,2523.4215,3052.4856,2523.4215,3047.4812Z"/><path class="d" d="M2567.08,3033.0056l20.02,28.4116-9.5479.77-17.7861-25.1005h-4.0039v24.3305h-8.3155V3007.52h8.3155v22.4824h4.2343l16.0157-22.4824h9.4707Z"/><path class="d" d="M2597.111,3061.4172v-7.3916h8.8535v-39.1137h-8.8535V3007.52H2623.52l-1.54,7.3916h-7.6992v39.1137h8.8545v7.3916Z"/><path class="d" d="M2666.0231,3007.52h9.7012l-17.3243,31.414v22.4829h-8.3144v-22.4829l-17.3242-31.414h9.7011l11.5489,22.4824h.3086Z"/><path class="d" d="M2725.6979,3033.0828c6.7764,1.6167,11.0869,5.9287,11.0869,13.3974,0,11.01-8.2383,14.937-18.7861,14.937h-16.0928V3007.52h16.0928c9.624,0,16.8623,3.5415,16.8623,12.935,0,7.0835-4.2354,11.0108-9.1631,12.3193Zm-15.4756-18.1709v15.2451h7.2373c5.1592,0,8.7774-3.2339,8.7774-7.7769,0-4.9277-3.1573-7.4682-9.085-7.4682Zm0,22.3286v16.7851h7.3145c6.6211,0,10.625-3.3877,10.625-8.5464,0-5.4668-3.7725-8.2387-10.7022-8.2387Z"/><path class="d" d="M2752.9567,3061.4172V3007.52h8.3164v46.5053H2785.68l-1.54,7.3916Z"/><path class="d" d="M2820.1764,3007.52h9.085l-16.7852,53.8969h-9.624L2786.067,3007.52h9.086l12.3193,42.4248h.3076Z"/><path class="d" d="M2841.1989,3061.4172V3007.52h17.17c15.2451,0,22.0215,11.2412,22.0215,26.9482s-6.7764,26.9487-22.0215,26.9487Zm8.3154-46.5053v39.1137h8.8545c9.0088,0,13.3975-8.5464,13.3975-19.5571s-4.3887-19.5566-13.3975-19.5566Z"/><path class="d" d="M2896.2536,3052.0237a5.0818,5.0818,0,1,1-5.0821,5.0815A5.1267,5.1267,0,0,1,2896.2536,3052.0237Z"/><path class="d" d="M482.2658,3034.4685c0,11.3955,3.85,20.3271,13.7055,20.3271a23.3009,23.3009,0,0,0,11.78-3.311l3.2339,6.5449a27.5175,27.5175,0,0,1-15.0142,4.1577c-16.0151,0-22.3291-12.1655-22.3291-27.7187s6.314-27.7183,22.3291-27.7183a27.8218,27.8218,0,0,1,14.09,3.4649l-3.2334,6.5444a23.6079,23.6079,0,0,0-10.8565-2.6177C486.1159,3014.1418,482.2658,3023.0735,482.2658,3034.4685Z"/><path class="d" d="M534.3175,3029.8489H556.8V3007.52h8.3155v53.8969H556.8v-24.1767H534.3175v24.1767h-8.3154V3007.52h8.3154Z"/><path class="d" d="M583.5968,3061.4172V3007.52h30.49l-1.54,7.3916H591.9123v14.937h18.3251v7.3916H591.9123v16.7851h22.1748v7.3916Z"/><path class="d" d="M631.029,3061.4172V3007.52h8.3154v46.5053h24.4077l-1.54,7.3916Z"/><path class="d" d="M695.0915,3007.52h9.7016l-17.3242,31.414v22.4829h-8.3154v-22.4829l-17.3243-31.414h9.7017l11.5493,22.4824h.3081Z"/><path class="d" d="M754.8424,3044.863c0,10.2408-7.7,17.3242-19.249,17.3242s-19.249-7.0834-19.249-17.3242V3007.52H724.66v36.958c0,6.0825,4.1577,10.3173,10.9331,10.3173s10.9336-4.2348,10.9336-10.3173V3007.52h8.3154Z"/><path class="d" d="M797.0392,3047.4812c0-5.313-5.1587-8.2388-11.0874-10.5488-6.93-2.6949-14.86-6.6216-14.86-15.5528,0-9.24,6.5449-14.6294,17.478-14.6294a30.5383,30.5383,0,0,1,15.3994,4.1577l-3.9268,6.5445a20.6,20.6,0,0,0-11.4726-3.3106c-5.8516,0-8.8545,2.3868-8.8545,6.7754s5.313,7.2378,10.01,9.0855c8.4692,3.311,15.9379,7.0068,15.9379,17.0161,0,9.5478-6.6987,15.1684-18.7871,15.1684a29.4081,29.4081,0,0,1-17.0161-4.7739l4.3892-6.7754a20.06,20.06,0,0,0,12.6269,4.1577C792.8815,3054.7956,797.0392,3052.4856,797.0392,3047.4812Z"/><path class="d" d="M840.6974,3033.0056l20.0191,28.4116-9.5474.77-17.7861-25.1005h-4.004v24.3305h-8.3154V3007.52h8.3154v22.4824h4.2349L849.629,3007.52H859.1Z"/><path class="d" d="M870.7277,3061.4172v-7.3916h8.8545v-39.1137h-8.8545V3007.52h26.41l-1.54,7.3916h-7.6992v39.1137h8.8545v7.3916Z"/><path class="d" d="M944.7228,3047.635h.3081V3007.52h8.3154v53.8969h-8.9316L921.547,3021.38h-.3081v40.0376h-8.3154V3007.52h8.9316Z"/><path class="d" d="M990.7682,3014.9119v46.5053h-8.3154v-46.5053H966.4376V3007.52h40.4229l-1.54,7.3916Z"/><path class="d" d="M1044.0509,3047.4812c0-5.313-5.1587-8.2388-11.0874-10.5488-6.93-2.6949-14.86-6.6216-14.86-15.5528,0-9.24,6.5449-14.6294,17.478-14.6294a30.5383,30.5383,0,0,1,15.3994,4.1577l-3.9267,6.5445a20.6,20.6,0,0,0-11.4727-3.3106c-5.8516,0-8.8545,2.3868-8.8545,6.7754s5.313,7.2378,10.01,9.0855c8.4692,3.311,15.938,7.0068,15.938,17.0161,0,9.5478-6.6988,15.1684-18.7871,15.1684a29.4082,29.4082,0,0,1-17.0162-4.7739l4.3892-6.7754a20.06,20.06,0,0,0,12.627,4.1577C1039.8932,3054.7956,1044.0509,3052.4856,1044.0509,3047.4812Z"/><path class="d" d="M1068.0753,3061.4172V3007.52h30.49l-1.54,7.3916h-20.6347v14.937h18.3252v7.3916h-18.3252v16.7851h22.1748v7.3916Z"/><path class="d" d="M1143.0719,3007.52h9.0855l-16.7852,53.8969h-9.6245l-16.7852-53.8969h9.086l12.3193,42.4248h.3076Z"/><path class="d" d="M1202.4386,3047.4812c0-5.313-5.1587-8.2388-11.0874-10.5488-6.93-2.6949-14.86-6.6216-14.86-15.5528,0-9.24,6.5449-14.6294,17.478-14.6294a30.5383,30.5383,0,0,1,15.3994,4.1577l-3.9268,6.5445a20.5992,20.5992,0,0,0-11.4726-3.3106c-5.8516,0-8.8545,2.3868-8.8545,6.7754s5.313,7.2378,10.01,9.0855c8.4692,3.311,15.938,7.0068,15.938,17.0161,0,9.5478-6.6988,15.1684-18.7872,15.1684a29.4081,29.4081,0,0,1-17.0161-4.7739l4.3892-6.7754a20.06,20.06,0,0,0,12.6269,4.1577C1198.2809,3054.7956,1202.4386,3052.4856,1202.4386,3047.4812Z"/><path class="d" d="M1245.404,3014.9119v46.5053h-8.3155v-46.5053h-16.0151V3007.52h40.4228l-1.54,7.3916Z"/><path class="d" d="M1271.2,3052.0237a5.0818,5.0818,0,1,1-5.0821,5.0815A5.1266,5.1266,0,0,1,1271.2,3052.0237Z"/><path class="d" d="M7071.9821,2069.5784v401.7939H7180v79.8086H6863.5172v-79.8086h122.4649V2149.387H6873.8375l13.76-79.8086Z"/><path class="d" d="M7457.2614,2069.5784v401.7939H7565.277v79.8086h-316.48v-79.8086h122.4649V2149.387H7259.1168l13.76-79.8086Z"/><path class="d" d="M6774.4567,2730.698h14.6885l-22.3565,59.4014c-3.5644,9.3964-9.0722,17.28-19.4394,17.28a19.37,19.37,0,0,1-12.0977-3.78l6.5889-10.6924a7.6108,7.6108,0,0,0,4.9677,1.9443c2.16,0,4.6446-2.0517,6.8047-7.3437l1.5118-3.78h-4.32l-23.3281-53.0293h15.7676l16.6328,38.9892h.3242Z"/><path class="d" d="M6801.4567,2730.698h44.3887V2806.3h-13.8243v-63.0733h-17.28c0,39.0967-5.1846,63.6133-22.14,63.6133a19.7434,19.7434,0,0,1-7.7773-1.5117l2.5927-11.8809a10.3632,10.3632,0,0,0,3.4561.6484c7.2363,0,10.584-14.9042,10.584-60.4814Z"/><path class="d" d="M6871.8717,2792.0437a7.668,7.668,0,1,1-7.6689,7.668A7.6976,7.6976,0,0,1,6871.8717,2792.0437Z"/><path class="d" d="M6956.0036,2798.4158V2808.46h-13.6084v-10.1523a36.24,36.24,0,0,1-7.9922.8642c-17.9287,0-26.2442-13.5-26.2442-31.1045,0-17.82,8.3155-31.32,26.2442-31.32a35.5229,35.5229,0,0,1,7.9922.8633v-10.1514h13.6084V2737.61a34.8151,34.8151,0,0,1,7.9921-.8633c17.9278,0,26.2442,13.5,26.2442,31.32,0,17.6045-8.3164,31.1045-26.2442,31.1045A42.7869,42.7869,0,0,1,6956.0036,2798.4158Zm-13.6084-12.0967v-36.7207a28.0649,28.0649,0,0,0-6.3721-.54c-9.2881,0-13.7168,8.3164-13.7168,18.9s4.4287,18.9,13.7168,18.9A28.0139,28.0139,0,0,0,6942.3952,2786.3191Zm13.6084-36.7207v36.7207a26.8875,26.8875,0,0,0,6.372.54c9.2881,0,13.7159-8.3164,13.7159-18.9s-4.4278-18.9-13.7159-18.9A26.9344,26.9344,0,0,0,6956.0036,2749.5984Z"/><path class="d" d="M7006.4372,2806.3V2730.698h43.8486l-2.16,12.5283h-27.8642v17.7129h24.625v12.5273h-24.625v20.3047h30.0244V2806.3Z"/><path class="d" d="M7069.7252,2806.3V2730.698h23.6524c13.5,0,23.6523,4.9687,23.6523,18.1445,0,9.9365-5.94,15.4444-12.8525,17.28v.4316c9.5039,2.2686,15.5527,8.3164,15.5527,18.793,0,15.4443-11.5566,20.9522-26.3525,20.9522Zm22.8965-63.0733H7083.55v18.2529h9.0722c6.5879,0,10.1514-3.6728,10.1514-9.1806S7099.21,2743.2263,7092.6217,2743.2263Zm.1084,30.1328H7083.55v20.4121h9.1806c7.9922,0,12.7442-3.9961,12.7442-9.9355C7105.4743,2776.9236,7100.7223,2773.3591,7092.73,2773.3591Z"/><path class="d" d="M7151.9137,2779.7312V2806.3H7138.09V2730.698h24.7324c14.3633,0,25.1641,8.3164,25.1641,24.5166s-10.8008,24.5166-25.1641,24.5166Zm0-36.5049v23.9766h10.6914c6.5879,0,11.0166-4.4278,11.0166-11.9883s-4.4287-11.9883-11.0166-11.9883Z"/><path class="d" d="M7240.6881,2789.7751h-23.9756l-4.9687,16.5245h-14.58l25.2725-75.6016h12.6357l25.2735,75.6016h-14.5811Zm-20.3037-12.2041h16.6319l-8.1006-27.4326h-.4317Z"/><path class="d" d="M7281.2946,2730.698h44.3886V2806.3H7311.859v-63.0733H7294.58c0,39.0967-5.1845,63.6133-22.1406,63.6133a19.7347,19.7347,0,0,1-7.7764-1.5117l2.5928-11.8809a10.3569,10.3569,0,0,0,3.4551.6484c7.2363,0,10.584-14.9042,10.584-60.4814Z"/><path class="d" d="M7361.1061,2730.698v29.3769h11.2314c15.6612,0,26.1368,7.668,26.1368,23.1123s-10.3672,23.1124-26.1368,23.1124h-25.0556V2730.698Zm0,41.9053v21.1679h10.584c8.749,0,12.5283-4.5361,12.5283-10.584,0-6.372-3.6719-10.5839-12.6367-10.5839Z"/><path class="d" d="M7463.8141,2801.5476c-6.8037,3.8877-12.5273,5.832-21.06,5.832-22.4638,0-32.4013-17.0644-32.4013-38.8808s9.9375-38.8809,32.4013-38.8809a39.0264,39.0264,0,0,1,19.7647,4.86l-5.5088,11.124a31.7026,31.7026,0,0,0-14.2559-3.4561c-12.3125,0-18.1445,11.5567-18.1445,26.3526s5.832,26.3525,18.1445,26.3525a30.6121,30.6121,0,0,0,15.4444-4.32Z"/><path class="d" d="M7499.777,2773.4665h-5.3994V2806.3h-13.8242V2730.698h13.8242v30.2412h5.6162l19.5488-30.2412h15.4434l-23.6524,35.749,25.92,39.8526-15.5518,1.08Z"/><path class="d" d="M7578.8327,2807.38c-22.4639,0-31.86-17.0644-31.86-38.8808s9.3965-38.8809,31.86-38.8809,31.86,17.0645,31.86,38.8809S7601.2965,2807.38,7578.8327,2807.38Zm0-65.2334c-12.3125,0-17.6045,11.5567-17.6045,26.3526s5.292,26.3525,17.6045,26.3525,17.6045-11.5557,17.6045-26.3525S7591.1442,2742.1462,7578.8327,2742.1462Z"/><path class="d" d="M7674.6286,2756.1872h-.3243L7640.6081,2806.3h-11.5557V2730.698h13.8242v50.2207h.3242l33.6953-50.2207h11.5567V2806.3h-13.8242Zm3.5644-38.9892c-4.7519,7.3447-10.9082,10.2607-19.4414,10.2607-8.5312,0-14.6875-2.916-19.4394-10.2607l8.6406-6.1563c2.5918,5.1846,6.8037,7.2364,10.7988,7.2364s8.3164-2.16,10.8008-7.2364Z"/><path class="d" d="M6885.9665,2919.7312V2946.3h-13.8243V2870.698h24.7325c14.3632,0,25.164,8.3164,25.164,24.5166s-10.8008,24.5166-25.164,24.5166Zm0-36.5049v23.9766h10.6914c6.5878,0,11.0166-4.4278,11.0166-11.9883s-4.4288-11.9883-11.0166-11.9883Z"/><path class="d" d="M6938.777,2946.3V2870.698h43.8477l-2.16,12.5283h-27.8633v17.7129h24.624v12.5273h-24.624v20.3047h30.0235V2946.3Z"/><path class="d" d="M7002.0641,2946.3V2870.698h23.6524c13.5,0,23.6523,4.9687,23.6523,18.1445,0,9.9365-5.94,15.4444-12.8516,17.28v.4316c9.5039,2.2686,15.5528,8.3164,15.5528,18.793,0,15.4443-11.5567,20.9522-26.3535,20.9522Zm22.8965-63.0733h-9.0723v18.2529h9.0723c6.5879,0,10.1523-3.6728,10.1523-9.1806S7031.5485,2883.2263,7024.9606,2883.2263Zm.1084,30.1328h-9.1807v20.4121h9.1807c7.9922,0,12.7441-3.9961,12.7441-9.9355C7037.8131,2916.9236,7033.0612,2913.3591,7025.069,2913.3591Z"/><path class="d" d="M7099.0485,2947.38c-22.4639,0-31.86-17.0644-31.86-38.8808s9.3965-38.8809,31.86-38.8809,31.8613,17.0645,31.8613,38.8809S7121.5133,2947.38,7099.0485,2947.38Zm0-65.2334c-12.3125,0-17.6035,11.5567-17.6035,26.3526s5.291,26.3525,17.6035,26.3525,17.6045-11.5557,17.6045-26.3525S7111.361,2882.1462,7099.0485,2882.1462Z"/><path class="d" d="M7156.18,2870.698h44.3887V2946.3h-13.8242v-63.0733h-17.28c0,39.0967-5.1836,63.6133-22.1406,63.6133a19.7244,19.7244,0,0,1-7.7754-1.5117l2.5918-11.8809a10.3575,10.3575,0,0,0,3.456.6484c7.2354,0,10.584-14.9042,10.584-60.4814Z"/><path class="d" d="M7246.6832,2913.6833h-10.6923V2946.3h-13.8243V2870.698h13.8243v30.457h10.9082c2.0517-18.36,12.5283-31.5371,31.5361-31.5371,21.3848,0,31.7529,16.8486,31.7529,38.8809s-10.3681,38.8808-31.7529,38.8808C7258.6715,2947.38,7248.0875,2933.1238,7246.6832,2913.6833Zm31.752,21.168c11.2324,0,17.4961-12.0957,17.4961-26.3525s-6.2637-26.3526-17.4961-26.3526-17.6035,12.0967-17.6035,26.3526S7267.2028,2934.8513,7278.4352,2934.8513Z"/><path class="d" d="M7328.5456,2946.3V2870.698H7342.37v63.0732h28.2959V2870.698H7384.49v63.0732h10.2607l-2.16,28.4043h-11.6641V2946.3Z"/><path class="d" d="M7454.904,2896.1872h-.3243L7420.8844,2946.3h-11.5566V2870.698h13.8242v50.2207h.3242l33.6963-50.2207h11.5557V2946.3H7454.904Z"/><path class="d" d="M7535.903,2896.1872h-.3233L7501.8825,2946.3h-11.5567V2870.698H7504.15v50.2207h.3243l33.6972-50.2207h11.5557V2946.3H7535.903Z"/><path class="d" d="M6652.8883,3067.2043v22.56h-8.3164v-53.897h30.876l-1.54,7.3916h-21.02v16.5542h21.02v7.3916Z"/><path class="d" d="M6689.694,3089.7639v-53.897h30.49l-1.54,7.3916h-20.6348v14.937h18.3252v7.3916h-18.3252v16.7852h22.1748v7.3916Z"/><path class="d" d="M6764.3053,3035.8669h9.085l-16.7852,53.897h-9.624l-16.7852-53.897h9.086l12.3193,42.4248h.3076Z"/><path class="d" d="M6818.2047,3051.8821c0,8.3154-4.6191,13.32-11.164,15.0913l14.09,22.7905-9.0078.77-14.09-22.791h-4.7745v22.021h-8.3154v-53.897h16.4C6810.66,3035.8669,6818.2047,3041.3337,6818.2047,3051.8821Zm-24.9463-8.6236v17.0928h7.7c4.9278,0,8.6231-3.08,8.6231-8.4692s-3.6953-8.6236-8.6231-8.6236Z"/><path class="d" d="M6829.2184,3089.7639l18.0166-53.897h8.2383l18.0166,53.897h-8.8535l-3.85-12.55h-18.9414l-3.7735,12.55Zm22.3281-42.8867h-.3847l-7.16,23.1758h14.6289Z"/><path class="d" d="M6886.1969,3089.7639v-53.897h8.3155v46.5054H6918.92l-1.5391,7.3916Z"/><path class="d" d="M6955.7252,3075.8279c0-5.313-5.1591-8.2388-11.0869-10.5489-6.93-2.6948-14.8613-6.6215-14.8613-15.5527,0-9.24,6.5449-14.6294,17.4785-14.6294a30.5394,30.5394,0,0,1,15.3994,4.1577l-3.9267,6.5445a20.6,20.6,0,0,0-11.4727-3.3106c-5.8515,0-8.8545,2.3867-8.8545,6.7754s5.3135,7.2378,10.01,9.0855c8.47,3.311,15.9385,7.0068,15.9385,17.0161,0,9.5478-6.6993,15.1684-18.7871,15.1684a29.4073,29.4073,0,0,1-17.0166-4.7739l4.39-6.7754a20.0571,20.0571,0,0,0,12.627,4.1577C6951.568,3083.1423,6955.7252,3080.8323,6955.7252,3075.8279Z"/><path class="d" d="M6998.9987,3061.3523l20.0185,28.4116-9.5468.77-17.7862-25.1006H6987.68v24.3306h-8.3154v-53.897h8.3154v22.4825h4.2354l16.0146-22.4825h9.4707Z"/><path class="d" d="M7050.9733,3090.5339c-16.0147,0-22.3291-12.1655-22.3291-27.7187s6.3144-27.7183,22.3291-27.7183,22.3291,12.1655,22.3291,27.7183S7066.9879,3090.5339,7050.9733,3090.5339Zm0-48.0454c-9.8555,0-13.7061,8.9317-13.7061,20.3267s3.8506,20.3271,13.7061,20.3271,13.7051-8.9316,13.7051-20.3271S7060.8288,3042.4885,7050.9733,3042.4885Z"/><path class="d" d="M7115.8063,3035.8669h9.7012l-17.3243,31.4141v22.4829h-8.3144V3067.281l-17.3242-31.4141h9.7011l11.5489,22.4825h.3086Z"/><path class="d" d="M7194.5758,3051.8821c0,8.3154-4.6191,13.32-11.164,15.0913l14.09,22.7905-9.0078.77-14.09-22.791H7169.63v22.021h-8.3154v-53.897h16.4C7187.0309,3035.8669,7194.5758,3041.3337,7194.5758,3051.8821Zm-24.9463-8.6236v17.0928h7.7c4.9278,0,8.6231-3.08,8.6231-8.4692s-3.6953-8.6236-8.6231-8.6236Z"/><path class="d" d="M7210.9782,3089.7639v-53.897h30.49l-1.5391,7.3916h-20.6347v14.937h18.3242v7.3916h-18.3242v16.7852h22.1738v7.3916Z"/><path class="d" d="M7285.5905,3035.8669h9.0849l-16.7851,53.897h-9.624l-16.7852-53.897h9.0859l12.3194,42.4248h.3076Z"/><path class="d" d="M7326.2467,3090.5339c-16.0146,0-22.3291-12.1655-22.3291-27.7187s6.3145-27.7183,22.3291-27.7183,22.3291,12.1655,22.3291,27.7183S7342.2614,3090.5339,7326.2467,3090.5339Zm0-48.0454c-9.8554,0-13.706,8.9317-13.706,20.3267s3.8506,20.3271,13.706,20.3271,13.7051-8.9316,13.7051-20.3271S7336.1022,3042.4885,7326.2467,3042.4885Z"/><path class="d" d="M7364.3629,3089.7639v-53.897h8.3145v46.5054h24.4082l-1.54,7.3916Z"/><path class="d" d="M7436.5094,3035.8669h9.7012l-17.3242,31.4141v22.4829h-8.3155V3067.281l-17.3242-31.4141h9.7022l11.5488,22.4825h.3086Z"/><path class="d" d="M7495.8747,3073.21c0,10.2407-7.6993,17.3242-19.2491,17.3242s-19.249-7.0835-19.249-17.3242v-37.3428h8.3164v36.958c0,6.0826,4.1572,10.3174,10.9326,10.3174s10.9336-4.2348,10.9336-10.3174v-36.958h8.3155Z"/><path class="d" d="M7532.528,3043.2585v46.5054h-8.3155v-46.5054h-16.0156v-7.3916h40.4238l-1.541,7.3916Z"/><path class="d" d="M7585.4254,3075.8279c0-5.313-5.1582-8.2388-11.0879-10.5489-6.93-2.6948-14.8593-6.6215-14.8593-15.5527,0-9.24,6.5449-14.6294,17.4775-14.6294a30.5366,30.5366,0,0,1,15.3994,4.1577l-3.9267,6.5445a20.6,20.6,0,0,0-11.4727-3.3106c-5.8516,0-8.8545,2.3867-8.8545,6.7754s5.3125,7.2378,10.01,9.0855c8.4687,3.311,15.9375,7.0068,15.9375,17.0161,0,9.5478-6.6983,15.1684-18.7871,15.1684a29.4088,29.4088,0,0,1-17.0157-4.7739l4.3887-6.7754a20.0632,20.0632,0,0,0,12.627,4.1577C7581.2672,3083.1423,7585.4254,3080.8323,7585.4254,3075.8279Z"/><path class="d" d="M7606.7555,3089.7639v-7.3916h8.8535v-39.1138h-8.8535v-7.3916h26.4092l-1.54,7.3916h-7.6993v39.1138h8.8545v7.3916Z"/><path class="d" d="M7646.2555,3089.7639v-7.3916h8.8535v-39.1138h-8.8535v-7.3916h26.4092l-1.54,7.3916h-7.6993v39.1138h8.8545v7.3916Z"/><path class="d" d="M7728.4118,3075.8279c0-5.313-5.1582-8.2388-11.0869-10.5489-6.93-2.6948-14.86-6.6215-14.86-15.5527,0-9.24,6.5449-14.6294,17.4785-14.6294a30.5363,30.5363,0,0,1,15.3985,4.1577l-3.9258,6.5445a20.6023,20.6023,0,0,0-11.4727-3.3106c-5.8515,0-8.8555,2.3867-8.8555,6.7754s5.3135,7.2378,10.01,9.0855c8.47,3.311,15.9385,7.0068,15.9385,17.0161,0,9.5478-6.6983,15.1684-18.7871,15.1684a29.4118,29.4118,0,0,1-17.0166-4.7739l4.39-6.7754a20.0612,20.0612,0,0,0,12.627,4.1577C7724.2545,3083.1423,7728.4118,3080.8323,7728.4118,3075.8279Z"/><path class="d" d="M7770.9928,3043.2585v46.5054h-8.3154v-46.5054h-16.0156v-7.3916h40.4238l-1.541,7.3916Z"/><path class="d" d="M7801.7926,3080.37a5.0818,5.0818,0,1,1-5.082,5.0815A5.1274,5.1274,0,0,1,7801.7926,3080.37Z"/><path class="d" d="M5551.2985,2068.9006v307.7637h82.7373v61.1313h-242.417v-61.1313h93.8047V2130.032h-85.8994l10.54-61.1314Z"/><path class="d" d="M5867.4967,2247.0242c35.3086,22.6606,56.3887,48.4834,56.3887,89.5888,0,69.563-45.8486,106.4527-121.209,106.4527s-121.208-36.89-121.208-106.4527c0-38.9975,20.0254-70.6172,56.3887-91.6967v-2.108c-26.877-14.7558-44.7949-43.2133-44.7949-81.684,0-62.1851,39.5244-97.4937,109.6142-97.4937s109.6152,35.3086,109.6152,97.4937c0,35.8354-20.0263,65.3471-44.7949,83.792Zm-79.0488,23.7148c-28.458,16.8638-41.6328,38.47-41.6328,65.874,0,32.1465,24.77,45.3213,55.8613,45.3213s55.8613-13.1748,55.8613-45.3213c0-26.8764-18.9716-44.7944-46.9023-56.3882Zm7.9053-59.0234,19.498,8.4321c20.0264-15.2827,31.0928-35.3086,31.0928-59.0234,0-23.1875-17.3906-36.3623-44.2676-36.3623s-44.2666,13.1748-44.2666,36.3623C5758.41,2187.4739,5773.1647,2201.7029,5796.3532,2211.7156Z"/><path class="d" d="M5420.654,2730.62h14.6875l-22.3565,59.4013c-3.5635,9.3965-9.0723,17.28-19.44,17.28a19.3635,19.3635,0,0,1-12.0957-3.78l6.5879-10.6924a7.6114,7.6114,0,0,0,4.9687,1.9444c2.1592,0,4.6436-2.0518,6.8027-7.3438l1.5127-3.78h-4.32l-23.3281-53.0292h15.7686l16.6318,38.9892h.3242Z"/><path class="d" d="M5447.653,2730.62h44.3886v75.6015h-13.8242v-63.0732h-17.28c0,39.0967-5.1836,63.6133-22.1407,63.6133a19.7232,19.7232,0,0,1-7.7754-1.5118l2.5918-11.8808a10.3581,10.3581,0,0,0,3.4561.6484c7.2353,0,10.584-14.9043,10.584-60.4814Z"/><path class="d" d="M5518.068,2791.9661a7.668,7.668,0,1,1-7.668,7.6679A7.6976,7.6976,0,0,1,5518.068,2791.9661Z"/><path class="d" d="M5609.9762,2801.47c-6.8047,3.8877-12.5293,5.832-21.0605,5.832-22.4649,0-32.4-17.0645-32.4-38.8809s9.9355-38.8808,32.4-38.8808a39.0234,39.0234,0,0,1,19.7636,4.86l-5.5078,11.124a31.7034,31.7034,0,0,0-14.2558-3.456c-12.3125,0-18.1446,11.5566-18.1446,26.3525s5.8321,26.3526,18.1446,26.3526a30.6029,30.6029,0,0,0,15.4433-4.32Z"/><path class="d" d="M5655.3356,2807.302c-22.4649,0-31.8613-17.0645-31.8613-38.8809s9.3964-38.8808,31.8613-38.8808,31.86,17.0644,31.86,38.8808S5677.8,2807.302,5655.3356,2807.302Zm0-65.2334c-12.3125,0-17.6045,11.5566-17.6045,26.3525s5.292,26.3526,17.6045,26.3526,17.6035-11.5557,17.6035-26.3526S5667.6481,2742.0686,5655.3356,2742.0686Z"/><path class="d" d="M5748,2798.3381v10.044H5734.39V2798.23a36.2342,36.2342,0,0,1-7.9922.8643c-17.9277,0-26.2441-13.5-26.2441-31.1045,0-17.82,8.3164-31.32,26.2441-31.32a35.5105,35.5105,0,0,1,7.9922.8633v-10.1514H5748v10.1514a34.8014,34.8014,0,0,1,7.9912-.8633c17.9287,0,26.2451,13.5,26.2451,31.32,0,17.6045-8.3164,31.1045-26.2451,31.1045A42.7675,42.7675,0,0,1,5748,2798.3381Zm-13.6094-12.0967v-36.7207a28.0566,28.0566,0,0,0-6.3711-.54c-9.2891,0-13.7168,8.3164-13.7168,18.9s4.4277,18.9,13.7168,18.9A27.9933,27.9933,0,0,0,5734.39,2786.2414ZM5748,2749.5207v36.7207a26.8777,26.8777,0,0,0,6.371.54c9.2891,0,13.7168-8.3164,13.7168-18.9s-4.4277-18.9-13.7168-18.9A26.9364,26.9364,0,0,0,5748,2749.5207Z"/><path class="d" d="M5812.2575,2730.62v29.3769h11.2314c15.6611,0,26.1367,7.668,26.1367,23.1123s-10.3681,23.1123-26.1367,23.1123h-25.0557V2730.62Zm0,41.9052v21.168h10.584c8.748,0,12.5273-4.5361,12.5273-10.584,0-6.3721-3.6719-10.584-12.6357-10.584Z"/><path class="d" d="M5910.3219,2756.11h-.3242L5876.3,2806.2219h-11.5556V2730.62h13.8242v50.2207h.3242L5912.59,2730.62h11.5566v75.6015h-13.8242Z"/><path class="d" d="M5289.7584,2913.3889h-5.3994v32.833h-13.8242V2870.62h13.8242v30.2412h5.6153l19.5488-30.2412h15.4434l-23.6524,35.749,25.9209,39.8525-15.5518,1.08Z"/><path class="d" d="M5368.8141,2947.302c-22.4648,0-31.8613-17.0645-31.8613-38.8809s9.3965-38.8808,31.8613-38.8808,31.86,17.0644,31.86,38.8808S5391.279,2947.302,5368.8141,2947.302Zm0-65.2334c-12.3125,0-17.6045,11.5566-17.6045,26.3525s5.292,26.3526,17.6045,26.3526,17.6035-11.5557,17.6035-26.3526S5381.1266,2882.0686,5368.8141,2882.0686Z"/><path class="d" d="M5419.0329,2946.2219V2870.62h23.6523c13.5,0,23.6523,4.9687,23.6523,18.1445,0,9.9365-5.9394,15.4443-12.8515,17.28v.4316c9.5039,2.2686,15.5517,8.3164,15.5517,18.793,0,15.4443-11.5556,20.9521-26.3525,20.9521Zm22.8964-63.0732h-9.0722v18.2529h9.0722c6.5879,0,10.1524-3.6728,10.1524-9.1807S5448.5172,2883.1487,5441.9293,2883.1487Zm.1075,30.1328h-9.18v20.4121h9.18c7.9922,0,12.7441-3.9961,12.7441-9.9356C5454.7809,2916.8459,5450.029,2913.2815,5442.0368,2913.2815Z"/><path class="d" d="M5523.361,2929.6975h-23.9766l-4.9678,16.5244h-14.58l25.2724-75.6015h12.6367l25.2715,75.6015h-14.58Zm-20.3047-12.2041h16.6328l-8.1-27.4326h-.4326Z"/><path class="d" d="M5563.9674,2870.62h44.3887v75.6015h-13.8242v-63.0732h-17.28c0,39.0967-5.1836,63.6133-22.1406,63.6133a19.7224,19.7224,0,0,1-7.7754-1.5118l2.5918-11.8808a10.3575,10.3575,0,0,0,3.456.6484c7.2354,0,10.584-14.9043,10.584-60.4814Z"/><path class="d" d="M5629.9547,2946.2219V2870.62h43.8477l-2.16,12.5283H5643.779v17.7129h24.624v12.5273h-24.624v20.3047h30.0234v12.5283Z"/><path class="d" d="M5693.2418,2946.2219V2870.62h23.6524c13.5,0,23.6523,4.9687,23.6523,18.1445,0,9.9365-5.9394,15.4443-12.8515,17.28v.4316c9.5039,2.2686,15.5527,8.3164,15.5527,18.793,0,15.4443-11.5566,20.9521-26.3535,20.9521Zm22.8965-63.0732h-9.0722v18.2529h9.0722c6.5879,0,10.1524-3.6728,10.1524-9.1807S5722.7262,2883.1487,5716.1383,2883.1487Zm.1084,30.1328h-9.1806v20.4121h9.1806c7.9922,0,12.7442-3.9961,12.7442-9.9356C5728.9909,2916.8459,5724.2389,2913.2815,5716.2467,2913.2815Z"/><path class="d" d="M5811.8268,2941.47c-6.8037,3.8877-12.5283,5.832-21.06,5.832-22.4648,0-32.4013-17.0645-32.4013-38.8809s9.9365-38.8808,32.4013-38.8808a39.0237,39.0237,0,0,1,19.7637,4.86l-5.5078,11.124a31.7068,31.7068,0,0,0-14.2559-3.456c-12.3125,0-18.1445,11.5566-18.1445,26.3525s5.832,26.3526,18.1445,26.3526a30.606,30.606,0,0,0,15.4434-4.32Z"/><path class="d" d="M5847.79,2913.3889H5842.39v32.833h-13.8242V2870.62H5842.39v30.2412h5.6152l19.5488-30.2412h15.4434l-23.6523,35.749,25.9209,39.8525-15.5518,1.08Z"/><path class="d" d="M5926.8454,2947.302c-22.4649,0-31.8614-17.0645-31.8614-38.8809s9.3965-38.8808,31.8614-38.8808,31.86,17.0644,31.86,38.8808S5949.31,2947.302,5926.8454,2947.302Zm0-65.2334c-12.3125,0-17.6045,11.5566-17.6045,26.3525s5.292,26.3526,17.6045,26.3526,17.6035-11.5557,17.6035-26.3526S5939.1579,2882.0686,5926.8454,2882.0686Z"/><path class="d" d="M6022.64,2896.11h-.3233l-33.6963,50.1123h-11.5566V2870.62h13.8242v50.2207h.3242l33.6963-50.2207h11.5557v75.6015H6022.64Zm3.5644-38.9892c-4.7519,7.3447-10.9082,10.2607-19.44,10.2607s-14.6885-2.916-19.44-10.2607l8.6406-6.1563c2.5918,5.1846,6.8047,7.2363,10.8,7.2363s8.3164-2.16,10.8-7.2363Z"/><path class="d" d="M5221.5348,3089.6858v-53.897h17.17c15.2452,0,22.0215,11.2412,22.0215,26.9483s-6.7763,26.9487-22.0215,26.9487Zm8.3154-46.5054v39.1138h8.8545c9.0088,0,13.3975-8.5464,13.3975-19.5571s-4.3887-19.5567-13.3975-19.5567Z"/><path class="d" d="M5296.5319,3090.4558c-16.0147,0-22.3291-12.1655-22.3291-27.7187s6.3144-27.7183,22.3291-27.7183,22.3291,12.1655,22.3291,27.7183S5312.5465,3090.4558,5296.5319,3090.4558Zm0-48.0454c-9.8555,0-13.7061,8.9316-13.7061,20.3267s3.8506,20.3271,13.7061,20.3271,13.7051-8.9316,13.7051-20.3271S5306.3874,3042.41,5296.5319,3042.41Z"/><path class="d" d="M5334.6481,3089.6858v-53.897h8.3144v46.5054h24.4082l-1.54,7.3916Z"/><path class="d" d="M5400.0954,3090.4558c-16.0147,0-22.3282-12.1655-22.3282-27.7187s6.3135-27.7183,22.3282-27.7183,22.3291,12.1655,22.3291,27.7183S5416.111,3090.4558,5400.0954,3090.4558Zm0-48.0454c-9.8555,0-13.7051,8.9316-13.7051,20.3267s3.85,20.3271,13.7051,20.3271,13.705-8.9316,13.705-20.3271S5409.9508,3042.41,5400.0954,3042.41Z"/><path class="d" d="M5471.4743,3051.8039c0,8.3155-4.62,13.32-11.1651,15.0914l14.0908,22.7905-9.0087.77-14.0909-22.791h-4.7734v22.021h-8.3154v-53.897h16.3994C5463.9284,3035.7888,5471.4743,3041.2556,5471.4743,3051.8039Zm-24.9473-8.6235v17.0928h7.6992c4.9278,0,8.624-3.08,8.624-8.4693s-3.6962-8.6235-8.624-8.6235Z"/><path class="d" d="M5487.8766,3089.6858v-53.897h30.49l-1.541,7.3916h-20.6347v14.937h18.3261v7.3916h-18.3261v16.7852h22.1757v7.3916Z"/><path class="d" d="M5559.0231,3075.75c0-5.3129-5.1592-8.2387-11.0879-10.5488-6.93-2.6948-14.86-6.6216-14.86-15.5527,0-9.24,6.5449-14.6294,17.4775-14.6294a30.54,30.54,0,0,1,15.4,4.1577l-3.9278,6.5444a20.5978,20.5978,0,0,0-11.4726-3.31c-5.8516,0-8.8535,2.3867-8.8535,6.7754s5.3125,7.2378,10.01,9.0854c8.4688,3.3111,15.9375,7.0069,15.9375,17.0161,0,9.5479-6.6992,15.1685-18.7871,15.1685a29.4042,29.4042,0,0,1-17.0156-4.7739l4.3887-6.7754a20.059,20.059,0,0,0,12.6269,4.1577C5554.8649,3083.0642,5559.0231,3080.7541,5559.0231,3075.75Z"/><path class="d" d="M5604.6071,3089.6858v-7.3916h8.8535V3043.18h-8.8535v-7.3916h26.4092l-1.54,7.3916h-7.6992v39.1138h8.8545v7.3916Z"/><path class="d" d="M5670.2086,3061.3513c6.7754,1.6167,11.0879,5.9287,11.0879,13.3975,0,11.01-8.2383,14.937-18.7871,14.937h-16.0918v-53.897h16.0918c9.624,0,16.8613,3.5415,16.8613,12.9351,0,7.0835-4.2343,11.0107-9.1621,12.3193Zm-15.4765-18.1709v15.2451h7.2383c5.1582,0,8.7773-3.2339,8.7773-7.7768,0-4.9278-3.1562-7.4683-9.0859-7.4683Zm0,22.3286v16.7852h7.3144c6.6231,0,10.626-3.3877,10.626-8.5464,0-5.4668-3.7725-8.2388-10.7021-8.2388Z"/><path class="d" d="M5691.693,3089.6858l18.0176-53.897h8.2383l18.0166,53.897h-8.8545l-3.85-12.55H5704.32l-3.7725,12.55Zm22.3281-42.8867h-.3847l-7.16,23.1757h14.6289Z"/><path class="d" d="M5781.9342,3051.8039c0,8.3155-4.62,13.32-11.165,15.0914l14.0908,22.7905-9.0088.77-14.09-22.791h-4.7735v22.021h-8.3164v-53.897h16.4C5774.3883,3035.7888,5781.9342,3041.2556,5781.9342,3051.8039Zm-24.9463-8.6235v17.0928h7.6993c4.9277,0,8.623-3.08,8.623-8.4693s-3.6953-8.6235-8.623-8.6235Z"/><path class="d" d="M5831.5993,3051.8039c0,8.3155-4.62,13.32-11.1651,15.0914l14.0908,22.7905-9.0087.77-14.0909-22.791h-4.7734v22.021h-8.3154v-53.897h16.3994C5824.0534,3035.7888,5831.5993,3041.2556,5831.5993,3051.8039Zm-24.9473-8.6235v17.0928h7.6992c4.9278,0,8.624-3.08,8.624-8.4693s-3.6962-8.6235-8.624-8.6235Z"/><path class="d" d="M5886.1149,3073.1316c0,10.2407-7.7,17.3242-19.25,17.3242s-19.2481-7.0835-19.2481-17.3242v-37.3428h8.3155v36.958c0,6.0825,4.1572,10.3174,10.9326,10.3174s10.9336-4.2349,10.9336-10.3174v-36.958h8.3164Z"/><path class="d" d="M5937.0885,3051.8039c0,8.3155-4.62,13.32-11.165,15.0914l14.0908,22.7905-9.0088.77-14.09-22.791h-4.7735v22.021h-8.3164v-53.897h16.4C5929.5426,3035.7888,5937.0885,3041.2556,5937.0885,3051.8039Zm-24.9463-8.6235v17.0928h7.6993c4.9277,0,8.623-3.08,8.623-8.4693s-3.6953-8.6235-8.623-8.6235Z"/><path class="d" d="M5951.1813,3089.6858v-7.3916h8.8535V3043.18h-8.8535v-7.3916h26.4092l-1.54,7.3916h-7.6992v39.1138h8.8545v7.3916Z"/><path class="d" d="M6033.3375,3075.75c0-5.3129-5.1582-8.2387-11.0869-10.5488-6.93-2.6948-14.86-6.6216-14.86-15.5527,0-9.24,6.5449-14.6294,17.4785-14.6294a30.5346,30.5346,0,0,1,15.3984,4.1577l-3.9257,6.5444a20.6031,20.6031,0,0,0-11.4727-3.31c-5.8516,0-8.8555,2.3867-8.8555,6.7754s5.3135,7.2378,10.01,9.0854c8.47,3.3111,15.9385,7.0069,15.9385,17.0161,0,9.5479-6.6983,15.1685-18.7871,15.1685a29.4118,29.4118,0,0,1-17.0166-4.7739l4.39-6.7754a20.0612,20.0612,0,0,0,12.627,4.1577C6029.18,3083.0642,6033.3375,3080.7541,6033.3375,3075.75Z"/><path class="d" d="M6075.9186,3043.18v46.5054h-8.3154V3043.18h-16.0157v-7.3916h40.4239l-1.541,7.3916Z"/><path class="d" d="M6106.7184,3080.2922a5.0818,5.0818,0,1,1-5.082,5.0816A5.1274,5.1274,0,0,1,6106.7184,3080.2922Z"/><path class="d" d="M3768.9137,2069.241V2400.37h89.0195v65.7719h-260.82V2400.37h100.9258v-265.357h-92.4219l11.34-65.7719Z"/><path class="d" d="M4094.3707,2135.0129h-188.246l11.3418-65.7719h252.3144v60.102l-141.1836,336.7988h-75.9785Z"/><path class="d" d="M4411.8883,2135.0129H4223.6442l11.34-65.7719H4487.3v60.102l-141.1836,336.7988h-75.9785Z"/><path class="d" d="M3578.9723,2844.0842H3593.66l-22.3555,59.4014c-3.5644,9.3965-9.0722,17.28-19.4414,17.28a19.3656,19.3656,0,0,1-12.0957-3.78l6.5879-10.6924a7.6133,7.6133,0,0,0,4.9688,1.9443c2.16,0,4.6445-2.0517,6.8037-7.3437l1.5127-3.78h-4.32l-23.3282-53.0293h15.7676l16.6328,38.9893h.3243Z"/><path class="d" d="M3605.9723,2844.0842h44.3887v75.6016h-13.8242v-63.0733h-17.2813c0,39.0967-5.1836,63.6133-22.14,63.6133a19.7321,19.7321,0,0,1-7.7764-1.5117l2.5918-11.8809a10.3565,10.3565,0,0,0,3.457.6485c7.2354,0,10.584-14.9043,10.584-60.4815Z"/><path class="d" d="M3676.3864,2905.43a7.668,7.668,0,1,1-7.668,7.668A7.6969,7.6969,0,0,1,3676.3864,2905.43Z"/><path class="d" d="M3724.986,2844.0842h44.3887v75.6016H3755.55v-63.0733h-17.28c0,39.0967-5.1846,63.6133-22.14,63.6133a19.7416,19.7416,0,0,1-7.7773-1.5117l2.5927-11.8809a10.3605,10.3605,0,0,0,3.4561.6485c7.2363,0,10.584-14.9043,10.584-60.4815Z"/><path class="d" d="M3829.8532,2844.0842h14.6884l-22.3564,59.4014c-3.5645,9.3965-9.0723,17.28-19.4395,17.28a19.369,19.369,0,0,1-12.0976-3.78l6.5889-10.6924a7.6108,7.6108,0,0,0,4.9677,1.9443c2.16,0,4.6446-2.0517,6.8047-7.3437l1.5117-3.78h-4.32l-23.3281-53.0293H3798.64l16.6328,38.9893h.3242Z"/><path class="d" d="M3871.3239,2874.3254h28.2968v-30.2412h13.8243v75.6016h-13.8243v-32.833h-28.2968v32.833H3857.5v-75.6016h13.8242Z"/><path class="d" d="M3972.0875,2903.1614H3948.111l-4.9688,16.5244h-14.58l25.2734-75.6016h12.6357l25.2725,75.6016h-14.58Zm-20.3046-12.2041h16.6328l-8.1006-27.4327h-.4326Z"/><path class="d" d="M4035.3747,2919.6858V2889.553a44.7672,44.7672,0,0,1-13.2842,2.3759c-15.9844,0-23.8682-7.0195-23.8682-22.68v-25.1651h13.8242v25.1651c0,7.5595,4.5352,10.1523,11.1231,10.1523a34.9745,34.9745,0,0,0,12.2051-2.377v-32.94h13.8242v75.6016Z"/><path class="d" d="M4107.8415,2903.1614h-23.9756l-4.9678,16.5244h-14.58l25.2715-75.6016h12.6367l25.2715,75.6016h-14.58Zm-20.3038-12.2041H4104.17l-8.1-27.4327h-.4317Z"/><path class="d" d="M4156.4411,2893.1174v26.5684h-13.8243v-75.6016h24.7325c14.3632,0,25.164,8.3164,25.164,24.5166s-10.8008,24.5166-25.164,24.5166Zm0-36.5049v23.9766h10.6914c6.5879,0,11.0166-4.4277,11.0166-11.9883s-4.4287-11.9883-11.0166-11.9883Z"/><path class="d" d="M4258.9323,2914.9338c-6.8037,3.8877-12.5283,5.8321-21.06,5.8321-22.4648,0-32.4014-17.0645-32.4014-38.8809s9.9366-38.8809,32.4014-38.8809a39.0231,39.0231,0,0,1,19.7637,4.86l-5.5078,11.124a31.7057,31.7057,0,0,0-14.2559-3.456c-12.3125,0-18.1445,11.5566-18.1445,26.3525s5.832,26.3525,18.1445,26.3525a30.606,30.606,0,0,0,15.4434-4.32Z"/><path class="d" d="M4295.9752,2886.8528h-5.3994v32.833h-13.8242v-75.6016h13.8242v30.2412h5.6153l19.5488-30.2412h15.4433l-23.6523,35.749,25.9209,39.8526-15.5518,1.08Z"/><path class="d" d="M4371.7907,2920.7659c-22.4639,0-31.86-17.0645-31.86-38.8809s9.3965-38.8809,31.86-38.8809,31.8613,17.0645,31.8613,38.8809S4394.2555,2920.7659,4371.7907,2920.7659Zm0-65.2334c-12.3125,0-17.6035,11.5566-17.6035,26.3525s5.291,26.3525,17.6035,26.3525,17.6045-11.5556,17.6045-26.3525S4384.1032,2855.5325,4371.7907,2855.5325Z"/><path class="d" d="M4436.9147,2856.6125v63.0733h-13.8242v-75.6016h43.2l-2.16,12.5283Z"/><path class="d" d="M4504.6305,2920.7659c-22.4648,0-31.8613-17.0645-31.8613-38.8809s9.3965-38.8809,31.8613-38.8809,31.86,17.0645,31.86,38.8809S4527.0954,2920.7659,4504.6305,2920.7659Zm0-65.2334c-12.3125,0-17.6045,11.5566-17.6045,26.3525s5.292,26.3525,17.6045,26.3525,17.6035-11.5556,17.6035-26.3525S4516.943,2855.5325,4504.6305,2855.5325Z"/><path class="d" d="M406.87,2844.0842h14.688l-22.3565,59.4014c-3.5639,9.3965-9.0718,17.28-19.44,17.28a19.3665,19.3665,0,0,1-12.0967-3.78l6.5884-10.6924a7.611,7.611,0,0,0,4.9682,1.9443c2.16,0,4.6441-2.0517,6.8037-7.3437l1.5123-3.78h-4.32l-23.3286-53.0293h15.7681l16.6323,38.9893h.3242Z"/><path class="d" d="M433.8693,2844.0842H478.258v75.6016H464.4337v-63.0733h-17.28c0,39.0967-5.1841,63.6133-22.14,63.6133a19.732,19.732,0,0,1-7.7763-1.5117l2.5922-11.8809a10.358,10.358,0,0,0,3.4561.6485c7.2358,0,10.584-14.9043,10.584-60.4815Z"/><path class="d" d="M504.2843,2905.43a7.668,7.668,0,1,1-7.6684,7.668A7.6977,7.6977,0,0,1,504.2843,2905.43Z"/><path class="d" d="M580.964,2919.6858V2889.553a44.7672,44.7672,0,0,1-13.2842,2.3759c-15.9843,0-23.8686-7.0195-23.8686-22.68v-25.1651h13.8242v25.1651c0,7.5595,4.5361,10.1523,11.124,10.1523a34.9758,34.9758,0,0,0,12.2046-2.377v-32.94h13.8242v75.6016Z"/><path class="d" d="M617.4669,2919.6858v-75.6016h43.8487l-2.16,12.5283H631.2912v17.7129h24.6245v12.5274H631.2912v20.3047h30.0244v12.5283Z"/><path class="d" d="M688.7467,2844.0842h44.3887v75.6016H719.3112v-63.0733h-17.28c0,39.0967-5.1841,63.6133-22.14,63.6133a19.7321,19.7321,0,0,1-7.7764-1.5117l2.5923-11.8809a10.3548,10.3548,0,0,0,3.456.6485c7.2359,0,10.584-14.9043,10.584-60.4815Z"/><path class="d" d="M780.33,2887.07H769.6378v32.6162H755.8136v-75.6016h13.8242v30.4571H780.546c2.0518-18.36,12.5284-31.5372,31.5367-31.5372,21.3842,0,31.7524,16.8487,31.7524,38.8809s-10.3682,38.8809-31.7524,38.8809C792.318,2920.7659,781.734,2906.51,780.33,2887.07Zm31.753,21.1679c11.2319,0,17.4961-12.0957,17.4961-26.3525s-6.2642-26.3525-17.4961-26.3525-17.6045,12.0966-17.6045,26.3525S800.85,2908.2375,812.0827,2908.2375Z"/><path class="d" d="M913.4928,2914.9338c-6.8042,3.8877-12.5283,5.8321-21.06,5.8321-22.4644,0-32.4009-17.0645-32.4009-38.8809s9.9365-38.8809,32.4009-38.8809a39.0243,39.0243,0,0,1,19.7641,4.86l-5.5083,11.124a31.7023,31.7023,0,0,0-14.2558-3.456c-12.3125,0-18.1446,11.5566-18.1446,26.3525s5.8321,26.3525,18.1446,26.3525a30.6074,30.6074,0,0,0,15.4438-4.32Z"/><path class="d" d="M950.5358,2886.8528h-5.4v32.833H931.3117v-75.6016h13.8242v30.2412h5.6162L970.3,2844.0842h15.4439l-23.6524,35.749,25.92,39.8526-15.5523,1.08Z"/><path class="d" d="M1047.6276,2869.5735h-.3242l-33.6963,50.1123h-11.5562v-75.6016h13.8242v50.2207h.3238l33.6968-50.2207h11.5561v75.6016h-13.8242Z"/><path class="d" d="M1097.9533,2874.3254H1126.25v-30.2412h13.8242v75.6016H1126.25v-32.833h-28.2964v32.833H1084.129v-75.6016h13.8243Z"/><path class="d" d="M1162.7521,2919.6858v-75.6016h13.8242v63.0733h28.2964v-63.0733h13.8242v63.0733h10.26l-2.16,28.4043h-11.664v-15.876Z"/><path class="d" d="M1244.6144,2919.6858v-75.6016h43.8486l-2.16,12.5283h-27.8643v17.7129h24.6245v12.5274h-24.6245v20.3047h30.0244v12.5283Z"/><path class="d" d="M1308.9826,2919.6858v-75.6016h23.6523c13.5,0,23.6524,4.9688,23.6524,18.1446,0,9.9365-5.94,15.4443-12.8521,17.28v.4317c9.5039,2.2685,15.5522,8.3164,15.5522,18.7929,0,15.4444-11.5561,20.9522-26.3525,20.9522Zm22.8964-63.0733h-9.0722v18.253h9.0722c6.5879,0,10.1519-3.6729,10.1519-9.1807S1338.4669,2856.6125,1331.879,2856.6125Zm.108,30.1329h-9.18v20.4121h9.18c7.9921,0,12.7441-3.9961,12.7441-9.9356C1344.7311,2890.31,1339.9791,2886.7454,1331.987,2886.7454Z"/><path class="d" d="M3650.91,3061.4177v-53.897h8.3145v46.5054h24.4082l-1.54,7.3916Z"/><path class="d" d="M3734.8356,3044.8635c0,10.2407-7.6992,17.3242-19.2481,17.3242s-19.25-7.0835-19.25-17.3242v-37.3428h8.3165v36.9581c0,6.0825,4.1582,10.3173,10.9335,10.3173s10.9336-4.2348,10.9336-10.3173v-36.9581h8.3145Z"/><path class="d" d="M3784.7321,3047.6355h.3086v-40.1148h8.3154v53.897h-8.9316l-22.8682-40.0376h-.3076v40.0376h-8.3155v-53.897h8.9317Z"/><path class="d" d="M3806.4469,3061.4177l18.0176-53.897h8.2383l18.0176,53.897h-8.8555l-3.85-12.55h-18.9414l-3.7715,12.55Zm22.3291-42.8867h-.3847l-7.1612,23.1758h14.6289Z"/><path class="d" d="M3868.5856,3034.469c0,11.3955,3.85,20.3271,13.7051,20.3271a23.3051,23.3051,0,0,0,11.7812-3.311l3.2334,6.5449a27.5167,27.5167,0,0,1-15.0146,4.1577c-16.0147,0-22.3282-12.1655-22.3282-27.7187s6.3135-27.7183,22.3282-27.7183a27.82,27.82,0,0,1,14.09,3.4649l-3.2324,6.5444a23.61,23.61,0,0,0-10.8574-2.6177C3872.4352,3014.1423,3868.5856,3023.074,3868.5856,3034.469Z"/><path class="d" d="M3920.6374,3029.8494h22.4833v-22.3287h8.3145v53.897h-8.3145V3037.241h-22.4833v24.1767h-8.3155v-53.897h8.3155Z"/><path class="d" d="M3964.527,3061.4177l18.0176-53.897h8.2383l18.0175,53.897h-8.8554l-3.85-12.55H3977.154l-3.7715,12.55Zm22.3291-42.8867h-.3848l-7.1611,23.1758h14.6289Z"/><path class="d" d="M4055.154,3023.5359c0,8.3154-4.62,13.32-11.1651,15.0913l14.0908,22.7905-9.0088.77-14.0908-22.791h-4.7734v22.021h-8.3154v-53.897h16.3994C4047.6071,3007.5207,4055.154,3012.9875,4055.154,3023.5359Zm-24.9473-8.6236v17.0928h7.6992c4.9277,0,8.624-3.08,8.624-8.4692s-3.6963-8.6236-8.624-8.6236Z"/><path class="d" d="M4096.0407,3047.4817c0-5.313-5.1582-8.2388-11.0879-10.5488-6.93-2.6949-14.8594-6.6216-14.8594-15.5528,0-9.24,6.5449-14.6294,17.4775-14.6294a30.5373,30.5373,0,0,1,15.3995,4.1577l-3.9268,6.5445a20.6,20.6,0,0,0-11.4727-3.3106c-5.8515,0-8.8544,2.3867-8.8544,6.7754s5.3125,7.2378,10.01,9.0855c8.4688,3.311,15.9375,7.0068,15.9375,17.0161,0,9.5478-6.6982,15.1684-18.7871,15.1684a29.4087,29.4087,0,0,1-17.0156-4.7739l4.3887-6.7754a20.0627,20.0627,0,0,0,12.6269,4.1577C4091.8825,3054.7961,4096.0407,3052.4861,4096.0407,3047.4817Z"/><path class="d" d="M4139.6989,3033.0061l20.0195,28.4116-9.5478.77-17.7862-25.1006h-4.0039v24.3306h-8.3154v-53.897h8.3154v22.4825h4.2344l16.0156-22.4825h9.4707Z"/><path class="d" d="M4188.9782,3062.1877c-16.0147,0-22.3282-12.1655-22.3282-27.7187s6.3135-27.7183,22.3282-27.7183,22.3291,12.1656,22.3291,27.7183S4204.9938,3062.1877,4188.9782,3062.1877Zm0-48.0454c-9.8555,0-13.7051,8.9317-13.7051,20.3267s3.85,20.3271,13.7051,20.3271,13.705-8.9316,13.705-20.3271S4198.8336,3014.1423,4188.9782,3014.1423Z"/><path class="d" d="M4233.7926,3034.469c0,11.3955,4.1582,20.3271,14.3223,20.3271a18.9094,18.9094,0,0,0,7.7764-1.4629v-13.7055h-9.4707V3032.39h17.247v24.87a24.9219,24.9219,0,0,1-15.8613,4.9277c-16.0156,0-22.6367-12.1655-22.6367-27.7187s6.6211-27.7183,22.6367-27.7183a29.1938,29.1938,0,0,1,14.6289,3.4649l-3.31,6.6987a23.6766,23.6766,0,0,0-11.3184-2.772C4237.9508,3014.1423,4233.7926,3023.074,4233.7926,3034.469Z"/><path class="d" d="M4300.2438,3062.1877c-16.0156,0-22.3291-12.1655-22.3291-27.7187s6.3135-27.7183,22.3291-27.7183,22.3281,12.1656,22.3281,27.7183S4316.2594,3062.1877,4300.2438,3062.1877Zm0-48.0454c-9.8555,0-13.7051,8.9317-13.7051,20.3267s3.85,20.3271,13.7051,20.3271,13.7051-8.9316,13.7051-20.3271S4310.0993,3014.1423,4300.2438,3014.1423Z"/><path class="d" d="M4377.09,3047.4817c0-5.313-5.1592-8.2388-11.0879-10.5488-6.93-2.6949-14.86-6.6216-14.86-15.5528,0-9.24,6.5449-14.6294,17.4775-14.6294a30.5407,30.5407,0,0,1,15.4,4.1577l-3.9277,6.5445a20.5976,20.5976,0,0,0-11.4727-3.3106c-5.8516,0-8.8535,2.3867-8.8535,6.7754s5.3125,7.2378,10.01,9.0855c8.4688,3.311,15.9375,7.0068,15.9375,17.0161,0,9.5478-6.6992,15.1684-18.7871,15.1684a29.4042,29.4042,0,0,1-17.0156-4.7739l4.3887-6.7754a20.059,20.059,0,0,0,12.6269,4.1577C4372.9313,3054.7961,4377.09,3052.4861,4377.09,3047.4817Z"/><path class="d" d="M4420.0543,3014.9123v46.5054h-8.3154v-46.5054h-16.0146v-7.3916h40.4218l-1.539,7.3916Z"/><path class="d" d="M4445.8493,3052.0242a5.0818,5.0818,0,1,1-5.0821,5.0815A5.1274,5.1274,0,0,1,4445.8493,3052.0242Z"/><path class="d" d="M2285.84,2129.342c-28.35,0-54.998,9.6392-79.9473,24.9483l-33.4531-57.2671c45.3613-24.3814,77.68-33.4531,124.1738-33.4531,69.74,0,112.834,39.69,112.834,108.8642,0,87.3179-75.4121,170.6675-144.5859,225.6665v2.2681h155.9258l-11.34,65.772H2165.6364v-60.1021c77.6777-58.4014,170.666-150.2554,170.666-226.2334C2336.3024,2148.62,2318.7262,2129.342,2285.84,2129.342Z"/><path class="d" d="M2610.73,2471.8108c-87.3183,0-141.7519-69.7412-141.7519-204.1206s54.4336-204.12,141.7519-204.12c87.3164,0,141.75,69.7412,141.75,204.12S2698.0465,2471.8108,2610.73,2471.8108Zm0-65.772c39.1231,0,68.6055-40.8242,68.6055-138.3486s-29.4824-138.3482-68.6055-138.3482-68.6074,40.8243-68.6074,138.3482S2571.6071,2406.0388,2610.73,2406.0388Z"/><path class="d" d="M2220.6188,2652.9507h34.4844l-2.42,11.6162h-50.82v-10.4063c16.5772-12.4631,37.6309-34.4856,37.6309-50.7,0-8.1069-3.9922-13.1892-12.584-13.1892-6.5332,0-12.1,2.178-17.7871,5.6872l-5.8086-10.1643c9.6816-5.2031,15.9727-7.1391,25.8945-7.1391,14.8838,0,23.4746,8.47,23.4746,23.2324,0,18.6345-17.3027,38.8418-32.0644,50.5788Z"/><path class="d" d="M2296.1227,2665.7768c-18.6348,0-29.6465-14.8833-29.6465-43.5607s11.0117-43.5608,29.6465-43.5608,29.6455,14.8833,29.6455,43.5608S2314.7575,2665.7768,2296.1227,2665.7768Zm0-11.6162c9.68,0,16.4561-9.4382,16.4561-31.9445s-6.7764-31.9446-16.4561-31.9446-16.457,9.4382-16.457,31.9446S2286.443,2654.1606,2296.1227,2654.1606Z"/><path class="d" d="M2489.24,2594.2646l8.35-8.3491,36.3008,36.3006-36.3008,36.3007-8.35-8.3491,21.9023-21.5386v-.3628h-141.09v-12.1h141.09v-.363Z"/><path class="d" d="M2616.7731,2579.8655v73.0852h19.6016v11.6162h-54.4512v-11.6162h22.1445v-61.469h-20.3291l2.42-11.6162Z"/><path class="d" d="M2648.3532,2641.5764c0-9.5591,5.8086-17.0613,14.0361-21.2964v-.363a21.3963,21.3963,0,0,1-11.374-19.2393c0-13.5522,9.1953-22.0224,24.5625-22.0224s24.5644,8.47,24.5644,22.0224a21.5906,21.5906,0,0,1-11.375,19.36v.363c8.2285,4.2351,14.0371,11.6162,14.0371,21.1753,0,15.2463-10.6484,24.2-27.2265,24.2C2659.0016,2665.7768,2648.3532,2656.8227,2648.3532,2641.5764Zm23.2324-16.6982c-7.0176,4.114-10.6484,9.8012-10.6484,16.6982,0,8.8333,6.1718,12.5842,14.6406,12.5842,8.4707,0,14.6426-4.2351,14.6426-12.5842,0-7.26-6.4141-11.4951-13.5528-14.52Zm3.3877-10.7693,3.8721,1.573c5.5664-3.8721,8.7128-8.833,8.7128-15.0042,0-6.5342-5.082-10.4062-11.98-10.4062-6.8965,0-11.9785,3.872-11.9785,10.4062C2663.5993,2607.9377,2668.8024,2611.5679,2674.9733,2614.1089Z"/><path class="d" d="M3757.0778,2579.8645V2652.95H3776.68v11.6162h-54.45V2652.95h22.1426v-61.469h-20.3281l2.42-11.6162Z"/><path class="d" d="M3829.6784,2591.4807h-41.6241l2.42-11.6162h52.6347v10.406l-29.5234,74.2954h-13.7949Z"/><path class="d" d="M3908.9332,2638.4294c0,18.6343-13.3105,27.3465-28.6777,27.3465a42.4845,42.4845,0,0,1-24.5625-7.1392l6.17-10.1641c5.0821,3.388,10.043,5.6871,17.5459,5.6871,9.3174,0,16.335-4.84,16.335-15.6092,0-11.2534-7.26-15.73-16.8184-15.73h-6.2929v-6.534l18.15-24.3215v-.4839h-32.3077l2.4209-11.6162h44.2862v10.406l-17.3037,22.99v.363C3899.2536,2615.56,3908.9332,2622.0942,3908.9332,2638.4294Z"/><path class="d" d="M4076.64,2594.2637l8.35-8.3492,36.3008,36.3006-36.3008,36.3008-8.35-8.3492,21.9023-21.5385v-.3628h-141.09v-12.1h141.09v-.363Z"/><path class="d" d="M4204.1735,2579.8645V2652.95h19.6015v11.6162h-54.45V2652.95h22.1435v-61.469H4171.14l2.42-11.6162Z"/><path class="d" d="M4276.7731,2591.4807h-41.625l2.42-11.6162h52.6367v10.406l-29.5254,74.2954h-13.7939Z"/><path class="d" d="M4344.4118,2591.4807h-41.6241l2.42-11.6162h52.6357v10.406l-29.5244,74.2954h-13.794Z"/><path class="d" d="M594.1105,2069.241V2400.37h89.02v65.7719H422.31V2400.37H523.2355v-265.357H430.8146l11.34-65.7719Z"/><path class="d" d="M864.5685,2471.8118c-87.3184,0-141.751-69.7413-141.751-204.1206s54.4326-204.12,141.751-204.12,141.75,69.7412,141.75,204.12S951.8859,2471.8118,864.5685,2471.8118Zm0-65.772c39.123,0,68.6064-40.8242,68.6064-138.3486s-29.4834-138.3482-68.6064-138.3482-68.6074,40.8242-68.6074,138.3482S825.4455,2406.04,864.5685,2406.04Z"/><path class="d" d="M1174.716,2129.343c-28.3506,0-54.9991,9.6392-79.9473,24.9483l-33.4531-57.2671c45.36-24.3814,77.6787-33.4532,124.1728-33.4532,69.7412,0,112.834,39.69,112.834,108.8643,0,87.3179-75.4111,170.6675-144.5859,225.6665v2.2681h155.9258l-11.34,65.7719H1054.5119V2406.04c77.6787-58.4014,170.667-150.2554,170.667-226.2339C1225.1789,2148.6213,1207.6017,2129.343,1174.716,2129.343Z"/><path class="d" d="M618.1457,2580.57v72.4771h19.4389v11.5195H583.5871v-11.5195H605.546V2592.09H585.3869l2.4-11.52Z"/><path class="d" d="M676.466,2665.7668c-18.479,0-29.399-14.7592-29.399-43.1982s10.92-43.1982,29.399-43.1982,29.3989,14.7592,29.3989,43.1982S694.945,2665.7668,676.466,2665.7668Zm0-11.5195c9.6,0,16.3193-9.36,16.3193-31.6787s-6.72-31.6787-16.3193-31.6787-16.3194,9.36-16.3194,31.6787S666.8664,2654.2473,676.466,2654.2473Z"/><path class="d" d="M735.7462,2653.0474H769.945l-2.4,11.5195h-50.398v-10.32c16.4395-12.3594,37.3184-34.1987,37.3184-50.2778,0-8.04-3.96-13.08-12.48-13.08-6.48,0-12,2.16-17.6392,5.64l-5.76-10.08c9.6-5.16,15.8393-7.08,25.6792-7.08,14.7592,0,23.2788,8.4,23.2788,23.039,0,18.4793-17.1592,38.5186-31.7989,50.158Z"/><path class="d" d="M935.0622,2594.85l8.2793-8.28,35.9985,35.9985-35.9985,35.9985-8.2793-8.28,21.7187-21.3588v-.36H816.8668v-12H956.7809v-.36Z"/><path class="d" d="M1064.5456,2627.6084c-3.84,3.6-9.12,5.16-15.24,5.16-14.2793,0-24.1186-9.48-24.1186-26.3989,0-16.4395,11.6391-26.999,27.3584-26.999,16.9194,0,27.2392,11.3994,27.2392,30.8388,0,29.9986-16.7993,48.3579-41.6387,55.5576l-4.5595-9.84c14.2793-5.4,27.3589-13.5593,31.3188-28.0788Zm-12-36.7185c-8.1592,0-14.3995,5.52-14.3995,15.4795s6.24,15.4792,14.3995,15.4792c6.12,0,12-4.2,14.52-10.44C1067.0651,2599.4094,1061.7853,2590.89,1052.5456,2590.89Z"/><path class="d" d="M1119.8659,2665.7668c-18.4795,0-29.399-14.7592-29.399-43.1982s10.92-43.1982,29.399-43.1982,29.3989,14.7592,29.3989,43.1982S1138.3454,2665.7668,1119.8659,2665.7668Zm0-11.5195c9.6,0,16.3193-9.36,16.3193-31.6787s-6.72-31.6787-16.3193-31.6787-16.3194,9.36-16.3194,31.6787S1110.2663,2654.2473,1119.8659,2654.2473Z"/><path class="d" d="M5423.7672,2595.31h34.4854l-2.42,11.6163h-50.8213V2596.52c16.5781-12.4631,37.6318-34.4856,37.6318-50.7,0-8.107-3.9932-13.1892-12.584-13.1892-6.5342,0-12.1006,2.1779-17.7871,5.6872l-5.8086-10.1643c9.6807-5.2031,15.9727-7.1392,25.8946-7.1392,14.8837,0,23.4746,8.47,23.4746,23.2325,0,18.6345-17.3037,38.8418-32.0655,50.5788Z"/><path class="d" d="M5491.4059,2595.31h34.4863l-2.42,11.6163H5472.651V2596.52c16.5772-12.4631,37.6319-34.4856,37.6319-50.7,0-8.107-3.9932-13.1892-12.584-13.1892-6.5352,0-12.1006,2.1779-17.7881,5.6872l-5.8076-10.1643c9.68-5.2031,15.9726-7.1392,25.8945-7.1392,14.8828,0,23.4746,8.47,23.4746,23.2325,0,18.6345-17.3037,38.8418-32.0664,50.5788Z"/><path class="d" d="M5692.3893,2536.624l8.3486-8.3491,36.3008,36.3005-36.3008,36.3008-8.3486-8.3491,21.9014-21.5386v-.3628H5573.2018v-12.1h141.0889v-.3631Z"/><path class="d" d="M5819.9215,2522.2248V2595.31h19.6016v11.6163h-54.45V2595.31h22.1436v-61.4689h-20.3282l2.42-11.6163Z"/><path class="d" d="M5893.9743,2522.2248l-30.251,52.878v.4839h19.2392V2560.22h12.7051v15.3672h13.916l-2.4209,11.4951h-11.4951v19.8445h-12.7051v-19.8445h-34.4863v-10.2852l31.2188-54.5718Z"/></svg>