<svg xmlns="http://www.w3.org/2000/svg" viewBox="0 0 348.54 238.87"><defs><style>.a{opacity:0.9;}.b,.c{fill:#14283c;}.c{opacity:0.3;}.d,.i{fill:#fff;}.d{stroke:#e4ebf0;stroke-miterlimit:10;}.e{fill:#e4ebf0;}.f,.g,.h,.k,.l,.m,.n{fill-rule:evenodd;}.g{fill:#199ed9;}.h{fill:#26a63f;}.j{fill:#9c9b9b;}.k{fill:#ef7f1a;}.l{fill:#00b4ff;}.m{fill:#00b400;}.n{fill:#ff640a;}</style></defs><g class="a"><path class="b" d="M5.05,112.38c-2.75,0-3.83-2.09-3.83-4.76s1.08-4.76,3.83-4.76,3.83,2.09,3.83,4.76S7.8,112.38,5.05,112.38Zm0-8.25c-1.69,0-2.35,1.54-2.35,3.49s.66,3.49,2.35,3.49,2.35-1.53,2.35-3.49S6.74,104.13,5.05,104.13Z"/><path class="b" d="M9.94,105.51h5.71l-.26,1.15h-2v5.59H12.08v-5.59H9.94Z"/><path class="b" d="M16.11,105.51h5.71l-.26,1.15H19.61v5.59H18.25v-5.59H16.11Z"/><path class="b" d="M28.37,109.19H24.09c.1,1.31.78,2,2,2a3.76,3.76,0,0,0,1.68-.46l.45,1a5,5,0,0,1-2.26.57c-2,0-3.28-1.3-3.28-3.5s1.21-3.5,3-3.5a2.5,2.5,0,0,1,2.77,2.71A5.51,5.51,0,0,1,28.37,109.19Zm-4.22-1.06h3.11a1.44,1.44,0,0,0-1.52-1.6A1.6,1.6,0,0,0,24.15,108.13Z"/><path class="b" d="M35.62,112.25H34.24v-2.9H31.58v2.9H30.21v-6.74h1.37v2.69h2.66v-2.69h1.38Z"/><path class="b" d="M37.33,108.88c0-2.2,1.23-3.5,3.11-3.5s3.1,1.3,3.1,3.5-1.23,3.5-3.1,3.5S37.33,111.07,37.33,108.88Zm1.4,0c0,1.48.68,2.35,1.71,2.35s1.7-.87,1.7-2.35-.67-2.35-1.7-2.35S38.73,107.4,38.73,108.88Z"/><path class="b" d="M48.48,108.76l2.24,3.49-1.4.13-1.94-3h-.75v2.92H45.26v-6.74h1.37v2.72h.76l1.77-2.72h1.43Z"/><path class="b" d="M59.89,114.89l-1.37.27v-2.85a4.86,4.86,0,0,1-.78.07c-2.05,0-2.79-1.56-2.79-3.5s.74-3.5,2.79-3.5a6.72,6.72,0,0,1,.78.06V102.6l1.37-.26v3.1a6.36,6.36,0,0,1,.78-.06c2,0,2.79,1.56,2.79,3.5s-.74,3.5-2.79,3.5a4.64,4.64,0,0,1-.78-.07Zm-1.35-8.3a2.49,2.49,0,0,0-.59-.06c-1.14,0-1.62,1-1.62,2.35s.48,2.35,1.62,2.35a2.58,2.58,0,0,0,.59-.07Zm1.32,4.57a2.6,2.6,0,0,0,.6.07c1.13,0,1.61-1,1.61-2.35s-.48-2.35-1.61-2.35a2.64,2.64,0,0,0-.6.06Z"/><path class="b" d="M66.55,114.89l-1.38.27v-9.65h1l.27.71h0a2.41,2.41,0,0,1,1.92-.84c1.9,0,2.72,1.49,2.72,3.5s-.83,3.5-2.84,3.5a3.9,3.9,0,0,1-1.72-.36Zm3.16-6c0-1.39-.56-2.35-1.72-2.35a1.9,1.9,0,0,0-1.44.83v3.4a2.47,2.47,0,0,0,1.49.47C69.09,111.23,69.71,110.37,69.71,108.88Z"/><path class="b" d="M72.83,112.25v-6.74H74.2V110h0l3.11-4.49h1.23v6.74H77.21v-4.5h0l-3.1,4.5Z"/><path class="b" d="M83.82,108.67v0a1.67,1.67,0,0,1,1.44,1.6c0,1.26-.94,2.07-2.83,2.07a6.24,6.24,0,0,1-2.26-.41l.43-1.06a5.28,5.28,0,0,0,1.79.32c.86,0,1.47-.4,1.47-1s-.36-.94-1.35-.94H81.6v-1.1h.81c.63,0,1.16-.25,1.16-.84s-.5-.87-1.14-.87a5.47,5.47,0,0,0-1.77.29l-.42-1.06a6.92,6.92,0,0,1,2.23-.38c1.61,0,2.5.66,2.5,1.85A1.52,1.52,0,0,1,83.82,108.67Z"/><path class="b" d="M90.36,108.28v-.45c0-.8-.34-1.3-1.33-1.3a5.44,5.44,0,0,0-1.83.35l-.39-1.07a6.6,6.6,0,0,1,2.38-.43c2.06,0,2.55,1.08,2.55,2.48v2.83a.42.42,0,0,0,.47.47h.15v1a2.44,2.44,0,0,1-.8.13,1,1,0,0,1-1.07-.78h0a2.46,2.46,0,0,1-1.9.78,1.84,1.84,0,0,1-2.09-2c0-1.29,1.06-2,2.55-2ZM89,109.35a1,1,0,0,0-1.14,1,.89.89,0,0,0,1,.9,2,2,0,0,0,1.56-.83v-1.05Z"/><path class="b" d="M5.05,136.41c-2.75,0-3.83-2.09-3.83-4.76s1.08-4.76,3.83-4.76,3.83,2.09,3.83,4.76S7.8,136.41,5.05,136.41Zm0-8.25c-1.69,0-2.35,1.53-2.35,3.49s.66,3.49,2.35,3.49,2.35-1.54,2.35-3.49S6.74,128.16,5.05,128.16Z"/><path class="b" d="M9.94,129.53h5.71l-.26,1.15h-2v5.59H12.08v-5.59H9.94Z"/><path class="b" d="M16.11,129.53h5.71l-.26,1.15H19.61v5.59H18.25v-5.59H16.11Z"/><path class="b" d="M28.37,133.22H24.09c.1,1.31.78,2,2,2a3.76,3.76,0,0,0,1.68-.47l.45,1.05a5,5,0,0,1-2.26.57c-2,0-3.28-1.3-3.28-3.51s1.21-3.5,3-3.5a2.5,2.5,0,0,1,2.77,2.71A5.69,5.69,0,0,1,28.37,133.22Zm-4.22-1.07h3.11a1.44,1.44,0,0,0-1.52-1.6A1.6,1.6,0,0,0,24.15,132.15Z"/><path class="b" d="M35.62,136.27H34.24v-2.89H31.58v2.89H30.21v-6.74h1.37v2.7h2.66v-2.7h1.38Z"/><path class="b" d="M37.33,132.9c0-2.19,1.23-3.5,3.11-3.5s3.1,1.31,3.1,3.5-1.23,3.51-3.1,3.51S37.33,135.1,37.33,132.9Zm1.4,0c0,1.48.68,2.36,1.71,2.36s1.7-.88,1.7-2.36-.67-2.35-1.7-2.35S38.73,131.42,38.73,132.9Z"/><path class="b" d="M48.48,132.78l2.24,3.49-1.4.14-1.94-3.06h-.75v2.92H45.26v-6.74h1.37v2.73h.76l1.77-2.73h1.43Z"/><path class="b" d="M60.64,136.27H59.27v-5.59H56.72v5.59H55.34v-6.74h5.3Z"/><path class="b" d="M62.76,136.27v-6.74h1.37V134h.05l3.11-4.5h1.23v6.74H67.14v-4.49h0L64,136.27Z"/><path class="b" d="M73.86,132.78l2.23,3.49-1.4.14-1.94-3.06H72v2.92H70.63v-6.74H72v2.73h.75l1.77-2.73H76Z"/><path class="b" d="M76.49,129.53H82.2l-.27,1.15H80v5.59H78.63v-5.59H76.49Z"/><path class="b" d="M83.05,132.9c0-2.19,1.23-3.5,3.11-3.5s3.11,1.31,3.11,3.5-1.23,3.51-3.11,3.51S83.05,135.1,83.05,132.9Zm1.4,0c0,1.48.68,2.36,1.71,2.36s1.7-.88,1.7-2.36-.67-2.35-1.7-2.35S84.45,131.42,84.45,132.9Z"/><path class="b" d="M95.18,129.53l-.26,1.15H92.36v5.59H91v-6.74Z"/><path class="b" d="M97.68,138.92l-1.37.26v-9.65h1l.27.72h0a2.39,2.39,0,0,1,1.92-.85c1.9,0,2.72,1.49,2.72,3.5s-.83,3.51-2.84,3.51a4,4,0,0,1-1.72-.36Zm3.16-6c0-1.38-.56-2.35-1.72-2.35a1.92,1.92,0,0,0-1.44.83v3.4a2.48,2.48,0,0,0,1.49.48C100.22,135.26,100.84,134.4,100.84,132.9Z"/><path class="b" d="M107.41,132.31v-.45c0-.81-.35-1.31-1.34-1.31a5.21,5.21,0,0,0-1.82.36l-.4-1.07a6.65,6.65,0,0,1,2.38-.44c2.06,0,2.55,1.09,2.55,2.49v2.82a.43.43,0,0,0,.48.48h.14v1a2.38,2.38,0,0,1-.79.13,1,1,0,0,1-1.07-.78h-.05a2.46,2.46,0,0,1-1.91.78,1.83,1.83,0,0,1-2.08-2c0-1.28,1-2,2.55-2ZM106,133.38a1,1,0,0,0-1.13,1,.89.89,0,0,0,1,.9,2,2,0,0,0,1.56-.84v-1Z"/><path class="b" d="M115,135.18h-1.43l-1.32-3.68h-.06l-.38,4.77h-1.36l.65-6.74h1.57l1.59,4.31h0l1.59-4.31h1.57l.64,6.74h-1.36l-.38-4.77h0Z"/><path class="b" d="M124,135.18h-1.43l-1.32-3.68h0l-.38,4.77h-1.37l.65-6.74h1.58l1.58,4.31h0l1.59-4.31h1.57l.65,6.74h-1.36l-.38-4.77h-.06Z"/><path class="b" d="M130.2,132h1.2a2.12,2.12,0,0,1,2.41,2.16c0,1.36-.95,2.12-2.41,2.12h-2.57v-6.74h1.37Zm0,1.15v2h1.07c.7,0,1.14-.37,1.14-1s-.44-1-1.14-1Zm6,3.13H134.8v-6.74h1.37Z"/><path class="b" d="M145.17,132.31v-.45c0-.81-.34-1.31-1.33-1.31a5.27,5.27,0,0,0-1.83.36l-.39-1.07a6.61,6.61,0,0,1,2.38-.44c2.06,0,2.55,1.09,2.55,2.49v2.82a.43.43,0,0,0,.47.48h.15v1a2.42,2.42,0,0,1-.79.13,1,1,0,0,1-1.07-.78h-.06a2.46,2.46,0,0,1-1.9.78,1.84,1.84,0,0,1-2.09-2c0-1.28,1.06-2,2.55-2Zm-1.41,1.07a1,1,0,0,0-1.14,1,.89.89,0,0,0,1,.9,1.94,1.94,0,0,0,1.56-.84v-1Z"/><path class="b" d="M153.86,134.33c0,1.22-.77,1.94-2.3,1.94h-2.94v-6.74h2.72c1.35,0,2.24.51,2.24,1.72a1.5,1.5,0,0,1-1.15,1.44v0A1.67,1.67,0,0,1,153.86,134.33ZM150,130.68v1.54h1.08c.62,0,1.1-.2,1.1-.77s-.43-.77-1-.77Zm0,2.69v1.75h1.33c.7,0,1.12-.27,1.12-.87s-.46-.88-1.25-.88Z"/><path class="b" d="M154.78,129.53h5.71l-.26,1.15h-1.95v5.59h-1.36v-5.59h-2.14Z"/><path class="b" d="M161.35,132.9c0-2.19,1.23-3.5,3.1-3.5s3.11,1.31,3.11,3.5-1.23,3.51-3.11,3.51S161.35,135.1,161.35,132.9Zm1.4,0c0,1.48.67,2.36,1.7,2.36s1.71-.88,1.71-2.36-.68-2.35-1.71-2.35S162.75,131.42,162.75,132.9Z"/><path class="b" d="M172.45,128.05c-1.47.11-2.18.63-2.18,2.55h0a2.78,2.78,0,0,1,2.14-.87c1.65,0,2.79,1.1,2.79,3.35a3,3,0,0,1-3.19,3.33c-2.18,0-3.1-1.63-3.1-4.33,0-4.25,1.19-5,3.37-5.23a6.69,6.69,0,0,0,2.19-.49l.41,1.1A6.73,6.73,0,0,1,172.45,128.05Zm-.4,7.21c1,0,1.79-.72,1.79-2.18s-.69-2.2-1.63-2.2a2.24,2.24,0,0,0-1.89,1.15C170.32,134.19,170.86,135.26,172.05,135.26Z"/><path class="b" d="M177,137.86a2,2,0,0,0,.73.17c.3,0,.65-.14.83-.78l.29-1h-.49L176,129.53h1.51l1.74,5.17h.05l1.56-5.17h1.48l-2.59,8a2,2,0,0,1-1.94,1.61,3,3,0,0,1-1.16-.25Z"/><path class="b" d="M187.82,135l.42,1.05a4.47,4.47,0,0,1-1.85.39,3.19,3.19,0,0,1-3.29-3.51c0-1.94,1-3.5,3.22-3.5a4.8,4.8,0,0,1,1.85.36l-.42,1.06a3.39,3.39,0,0,0-1.35-.27c-1.13,0-1.9.95-1.9,2.35s.75,2.36,1.89,2.36A4,4,0,0,0,187.82,135Z"/><path class="b" d="M193.14,132.31v-.45c0-.81-.34-1.31-1.33-1.31a5.22,5.22,0,0,0-1.83.36l-.39-1.07a6.61,6.61,0,0,1,2.38-.44c2.06,0,2.55,1.09,2.55,2.49v2.82a.43.43,0,0,0,.47.48h.15v1a2.44,2.44,0,0,1-.8.13,1,1,0,0,1-1.07-.78h-.05a2.46,2.46,0,0,1-1.9.78,1.84,1.84,0,0,1-2.09-2c0-1.28,1.06-2,2.55-2Zm-1.41,1.07a1,1,0,0,0-1.14,1,.89.89,0,0,0,1,.9,1.94,1.94,0,0,0,1.56-.84v-1Z"/><path class="b" d="M5.05,160.43c-2.75,0-3.83-2.09-3.83-4.76s1.08-4.75,3.83-4.75,3.83,2.08,3.83,4.75S7.8,160.43,5.05,160.43Zm0-8.24c-1.69,0-2.35,1.53-2.35,3.48s.66,3.49,2.35,3.49,2.35-1.53,2.35-3.49S6.74,152.19,5.05,152.19Z"/><path class="b" d="M9.94,153.56h5.71l-.26,1.15h-2v5.59H12.08v-5.59H9.94Z"/><path class="b" d="M16.11,153.56h5.71l-.26,1.15H19.61v5.59H18.25v-5.59H16.11Z"/><path class="b" d="M28.37,157.25H24.09c.1,1.31.78,2,2,2a3.76,3.76,0,0,0,1.68-.46l.45,1a5,5,0,0,1-2.26.57c-2,0-3.28-1.29-3.28-3.5s1.21-3.5,3-3.5a2.5,2.5,0,0,1,2.77,2.71A5.69,5.69,0,0,1,28.37,157.25Zm-4.22-1.07h3.11a1.44,1.44,0,0,0-1.52-1.6A1.6,1.6,0,0,0,24.15,156.18Z"/><path class="b" d="M35.62,160.3H34.24v-2.89H31.58v2.89H30.21v-6.74h1.37v2.7h2.66v-2.7h1.38Z"/><path class="b" d="M37.33,156.93c0-2.19,1.23-3.5,3.11-3.5s3.1,1.31,3.1,3.5-1.23,3.5-3.1,3.5S37.33,159.12,37.33,156.93Zm1.4,0c0,1.48.68,2.35,1.71,2.35s1.7-.87,1.7-2.35-.67-2.35-1.7-2.35S38.73,155.45,38.73,156.93Z"/><path class="b" d="M48.48,156.81l2.24,3.49-1.4.13-1.94-3.05h-.75v2.92H45.26v-6.74h1.37v2.72h.76l1.77-2.72h1.43Z"/><path class="b" d="M60.64,160.3H59.27v-5.59H56.72v5.59H55.34v-6.74h5.3Z"/><path class="b" d="M62.76,160.3v-6.74h1.37v4.49h.05l3.11-4.49h1.23v6.74H67.14v-4.49h0L64,160.3Z"/><path class="b" d="M73.86,156.81l2.23,3.49-1.4.13-1.94-3.05H72v2.92H70.63v-6.74H72v2.72h.75l1.77-2.72H76Z"/><path class="b" d="M76.49,153.56H82.2l-.27,1.15H80v5.59H78.63v-5.59H76.49Z"/><path class="b" d="M83.05,156.93c0-2.19,1.23-3.5,3.11-3.5s3.11,1.31,3.11,3.5-1.23,3.5-3.11,3.5S83.05,159.12,83.05,156.93Zm1.4,0c0,1.48.68,2.35,1.71,2.35s1.7-.87,1.7-2.35-.67-2.35-1.7-2.35S84.45,155.45,84.45,156.93Z"/><path class="b" d="M95.18,153.56l-.26,1.15H92.36v5.59H91v-6.74Z"/><path class="b" d="M97.68,162.94l-1.37.27v-9.65h1l.27.71h0a2.41,2.41,0,0,1,1.92-.84c1.9,0,2.72,1.49,2.72,3.5s-.83,3.5-2.84,3.5a3.9,3.9,0,0,1-1.72-.36Zm3.16-6c0-1.39-.56-2.35-1.72-2.35a1.92,1.92,0,0,0-1.44.83v3.4a2.47,2.47,0,0,0,1.49.47C100.22,159.28,100.84,158.42,100.84,156.93Z"/><path class="b" d="M107.41,156.33v-.44c0-.81-.35-1.31-1.34-1.31a5.43,5.43,0,0,0-1.82.35l-.4-1.07a6.64,6.64,0,0,1,2.38-.43c2.06,0,2.55,1.08,2.55,2.48v2.83a.43.43,0,0,0,.48.48h.14v1a2.37,2.37,0,0,1-.79.14,1,1,0,0,1-1.07-.78h-.05a2.5,2.5,0,0,1-1.91.78,1.84,1.84,0,0,1-2.08-2c0-1.28,1-2,2.55-2ZM106,157.41a1,1,0,0,0-1.13,1,.89.89,0,0,0,1,.9,2,2,0,0,0,1.56-.83v-1Z"/><path class="b" d="M115,159.2h-1.43l-1.32-3.67h-.06l-.38,4.77h-1.36l.65-6.74h1.57l1.59,4.31h0l1.59-4.31h1.57l.64,6.74h-1.36l-.38-4.77h0Z"/><path class="b" d="M124,159.2h-1.43l-1.32-3.67h0l-.38,4.77h-1.37l.65-6.74h1.58l1.58,4.31h0l1.59-4.31h1.57l.65,6.74h-1.36l-.38-4.77h-.06Z"/><path class="b" d="M130.2,156h1.2a2.12,2.12,0,0,1,2.41,2.15c0,1.36-.95,2.13-2.41,2.13h-2.57v-6.74h1.37Zm0,1.15v2h1.07c.7,0,1.14-.37,1.14-1s-.44-1-1.14-1Zm6,3.13H134.8v-6.74h1.37Z"/><path class="b" d="M140.93,153.56h5.71l-.26,1.15h-1.95v5.59h-1.36v-5.59h-2.14Z"/><path class="b" d="M149.27,162.94l-1.38.27v-9.65h1l.27.71h.05a2.41,2.41,0,0,1,1.92-.84c1.9,0,2.72,1.49,2.72,3.5s-.83,3.5-2.84,3.5a3.9,3.9,0,0,1-1.72-.36Zm3.16-6c0-1.39-.56-2.35-1.72-2.35a1.92,1.92,0,0,0-1.44.83v3.4a2.47,2.47,0,0,0,1.49.47C151.81,159.28,152.43,158.42,152.43,156.93Z"/><path class="b" d="M155.15,156.93c0-2.19,1.23-3.5,3.11-3.5s3.1,1.31,3.1,3.5-1.23,3.5-3.1,3.5S155.15,159.12,155.15,156.93Zm1.4,0c0,1.48.67,2.35,1.71,2.35s1.7-.87,1.7-2.35-.67-2.35-1.7-2.35S156.55,155.45,156.55,156.93Z"/><path class="b" d="M162.54,159a.84.84,0,0,0,.45.13c.62,0,1-1.28,1-4.48v-1.12h4.51v6.74h-1.38v-5.59h-1.82V155c0,3.6-.65,5.37-2.17,5.37a1.47,1.47,0,0,1-.87-.24Z"/><path class="b" d="M170,159a.84.84,0,0,0,.45.13c.62,0,1-1.28,1-4.48v-1.12H176v6.74h-1.37v-5.59h-1.83V155c0,3.6-.65,5.37-2.17,5.37a1.47,1.47,0,0,1-.87-.24Z"/><path class="b" d="M183.36,157.25h-4.28a1.89,1.89,0,0,0,2,2,3.76,3.76,0,0,0,1.68-.46l.45,1a5,5,0,0,1-2.27.57c-2,0-3.27-1.29-3.27-3.5s1.21-3.5,3-3.5a2.5,2.5,0,0,1,2.77,2.71A5.69,5.69,0,0,1,183.36,157.25Zm-4.23-1.07h3.12a1.44,1.44,0,0,0-1.52-1.6A1.61,1.61,0,0,0,179.13,156.18Z"/><path class="b" d="M185.2,160.3v-6.74h1.37v4.49h.06l3.1-4.49H191v6.74h-1.37v-4.49h-.06l-3.1,4.49Zm5.06-9a2.54,2.54,0,0,1-4.36,0l.87-.58a1.47,1.47,0,0,0,1.31.86,1.43,1.43,0,0,0,1.3-.86Z"/><path class="b" d="M196.25,152.08c-1.47.11-2.18.62-2.18,2.55h0a2.75,2.75,0,0,1,2.14-.87c1.65,0,2.78,1.1,2.78,3.34a3,3,0,0,1-3.18,3.33c-2.18,0-3.11-1.62-3.11-4.32,0-4.26,1.19-5,3.37-5.23a7.25,7.25,0,0,0,2.2-.49l.41,1.09A7,7,0,0,1,196.25,152.08Zm-.4,7.2c1,0,1.78-.71,1.78-2.18s-.68-2.19-1.62-2.19a2.21,2.21,0,0,0-1.89,1.15C194.12,158.21,194.66,159.28,195.85,159.28Z"/><path class="b" d="M200.83,161.89a2.18,2.18,0,0,0,.73.17c.3,0,.65-.15.83-.78l.29-1h-.49l-2.36-6.74h1.5l1.75,5.17h0l1.56-5.17h1.48l-2.59,8a2,2,0,0,1-1.94,1.61,3.08,3.08,0,0,1-1.17-.25Z"/><path class="b" d="M211.61,159l.43,1.06a4.5,4.5,0,0,1-1.85.38,3.18,3.18,0,0,1-3.29-3.5c0-1.94,1-3.5,3.22-3.5a5,5,0,0,1,1.85.35l-.42,1.06a3.56,3.56,0,0,0-1.35-.26c-1.14,0-1.9.95-1.9,2.35s.75,2.35,1.89,2.35A3.72,3.72,0,0,0,211.61,159Z"/><path class="b" d="M216.94,156.33v-.44c0-.81-.34-1.31-1.33-1.31a5.44,5.44,0,0,0-1.83.35l-.39-1.07a6.59,6.59,0,0,1,2.37-.43c2.07,0,2.55,1.08,2.55,2.48v2.83a.43.43,0,0,0,.48.48h.15v1a2.43,2.43,0,0,1-.8.14,1,1,0,0,1-1.07-.78h0a2.49,2.49,0,0,1-1.9.78,1.84,1.84,0,0,1-2.09-2c0-1.28,1.06-2,2.55-2Zm-1.41,1.08a1,1,0,0,0-1.14,1,.89.89,0,0,0,1,.9,2,2,0,0,0,1.56-.83v-1Z"/><path class="b" d="M5.05,184.46c-2.75,0-3.83-2.09-3.83-4.76s1.08-4.76,3.83-4.76S8.88,177,8.88,179.7,7.8,184.46,5.05,184.46Zm0-8.25c-1.69,0-2.35,1.53-2.35,3.49s.66,3.49,2.35,3.49,2.35-1.53,2.35-3.49S6.74,176.21,5.05,176.21Z"/><path class="b" d="M9.94,177.59h5.71l-.26,1.15h-2v5.59H12.08v-5.59H9.94Z"/><path class="b" d="M16.11,177.59h5.71l-.26,1.15H19.61v5.59H18.25v-5.59H16.11Z"/><path class="b" d="M28.37,181.27H24.09c.1,1.31.78,2,2,2a3.76,3.76,0,0,0,1.68-.46l.45,1a5,5,0,0,1-2.26.57c-2,0-3.28-1.3-3.28-3.5s1.21-3.51,3-3.51a2.5,2.5,0,0,1,2.77,2.71A5.53,5.53,0,0,1,28.37,181.27Zm-4.22-1.07h3.11a1.44,1.44,0,0,0-1.52-1.6A1.6,1.6,0,0,0,24.15,180.2Z"/><path class="b" d="M35.62,184.33H34.24v-2.9H31.58v2.9H30.21v-6.74h1.37v2.69h2.66v-2.69h1.38Z"/><path class="b" d="M37.33,181c0-2.2,1.23-3.51,3.11-3.51s3.1,1.31,3.1,3.51-1.23,3.5-3.1,3.5S37.33,183.15,37.33,181Zm1.4,0c0,1.48.68,2.35,1.71,2.35s1.7-.87,1.7-2.35-.67-2.36-1.7-2.36S38.73,179.48,38.73,181Z"/><path class="b" d="M48.48,180.84l2.24,3.49-1.4.13-1.94-3.05h-.75v2.92H45.26v-6.74h1.37v2.72h.76l1.77-2.72h1.43Z"/><path class="b" d="M60.64,184.33H59.27v-5.59H56.72v5.59H55.34v-6.74h5.3Z"/><path class="b" d="M62.76,184.33v-6.74h1.37v4.49h.05l3.11-4.49h1.23v6.74H67.14v-4.5h0l-3.1,4.5Z"/><path class="b" d="M73.86,180.84l2.23,3.49-1.4.13-1.94-3.05H72v2.92H70.63v-6.74H72v2.72h.75l1.77-2.72H76Z"/><path class="b" d="M76.49,177.59H82.2l-.27,1.15H80v5.59H78.63v-5.59H76.49Z"/><path class="b" d="M83.05,181c0-2.2,1.23-3.51,3.11-3.51s3.11,1.31,3.11,3.51-1.23,3.5-3.11,3.5S83.05,183.15,83.05,181Zm1.4,0c0,1.48.68,2.35,1.71,2.35s1.7-.87,1.7-2.35-.67-2.36-1.7-2.36S84.45,179.48,84.45,181Z"/><path class="b" d="M95.18,177.59l-.26,1.15H92.36v5.59H91v-6.74Z"/><path class="b" d="M97.68,187l-1.37.26v-9.64h1l.27.71h0a2.39,2.39,0,0,1,1.92-.85c1.9,0,2.72,1.5,2.72,3.51s-.83,3.5-2.84,3.5a3.9,3.9,0,0,1-1.72-.36Zm3.16-6c0-1.39-.56-2.36-1.72-2.36a1.9,1.9,0,0,0-1.44.84v3.39a2.42,2.42,0,0,0,1.49.48C100.22,183.31,100.84,182.45,100.84,181Z"/><path class="b" d="M107.41,180.36v-.45c0-.8-.35-1.31-1.34-1.31a5.45,5.45,0,0,0-1.82.36l-.4-1.07a6.65,6.65,0,0,1,2.38-.44c2.06,0,2.55,1.09,2.55,2.49v2.83a.43.43,0,0,0,.48.47h.14v1a2.38,2.38,0,0,1-.79.13,1,1,0,0,1-1.07-.78h-.05a2.46,2.46,0,0,1-1.91.78,1.83,1.83,0,0,1-2.08-2c0-1.28,1-2,2.55-2ZM106,181.43a1,1,0,0,0-1.13,1,.89.89,0,0,0,1,.9,2,2,0,0,0,1.56-.83v-1Z"/><path class="b" d="M115,183.23h-1.43l-1.32-3.67h-.06l-.38,4.77h-1.36l.65-6.74h1.57l1.59,4.3h0l1.59-4.3h1.57l.64,6.74h-1.36l-.38-4.77h0Z"/><path class="b" d="M124,183.23h-1.43l-1.32-3.67h0l-.38,4.77h-1.37l.65-6.74h1.58l1.58,4.3h0l1.59-4.3h1.57l.65,6.74h-1.36l-.38-4.77h-.06Z"/><path class="b" d="M130.2,180h1.2a2.13,2.13,0,0,1,2.41,2.16c0,1.36-.95,2.13-2.41,2.13h-2.57v-6.74h1.37Zm0,1.15v2h1.07c.7,0,1.14-.37,1.14-1s-.44-1-1.14-1Zm6,3.14H134.8v-6.74h1.37Z"/><path class="b" d="M140.93,177.59h5.71l-.26,1.15h-1.95v5.59h-1.36v-5.59h-2.14Z"/><path class="b" d="M149.27,187l-1.38.26v-9.64h1l.27.71h.05a2.39,2.39,0,0,1,1.92-.85c1.9,0,2.72,1.5,2.72,3.51s-.83,3.5-2.84,3.5a3.9,3.9,0,0,1-1.72-.36Zm3.16-6c0-1.39-.56-2.36-1.72-2.36a1.9,1.9,0,0,0-1.44.84v3.39a2.42,2.42,0,0,0,1.49.48C151.81,183.31,152.43,182.45,152.43,181Z"/><path class="b" d="M159,180.36v-.45c0-.8-.35-1.31-1.34-1.31a5.4,5.4,0,0,0-1.82.36l-.4-1.07a6.61,6.61,0,0,1,2.38-.44c2.06,0,2.55,1.09,2.55,2.49v2.83a.43.43,0,0,0,.48.47H161v1a2.42,2.42,0,0,1-.79.13,1,1,0,0,1-1.07-.78h-.06a2.44,2.44,0,0,1-1.9.78,1.84,1.84,0,0,1-2.09-2c0-1.28,1.06-2,2.55-2Zm-1.42,1.07a1,1,0,0,0-1.14,1,.89.89,0,0,0,1,.9,2,2,0,0,0,1.56-.83v-1Z"/><path class="b" d="M166.59,183.23h-1.42l-1.33-3.67h-.05l-.38,4.77h-1.36l.65-6.74h1.57l1.58,4.3h.06l1.58-4.3h1.58l.64,6.74h-1.36l-.38-4.77h-.05Z"/><path class="b" d="M176.66,182.38c0,1.22-.76,2-2.3,2h-2.93v-6.74h2.72c1.35,0,2.24.5,2.24,1.71a1.51,1.51,0,0,1-1.15,1.44v0A1.68,1.68,0,0,1,176.66,182.38Zm-3.86-3.64v1.53h1.09c.62,0,1.1-.2,1.1-.77s-.43-.76-1-.76Zm0,2.68v1.76h1.34c.7,0,1.12-.28,1.12-.88s-.46-.88-1.25-.88Z"/><path class="b" d="M181.83,180.36v-.45c0-.8-.34-1.31-1.33-1.31a5.46,5.46,0,0,0-1.83.36l-.4-1.07a6.65,6.65,0,0,1,2.38-.44c2.07,0,2.55,1.09,2.55,2.49v2.83a.43.43,0,0,0,.48.47h.15v1a2.44,2.44,0,0,1-.8.13,1,1,0,0,1-1.07-.78h-.05a2.46,2.46,0,0,1-1.9.78,1.84,1.84,0,0,1-2.09-2c0-1.28,1.06-2,2.55-2Zm-1.41,1.07a1,1,0,0,0-1.14,1,.89.89,0,0,0,1,.9,2,2,0,0,0,1.56-.83v-1Z"/><path class="b" d="M186.31,181.7a2,2,0,0,1-1.24-2,2.08,2.08,0,0,1,2.34-2.14h2.65v6.74h-1.37v-2.45h-1.05l-1.45,2.45h-1.57Zm1.23-1h1.15v-2h-1.15a1,1,0,0,0-1.07,1A1,1,0,0,0,187.54,180.74Z"/><path class="b" d="M5.05,208.49c-2.75,0-3.83-2.09-3.83-4.76S2.3,199,5.05,199s3.83,2.09,3.83,4.76S7.8,208.49,5.05,208.49Zm0-8.25c-1.69,0-2.35,1.53-2.35,3.49s.66,3.49,2.35,3.49,2.35-1.54,2.35-3.49S6.74,200.24,5.05,200.24Z"/><path class="b" d="M9.94,201.61h5.71l-.26,1.15h-2v5.59H12.08v-5.59H9.94Z"/><path class="b" d="M16.11,201.61h5.71l-.26,1.15H19.61v5.59H18.25v-5.59H16.11Z"/><path class="b" d="M28.37,205.3H24.09c.1,1.31.78,2,2,2a3.76,3.76,0,0,0,1.68-.47l.45,1a5,5,0,0,1-2.26.57c-2,0-3.28-1.3-3.28-3.51s1.21-3.5,3-3.5a2.5,2.5,0,0,1,2.77,2.71A5.69,5.69,0,0,1,28.37,205.3Zm-4.22-1.07h3.11a1.44,1.44,0,0,0-1.52-1.6A1.6,1.6,0,0,0,24.15,204.23Z"/><path class="b" d="M35.62,208.35H34.24v-2.89H31.58v2.89H30.21v-6.74h1.37v2.7h2.66v-2.7h1.38Z"/><path class="b" d="M37.33,205c0-2.19,1.23-3.5,3.11-3.5s3.1,1.31,3.1,3.5-1.23,3.51-3.1,3.51S37.33,207.18,37.33,205Zm1.4,0c0,1.48.68,2.36,1.71,2.36s1.7-.88,1.7-2.36-.67-2.35-1.7-2.35S38.73,203.5,38.73,205Z"/><path class="b" d="M48.48,204.86l2.24,3.49-1.4.14-1.94-3.06h-.75v2.92H45.26v-6.74h1.37v2.72h.76l1.77-2.72h1.43Z"/><path class="b" d="M60.75,208.35H59.37v-2.89H56.72v2.89H55.34v-6.74h1.38v2.7h2.65v-2.7h1.38Z"/><path class="b" d="M66.31,204.39v-.45c0-.81-.34-1.31-1.33-1.31a5.22,5.22,0,0,0-1.83.36l-.39-1.07a6.61,6.61,0,0,1,2.38-.44c2.06,0,2.55,1.08,2.55,2.48v2.83a.43.43,0,0,0,.47.48h.15v1a2.44,2.44,0,0,1-.8.13,1,1,0,0,1-1.07-.78h0a2.46,2.46,0,0,1-1.9.78,1.85,1.85,0,0,1-2.09-2c0-1.28,1.06-2,2.55-2Zm-1.41,1.07a1,1,0,0,0-1.14,1,.89.89,0,0,0,1,.9,2,2,0,0,0,1.56-.84v-1Z"/><path class="b" d="M69.76,208.35v-6.74h1.38v4.5h0l3.1-4.5h1.23v6.74H74.15v-4.49h-.06L71,208.35Z"/><path class="b" d="M81.79,207.26H80.36L79,203.58H79l-.38,4.77H77.24l.65-6.74h1.57l1.59,4.31h0l1.58-4.31h1.58l.64,6.74H83.54l-.38-4.77h0Z"/><path class="b" d="M91.92,205.3H87.64c.09,1.31.78,2,2,2a3.76,3.76,0,0,0,1.68-.47l.45,1a4.91,4.91,0,0,1-2.26.57c-2,0-3.28-1.3-3.28-3.51s1.22-3.5,3-3.5A2.51,2.51,0,0,1,92,204.19,5.69,5.69,0,0,1,91.92,205.3Zm-4.23-1.07h3.12a1.44,1.44,0,0,0-1.52-1.6A1.62,1.62,0,0,0,87.69,204.23Z"/><path class="b" d="M99.16,208.35H97.79v-2.89H95.13v2.89H93.76v-6.74h1.37v2.7h2.66v-2.7h1.37Z"/><path class="b" d="M100.88,205c0-2.19,1.23-3.5,3.1-3.5s3.11,1.31,3.11,3.5-1.23,3.51-3.11,3.51S100.88,207.18,100.88,205Zm1.4,0c0,1.48.67,2.36,1.7,2.36s1.71-.88,1.71-2.36-.68-2.35-1.71-2.35S102.28,203.5,102.28,205Z"/><path class="b" d="M114,206.41c0,1.22-.77,1.94-2.3,1.94h-2.93v-6.74h2.72c1.35,0,2.23.5,2.23,1.72a1.5,1.5,0,0,1-1.15,1.44v0A1.67,1.67,0,0,1,114,206.41Zm-3.86-3.65v1.53h1.09c.62,0,1.09-.19,1.09-.76s-.42-.77-1-.77Zm0,2.69v1.75h1.34c.7,0,1.12-.28,1.12-.87s-.46-.88-1.26-.88Z"/><path class="b" d="M119.21,204.39v-.45c0-.81-.35-1.31-1.34-1.31a5.17,5.17,0,0,0-1.82.36l-.4-1.07a6.65,6.65,0,0,1,2.38-.44c2.06,0,2.55,1.08,2.55,2.48v2.83a.43.43,0,0,0,.48.48h.14v1a2.42,2.42,0,0,1-.79.13,1,1,0,0,1-1.07-.78h0a2.48,2.48,0,0,1-1.91.78,1.84,1.84,0,0,1-2.08-2c0-1.28,1-2,2.55-2Zm-1.42,1.07a1,1,0,0,0-1.13,1,.89.89,0,0,0,1,.9,2,2,0,0,0,1.56-.84v-1Z"/><path class="b" d="M128.06,208.35h-1.37v-2.89H124v2.89h-1.37v-6.74H124v2.7h2.66v-2.7h1.37Z"/><path class="b" d="M130.17,208.35v-6.74h1.38v4.5h0l3.11-4.5h1.23v6.74h-1.38v-4.49h-.05l-3.11,4.49Z"/><path class="b" d="M138.05,208.35v-6.74h1.37v4.5h.06l3.1-4.5h1.23v6.74h-1.37v-4.49h-.06l-3.1,4.49Zm5.06-9a2.37,2.37,0,0,1-2.18,1.24,2.41,2.41,0,0,1-2.18-1.24l.87-.58a1.45,1.45,0,0,0,1.31.86,1.41,1.41,0,0,0,1.3-.86Z"/><path class="b" d="M154.77,208.35h-1.38v-2.89h-2.65v2.89h-1.38v-6.74h1.38v2.7h2.65v-2.7h1.38Z"/><path class="b" d="M160.33,204.39v-.45c0-.81-.34-1.31-1.33-1.31a5.22,5.22,0,0,0-1.83.36l-.4-1.07a6.65,6.65,0,0,1,2.38-.44c2.06,0,2.55,1.08,2.55,2.48v2.83a.43.43,0,0,0,.48.48h.15v1a2.44,2.44,0,0,1-.8.13,1,1,0,0,1-1.07-.78h-.05a2.46,2.46,0,0,1-1.9.78,1.84,1.84,0,0,1-2.09-2c0-1.28,1.05-2,2.55-2Zm-1.41,1.07a1,1,0,0,0-1.14,1,.89.89,0,0,0,1,.9,2,2,0,0,0,1.56-.84v-1Z"/><path class="b" d="M168.59,211l-1.38.26v-9.65h1l.27.72h0a2.39,2.39,0,0,1,1.92-.85c1.9,0,2.72,1.49,2.72,3.5s-.83,3.51-2.84,3.51a4,4,0,0,1-1.72-.36Zm3.16-6c0-1.39-.56-2.35-1.72-2.35a1.9,1.9,0,0,0-1.44.83v3.4a2.48,2.48,0,0,0,1.49.48C171.13,207.34,171.75,206.48,171.75,205Z"/><path class="b" d="M174.88,209.94a2,2,0,0,0,.73.17c.3,0,.64-.15.83-.78l.29-1h-.49l-2.37-6.74h1.51l1.75,5.17h.05l1.56-5.17h1.48l-2.59,8a2,2,0,0,1-1.94,1.61,3,3,0,0,1-1.17-.25Z"/><path class="b" d="M185.66,207l.43,1.06a4.52,4.52,0,0,1-1.86.39,3.19,3.19,0,0,1-3.29-3.51c0-1.94,1.05-3.5,3.23-3.5a4.84,4.84,0,0,1,1.85.36l-.42,1a3.56,3.56,0,0,0-1.35-.26c-1.14,0-1.91,1-1.91,2.35s.76,2.36,1.89,2.36A3.78,3.78,0,0,0,185.66,207Z"/><path class="b" d="M191.86,207l.42,1.06a4.47,4.47,0,0,1-1.85.39,3.19,3.19,0,0,1-3.29-3.51c0-1.94,1.05-3.5,3.23-3.5a4.84,4.84,0,0,1,1.85.36l-.43,1a3.51,3.51,0,0,0-1.34-.26c-1.14,0-1.91,1-1.91,2.35s.76,2.36,1.89,2.36A3.78,3.78,0,0,0,191.86,207Z"/><path class="b" d="M197,204.86l2.23,3.49-1.4.14-1.94-3.06h-.74v2.92h-1.37v-6.74h1.37v2.72h.75l1.78-2.72h1.42Z"/><path class="b" d="M200,205c0-2.19,1.23-3.5,3.1-3.5s3.11,1.31,3.11,3.5-1.23,3.51-3.11,3.51S200,207.18,200,205Zm1.4,0c0,1.48.67,2.36,1.7,2.36s1.71-.88,1.71-2.36-.68-2.35-1.71-2.35S201.39,203.5,201.39,205Z"/><path class="b" d="M212.07,207.26h-1.43l-1.32-3.68h-.06l-.38,4.77h-1.36l.65-6.74h1.57l1.58,4.31h.06l1.58-4.31h1.58l.64,6.74h-1.36l-.38-4.77h-.05Z"/><path class="b" d="M5.05,232.51c-2.75,0-3.83-2.09-3.83-4.76S2.3,223,5.05,223s3.83,2.09,3.83,4.76S7.8,232.51,5.05,232.51Zm0-8.25c-1.69,0-2.35,1.54-2.35,3.49s.66,3.49,2.35,3.49,2.35-1.53,2.35-3.49S6.74,224.26,5.05,224.26Z"/><path class="b" d="M9.94,225.64h5.71l-.26,1.15h-2v5.59H12.08v-5.59H9.94Z"/><path class="b" d="M16.11,225.64h5.71l-.26,1.15H19.61v5.59H18.25v-5.59H16.11Z"/><path class="b" d="M28.37,229.33H24.09c.1,1.3.78,2,2,2a3.76,3.76,0,0,0,1.68-.46l.45,1a5,5,0,0,1-2.26.57c-2,0-3.28-1.29-3.28-3.5s1.21-3.5,3-3.5a2.5,2.5,0,0,1,2.77,2.71A5.69,5.69,0,0,1,28.37,229.33Zm-4.22-1.07h3.11a1.44,1.44,0,0,0-1.52-1.6A1.6,1.6,0,0,0,24.15,228.26Z"/><path class="b" d="M35.62,232.38H34.24v-2.9H31.58v2.9H30.21v-6.74h1.37v2.69h2.66v-2.69h1.38Z"/><path class="b" d="M37.33,229c0-2.2,1.23-3.5,3.11-3.5s3.1,1.3,3.1,3.5-1.23,3.5-3.1,3.5S37.33,231.2,37.33,229Zm1.4,0c0,1.48.68,2.35,1.71,2.35s1.7-.87,1.7-2.35-.67-2.35-1.7-2.35S38.73,227.53,38.73,229Z"/><path class="b" d="M48.48,228.89l2.24,3.49-1.4.13-1.94-3h-.75v2.92H45.26v-6.74h1.37v2.72h.76l1.77-2.72h1.43Z"/><path class="b" d="M60.75,232.38H59.37v-2.9H56.72v2.9H55.34v-6.74h1.38v2.69h2.65v-2.69h1.38Z"/><path class="b" d="M66.31,228.41V228c0-.8-.34-1.3-1.33-1.3a5.44,5.44,0,0,0-1.83.35l-.39-1.07a6.6,6.6,0,0,1,2.38-.43c2.06,0,2.55,1.08,2.55,2.48v2.83a.42.42,0,0,0,.47.47h.15v1a2.44,2.44,0,0,1-.8.13,1,1,0,0,1-1.07-.77h0a2.49,2.49,0,0,1-1.9.77,1.84,1.84,0,0,1-2.09-2c0-1.29,1.06-2,2.55-2Zm-1.41,1.07a1,1,0,0,0-1.14,1,.89.89,0,0,0,1,.9,2,2,0,0,0,1.56-.83v-1.05Z"/><path class="b" d="M69.76,232.38v-6.74h1.38v4.49h0l3.1-4.49h1.23v6.74H74.15v-4.49h-.06L71,232.38Z"/><path class="b" d="M81.79,231.28H80.36L79,227.61H79l-.38,4.77H77.24l.65-6.74h1.57L81.05,230h0l1.58-4.31h1.58l.64,6.74H83.54l-.38-4.77h0Z"/><path class="b" d="M91.92,229.33H87.64a1.89,1.89,0,0,0,2,2,3.76,3.76,0,0,0,1.68-.46l.45,1a4.91,4.91,0,0,1-2.26.57c-2,0-3.28-1.29-3.28-3.5s1.22-3.5,3-3.5A2.5,2.5,0,0,1,92,228.22,5.69,5.69,0,0,1,91.92,229.33Zm-4.23-1.07h3.12a1.44,1.44,0,0,0-1.52-1.6A1.61,1.61,0,0,0,87.69,228.26Z"/><path class="b" d="M99.16,232.38H97.79v-2.9H95.13v2.9H93.76v-6.74h1.37v2.69h2.66v-2.69h1.37Z"/><path class="b" d="M100.88,229c0-2.2,1.23-3.5,3.1-3.5s3.11,1.3,3.11,3.5-1.23,3.5-3.11,3.5S100.88,231.2,100.88,229Zm1.4,0c0,1.48.67,2.35,1.7,2.35s1.71-.87,1.71-2.35-.68-2.35-1.71-2.35S102.28,227.53,102.28,229Z"/><path class="b" d="M114,230.44c0,1.21-.77,1.94-2.3,1.94h-2.93v-6.74h2.72c1.35,0,2.23.5,2.23,1.72a1.52,1.52,0,0,1-1.15,1.44v0A1.66,1.66,0,0,1,114,230.44Zm-3.86-3.65v1.53h1.09c.62,0,1.09-.2,1.09-.77s-.42-.76-1-.76Zm0,2.68v1.76h1.34c.7,0,1.12-.28,1.12-.87s-.46-.89-1.26-.89Z"/><path class="b" d="M119.21,228.41V228c0-.8-.35-1.3-1.34-1.3a5.38,5.38,0,0,0-1.82.35l-.4-1.07a6.64,6.64,0,0,1,2.38-.43c2.06,0,2.55,1.08,2.55,2.48v2.83a.43.43,0,0,0,.48.47h.14v1a2.42,2.42,0,0,1-.79.13,1,1,0,0,1-1.07-.77h0a2.51,2.51,0,0,1-1.91.77,1.83,1.83,0,0,1-2.08-2c0-1.29,1-2,2.55-2Zm-1.42,1.07a1,1,0,0,0-1.13,1,.89.89,0,0,0,1,.9,2,2,0,0,0,1.56-.83v-1.05Z"/><path class="b" d="M128.06,232.38h-1.37v-2.9H124v2.9h-1.37v-6.74H124v2.69h2.66v-2.69h1.37Z"/><path class="b" d="M130.17,232.38v-6.74h1.38v4.49h0l3.11-4.49h1.23v6.74h-1.38v-4.49h-.05l-3.11,4.49Z"/><path class="b" d="M138.05,232.38v-6.74h1.37v4.49h.06l3.1-4.49h1.23v6.74h-1.37v-4.49h-.06l-3.1,4.49Zm5.06-9a2.54,2.54,0,0,1-4.36,0l.87-.58a1.47,1.47,0,0,0,1.31.86,1.41,1.41,0,0,0,1.3-.86Z"/><path class="b" d="M154.77,232.38h-1.38v-2.9h-2.65v2.9h-1.38v-6.74h1.38v2.69h2.65v-2.69h1.38Z"/><path class="b" d="M160.33,228.41V228c0-.8-.34-1.3-1.33-1.3a5.44,5.44,0,0,0-1.83.35l-.4-1.07a6.64,6.64,0,0,1,2.38-.43c2.06,0,2.55,1.08,2.55,2.48v2.83a.43.43,0,0,0,.48.47h.15v1a2.44,2.44,0,0,1-.8.13,1,1,0,0,1-1.07-.77h-.05a2.49,2.49,0,0,1-1.9.77,1.84,1.84,0,0,1-2.09-2c0-1.29,1.05-2,2.55-2Zm-1.41,1.07a1,1,0,0,0-1.14,1,.89.89,0,0,0,1,.9,2,2,0,0,0,1.56-.83v-1.05Z"/><path class="b" d="M170.66,228.41V228c0-.8-.34-1.3-1.33-1.3a5.38,5.38,0,0,0-1.82.35l-.4-1.07a6.6,6.6,0,0,1,2.38-.43c2.06,0,2.55,1.08,2.55,2.48v2.83a.42.42,0,0,0,.47.47h.15v1a2.42,2.42,0,0,1-.79.13,1,1,0,0,1-1.07-.77h-.06a2.49,2.49,0,0,1-1.9.77,1.84,1.84,0,0,1-2.09-2c0-1.29,1.06-2,2.55-2Zm-1.41,1.07a1,1,0,0,0-1.14,1,.89.89,0,0,0,1,.9,2,2,0,0,0,1.56-.83v-1.05Z"/><path class="b" d="M179.52,232.38h-1.38v-2.9h-2.65v2.9h-1.38v-6.74h1.38v2.69h2.65v-2.69h1.38Z"/><path class="b" d="M185.83,225.64l-.26,1.15H183v5.59h-1.38v-6.74Z"/><path class="b" d="M186.41,231.11a.89.89,0,0,0,.45.13c.63,0,1-1.28,1-4.48v-1.12h4.51v6.74H191v-5.59h-1.82v.29c0,3.59-.65,5.36-2.17,5.36a1.46,1.46,0,0,1-.87-.23Z"/><path class="b" d="M194.45,232.38v-6.74h1.37v4.49h.06l3.1-4.49h1.23v6.74h-1.37v-4.49h-.06l-3.1,4.49Z"/><path class="b" d="M202.32,232.38v-6.74h1.38v4.49h.05l3.11-4.49h1.23v6.74h-1.38v-4.49h-.05l-3.11,4.49Zm5.07-9a2.55,2.55,0,0,1-4.37,0l.88-.58a1.46,1.46,0,0,0,1.31.86,1.41,1.41,0,0,0,1.29-.86Z"/><path class="b" d="M214.52,231.07l.43,1.06a4.51,4.51,0,0,1-1.86.38,3.18,3.18,0,0,1-3.29-3.5c0-1.94,1-3.5,3.23-3.5a4.83,4.83,0,0,1,1.85.35l-.42,1.06a3.56,3.56,0,0,0-1.35-.26c-1.14,0-1.91,1-1.91,2.35s.76,2.35,1.89,2.35A4,4,0,0,0,214.52,231.07Z"/><path class="b" d="M219.62,228.89l2.24,3.49-1.4.13-2-3h-.74v2.92H216.4v-6.74h1.37v2.72h.76l1.77-2.72h1.42Z"/><path class="b" d="M222.65,229c0-2.2,1.23-3.5,3.1-3.5s3.11,1.3,3.11,3.5-1.23,3.5-3.11,3.5S222.65,231.2,222.65,229Zm1.4,0c0,1.48.67,2.35,1.7,2.35s1.71-.87,1.71-2.35-.68-2.35-1.71-2.35S224.05,227.53,224.05,229Z"/><path class="b" d="M234.73,231.28H233.3L232,227.61h-.06l-.38,4.77h-1.36l.65-6.74h1.57L234,230h0l1.59-4.31h1.57l.65,6.74h-1.37l-.38-4.77h0Z"/></g><g class="a"><path class="c" d="M95.56,110.63a.88.88,0,1,1-.87.88A.89.89,0,0,1,95.56,110.63Z"/><path class="c" d="M99.42,110.63a.88.88,0,1,1-.87.88A.88.88,0,0,1,99.42,110.63Z"/><path class="c" d="M103.28,110.63a.88.88,0,1,1-.87.88A.88.88,0,0,1,103.28,110.63Z"/><path class="c" d="M107.14,110.63a.88.88,0,1,1-.87.88A.89.89,0,0,1,107.14,110.63Z"/><path class="c" d="M111,110.63a.88.88,0,1,1-.88.88A.89.89,0,0,1,111,110.63Z"/><path class="c" d="M114.86,110.63a.88.88,0,1,1-.88.88A.89.89,0,0,1,114.86,110.63Z"/><path class="c" d="M118.71,110.63a.88.88,0,1,1-.87.88A.89.89,0,0,1,118.71,110.63Z"/><path class="c" d="M122.57,110.63a.88.88,0,1,1-.87.88A.88.88,0,0,1,122.57,110.63Z"/><path class="c" d="M126.43,110.63a.88.88,0,1,1-.87.88A.88.88,0,0,1,126.43,110.63Z"/><path class="c" d="M130.29,110.63a.88.88,0,1,1-.87.88A.89.89,0,0,1,130.29,110.63Z"/><path class="c" d="M134.15,110.63a.88.88,0,1,1-.88.88A.89.89,0,0,1,134.15,110.63Z"/><path class="c" d="M138,110.63a.88.88,0,1,1-.88.88A.89.89,0,0,1,138,110.63Z"/><path class="c" d="M141.86,110.63a.88.88,0,1,1-.87.88A.89.89,0,0,1,141.86,110.63Z"/><path class="c" d="M145.72,110.63a.88.88,0,1,1-.87.88A.88.88,0,0,1,145.72,110.63Z"/><path class="c" d="M149.58,110.63a.88.88,0,1,1-.87.88A.88.88,0,0,1,149.58,110.63Z"/><path class="c" d="M153.44,110.63a.88.88,0,1,1-.87.88A.89.89,0,0,1,153.44,110.63Z"/><path class="c" d="M157.3,110.63a.88.88,0,1,1-.88.88A.89.89,0,0,1,157.3,110.63Z"/><path class="c" d="M161.15,110.63a.88.88,0,1,1-.87.88A.89.89,0,0,1,161.15,110.63Z"/><path class="c" d="M165,110.63a.88.88,0,1,1-.87.88A.89.89,0,0,1,165,110.63Z"/><path class="c" d="M168.87,110.63a.88.88,0,1,1-.87.88A.88.88,0,0,1,168.87,110.63Z"/><path class="c" d="M172.73,110.63a.88.88,0,1,1-.87.88A.88.88,0,0,1,172.73,110.63Z"/><path class="c" d="M176.59,110.63a.88.88,0,1,1-.87.88A.89.89,0,0,1,176.59,110.63Z"/><path class="c" d="M180.45,110.63a.88.88,0,1,1-.88.88A.89.89,0,0,1,180.45,110.63Z"/><path class="c" d="M184.3,110.63a.88.88,0,1,1-.87.88A.89.89,0,0,1,184.3,110.63Z"/><path class="c" d="M188.16,110.63a.88.88,0,1,1-.87.88A.88.88,0,0,1,188.16,110.63Z"/><path class="c" d="M192,110.63a.88.88,0,1,1-.87.88A.88.88,0,0,1,192,110.63Z"/><path class="c" d="M195.88,110.63a.88.88,0,1,1-.87.88A.88.88,0,0,1,195.88,110.63Z"/><path class="c" d="M199.74,110.63a.88.88,0,1,1-.87.88A.89.89,0,0,1,199.74,110.63Z"/><path class="c" d="M203.6,110.63a.88.88,0,1,1-.88.88A.89.89,0,0,1,203.6,110.63Z"/><path class="c" d="M207.45,110.63a.88.88,0,1,1-.87.88A.89.89,0,0,1,207.45,110.63Z"/><path class="c" d="M211.31,110.63a.88.88,0,1,1-.87.88A.88.88,0,0,1,211.31,110.63Z"/><path class="c" d="M215.17,110.63a.88.88,0,1,1-.87.88A.88.88,0,0,1,215.17,110.63Z"/><path class="c" d="M219,110.63a.88.88,0,1,1-.87.88A.88.88,0,0,1,219,110.63Z"/><path class="c" d="M222.89,110.63a.88.88,0,1,1-.87.88A.89.89,0,0,1,222.89,110.63Z"/><path class="c" d="M226.75,110.63a.88.88,0,1,1-.88.88A.89.89,0,0,1,226.75,110.63Z"/><path class="c" d="M230.6,110.63a.88.88,0,1,1-.87.88A.89.89,0,0,1,230.6,110.63Z"/><path class="c" d="M234.46,110.63a.88.88,0,1,1-.87.88A.88.88,0,0,1,234.46,110.63Z"/><path class="c" d="M238.32,110.63a.88.88,0,1,1-.87.88A.88.88,0,0,1,238.32,110.63Z"/><path class="c" d="M242.18,110.63a.88.88,0,1,1-.87.88A.88.88,0,0,1,242.18,110.63Z"/><path class="c" d="M246,110.63a.88.88,0,1,1-.87.88A.89.89,0,0,1,246,110.63Z"/><path class="c" d="M249.9,110.63a.88.88,0,1,1-.88.88A.89.89,0,0,1,249.9,110.63Z"/><path class="c" d="M253.75,110.63a.88.88,0,1,1-.87.88A.89.89,0,0,1,253.75,110.63Z"/><path class="c" d="M257.61,110.63a.88.88,0,1,1-.87.88A.88.88,0,0,1,257.61,110.63Z"/><path class="c" d="M261.47,110.63a.88.88,0,1,1-.87.88A.88.88,0,0,1,261.47,110.63Z"/><path class="c" d="M265.33,110.63a.88.88,0,1,1-.87.88A.88.88,0,0,1,265.33,110.63Z"/><path class="c" d="M269.19,110.63a.88.88,0,1,1-.87.88A.89.89,0,0,1,269.19,110.63Z"/><path class="b" d="M278.41,105.74a2.5,2.5,0,0,1-1.91,2.6l2.42,3.91-1.55.13L275,108.47h-.82v3.78H272.7V103h2.82A2.65,2.65,0,0,1,278.41,105.74Zm-4.28-1.48v2.94h1.32a1.38,1.38,0,0,0,1.48-1.46,1.4,1.4,0,0,0-1.48-1.48Z"/><path class="b" d="M280.37,112.25l3.09-9.26h1.41l3.1,9.26h-1.52l-.66-2.16h-3.26l-.64,2.16Zm3.83-7.37h-.07l-1.23,4h2.52Z"/><path class="b" d="M290.21,112.25V103h1.43v8h4.19l-.27,1.27Z"/><path class="b" d="M305.38,108.18a2.39,2.39,0,0,1-1.68.56,2.58,2.58,0,0,1-2.65-2.9,2.86,2.86,0,0,1,3-3c1.86,0,3,1.26,3,3.4a6,6,0,0,1-4.59,6.12l-.5-1.09c1.58-.59,3-1.49,3.45-3.09Zm-1.32-4.05a1.71,1.71,0,0,0,0,3.41,1.78,1.78,0,0,0,1.6-1.15C305.66,105.07,305.08,104.13,304.06,104.13Z"/><path class="b" d="M311.62,112.38c-2,0-3.24-1.63-3.24-4.76s1.2-4.76,3.24-4.76,3.24,1.63,3.24,4.76S313.65,112.38,311.62,112.38Zm0-1.27c1.06,0,1.8-1,1.8-3.49s-.74-3.49-1.8-3.49-1.8,1-1.8,3.49S310.56,111.11,311.62,111.11Z"/><path class="b" d="M320.05,103v8h2.14v1.27h-5.95V111h2.42v-6.72h-2.22l.27-1.27Z"/><path class="b" d="M327.58,103v8h2.14v1.27h-6V111h2.42v-6.72H324l.27-1.27Z"/><path class="c" d="M199.74,134.66a.88.88,0,1,1-.87.87A.89.89,0,0,1,199.74,134.66Z"/><path class="c" d="M203.6,134.66a.88.88,0,1,1-.87.87A.88.88,0,0,1,203.6,134.66Z"/><path class="c" d="M207.46,134.66a.88.88,0,1,1-.87.87A.88.88,0,0,1,207.46,134.66Z"/><path class="c" d="M211.32,134.66a.88.88,0,1,1-.87.87A.88.88,0,0,1,211.32,134.66Z"/><path class="c" d="M215.18,134.66a.88.88,0,1,1-.88.87A.88.88,0,0,1,215.18,134.66Z"/><path class="c" d="M219,134.66a.88.88,0,1,1-.88.87A.88.88,0,0,1,219,134.66Z"/><path class="c" d="M222.89,134.66a.88.88,0,1,1-.87.87A.89.89,0,0,1,222.89,134.66Z"/><path class="c" d="M226.75,134.66a.88.88,0,1,1-.87.87A.88.88,0,0,1,226.75,134.66Z"/><path class="c" d="M230.61,134.66a.88.88,0,1,1-.87.87A.88.88,0,0,1,230.61,134.66Z"/><path class="c" d="M234.47,134.66a.88.88,0,1,1-.87.87A.88.88,0,0,1,234.47,134.66Z"/><path class="c" d="M238.33,134.66a.88.88,0,1,1-.88.87A.88.88,0,0,1,238.33,134.66Z"/><path class="c" d="M242.19,134.66a.88.88,0,1,1-.88.87A.88.88,0,0,1,242.19,134.66Z"/><path class="c" d="M246,134.66a.88.88,0,1,1-.87.87A.89.89,0,0,1,246,134.66Z"/><path class="c" d="M249.9,134.66a.88.88,0,1,1-.87.87A.88.88,0,0,1,249.9,134.66Z"/><path class="c" d="M253.76,134.66a.88.88,0,1,1-.87.87A.88.88,0,0,1,253.76,134.66Z"/><path class="c" d="M257.62,134.66a.88.88,0,1,1-.87.87A.88.88,0,0,1,257.62,134.66Z"/><path class="c" d="M261.48,134.66a.88.88,0,1,1-.88.87A.88.88,0,0,1,261.48,134.66Z"/><path class="c" d="M265.34,134.66a.88.88,0,1,1-.88.87A.88.88,0,0,1,265.34,134.66Z"/><path class="c" d="M269.19,134.66a.88.88,0,1,1-.87.87A.89.89,0,0,1,269.19,134.66Z"/><path class="b" d="M278.42,129.77a2.48,2.48,0,0,1-1.92,2.59l2.42,3.91-1.55.14L275,132.49h-.82v3.78h-1.43V127h2.81A2.66,2.66,0,0,1,278.42,129.77Zm-4.28-1.48v2.93h1.32a1.38,1.38,0,0,0,1.48-1.45,1.41,1.41,0,0,0-1.48-1.48Z"/><path class="b" d="M280.37,136.27l3.1-9.25h1.41l3.09,9.25h-1.52l-.66-2.15h-3.25l-.65,2.15Zm3.84-7.36h-.07l-1.23,4h2.51Z"/><path class="b" d="M290.22,136.27V127h1.43v8h4.19l-.27,1.27Z"/><path class="b" d="M302.8,131.16a2.39,2.39,0,0,1,1.68-.64,2.59,2.59,0,0,1,2.65,2.91,2.82,2.82,0,0,1-3,3c-1.86,0-3-1.41-3-3.48a6.08,6.08,0,0,1,4.73-6l.49,1.06a5.26,5.26,0,0,0-3.58,3.18Zm1.32,4a1.54,1.54,0,0,0,1.57-1.71,1.48,1.48,0,0,0-1.57-1.64,1.78,1.78,0,0,0-1.6,1.14C302.52,134.25,303.1,135.14,304.12,135.14Z"/><path class="b" d="M311.63,136.41c-2,0-3.24-1.63-3.24-4.76s1.2-4.76,3.24-4.76,3.23,1.62,3.23,4.76S313.66,136.41,311.63,136.41Zm0-1.27c1.05,0,1.79-1,1.79-3.49s-.74-3.49-1.79-3.49-1.8,1-1.8,3.49S310.57,135.14,311.63,135.14Z"/><path class="b" d="M321.93,133.42a2.87,2.87,0,0,1-3.13,3,4.67,4.67,0,0,1-2.68-.78l.67-1.11a3.28,3.28,0,0,0,1.92.62,1.72,1.72,0,1,0-.06-3.43H318V131l2-2.66v-.05h-3.53l.27-1.27h4.83v1.14l-1.89,2.51v0A2.5,2.5,0,0,1,321.93,133.42Z"/><path class="b" d="M323.71,133.76a2.61,2.61,0,0,1,1.54-2.32v0a2.35,2.35,0,0,1-1.24-2.11c0-1.48,1-2.4,2.68-2.4s2.68.92,2.68,2.4a2.35,2.35,0,0,1-1.24,2.12v0a2.59,2.59,0,0,1,1.53,2.31c0,1.67-1.16,2.65-3,2.65S323.71,135.43,323.71,133.76Zm2.54-1.82a2.08,2.08,0,0,0-1.16,1.82c0,1,.67,1.38,1.6,1.38s1.6-.47,1.6-1.38-.7-1.25-1.48-1.58Zm.37-1.18.43.17a2,2,0,0,0,.95-1.64,1.32,1.32,0,0,0-2.62,0C325.38,130.09,326,130.48,326.62,130.76Z"/><path class="c" d="M222.9,158.69a.87.87,0,1,1-.88.87A.88.88,0,0,1,222.9,158.69Z"/><path class="c" d="M226.75,158.69a.87.87,0,1,1-.87.87A.88.88,0,0,1,226.75,158.69Z"/><path class="c" d="M230.61,158.69a.87.87,0,1,1,0,1.74.87.87,0,0,1,0-1.74Z"/><path class="c" d="M234.47,158.69a.87.87,0,0,1,0,1.74.87.87,0,1,1,0-1.74Z"/><path class="c" d="M238.33,158.69a.87.87,0,1,1-.87.87A.88.88,0,0,1,238.33,158.69Z"/><path class="c" d="M242.19,158.69a.87.87,0,1,1-.88.87A.88.88,0,0,1,242.19,158.69Z"/><path class="c" d="M246.05,158.69a.87.87,0,1,1-.88.87A.88.88,0,0,1,246.05,158.69Z"/><path class="c" d="M249.9,158.69a.87.87,0,1,1-.87.87A.88.88,0,0,1,249.9,158.69Z"/><path class="c" d="M253.76,158.69a.87.87,0,0,1,0,1.74.87.87,0,0,1,0-1.74Z"/><path class="c" d="M257.62,158.69a.87.87,0,1,1-.87.87A.87.87,0,0,1,257.62,158.69Z"/><path class="c" d="M261.48,158.69a.87.87,0,1,1-.87.87A.88.88,0,0,1,261.48,158.69Z"/><path class="c" d="M265.34,158.69a.87.87,0,1,1-.88.87A.88.88,0,0,1,265.34,158.69Z"/><path class="c" d="M269.2,158.69a.87.87,0,1,1-.88.87A.88.88,0,0,1,269.2,158.69Z"/><path class="b" d="M278.42,153.8a2.5,2.5,0,0,1-1.92,2.59l2.42,3.91-1.54.13L275,156.52h-.82v3.78h-1.43v-9.25h2.81A2.66,2.66,0,0,1,278.42,153.8Zm-4.28-1.48v2.93h1.32a1.38,1.38,0,0,0,1.48-1.45,1.4,1.4,0,0,0-1.48-1.48Z"/><path class="b" d="M280.37,160.3l3.1-9.25h1.41L288,160.3h-1.51l-.67-2.16h-3.25l-.64,2.16Zm3.84-7.36h-.07l-1.23,4h2.51Z"/><path class="b" d="M290.22,160.3v-9.25h1.43v8h4.19l-.27,1.27Z"/><path class="b" d="M305.63,157.32a1.8,1.8,0,0,0-1.93-1.88,4.73,4.73,0,0,0-1.92.39v-4.78h4.94l-.26,1.27h-3.29v2a4.74,4.74,0,0,1,.82-.08,2.87,2.87,0,0,1,3.08,3.1,3,3,0,0,1-3.13,3.11,4.63,4.63,0,0,1-2.69-.78l.68-1.11a3.16,3.16,0,0,0,1.91.62A1.69,1.69,0,0,0,305.63,157.32Z"/><path class="b" d="M311.63,160.43c-2,0-3.24-1.62-3.24-4.76s1.2-4.75,3.24-4.75,3.23,1.62,3.23,4.75S313.66,160.43,311.63,160.43Zm0-1.27c1.05,0,1.79-1,1.79-3.49s-.74-3.49-1.79-3.49-1.8,1-1.8,3.49S310.57,159.16,311.63,159.16Z"/><path class="b" d="M320.06,151.05v8h2.14v1.27h-5.95V159h2.42v-6.71h-2.22l.26-1.27Z"/><path class="b" d="M325.83,159h3.77l-.27,1.27h-5.55v-1.14c1.81-1.36,4.11-3.76,4.11-5.54a1.26,1.26,0,0,0-1.37-1.44,3.58,3.58,0,0,0-1.95.63l-.63-1.12a5.35,5.35,0,0,1,2.83-.77,2.32,2.32,0,0,1,2.56,2.53c0,2-1.89,4.25-3.5,5.53Z"/><path class="c" d="M195.89,182.71a.88.88,0,1,1-.88.87A.88.88,0,0,1,195.89,182.71Z"/><path class="c" d="M199.74,182.71a.88.88,0,1,1-.87.87A.89.89,0,0,1,199.74,182.71Z"/><path class="c" d="M203.6,182.71a.88.88,0,1,1-.87.87A.88.88,0,0,1,203.6,182.71Z"/><path class="c" d="M207.46,182.71a.88.88,0,1,1-.87.87A.88.88,0,0,1,207.46,182.71Z"/><path class="c" d="M211.32,182.71a.88.88,0,1,1-.87.87A.88.88,0,0,1,211.32,182.71Z"/><path class="c" d="M215.18,182.71a.88.88,0,1,1-.88.87A.88.88,0,0,1,215.18,182.71Z"/><path class="c" d="M219,182.71a.88.88,0,1,1-.88.87A.88.88,0,0,1,219,182.71Z"/><path class="c" d="M222.89,182.71a.88.88,0,1,1-.87.87A.89.89,0,0,1,222.89,182.71Z"/><path class="c" d="M226.75,182.71a.88.88,0,1,1-.87.87A.88.88,0,0,1,226.75,182.71Z"/><path class="c" d="M230.61,182.71a.88.88,0,1,1-.87.87A.88.88,0,0,1,230.61,182.71Z"/><path class="c" d="M234.47,182.71a.88.88,0,1,1-.87.87A.88.88,0,0,1,234.47,182.71Z"/><path class="c" d="M238.33,182.71a.88.88,0,1,1-.88.87A.88.88,0,0,1,238.33,182.71Z"/><path class="c" d="M242.19,182.71a.88.88,0,1,1-.88.87A.88.88,0,0,1,242.19,182.71Z"/><path class="c" d="M246,182.71a.88.88,0,1,1-.87.87A.89.89,0,0,1,246,182.71Z"/><path class="c" d="M249.9,182.71a.88.88,0,1,1-.87.87A.88.88,0,0,1,249.9,182.71Z"/><path class="c" d="M253.76,182.71a.88.88,0,1,1-.87.87A.88.88,0,0,1,253.76,182.71Z"/><path class="c" d="M257.62,182.71a.88.88,0,1,1-.87.87A.88.88,0,0,1,257.62,182.71Z"/><path class="c" d="M261.48,182.71a.88.88,0,1,1-.88.87A.88.88,0,0,1,261.48,182.71Z"/><path class="c" d="M265.34,182.71a.88.88,0,1,1-.88.87A.88.88,0,0,1,265.34,182.71Z"/><path class="c" d="M269.19,182.71a.88.88,0,1,1-.87.87A.89.89,0,0,1,269.19,182.71Z"/><path class="b" d="M278.42,177.82a2.48,2.48,0,0,1-1.92,2.59l2.42,3.92-1.55.13L275,180.55h-.82v3.78h-1.43v-9.26h2.81A2.66,2.66,0,0,1,278.42,177.82Zm-4.28-1.48v2.94h1.32a1.39,1.39,0,0,0,1.48-1.46,1.41,1.41,0,0,0-1.48-1.48Z"/><path class="b" d="M280.37,184.33l3.1-9.26h1.41l3.09,9.26h-1.52l-.66-2.16h-3.25l-.65,2.16Zm3.84-7.37h-.07l-1.23,4h2.51Z"/><path class="b" d="M290.22,184.33v-9.26h1.43v8h4.18l-.26,1.27Z"/><path class="b" d="M303.23,183.06H307l-.26,1.27h-5.55v-1.14c1.81-1.36,4.11-3.77,4.11-5.54a1.27,1.27,0,0,0-1.38-1.44,3.62,3.62,0,0,0-1.94.62l-.64-1.11a5.28,5.28,0,0,1,2.83-.78,2.33,2.33,0,0,1,2.57,2.54c0,2-1.89,4.24-3.51,5.52Z"/><path class="b" d="M311.63,184.46c-2,0-3.24-1.63-3.24-4.76s1.2-4.76,3.24-4.76,3.23,1.63,3.23,4.76S313.66,184.46,311.63,184.46Zm0-1.27c1.05,0,1.79-1,1.79-3.49s-.74-3.49-1.79-3.49-1.8,1-1.8,3.49S310.57,183.19,311.63,183.19Z"/><path class="b" d="M319.16,184.46c-2,0-3.24-1.63-3.24-4.76s1.2-4.76,3.24-4.76,3.23,1.63,3.23,4.76S321.19,184.46,319.16,184.46Zm0-1.27c1,0,1.79-1,1.79-3.49s-.74-3.49-1.79-3.49-1.8,1-1.8,3.49S318.1,183.19,319.16,183.19Z"/><path class="b" d="M328.19,176.34h-4.54l.26-1.27h5.75v1.14l-3.22,8.12h-1.51Z"/><path class="c" d="M219,206.74a.87.87,0,1,1-.88.87A.88.88,0,0,1,219,206.74Z"/><path class="c" d="M222.9,206.74a.87.87,0,1,1-.88.87A.88.88,0,0,1,222.9,206.74Z"/><path class="c" d="M226.75,206.74a.87.87,0,1,1-.87.87A.89.89,0,0,1,226.75,206.74Z"/><path class="c" d="M230.61,206.74a.87.87,0,1,1-.87.87A.88.88,0,0,1,230.61,206.74Z"/><path class="c" d="M234.47,206.74a.87.87,0,1,1-.87.87A.88.88,0,0,1,234.47,206.74Z"/><path class="c" d="M238.33,206.74a.87.87,0,1,1,0,1.74.87.87,0,1,1,0-1.74Z"/><path class="c" d="M242.19,206.74a.87.87,0,1,1-.88.87A.88.88,0,0,1,242.19,206.74Z"/><path class="c" d="M246.05,206.74a.87.87,0,1,1-.88.87A.88.88,0,0,1,246.05,206.74Z"/><path class="c" d="M249.9,206.74a.87.87,0,1,1-.87.87A.89.89,0,0,1,249.9,206.74Z"/><path class="c" d="M253.76,206.74a.87.87,0,1,1-.87.87A.88.88,0,0,1,253.76,206.74Z"/><path class="c" d="M257.62,206.74a.87.87,0,1,1-.87.87A.88.88,0,0,1,257.62,206.74Z"/><path class="c" d="M261.48,206.74a.87.87,0,0,1,0,1.74.87.87,0,1,1,0-1.74Z"/><path class="c" d="M265.34,206.74a.87.87,0,1,1-.88.87A.88.88,0,0,1,265.34,206.74Z"/><path class="c" d="M269.2,206.74a.87.87,0,1,1-.88.87A.88.88,0,0,1,269.2,206.74Z"/><path class="b" d="M278.42,201.85a2.48,2.48,0,0,1-1.92,2.59l2.42,3.91-1.54.13L275,204.57h-.82v3.78h-1.43V199.1h2.81A2.66,2.66,0,0,1,278.42,201.85Zm-4.28-1.48v2.93h1.32a1.38,1.38,0,0,0,1.48-1.45,1.4,1.4,0,0,0-1.48-1.48Z"/><path class="b" d="M280.37,208.35l3.1-9.25h1.41l3.09,9.25h-1.51l-.67-2.15h-3.25l-.64,2.15Zm3.84-7.36h-.07l-1.23,4h2.51Z"/><path class="b" d="M290.22,208.35V199.1h1.43v8h4.19l-.27,1.27Z"/><path class="b" d="M305.39,204.28a2.35,2.35,0,0,1-1.68.57,2.58,2.58,0,0,1-2.65-2.91,2.85,2.85,0,0,1,3-3c1.86,0,3,1.25,3,3.39a6,6,0,0,1-4.59,6.12l-.5-1.08c1.57-.59,3-1.49,3.45-3.09Zm-1.32-4a1.71,1.71,0,0,0,0,3.41,1.8,1.8,0,0,0,1.6-1.15C305.67,201.18,305.09,200.24,304.07,200.24Z"/><path class="b" d="M311.63,208.48c-2,0-3.24-1.62-3.24-4.75s1.2-4.76,3.24-4.76,3.23,1.62,3.23,4.76S313.66,208.48,311.63,208.48Zm0-1.27c1.05,0,1.79-1,1.79-3.48s-.74-3.49-1.79-3.49-1.8,1-1.8,3.49S310.57,207.21,311.63,207.21Z"/><path class="b" d="M319.16,208.48c-2,0-3.24-1.62-3.24-4.75s1.2-4.76,3.24-4.76,3.24,1.62,3.24,4.76S321.19,208.48,319.16,208.48Zm0-1.27c1.06,0,1.8-1,1.8-3.48s-.74-3.49-1.8-3.49-1.8,1-1.8,3.49S318.1,207.21,319.16,207.21Z"/><path class="b" d="M329.46,205.5a2.86,2.86,0,0,1-3.13,3,4.6,4.6,0,0,1-2.68-.78l.67-1.11a3.21,3.21,0,0,0,1.92.62,1.59,1.59,0,0,0,1.78-1.7,1.61,1.61,0,0,0-1.83-1.72h-.69v-.71l2-2.66v0H324l.27-1.27h4.83v1.14l-1.89,2.51v0A2.49,2.49,0,0,1,329.46,205.5Z"/><path class="c" d="M242.19,230.77a.87.87,0,1,1-.87.87A.88.88,0,0,1,242.19,230.77Z"/><path class="c" d="M246.05,230.77a.87.87,0,1,1-.88.87A.88.88,0,0,1,246.05,230.77Z"/><path class="c" d="M249.91,230.77a.87.87,0,1,1-.88.87A.88.88,0,0,1,249.91,230.77Z"/><path class="c" d="M253.76,230.77a.87.87,0,1,1-.87.87A.88.88,0,0,1,253.76,230.77Z"/><path class="c" d="M257.62,230.77a.87.87,0,1,1-.87.87A.87.87,0,0,1,257.62,230.77Z"/><path class="c" d="M261.48,230.77a.87.87,0,1,1-.87.87A.88.88,0,0,1,261.48,230.77Z"/><path class="c" d="M265.34,230.77a.87.87,0,1,1-.87.87A.88.88,0,0,1,265.34,230.77Z"/><path class="c" d="M269.2,230.77a.87.87,0,1,1-.88.87A.88.88,0,0,1,269.2,230.77Z"/><path class="b" d="M278.42,225.88a2.5,2.5,0,0,1-1.92,2.59l2.42,3.91-1.54.13L275,228.6h-.82v3.78h-1.43v-9.25h2.82A2.64,2.64,0,0,1,278.42,225.88Zm-4.28-1.48v2.93h1.32a1.38,1.38,0,0,0,1.48-1.45,1.4,1.4,0,0,0-1.48-1.48Z"/><path class="b" d="M280.38,232.38l3.09-9.25h1.41l3.1,9.25h-1.52l-.67-2.16h-3.25l-.64,2.16Zm3.83-7.36h-.07l-1.23,4h2.52Z"/><path class="b" d="M290.22,232.38v-9.25h1.43v8h4.19l-.27,1.27Z"/><path class="b" d="M305.6,224.4h-4.54l.26-1.27h5.75v1.13l-3.23,8.12h-1.5Z"/><path class="b" d="M311.63,232.51c-2,0-3.24-1.63-3.24-4.76s1.2-4.76,3.24-4.76,3.24,1.63,3.24,4.76S313.66,232.51,311.63,232.51Zm0-1.27c1.05,0,1.79-1,1.79-3.49s-.74-3.49-1.79-3.49-1.8,1-1.8,3.49S310.57,231.24,311.63,231.24Z"/><path class="b" d="M321.93,229.52a2.86,2.86,0,0,1-3.13,3,4.6,4.6,0,0,1-2.68-.78l.67-1.11a3.21,3.21,0,0,0,1.92.62,1.71,1.71,0,1,0,0-3.42H318v-.72l2-2.65v0h-3.53l.27-1.27h4.83v1.13l-1.89,2.51v0A2.5,2.5,0,0,1,321.93,229.52Z"/><path class="b" d="M328.22,229.4a1.8,1.8,0,0,0-1.93-1.89,4.61,4.61,0,0,0-1.91.4v-4.78h4.94l-.26,1.27h-3.29v2a4.74,4.74,0,0,1,.82-.08,2.87,2.87,0,0,1,3.07,3.1,3,3,0,0,1-3.13,3.11,4.6,4.6,0,0,1-2.68-.78l.67-1.11a3.21,3.21,0,0,0,1.92.62A1.69,1.69,0,0,0,328.22,229.4Z"/></g><circle class="b" cx="341.46" cy="107.36" r="5.15"/><circle class="d" cx="341.46" cy="203.5" r="5.15"/><circle class="e" cx="341.46" cy="227.53" r="5.15"/><polygon class="f" points="1.24 0 347.06 0 347.06 25.74 1.24 25.74 1.24 0 1.24 0"/><polygon class="f" points="1.24 33.27 347.06 33.27 347.06 59.01 1.24 59.01 1.24 33.27 1.24 33.27"/><path class="b" d="M5.44,72.13H4.5L3.22,68.29h0L2.75,73h-1l.58-6.3h1.2L5,70.79H5l1.4-4.14h1.2L8.16,73h-1l-.43-4.66h0Z"/><path class="b" d="M11.77,70.25V70c0-.55-.24-.89-.91-.89a3.64,3.64,0,0,0-1.24.24l-.27-.73a4.44,4.44,0,0,1,1.62-.3c1.4,0,1.73.74,1.73,1.7v1.92a.3.3,0,0,0,.33.33h.1v.69a1.79,1.79,0,0,1-.54.09.7.7,0,0,1-.73-.53h0a1.67,1.67,0,0,1-1.29.53A1.26,1.26,0,0,1,9.1,71.63c0-.87.72-1.38,1.74-1.38Zm-1,.73a.68.68,0,0,0-.77.67.61.61,0,0,0,.68.61,1.31,1.31,0,0,0,1.06-.57V71Z"/><path class="b" d="M16.31,70.58,17.83,73l-.95.09L15.56,71h-.51v2h-.93V68.36h.93v1.86h.52l1.2-1.86h1Z"/><path class="b" d="M22.16,70.87H19.25c.06.9.53,1.39,1.36,1.39A2.55,2.55,0,0,0,21.75,72l.31.71a3.47,3.47,0,0,1-1.54.38,2.15,2.15,0,0,1-2.24-2.38c0-1.51.83-2.39,2.07-2.39a1.71,1.71,0,0,1,1.89,1.85A3.43,3.43,0,0,1,22.16,70.87Zm-2.88-.72h2.13a1,1,0,0,0-1-1.09A1.1,1.1,0,0,0,19.28,70.15Z"/><path class="b" d="M22.87,68.36h3.89l-.18.79H25.26V73h-.93v-3.8H22.87Z"/><path class="b" d="M33.05,74.76l-.93.17V73a3.48,3.48,0,0,1-.53,0c-1.4,0-1.9-1.06-1.9-2.38s.5-2.39,1.9-2.39a3.29,3.29,0,0,1,.53,0V66.38l.93-.18v2.12a3.29,3.29,0,0,1,.53,0c1.4,0,1.9,1.07,1.9,2.39S35,73,33.58,73a3.48,3.48,0,0,1-.53,0Zm-.92-5.66a1.54,1.54,0,0,0-.4,0c-.77,0-1.1.64-1.1,1.6s.33,1.6,1.1,1.6a2.25,2.25,0,0,0,.4,0ZM33,72.22a2.15,2.15,0,0,0,.4,0c.77,0,1.1-.65,1.1-1.6s-.33-1.6-1.1-1.6a1.54,1.54,0,0,0-.4,0Z"/><path class="b" d="M37.59,74.76l-.94.17V68.36h.67l.18.49h0a1.65,1.65,0,0,1,1.31-.58c1.3,0,1.85,1,1.85,2.39S40.13,73,38.76,73a2.74,2.74,0,0,1-1.17-.24Zm2.15-4.1c0-1-.38-1.6-1.17-1.6a1.29,1.29,0,0,0-1,.56v2.32a1.72,1.72,0,0,0,1,.32C39.32,72.26,39.74,71.68,39.74,70.66Z"/><path class="b" d="M41.86,73V68.36h.94v3.06h0L45,68.36h.84V73h-.94V69.89h0L42.7,73Z"/><path class="b" d="M49.35,70.51v0a1.14,1.14,0,0,1,1,1.09c0,.87-.64,1.41-1.92,1.41a4.24,4.24,0,0,1-1.54-.27l.29-.72a3.84,3.84,0,0,0,1.22.21c.58,0,1-.27,1-.65s-.24-.64-.92-.64h-.62v-.74h.55c.43,0,.79-.17.79-.58s-.34-.59-.77-.59a3.92,3.92,0,0,0-1.21.19l-.29-.72a4.71,4.71,0,0,1,1.52-.26c1.1,0,1.7.45,1.7,1.26A1,1,0,0,1,49.35,70.51Z"/><path class="b" d="M53.81,70.25V70c0-.55-.24-.89-.91-.89a3.64,3.64,0,0,0-1.24.24l-.27-.73a4.44,4.44,0,0,1,1.62-.3c1.4,0,1.73.74,1.73,1.7v1.92a.3.3,0,0,0,.33.33h.1v.69a1.79,1.79,0,0,1-.54.09.7.7,0,0,1-.73-.53h0a1.68,1.68,0,0,1-1.3.53,1.25,1.25,0,0,1-1.42-1.37c0-.87.72-1.38,1.74-1.38Zm-1,.73a.68.68,0,0,0-.77.67.61.61,0,0,0,.68.61,1.31,1.31,0,0,0,1.06-.57V71Z"/><path class="b" d="M56.48,71.86a.59.59,0,1,1,0,1.18.59.59,0,1,1,0-1.18Z"/><path class="b" d="M61.65,70.74V73h-1v-6.3h2a2,2,0,1,1,0,4.09Zm0-3.22v2.36h1a1.18,1.18,0,0,0,0-2.36Z"/><path class="b" d="M68,70.25V70c0-.55-.23-.89-.91-.89a3.68,3.68,0,0,0-1.24.24l-.27-.73a4.44,4.44,0,0,1,1.62-.3c1.4,0,1.74.74,1.74,1.7v1.92a.29.29,0,0,0,.32.33h.1v.69a1.74,1.74,0,0,1-.54.09.71.71,0,0,1-.73-.53h0a1.67,1.67,0,0,1-1.29.53,1.25,1.25,0,0,1-1.42-1.37c0-.87.72-1.38,1.73-1.38ZM67,71a.69.69,0,0,0-.78.67.61.61,0,0,0,.68.61A1.31,1.31,0,0,0,68,71.69V71Z"/><path class="b" d="M72.46,70.51v0a1.14,1.14,0,0,1,1,1.09c0,.87-.64,1.41-1.93,1.41A4.28,4.28,0,0,1,70,72.77l.29-.72a3.84,3.84,0,0,0,1.22.21c.59,0,1-.27,1-.65s-.24-.64-.92-.64H71v-.74h.55c.43,0,.79-.17.79-.58s-.34-.59-.77-.59a3.92,3.92,0,0,0-1.21.19L70,68.53a4.77,4.77,0,0,1,1.53-.26c1.09,0,1.7.45,1.7,1.26A1,1,0,0,1,72.46,70.51Z"/><path class="b" d="M77.4,72.21h-1l-.9-2.51h0L75.23,73H74.3l.44-4.59h1.07l1.08,2.94h0L78,68.36h1.07L79.52,73h-.93l-.26-3.25h0Z"/><path class="b" d="M84.3,70.87H81.38c.07.9.53,1.39,1.36,1.39A2.51,2.51,0,0,0,83.88,72l.31.71a3.4,3.4,0,0,1-1.54.38,2.14,2.14,0,0,1-2.23-2.38c0-1.51.83-2.39,2.07-2.39a1.71,1.71,0,0,1,1.89,1.85A4.17,4.17,0,0,1,84.3,70.87Zm-2.88-.72h2.12a1,1,0,0,0-1-1.09A1.1,1.1,0,0,0,81.42,70.15Z"/><path class="b" d="M86.49,74.76l-.94.17V68.36h.66l.19.49h0a1.65,1.65,0,0,1,1.31-.58c1.29,0,1.85,1,1.85,2.39S89,73,87.66,73a2.74,2.74,0,0,1-1.17-.24Zm2.15-4.1c0-1-.38-1.6-1.17-1.6a1.28,1.28,0,0,0-1,.56v2.32a1.69,1.69,0,0,0,1,.32C88.21,72.26,88.64,71.68,88.64,70.66Z"/><path class="b" d="M96.84,71a2,2,0,0,1-2.14,2,3.09,3.09,0,0,1-1.82-.53l.45-.75a2.2,2.2,0,0,0,1.31.42A1.09,1.09,0,0,0,95.86,71c0-.84-.54-1.17-1.26-1.17h-.46v-.49l1.35-1.81v0H93.08l.18-.87h3.3v.78l-1.29,1.71v0A1.71,1.71,0,0,1,96.84,71Z"/><path class="b" d="M100.08,73c-1.39,0-2.21-1.1-2.21-3.24s.82-3.24,2.21-3.24,2.2,1.11,2.2,3.24S101.46,73,100.08,73Zm0-.86c.72,0,1.22-.7,1.22-2.38s-.5-2.37-1.22-2.37-1.23.7-1.23,2.37S99.36,72.18,100.08,72.18Z"/><path class="b" d="M106.09,70.18a1.64,1.64,0,0,1-1.15.39,1.76,1.76,0,0,1-1.81-2,2,2,0,0,1,2.06-2c1.27,0,2,.86,2,2.32A4.05,4.05,0,0,1,104.11,73l-.34-.73a3.45,3.45,0,0,0,2.35-2.11Zm-.9-2.75a1.16,1.16,0,0,0,0,2.32,1.23,1.23,0,0,0,1.09-.78C106.28,68.07,105.88,67.43,105.19,67.43Z"/><path class="b" d="M110.34,73c-1.39,0-2.21-1.1-2.21-3.24s.82-3.24,2.21-3.24,2.2,1.11,2.2,3.24S111.72,73,110.34,73Zm0-.86c.72,0,1.22-.7,1.22-2.38s-.5-2.37-1.22-2.37-1.23.7-1.23,2.37S109.62,72.18,110.34,72.18Z"/><path class="b" d="M115.86,70.22l-1.56,1.56-.48-.48,1.56-1.56-1.56-1.56.48-.48,1.56,1.56,1.56-1.56.48.48-1.56,1.56,1.56,1.56-.48.48Z"/><path class="b" d="M120.81,72.09h2.57l-.18.86h-3.78v-.77c1.23-.93,2.8-2.57,2.8-3.77a.86.86,0,0,0-.94-1,2.43,2.43,0,0,0-1.32.42l-.43-.76a3.62,3.62,0,0,1,1.92-.53,1.58,1.58,0,0,1,1.75,1.73c0,1.39-1.29,2.89-2.39,3.76Z"/><path class="b" d="M128.42,71a2,2,0,0,1-2.14,2,3.09,3.09,0,0,1-1.82-.53l.46-.75a2.15,2.15,0,0,0,1.3.42,1.17,1.17,0,1,0,0-2.33h-.47v-.49l1.35-1.81v0h-2.41l.18-.87h3.3v.78l-1.29,1.71v0A1.71,1.71,0,0,1,128.42,71Z"/><path class="b" d="M131.66,73c-1.39,0-2.21-1.1-2.21-3.24s.82-3.24,2.21-3.24,2.2,1.11,2.2,3.24S133,73,131.66,73Zm0-.86c.72,0,1.22-.7,1.22-2.38s-.5-2.37-1.22-2.37-1.23.7-1.23,2.37S130.94,72.18,131.66,72.18Z"/><path class="b" d="M140.11,72.21h-1l-.9-2.51h0L137.94,73H137l.44-4.59h1.07l1.08,2.94h0l1.08-2.94h1.07l.44,4.59h-.92L141,69.7h0Z"/><path class="b" d="M146.23,72.21h-1l-.9-2.51h0L144.06,73h-.93l.44-4.59h1.07l1.08,2.94h0l1.08-2.94h1.07l.44,4.59h-.92l-.26-3.25h0Z"/><path class="g" d="M35,39.47h9.74a1.63,1.63,0,0,1,1.62,1.62c0,4.32,0,8.87,0,13H44.17V53H35.58v1.08H33.39c0-4.12,0-8.65,0-13A1.63,1.63,0,0,1,35,39.47Zm12.17,4.87h1.56v3.78H47.15V44.34ZM31,44.34h1.55v3.78H31V44.34Zm4.48,5.41a1.08,1.08,0,1,1-1.08,1.08,1.08,1.08,0,0,1,1.08-1.08ZM35,41h9.74v1.81H35V41Zm0,3.34h9.74v4.32H35V44.34Zm9.2,5.41a1.08,1.08,0,1,1-1.08,1.08,1.08,1.08,0,0,1,1.08-1.08Z"/><path class="g" d="M36.62,38l2.29-2.29,1.15,1.14-2.3,2.3L36.62,38Zm4.06,0L43,35.72l1.15,1.14-2.29,2.3L40.68,38Z"/><path class="h" d="M12.15,39.47h9.74a1.63,1.63,0,0,1,1.62,1.62c0,4.32,0,8.87,0,13h-2.2V53H12.75v1.08h-2.2c0-4.12,0-8.65,0-13a1.63,1.63,0,0,1,1.62-1.62Zm12.17,4.87h1.56v3.78H24.32V44.34Zm-16.11,0H9.76v3.78H8.21V44.34Zm4.48,5.41a1.08,1.08,0,1,1-1.08,1.08,1.08,1.08,0,0,1,1.08-1.08ZM12.15,41h9.74v1.81H12.15V41Zm0,3.34h9.74v4.32H12.15V44.34Zm9.2,5.41a1.08,1.08,0,1,1-1.09,1.08,1.08,1.08,0,0,1,1.09-1.08Z"/><path class="i" d="M174.13,45.8V36.9h6.55v8.9h-1.63V38.38h-3.29V45.8Z"/><path class="i" d="M185,40.75c0,3.38-.76,5.11-2.21,5.11a1.53,1.53,0,0,1-.89-.23l.39-1.26a.57.57,0,0,0,.32.08c.49,0,.88-.84.88-4.31v-.82H188V45.8h-1.57V40.68H185Z"/><path class="i" d="M189.54,42.56c0-2.11,1.25-3.37,3.05-3.37s3,1.26,3,3.37-1.24,3.37-3,3.37S189.54,44.67,189.54,42.56Zm1.6,0c0,1.26.61,2,1.45,2s1.45-.75,1.45-2-.61-2-1.45-2S191.14,41.3,191.14,42.56Z"/><path class="i" d="M202,44.44h1.66V39.32h1.57v5.12h1l-.25,3h-1.33V45.8h-7.48V39.32h1.57v5.12h1.67V39.32H202Z"/><path class="i" d="M210.5,41.55c0-.62-.31-1-1.09-1a5.3,5.3,0,0,0-1.73.34l-.47-1.27a6.56,6.56,0,0,1,2.35-.43c2,0,2.52,1,2.52,2.39V44a.41.41,0,0,0,.46.46h.14v1.23a2.88,2.88,0,0,1-.91.13,1.14,1.14,0,0,1-1.14-.62h0a2.18,2.18,0,0,1-1.7.62,1.77,1.77,0,0,1-2-1.93c0-1.25,1-1.94,2.43-1.94h1.2Zm0,2.38v-.74h-1.15c-.59,0-.92.29-.92.71a.65.65,0,0,0,.7.67A1.85,1.85,0,0,0,210.5,43.93Z"/><path class="i" d="M213.86,44.44c.64-1.13.81-2.23.81-4.41v-.71h4.45v5.12h1l-.25,3h-1.32V45.8h-4v1.61h-1.32l-.25-3Zm2.33-3.76a8.31,8.31,0,0,1-.65,3.76h2V40.68Z"/><path class="i" d="M224,41.63a2.06,2.06,0,0,1,2.32,2.1A2,2,0,0,1,224,45.8h-2.72V39.32h1.58v2.31Zm-1.14,1.31v1.5h1a.75.75,0,1,0,0-1.5Z"/><path class="i" d="M233.23,41.93h-.63V45.8H231V36.9h1.63v3.56h.66l2.3-3.56h1.82l-2.78,4.21,3.05,4.69-1.83.13Z"/><path class="i" d="M238,42.56c0-2.11,1.24-3.37,3.05-3.37s3,1.26,3,3.37-1.25,3.37-3,3.37S238,44.67,238,42.56Zm1.6,0c0,1.26.61,2,1.45,2s1.45-.75,1.45-2-.61-2-1.45-2S239.63,41.3,239.63,42.56Z"/><path class="i" d="M250.89,42h0l-1.13,2.79h-1.37L247.19,42h-.05l-.3,3.85h-1.57l.63-6.48h1.66L249,42.77h.05l1.44-3.45h1.66l.62,6.48h-1.56Z"/><path class="i" d="M259.54,42h-.05l-1.13,2.79H257L255.84,42h-.05l-.31,3.85h-1.56l.62-6.48h1.67l1.43,3.45h.06l1.43-3.45h1.67l.62,6.48h-1.56Z"/><path class="i" d="M266.54,39.32h1.68L265.73,47a1.92,1.92,0,0,1-1.93,1.55,3.34,3.34,0,0,1-1.18-.25l.43-1.27a1.88,1.88,0,0,0,.67.16c.21,0,.5-.1.64-.57l.25-.86h-.44L262,39.32h1.71l1.43,4.55h.05Z"/><path class="i" d="M274.5,45.8h-1.57V43.14h-2.18V45.8h-1.57V39.32h1.57v2.46h2.18V39.32h1.57Z"/><path class="i" d="M279.6,41.55c0-.62-.32-1-1.09-1a5.3,5.3,0,0,0-1.73.34l-.47-1.27a6.48,6.48,0,0,1,2.35-.43c2,0,2.52,1,2.52,2.39V44a.4.4,0,0,0,.45.46h.14v1.23a2.81,2.81,0,0,1-.9.13,1.14,1.14,0,0,1-1.14-.62h-.05a2.18,2.18,0,0,1-1.71.62,1.77,1.77,0,0,1-2-1.93c0-1.25,1-1.94,2.43-1.94h1.21Zm0,2.38v-.74h-1.16c-.58,0-.91.29-.91.71a.65.65,0,0,0,.7.67A1.85,1.85,0,0,0,279.6,43.93Z"/><path class="i" d="M284.55,39.87a2.42,2.42,0,0,1,1.67-.68c1.83,0,2.66,1.41,2.66,3.37s-.84,3.37-2.77,3.37a4.81,4.81,0,0,1-1.49-.23v2.64l-1.57.25V39.32h1.19l.26.55Zm2.73,2.69c0-1.19-.48-2-1.44-2a1.72,1.72,0,0,0-1.22.63v3a2.44,2.44,0,0,0,1.27.35C286.74,44.57,287.28,43.83,287.28,42.56Z"/><path class="i" d="M290,42.56c0-2.11,1.24-3.37,3.05-3.37s3.05,1.26,3.05,3.37-1.25,3.37-3.05,3.37S290,44.67,290,42.56Zm1.6,0c0,1.26.61,2,1.45,2s1.45-.75,1.45-2-.61-2-1.45-2S291.63,41.3,291.63,42.56Z"/><path class="i" d="M302.81,44c0,1.12-.73,1.82-2.21,1.82h-3V39.32h2.7c1.24,0,2.2.43,2.2,1.6a1.43,1.43,0,0,1-1.11,1.43v0A1.58,1.58,0,0,1,302.81,44Zm-3.58-3.3v1.14H300c.58,0,.91-.17.91-.57s-.4-.57-.91-.57Zm0,2.4v1.36h1c.6,0,.95-.22.95-.7s-.35-.66-.95-.66Z"/><path class="j" d="M176.74,55.56a6.31,6.31,0,0,1-1.28-2.44H175l-.41,2.36h-.81l.92-5.25h.82l-.39,2.18h.42l1.89-2.18h1l-2.26,2.59a5.91,5.91,0,0,0,1.58,2.66Z"/><path class="j" d="M180.28,51.58a1.34,1.34,0,0,1,1.45,1.51,2.25,2.25,0,0,1-2.15,2.47,1.32,1.32,0,0,1-1.45-1.51A2.24,2.24,0,0,1,180.28,51.58Zm-.59,3.33c.72,0,1.23-.78,1.23-1.77,0-.6-.26-.91-.76-.91-.72,0-1.23.78-1.23,1.76C178.93,54.6,179.2,54.91,179.69,54.91Z"/><path class="j" d="M187.74,52.61a2.9,2.9,0,0,1-.05.48l-.42,2.39h-.78l.41-2.34a2,2,0,0,0,0-.33c0-.4-.18-.58-.54-.58a1.34,1.34,0,0,0-.76.38l-.5,2.87h-.78l.41-2.34a1.5,1.5,0,0,0,0-.35c0-.38-.16-.56-.48-.56a1.31,1.31,0,0,0-.85.54L183,55.48h-.78l.67-3.82h.55l.09.4h0a1.48,1.48,0,0,1,1.08-.48c.47,0,.76.14.88.48a1.84,1.84,0,0,1,1.18-.48A.92.92,0,0,1,187.74,52.61Z"/><path class="j" d="M193.74,52.61a2.82,2.82,0,0,1,0,.48l-.42,2.39h-.78l.41-2.34a2,2,0,0,0,0-.33c0-.4-.18-.58-.54-.58a1.34,1.34,0,0,0-.76.38l-.5,2.87h-.78l.41-2.34a2.36,2.36,0,0,0,0-.35c0-.38-.16-.56-.48-.56a1.31,1.31,0,0,0-.85.54L189,55.48h-.78l.67-3.82h.55l.08.4h0a1.48,1.48,0,0,1,1.08-.48c.47,0,.76.14.88.48a1.84,1.84,0,0,1,1.18-.48A.91.91,0,0,1,193.74,52.61Z"/><path class="j" d="M195.25,54a2.26,2.26,0,0,0,0,.35.51.51,0,0,0,.57.58,1.61,1.61,0,0,0,1-.54l.48-2.71h.78l-.67,3.82h-.52l-.08-.4h0a1.89,1.89,0,0,1-1.27.48.93.93,0,0,1-1.07-1,2.93,2.93,0,0,1,0-.49l.41-2.38h.78Z"/><path class="j" d="M199.21,55.48h-.78l.67-3.82h.55l.08.4h0a1.6,1.6,0,0,1,1.15-.48.91.91,0,0,1,1,1,3,3,0,0,1-.05.49l-.42,2.38h-.78l.41-2.32a1.46,1.46,0,0,0,0-.35c0-.4-.17-.58-.53-.58a1.49,1.49,0,0,0-.94.54Z"/><path class="j" d="M206.15,51.87l-.64,3.61H205l-.08-.4h0a1.57,1.57,0,0,1-1.14.48c-.82,0-1.19-.59-1.19-1.51a2.24,2.24,0,0,1,2.15-2.47A4,4,0,0,1,206.15,51.87ZM203.36,54c0,.57.19.92.63.92a1.21,1.21,0,0,0,.94-.55l.35-2a1.8,1.8,0,0,0-.69-.14C203.87,52.23,203.36,53,203.36,54Z"/><path class="j" d="M209,52.38a.88.88,0,0,0-.38-.07c-.43,0-.77.43-.94.94l-.39,2.23h-.78l.67-3.82h.56l0,.59h0a1.24,1.24,0,0,1,1.1-.67,1.4,1.4,0,0,1,.47.08Z"/><path class="j" d="M211.5,51.58A1.34,1.34,0,0,1,213,53.09a2.25,2.25,0,0,1-2.15,2.47,1.32,1.32,0,0,1-1.45-1.51A2.24,2.24,0,0,1,211.5,51.58Zm-.59,3.33c.72,0,1.23-.78,1.23-1.77,0-.6-.26-.91-.75-.91-.73,0-1.24.78-1.24,1.76C210.15,54.6,210.42,54.91,210.91,54.91Z"/><path class="j" d="M213.51,51.66h.75l.44,3h0l1.47-3H217l-2,3.82h-.88Z"/><path class="j" d="M221.05,52.44c.58.26,1.28.71,1.28,1.49,0,1.06-.8,1.63-2.06,1.63a2.79,2.79,0,0,1-1.62-.47l.4-.66a2.25,2.25,0,0,0,1.34.41c.67,0,1.13-.27,1.13-.83s-.39-.68-.93-.93a1.65,1.65,0,0,1-1.19-1.42c0-1,.68-1.51,1.85-1.51a2.48,2.48,0,0,1,1.49.41l-.45.62a2.36,2.36,0,0,0-1.17-.3c-.55,0-.91.25-.91.69S220.67,52.26,221.05,52.44Z"/><path class="j" d="M222.89,54.05a2.28,2.28,0,0,1,2.2-2.47,4,4,0,0,1,1.53.3L225.71,57l-.8.15.35-2h0a1.5,1.5,0,0,1-1.08.44C223.3,55.56,222.89,55,222.89,54.05Zm2.51.32.35-2a2.51,2.51,0,0,0-.78-.14c-.72,0-1.28.78-1.28,1.76,0,.61.26.92.73.92A1.5,1.5,0,0,0,225.4,54.37Z"/><path class="j" d="M228.05,54a1.46,1.46,0,0,0,0,.35.51.51,0,0,0,.57.58,1.64,1.64,0,0,0,1-.54l.47-2.71h.78l-.66,3.82h-.52l-.09-.4h0a1.87,1.87,0,0,1-1.26.48.94.94,0,0,1-1.08-1,3,3,0,0,1,0-.49l.41-2.38h.78Z"/><path class="j" d="M234.93,51.87l-.63,3.61h-.52l-.08-.4h0a1.59,1.59,0,0,1-1.15.48c-.82,0-1.18-.59-1.18-1.51a2.24,2.24,0,0,1,2.15-2.47A3.88,3.88,0,0,1,234.93,51.87ZM232.14,54c0,.57.2.92.63.92a1.24,1.24,0,0,0,.95-.55l.34-2a1.8,1.8,0,0,0-.69-.14C232.65,52.23,232.14,53,232.14,54Z"/><path class="j" d="M237.79,52.38a.87.87,0,0,0-.37-.07c-.43,0-.78.43-.94.94l-.39,2.23h-.78l.66-3.82h.56l.05.59h0a1.24,1.24,0,0,1,1.09-.67,1.4,1.4,0,0,1,.47.08Z"/><path class="j" d="M238.13,54.05a2.24,2.24,0,0,1,2.14-2.47c.74,0,1.26.35,1.26,1s-.69,1.34-2.61,1.34c0,.6.19,1,.87,1a2,2,0,0,0,.9-.25l.23.58a2.8,2.8,0,0,1-1.32.32A1.35,1.35,0,0,1,238.13,54.05Zm.89-.78c1.44,0,1.72-.3,1.72-.63s-.23-.41-.56-.41A1.3,1.3,0,0,0,239,53.27Z"/><path class="i" d="M180,12a4.51,4.51,0,0,1-2.48.69c-2.64,0-3.81-2-3.81-4.58s1.17-4.58,3.81-4.58a4.55,4.55,0,0,1,2.33.58l-.65,1.31A3.64,3.64,0,0,0,177.56,5c-1.45,0-2.13,1.36-2.13,3.1s.68,3.1,2.13,3.1a3.6,3.6,0,0,0,1.82-.51Z"/><path class="i" d="M184.85,6.05h1.68L184,13.77a1.92,1.92,0,0,1-1.93,1.56,3.17,3.17,0,0,1-1.18-.26l.43-1.27A1.89,1.89,0,0,0,182,14c.2,0,.49-.11.63-.58l.26-.86h-.45L180.3,6.05H182l1.44,4.55h.05Z"/><path class="i" d="M189.5,7.48c0,3.38-.76,5.11-2.21,5.11a1.53,1.53,0,0,1-.89-.23l.39-1.25a.68.68,0,0,0,.32.07c.5,0,.88-.84.88-4.31V6.05h4.54v6.48H191V7.41H189.5Z"/><path class="i" d="M198.53,8.64h0l-2.62,3.89h-1.44V6.05H196V9.94h0l2.62-3.89h1.43v6.48h-1.57Z"/><path class="i" d="M207.25,8.68h-.05l-1.13,2.79h-1.38l-1.14-2.79h-.05l-.31,3.85h-1.56l.62-6.48h1.67l1.43,3.45h.06l1.43-3.45h1.67l.62,6.48h-1.56Z"/><path class="i" d="M210.28,9.29c0-2.11,1.24-3.37,3.05-3.37s3,1.26,3,3.37-1.25,3.37-3,3.37S210.28,11.4,210.28,9.29Zm1.6,0c0,1.26.61,2,1.45,2s1.44-.75,1.44-2-.6-2-1.44-2S211.88,8,211.88,9.29Z"/><path class="i" d="M223.06,10.71c0,1.12-.73,1.82-2.21,1.82H217.9V6.05h2.7c1.24,0,2.2.43,2.2,1.6a1.43,1.43,0,0,1-1.11,1.43v0A1.59,1.59,0,0,1,223.06,10.71Zm-3.58-3.3V8.55h.81c.58,0,.91-.16.91-.57s-.4-.57-.91-.57Zm0,2.4v1.36h1c.6,0,1-.22,1-.7s-.35-.66-1-.66Z"/><path class="i" d="M227.78,8.28c0-.62-.32-1-1.09-1a5.3,5.3,0,0,0-1.73.34l-.47-1.27a6.48,6.48,0,0,1,2.35-.43c2,0,2.52,1,2.52,2.39v2.47a.41.41,0,0,0,.45.45H230v1.24a3.16,3.16,0,0,1-.9.12,1.14,1.14,0,0,1-1.14-.62h0a2.18,2.18,0,0,1-1.71.62,1.77,1.77,0,0,1-2-1.93c0-1.25,1-1.94,2.42-1.94h1.21Zm0,2.38V9.92h-1.16c-.58,0-.91.3-.91.71a.65.65,0,0,0,.7.67A1.85,1.85,0,0,0,227.78,10.66Z"/><path class="j" d="M176,19.17c.58.26,1.28.71,1.28,1.49,0,1.06-.8,1.63-2.06,1.63a2.72,2.72,0,0,1-1.62-.47l.4-.66a2.25,2.25,0,0,0,1.34.41c.67,0,1.13-.27,1.13-.83s-.39-.68-.93-.93a1.65,1.65,0,0,1-1.19-1.42c0-1,.68-1.51,1.85-1.51a2.48,2.48,0,0,1,1.49.41l-.45.62a2.36,2.36,0,0,0-1.17-.3c-.55,0-.91.25-.91.69S175.63,19,176,19.17Z"/><path class="j" d="M178.76,20.71a2.26,2.26,0,0,0,0,.35.51.51,0,0,0,.57.58,1.61,1.61,0,0,0,1-.54l.48-2.71h.78l-.67,3.83h-.52l-.08-.41h0a1.89,1.89,0,0,1-1.27.48.93.93,0,0,1-1.07-1,2.93,2.93,0,0,1,0-.49l.41-2.38h.79Z"/><path class="j" d="M183.52,22.18a1.81,1.81,0,0,1-.65.11c-.54,0-.82-.23-.82-.74a2,2,0,0,1,0-.33l.79-4.49.81-.15-.82,4.64c0,.06,0,.1,0,.15a.24.24,0,0,0,.26.27.93.93,0,0,0,.34-.08Z"/><path class="j" d="M184.13,19l.26-.65h1.33l-.67,3.83h-.78l.56-3.18Zm1.4-2.24a.48.48,0,0,1,.48.48.47.47,0,0,1-.48.46.46.46,0,0,1-.48-.46A.47.47,0,0,1,185.53,16.8Z"/><path class="j" d="M191.64,19.34a2.82,2.82,0,0,1,0,.48l-.42,2.4h-.78l.41-2.35a2,2,0,0,0,0-.33c0-.4-.18-.58-.54-.58a1.34,1.34,0,0,0-.76.38l-.5,2.88h-.78l.41-2.35a2.26,2.26,0,0,0,0-.35c0-.38-.16-.56-.48-.56a1.29,1.29,0,0,0-.85.54l-.47,2.72h-.78l.67-3.83h.55l.08.4h0a1.5,1.5,0,0,1,1.09-.48c.47,0,.76.14.88.48a1.84,1.84,0,0,1,1.18-.48A.91.91,0,0,1,191.64,19.34Z"/><path class="j" d="M194.39,18.31a1.34,1.34,0,0,1,1.45,1.51,2.25,2.25,0,0,1-2.15,2.47,1.32,1.32,0,0,1-1.45-1.51A2.24,2.24,0,0,1,194.39,18.31Zm-.59,3.33c.72,0,1.23-.78,1.23-1.77,0-.6-.26-.91-.76-.91-.72,0-1.23.78-1.23,1.76C193,21.33,193.31,21.64,193.8,21.64Z"/><path class="j" d="M196.4,18.39h.75l.44,2.95h0l1.47-2.95h.78l-2,3.83H197Z"/><path class="j" d="M203.34,18.6l-.64,3.62h-.52l-.08-.41h0a1.59,1.59,0,0,1-1.14.48c-.83,0-1.19-.59-1.19-1.51a2.24,2.24,0,0,1,2.15-2.47A4,4,0,0,1,203.34,18.6Zm-2.8,2.12c0,.57.2.92.64.92a1.24,1.24,0,0,0,.94-.55l.35-2a1.84,1.84,0,0,0-.69-.14C201.06,19,200.54,19.74,200.54,20.72Z"/><path class="j" d="M207.9,19.17c.58.26,1.29.71,1.29,1.49,0,1.06-.8,1.63-2.07,1.63a2.71,2.71,0,0,1-1.61-.47l.4-.66a2.25,2.25,0,0,0,1.34.41c.67,0,1.13-.27,1.13-.83s-.39-.68-.93-.93a1.65,1.65,0,0,1-1.2-1.42c0-1,.69-1.51,1.86-1.51a2.5,2.5,0,0,1,1.49.41l-.46.62a2.29,2.29,0,0,0-1.16-.3c-.56,0-.92.25-.92.69S207.53,19,207.9,19.17Z"/><path class="j" d="M210.72,17.45l.81-.15-.2,1.09h1.16l-.26.65h-1l-.37,2.08a.71.71,0,0,0,0,.14c0,.28.18.38.43.38a1.55,1.55,0,0,0,.57-.11l.07.62a2.55,2.55,0,0,1-.84.14c-.6,0-1-.23-1-.88a2,2,0,0,1,0-.33l.36-2h-.65l.11-.65h.65Z"/><path class="j" d="M214.93,19.11a.8.8,0,0,0-.37-.07c-.43,0-.77.43-.94.94l-.39,2.24h-.78l.67-3.83h.55l.05.59h0a1.24,1.24,0,0,1,1.09-.67,1.46,1.46,0,0,1,.48.08Z"/><path class="j" d="M215.28,20.78a2.24,2.24,0,0,1,2.14-2.47c.73,0,1.25.35,1.25,1s-.68,1.34-2.6,1.34c0,.6.18,1,.86,1a2.08,2.08,0,0,0,.91-.25l.22.58a2.74,2.74,0,0,1-1.32.32A1.35,1.35,0,0,1,215.28,20.78Zm.88-.78c1.44,0,1.72-.3,1.72-.63s-.23-.41-.55-.41A1.32,1.32,0,0,0,216.16,20Z"/><path class="j" d="M219.08,20.78a2.24,2.24,0,0,1,2.14-2.47c.74,0,1.25.35,1.25,1s-.68,1.34-2.6,1.34c0,.6.19,1,.86,1a2,2,0,0,0,.91-.25l.23.58a2.81,2.81,0,0,1-1.33.32A1.35,1.35,0,0,1,219.08,20.78ZM220,20c1.44,0,1.72-.3,1.72-.63s-.24-.41-.56-.41A1.29,1.29,0,0,0,220,20Z"/><path class="j" d="M223.86,17.45l.8-.15-.19,1.09h1.15l-.26.65h-1L224,21.12a.78.78,0,0,0,0,.14c0,.28.18.38.44.38a1.5,1.5,0,0,0,.56-.11l.08.62a2.59,2.59,0,0,1-.84.14c-.61,0-1-.23-1-.88a2,2,0,0,1,0-.33l.36-2h-.65l.11-.65h.66Z"/><path class="k" d="M12.17,6.19h9.71A1.63,1.63,0,0,1,23.5,7.81v7L23,17.53a1.77,1.77,0,0,1-1.62,1.62H12.71a1.77,1.77,0,0,1-1.62-1.62l-.54-2.7v-7a1.63,1.63,0,0,1,1.62-1.62Zm12.12,4.86h1.55v3.78H24.29V11.05Zm-16.08,0H9.76v3.78H8.21V11.05Zm8.36,10.81,2.29-2.29L20,20.72,17.72,23l-1.15-1.15Zm-4.05,0,2.29-2.29L16,20.72,13.66,23l-1.14-1.15Zm.19-19.44h8.63V3.94H18.46L16.52,5.88,15.38,4.74l.79-.8H12.71V2.42Zm7,13.49a1.08,1.08,0,1,1,0,2.16,1.08,1.08,0,1,1,0-2.16Zm-5.39,0A1.08,1.08,0,1,1,13.25,17a1.08,1.08,0,0,1,1.08-1.08ZM12.17,7.77h9.71V9.52H12.17V7.77Zm0,3.33h9.71v3.73H12.17V11.1Z"/><path class="l" d="M338.37,151.07h6.15a1,1,0,0,1,1,1c0,2.73,0,5.61,0,8.2h-1.39v-.68h-5.42v.68h-1.38c0-2.6,0-5.47,0-8.2a1,1,0,0,1,1-1Zm7.69,3.07h1v2.39h-1v-2.39Zm-10.18,0h1v2.39h-1v-2.39Zm2.84,3.42a.69.69,0,1,1-.69.68.69.69,0,0,1,.69-.68Zm-.35-5.52h6.15v1.14h-6.15V152Zm0,2.1h6.15v2.74h-6.15v-2.74Zm5.81,3.42a.69.69,0,1,1-.68.68.68.68,0,0,1,.68-.68Z"/><path class="m" d="M338.37,127h6.15a1,1,0,0,1,1,1c0,2.73,0,5.61,0,8.2h-1.39v-.68h-5.42v.68h-1.38c0-2.6,0-5.47,0-8.2a1,1,0,0,1,1-1Zm7.69,3.07h1v2.39h-1V130Zm-10.18,0h1v2.39h-1V130Zm2.84,3.42a.68.68,0,0,1,.68.68.69.69,0,1,1-.68-.68Zm-.35-5.52h6.15v1.14h-6.15v-1.14Zm0,2.1h6.15v2.74h-6.15V130Zm5.81,3.42a.67.67,0,0,1,.68.68.68.68,0,1,1-1.36,0,.67.67,0,0,1,.68-.68Z"/><path class="n" d="M338.39,175.31h6.15a1,1,0,0,1,1,1v4.44l-.34,1.71c-.11.56-.46,1-1,1h-5.47c-.56,0-.91-.47-1-1l-.34-1.71v-4.44a1,1,0,0,1,1-1Zm7.67,3.07h1v2.39h-1v-2.39Zm-10.18,0h1v2.39h-1v-2.39Zm5.3,6.85,1.45-1.45.72.72L341.9,186l-.72-.72Zm-2.57,0,1.45-1.45.72.72L339.33,186l-.72-.72Zm.12-12.31h5.47v1h-1.83l-1.22,1.22-.73-.72.5-.5h-2.19v-1Zm4.44,8.54a.68.68,0,1,1-.68.68.67.67,0,0,1,.68-.68Zm-3.41,0a.68.68,0,1,1-.69.68.68.68,0,0,1,.69-.68Zm-1.37-5.15h6.15v1.11h-6.15v-1.11Zm0,2.11h6.15v2.35h-6.15v-2.35Z"/></svg>