<svg xmlns="http://www.w3.org/2000/svg" xmlns:xlink="http://www.w3.org/1999/xlink" viewBox="0 0 231.95 244.623"><defs><style>.a{opacity:0.5;}.b,.c{fill:none;stroke:#56617d;stroke-linecap:round;stroke-linejoin:round;}.b{stroke-width:2px;}.c{stroke-width:0.8px;}.d{fill:#56617d;opacity:0.35;}.e,.f,.g,.h{opacity:0.4;}.e{fill:url(#a);}.f{fill:url(#b);}.g{fill:url(#c);}.h{fill:url(#d);}.i,.j{fill:#fff;}.j{fill-rule:evenodd;}</style><linearGradient id="a" x1="30.371" y1="170.881" x2="108.731" y2="170.881" gradientUnits="userSpaceOnUse"><stop offset="0" stop-color="#fff"/><stop offset="0.137" stop-color="#fefefe" stop-opacity="0.978"/><stop offset="0.323" stop-color="#fcfcfc" stop-opacity="0.915"/><stop offset="0.535" stop-color="#f9f9f8" stop-opacity="0.813"/><stop offset="0.768" stop-color="#f5f4f2" stop-opacity="0.67"/><stop offset="1" stop-color="#f0efeb" stop-opacity="0.5"/></linearGradient><linearGradient id="b" x1="123.301" y1="121.916" x2="201.661" y2="121.916" gradientUnits="userSpaceOnUse"><stop offset="0" stop-color="#fff"/><stop offset="0.139" stop-color="#fefefd" stop-opacity="0.961"/><stop offset="0.381" stop-color="#fbfaf9" stop-opacity="0.856"/><stop offset="0.696" stop-color="#f6f5f2" stop-opacity="0.686"/><stop offset="1" stop-color="#f0efeb" stop-opacity="0.5"/></linearGradient><linearGradient id="c" x1="30.371" y1="121.541" x2="108.731" y2="121.541" xlink:href="#a"/><linearGradient id="d" x1="123.301" y1="45.301" x2="192.741" y2="45.301" xlink:href="#b"/></defs><g class="a"><rect class="b" x="22.942" y="1" width="187.118" height="235.073"/><rect class="c" x="123.356" y="10.403" width="78.363" height="216.033"/><rect class="c" x="30.424" y="10.403" width="78.363" height="216.033"/><line class="c" x1="116.268" y1="1" x2="116.268" y2="236.073"/><rect class="c" x="119.372" y="37.436" width="1.801" height="156.559"/><rect class="c" x="111.627" y="37.436" width="1.801" height="156.559"/><line class="c" x1="0.4" y1="236.073" x2="231.55" y2="236.073"/><line class="c" x1="0.4" y1="244.223" x2="231.55" y2="244.223"/></g><rect class="d" x="123.356" y="10.524" width="78.363" height="215.911"/><rect class="d" x="30.424" y="10.524" width="78.363" height="215.911"/><polygon class="e" points="30.371 193.631 108.731 115.271 108.731 226.491 30.371 226.491 30.371 193.631"/><polygon class="f" points="201.661 22.341 201.661 143.141 123.301 221.491 123.301 100.701 201.661 22.341"/><polygon class="g" points="30.371 148.501 108.731 70.141 108.731 94.591 30.371 172.941 30.371 148.501"/><polygon class="h" points="192.741 10.581 123.301 80.021 123.301 55.571 168.291 10.581 192.741 10.581"/><path class="i" d="M155.431,85.159l1.611,2.286-.769.062-1.431-2.02h-.322v1.958h-.669V83.109h.669v1.809h.341l1.288-1.809h.763Z"/><path class="i" d="M157.413,85.865a1.467,1.467,0,1,1,1.456,1.642A1.445,1.445,0,0,1,157.413,85.865Zm.657,0c0,.7.315,1.1.8,1.1s.8-.409.8-1.1-.316-1.1-.8-1.1S158.07,85.172,158.07,85.865Z"/><path class="i" d="M163.261,88.685l-.644.124V87.477a2.657,2.657,0,0,1-.365.03c-.961,0-1.308-.731-1.308-1.642s.347-1.641,1.308-1.641a2.35,2.35,0,0,1,.365.031V82.923l.644-.124v1.456a2.353,2.353,0,0,1,.366-.031c.96,0,1.307.731,1.307,1.641s-.347,1.642-1.307,1.642a2.659,2.659,0,0,1-.366-.03Zm-.631-3.891a1.239,1.239,0,0,0-.28-.031c-.532,0-.756.446-.756,1.1s.224,1.1.756,1.1a1.281,1.281,0,0,0,.28-.031Zm.619,2.144a1.222,1.222,0,0,0,.279.031c.532,0,.755-.446.755-1.1s-.223-1.1-.755-1.1a1.222,1.222,0,0,0-.279.031Z"/><path class="i" d="M168.223,86.015h-2.007a.889.889,0,0,0,.936.954,1.763,1.763,0,0,0,.787-.217l.21.489a2.308,2.308,0,0,1-1.06.266,1.475,1.475,0,0,1-1.536-1.642c0-1.04.571-1.641,1.425-1.641a1.175,1.175,0,0,1,1.3,1.27A2.693,2.693,0,0,1,168.223,86.015Zm-1.982-.5H167.7a.674.674,0,0,0-.712-.75A.756.756,0,0,0,166.241,85.513Z"/><path class="i" d="M169.085,87.445V84.286h.643v2.107h.026l1.455-2.107h.576v3.159h-.644V85.339h-.025l-1.456,2.106Zm2.372-4.218a1.188,1.188,0,0,1-2.044,0l.408-.273a.682.682,0,0,0,.613.4.662.662,0,0,0,.608-.4Z"/><path class="i" d="M175.31,87.445h-.644V86.089h-1.245v1.356h-.645V84.286h.645V85.55h1.245V84.286h.644Z"/><path class="i" d="M176.785,86.213a.924.924,0,0,1-.582-.924.977.977,0,0,1,1.1-1h1.246v3.159H177.9V86.3h-.489l-.682,1.146h-.737Zm.576-.446h.539v-.942h-.539a.463.463,0,0,0-.5.477A.453.453,0,0,0,177.361,85.767Z"/><path class="j" d="M144.9,87.823h5.867v.791H144.9Zm4.749-1.349h.28a.746.746,0,0,0,0-1.492h-.28Zm-3.3-3.12c0-1.294,1.117-1.385,1.117-2.235h.79c0,1.294-1.117,1.385-1.117,2.235Zm3.584.838a1.537,1.537,0,0,1,0,3.073h-3.353a1.121,1.121,0,0,1-1.117-1.118V84.192h2.235c0-1.294,1.117-1.385,1.117-2.235h.791c0,1.3-1.118,1.389-1.118,2.235Z"/><path class="i" d="M145.3,95.9l.179.448a1.887,1.887,0,0,1-.783.162,1.348,1.348,0,0,1-1.4-1.483,1.329,1.329,0,0,1,1.367-1.485,2.058,2.058,0,0,1,.784.152l-.18.448a1.45,1.45,0,0,0-.571-.113c-.482,0-.806.4-.806,1s.319,1,.8,1A1.63,1.63,0,0,0,145.3,95.9Z"/><path class="i" d="M147.4,95.387a1.11,1.11,0,0,1,.65-.986v-.016a.988.988,0,0,1-.526-.891,1.138,1.138,0,1,1,1.747.9v.016a1.169,1.169,0,1,1-1.871.98Zm1.075-.773a.88.88,0,0,0-.492.773c0,.409.285.583.678.583s.676-.2.676-.583c0-.336-.3-.531-.627-.672Zm.157-.5.179.073a.828.828,0,0,0,.4-.695.56.56,0,0,0-1.108,0C148.109,93.83,148.35,94,148.635,94.116Z"/><path class="i" d="M150.878,93.539a.37.37,0,1,1-.37.37A.373.373,0,0,1,150.878,93.539Zm0,2.229a.37.37,0,1,1-.37.37A.373.373,0,0,1,150.878,95.768Z"/><path class="i" d="M153.094,96.507c-.862,0-1.372-.689-1.372-2.016s.51-2.015,1.372-2.015,1.372.688,1.372,2.015S153.957,96.507,153.094,96.507Zm0-.537c.448,0,.762-.437.762-1.479s-.314-1.478-.762-1.478-.761.436-.761,1.478S152.646,95.97,153.094,95.97Z"/><path class="i" d="M156.226,96.507c-.862,0-1.372-.689-1.372-2.016s.51-2.015,1.372-2.015,1.372.688,1.372,2.015S157.088,96.507,156.226,96.507Zm0-.537c.447,0,.761-.437.761-1.479s-.314-1.478-.761-1.478-.762.436-.762,1.478S155.778,95.97,156.226,95.97Z"/><path class="i" d="M159.654,95.964a3.729,3.729,0,0,0,.386-2.055V93.6h1.876v2.369h.454l-.113,1.2h-.47v-.711h-1.932v.711h-.471l-.111-1.2Zm.969-1.8a4.2,4.2,0,0,1-.348,1.8h1.059V94.082h-.711Z"/><path class="i" d="M162.73,95.024a1.325,1.325,0,1,1,1.316,1.483A1.307,1.307,0,0,1,162.73,95.024Zm.594,0c0,.627.285,1,.722,1s.722-.369.722-1-.285-1-.722-1S163.324,94.4,163.324,95.024Z"/><path class="i" d="M169.069,92.531v3.383h.907v.537h-2.519v-.537h1.024V93.068h-.94l.111-.537Z"/><path class="i" d="M170.533,95.387a1.11,1.11,0,0,1,.65-.986v-.016a.988.988,0,0,1-.526-.891,1.138,1.138,0,1,1,1.747.9v.016a1.169,1.169,0,1,1-1.871.98Zm1.075-.773a.88.88,0,0,0-.492.773c0,.409.285.583.678.583s.676-.2.676-.583c0-.336-.3-.531-.627-.672Zm.157-.5.179.073a.828.828,0,0,0,.4-.695.56.56,0,0,0-1.108,0C171.239,93.83,171.479,94,171.765,94.116Z"/><path class="i" d="M174.006,93.539a.37.37,0,1,1-.369.37A.373.373,0,0,1,174.006,93.539Zm0,2.229a.37.37,0,1,1-.369.37A.373.373,0,0,1,174.006,95.768Z"/><path class="i" d="M176.223,96.507c-.862,0-1.372-.689-1.372-2.016s.51-2.015,1.372-2.015,1.372.688,1.372,2.015S177.086,96.507,176.223,96.507Zm0-.537c.448,0,.762-.437.762-1.479s-.314-1.478-.762-1.478-.761.436-.761,1.478S175.775,95.97,176.223,95.97Z"/><path class="i" d="M179.356,96.507c-.862,0-1.372-.689-1.372-2.016s.51-2.015,1.372-2.015,1.372.688,1.372,2.015S180.218,96.507,179.356,96.507Zm0-.537c.447,0,.762-.437.762-1.479s-.315-1.478-.762-1.478-.762.436-.762,1.478S178.908,95.97,179.356,95.97Z"/></svg>