<svg width="1800" height="512" viewBox="0 0 1800 512" fill="none" xmlns="http://www.w3.org/2000/svg">
<path fill-rule="evenodd" clip-rule="evenodd" d="M14.5923 347.63H181.824V406.518L92.3161 443.18H14.5923V347.63ZM372.964 248.503H479.578V106.717H372.964V248.503Z" fill="#12AB33"/>
<path d="M263.091 106.722V240.565C263.091 296.685 299.576 318.994 334.993 341.809C380.495 371.15 427.059 401.133 427.059 486.33H391.324C391.324 420.537 353.104 395.9 315.726 371.826C271.984 343.646 227.36 316.084 227.36 240.565V106.722H182.402V20.4375H309.631V106.722H263.091Z" fill="#0086CB"/>
<path fill-rule="evenodd" clip-rule="evenodd" d="M0 11V501C153.62 501 310.978 501 465.01 501H1691.39V11H0ZM374.223 31.8544H469.15V96.2943H374.223V31.8544ZM374.223 117.144H469.15V238.081H374.223V117.144ZM374.223 258.925H469.15V379.862L374.223 290.3V258.925ZM322.763 31.8544H353.378V96.2943H322.763V31.8544ZM322.763 117.144H353.378V238.081H322.763V117.144ZM188.082 369.881L218.427 396.071H188.082V369.881ZM167.232 480.131H20.8495V453.632H88.3813L167.232 421.669V480.131ZM167.232 399.379L84.77 432.753H20.8495V356.45H167.232V399.379ZM167.232 335.61H20.8495V258.94H167.232V335.61ZM167.232 238.066H20.8495V173.229H167.232V238.066ZM167.232 152.066H20.8495V81.854L63.1071 117.134H167.232V152.066ZM167.232 96.2796H71.1921L20.8495 53.4928V31.8544H167.232V96.2796ZM234.573 480.146H188.082V416.936H234.573V480.146ZM301.913 480.146H255.417V416.936H301.913V480.146ZM301.913 396.071H249.023L188.082 341.53V258.94H301.913V396.071ZM301.913 238.081H188.082V117.144H301.913V238.081ZM301.913 96.2943H188.082V31.8544H301.913V96.2943ZM322.763 258.94H353.378V299.267L469.15 408.454V480.146H322.763V258.94ZM1670.53 480.151H490V31.8544H1670.53V480.151Z" fill="black"/>
<path d="M1475.98 118.976C1476.72 118.951 1477.46 119.075 1478.15 119.341C1478.84 119.607 1479.47 120.01 1480 120.524C1480.53 121.054 1480.94 121.687 1481.21 122.383C1481.48 123.08 1481.6 123.825 1481.57 124.572C1481.57 125.356 1481.47 126.137 1481.29 126.899C1480.94 128.094 1480.51 129.263 1480 130.398L1476.68 138.787H1470.91L1473.47 129.521C1472.53 129.152 1471.72 128.489 1471.18 127.629C1470.6 126.715 1470.31 125.652 1470.33 124.572C1470.3 123.823 1470.43 123.075 1470.71 122.378C1470.98 121.681 1471.4 121.049 1471.94 120.524C1472.47 120.01 1473.11 119.609 1473.8 119.343C1474.5 119.077 1475.24 118.952 1475.98 118.976ZM1437.07 123.386C1438.82 123.425 1440.15 123.053 1441.09 122.274C1442.03 121.495 1442.49 120.338 1442.49 118.78C1442.49 117.222 1442.04 116.159 1441.12 115.463C1440.21 114.767 1438.86 114.395 1437.07 114.35L1431.65 114.297V123.386H1437.07ZM1454.89 98.4499H1463.92V129.81H1454.89V98.4499ZM1439.13 108.51C1443.21 108.555 1446.3 109.47 1448.4 111.254C1450.49 113.042 1451.54 115.6 1451.54 118.947C1451.54 122.435 1450.35 125.132 1447.98 127.037C1445.62 128.941 1442.26 129.893 1437.91 129.893L1422.65 129.834V98.4744H1431.67V108.51H1439.13ZM1399.11 122.842C1400.18 122.879 1401.25 122.687 1402.24 122.28C1403.23 121.873 1404.12 121.259 1404.85 120.48C1406.32 118.912 1407.09 116.81 1407.09 114.159C1407.09 111.508 1406.35 109.421 1404.85 107.843C1403.33 106.333 1401.27 105.487 1399.12 105.487C1396.97 105.487 1394.91 106.333 1393.38 107.843C1391.88 109.421 1391.13 111.526 1391.13 114.159C1391.13 116.81 1391.88 118.912 1393.38 120.48C1394.11 121.253 1395 121.861 1395.98 122.264C1396.97 122.668 1398.03 122.858 1399.09 122.823L1399.11 122.842ZM1400.69 98.0285C1403.47 97.9993 1406.21 98.6915 1408.64 100.038C1411.01 101.357 1412.96 103.317 1414.26 105.692C1415.6 108.317 1416.3 111.221 1416.3 114.167C1416.3 117.112 1415.6 120.016 1414.26 122.641C1412.95 125.013 1411.01 126.97 1408.64 128.291C1406.21 129.639 1403.47 130.332 1400.69 130.3C1396.69 130.3 1393.55 129.037 1391.26 126.512V141.134H1382.17V98.5038H1390.84V102.115C1393.08 99.3777 1396.36 98.0089 1400.67 98.0089L1400.69 98.0285ZM1377.86 98.5185L1363.67 131.736C1362.23 135.352 1360.46 137.885 1358.34 139.365C1356.08 140.883 1353.4 141.658 1350.68 141.58C1349.04 141.577 1347.41 141.321 1345.84 140.82C1344.4 140.404 1343.07 139.69 1341.92 138.723L1345.25 132.26C1345.96 132.891 1346.78 133.389 1347.67 133.73C1348.53 134.068 1349.45 134.244 1350.37 134.249C1351.46 134.298 1352.52 133.98 1353.4 133.348C1354.33 132.532 1355.05 131.503 1355.5 130.349L1355.61 130.06L1342.05 98.4842H1351.43L1360.22 119.75L1369.07 98.4842L1377.86 98.5185ZM1341.33 105.976H1330.73V129.859H1321.71V105.932H1311.11V98.4744H1341.33V105.976ZM1291.71 117.972H1287V129.859H1277.91V98.4989H1287V110.675H1291.9L1300.41 98.4989H1310.07L1299.09 113.508L1310.79 129.815H1300.08L1291.71 117.972ZM1254.65 104.884C1252.76 104.825 1250.92 105.446 1249.46 106.633C1248.04 107.845 1247.12 109.549 1246.9 111.406H1262.33C1262.1 109.56 1261.18 107.868 1259.77 106.657C1258.34 105.46 1256.51 104.829 1254.65 104.884ZM1270.9 114.262C1270.9 114.375 1270.84 115.188 1270.72 116.712H1247.02C1247.4 118.582 1248.48 120.234 1250.05 121.323C1251.8 122.492 1253.88 123.082 1255.98 123.009C1257.46 123.034 1258.93 122.788 1260.32 122.284C1261.64 121.758 1262.84 120.975 1263.85 119.981L1268.69 125.224C1265.75 128.605 1261.44 130.293 1255.75 130.29C1252.51 130.354 1249.3 129.645 1246.38 128.222C1243.78 126.948 1241.59 124.957 1240.08 122.484C1238.59 119.966 1237.82 117.082 1237.87 114.154C1237.83 111.24 1238.59 108.371 1240.06 105.854C1241.48 103.407 1243.57 101.408 1246.07 100.082C1248.67 98.7357 1251.56 98.0256 1254.49 98.0094C1257.42 97.9932 1260.32 98.6714 1262.94 99.9885C1265.39 101.279 1267.42 103.253 1268.78 105.673C1270.24 108.297 1270.97 111.262 1270.9 114.262ZM1236.88 105.932H1226.28V129.815H1217.25V105.932H1206.65V98.4744H1236.88V105.932ZM1169.2 98.4744H1178.23V117.094L1193.49 98.4744H1201.82V129.834H1192.79V111.214L1177.6 129.834H1169.21L1169.2 98.4744ZM1154.41 129.834L1147.55 120.226L1140.44 129.834H1130.54L1142.6 114.047L1130.92 98.4744H1141.11L1147.76 107.618L1154.57 98.4744H1164.24L1152.59 113.797L1164.73 129.815L1154.41 129.834ZM1112.18 122.842C1113.25 122.879 1114.31 122.688 1115.3 122.28C1116.29 121.873 1117.18 121.259 1117.91 120.48C1119.41 118.912 1120.16 116.81 1120.16 114.159C1120.16 111.508 1119.41 109.421 1117.91 107.843C1116.38 106.334 1114.32 105.487 1112.18 105.487C1110.03 105.487 1107.97 106.334 1106.44 107.843C1104.94 109.421 1104.2 111.526 1104.2 114.159C1104.2 116.81 1104.95 118.912 1106.44 120.48C1107.18 121.255 1108.07 121.865 1109.06 122.269C1110.05 122.672 1111.11 122.861 1112.18 122.823V122.842ZM1113.75 98.0285C1116.53 97.9981 1119.27 98.6904 1121.7 100.038C1124.07 101.356 1126.01 103.316 1127.32 105.692C1128.66 108.316 1129.36 111.22 1129.36 114.167C1129.36 117.113 1128.66 120.018 1127.32 122.641C1126.01 125.014 1124.06 126.972 1121.7 128.291C1119.27 129.64 1116.53 130.333 1113.75 130.3C1109.75 130.3 1106.61 129.037 1104.31 126.512V141.134H1095.23V98.5038H1103.9V102.115C1106.16 99.3777 1109.45 98.0089 1113.77 98.0089L1113.75 98.0285ZM1071.58 124.18C1073.03 124.207 1074.46 123.836 1075.71 123.107C1076.92 122.39 1077.83 121.261 1078.27 119.927V116.722H1072.04C1068.32 116.722 1066.46 117.945 1066.46 120.392C1066.44 120.931 1066.55 121.467 1066.79 121.95C1067.03 122.434 1067.38 122.852 1067.82 123.166C1068.94 123.892 1070.25 124.24 1071.58 124.16V124.18ZM1072.28 98.0285C1077.13 98.0285 1080.86 99.1833 1083.46 101.493C1086.06 103.802 1087.37 107.288 1087.38 111.949V129.834H1078.87V125.914C1077.17 128.825 1073.98 130.28 1069.32 130.28C1067.17 130.333 1065.04 129.915 1063.07 129.055C1061.42 128.342 1060.01 127.17 1059.01 125.679C1058.08 124.219 1057.59 122.514 1057.62 120.779C1057.57 119.455 1057.84 118.139 1058.41 116.944C1058.99 115.749 1059.84 114.711 1060.9 113.919C1063.1 112.25 1066.49 111.415 1071.07 111.415H1078.29C1078.29 109.436 1077.69 107.913 1076.49 106.849C1075.29 105.784 1073.49 105.25 1071.07 105.246C1069.41 105.249 1067.75 105.513 1066.17 106.03C1064.69 106.487 1063.3 107.205 1062.07 108.152L1058.81 101.806C1060.68 100.524 1062.75 99.5791 1064.95 99.0134C1067.33 98.348 1069.8 98.01 1072.28 98.0089V98.0285ZM1038.8 105.932H1028.2V129.815H1019.17V105.932H1008.57V98.4744H1038.8V105.932ZM972.043 98.4744H981.078V110.724H994.7V98.4744H1003.79V129.834H994.7V118.109H981.078V129.815H972.043V98.4744ZM948.802 104.884C946.921 104.823 945.082 105.445 943.623 106.633C942.197 107.843 941.283 109.548 941.065 111.406H956.48C956.243 109.56 955.33 107.868 953.918 106.657C952.483 105.46 950.66 104.829 948.792 104.884H948.802ZM965.055 114.262C965.055 114.375 965.002 115.188 964.884 116.712H941.178C941.553 118.582 942.637 120.233 944.201 121.323C945.96 122.492 948.04 123.081 950.15 123.009C951.627 123.032 953.097 122.787 954.486 122.284C955.801 121.758 956.997 120.975 958.004 119.981L962.841 125.224C959.901 128.605 955.592 130.293 949.914 130.29C946.667 130.354 943.451 129.645 940.531 128.222C937.932 126.946 935.752 124.956 934.244 122.484C932.749 119.966 931.982 117.083 932.029 114.154C931.993 111.241 932.747 108.373 934.21 105.854C935.643 103.419 937.72 101.426 940.213 100.096C942.817 98.7504 945.703 98.0403 948.634 98.0241C951.566 98.0079 954.459 98.6861 957.078 100.003C959.543 101.294 961.585 103.267 962.958 105.687C964.397 108.312 965.117 111.27 965.046 114.262H965.055ZM917.707 129.815V111.058L908.328 126.782H904.477L895.338 111.004V129.815H887.126V98.4548H896.617L906.633 116.585L917.295 98.4548H925.797L925.919 129.815H917.707ZM863.415 124.16C864.865 124.187 866.296 123.816 867.55 123.087C868.757 122.367 869.666 121.239 870.113 119.907V116.702H863.871C860.147 116.702 858.284 117.926 858.284 120.373C858.265 120.912 858.38 121.447 858.619 121.931C858.857 122.415 859.212 122.833 859.652 123.146C860.761 123.879 862.077 124.234 863.405 124.16H863.415ZM864.116 98.0089C868.967 98.0089 872.695 99.1637 875.302 101.473C877.909 103.783 879.216 107.268 879.222 111.93V129.815H870.721V125.895C869.006 128.805 865.821 130.261 861.166 130.261C859.012 130.313 856.874 129.895 854.899 129.036C853.254 128.323 851.851 127.151 850.856 125.66C849.919 124.199 849.433 122.495 849.46 120.76C849.46 117.849 850.554 115.562 852.743 113.9C854.931 112.237 858.322 111.402 862.915 111.396H870.133C870.133 109.416 869.532 107.894 868.329 106.829C867.127 105.764 865.331 105.23 862.939 105.227C861.275 105.228 859.621 105.493 858.039 106.011C856.553 106.467 855.161 107.185 853.928 108.132L850.675 101.787C852.544 100.506 854.621 99.5614 856.814 98.9938C859.189 98.3378 861.642 98.0065 864.106 98.0089H864.116ZM847.103 105.932H836.504V129.815H827.483V105.932H816.879V98.4744H847.103V105.932ZM798.416 122.823C799.486 122.858 800.55 122.666 801.539 122.259C802.528 121.852 803.42 121.239 804.154 120.461C805.649 118.893 806.393 116.791 806.393 114.14C806.393 111.489 805.649 109.401 804.154 107.824C802.626 106.314 800.565 105.467 798.416 105.467C796.268 105.467 794.206 106.314 792.678 107.824C791.208 109.401 790.429 111.504 790.429 114.14C790.429 116.776 791.184 118.893 792.678 120.461C793.411 121.238 794.301 121.851 795.288 122.258C796.276 122.665 797.339 122.858 798.407 122.823H798.416ZM799.989 98.0089C802.769 97.979 805.51 98.6713 807.942 100.018C810.308 101.339 812.255 103.299 813.562 105.673C814.899 108.297 815.596 111.201 815.596 114.147C815.596 117.093 814.899 119.997 813.562 122.622C812.252 124.992 810.305 126.949 807.942 128.271C805.51 129.62 802.77 130.313 799.989 130.28C795.991 130.28 792.845 129.018 790.552 126.493V141.114H781.453V98.4842H790.13V102.096C792.388 99.3711 795.671 98.0089 799.979 98.0089H799.989ZM757.815 124.16C759.267 124.187 760.699 123.816 761.955 123.087C763.16 122.366 764.068 121.238 764.513 119.907V116.702H758.276C754.542 116.702 752.676 117.926 752.68 120.373C752.662 120.912 752.779 121.447 753.018 121.931C753.257 122.415 753.612 122.832 754.052 123.146C754.958 123.822 756.213 124.16 757.805 124.16H757.815ZM758.516 98.0089C763.372 98.0089 767.091 99.1653 769.697 101.473C772.304 103.781 773.617 107.275 773.617 111.93V129.815H765.087V125.895C763.375 128.805 760.191 130.261 755.536 130.261C753.383 130.313 751.244 129.895 749.269 129.036C747.625 128.321 746.22 127.149 745.222 125.66C744.285 124.199 743.799 122.495 743.825 120.76C743.825 117.849 744.923 115.562 747.118 113.9C749.313 112.237 752.701 111.402 757.281 111.396H764.503C764.503 109.416 763.901 107.894 762.695 106.829C761.49 105.761 759.692 105.227 757.305 105.227C755.641 105.228 753.987 105.493 752.405 106.011C750.92 106.465 749.529 107.184 748.299 108.132L745.036 101.787C746.908 100.506 748.989 99.5614 751.185 98.9938C753.574 98.3332 756.042 98.0018 758.521 98.0089H758.516ZM737.607 98.4989V129.859H728.523V105.932H715.469V129.815H706.448V98.4548L737.607 98.4989ZM683.217 104.908C681.335 104.85 679.495 105.471 678.033 106.657C676.607 107.868 675.692 109.573 675.47 111.43H690.901C690.661 109.585 689.748 107.894 688.338 106.682C686.901 105.472 685.07 104.832 683.193 104.884L683.217 104.908ZM699.466 114.287C699.466 114.399 699.412 115.213 699.294 116.737H675.583C675.963 118.607 677.049 120.259 678.616 121.348C680.371 122.517 682.448 123.107 684.555 123.033C686.033 123.058 687.502 122.813 688.892 122.308C690.209 121.783 691.408 121 692.42 120.005L697.256 125.248C694.316 128.629 690.004 130.318 684.32 130.315C681.076 130.378 677.863 129.669 674.946 128.247C672.346 126.971 670.164 124.981 668.655 122.509C667.161 119.99 666.396 117.107 666.445 114.179C666.403 111.265 667.159 108.394 668.63 105.878C670.057 103.44 672.133 101.447 674.628 100.121C677.231 98.7749 680.116 98.0648 683.047 98.0486C685.978 98.0325 688.87 98.7107 691.489 100.028C693.944 101.323 695.977 103.295 697.344 105.712C698.784 108.327 699.508 111.277 699.441 114.262L699.466 114.287ZM634.551 102.669C634.434 106.762 634.025 110.841 633.326 114.875C632.705 118.141 631.753 120.559 630.469 122.127H648.702V96.7496H634.717L634.551 102.669ZM1244.6 194.51C1246.05 194.535 1247.48 194.162 1248.74 193.432C1249.94 192.712 1250.85 191.589 1251.3 190.261V187.057H1245.09C1241.37 187.057 1239.5 188.28 1239.5 190.727C1239.48 191.264 1239.6 191.798 1239.84 192.28C1240.08 192.762 1240.43 193.178 1240.87 193.49C1241.98 194.224 1243.3 194.582 1244.62 194.51H1244.6ZM1245.3 168.353C1250.15 168.353 1253.88 169.51 1256.48 171.823C1259.08 174.135 1260.39 177.619 1260.4 182.274V200.14H1251.9V196.22C1250.19 199.127 1247 200.582 1242.35 200.586C1240.19 200.636 1238.06 200.218 1236.08 199.361C1234.44 198.648 1233.03 197.475 1232.04 195.984C1231.1 194.525 1230.61 192.82 1230.64 191.084C1230.59 189.76 1230.86 188.444 1231.43 187.249C1232.01 186.054 1232.86 185.016 1233.92 184.224C1236.12 182.558 1239.51 181.724 1244.1 181.721H1251.32C1251.32 179.741 1250.72 178.215 1249.51 177.144C1248.3 176.081 1246.5 175.542 1244.1 175.542C1242.43 175.545 1240.78 175.811 1239.2 176.331C1237.71 176.79 1236.32 177.512 1235.08 178.462L1231.83 172.092C1233.7 170.812 1235.78 169.867 1237.97 169.299C1240.37 168.656 1242.84 168.338 1245.32 168.353H1245.3ZM1212.85 193.98C1216.2 193.98 1217.87 192.844 1217.87 190.55C1217.91 190.047 1217.82 189.542 1217.62 189.08C1217.41 188.617 1217.1 188.212 1216.7 187.899C1215.92 187.336 1214.71 187.062 1213.03 187.062H1205.25V193.985L1212.85 193.98ZM1205.23 181.696H1212.09C1215.27 181.696 1216.86 180.571 1216.86 178.32C1216.86 176.069 1215.27 174.96 1212.09 174.993H1205.23V181.696ZM1220.84 183.793C1224.52 185.035 1226.37 187.517 1226.37 191.241C1226.37 194.08 1225.3 196.277 1223.17 197.832C1221.03 199.387 1217.85 200.163 1213.61 200.159H1196.92V168.799H1212.94C1216.86 168.799 1219.93 169.51 1222.14 170.931C1223.18 171.537 1224.04 172.41 1224.62 173.46C1225.21 174.51 1225.5 175.698 1225.47 176.899C1225.49 178.358 1225.07 179.79 1224.27 181.005C1223.42 182.241 1222.24 183.208 1220.86 183.793H1220.84ZM1192.06 176.277H1181.46V200.14H1172.44V176.277H1161.83V168.819H1192.06V176.277ZM1146.3 200.63C1143.18 200.68 1140.1 199.97 1137.31 198.562C1134.74 197.268 1132.58 195.28 1131.08 192.824C1129.92 190.968 1129.17 188.894 1128.86 186.731C1128.55 184.569 1128.69 182.365 1129.27 180.26C1129.86 178.155 1130.87 176.194 1132.25 174.5C1133.63 172.807 1135.35 171.418 1137.29 170.421C1140.08 169.015 1143.16 168.305 1146.28 168.353C1149.3 168.286 1152.28 168.998 1154.94 170.421C1157.34 171.734 1159.24 173.816 1160.33 176.335L1153.28 180.123C1151.65 177.252 1149.29 175.811 1146.23 175.811C1145.14 175.779 1144.06 175.969 1143.05 176.37C1142.04 176.771 1141.12 177.375 1140.35 178.144C1138.8 179.692 1138.02 181.815 1138.02 184.514C1138.02 187.212 1138.79 189.327 1140.35 190.859C1141.12 191.627 1142.04 192.23 1143.05 192.63C1144.06 193.03 1145.14 193.22 1146.23 193.187C1149.33 193.187 1151.68 191.751 1153.28 188.879L1160.33 192.721C1159.21 195.197 1157.32 197.242 1154.94 198.547C1152.29 199.985 1149.31 200.703 1146.3 200.63ZM1111.07 193.77C1112.82 193.814 1114.15 193.441 1115.09 192.667C1116.02 191.893 1116.49 190.707 1116.49 189.169C1116.49 187.63 1116.02 186.547 1115.11 185.851C1114.2 185.155 1112.85 184.783 1111.07 184.749L1105.19 184.68V193.77H1111.07ZM1113.1 178.864C1117.18 178.897 1120.31 179.819 1122.48 181.632C1124.66 183.445 1125.74 185.997 1125.74 189.286C1125.74 192.739 1124.53 195.427 1122.11 197.352C1119.69 199.276 1116.28 200.236 1111.88 200.233L1096.16 200.179V168.819H1105.19V178.844L1113.1 178.864ZM1087.42 168.838V200.198H1078.33V176.277H1068.43L1068.14 181.809C1068.07 185.256 1067.67 188.688 1066.98 192.064C1066.35 194.779 1065.35 196.914 1063.95 198.469C1062.55 200.022 1060.61 200.801 1058.12 200.801C1056.53 200.763 1054.94 200.53 1053.4 200.105L1053.87 192.648C1054.31 192.708 1054.76 192.746 1055.21 192.76C1055.8 192.8 1056.4 192.686 1056.93 192.428C1057.47 192.171 1057.93 191.779 1058.26 191.29C1059 190.15 1059.47 188.856 1059.63 187.507C1059.87 185.969 1060.04 183.94 1060.16 181.422L1060.65 168.834L1087.42 168.838ZM1034.41 175.248C1032.53 175.188 1030.69 175.807 1029.23 176.992C1027.81 178.208 1026.89 179.915 1026.67 181.774H1042.1C1041.87 179.928 1040.95 178.235 1039.54 177.026C1038.11 175.822 1036.28 175.182 1034.41 175.228V175.248ZM1050.66 184.626C1050.66 184.749 1050.6 185.562 1050.49 187.076H1026.78C1027.16 188.943 1028.25 190.59 1029.82 191.672C1031.57 192.851 1033.65 193.443 1035.75 193.363C1037.23 193.389 1038.7 193.142 1040.09 192.633C1041.41 192.114 1042.61 191.332 1043.62 190.335L1048.45 195.578C1045.51 198.949 1041.2 200.638 1035.52 200.644C1032.27 200.708 1029.06 199.999 1026.14 198.577C1023.54 197.303 1021.36 195.312 1019.85 192.839C1018.41 190.304 1017.65 187.439 1017.65 184.523C1017.65 181.608 1018.41 178.743 1019.85 176.208C1021.28 173.771 1023.35 171.775 1025.84 170.441C1028.47 169.045 1031.41 168.334 1034.38 168.373C1037.28 168.335 1040.14 169.017 1042.71 170.357C1045.18 171.645 1047.22 173.617 1048.59 176.037C1050.03 178.66 1050.74 181.617 1050.66 184.607V184.626ZM1016.65 176.296H1006.05V200.14H997.023V176.277H986.419V168.819H1016.65V176.296ZM948.974 168.838H957.995V187.458L973.258 168.838H981.588V200.198H972.562V181.52L957.372 200.14H948.993L948.974 168.838ZM925.552 193.187C926.62 193.22 927.684 193.028 928.674 192.623C929.663 192.217 930.556 191.608 931.294 190.835C932.784 189.257 933.529 187.15 933.529 184.514C933.529 181.877 932.784 179.77 931.294 178.193C929.762 176.68 927.695 175.831 925.542 175.831C923.388 175.831 921.322 176.68 919.789 178.193C918.277 179.761 917.521 181.868 917.521 184.514C917.521 187.16 918.277 189.267 919.789 190.835C920.534 191.603 921.432 192.208 922.424 192.609C923.417 193.011 924.482 193.201 925.552 193.167V193.187ZM925.552 200.644C922.467 200.694 919.418 199.984 916.673 198.577C914.132 197.27 912.003 195.284 910.523 192.839C909.075 190.301 908.313 187.43 908.313 184.509C908.313 181.587 909.075 178.716 910.523 176.179C912.004 173.735 914.133 171.749 916.673 170.441C919.432 169.081 922.466 168.373 925.542 168.373C928.618 168.373 931.652 169.081 934.411 170.441C936.937 171.754 939.052 173.74 940.521 176.179C941.972 178.715 942.736 181.586 942.736 184.509C942.736 187.431 941.972 190.302 940.521 192.839C939.055 195.269 936.948 197.247 934.43 198.557C931.688 199.972 928.637 200.684 925.552 200.63V200.644ZM887.332 193.187C888.4 193.221 889.463 193.029 890.452 192.624C891.441 192.219 892.333 191.609 893.07 190.835C894.574 189.257 895.319 187.15 895.319 184.514C895.319 181.877 894.574 179.761 893.07 178.193C891.544 176.679 889.483 175.83 887.334 175.83C885.186 175.83 883.124 176.679 881.599 178.193C880.099 179.761 879.35 181.868 879.35 184.514C879.35 187.16 880.099 189.267 881.599 190.835C882.338 191.606 883.232 192.212 884.221 192.614C885.211 193.016 886.274 193.204 887.342 193.167L887.332 193.187ZM888.909 168.373C891.689 168.34 894.429 169.034 896.857 170.387C899.223 171.706 901.171 173.664 902.478 176.037C903.819 178.66 904.518 181.565 904.518 184.511C904.518 187.458 903.819 190.362 902.478 192.986C901.172 195.359 899.224 197.317 896.857 198.635C894.428 199.984 891.688 200.677 888.909 200.644C884.908 200.644 881.762 199.382 879.472 196.857V211.459H870.383V168.829H879.061V172.445C881.324 169.724 884.611 168.36 888.919 168.353L888.909 168.373ZM865.61 176.296H855.006V200.14H845.981V176.277H835.382V168.819H865.61V176.296ZM819.839 200.63C816.716 200.678 813.627 199.969 810.838 198.562C808.268 197.265 806.11 195.278 804.605 192.824C803.454 190.967 802.699 188.892 802.391 186.729C802.082 184.566 802.225 182.363 802.81 180.258C803.396 178.154 804.412 176.193 805.793 174.501C807.175 172.808 808.893 171.421 810.838 170.426C813.628 169.021 816.716 168.312 819.839 168.358C822.852 168.292 825.831 169.004 828.488 170.426C830.896 171.739 832.794 173.821 833.878 176.34L826.831 180.128C825.198 177.257 822.851 175.819 819.79 175.816C818.703 175.783 817.62 175.973 816.609 176.375C815.598 176.776 814.679 177.379 813.91 178.148C812.357 179.697 811.573 181.814 811.573 184.518C811.573 187.223 812.357 189.311 813.91 190.864C814.68 191.632 815.598 192.235 816.609 192.636C817.621 193.036 818.703 193.225 819.79 193.191C822.89 193.191 825.237 191.756 826.831 188.884L833.878 192.726C832.764 195.203 830.871 197.249 828.488 198.552C825.837 199.99 822.854 200.707 819.839 200.63ZM781.516 193.172C782.584 193.205 783.646 193.013 784.634 192.608C785.622 192.202 786.513 191.593 787.249 190.82C788.742 189.242 789.488 187.135 789.488 184.499C789.488 181.863 788.742 179.756 787.249 178.178C786.515 177.401 785.625 176.788 784.637 176.381C783.648 175.974 782.585 175.781 781.516 175.816C780.443 175.782 779.374 175.975 778.381 176.382C777.387 176.789 776.49 177.401 775.749 178.178C774.235 179.746 773.47 181.853 773.47 184.499C773.47 187.145 774.235 189.242 775.749 190.82C776.493 191.592 777.391 192.2 778.384 192.604C779.377 193.008 780.444 193.2 781.516 193.167V193.172ZM781.516 200.63C778.43 200.68 775.379 199.97 772.633 198.562C770.09 197.257 767.961 195.27 766.483 192.824C765.032 190.288 764.268 187.416 764.268 184.494C764.268 181.572 765.032 178.7 766.483 176.164C767.962 173.719 770.091 171.733 772.633 170.426C775.39 169.066 778.424 168.358 781.499 168.358C784.574 168.358 787.608 169.066 790.366 170.426C792.895 171.737 795.012 173.723 796.481 176.164C797.932 178.7 798.696 181.572 798.696 184.494C798.696 187.416 797.932 190.288 796.481 192.824C795.014 195.264 792.899 197.248 790.371 198.557C787.636 199.969 784.594 200.681 781.516 200.63ZM737.132 180.3C737.069 182.915 736.825 185.523 736.402 188.105C736.036 190.124 735.347 191.658 734.334 192.706H747.564V176.277H737.303L737.132 180.3ZM761.142 192.706V206.916H752.694V200.14H730.679V206.897H722.231V192.687H723.51C725.47 192.648 726.793 191.501 727.533 189.257C728.273 187.013 728.738 183.798 728.929 179.648L729.341 168.809H756.658V192.692L761.142 192.706ZM702.313 194.514C703.765 194.54 705.197 194.167 706.453 193.436C707.654 192.715 708.56 191.592 709.011 190.266V187.057H702.778C699.054 187.057 697.182 188.277 697.182 190.727C697.166 191.265 697.283 191.798 697.522 192.28C697.762 192.762 698.116 193.178 698.554 193.49C699.661 194.223 700.973 194.58 702.298 194.51L702.313 194.514ZM703.013 168.358C707.864 168.358 711.592 169.515 714.195 171.827C716.799 174.14 718.105 177.624 718.115 182.279V200.14H709.609V196.22C707.904 199.127 704.72 200.582 700.059 200.586C697.907 200.635 695.771 200.217 693.796 199.361C692.15 198.649 690.745 197.476 689.749 195.984C688.809 194.525 688.323 192.82 688.353 191.084C688.304 189.76 688.578 188.444 689.151 187.249C689.724 186.054 690.578 185.016 691.64 184.224C693.836 182.558 697.225 181.724 701.808 181.721H709.031C709.031 179.741 708.429 178.215 707.227 177.144C706.027 176.081 704.214 175.542 701.808 175.542C700.143 175.544 698.489 175.811 696.908 176.331C695.422 176.788 694.031 177.51 692.802 178.462L689.533 172.092C691.406 170.812 693.487 169.867 695.683 169.299C698.068 168.658 700.529 168.34 702.999 168.353L703.013 168.358ZM667.831 193.172C668.899 193.205 669.962 193.013 670.951 192.608C671.94 192.202 672.832 191.593 673.569 190.82C675.059 189.242 675.805 187.135 675.809 184.499C675.812 181.863 675.065 179.756 673.569 178.178C672.043 176.664 669.981 175.815 667.831 175.815C665.682 175.815 663.62 176.664 662.093 178.178C660.597 179.746 659.851 181.853 659.854 184.499C659.857 187.145 660.604 189.252 662.093 190.82C662.83 191.59 663.719 192.198 664.705 192.602C665.691 193.006 666.751 193.199 667.817 193.167L667.831 193.172ZM669.404 168.358C672.184 168.325 674.924 169.02 677.352 170.372C679.719 171.69 681.667 173.648 682.972 176.022C684.313 178.645 685.013 181.55 685.013 184.496C685.013 187.443 684.313 190.347 682.972 192.971C681.668 195.346 679.72 197.304 677.352 198.621C674.922 199.969 672.183 200.662 669.404 200.63C665.406 200.63 662.262 199.367 659.972 196.842V211.459H650.868V168.829H659.541V172.445C661.795 169.724 665.078 168.36 669.39 168.353L669.404 168.358ZM646.105 176.282H630.023V200.14H621.002V168.78H646.105V176.282ZM1524.43 270.504L1517.57 260.895L1510.46 270.504H1500.57L1512.62 254.716L1500.97 239.173H1511.16L1517.8 248.312L1524.62 239.173H1534.28L1522.64 254.486L1534.75 270.504H1524.43ZM1469.17 264.099C1470.91 264.135 1472.25 263.766 1473.19 262.992C1474.12 262.218 1474.58 261.056 1474.58 259.498C1474.58 257.94 1474.13 256.877 1473.21 256.176C1472.3 255.475 1470.95 255.108 1469.17 255.069L1463.75 255.015V264.099H1469.17ZM1486.98 239.173H1496.01V270.504H1486.98V239.173ZM1471.2 249.189C1475.28 249.228 1478.37 250.139 1480.47 251.923C1482.56 253.706 1483.61 256.269 1483.61 259.611C1483.61 263.11 1482.42 265.809 1480.06 267.711C1477.69 269.612 1474.34 270.562 1470 270.562L1454.74 270.504V239.173H1463.76V249.189H1471.2ZM1414.3 239.173H1423.33V251.399H1436.95V239.173H1446.04V270.504H1436.95V258.793H1423.33V270.504H1414.3V239.173ZM1393.97 264.099C1395.72 264.134 1397.05 263.766 1397.99 262.992C1398.92 262.218 1399.39 261.056 1399.39 259.498C1399.39 257.94 1398.93 256.877 1398.02 256.176C1397.11 255.475 1395.76 255.108 1393.97 255.069L1388.09 255.015V264.099H1393.97ZM1396.01 249.189C1400.09 249.228 1403.21 250.151 1405.39 251.957C1407.56 253.764 1408.65 256.315 1408.65 259.611C1408.65 263.064 1407.43 265.754 1405.01 267.681C1402.58 269.609 1399.17 270.569 1394.78 270.562L1379.06 270.504V239.173H1388.09V249.189H1396.01ZM1370.32 239.173V270.504H1361.22V246.626H1351.32L1351.03 252.158C1350.95 255.603 1350.56 259.034 1349.86 262.409C1349.24 265.127 1348.23 267.263 1346.83 268.818C1345.43 270.371 1343.5 271.146 1341.01 271.146C1339.42 271.106 1337.83 270.872 1336.29 270.45L1336.78 262.992C1337.41 263.065 1337.85 263.11 1338.12 263.11C1338.71 263.148 1339.31 263.033 1339.84 262.775C1340.38 262.518 1340.84 262.127 1341.18 261.64C1341.91 260.493 1342.38 259.198 1342.55 257.847C1342.78 256.318 1342.95 254.29 1343.08 251.761L1343.57 239.188L1370.32 239.173ZM1317.32 245.572C1315.43 245.514 1313.6 246.137 1312.14 247.327C1310.71 248.535 1309.79 250.241 1309.57 252.099H1325C1324.76 250.255 1323.85 248.565 1322.44 247.351C1321.01 246.154 1319.18 245.521 1317.32 245.572ZM1333.57 254.951C1333.57 255.069 1333.51 255.882 1333.39 257.401H1309.68C1310.06 259.267 1311.15 260.914 1312.72 261.997C1314.47 263.175 1316.55 263.766 1318.65 263.688C1320.13 263.718 1321.6 263.472 1322.99 262.963C1324.31 262.443 1325.51 261.661 1326.52 260.664L1331.36 265.903C1328.42 269.284 1324.11 270.972 1318.42 270.969C1315.18 271.035 1311.96 270.326 1309.05 268.901C1306.45 267.633 1304.26 265.641 1302.76 263.163C1301.26 260.647 1300.49 257.762 1300.54 254.833C1300.5 251.919 1301.26 249.048 1302.73 246.533C1304.15 244.092 1306.23 242.097 1308.73 240.77C1311.33 239.424 1314.22 238.714 1317.15 238.698C1320.08 238.683 1322.97 239.363 1325.59 240.682C1328.05 241.971 1330.08 243.941 1331.44 246.356C1332.9 248.982 1333.63 251.948 1333.57 254.951ZM1286.21 270.504V251.746L1276.84 267.48H1272.99L1263.85 251.693V270.504H1255.64V239.173H1265.13L1275.15 257.303L1285.81 239.173H1294.31L1294.43 270.504H1286.21ZM1232.39 245.572C1230.51 245.512 1228.67 246.135 1227.22 247.327C1225.78 248.533 1224.87 250.24 1224.65 252.099H1240.08C1239.84 250.254 1238.93 248.563 1237.52 247.351C1236.08 246.155 1234.26 245.523 1232.39 245.572ZM1248.64 254.951C1248.64 255.069 1248.59 255.882 1248.47 257.401H1224.77C1225.14 259.268 1226.23 260.915 1227.79 261.997C1229.55 263.174 1231.63 263.766 1233.74 263.688C1235.22 263.717 1236.69 263.471 1238.07 262.963C1239.39 262.443 1240.59 261.661 1241.6 260.664L1246.43 265.903C1243.49 269.284 1239.18 270.972 1233.5 270.969C1230.26 271.036 1227.04 270.327 1224.12 268.901C1221.52 267.63 1219.34 265.638 1217.83 263.163C1216.34 260.646 1215.57 257.762 1215.62 254.833C1215.57 251.919 1216.33 249.048 1217.8 246.533C1219.23 244.096 1221.31 242.101 1223.8 240.77C1226.43 239.369 1229.37 238.657 1232.35 238.703C1235.25 238.66 1238.11 239.342 1240.68 240.687C1243.15 241.973 1245.19 243.943 1246.56 246.361C1248 248.99 1248.72 251.954 1248.64 254.951ZM1205.72 254.201C1207.39 254.658 1208.9 255.587 1210.06 256.877C1211.09 258.072 1211.64 259.607 1211.6 261.184C1211.62 263.121 1210.89 264.99 1209.56 266.402C1208.02 268.009 1206.1 269.199 1203.97 269.862C1201.38 270.716 1198.66 271.13 1195.93 271.087C1193.51 271.09 1191.09 270.837 1188.71 270.332C1186.43 269.853 1184.22 269.089 1182.13 268.059L1184.58 261.713C1188 263.327 1191.74 264.143 1195.53 264.099C1197.66 264.099 1199.34 263.773 1200.57 263.119C1201.79 262.466 1202.4 261.564 1202.4 260.415C1202.42 259.951 1202.31 259.491 1202.09 259.085C1201.86 258.679 1201.53 258.344 1201.12 258.116C1200.27 257.587 1199.03 257.328 1197.39 257.328H1190.99V251.693H1196.58C1198.18 251.693 1199.39 251.443 1200.25 250.933C1200.65 250.721 1200.98 250.402 1201.21 250.011C1201.43 249.621 1201.54 249.174 1201.53 248.723C1201.53 247.707 1201 246.931 1199.93 246.396C1198.87 245.847 1197.34 245.572 1195.36 245.572C1192.33 245.572 1189.03 246.291 1185.45 247.728L1183.24 241.442C1187.23 239.618 1191.56 238.646 1195.94 238.59C1198.52 238.552 1201.08 238.906 1203.54 239.639C1205.53 240.19 1207.35 241.241 1208.82 242.691C1209.43 243.307 1209.91 244.039 1210.24 244.844C1210.57 245.649 1210.74 246.511 1210.73 247.381C1210.74 248.823 1210.27 250.228 1209.4 251.374C1208.43 252.612 1207.16 253.585 1205.72 254.201ZM1145.37 246.567C1143.43 246.567 1141.96 246.915 1140.96 247.611C1139.98 248.312 1139.49 249.443 1139.49 250.997C1139.49 252.55 1139.98 253.682 1140.92 254.397C1141.85 255.113 1143.31 255.48 1145.26 255.48H1152.07V246.567H1145.37ZM1160.17 239.173V270.504H1152.07V261.532H1145.37L1139.43 270.504H1129.76L1136.92 260.253C1134.94 259.537 1133.2 258.25 1131.94 256.553C1130.77 254.833 1130.16 252.782 1130.22 250.698C1130.22 247.007 1131.56 244.163 1134.22 242.167C1136.89 240.171 1140.55 239.173 1145.19 239.173H1160.17ZM1090.98 239.173H1100V257.793L1115.26 239.173H1123.59V270.504H1114.56V251.884L1099.37 270.504H1090.99L1090.98 239.173ZM1050.55 239.173H1059.58V251.399H1073.2V239.173H1082.29V270.504H1073.2V258.793H1059.58V270.504H1050.56L1050.55 239.173ZM1026.84 264.854C1028.3 264.881 1029.73 264.509 1030.98 263.776C1032.18 263.057 1033.09 261.93 1033.54 260.601V257.401H1027.31C1023.59 257.401 1021.71 258.621 1021.71 261.071C1021.7 261.608 1021.81 262.142 1022.05 262.623C1022.29 263.104 1022.65 263.519 1023.09 263.83C1024 264.516 1025.25 264.854 1026.84 264.854ZM1027.53 238.703C1032.39 238.703 1036.11 239.859 1038.71 242.167C1041.31 244.475 1042.63 247.959 1042.63 252.624V270.504H1034.13V266.584C1032.43 269.501 1029.24 270.958 1024.57 270.954C1022.42 271.006 1020.29 270.589 1018.32 269.734C1016.67 269.019 1015.26 267.846 1014.27 266.353C1013.33 264.894 1012.84 263.189 1012.86 261.453C1012.82 260.128 1013.09 258.811 1013.67 257.616C1014.24 256.421 1015.1 255.384 1016.16 254.593C1018.35 252.924 1021.74 252.089 1026.32 252.089H1033.54C1033.54 250.11 1032.94 248.586 1031.74 247.518C1030.54 246.45 1028.73 245.915 1026.32 245.915C1024.66 245.92 1023 246.184 1021.42 246.699C1019.93 247.157 1018.54 247.879 1017.31 248.831L1014.05 242.461C1015.92 241.182 1018 240.235 1020.2 239.663C1022.59 239.016 1025.05 238.693 1027.53 238.703ZM995.093 264.33C998.434 264.33 1000.1 263.183 1000.1 260.9C1000.14 260.396 1000.05 259.89 999.847 259.427C999.644 258.964 999.328 258.559 998.929 258.249C998.16 257.68 996.935 257.406 995.264 257.406H987.458V264.33H995.093ZM987.458 252.045H994.318C997.498 252.045 999.096 250.909 999.096 248.659C999.096 246.41 997.498 245.342 994.318 245.342H987.458V252.045ZM1003.07 254.138C1006.76 255.379 1008.61 257.865 1008.6 261.595C1008.6 264.434 1007.53 266.628 1005.4 268.176C1003.26 269.725 1000.08 270.5 995.847 270.504H979.133V239.173H995.146C999.066 239.173 1002.13 239.874 1004.35 241.295C1005.39 241.901 1006.24 242.775 1006.83 243.825C1007.41 244.875 1007.7 246.062 1007.67 247.263C1007.7 248.723 1007.28 250.157 1006.48 251.374C1005.63 252.601 1004.45 253.56 1003.08 254.138H1003.07ZM955.711 263.516C956.78 263.552 957.844 263.361 958.834 262.955C959.823 262.548 960.714 261.936 961.449 261.159C962.953 259.582 963.698 257.479 963.698 254.838C963.698 252.197 962.953 250.09 961.449 248.517C960.715 247.74 959.823 247.127 958.834 246.721C957.845 246.314 956.78 246.123 955.711 246.16C954.638 246.127 953.57 246.319 952.577 246.726C951.583 247.132 950.686 247.742 949.944 248.517C948.435 250.09 947.675 252.192 947.675 254.838C947.675 257.484 948.435 259.582 949.944 261.159C950.688 261.935 951.587 262.545 952.582 262.952C953.577 263.358 954.647 263.55 955.721 263.516H955.711ZM955.711 270.969C952.627 271.021 949.577 270.311 946.832 268.901C944.289 267.599 942.161 265.611 940.688 263.163C939.235 260.628 938.47 257.756 938.47 254.833C938.47 251.911 939.235 249.039 940.688 246.503C942.16 244.054 944.288 242.067 946.832 240.766C949.59 239.402 952.625 238.693 955.701 238.693C958.778 238.693 961.813 239.402 964.57 240.766C967.104 242.077 969.223 244.067 970.69 246.513C972.144 249.049 972.908 251.921 972.908 254.843C972.908 257.766 972.144 260.638 970.69 263.173C969.222 265.614 967.105 267.601 964.575 268.911C961.839 270.318 958.797 271.025 955.721 270.969H955.711ZM917.491 263.516C918.559 263.55 919.622 263.358 920.61 262.952C921.598 262.546 922.489 261.935 923.224 261.159C924.694 259.582 925.468 257.479 925.468 254.838C925.468 252.197 924.719 250.09 923.224 248.517C921.696 247.007 919.635 246.161 917.486 246.161C915.338 246.161 913.276 247.007 911.748 248.517C910.278 250.09 909.509 252.192 909.509 254.838C909.509 257.484 910.259 259.582 911.748 261.159C912.488 261.939 913.386 262.552 914.381 262.959C915.376 263.365 916.446 263.555 917.521 263.516H917.491ZM919.064 238.703C921.843 238.67 924.582 239.363 927.012 240.712C929.378 242.031 931.325 243.989 932.632 246.361C933.972 248.986 934.671 251.891 934.671 254.838C934.671 257.785 933.972 260.691 932.632 263.315C931.325 265.687 929.377 267.643 927.012 268.96C924.583 270.311 921.843 271.004 919.064 270.969C915.066 270.969 911.92 269.707 909.627 267.181V281.803H900.572V239.173H909.249V242.77C911.5 240.058 914.781 238.703 919.093 238.703H919.064ZM859.24 239.193H868.281V257.813L883.539 239.193H891.869V270.504H882.838V251.884L867.648 270.504H859.26L859.24 239.193ZM850.503 239.193V270.504H841.419V246.626H831.531L831.241 252.158C831.165 255.603 830.775 259.034 830.075 262.409C829.455 265.127 828.445 267.263 827.047 268.818C825.649 270.373 823.713 271.149 821.241 271.146C819.644 271.105 818.058 270.871 816.517 270.45L817.007 262.992C817.451 263.054 817.897 263.093 818.345 263.11C818.938 263.147 819.532 263.032 820.068 262.774C820.604 262.517 821.065 262.126 821.407 261.64C822.139 260.493 822.607 259.197 822.774 257.847C823.006 256.318 823.179 254.29 823.294 251.761L823.759 239.188L850.503 239.193ZM818.296 239.193L804.14 272.444C802.702 276.057 800.927 278.6 798.813 280.073C796.553 281.595 793.873 282.369 791.15 282.288C789.509 282.288 787.879 282.032 786.318 281.529C784.881 281.112 783.546 280.402 782.398 279.441L785.725 272.973C786.432 273.607 787.249 274.106 788.136 274.443C789 274.787 789.921 274.967 790.851 274.972C791.934 275.022 793.001 274.702 793.879 274.066C794.804 273.248 795.521 272.222 795.971 271.072L796.084 270.778L782.516 239.212H791.894L800.714 260.468L809.569 239.212L818.296 239.193ZM781.776 246.646H765.699V270.504H756.668V239.173H781.776V246.646ZM733.433 245.592C731.549 245.532 729.708 246.155 728.248 247.346C726.822 248.557 725.907 250.262 725.686 252.119H741.116C740.881 250.273 739.968 248.58 738.553 247.371C737.13 246.174 735.321 245.534 733.462 245.572L733.433 245.592ZM749.701 254.951C749.701 255.069 749.642 255.882 749.524 257.401H725.813C726.195 259.267 727.284 260.914 728.851 261.997C730.602 263.174 732.681 263.766 734.79 263.688C736.268 263.717 737.738 263.472 739.126 262.963C740.444 262.443 741.642 261.661 742.649 260.664L747.486 265.903C744.546 269.284 740.235 270.972 734.555 270.969C731.309 271.035 728.094 270.326 725.176 268.901C722.576 267.628 720.394 265.637 718.889 263.163C717.393 260.646 716.626 257.762 716.675 254.833C716.632 251.92 717.386 249.05 718.855 246.533C720.286 244.095 722.364 242.101 724.858 240.77C727.48 239.369 730.415 238.656 733.388 238.698C736.287 238.655 739.15 239.338 741.718 240.682C744.183 241.969 746.224 243.939 747.598 246.356C749.048 248.985 749.773 251.951 749.701 254.951ZM695.712 263.516C696.779 263.551 697.842 263.359 698.829 262.953C699.817 262.546 700.707 261.935 701.44 261.159C702.94 259.582 703.685 257.479 703.685 254.838C703.685 252.197 702.94 250.09 701.44 248.517C699.913 247.008 697.852 246.161 695.705 246.161C693.558 246.161 691.497 247.008 689.97 248.517C688.47 250.09 687.725 252.192 687.725 254.838C687.725 257.484 688.47 259.582 689.97 261.159C690.707 261.938 691.601 262.55 692.592 262.956C693.584 263.363 694.651 263.554 695.722 263.516H695.712ZM697.271 238.703C700.053 238.669 702.795 239.362 705.228 240.712C707.591 242.033 709.537 243.99 710.844 246.361C712.185 248.986 712.885 251.891 712.885 254.838C712.885 257.786 712.185 260.691 710.844 263.315C709.537 265.685 707.591 267.641 705.228 268.96C702.796 270.313 700.053 271.005 697.271 270.969C693.272 270.969 690.128 269.707 687.838 267.181V281.803H678.749V239.173H687.471V242.77C689.708 240.058 692.975 238.703 697.271 238.703ZM620.973 239.193H629.994V257.813L645.262 239.193H653.592V270.504H644.566V251.884L629.376 270.504H620.987L620.973 239.193ZM1482.5 309.513H1491.53V328.133L1506.79 309.513H1515.12V340.873H1506.1V322.253L1490.91 340.873H1482.52L1482.5 309.513ZM1441.15 309.513H1450.18V328.133L1465.43 309.513H1473.76V340.873H1464.74V322.253L1449.55 340.873H1441.17L1441.15 309.513ZM1435.44 333.42V347.728H1427V340.868H1400.14V309.508H1409.17V333.42H1421.8V309.513H1430.89V333.42H1435.44ZM1376.43 335.228C1377.89 335.253 1379.32 334.88 1380.58 334.15C1381.77 333.427 1382.68 332.305 1383.13 330.979V327.775H1376.9C1373.17 327.775 1371.3 328.99 1371.3 331.44C1371.28 331.979 1371.4 332.513 1371.64 332.996C1371.88 333.479 1372.23 333.895 1372.67 334.209C1373.59 334.875 1374.84 335.207 1376.43 335.203V335.228ZM1377.14 309.072C1381.99 309.072 1385.71 310.228 1388.32 312.541C1390.92 314.854 1392.23 318.337 1392.24 322.992V340.877H1383.71V336.957C1382.01 339.862 1378.82 341.317 1374.16 341.323C1372.01 341.374 1369.88 340.956 1367.9 340.098C1366.26 339.385 1364.85 338.213 1363.85 336.722C1362.91 335.262 1362.43 333.557 1362.46 331.822C1362.41 330.497 1362.68 329.181 1363.25 327.985C1363.83 326.79 1364.68 325.753 1365.75 324.962C1367.94 323.296 1371.33 322.463 1375.91 322.463H1383.13C1383.13 320.477 1382.53 318.953 1381.33 317.892C1380.13 316.823 1378.32 316.289 1375.91 316.289C1374.24 316.289 1372.58 316.554 1370.99 317.073C1369.5 317.533 1368.12 318.251 1366.88 319.195L1363.62 312.825C1365.49 311.545 1367.57 310.6 1369.77 310.032C1372.17 309.371 1374.65 309.04 1377.14 309.047V309.072ZM1341.95 333.89C1343.02 333.922 1344.09 333.728 1345.07 333.321C1346.06 332.914 1346.96 332.303 1347.69 331.528C1349.18 329.954 1349.93 327.847 1349.93 325.207C1349.93 322.571 1349.18 320.459 1347.69 318.886C1346.16 317.377 1344.1 316.53 1341.96 316.53C1339.81 316.53 1337.75 317.377 1336.22 318.886C1334.73 320.459 1333.97 322.571 1333.97 325.207C1333.97 327.843 1334.73 329.955 1336.22 331.528C1336.96 332.3 1337.85 332.907 1338.84 333.309C1339.83 333.712 1340.89 333.902 1341.95 333.866V333.89ZM1343.52 309.072C1346.3 309.037 1349.05 309.731 1351.48 311.085C1353.85 312.401 1355.8 314.359 1357.1 316.735C1358.44 319.359 1359.13 322.262 1359.13 325.207C1359.13 328.152 1358.44 331.055 1357.1 333.679C1355.79 336.042 1353.84 337.99 1351.48 339.3C1349.05 340.656 1346.3 341.351 1343.52 341.314C1339.53 341.314 1336.39 340.053 1334.08 337.531V352.147H1325V309.517H1333.68V313.134C1335.94 310.416 1339.22 309.054 1343.52 309.047V309.072ZM1320.23 316.995H1309.63V340.877H1300.6V316.97H1290V309.513H1320.23V316.995ZM1274.45 341.343C1271.32 341.39 1268.23 340.68 1265.45 339.275C1262.85 337.95 1260.68 335.935 1259.16 333.453C1257.64 330.97 1256.84 328.117 1256.84 325.207C1256.84 322.298 1257.64 319.444 1259.16 316.962C1260.68 314.48 1262.85 312.465 1265.45 311.139C1268.23 309.732 1271.32 309.022 1274.45 309.072C1277.46 309.002 1280.44 309.714 1283.1 311.139C1285.5 312.454 1287.4 314.533 1288.49 317.049L1281.44 320.836C1279.81 317.968 1277.46 316.533 1274.39 316.529C1273.31 316.495 1272.22 316.684 1271.21 317.085C1270.2 317.485 1269.28 318.088 1268.51 318.857C1266.95 320.41 1266.18 322.527 1266.18 325.227C1266.18 327.927 1266.95 330.024 1268.51 331.597C1269.28 332.367 1270.2 332.972 1271.21 333.373C1272.22 333.774 1273.3 333.963 1274.39 333.929C1277.5 333.929 1279.85 332.49 1281.44 329.612L1288.49 333.459C1287.38 335.935 1285.48 337.979 1283.1 339.28C1280.44 340.706 1277.46 341.408 1274.45 341.318V341.343ZM1218.18 309.537H1227.21V328.157L1242.47 309.537H1250.8V340.897H1241.76V322.277L1226.57 340.897H1218.19L1218.18 309.537ZM1177.76 309.537H1186.78V321.787H1200.41V309.537H1209.5V340.897H1200.41V329.147H1186.78V340.853H1177.75L1177.76 309.537ZM1136.4 309.537H1145.43V328.157L1160.69 309.537H1169.02V340.897H1159.99V322.277L1144.8 340.897H1136.41L1136.4 309.537ZM1119.51 340.897V322.101L1110.13 337.83H1106.29L1097.14 322.042V340.858H1088.93V309.498H1098.43L1108.45 327.628L1119.1 309.498H1127.61L1127.73 340.858L1119.51 340.897ZM1059.24 321.032C1059.18 323.65 1058.93 326.26 1058.5 328.843C1058.14 330.857 1057.45 332.391 1056.44 333.439H1069.67V316.97H1059.38L1059.24 321.032ZM1083.25 333.439V347.649H1074.81V340.853H1052.76V347.63H1044.32V333.42H1045.6C1047.56 333.38 1048.9 332.237 1049.61 329.99C1050.33 327.742 1050.8 324.538 1051.02 320.376L1051.42 309.542H1078.74V333.42L1083.25 333.439ZM1026.55 324.948L1020.09 309.341L1013.62 324.948H1026.55ZM1029.52 332.116H1010.6L1006.98 340.853H997.312L1015.48 300.1H1024.79L1043.03 340.877H1033.13L1029.52 332.116ZM959.102 306.146C952.271 306.146 948.841 303.134 948.812 297.111H954.756C954.72 298.276 955.126 299.412 955.893 300.291C956.608 301.04 957.666 301.428 959.063 301.428C959.65 301.463 960.238 301.381 960.792 301.185C961.347 300.99 961.857 300.686 962.292 300.291C962.686 299.865 962.99 299.363 963.185 298.817C963.381 298.27 963.464 297.69 963.429 297.111H969.495C969.433 303.128 965.969 306.138 959.102 306.141V306.146ZM943.378 309.517H952.404V328.137L967.662 309.517H975.992V340.877H966.966V322.257L951.777 340.877H943.388L943.378 309.517ZM902.022 309.517H911.053V328.137L926.311 309.517H934.641V340.877H925.61V322.257L910.42 340.877H902.037L902.022 309.517ZM861.602 309.517H870.623V321.767H884.259V309.517H893.349V340.877H884.259V329.147H870.623V340.853H861.602V309.517ZM838.356 315.932C836.475 315.87 834.635 316.488 833.172 317.671C831.749 318.888 830.835 320.595 830.609 322.453H846.044C845.812 320.606 844.9 318.912 843.487 317.7C842.05 316.504 840.225 315.873 838.356 315.927V315.932ZM854.614 325.3C854.614 325.418 854.546 326.241 854.433 327.75H830.732C831.109 329.615 832.193 331.261 833.755 332.347C835.511 333.517 837.59 334.107 839.699 334.032C841.178 334.059 842.65 333.813 844.04 333.307C845.356 332.787 846.553 332.005 847.558 331.009L852.4 336.252C849.44 339.623 845.13 341.312 839.468 341.318C836.221 341.379 833.006 340.671 830.085 339.251C827.488 337.975 825.307 335.986 823.798 333.518C822.35 330.98 821.589 328.109 821.589 325.188C821.589 322.266 822.35 319.395 823.798 316.858C825.225 314.417 827.301 312.42 829.796 311.09C832.399 309.747 835.284 309.038 838.213 309.023C841.143 309.008 844.035 309.686 846.652 311.002C849.118 312.292 851.16 314.265 852.532 316.686C853.978 319.32 854.697 322.292 854.614 325.295V325.3ZM815.414 309.517V340.877H767.6V309.517H776.621V333.42H787.048V309.513H796.074V333.42H806.364V309.513L815.414 309.517ZM744.178 333.87C745.247 333.904 746.311 333.711 747.3 333.304C748.289 332.897 749.181 332.285 749.916 331.509C751.412 329.934 752.159 327.827 752.155 325.188C752.155 322.551 751.411 320.44 749.916 318.867C749.18 318.091 748.289 317.48 747.3 317.074C746.311 316.667 745.247 316.475 744.178 316.51C743.106 316.478 742.04 316.671 741.047 317.077C740.054 317.483 739.158 318.092 738.416 318.867C736.902 320.44 736.142 322.551 736.142 325.188C736.142 327.824 736.902 329.936 738.416 331.509C739.158 332.282 740.053 332.891 741.045 333.297C742.037 333.703 743.102 333.897 744.173 333.866L744.178 333.87ZM744.178 341.323C741.094 341.371 738.045 340.661 735.299 339.256C732.762 337.949 730.637 335.964 729.16 333.523C727.702 330.988 726.935 328.116 726.935 325.193C726.935 322.269 727.702 319.397 729.16 316.863C730.632 314.415 732.759 312.426 735.299 311.12C738.057 309.759 741.091 309.052 744.166 309.052C747.241 309.052 750.275 309.759 753.033 311.12C755.563 312.431 757.68 314.419 759.148 316.863C760.602 319.398 761.368 322.27 761.368 325.193C761.368 328.115 760.602 330.987 759.148 333.523C757.676 335.96 755.56 337.944 753.033 339.256C750.294 340.662 747.251 341.371 744.173 341.318L744.178 341.323ZM689.083 309.517H698.108V321.767H711.74V309.517H720.825V340.877H711.74V329.147H698.104V340.853H689.078L689.083 309.517ZM684.246 316.975H673.648V340.858H664.612V316.97H654.018V309.513H684.246V316.975ZM635.668 333.87C636.737 333.903 637.8 333.71 638.789 333.303C639.778 332.896 640.67 332.284 641.406 331.509C642.905 329.934 643.653 327.827 643.65 325.188C643.65 322.551 642.905 320.44 641.406 318.867C640.669 318.092 639.777 317.481 638.789 317.075C637.8 316.669 636.736 316.476 635.668 316.51C634.595 316.478 633.528 316.671 632.534 317.077C631.541 317.483 630.644 318.093 629.9 318.867C628.391 320.44 627.632 322.551 627.632 325.188C627.632 327.824 628.391 329.936 629.9 331.509C630.643 332.282 631.54 332.891 632.532 333.297C633.525 333.702 634.591 333.896 635.663 333.866L635.668 333.87ZM635.668 341.323C632.584 341.371 629.535 340.661 626.789 339.256C624.249 337.952 622.121 335.967 620.644 333.523C619.19 330.987 618.424 328.115 618.424 325.193C618.424 322.27 619.19 319.398 620.644 316.863C622.116 314.412 624.245 312.423 626.789 311.12C629.547 309.759 632.58 309.052 635.655 309.052C638.731 309.052 641.764 309.759 644.522 311.12C647.052 312.432 649.169 314.42 650.637 316.863C652.088 319.399 652.852 322.27 652.852 325.193C652.852 328.115 652.088 330.986 650.637 333.523C649.164 335.959 647.048 337.942 644.522 339.256C641.784 340.662 638.741 341.37 635.663 341.318L635.668 341.323ZM1314.35 405.553C1315.8 405.576 1317.23 405.202 1318.48 404.47C1319.68 403.75 1320.59 402.626 1321.04 401.299V398.1H1314.81C1311.08 398.1 1309.22 399.33 1309.22 401.77C1309.2 402.308 1309.32 402.843 1309.56 403.326C1309.8 403.808 1310.15 404.225 1310.59 404.538C1311.7 405.273 1313.02 405.629 1314.35 405.553ZM1315.04 379.391C1319.9 379.391 1323.62 380.548 1326.22 382.861C1328.82 385.174 1330.13 388.659 1330.14 393.317V411.197H1321.64V407.277C1319.93 410.217 1316.74 411.643 1312.09 411.643C1309.94 411.698 1307.8 411.282 1305.83 410.423C1304.18 409.713 1302.77 408.54 1301.77 407.047C1300.84 405.587 1300.35 403.882 1300.38 402.147C1300.38 399.207 1301.47 396.943 1303.67 395.287C1305.87 393.631 1309.25 392.773 1313.83 392.773H1321.04C1321.04 390.813 1320.44 389.27 1319.24 388.202C1318.04 387.133 1316.23 386.599 1313.82 386.599C1312.15 386.603 1310.5 386.869 1308.92 387.388C1307.43 387.844 1306.04 388.565 1304.81 389.515L1301.55 383.145C1303.42 381.869 1305.5 380.923 1307.7 380.347C1310.09 379.7 1312.56 379.378 1315.04 379.391ZM1298.04 387.32H1281.96V411.202H1272.93V379.842H1298.04V387.32ZM1249.4 404.21C1250.47 404.245 1251.53 404.053 1252.52 403.648C1253.51 403.243 1254.4 402.633 1255.14 401.858C1256.63 400.28 1257.38 398.173 1257.38 395.537C1257.38 392.891 1256.63 390.789 1255.14 389.216C1253.61 387.702 1251.55 386.853 1249.4 386.853C1247.25 386.853 1245.19 387.702 1243.66 389.216C1242.17 390.789 1241.42 392.891 1241.42 395.537C1241.42 398.183 1242.17 400.28 1243.66 401.858C1244.4 402.632 1245.29 403.242 1246.28 403.646C1247.27 404.051 1248.33 404.241 1249.4 404.205V404.21ZM1250.97 379.396C1253.75 379.36 1256.49 380.054 1258.92 381.41C1261.29 382.73 1263.24 384.687 1264.54 387.06C1265.88 389.684 1266.58 392.588 1266.58 395.535C1266.58 398.481 1265.88 401.385 1264.54 404.009C1263.24 406.382 1261.29 408.339 1258.92 409.659C1256.49 411.007 1253.75 411.698 1250.97 411.663C1246.97 411.663 1243.83 410.402 1241.53 407.88V422.502H1232.45V379.872H1241.13V383.483C1243.38 380.759 1246.66 379.395 1250.97 379.391V379.396ZM1228.14 379.886L1213.99 413.143C1212.55 416.759 1210.77 419.302 1208.65 420.772C1206.4 422.291 1203.72 423.064 1201 422.982C1199.36 422.983 1197.73 422.73 1196.16 422.232C1194.73 421.814 1193.39 421.1 1192.24 420.135L1195.57 413.667C1196.28 414.3 1197.09 414.798 1197.98 415.137C1198.84 415.48 1199.76 415.659 1200.69 415.666C1201.77 415.713 1202.84 415.396 1203.72 414.765C1204.65 413.945 1205.37 412.918 1205.82 411.766L1205.93 411.467L1192.36 379.901H1201.74L1210.56 401.162L1219.4 379.901L1228.14 379.886ZM1174.38 404.876C1175.42 404.919 1176.46 404.738 1177.43 404.346C1178.4 403.954 1179.28 403.36 1180 402.603C1181.44 401.037 1182.2 398.967 1182.13 396.84C1182.13 394.469 1181.42 392.584 1180 391.186C1178.58 389.789 1176.71 389.084 1174.38 389.084C1172.05 389.084 1170.11 389.789 1168.67 391.186C1167.24 392.582 1166.52 394.469 1166.52 396.84C1166.48 397.904 1166.65 398.965 1167.03 399.96C1167.41 400.954 1167.99 401.861 1168.73 402.627C1169.47 403.366 1170.35 403.945 1171.32 404.328C1172.29 404.711 1173.33 404.889 1174.38 404.852V404.876ZM1176.53 382.037C1179.26 381.981 1181.96 382.613 1184.37 383.875C1186.58 385.048 1188.39 386.839 1189.59 389.03C1190.85 391.394 1191.48 394.04 1191.43 396.718C1191.5 399.502 1190.75 402.245 1189.28 404.61C1187.81 406.975 1185.69 408.859 1183.16 410.031C1180.39 411.325 1177.36 411.971 1174.31 411.918C1168.83 411.918 1164.53 410.16 1161.4 406.645C1158.28 403.13 1156.72 397.977 1156.71 391.186C1156.71 384.891 1158.08 379.873 1160.82 376.133C1163.55 372.393 1167.75 369.943 1173.43 368.783L1188.34 365.809L1189.57 373.614L1176.4 376.241C1172.81 376.937 1170.16 378.1 1168.45 379.73C1166.74 381.36 1165.72 383.669 1165.39 386.658C1166.76 385.185 1168.43 384.025 1170.29 383.258C1172.26 382.424 1174.39 382 1176.53 382.013V382.037ZM1118 379.886H1127V392.136H1140.64V379.886H1149.72V411.246H1140.64V399.535H1127V411.246H1117.98L1118 379.886ZM1076.64 379.886H1085.67V398.531L1100.93 379.886H1109.26V411.246H1100.24V392.626L1085.05 411.246H1076.66L1076.64 379.886ZM1053.12 404.23C1054.19 404.265 1055.25 404.073 1056.24 403.668C1057.23 403.263 1058.12 402.652 1058.86 401.878C1060.35 400.3 1061.1 398.193 1061.1 395.557C1061.1 392.911 1060.35 390.808 1058.86 389.236C1057.33 387.722 1055.27 386.873 1053.12 386.873C1050.97 386.873 1048.91 387.722 1047.39 389.236C1045.88 390.808 1045.14 392.911 1045.14 395.557C1045.14 398.203 1045.88 400.3 1047.39 401.878C1048.12 402.648 1049.01 403.254 1050 403.656C1050.99 404.057 1052.05 404.244 1053.12 404.205L1053.12 404.23ZM1054.69 379.416C1057.47 379.379 1060.21 380.073 1062.64 381.43C1065.01 382.748 1066.95 384.706 1068.26 387.08C1069.6 389.703 1070.3 392.608 1070.3 395.554C1070.3 398.501 1069.6 401.405 1068.26 404.029C1066.95 406.402 1065.01 408.36 1062.64 409.678C1060.21 411.027 1057.47 411.718 1054.69 411.682C1050.69 411.682 1047.54 410.422 1045.25 407.9V422.521H1036.17V379.891H1044.85V383.503C1047.09 380.754 1050.38 379.391 1054.68 379.391L1054.69 379.416ZM1012.99 386.276C1011.11 386.218 1009.27 386.839 1007.8 388.025C1006.38 389.237 1005.46 390.941 1005.24 392.798H1020.67C1020.43 390.954 1019.52 389.264 1018.11 388.055C1016.67 386.853 1014.85 386.217 1012.98 386.266L1012.99 386.276ZM1029.23 395.65C1029.23 395.762 1029.17 396.581 1029.05 398.1H1005.35C1005.73 399.967 1006.81 401.617 1008.38 402.701C1010.13 403.879 1012.21 404.472 1014.32 404.396C1015.8 404.42 1017.27 404.171 1018.66 403.661C1019.98 403.143 1021.18 402.361 1022.18 401.363L1027.02 406.606C1024.08 409.981 1019.77 411.668 1014.08 411.668C1010.84 411.732 1007.63 411.025 1004.71 409.605C1002.11 408.334 999.925 406.343 998.424 403.867C996.924 401.351 996.156 398.466 996.205 395.537C996.167 392.623 996.922 389.754 998.39 387.236C999.815 384.785 1001.89 382.778 1004.39 381.44C1007 380.095 1009.88 379.386 1012.81 379.372C1015.74 379.357 1018.64 380.037 1021.25 381.356C1023.71 382.649 1025.74 384.621 1027.1 387.035C1028.57 389.667 1029.3 392.64 1029.23 395.65ZM995.22 387.32H984.616V411.202H975.59V387.32H964.992V379.862H995.225L995.22 387.32ZM945.21 405.553C946.662 405.575 948.092 405.2 949.346 404.47C950.548 403.749 951.456 402.626 951.909 401.299V398.1H945.652C941.923 398.1 940.056 399.33 940.056 401.77C940.04 402.308 940.156 402.842 940.395 403.324C940.633 403.807 940.986 404.224 941.423 404.538C942.542 405.278 943.871 405.634 945.21 405.553ZM945.911 379.391C950.762 379.391 954.489 380.548 957.093 382.861C959.697 385.174 961.003 388.659 961.013 393.317V411.197H952.463V407.277C950.752 410.217 947.563 411.643 942.912 411.643C940.761 411.698 938.624 411.281 936.65 410.423C935.002 409.712 933.595 408.54 932.598 407.047C931.664 405.585 931.18 403.881 931.206 402.147C931.206 399.207 932.299 396.943 934.499 395.287C936.699 393.631 940.08 392.773 944.657 392.773H951.884C951.884 390.813 951.282 389.27 950.076 388.202C948.871 387.133 947.068 386.599 944.657 386.599C942.992 386.603 941.338 386.869 939.757 387.388C938.271 387.846 936.878 388.566 935.646 389.515L932.387 383.145C934.263 381.869 936.342 380.923 938.537 380.347C940.933 379.699 943.405 379.378 945.887 379.391H945.911ZM910.729 399.32H906.01V411.197H896.897V379.837H906.01V392.009H910.91L919.417 379.837H929.04L918.094 394.866L929.8 411.173H919.093L910.729 399.32ZM889.988 403.622V411.197H858.422V370.424H889.233V378.01H867.791V386.83H886.724V394.18H867.791V403.612L889.988 403.622ZM818.114 405.553C819.556 405.571 820.976 405.197 822.221 404.47C823.425 403.752 824.334 402.628 824.783 401.299V398.1H818.55C814.826 398.1 812.964 399.33 812.964 401.77C812.946 402.308 813.061 402.842 813.299 403.325C813.536 403.808 813.889 404.224 814.327 404.538C815.439 405.272 816.759 405.628 818.09 405.553H818.114ZM818.815 379.391C823.666 379.391 827.392 380.548 829.992 382.861C832.592 385.174 833.899 388.659 833.912 393.317V411.197H825.406V407.277C823.705 410.217 820.506 411.643 815.855 411.643C813.706 411.696 811.57 411.28 809.598 410.423C807.951 409.713 806.545 408.54 805.551 407.047C804.613 405.587 804.128 403.882 804.154 402.147C804.154 399.207 805.252 396.943 807.437 395.287C809.623 393.631 813.023 392.773 817.6 392.773H824.827C824.827 390.813 824.22 389.27 823.024 388.202C821.829 387.133 820.011 386.599 817.6 386.599C815.935 386.602 814.281 386.869 812.7 387.388C811.214 387.844 809.823 388.565 808.594 389.515L805.335 383.145C807.206 381.867 809.283 380.92 811.475 380.347C813.86 379.704 816.32 379.382 818.791 379.391H818.815ZM776.935 391.333C776.873 393.949 776.627 396.557 776.2 399.138C775.837 401.157 775.148 402.691 774.132 403.74H787.362V387.32H777.111L776.935 391.333ZM800.945 403.74V417.95H792.492V411.197H770.477V417.955H762.029V403.745H763.313C765.273 403.71 766.596 402.559 767.331 400.315C768.066 398.07 768.536 394.856 768.732 390.706L769.139 379.872H796.456V403.749L800.945 403.74ZM742.87 404.23C743.938 404.266 745.001 404.075 745.989 403.669C746.977 403.264 747.868 402.653 748.603 401.878C750.102 400.3 750.85 398.193 750.847 395.557C750.847 392.911 750.102 390.808 748.603 389.236C747.87 388.446 746.977 387.823 745.983 387.408C744.989 386.993 743.917 386.796 742.841 386.83C741.767 386.797 740.699 386.99 739.705 387.397C738.712 387.803 737.815 388.415 737.073 389.191C735.559 390.764 734.805 392.866 734.805 395.512C734.805 398.158 735.559 400.256 737.073 401.833C737.814 402.611 738.711 403.224 739.705 403.633C740.698 404.041 741.767 404.236 742.841 404.205L742.87 404.23ZM742.87 411.682C739.784 411.734 736.733 411.026 733.986 409.62C731.444 408.318 729.317 406.33 727.847 403.882C726.392 401.346 725.627 398.475 725.627 395.552C725.627 392.629 726.392 389.757 727.847 387.222C729.304 384.764 731.418 382.761 733.952 381.44C736.699 380.032 739.75 379.322 742.836 379.372C745.911 379.32 748.951 380.03 751.685 381.44C754.215 382.752 756.333 384.737 757.805 387.178C759.256 389.714 760.02 392.585 760.02 395.508C760.02 398.43 759.256 401.301 757.805 403.838C756.336 406.28 754.217 408.266 751.685 409.575C748.954 410.989 745.915 411.705 742.841 411.658L742.87 411.682ZM704.65 404.23C705.719 404.266 706.784 404.075 707.774 403.67C708.764 403.264 709.656 402.654 710.393 401.878C711.889 400.3 712.635 398.193 712.632 395.557C712.632 392.911 711.887 390.808 710.393 389.236C708.867 387.722 706.804 386.873 704.655 386.873C702.505 386.873 700.443 387.722 698.917 389.236C697.447 390.808 696.678 392.911 696.678 395.557C696.678 398.203 697.422 400.3 698.917 401.878C699.651 402.644 700.538 403.248 701.521 403.649C702.504 404.05 703.56 404.239 704.621 404.205L704.65 404.23ZM706.233 379.416C709.012 379.381 711.753 380.076 714.18 381.43C716.546 382.749 718.494 384.707 719.801 387.08C721.142 389.703 721.841 392.608 721.841 395.554C721.841 398.501 721.142 401.405 719.801 404.029C718.494 406.401 716.546 408.359 714.18 409.678C711.75 411.025 709.011 411.716 706.233 411.682C702.228 411.682 699.082 410.422 696.795 407.9V422.521H687.706V379.891H696.384V383.503C698.608 380.765 701.881 379.395 706.203 379.391L706.233 379.416ZM664.347 404.23C665.416 404.266 666.48 404.075 667.469 403.67C668.458 403.264 669.35 402.653 670.085 401.878C671.585 400.3 672.333 398.193 672.33 395.557C672.33 392.911 671.585 390.808 670.085 389.236C669.351 388.457 668.46 387.844 667.471 387.437C666.481 387.03 665.417 386.838 664.347 386.874C663.275 386.841 662.207 387.034 661.215 387.441C660.222 387.848 659.326 388.459 658.585 389.236C657.066 390.808 656.316 392.911 656.316 395.557C656.316 398.203 657.066 400.3 658.585 401.878C659.326 402.643 660.218 403.246 661.206 403.647C662.193 404.048 663.253 404.238 664.318 404.205L664.347 404.23ZM664.347 411.682C661.263 411.734 658.214 411.026 655.469 409.62C652.926 408.317 650.797 406.33 649.324 403.882C647.873 401.345 647.109 398.474 647.109 395.552C647.109 392.629 647.873 389.758 649.324 387.222C650.786 384.764 652.903 382.762 655.439 381.44C658.198 380.08 661.232 379.372 664.308 379.372C667.384 379.372 670.419 380.08 673.177 381.44C675.705 382.753 677.821 384.739 679.292 387.178C680.741 389.715 681.503 392.586 681.503 395.508C681.503 398.429 680.741 401.3 679.292 403.838C677.824 406.279 675.707 408.265 673.177 409.575C670.441 410.99 667.398 411.706 664.318 411.658L664.347 411.682ZM646.09 387.32H630.008V411.202H620.987V379.842H646.09V387.32ZM663.73 122.132V138.262H654.988V129.815H626.221V138.258H617.489L617.548 122.127H619.179C621.629 122.043 623.354 120.26 624.363 116.766C625.373 113.272 625.99 108.279 626.221 101.797L626.711 89.0566H658.071V122.141L663.73 122.132Z" fill="black"/>
</svg>
