<svg xmlns="http://www.w3.org/2000/svg" viewBox="0 0 200 200"><defs><style>.a{fill:#82be00;}.b{fill:#fff;}</style></defs><circle class="a" cx="100" cy="100" r="100"/><path class="b" d="M69.83,126.19V143h-15V126.19C36.45,123.26,26.49,109,26.49,93.59a37.28,37.28,0,0,1,6.05-20.31A32.35,32.35,0,0,1,32,67a30.36,30.36,0,0,1,60.72,0,32.34,32.34,0,0,1-.59,6.25,37.78,37.78,0,0,1,6,20.31C98.14,109,88.38,123.46,69.83,126.19Zm86.1,41.39H44.65V153.14H155.93ZM130.75,143h15V119.16a102,102,0,0,0,22.65,10.94l5.08-13.28C160,111.94,146.56,104.91,138,93c-8.39,11.91-22.06,18.94-35.53,23.82l5.27,13.28a110.18,110.18,0,0,0,23-11.13Zm32.6-46.27,5.08-13.28c-11.52-4.1-23.62-10.34-30.46-20.89C131.14,73.09,119,79.33,107.52,83.43l5.27,13.28c8.78-3.12,17.76-6.44,25.18-12.3C145.59,90.27,154.37,93.59,163.35,96.71Zm-5.07-32.8,5.07-13.47c-9.37-3.12-19.91-8.2-25.38-17-5.27,8.79-15.81,13.87-25.18,17l5.07,13.47c7-2.54,14.06-5.47,20.11-9.76A84.92,84.92,0,0,0,158.28,63.91Z"/></svg>