<svg fill="none" height="313" viewBox="0 0 500 313" width="500" xmlns="http://www.w3.org/2000/svg" xmlns:xlink="http://www.w3.org/1999/xlink"><clipPath id="a"><path d="m0 0h500v313h-500z"/></clipPath><mask id="b" height="313" maskUnits="userSpaceOnUse" width="500" x="0" y="0"><path d="m0 0h500v313h-500z" fill="#fff"/></mask><g clip-path="url(#a)"><g mask="url(#b)"><g opacity=".6" stroke-miterlimit="22.9256"><path d="m134.238 239.2c7.615 0 13.788 12.054 13.788 26.924s-6.173 26.924-13.788 26.924" stroke="#7dc55c" stroke-width="2.8346"/><path d="m105.559 295.596c-7.6142 0-13.7875-12.055-13.7875-26.924 0-13.841 5.3479-25.242 12.2285-26.754" stroke="#7dc55c" stroke-width="2.8346"/><path d="m152.902 290.832c5.112 0 9.256-8.092 9.256-18.074s-4.144-18.074-9.256-18.074-9.256 8.092-9.256 18.074 4.144 18.074 9.256 18.074z" stroke="#7dc55c" stroke-width="2.8346"/><path d="m348.992 295.596c5.112 0 9.256-8.092 9.256-18.074 0-9.983-4.144-18.075-9.256-18.075s-9.256 8.092-9.256 18.075c0 9.982 4.144 18.074 9.256 18.074z" stroke="#7dc55c" stroke-width="2.8346"/><path d="m152.902 312.574v-57.89" stroke="#7dc55c" stroke-width="2.8346"/><path d="m349.16 312.573v-53.126" stroke="#7dc55c" stroke-width="2.8346"/><path d="m72.7921 223.859c10.0208 0 18.144 15.863 18.144 35.43 0 19.568-8.1232 35.43-18.144 35.43s-18.1437-15.862-18.1437-35.43c0-19.567 8.1232-35.43 18.1437-35.43z" stroke="#7dc55c" stroke-width="2.8346"/><path d="m72.793 311.809v-87.95" stroke="#7dc55c" stroke-width="2.8346"/><path d="m394.141 291.5c2.303 2.068 4.867 3.22 7.568 3.22 10.021 0 18.144-15.862 18.144-35.43s-8.123-35.431-18.144-35.431c-1.583 0-3.12.397-4.584 1.141" stroke="#7dc55c" stroke-width="2.8346"/><path d="m424.141 239.2c7.615 0 13.788 12.054 13.788 26.924s-6.173 26.924-13.788 26.924-13.787-12.054-13.787-26.924 6.172-26.924 13.787-26.924z" stroke="#7dc55c" stroke-width="2.8346"/><path d="m424.141 312.573v-73.374" stroke="#7dc55c" stroke-width="2.8346"/><path d="m454.893 239.2c7.615 0 13.788 12.054 13.788 26.924s-6.173 26.924-13.788 26.924-13.788-12.054-13.788-26.924 6.173-26.924 13.788-26.924z" stroke="#7dc55c" stroke-width="2.8346"/><path d="m454.893 312.573v-73.374" stroke="#7dc55c" stroke-width="2.8346"/><path d="m41.3209 241.748c7.6144 0 13.7874 12.054 13.7874 26.924s-6.173 26.924-13.7874 26.924-13.7877-12.054-13.7877-26.924 6.173-26.924 13.7877-26.924z" stroke="#7dc55c" stroke-width="2.8346"/><path d="m41.3203 311.81v-70.062" stroke="#7dc55c" stroke-width="2.8346"/><path d="m468.681 259.447c5.112 0 9.256 8.092 9.256 18.074 0 9.983-4.144 18.075-9.256 18.075-5.111 0-9.255-8.092-9.255-18.075 0-9.982 4.144-18.074 9.255-18.074z" stroke="#7dc55c" stroke-width="2.8346"/><path d="m30.0391 253.188 11.2813 15.483" stroke="#7dc55c" stroke-width="1.984"/><path d="m59.2363 238.663 13.5584 16.02" stroke="#7dc55c" stroke-width="1.984"/><path d="m93.8809 251.548 11.2811 15.483" stroke="#7dc55c" stroke-width="1.984"/><path d="m401.506 312.573v-88.443" stroke="#7dc55c" stroke-width="2.8346"/><path d="m468.682 312.574v-53.108" stroke="#7dc55c" stroke-width="2.8346"/><g stroke-width="1.984"><path d="m435.258 251.548-11.281 15.483" stroke="#7dc55c"/><path d="m465.067 246.941-9.944 13.516" stroke="#7dc55c"/><path d="m446.715 244.149 8.178 9.664" stroke="#7dc55c"/><path d="m443.379 251.785 11.286 13.335" stroke="#7dc55c"/><path d="m10.5645 267.898v44.019" stroke="#7dc55c"/><path d="m1.99805 267.791v44.018" stroke="#7dc55c"/><path d="m297.485 227.528h-9.35l-1.334-4.132h12.017z" stroke="#7dc55c"/><path d="m290.704 245.902h4.4l1.143-8.4h-6.876z" stroke="#7dc55c"/><path d="m299.188 294.203h-12.756v13.606h12.756z" stroke="#7dc55c"/><path d="m310.525 307.81h-35.433v4.535h35.433z" stroke="#7dc55c"/><path d="m294.936 294.203v-48.189" stroke="#7dc55c"/><path d="m290.684 294.203v-48.189" stroke="#7dc55c"/><path d="m275.092 307.809v-88.724" stroke="#7dc55c"/><path d="m290.684 223.337v-19.273" stroke="#7dc55c"/><path d="m294.936 223.396v-15.123-18.953" stroke="#7dc55c"/><path d="m290.652 211.132v-21.83" stroke="#7dc55c"/><path d="m296.352 227.589v9.913" stroke="#7dc55c"/><path d="m289.266 226.675v10.827" stroke="#7dc55c"/><path d="m290.651 189.301-1.333-8.4h6.981l-1.249 8.4z" stroke="#7dc55c"/><path d="m275.092 219.085c0-6.766-2.688-13.255-7.472-18.04-4.785-4.784-11.274-7.472-18.04-7.472s-13.255 2.688-18.039 7.472c-4.785 4.785-7.473 11.274-7.473 18.04" stroke="#7dc55c"/><path d="m224.068 223.337v89.008" stroke="#adc0c5"/><path d="m290.684 176.565v4.337" stroke="#7dc55c"/><path d="m294.936 176.565v4.337" stroke="#7dc55c"/><path d="m297.485 176.712h-9.35l-1.334-4.132h12.017z" stroke="#7dc55c"/><path d="m361.549 309.09v-81.562" stroke="#7dc55c"/><path d="m188.637 227.589c0-6.766-2.688-13.255-7.472-18.04-4.785-4.784-11.274-7.472-18.04-7.472s-13.255 2.688-18.039 7.472c-4.785 4.785-7.473 11.274-7.473 18.04" stroke="#7dc55c"/><path d="m310.525 227.589v84.756" stroke="#7dc55c"/><path d="m297.531 176.565h77.012" stroke="#7dc55c"/><path d="m203.28 176.712h-78.598" stroke="#7dc55c"/><path d="m188.635 307.4v-79.983" stroke="#7dc55c"/><path d="m137.697 227.589v83.059" stroke="#7dc55c"/><path d="m204.27 176.418v4.336" stroke="#adc0c5"/><path d="m208.521 176.418v4.336" stroke="#adc0c5"/><path d="m383.942 227.528h-9.35l-1.334-4.132h12.018z" stroke="#7dc55c"/><path d="m377.161 245.902h4.4l1.143-8.4h-6.876z" stroke="#7dc55c"/><path d="m385.645 294.203h-12.756v13.606h12.756z" stroke="#7dc55c"/><path d="m396.982 307.81h-35.433v4.535h35.433z" stroke="#7dc55c"/><path d="m381.393 294.203v-48.189" stroke="#7dc55c"/><path d="m377.141 294.203v-48.189" stroke="#7dc55c"/><path d="m377.141 223.337v-19.273" stroke="#7dc55c"/><path d="m381.393 223.396v-15.123-18.953" stroke="#7dc55c"/><path d="m377.107 211.132v-21.83" stroke="#7dc55c"/><path d="m382.809 227.589v10.88" stroke="#7dc55c"/><path d="m375.723 226.675v10.599" stroke="#7dc55c"/><path d="m377.108 189.301-1.333-8.4h6.982l-1.249 8.4z" stroke="#7dc55c"/><path d="m377.141 176.565v4.337" stroke="#7dc55c"/><path d="m381.393 176.565v4.337" stroke="#7dc55c"/><path d="m383.942 176.712h-9.35l-1.334-4.132h12.018z" stroke="#7dc55c"/><path d="m124.68 227.528h-9.35l-1.334-4.132h12.017z" stroke="#7dc55c"/><path d="m117.771 246.014h4.4l1.143-8.4h-6.876z" stroke="#7dc55c"/><path d="m126.383 294.203h-12.756v13.606h12.756z" stroke="#7dc55c"/><path d="m137.722 307.81h-35.433v4.535h35.433z" stroke="#7dc55c"/><path d="m122.131 294.203v-48.189" stroke="#7dc55c"/><path d="m117.879 223.337v-19.273" stroke="#7dc55c"/><path d="m122.131 223.396v-15.123-18.953" stroke="#7dc55c"/><path d="m117.848 211.132v-21.83" stroke="#7dc55c"/><path d="m123.549 227.144v9.667" stroke="#7dc55c"/><path d="m116.461 226.675v10.599" stroke="#adc0c5"/><path d="m117.849 189.301-1.333-8.4h6.981l-1.249 8.4z" stroke="#7dc55c"/><path d="m117.879 176.565v4.337" stroke="#7dc55c"/><path d="m122.131 176.565v4.337" stroke="#7dc55c"/><path d="m124.68 176.712h-9.35l-1.334-4.132h12.017z" stroke="#7dc55c"/><path d="m224.043 219.085v91.563" stroke="#7dc55c"/><path d="m211.028 227.528h-9.35l-1.334-4.132h12.017z" stroke="#7dc55c"/><path d="m204.246 245.902h4.401l1.143-8.4h-6.876z" stroke="#7dc55c"/><path d="m212.731 294.203h-12.756v13.606h12.756z" stroke="#7dc55c"/><path d="m224.07 307.81h-35.433v4.535h35.433z" stroke="#7dc55c"/><path d="m208.479 294.203v-48.189" stroke="#7dc55c"/><path d="m204.227 294.203v-48.189" stroke="#7dc55c"/><path d="m204.227 223.337v-19.273" stroke="#7dc55c"/><path d="m208.479 223.396v-15.123-18.953" stroke="#7dc55c"/><path d="m204.195 211.132v-21.83" stroke="#7dc55c"/><path d="m209.896 226.856v9.914" stroke="#7dc55c"/><path d="m202.807 226.675v10.142" stroke="#7dc55c"/><path d="m204.194 189.301-1.333-8.4h6.981l-1.248 8.4z" stroke="#7dc55c"/><path d="m204.227 176.565v4.337" stroke="#7dc55c"/><path d="m208.479 176.565v4.337" stroke="#7dc55c"/><path d="m211.028 176.712h-9.35l-1.334-4.132h12.017z" stroke="#7dc55c"/><path d="m389.896 307.809v-61.795" stroke="#7dc55c"/><path d="m394.148 307.809v-61.795" stroke="#7dc55c"/><path d="m377.14 180.901h-82.204" stroke="#7dc55c"/><path d="m204.226 180.901h-82.205" stroke="#7dc55c"/><path d="m389.802 246.014h4.399l1.144-8.4h-6.876z" stroke="#7dc55c"/><path d="m380.867 237.502h13.281v-9.913h-11.732-.872" stroke="#7dc55c"/><path d="m383.941 227.529 12.387-.06 1.333-4.132h-12.017" stroke="#7dc55c"/><path d="m137.697 227.589h50.939" stroke="#7dc55c"/><path d="m208.479 172.58 40.781-18.669 41.103 18.816" stroke="#7dc55c"/><path d="m310.525 227.589h50.939" stroke="#7dc55c"/><path d="m109.272 246.014h-4.4l-1.143-8.4h6.875z" stroke="#7dc55c"/><path d="m118.207 237.502h-13.28l-.001-9.913h11.732.872" stroke="#7dc55c"/><path d="m115.132 227.529-12.387-.06-1.333-4.132h12.017" stroke="#7dc55c"/><path d="m117.77 294.203v-48.189" stroke="#7dc55c"/><path d="m116.352 227.589v10.88" stroke="#7dc55c"/><path d="m109.266 307.809v-61.795" stroke="#7dc55c"/><path d="m105.014 307.809v-61.795" stroke="#7dc55c"/><path d="m377.141 227.528h-12.756" stroke="#7dc55c"/><path d="m373.648 237.502h-8.503" stroke="#7dc55c"/><path d="m297.77 227.589h9.921" stroke="#7dc55c"/><path d="m298.479 237.502h9.921" stroke="#7dc55c"/><path d="m287.849 227.589h-9.921" stroke="#7dc55c"/><path d="m287.849 237.502h-9.921" stroke="#7dc55c"/><path d="m208.479 227.528 12.755.06" stroke="#7dc55c"/><path d="m211.881 237.502h9.354" stroke="#7dc55c"/><path d="m204.227 227.589h-13.741" stroke="#7dc55c"/><path d="m200.616 237.502h-9.354" stroke="#7dc55c"/><path d="m122.021 227.589h12.756" stroke="#7dc55c"/><path d="m125.424 237.502h9.354" stroke="#7dc55c"/><path d="m112.992 223.337h4.887" stroke="#7dc55c"/><path d="m361.549 227.589c0-6.766-2.688-13.255-7.472-18.04-4.785-4.784-11.274-7.472-18.04-7.472s-13.255 2.688-18.039 7.472c-4.785 4.785-7.473 11.274-7.473 18.04" stroke="#7dc55c"/><path d="m200.345 223.397-8.929-.102" stroke="#7dc55c"/><path d="m212.361 223.397 8.873-.102" stroke="#7dc55c"/><path d="m126.014 223.397 9.078-.06" stroke="#7dc55c"/><path d="m286.615 223.337h-8.437" stroke="#7dc55c"/><path d="m299.188 223.337h8.305" stroke="#7dc55c"/><path d="m373.258 223.397-8.873-.06" stroke="#7dc55c"/><path d="m126.014 172.58h78.212" stroke="#7dc55c"/><path d="m299.188 172.58h77.952" stroke="#7dc55c"/><path d="m310.525 312.061h51.024" stroke="#adc0c5"/><path d="m221.234 218.866v88.812" stroke="#7dc55c"/><path d="m277.928 218.998v88.812" stroke="#7dc55c"/><path d="m277.927 219.085c0-7.518-2.986-14.728-8.302-20.044s-12.526-8.303-20.044-8.303-14.728 2.987-20.044 8.303-8.303 12.526-8.303 20.044" stroke="#7dc55c"/><path d="m307.705 226.454v81.355" stroke="#7dc55c"/><path d="m364.424 227.589v79.855" stroke="#7dc55c"/><path d="m364.384 227.589c.007-3.727-.721-7.419-2.142-10.864-1.422-3.445-3.508-6.576-6.141-9.214s-5.76-4.731-9.203-6.159-7.133-2.163-10.86-2.163-7.417.735-10.86 2.163-6.57 3.521-9.203 6.159-4.72 5.769-6.141 9.214-2.15 7.137-2.143 10.864" stroke="#7dc55c"/><path d="m310.525 312.344h51.024" stroke="#7dc55c"/><path d="m134.777 226.166v81.355" stroke="#7dc55c"/><path d="m191.47 227.589c0-7.518-2.986-14.728-8.302-20.044s-12.526-8.303-20.044-8.303-14.728 2.987-20.044 8.303-8.303 12.526-8.303 20.044" stroke="#7dc55c"/><path d="m191.475 227.776v80.221" stroke="#7dc55c"/><path d="m137.613 312.344h51.024" stroke="#7dc55c"/><path d="m224.068 312.345h51.024" stroke="#7dc55c"/><path d="m1.0293 267.982 99.1737.284" stroke="#7dc55c"/><path d="m1 312.344h104.005" stroke="#7dc55c"/><path d="m400.217 268.066 99.512.284" stroke="#7dc55c"/><path d="m394.102 312.345h105.632" stroke="#7dc55c"/><path d="m19.1309 268.124v44.018" stroke="#7dc55c"/><path d="m28.2656 267.791v44.018" stroke="#7dc55c"/><path d="m36.8906 267.791v44.018" stroke="#7dc55c"/><path d="m45.5117 267.791v44.018" stroke="#7dc55c"/><path d="m54.1836 267.791v44.018" stroke="#7dc55c"/><path d="m63.8848 267.791v44.018" stroke="#7dc55c"/><path d="m81.7031 267.791v44.018" stroke="#7dc55c"/><path d="m90.4004 267.791v44.018" stroke="#7dc55c"/><path d="m32.7676 247.553 8.5527 11.737" stroke="#7dc55c"/><path d="m402.766 267.898v44.019" stroke="#7dc55c"/><path d="m411.346 267.898v44.019" stroke="#7dc55c"/><path d="m420.135 267.898v44.019" stroke="#7dc55c"/><path d="m428.83 267.898v44.019" stroke="#7dc55c"/><path d="m437.525 267.898v44.019" stroke="#7dc55c"/><path d="m446.244 267.898v44.019" stroke="#7dc55c"/><path d="m454.84 267.898v44.019" stroke="#7dc55c"/><path d="m463.914 267.898v44.019" stroke="#7dc55c"/><path d="m472.633 267.898v44.019" stroke="#7dc55c"/><path d="m481.301 267.898v44.019" stroke="#7dc55c"/><path d="m490.02 267.898v44.019" stroke="#7dc55c"/><path d="m498.738 267.898v44.019" stroke="#7dc55c"/><path d="m65.1133 307.806h6.008" stroke="#7dc55c"/><path d="m74.4648 307.806h6.008" stroke="#7dc55c"/><path d="m56.6445 307.806h6.008" stroke="#7dc55c"/><path d="m82.9316 307.806h6.008" stroke="#7dc55c"/><path d="m46.8438 307.806h6.008" stroke="#7dc55c"/><path d="m38.1719 307.806h6.0081" stroke="#7dc55c"/><path d="m29.6016 307.806h6.008" stroke="#7dc55c"/><path d="m20.4922 307.806h6.008" stroke="#7dc55c"/><path d="m11.8945 307.806h6.008" stroke="#7dc55c"/><path d="m3.22656 307.806h6.0081" stroke="#7dc55c"/><path d="m99.2246 267.791v44.018" stroke="#7dc55c"/><path d="m91.7578 307.806h6.008" stroke="#7dc55c"/><path d="m404.008 308.011h6.008" stroke="#7dc55c"/><path d="m412.797 308.011h6.008" stroke="#7dc55c"/><path d="m421.492 308.011h6.008" stroke="#7dc55c"/><path d="m430.188 308.011h6.007" stroke="#7dc55c"/><path d="m438.906 308.011h6.008" stroke="#7dc55c"/><path d="m447.502 308.011h6.008" stroke="#7dc55c"/><path d="m456.576 308.011h6.008" stroke="#7dc55c"/><path d="m465.295 308.011h6.008" stroke="#7dc55c"/><path d="m473.963 308.011h6.008" stroke="#7dc55c"/><path d="m482.682 308.011h6.008" stroke="#7dc55c"/><path d="m491.4 308.011h6.008" stroke="#7dc55c"/><path d="m197.795 172.58 51.466-23.488 50.467 23.488" stroke="#7dc55c"/></g></g></g></g></svg>