<svg xmlns="http://www.w3.org/2000/svg" viewBox="0 0 2948.94 1506.77"><defs><style>.a,.b{fill:#fff;}.b{fill-rule:evenodd;}.c{fill:#2e2d2c;}.d{fill:#1d1d1b;}.e{fill:#34a936;}.e,.f{opacity:0.5;}.f,.i{fill:#0bbbef;}.g{fill:#77be7f;opacity:0.8;}.h{opacity:0.63;}.j{fill:#19381d;}</style></defs><rect class="a" y="22.06" width="1388.98" height="1445.67" rx="137.15"/><rect class="a" x="1559.06" y="22.06" width="1388.98" height="1445.67" rx="137.15"/><path class="b" d="M2798.88,1429.18H1708.2a110.61,110.61,0,0,1-110.61-110.61V171.22A110.62,110.62,0,0,1,1708.2,60.61H2798.88a110.61,110.61,0,0,1,110.61,110.61V1318.57A110.61,110.61,0,0,1,2798.88,1429.18ZM1708.2,86.61a84.62,84.62,0,0,0-84.61,84.61V1318.57a84.61,84.61,0,0,0,84.61,84.61H2798.88a84.61,84.61,0,0,0,84.61-84.61V171.22a84.61,84.61,0,0,0-84.61-84.61Z"/><rect class="c" y="22.06" width="1388.98" height="1445.67" rx="137.15"/><rect class="c" x="1559.06" y="22.06" width="1388.98" height="1445.67" rx="137.15"/><path class="d" d="M2798.88,1429.18H1708.2a110.61,110.61,0,0,1-110.61-110.61V171.22A110.62,110.62,0,0,1,1708.2,60.61H2798.88a110.61,110.61,0,0,1,110.61,110.61V1318.57A110.61,110.61,0,0,1,2798.88,1429.18ZM1708.2,86.61a84.62,84.62,0,0,0-84.61,84.61V1318.57a84.61,84.61,0,0,0,84.61,84.61H2798.88a84.61,84.61,0,0,0,84.61-84.61V171.22a84.61,84.61,0,0,0-84.61-84.61Z"/><path class="d" d="M1239.83,1429.18H149.15A110.61,110.61,0,0,1,38.54,1318.57V171.22A110.61,110.61,0,0,1,149.15,60.61H1239.83a110.61,110.61,0,0,1,110.61,110.61V1318.57A110.61,110.61,0,0,1,1239.83,1429.18ZM149.15,86.61a84.61,84.61,0,0,0-84.61,84.61V1318.57a84.61,84.61,0,0,0,84.61,84.61H1239.83a84.61,84.61,0,0,0,84.61-84.61V171.22a84.61,84.61,0,0,0-84.61-84.61Z"/><rect class="e" x="1559.06" y="333.76" width="1276.1" height="425.2"/><rect class="e" y="362.17" width="1276.43" height="397.08"/><rect class="e" x="2521.16" y="446.9" width="313.99" height="311.81"/><rect class="e" y="1023.71" width="1276.43" height="76.54"/><rect class="e" y="1187.04" width="1276.43" height="53.86"/><rect class="e" x="1559.42" y="1021.4" width="1275.96" height="76.54"/><rect class="e" x="1559.06" y="881.24" width="1276.1" height="76.54"/><rect class="e" x="1559.06" y="1186.44" width="1276.33" height="54.52"/><path class="a" d="M1680.13,1218.4V1241h-8.32v-53.9h30.88l-1.54,7.4h-21V1211h21v7.39Z"/><path class="a" d="M1716.94,1241v-53.9h30.49l-1.54,7.4h-20.64v14.93h18.33v7.39h-18.33v16.79h22.18V1241Z"/><path class="a" d="M1791.55,1187.06h9.08l-16.78,53.9h-9.63l-16.78-53.9h9.08l12.32,42.43h.31Z"/><path class="a" d="M1845.45,1203.08c0,8.31-4.62,13.32-11.17,15.09l14.09,22.79-9,.77-14.09-22.79h-4.77v22h-8.32v-53.9h16.4C1837.9,1187.06,1845.45,1192.53,1845.45,1203.08Zm-25-8.62v17.09h7.7c4.93,0,8.62-3.08,8.62-8.47s-3.69-8.62-8.62-8.62Z"/><path class="a" d="M1856.46,1241l18-53.9h8.24l18,53.9h-8.85l-3.85-12.55h-18.94l-3.78,12.55Zm22.33-42.89h-.39l-7.16,23.18h14.63Z"/><path class="a" d="M1913.44,1241v-53.9h8.31v46.51h24.41l-1.54,7.39Z"/><path class="a" d="M1983,1227c0-5.31-5.16-8.23-11.09-10.54-6.93-2.7-14.86-6.63-14.86-15.56,0-9.24,6.54-14.63,17.48-14.63a30.62,30.62,0,0,1,15.4,4.16L1986,1197a20.52,20.52,0,0,0-11.47-3.31c-5.85,0-8.86,2.38-8.86,6.77s5.32,7.24,10,9.09c8.47,3.31,15.94,7,15.94,17,0,9.55-6.7,15.17-18.79,15.17a29.38,29.38,0,0,1-17-4.77l4.39-6.78a20,20,0,0,0,12.62,4.16C1978.81,1234.34,1983,1232,1983,1227Z"/><path class="a" d="M2026.24,1212.55l20,28.41-9.55.77-17.78-25.1h-4V1241h-8.31v-53.9h8.31v22.49h4.24l16-22.49h9.47Z"/><path class="a" d="M2078.21,1241.73c-16,0-22.32-12.16-22.32-27.72s6.31-27.72,22.32-27.72,22.33,12.17,22.33,27.72S2094.23,1241.73,2078.21,1241.73Zm0-48c-9.85,0-13.7,8.93-13.7,20.32s3.85,20.33,13.7,20.33,13.71-8.93,13.71-20.33S2088.07,1193.69,2078.21,1193.69Z"/><path class="a" d="M2143.05,1187.06h9.7l-17.32,31.42V1241h-8.32v-22.48l-17.32-31.42h9.7l11.55,22.49h.3Z"/><path class="a" d="M2221.82,1203.08c0,8.31-4.62,13.32-11.17,15.09l14.09,22.79-9,.77-14.08-22.79h-4.78v22h-8.31v-53.9H2205C2214.27,1187.06,2221.82,1192.53,2221.82,1203.08Zm-25-8.62v17.09h7.7c4.93,0,8.62-3.08,8.62-8.47s-3.69-8.62-8.62-8.62Z"/><path class="a" d="M2238.22,1241v-53.9h30.49l-1.54,7.4h-20.63v14.93h18.32v7.39h-18.32v16.79h22.17V1241Z"/><path class="a" d="M2312.83,1187.06h9.09l-16.79,53.9h-9.62l-16.79-53.9h9.09l12.32,42.43h.31Z"/><path class="a" d="M2353.49,1241.73c-16,0-22.33-12.16-22.33-27.72s6.31-27.72,22.33-27.72,22.33,12.17,22.33,27.72S2369.5,1241.73,2353.49,1241.73Zm0-48c-9.86,0-13.71,8.93-13.71,20.32s3.85,20.33,13.71,20.33,13.7-8.93,13.7-20.33S2363.34,1193.69,2353.49,1193.69Z"/><path class="a" d="M2391.6,1241v-53.9h8.32v46.51h24.41l-1.54,7.39Z"/><path class="a" d="M2463.75,1187.06h9.7l-17.32,31.42V1241h-8.32v-22.48l-17.32-31.42h9.7l11.55,22.49h.31Z"/><path class="a" d="M2523.12,1224.41c0,10.24-7.7,17.32-19.25,17.32s-19.25-7.08-19.25-17.32v-37.35h8.31v37c0,6.08,4.16,10.32,10.94,10.32s10.93-4.24,10.93-10.32v-37h8.32Z"/><path class="a" d="M2559.77,1194.46V1241h-8.32v-46.5h-16v-7.4h40.42l-1.54,7.4Z"/><path class="a" d="M2612.67,1227c0-5.31-5.16-8.23-11.09-10.54-6.93-2.7-14.86-6.63-14.86-15.56,0-9.24,6.54-14.63,17.48-14.63a30.62,30.62,0,0,1,15.4,4.16l-3.93,6.55a20.52,20.52,0,0,0-11.47-3.31c-5.85,0-8.86,2.38-8.86,6.77s5.32,7.24,10,9.09c8.47,3.31,15.94,7,15.94,17,0,9.55-6.7,15.17-18.79,15.17a29.38,29.38,0,0,1-17-4.77l4.39-6.78a20,20,0,0,0,12.62,4.16C2608.51,1234.34,2612.67,1232,2612.67,1227Z"/><path class="a" d="M2634,1241v-7.39h8.85v-39.11H2634v-7.4h26.41l-1.54,7.4h-7.7v39.11H2660V1241Z"/><path class="a" d="M2673.5,1241v-7.39h8.85v-39.11h-8.85v-7.4h26.41l-1.54,7.4h-7.7v39.11h8.85V1241Z"/><path class="a" d="M2755.65,1227c0-5.31-5.15-8.23-11.08-10.54-6.93-2.7-14.86-6.63-14.86-15.56,0-9.24,6.54-14.63,17.47-14.63a30.56,30.56,0,0,1,15.4,4.16l-3.92,6.55a20.56,20.56,0,0,0-11.48-3.31c-5.85,0-8.85,2.38-8.85,6.77s5.31,7.24,10,9.09c8.47,3.31,15.94,7,15.94,17,0,9.55-6.7,15.17-18.79,15.17a29.44,29.44,0,0,1-17-4.77l4.39-6.78a20.06,20.06,0,0,0,12.63,4.16C2751.5,1234.34,2755.65,1232,2755.65,1227Z"/><path class="a" d="M2798.23,1194.46V1241h-8.31v-46.5h-16v-7.4h40.43l-1.54,7.4Z"/><path class="a" d="M2829,1231.57a5.08,5.08,0,1,1-5.08,5.08A5.13,5.13,0,0,1,2829,1231.57Z"/><rect class="f" x="2835.15" y="22.06" width="112.88" height="1444.68"/><path class="a" d="M424,362.17V693.3h89v65.77H252.23V693.3H353.16V427.94H260.73l11.34-65.77Z"/><path class="a" d="M749.49,427.94H561.24l11.34-65.77H824.9v60.1L683.72,759.07h-76Z"/><path class="a" d="M1133.91,636.6c0,87.32-65.2,128.14-137.21,128.14-49.9,0-85.62-13-117.94-33.45L913.92,674c22.68,14.74,46.49,25,78.81,25,37.42,0,68-19.28,68-61.8,0-44.8-31.75-62.38-70.31-62.38H958.14V533.4l79.38-103.19v-2.27H891.8l11.34-65.77h213.2v60.1l-76.55,99.23v1.7C1089.12,532.27,1133.91,564.59,1133.91,636.6Z"/><path class="g" d="M914.74,220.89v-3h2.83v-12h-2.83v-3h9.08l-.52,3h-2.44v12h2.83v3Z"/><path class="g" d="M926.41,211.23c0-2.18,1.77-3.7,4.65-3.7a10.34,10.34,0,0,1,4.27.9l-1.08,2.49a8.39,8.39,0,0,0-3-.64c-1.13,0-1.64.41-1.64,1.06s.77,1.18,2.08,1.61c1.93.65,4,1.65,4,4.24,0,2.39-2,4-5,4a10,10,0,0,1-4.55-1l1.1-2.57a8.34,8.34,0,0,0,3.34.77c1.11,0,1.88-.49,1.88-1.21,0-1-1.26-1.49-2.57-2C928.34,214.65,926.41,213.65,926.41,211.23Z"/><path class="g" d="M947.61,217.55l1.1,2.5a10.12,10.12,0,0,1-4.52,1.1c-3.85,0-6.5-2.52-6.5-6.81s2.31-6.81,6-6.81c3.42,0,5.55,2.13,5.55,5.81a17.79,17.79,0,0,1-.15,2h-8.17a3.38,3.38,0,0,0,3.42,3.08A7.66,7.66,0,0,0,947.61,217.55Zm-1.26-4.67a2.43,2.43,0,0,0-2.59-2.6,2.81,2.81,0,0,0-2.78,2.6Z"/><path class="g" d="M960.2,220.69a9.27,9.27,0,0,1-2.85.46c-2.36,0-4.29-1.08-4.29-4.14v-6.47H950.8v-2.75h2.26v-3.55l3.18-.51v4.06h3.68l-.52,2.75h-3.16V217c0,1,.42,1.39,1.42,1.39a7.58,7.58,0,0,0,2-.33Z"/><path class="g" d="M973.69,213c-2.31-.9-5-2.51-5-5.5s2.31-4.8,6-4.8a10.63,10.63,0,0,1,5.27,1.39l-1.57,2.62a6.86,6.86,0,0,0-3.7-1c-1.62,0-2.57.57-2.57,1.67,0,1.31,1.57,2.29,3.06,2.88,2.82,1.1,5.34,2.49,5.34,5.83,0,3.19-2.36,5.14-6.4,5.14a10.22,10.22,0,0,1-5.8-1.59l1.77-2.68a6.64,6.64,0,0,0,4,1.29c1.73,0,3-.77,3-2.11C977.11,214.44,975.59,213.7,973.69,213Z"/><path class="g" d="M990,212.31c0-1.26-.65-2-2.21-2a10.37,10.37,0,0,0-3.5.7l-1-2.57a12.9,12.9,0,0,1,4.75-.88c4,0,5.09,2.11,5.09,4.83v5a.83.83,0,0,0,.93.92h.28v2.5a6.14,6.14,0,0,1-1.82.25,2.33,2.33,0,0,1-2.32-1.26h-.1a4.39,4.39,0,0,1-3.44,1.26c-2.5,0-4.06-1.23-4.06-3.9s2-3.94,4.9-3.94H990Zm0,4.81v-1.49H987.7c-1.18,0-1.85.59-1.85,1.44a1.3,1.3,0,0,0,1.41,1.33A3.78,3.78,0,0,0,990,217.12Z"/><path class="g" d="M1000.19,220.89H997v-13.1h2.42l.51,1.13h.1a5.05,5.05,0,0,1,3.47-1.39c2.75,0,4.29,1.72,4.29,5.17v8.19h-3.18V213c0-1.83-.7-2.7-1.91-2.7a3.53,3.53,0,0,0-2.51,1.54Z"/><path class="g" d="M1010.77,211.23c0-2.18,1.78-3.7,4.65-3.7a10.34,10.34,0,0,1,4.27.9l-1.08,2.49a8.39,8.39,0,0,0-3-.64c-1.14,0-1.65.41-1.65,1.06s.77,1.18,2.08,1.61c1.93.65,4,1.65,4,4.24,0,2.39-2,4-5,4a10.07,10.07,0,0,1-4.55-1l1.11-2.57a8.3,8.3,0,0,0,3.34.77c1.1,0,1.87-.49,1.87-1.21,0-1-1.26-1.49-2.57-2C1012.7,214.65,1010.77,213.65,1010.77,211.23Z"/><path class="g" d="M1043.07,209.15H1043l-3.09,9.38h-3.36l-3.11-9.38h-.08l-1.08,11.74H1029l1.67-18h3.68l3.85,11.56h.08l3.85-11.56h3.68l1.67,18h-3.29Z"/><path class="g" d="M1060,217.55l1.1,2.5a10.15,10.15,0,0,1-4.52,1.1c-3.85,0-6.5-2.52-6.5-6.81s2.31-6.81,6-6.81c3.42,0,5.55,2.13,5.55,5.81a17.79,17.79,0,0,1-.15,2h-8.17a3.38,3.38,0,0,0,3.41,3.08A7.7,7.7,0,0,0,1060,217.55Zm-1.26-4.67a2.43,2.43,0,0,0-2.6-2.6,2.81,2.81,0,0,0-2.77,2.6Z"/><path class="g" d="M1072.68,219.76a4.83,4.83,0,0,1-3.39,1.39c-3.7,0-5.37-2.85-5.37-6.81s1.69-6.81,5.6-6.81a9,9,0,0,1,3,.49v-5.88l3.19-.52v19.27h-2.42l-.51-1.13Zm-5.53-5.42c0,2.39,1,4.06,2.91,4.06a3.46,3.46,0,0,0,2.46-1.28V211a5,5,0,0,0-2.57-.7C1068.23,210.28,1067.15,211.77,1067.15,214.34Z"/><path class="g" d="M1078.15,210.54l.52-2.75h4.83v13.1h-3.19V210.54Zm3.75-8.4a1.84,1.84,0,1,1,0,3.67A1.81,1.81,0,0,1,1080,204,1.83,1.83,0,0,1,1081.9,202.14Z"/><path class="g" d="M1094.88,207.79h3.19v13.1h-2.42l-.51-1.13H1095a5.46,5.46,0,0,1-3.64,1.39c-2.57,0-4.5-1.7-4.5-5.37v-8h3.18v8c0,1.82.9,2.62,2.11,2.62a3.88,3.88,0,0,0,2.7-1.54Z"/><path class="g" d="M1111,209a6.21,6.21,0,0,1,4-1.44c2.75,0,4.34,1.72,4.34,5.17v8.19h-3.18V213c0-1.83-.7-2.7-1.9-2.7a3.3,3.3,0,0,0-2.16,1.11v9.5h-3.19V213c0-1.83-.64-2.7-1.75-2.7a3.21,3.21,0,0,0-2.31,1.54v9.07h-3.19v-13.1h2.42l.51,1.13h.11a4.66,4.66,0,0,1,3.28-1.39A3.84,3.84,0,0,1,1111,209Z"/><path class="g" d="M920,238.62l5.65-7.71h2.57l-6.14,8.5,6.68,9.48-2.52.26L920,240.57h-2v8.32h-2.26v-18H918v7.71Z"/><path class="g" d="M932.3,243c.2,2.85,1.54,4.47,4.13,4.47a6.92,6.92,0,0,0,3.37-.93l.74,1.55a8.89,8.89,0,0,1-4.36,1.1c-3.65,0-6.15-2.52-6.15-6.81,0-4.06,2.09-6.81,5.79-6.81,3.52,0,5.26,2.06,5.26,5.27a10.6,10.6,0,0,1-.23,2.16Zm0-1.57h6.75a4,4,0,0,0,0-.59c0-2.06-1.08-3.55-3.21-3.55S932.42,239,932.3,241.39Z"/><path class="g" d="M952.6,235.79l-.52,1.72h-5.24v11.38h-2.16v-13.1Z"/><path class="g" d="M964.73,235.79v13.1h-2.16V237.51h-4.06v1.08c0,7-1.16,10.43-3.94,10.43a3.63,3.63,0,0,1-1.72-.46l.62-1.67a1.73,1.73,0,0,0,1,.31c1.36,0,2-2.55,2-9.23v-2.18Z"/><path class="g" d="M974.08,240.57c2.83,0,4.68,1.54,4.68,4.19s-1.85,4.13-4.68,4.13h-5v-13.1h2.16v4.78Zm-2.83,1.72v4.88h2.57c1.67,0,2.73-.9,2.73-2.44s-1.06-2.44-2.73-2.44Z"/><path class="g" d="M999.06,243.16c0,4-2.52,6-5.89,6a8.65,8.65,0,0,1-5.16-1.52l1-1.72a6.6,6.6,0,0,0,4,1.29c2.16,0,3.78-1.34,3.78-4a3.75,3.75,0,0,0-4.06-4,12.36,12.36,0,0,0-3.68.67v-8.89h9.36l-.52,2h-6.65v4.62a9.81,9.81,0,0,1,2-.2C996.64,237.28,999.06,239.31,999.06,243.16Z"/><path class="g" d="M1005.2,239.15a4.72,4.72,0,0,1,3.47-1.43c2.9,0,5,2.08,5,5.7a5.37,5.37,0,0,1-5.73,5.73c-3.62,0-5.7-2.72-5.7-6.76a12.4,12.4,0,0,1,9.15-11.74l.74,1.57a10.85,10.85,0,0,0-7,6.88Zm2.77,8c2.06,0,3.45-1.31,3.45-3.78s-1.39-3.75-3.45-3.75a3.94,3.94,0,0,0-3.49,2.72C1004.48,245.27,1005.66,247.2,1008,247.2Z"/><path class="g" d="M1025.76,232.86h-9.23l.51-2H1028v1.69l-6.3,16.29h-2.21Z"/><path class="g" d="M1048.42,248.89h-2.16V237.51h-5.73v11.38h-2.16v-13.1h10.05Z"/><path class="g" d="M1051.25,235.79h10.84l-.51,1.72h-3.91v11.38h-2.13V237.51h-4.29Z"/><path class="g" d="M914.74,955.07v-3h2.83v-12h-2.83v-3h9.08l-.52,3h-2.44v12h2.83v3Z"/><path class="g" d="M926.41,945.41c0-2.18,1.77-3.7,4.65-3.7a10.34,10.34,0,0,1,4.27.9l-1.08,2.49a8.39,8.39,0,0,0-3-.64c-1.13,0-1.64.41-1.64,1.06s.77,1.18,2.08,1.61c1.93.65,4,1.65,4,4.24,0,2.39-2,4-5,4a10,10,0,0,1-4.55-1l1.1-2.57a8.34,8.34,0,0,0,3.34.77c1.11,0,1.88-.49,1.88-1.21,0-1-1.26-1.49-2.57-2C928.34,948.83,926.41,947.83,926.41,945.41Z"/><path class="g" d="M947.61,951.73l1.1,2.5a10.12,10.12,0,0,1-4.52,1.1c-3.85,0-6.5-2.52-6.5-6.81s2.31-6.81,6-6.81c3.42,0,5.55,2.13,5.55,5.81a17.79,17.79,0,0,1-.15,2h-8.17a3.38,3.38,0,0,0,3.42,3.08A7.66,7.66,0,0,0,947.61,951.73Zm-1.26-4.67a2.43,2.43,0,0,0-2.59-2.6,2.81,2.81,0,0,0-2.78,2.6Z"/><path class="g" d="M960.2,954.87a9.27,9.27,0,0,1-2.85.46c-2.36,0-4.29-1.08-4.29-4.14v-6.47H950.8V942h2.26v-3.55l3.18-.51V942h3.68l-.52,2.75h-3.16v6.47c0,1,.42,1.39,1.42,1.39a7.58,7.58,0,0,0,2-.33Z"/><path class="g" d="M973.69,947.13c-2.31-.9-5-2.51-5-5.5s2.31-4.8,6-4.8a10.74,10.74,0,0,1,5.27,1.39l-1.57,2.62a6.86,6.86,0,0,0-3.7-1c-1.62,0-2.57.57-2.57,1.67,0,1.31,1.57,2.29,3.06,2.88,2.82,1.1,5.34,2.49,5.34,5.83,0,3.19-2.36,5.14-6.4,5.14a10.22,10.22,0,0,1-5.8-1.59l1.77-2.67a6.7,6.7,0,0,0,4,1.28c1.73,0,3-.77,3-2.11C977.11,948.62,975.59,947.88,973.69,947.13Z"/><path class="g" d="M990,946.49c0-1.26-.65-2-2.21-2a10.37,10.37,0,0,0-3.5.7l-1-2.57a12.9,12.9,0,0,1,4.75-.88c4,0,5.09,2.11,5.09,4.83v5a.83.83,0,0,0,.93.92h.28V955a6.14,6.14,0,0,1-1.82.25,2.33,2.33,0,0,1-2.32-1.26h-.1a4.39,4.39,0,0,1-3.44,1.26c-2.5,0-4.06-1.23-4.06-3.9,0-2.52,2-3.94,4.9-3.94H990Zm0,4.81v-1.49H987.7c-1.18,0-1.85.59-1.85,1.44a1.3,1.3,0,0,0,1.41,1.33A3.78,3.78,0,0,0,990,951.3Z"/><path class="g" d="M1000.19,955.07H997V942h2.42l.51,1.13h.1a5.05,5.05,0,0,1,3.47-1.39c2.75,0,4.29,1.72,4.29,5.17v8.19h-3.18v-7.91c0-1.82-.7-2.7-1.91-2.7a3.53,3.53,0,0,0-2.51,1.54Z"/><path class="g" d="M1010.77,945.41c0-2.18,1.78-3.7,4.65-3.7a10.34,10.34,0,0,1,4.27.9l-1.08,2.49a8.39,8.39,0,0,0-3-.64c-1.14,0-1.65.41-1.65,1.06s.77,1.18,2.08,1.61c1.93.65,4,1.65,4,4.24,0,2.39-2,4-5,4a10.07,10.07,0,0,1-4.55-1l1.11-2.57a8.3,8.3,0,0,0,3.34.77c1.1,0,1.87-.49,1.87-1.21,0-1-1.26-1.49-2.57-2C1012.7,948.83,1010.77,947.83,1010.77,945.41Z"/><path class="g" d="M1043.07,943.33H1043l-3.09,9.38h-3.36l-3.11-9.38h-.08l-1.08,11.74H1029l1.67-18h3.68l3.85,11.56h.08l3.85-11.56h3.68l1.67,18h-3.29Z"/><path class="g" d="M1060,951.73l1.1,2.5a10.15,10.15,0,0,1-4.52,1.1c-3.85,0-6.5-2.52-6.5-6.81s2.31-6.81,6-6.81c3.42,0,5.55,2.13,5.55,5.81a17.79,17.79,0,0,1-.15,2h-8.17a3.38,3.38,0,0,0,3.41,3.08A7.7,7.7,0,0,0,1060,951.73Zm-1.26-4.67a2.43,2.43,0,0,0-2.6-2.6,2.81,2.81,0,0,0-2.77,2.6Z"/><path class="g" d="M1072.68,953.94a4.83,4.83,0,0,1-3.39,1.39c-3.7,0-5.37-2.85-5.37-6.81s1.69-6.81,5.6-6.81a9,9,0,0,1,3,.49v-5.88l3.19-.52v19.27h-2.42l-.51-1.13Zm-5.53-5.42c0,2.39,1,4.06,2.91,4.06a3.46,3.46,0,0,0,2.46-1.28v-6.14a5,5,0,0,0-2.57-.7C1068.23,944.46,1067.15,946,1067.15,948.52Z"/><path class="g" d="M1078.15,944.72l.52-2.75h4.83v13.1h-3.19V944.72Zm3.75-8.4a1.84,1.84,0,1,1,0,3.67,1.81,1.81,0,0,1-1.87-1.82A1.83,1.83,0,0,1,1081.9,936.32Z"/><path class="g" d="M1094.88,942h3.19v13.1h-2.42l-.51-1.13H1095a5.46,5.46,0,0,1-3.64,1.39c-2.57,0-4.5-1.7-4.5-5.37v-8h3.18v8c0,1.82.9,2.62,2.11,2.62a3.88,3.88,0,0,0,2.7-1.54Z"/><path class="g" d="M1111,943.15a6.21,6.21,0,0,1,4-1.44c2.75,0,4.34,1.72,4.34,5.17v8.19h-3.18v-7.91c0-1.82-.7-2.7-1.9-2.7a3.3,3.3,0,0,0-2.16,1.11v9.5h-3.19v-7.91c0-1.82-.64-2.7-1.75-2.7a3.21,3.21,0,0,0-2.31,1.54v9.07h-3.19V942h2.42l.51,1.13h.11a4.66,4.66,0,0,1,3.28-1.39A3.84,3.84,0,0,1,1111,943.15Z"/><path class="g" d="M920,972.8l5.65-7.71h2.57l-6.14,8.5,6.68,9.48-2.52.26L920,974.75h-2v8.32h-2.26v-18H918v7.71Z"/><path class="g" d="M932.3,977.14c.2,2.85,1.54,4.47,4.13,4.47a6.92,6.92,0,0,0,3.37-.93l.74,1.55a8.89,8.89,0,0,1-4.36,1.1c-3.65,0-6.15-2.52-6.15-6.81,0-4.06,2.09-6.81,5.79-6.81,3.52,0,5.26,2.06,5.26,5.27a10.6,10.6,0,0,1-.23,2.16Zm0-1.57h6.75a3.89,3.89,0,0,0,0-.59c0-2.06-1.08-3.55-3.21-3.55S932.42,973.13,932.3,975.57Z"/><path class="g" d="M952.6,970l-.52,1.72h-5.24v11.38h-2.16V970Z"/><path class="g" d="M964.73,970v13.1h-2.16V971.69h-4.06v1.08c0,7-1.16,10.43-3.94,10.43a3.63,3.63,0,0,1-1.72-.46l.62-1.67a1.73,1.73,0,0,0,1,.31c1.36,0,2-2.55,2-9.23V970Z"/><path class="g" d="M974.08,974.75c2.83,0,4.68,1.54,4.68,4.19s-1.85,4.13-4.68,4.13h-5V970h2.16v4.78Zm-2.83,1.72v4.88h2.57c1.67,0,2.73-.9,2.73-2.44s-1.06-2.44-2.73-2.44Z"/><path class="g" d="M995.15,965.09v16h4.29v2h-11.3v-2H993V967h-4.45l.51-1.95Z"/><path class="g" d="M1007.92,983.33c-4,0-6.17-3.16-6.17-9.25s2.21-9.25,6.17-9.25,6.17,3.16,6.17,9.25S1011.88,983.33,1007.92,983.33Zm0-2c2.37,0,3.88-2.16,3.88-7.3s-1.51-7.3-3.88-7.3-3.88,2.16-3.88,7.3S1005.56,981.38,1007.92,981.38Z"/><path class="g" d="M1016.66,978.29a5.3,5.3,0,0,1,3-4.67v-.08a4.56,4.56,0,0,1-2.41-4.11c0-2.8,1.9-4.6,5.08-4.6s5.09,1.8,5.09,4.6a5.1,5.1,0,0,1-2.42,4.24v.08a5.12,5.12,0,0,1,3,4.54c0,3.24-2.14,5-5.66,5S1016.66,981.53,1016.66,978.29ZM1023,975l-1.51-.65a4.69,4.69,0,0,0-2.62,3.93c0,2.24,1.39,3.09,3.49,3.09s3.5-1,3.5-3.09C1025.81,976.75,1024.44,975.62,1023,975Zm.19-2a4.58,4.58,0,0,0,2.1-3.6,2.94,2.94,0,0,0-5.86,0,3.27,3.27,0,0,0,2.32,3Z"/><path class="g" d="M1048.42,983.07h-2.16V971.69h-5.73v11.38h-2.16V970h10.05Z"/><path class="g" d="M1051.25,970h10.84l-.51,1.72h-3.91v11.38h-2.13V971.69h-4.29Z"/><path class="g" d="M1072.27,973.67a1.57,1.57,0,1,1-1.57,1.57A1.58,1.58,0,0,1,1072.27,973.67Z"/><path class="g" d="M1090.31,967v16h-2.26V967h-5.48v-1.95h13.24l-.52,1.95Z"/><path class="g" d="M1098,982.41v5.8l-2.16.52V970h1.38l.52,1.64h.1a5.19,5.19,0,0,1,4.11-1.9c3.37,0,5.17,2.78,5.17,6.81s-1.62,6.81-5.53,6.81A6.91,6.91,0,0,1,1098,982.41Zm6.91-5.89c0-3-1.26-5.09-3.63-5.09a4.42,4.42,0,0,0-3.28,2v7a5.38,5.38,0,0,0,3.28,1.18C1103.62,981.61,1104.88,979.76,1104.88,976.52Z"/><path class="g" d="M1112.18,977.14c.2,2.85,1.54,4.47,4.13,4.47a6.92,6.92,0,0,0,3.37-.93l.74,1.55a8.89,8.89,0,0,1-4.36,1.1c-3.65,0-6.15-2.52-6.15-6.81,0-4.06,2.08-6.81,5.79-6.81,3.52,0,5.26,2.06,5.26,5.27a10.6,10.6,0,0,1-.23,2.16Zm0-1.57h6.75a3.89,3.89,0,0,0,0-.59c0-2.06-1.08-3.55-3.21-3.55S1112.3,973.13,1112.18,975.57Z"/><path class="g" d="M1126.72,977.19v5.88h-2.16V970h2.16v5.5h1.85l3.78-5.5h2.31l-4.34,6.32,4.6,6.78-2.21.26-4.17-6.14Z"/><path class="g" d="M1137.49,983.07V970h2.16v9.43h.1l6.81-9.43h1.87v13.1h-2.16v-9.48h-.1l-6.81,9.48Z"/><path class="g" d="M1163.06,983.07h-2.16v-5.88H1155v5.88h-2.16V970H1155v5.5h5.94V970h2.16Z"/><path class="g" d="M1175.34,970l-.52,1.72h-5.24v11.38h-2.16V970Z"/><path class="g" d="M1192.45,965.09l-6.55,11.48v.11h4.73v-3.52h2.18v3.52h3.09l-.52,1.92h-2.57v4.47h-2.18V978.6h-7.45v-1.67l6.75-11.84Z"/><path class="g" d="M1203.86,983.33c-4,0-6.16-3.16-6.16-9.25s2.2-9.25,6.16-9.25,6.17,3.16,6.17,9.25S1207.82,983.33,1203.86,983.33Zm0-2c2.37,0,3.88-2.16,3.88-7.3s-1.51-7.3-3.88-7.3-3.88,2.16-3.88,7.3S1201.5,981.38,1203.86,981.38Z"/><path class="g" d="M916.16,1296.79v-2.47h3v-13h-3v-2.47H925l-.51,2.47h-2.57v13h3v2.47Z"/><path class="g" d="M932.73,1289c1.9.53,4.06,1.67,4.06,4.08s-1.87,4-4.83,4a11,11,0,0,1-4.42-.9l.9-2.11a8.41,8.41,0,0,0,3.44.77c1.52,0,2.24-.61,2.24-1.59,0-1.34-1.31-1.8-2.78-2.24s-3.52-1.46-3.52-4c0-2.32,1.83-3.55,4.58-3.55a9.68,9.68,0,0,1,4.08.9l-.87,2a8.52,8.52,0,0,0-3-.67c-1.42,0-2.08.54-2.08,1.44C930.5,1288.21,931.32,1288.59,932.73,1289Z"/><path class="g" d="M950.18,1290.86h-8.33c.18,2.54,1.52,4,3.88,4a7.25,7.25,0,0,0,3.27-.9l.87,2a9.48,9.48,0,0,1-4.39,1.11c-3.86,0-6.38-2.52-6.38-6.81s2.37-6.81,5.91-6.81,5.4,2,5.4,5.27A11.53,11.53,0,0,1,950.18,1290.86Zm-8.22-2.09H948a2.8,2.8,0,0,0-3-3.11C943.29,1285.66,942.19,1286.92,942,1288.77Z"/><path class="g" d="M961.36,1296.59a9.27,9.27,0,0,1-2.8.46c-2.37,0-4.12-1.08-4.12-4.14v-7h-2.23v-2.23h2.23v-3.55l2.68-.51v4.06h4l-.51,2.23h-3.44V1293a1.56,1.56,0,0,0,1.74,1.77,7.24,7.24,0,0,0,2.11-.36Z"/><path class="g" d="M978.78,1292.14c0-1.77-1.72-2.75-3.7-3.52-2.31-.9-5-2.21-5-5.19s2.18-4.88,5.83-4.88a10.2,10.2,0,0,1,5.14,1.38l-1.31,2.19A6.85,6.85,0,0,0,976,1281c-2,0-3,.8-3,2.26s1.77,2.42,3.34,3c2.83,1.1,5.32,2.34,5.32,5.68,0,3.18-2.24,5.06-6.27,5.06a9.87,9.87,0,0,1-5.68-1.59l1.46-2.27a6.69,6.69,0,0,0,4.22,1.39C977.39,1294.58,978.78,1293.81,978.78,1292.14Z"/><path class="g" d="M991.71,1289.08v-.87c0-1.57-.67-2.55-2.6-2.55a10.32,10.32,0,0,0-3.55.7l-.77-2.08a12.76,12.76,0,0,1,4.63-.85c4,0,5,2.11,5,4.83v5.5a.82.82,0,0,0,.92.92h.29v2a4.62,4.62,0,0,1-1.55.26,2,2,0,0,1-2.08-1.52h-.1a4.8,4.8,0,0,1-3.7,1.52c-2.49,0-4.06-1.23-4.06-3.91,0-2.49,2-3.93,5-3.93Zm-2.75,2.08a2,2,0,0,0-2.21,1.91,1.71,1.71,0,0,0,1.92,1.74,3.83,3.83,0,0,0,3-1.62v-2Z"/><path class="g" d="M1001.09,1296.79h-2.68v-13.1h1.9l.52,1.38h.1a4.75,4.75,0,0,1,3.7-1.64c2.93,0,4.32,1.72,4.32,5.16v8.2h-2.67v-8c0-2.15-.75-3.11-2.29-3.11a4.06,4.06,0,0,0-2.9,1.83Z"/><path class="g" d="M1017.09,1289c1.91.53,4.06,1.67,4.06,4.08s-1.87,4-4.83,4a11.06,11.06,0,0,1-4.42-.9l.9-2.11a8.46,8.46,0,0,0,3.45.77c1.51,0,2.23-.61,2.23-1.59,0-1.34-1.31-1.8-2.77-2.24s-3.52-1.46-3.52-4c0-2.32,1.82-3.55,4.57-3.55a9.72,9.72,0,0,1,4.09.9l-.88,2a8.43,8.43,0,0,0-3-.67c-1.41,0-2.08.54-2.08,1.44C1014.86,1288.21,1015.68,1288.59,1017.09,1289Z"/><path class="g" d="M1042.28,1284.15a4.87,4.87,0,0,1-3.73,5l4.7,7.6-3,.26-4.71-7.61H1034v7.35h-2.77v-18h5.47C1039.76,1278.8,1042.28,1280.63,1042.28,1284.15Zm-8.33-2.88V1287h2.57a2.68,2.68,0,0,0,2.88-2.83,2.72,2.72,0,0,0-2.88-2.88Z"/><path class="g" d="M1055.87,1290.86h-8.32c.17,2.54,1.51,4,3.87,4a7.25,7.25,0,0,0,3.27-.9l.87,2a9.48,9.48,0,0,1-4.39,1.11c-3.86,0-6.37-2.52-6.37-6.81s2.36-6.81,5.91-6.81,5.39,2,5.39,5.27A11.53,11.53,0,0,1,1055.87,1290.86Zm-8.22-2.09h6.06a2.8,2.8,0,0,0-3-3.11C1049,1285.66,1047.88,1286.92,1047.65,1288.77Z"/><path class="g" d="M1064.43,1292.63a7.15,7.15,0,0,1-2.21-.31,1.05,1.05,0,0,0-.41.8c0,.56.31,1,1,1.08l3.67.59c1.67.28,3.8,1.15,3.8,3.59,0,2.81-2.57,4.06-5.93,4.06-3.78,0-5.84-1.33-5.84-3.64a3.59,3.59,0,0,1,1.75-3,2.26,2.26,0,0,1-1-2,2.9,2.9,0,0,1,1.34-2.26,4.31,4.31,0,0,1-1.55-3.47c0-2.88,2.14-4.6,5.35-4.6a7.23,7.23,0,0,1,2.57.46l4.08-1-.51,2.49H1069a4.55,4.55,0,0,1,.77,2.62C1069.77,1290.91,1067.64,1292.63,1064.43,1292.63Zm-3.44,5.7c0,1.16,1,1.88,3.39,1.88s3.21-.77,3.21-1.77-.69-1.29-2.08-1.52l-3.32-.51A2.18,2.18,0,0,0,1061,1298.33Zm.69-10.3c0,1.39.9,2.41,2.75,2.41s2.75-1,2.75-2.41-.9-2.42-2.75-2.42S1061.68,1286.64,1061.68,1288Z"/><path class="g" d="M1081.52,1283.69h2.67v13.1h-1.9l-.52-1.39h-.1a5.08,5.08,0,0,1-3.88,1.65c-2.8,0-4.52-1.65-4.52-5.35v-8h2.67v8c0,2.16,1,3.11,2.49,3.11a4.45,4.45,0,0,0,3.09-1.82Z"/><path class="g" d="M1093.7,1296.66a5.84,5.84,0,0,1-2.19.39c-2.18,0-3.34-1.13-3.34-3.65V1278l2.67-.51v15.88c0,1,.39,1.41,1.11,1.41a3.69,3.69,0,0,0,1.34-.25Z"/><path class="g" d="M1102.72,1289.08v-.87c0-1.57-.67-2.55-2.6-2.55a10.22,10.22,0,0,0-3.54.7l-.78-2.08a12.79,12.79,0,0,1,4.63-.85c4,0,5,2.11,5,4.83v5.5a.82.82,0,0,0,.92.92h.29v2a4.62,4.62,0,0,1-1.55.26,2,2,0,0,1-2.08-1.52h-.1a4.79,4.79,0,0,1-3.7,1.52c-2.49,0-4.06-1.23-4.06-3.91,0-2.49,2.06-3.93,5-3.93Zm-2.75,2.08a2,2,0,0,0-2.21,1.91,1.71,1.71,0,0,0,1.92,1.74,3.82,3.82,0,0,0,3-1.62v-2Z"/><path class="g" d="M1116.08,1286.18a3,3,0,0,0-1.36-.26c-1.39,0-2.39,1.42-2.62,3v7.84h-2.68v-13.1h1.91l.51,2h.1a3.41,3.41,0,0,1,3.34-2.29,5.62,5.62,0,0,1,1.67.26Z"/><path class="g" d="M921.27,1314.51l5.65-7.71h2.57l-6.14,8.51,6.68,9.48-2.52.26-6.24-8.58h-1.95v8.32h-2.26v-18h2.26v7.71Z"/><path class="g" d="M933.58,1318.86c.2,2.85,1.54,4.47,4.14,4.47a6.91,6.91,0,0,0,3.36-.93l.75,1.54a8.83,8.83,0,0,1-4.37,1.11c-3.65,0-6.14-2.52-6.14-6.81,0-4.06,2.08-6.81,5.78-6.81,3.52,0,5.27,2,5.27,5.27a11.53,11.53,0,0,1-.23,2.16Zm0-1.57h6.76c0-.21,0-.39,0-.59,0-2.06-1.08-3.55-3.21-3.55S933.71,1314.85,933.58,1317.29Z"/><path class="g" d="M953.88,1311.69l-.51,1.72h-5.25v11.38H946v-13.1Z"/><path class="g" d="M966,1311.69v13.1h-2.16v-11.38h-4.06v1.08c0,7-1.16,10.43-3.93,10.43a3.72,3.72,0,0,1-1.72-.46l.61-1.67a1.75,1.75,0,0,0,1,.31c1.36,0,2-2.55,2-9.23v-2.18Z"/><path class="g" d="M975.36,1316.47c2.83,0,4.68,1.54,4.68,4.18s-1.85,4.14-4.68,4.14h-5v-13.1h2.16v4.78Zm-2.82,1.72v4.88h2.57c1.67,0,2.72-.9,2.72-2.44s-1.05-2.44-2.72-2.44Z"/><path class="g" d="M998.26,1308.76H989l.52-2h10.92v1.7l-6.3,16.29H992Z"/><path class="g" d="M1003.55,1320a5.31,5.31,0,0,1,3-4.67v-.08a4.59,4.59,0,0,1-2.41-4.11c0-2.8,1.9-4.6,5.09-4.6s5.08,1.8,5.08,4.6a5.11,5.11,0,0,1-2.41,4.24v.07a5.12,5.12,0,0,1,3,4.55c0,3.24-2.13,5-5.65,5S1003.55,1323.25,1003.55,1320Zm6.3-3.29-1.52-.64a4.7,4.7,0,0,0-2.62,3.93c0,2.24,1.39,3.09,3.5,3.09s3.49-1,3.49-3.09C1012.7,1318.47,1011.34,1317.34,1009.85,1316.72Zm.18-2a4.53,4.53,0,0,0,2.1-3.59,2.94,2.94,0,0,0-5.85,0,3.24,3.24,0,0,0,2.31,3Z"/><path class="g" d="M1035.31,1324.79h-2.15v-11.38h-5.74v11.38h-2.15v-13.1h10Z"/><path class="g" d="M1038.14,1311.69H1049l-.51,1.72h-3.91v11.38h-2.13v-11.38h-4.29Z"/><path class="g" d="M1059.16,1315.39a1.57,1.57,0,1,1-1.57,1.56A1.59,1.59,0,0,1,1059.16,1315.39Z"/><path class="g" d="M1077.2,1308.76v16h-2.26v-16h-5.47v-2h13.23l-.52,2Z"/><path class="g" d="M1084.86,1324.12v5.81l-2.16.51v-18.75h1.39l.51,1.64h.1a5.21,5.21,0,0,1,4.12-1.9c3.36,0,5.16,2.77,5.16,6.81s-1.62,6.81-5.52,6.81A6.92,6.92,0,0,1,1084.86,1324.12Zm6.91-5.88c0-3-1.26-5.09-3.62-5.09a4.45,4.45,0,0,0-3.29,1.95v7a5.33,5.33,0,0,0,3.29,1.19C1090.51,1323.33,1091.77,1321.48,1091.77,1318.24Z"/><path class="g" d="M1099.07,1318.86c.2,2.85,1.54,4.47,4.14,4.47a6.91,6.91,0,0,0,3.36-.93l.75,1.54a8.83,8.83,0,0,1-4.37,1.11c-3.65,0-6.14-2.52-6.14-6.81,0-4.06,2.08-6.81,5.78-6.81,3.52,0,5.27,2,5.27,5.27a11.53,11.53,0,0,1-.23,2.16Zm0-1.57h6.76c0-.21,0-.39,0-.59,0-2.06-1.08-3.55-3.21-3.55S1099.2,1314.85,1099.07,1317.29Z"/><path class="g" d="M1113.61,1318.91v5.88h-2.15v-13.1h2.15v5.5h1.85l3.78-5.5h2.31l-4.34,6.32,4.6,6.78-2.21.26-4.16-6.14Z"/><path class="g" d="M1124.38,1324.79v-13.1h2.16v9.43h.1l6.81-9.43h1.88v13.1h-2.16v-9.48h-.1l-6.81,9.48Z"/><path class="g" d="M1150,1324.79h-2.16v-5.88h-5.94v5.88h-2.15v-13.1h2.15v5.5h5.94v-5.5H1150Z"/><path class="g" d="M1162.23,1311.69l-.51,1.72h-5.24v11.38h-2.16v-13.1Z"/><path class="g" d="M1173.64,1315.05a4.74,4.74,0,0,1,3.47-1.44c2.9,0,5,2.08,5,5.71a5.37,5.37,0,0,1-5.73,5.73c-3.63,0-5.71-2.73-5.71-6.76a12.39,12.39,0,0,1,9.15-11.74l.74,1.56a10.91,10.91,0,0,0-7,6.89Zm2.78,8c2,0,3.44-1.32,3.44-3.78s-1.39-3.75-3.44-3.75a4,4,0,0,0-3.5,2.72C1172.92,1321.17,1174.1,1323.1,1176.42,1323.1Z"/><path class="g" d="M1190.75,1325.05c-4,0-6.16-3.16-6.16-9.25s2.21-9.25,6.16-9.25,6.17,3.16,6.17,9.25S1194.71,1325.05,1190.75,1325.05Zm0-2c2.37,0,3.89-2.16,3.89-7.3s-1.52-7.3-3.89-7.3-3.87,2.16-3.87,7.3S1188.39,1323.1,1190.75,1323.1Z"/><path class="g" d="M2283.81,1296.79v-2.47h3v-13h-3v-2.47h8.82l-.52,2.47h-2.57v13h3v2.47Z"/><path class="g" d="M2300.39,1289c1.9.53,4.06,1.67,4.06,4.08s-1.88,4-4.83,4a11,11,0,0,1-4.42-.9l.9-2.11a8.41,8.41,0,0,0,3.44.77c1.52,0,2.23-.61,2.23-1.59,0-1.34-1.31-1.8-2.77-2.24s-3.52-1.46-3.52-4c0-2.32,1.82-3.55,4.57-3.55a9.69,9.69,0,0,1,4.09.9l-.87,2a8.53,8.53,0,0,0-3-.67c-1.41,0-2.08.54-2.08,1.44C2298.15,1288.21,2299,1288.59,2300.39,1289Z"/><path class="g" d="M2317.83,1290.86h-8.32c.18,2.54,1.51,4,3.88,4a7.24,7.24,0,0,0,3.26-.9l.88,2a9.52,9.52,0,0,1-4.4,1.11c-3.85,0-6.37-2.52-6.37-6.81s2.36-6.81,5.91-6.81,5.4,2,5.4,5.27A10.8,10.8,0,0,1,2317.83,1290.86Zm-8.22-2.09h6.07a2.8,2.8,0,0,0-3-3.11C2311,1285.66,2309.84,1286.92,2309.61,1288.77Z"/><path class="g" d="M2329,1296.59a9.22,9.22,0,0,1-2.8.46c-2.36,0-4.11-1.08-4.11-4.14v-7h-2.23v-2.23h2.23v-3.55l2.67-.51v4.06h4l-.51,2.23h-3.45V1293a1.57,1.57,0,0,0,1.75,1.77,7.35,7.35,0,0,0,2.11-.36Z"/><path class="g" d="M2346.44,1292.14c0-1.77-1.73-2.75-3.7-3.52-2.32-.9-5-2.21-5-5.19s2.18-4.88,5.83-4.88a10.23,10.23,0,0,1,5.14,1.38l-1.31,2.19a6.87,6.87,0,0,0-3.83-1.11c-2,0-3,.8-3,2.26s1.78,2.42,3.34,3c2.83,1.1,5.32,2.34,5.32,5.68,0,3.18-2.23,5.06-6.27,5.06a9.86,9.86,0,0,1-5.67-1.59l1.46-2.27a6.66,6.66,0,0,0,4.21,1.39C2345.05,1294.58,2346.44,1293.81,2346.44,1292.14Z"/><path class="g" d="M2359.36,1289.08v-.87c0-1.57-.67-2.55-2.59-2.55a10.28,10.28,0,0,0-3.55.7l-.77-2.08a12.74,12.74,0,0,1,4.62-.85c4,0,5,2.11,5,4.83v5.5a.83.83,0,0,0,.93.92h.28v2a4.55,4.55,0,0,1-1.54.26,2,2,0,0,1-2.08-1.52h-.1a4.8,4.8,0,0,1-3.7,1.52c-2.5,0-4.06-1.23-4.06-3.91,0-2.49,2-3.93,4.95-3.93Zm-2.75,2.08a2,2,0,0,0-2.21,1.91,1.72,1.72,0,0,0,1.93,1.74,3.8,3.8,0,0,0,3-1.62v-2Z"/><path class="g" d="M2368.74,1296.79h-2.67v-13.1h1.9l.51,1.38h.11a4.74,4.74,0,0,1,3.7-1.64c2.93,0,4.31,1.72,4.31,5.16v8.2h-2.67v-8c0-2.15-.74-3.11-2.28-3.11a4.1,4.1,0,0,0-2.91,1.83Z"/><path class="g" d="M2384.75,1289c1.9.53,4.06,1.67,4.06,4.08s-1.87,4-4.83,4a11,11,0,0,1-4.42-.9l.9-2.11a8.41,8.41,0,0,0,3.44.77c1.52,0,2.24-.61,2.24-1.59,0-1.34-1.31-1.8-2.78-2.24s-3.52-1.46-3.52-4c0-2.32,1.83-3.55,4.58-3.55a9.68,9.68,0,0,1,4.08.9l-.87,2a8.52,8.52,0,0,0-3-.67c-1.42,0-2.08.54-2.08,1.44C2382.52,1288.21,2383.34,1288.59,2384.75,1289Z"/><path class="g" d="M2409.93,1284.15a4.86,4.86,0,0,1-3.72,5l4.7,7.6-3,.26-4.7-7.61h-1.59v7.35h-2.78v-18h5.48C2407.42,1278.8,2409.93,1280.63,2409.93,1284.15Zm-8.32-2.88V1287h2.57a2.69,2.69,0,0,0,2.88-2.83,2.73,2.73,0,0,0-2.88-2.88Z"/><path class="g" d="M2423.53,1290.86h-8.33c.18,2.54,1.52,4,3.88,4a7.32,7.32,0,0,0,3.27-.9l.87,2a9.52,9.52,0,0,1-4.4,1.11c-3.85,0-6.37-2.52-6.37-6.81s2.37-6.81,5.91-6.81,5.4,2,5.4,5.27A11.53,11.53,0,0,1,2423.53,1290.86Zm-8.23-2.09h6.07a2.8,2.8,0,0,0-3-3.11C2416.64,1285.66,2415.54,1286.92,2415.3,1288.77Z"/><path class="g" d="M2432.09,1292.63a7.11,7.11,0,0,1-2.21-.31,1.07,1.07,0,0,0-.42.8c0,.56.31,1,1,1.08l3.68.59c1.67.28,3.8,1.15,3.8,3.59,0,2.81-2.57,4.06-5.94,4.06-3.77,0-5.83-1.33-5.83-3.64a3.59,3.59,0,0,1,1.75-3,2.24,2.24,0,0,1-1-2,2.91,2.91,0,0,1,1.33-2.26,4.33,4.33,0,0,1-1.54-3.47c0-2.88,2.13-4.6,5.35-4.6a7.17,7.17,0,0,1,2.56.46l4.09-1-.51,2.49h-1.57a4.55,4.55,0,0,1,.77,2.62C2437.43,1290.91,2435.3,1292.63,2432.09,1292.63Zm-3.45,5.7c0,1.16,1,1.88,3.39,1.88s3.22-.77,3.22-1.77-.7-1.29-2.09-1.52l-3.31-.51A2.19,2.19,0,0,0,2428.64,1298.33Zm.7-10.3c0,1.39.89,2.41,2.75,2.41s2.74-1,2.74-2.41-.89-2.42-2.74-2.42S2429.34,1286.64,2429.34,1288Z"/><path class="g" d="M2449.17,1283.69h2.68v13.1h-1.91l-.51-1.39h-.1a5.1,5.1,0,0,1-3.88,1.65c-2.8,0-4.52-1.65-4.52-5.35v-8h2.67v8c0,2.16,1,3.11,2.49,3.11a4.41,4.41,0,0,0,3.08-1.82Z"/><path class="g" d="M2461.35,1296.66a5.82,5.82,0,0,1-2.18.39c-2.18,0-3.34-1.13-3.34-3.65V1278l2.67-.51v15.88c0,1,.39,1.41,1.11,1.41a3.61,3.61,0,0,0,1.33-.25Z"/><path class="g" d="M2470.37,1289.08v-.87c0-1.57-.67-2.55-2.59-2.55a10.32,10.32,0,0,0-3.55.7l-.77-2.08a12.76,12.76,0,0,1,4.63-.85c4,0,5,2.11,5,4.83v5.5a.82.82,0,0,0,.92.92h.28v2a4.51,4.51,0,0,1-1.54.26,2,2,0,0,1-2.08-1.52h-.1a4.8,4.8,0,0,1-3.7,1.52c-2.5,0-4.06-1.23-4.06-3.91,0-2.49,2.05-3.93,5-3.93Zm-2.75,2.08a2,2,0,0,0-2.21,1.91,1.72,1.72,0,0,0,1.93,1.74,3.8,3.8,0,0,0,3-1.62v-2Z"/><path class="g" d="M2483.74,1286.18a3.05,3.05,0,0,0-1.37-.26c-1.38,0-2.39,1.42-2.62,3v7.84h-2.67v-13.1h1.9l.52,2h.1a3.4,3.4,0,0,1,3.34-2.29,5.62,5.62,0,0,1,1.67.26Z"/><path class="g" d="M2288.93,1314.51l5.65-7.71h2.57l-6.14,8.51,6.68,9.48-2.52.26-6.24-8.58h-2v8.32h-2.26v-18H2287v7.71Z"/><path class="g" d="M2301.24,1318.86c.2,2.85,1.54,4.47,4.13,4.47a6.92,6.92,0,0,0,3.37-.93l.74,1.54a8.76,8.76,0,0,1-4.36,1.11c-3.65,0-6.15-2.52-6.15-6.81,0-4.06,2.09-6.81,5.79-6.81,3.52,0,5.26,2,5.26,5.27a10.75,10.75,0,0,1-.23,2.16Zm0-1.57H2308a4,4,0,0,0,0-.59c0-2.06-1.08-3.55-3.21-3.55S2301.36,1314.85,2301.24,1317.29Z"/><path class="g" d="M2321.54,1311.69l-.52,1.72h-5.24v11.38h-2.16v-13.1Z"/><path class="g" d="M2333.67,1311.69v13.1h-2.16v-11.38h-4.06v1.08c0,7-1.16,10.43-3.93,10.43a3.76,3.76,0,0,1-1.73-.46l.62-1.67a1.73,1.73,0,0,0,1,.31c1.36,0,2-2.55,2-9.23v-2.18Z"/><path class="g" d="M2343,1316.47c2.83,0,4.68,1.54,4.68,4.18s-1.85,4.14-4.68,4.14h-5v-13.1h2.16v4.78Zm-2.83,1.72v4.88h2.57c1.67,0,2.73-.9,2.73-2.44s-1.06-2.44-2.73-2.44Z"/><path class="g" d="M2365.91,1308.76h-9.22l.51-2h10.92v1.7l-6.29,16.29h-2.21Z"/><path class="g" d="M2371.21,1320a5.29,5.29,0,0,1,3-4.67v-.08a4.58,4.58,0,0,1-2.42-4.11c0-2.8,1.91-4.6,5.09-4.6s5.09,1.8,5.09,4.6a5.1,5.1,0,0,1-2.42,4.24v.07a5.13,5.13,0,0,1,3,4.55c0,3.24-2.14,5-5.66,5S2371.21,1323.25,2371.21,1320Zm6.29-3.29-1.51-.64a4.68,4.68,0,0,0-2.62,3.93c0,2.24,1.39,3.09,3.49,3.09s3.5-1,3.5-3.09C2380.36,1318.47,2379,1317.34,2377.5,1316.72Zm.19-2a4.56,4.56,0,0,0,2.1-3.59,2.94,2.94,0,0,0-5.86,0,3.25,3.25,0,0,0,2.32,3Z"/><path class="g" d="M2403,1324.79h-2.16v-11.38h-5.73v11.38h-2.16v-13.1h10Z"/><path class="g" d="M2405.8,1311.69h10.84l-.51,1.72h-3.91v11.38h-2.13v-11.38h-4.29Z"/><path class="g" d="M2426.82,1315.39a1.57,1.57,0,1,1-1.57,1.56A1.58,1.58,0,0,1,2426.82,1315.39Z"/><path class="g" d="M2444.86,1308.76v16h-2.26v-16h-5.48v-2h13.24l-.52,2Z"/><path class="g" d="M2452.52,1324.12v5.81l-2.16.51v-18.75h1.38l.52,1.64h.1a5.19,5.19,0,0,1,4.11-1.9c3.37,0,5.17,2.77,5.17,6.81s-1.62,6.81-5.53,6.81A6.91,6.91,0,0,1,2452.52,1324.12Zm6.91-5.88c0-3-1.26-5.09-3.63-5.09a4.43,4.43,0,0,0-3.28,1.95v7a5.33,5.33,0,0,0,3.28,1.19C2458.17,1323.33,2459.43,1321.48,2459.43,1318.24Z"/><path class="g" d="M2466.73,1318.86c.2,2.85,1.54,4.47,4.13,4.47a6.92,6.92,0,0,0,3.37-.93l.74,1.54a8.82,8.82,0,0,1-4.36,1.11c-3.65,0-6.15-2.52-6.15-6.81,0-4.06,2.08-6.81,5.79-6.81,3.52,0,5.26,2,5.26,5.27a10.75,10.75,0,0,1-.23,2.16Zm0-1.57h6.75a4,4,0,0,0,0-.59c0-2.06-1.08-3.55-3.21-3.55S2466.85,1314.85,2466.73,1317.29Z"/><path class="g" d="M2481.27,1318.91v5.88h-2.16v-13.1h2.16v5.5h1.85l3.78-5.5h2.31l-4.34,6.32,4.6,6.78-2.21.26-4.17-6.14Z"/><path class="g" d="M2492,1324.79v-13.1h2.16v9.43h.1l6.81-9.43H2503v13.1h-2.16v-9.48h-.1l-6.81,9.48Z"/><path class="g" d="M2517.61,1324.79h-2.16v-5.88h-5.94v5.88h-2.16v-13.1h2.16v5.5h5.94v-5.5h2.16Z"/><path class="g" d="M2529.89,1311.69l-.52,1.72h-5.24v11.38H2522v-13.1Z"/><path class="g" d="M2541.3,1315.05a4.73,4.73,0,0,1,3.47-1.44c2.9,0,5,2.08,5,5.71a5.37,5.37,0,0,1-5.73,5.73c-3.62,0-5.7-2.73-5.7-6.76a12.39,12.39,0,0,1,9.15-11.74l.74,1.56c-3.08,1.11-6,3.42-7,6.89Zm2.77,8c2.06,0,3.45-1.32,3.45-3.78s-1.39-3.75-3.45-3.75a3.94,3.94,0,0,0-3.49,2.72C2540.58,1321.17,2541.76,1323.1,2544.07,1323.1Z"/><path class="g" d="M2558.41,1325.05c-4,0-6.16-3.16-6.16-9.25s2.2-9.25,6.16-9.25,6.17,3.16,6.17,9.25S2562.37,1325.05,2558.41,1325.05Zm0-2c2.37,0,3.88-2.16,3.88-7.3s-1.51-7.3-3.88-7.3-3.88,2.16-3.88,7.3S2556.05,1323.1,2558.41,1323.1Z"/><path class="a" d="M2025,333.47V688.54h95.46v70.53H1840.81V688.54H1949V404h-99.1l12.16-70.53Z"/><path class="a" d="M2374,404H2172.16l12.16-70.53h270.57v64.45l-151.4,361.15H2222Z"/><path class="a" d="M2586.48,508.74V759.07h-65.69V448.38h182l-8.88,60.36Z"/><path class="a" d="M1813.83,881.89h14.69l-22.36,59.41c-3.57,9.39-9.07,17.28-19.44,17.28a19.43,19.43,0,0,1-12.1-3.78l6.59-10.7a7.59,7.59,0,0,0,5,1.95c2.16,0,4.64-2,6.8-7.35l1.51-3.78h-4.32l-23.32-53h15.76l16.64,39h.32Z"/><path class="a" d="M1840.83,881.89h44.39V957.5h-13.83V894.42h-17.28c0,39.1-5.18,63.62-22.14,63.62a19.7,19.7,0,0,1-7.78-1.52l2.6-11.88a10.19,10.19,0,0,0,3.45.65c7.24,0,10.59-14.9,10.59-60.48Z"/><path class="a" d="M1911.24,943.24a7.67,7.67,0,1,1-7.67,7.67A7.7,7.7,0,0,1,1911.24,943.24Z"/><path class="a" d="M1995.37,949.61v10h-13.6V949.5a36.31,36.31,0,0,1-8,.87c-17.93,0-26.24-13.5-26.24-31.11,0-17.82,8.31-31.32,26.24-31.32a35.63,35.63,0,0,1,8,.87V878.66h13.6v10.15a34.84,34.84,0,0,1,8-.87c17.92,0,26.24,13.5,26.24,31.32,0,17.61-8.32,31.11-26.24,31.11A43,43,0,0,1,1995.37,949.61Zm-13.6-12.09V900.79a28.28,28.28,0,0,0-6.38-.54c-9.28,0-13.71,8.32-13.71,18.91s4.43,18.9,13.71,18.9A28.28,28.28,0,0,0,1981.77,937.52Zm13.6-36.73v36.73a27.12,27.12,0,0,0,6.38.54c9.28,0,13.71-8.32,13.71-18.9s-4.43-18.91-13.71-18.91A27.12,27.12,0,0,0,1995.37,900.79Z"/><path class="a" d="M2045.81,957.5V881.89h43.85l-2.16,12.53h-27.87v17.72h24.63v12.52h-24.63V945h30V957.5Z"/><path class="a" d="M2109.1,957.5V881.89h23.65c13.5,0,23.65,5,23.65,18.15,0,9.94-5.94,15.44-12.85,17.28v.43c9.5,2.27,15.55,8.32,15.55,18.79,0,15.45-11.56,21-26.35,21ZM2132,894.42h-9.07v18.26H2132c6.59,0,10.15-3.68,10.15-9.18S2138.58,894.42,2132,894.42Zm.11,30.14h-9.18V945h9.18c8,0,12.74-4,12.74-9.94C2144.84,928.12,2140.09,924.56,2132.1,924.56Z"/><path class="a" d="M2191.28,930.93V957.5h-13.82V881.89h24.73c14.37,0,25.17,8.32,25.17,24.52s-10.8,24.52-25.17,24.52Zm0-36.51v24H2202c6.58,0,11-4.43,11-12s-4.43-12-11-12Z"/><path class="a" d="M2280.06,941h-24l-5,16.53h-14.58l25.28-75.61h12.63l25.28,75.61h-14.59Zm-20.31-12.2h16.64l-8.1-27.43h-.44Z"/><path class="a" d="M2320.66,881.89h44.39V957.5h-13.82V894.42H2334c0,39.1-5.18,63.62-22.14,63.62a19.66,19.66,0,0,1-7.78-1.52l2.6-11.88a10.14,10.14,0,0,0,3.45.65c7.24,0,10.58-14.9,10.58-60.48Z"/><path class="a" d="M2400.48,881.89v29.38h11.23c15.66,0,26.13,7.67,26.13,23.11s-10.36,23.12-26.13,23.12h-25.06V881.89Zm0,41.91V945h10.58c8.75,0,12.53-4.54,12.53-10.59,0-6.37-3.67-10.58-12.64-10.58Z"/><path class="a" d="M2503.18,952.74c-6.8,3.89-12.52,5.84-21.06,5.84-22.46,0-32.4-17.07-32.4-38.88s9.94-38.89,32.4-38.89a39,39,0,0,1,19.77,4.86l-5.51,11.13a31.77,31.77,0,0,0-14.26-3.46c-12.31,0-18.14,11.56-18.14,26.36s5.83,26.35,18.14,26.35a30.62,30.62,0,0,0,15.45-4.32Z"/><path class="a" d="M2539.15,924.66h-5.4V957.5h-13.83V881.89h13.83v30.25h5.61l19.55-30.25h15.45l-23.66,35.75,25.92,39.86-15.55,1.08Z"/><path class="a" d="M2618.2,958.58c-22.46,0-31.86-17.07-31.86-38.88s9.4-38.89,31.86-38.89,31.86,17.07,31.86,38.89S2640.67,958.58,2618.2,958.58Zm0-65.24c-12.31,0-17.6,11.56-17.6,26.36s5.29,26.35,17.6,26.35,17.61-11.56,17.61-26.35S2630.51,893.34,2618.2,893.34Z"/><path class="a" d="M2714,907.38h-.33L2680,957.5h-11.56V881.89h13.83v50.23h.32l33.7-50.23h11.55V957.5H2714Zm3.56-39c-4.75,7.35-10.91,10.27-19.44,10.27s-14.69-2.92-19.44-10.27l8.64-6.15c2.59,5.18,6.81,7.23,10.8,7.23s8.32-2.16,10.8-7.23Z"/><path class="a" d="M1925.34,1070.93v26.57h-13.83v-75.61h24.73c14.37,0,25.17,8.32,25.17,24.52s-10.8,24.52-25.17,24.52Zm0-36.51v24H1936c6.59,0,11-4.43,11-12s-4.42-12-11-12Z"/><path class="a" d="M1978.15,1097.5v-75.61H2022l-2.16,12.53H1992v17.72h24.63v12.52H1992V1085h30v12.53Z"/><path class="a" d="M2041.43,1097.5v-75.61h23.66c13.5,0,23.65,5,23.65,18.15,0,9.94-5.94,15.44-12.85,17.28v.43c9.5,2.27,15.55,8.32,15.55,18.79,0,15.45-11.56,21-26.35,21Zm22.9-63.08h-9.07v18.26h9.07c6.59,0,10.15-3.68,10.15-9.18S2070.92,1034.42,2064.33,1034.42Zm.11,30.14h-9.18V1085h9.18c8,0,12.74-4,12.74-9.94C2077.18,1068.12,2072.43,1064.56,2064.44,1064.56Z"/><path class="a" d="M2138.42,1098.58c-22.47,0-31.86-17.07-31.86-38.88s9.39-38.89,31.86-38.89,31.86,17.07,31.86,38.89S2160.88,1098.58,2138.42,1098.58Zm0-65.24c-12.31,0-17.6,11.56-17.6,26.36s5.29,26.35,17.6,26.35,17.6-11.56,17.6-26.35S2150.73,1033.34,2138.42,1033.34Z"/><path class="a" d="M2195.55,1021.89h44.39v75.61h-13.83v-63.08h-17.28c0,39.1-5.18,63.62-22.14,63.62a19.61,19.61,0,0,1-7.77-1.52l2.59-11.88a10.25,10.25,0,0,0,3.46.65c7.23,0,10.58-14.9,10.58-60.48Z"/><path class="a" d="M2286.05,1064.88h-10.69v32.62h-13.82v-75.61h13.82v30.46h10.91c2.05-18.36,12.53-31.54,31.54-31.54,21.38,0,31.75,16.85,31.75,38.89s-10.37,38.88-31.75,38.88C2298,1098.58,2287.46,1084.32,2286.05,1064.88Zm31.76,21.17c11.23,0,17.49-12.1,17.49-26.35s-6.26-26.36-17.49-26.36-17.61,12.1-17.61,26.36S2306.57,1086.05,2317.81,1086.05Z"/><path class="a" d="M2367.92,1097.5v-75.61h13.82V1085H2410v-63.08h13.82V1085h10.26l-2.16,28.4H2420.3V1097.5Z"/><path class="a" d="M2494.27,1047.38H2494l-33.7,50.12H2448.7v-75.61h13.82v50.23h.33l33.69-50.23h11.56v75.61h-13.83Z"/><path class="a" d="M2575.27,1047.38H2575l-33.7,50.12H2529.7v-75.61h13.82v50.23h.32l33.7-50.23h11.56v75.61h-13.83Z"/><path class="a" d="M234.09,1023.63h14.69L226.42,1083c-3.56,9.39-9.07,17.28-19.44,17.28a19.32,19.32,0,0,1-12.09-3.78l6.58-10.69a7.65,7.65,0,0,0,5,1.94c2.16,0,4.65-2,6.81-7.34l1.51-3.78h-4.32l-23.33-53h15.77l16.63,39h.32Z"/><path class="a" d="M261.09,1023.63h44.39v75.6H291.65v-63.08H274.37c0,39.1-5.18,63.62-22.14,63.62a19.81,19.81,0,0,1-7.77-1.51l2.59-11.88a10.52,10.52,0,0,0,3.46.64c7.23,0,10.58-14.9,10.58-60.48Z"/><path class="a" d="M331.5,1085a7.67,7.67,0,1,1-7.66,7.67A7.7,7.7,0,0,1,331.5,1085Z"/><path class="a" d="M380.1,1023.63h44.39v75.6H410.67v-63.08H393.39c0,39.1-5.19,63.62-22.14,63.62a19.86,19.86,0,0,1-7.78-1.51l2.59-11.88a10.52,10.52,0,0,0,3.46.64c7.24,0,10.58-14.9,10.58-60.48Z"/><path class="a" d="M485,1023.63h14.69L477.3,1083c-3.56,9.39-9.07,17.28-19.44,17.28a19.34,19.34,0,0,1-12.09-3.78l6.59-10.69a7.61,7.61,0,0,0,5,1.94c2.16,0,4.65-2,6.81-7.34l1.51-3.78h-4.32l-23.33-53h15.77l16.63,39h.33Z"/><path class="a" d="M526.44,1053.87h28.3v-30.24h13.82v75.6H554.74V1066.4h-28.3v32.83H512.62v-75.6h13.82Z"/><path class="a" d="M627.21,1082.7h-24l-5,16.53H583.68l25.27-75.6h12.64l25.27,75.6H632.28Zm-20.31-12.2h16.63l-8.1-27.43H615Z"/><path class="a" d="M690.49,1099.23V1069.1a44.88,44.88,0,0,1-13.28,2.37c-16,0-23.87-7-23.87-22.68v-25.16h13.82v25.16c0,7.56,4.54,10.15,11.13,10.15a35,35,0,0,0,12.2-2.37v-32.94h13.83v75.6Z"/><path class="a" d="M763,1082.7H739l-5,16.53H719.44l25.27-75.6h12.63l25.28,75.6H768Zm-20.3-12.2h16.63l-8.1-27.43h-.43Z"/><path class="a" d="M811.56,1072.66v26.57H797.73v-75.6h24.74c14.36,0,25.16,8.31,25.16,24.51s-10.8,24.52-25.16,24.52Zm0-36.51v24h10.69c6.59,0,11-4.43,11-12s-4.43-12-11-12Z"/><path class="a" d="M914.05,1094.48c-6.8,3.88-12.53,5.83-21.06,5.83-22.46,0-32.4-17.07-32.4-38.88s9.94-38.88,32.4-38.88a39,39,0,0,1,19.76,4.86l-5.5,11.12a31.77,31.77,0,0,0-14.26-3.46c-12.31,0-18.14,11.56-18.14,26.36s5.83,26.35,18.14,26.35a30.55,30.55,0,0,0,15.44-4.32Z"/><path class="a" d="M951.09,1066.4h-5.4v32.83H931.87v-75.6h13.82v30.24h5.62l19.55-30.24H986.3l-23.65,35.75,25.92,39.85L973,1100.31Z"/><path class="a" d="M1026.91,1100.31c-22.47,0-31.86-17.07-31.86-38.88s9.39-38.88,31.86-38.88,31.86,17.06,31.86,38.88S1049.37,1100.31,1026.91,1100.31Zm0-65.24c-12.31,0-17.61,11.56-17.61,26.36s5.3,26.35,17.61,26.35,17.6-11.56,17.6-26.35S1039.22,1035.07,1026.91,1035.07Z"/><path class="a" d="M1092,1036.15v63.08h-13.82v-75.6h43.2l-2.16,12.52Z"/><path class="a" d="M1159.75,1100.31c-22.47,0-31.86-17.07-31.86-38.88s9.39-38.88,31.86-38.88,31.86,17.06,31.86,38.88S1182.21,1100.31,1159.75,1100.31Zm0-65.24c-12.31,0-17.61,11.56-17.61,26.36s5.3,26.35,17.61,26.35,17.6-11.56,17.6-26.35S1172.06,1035.07,1159.75,1035.07Z"/><path class="a" d="M293.65,1241v-53.9H302v46.51h24.41l-1.54,7.39Z"/><path class="a" d="M377.57,1224.41c0,10.24-7.7,17.32-19.25,17.32s-19.24-7.08-19.24-17.32v-37.35h8.31v37c0,6.08,4.16,10.32,10.93,10.32s10.94-4.24,10.94-10.32v-37h8.31Z"/><path class="a" d="M427.47,1227.18h.31v-40.12h8.31V1241h-8.93l-22.87-40H404v40h-8.32v-53.9h8.93Z"/><path class="a" d="M449.18,1241l18-53.9h8.24l18,53.9H484.6l-3.85-12.55H461.81L458,1241Zm22.33-42.89h-.38L464,1221.25H478.6Z"/><path class="a" d="M511.32,1214c0,11.4,3.85,20.33,13.71,20.33a23.35,23.35,0,0,0,11.78-3.31l3.23,6.54a27.53,27.53,0,0,1-15,4.16c-16,0-22.33-12.16-22.33-27.72s6.31-27.72,22.33-27.72a27.77,27.77,0,0,1,14.09,3.47l-3.24,6.54a23.61,23.61,0,0,0-10.85-2.61C515.17,1193.69,511.32,1202.62,511.32,1214Z"/><path class="a" d="M563.37,1209.39h22.49v-22.33h8.31V1241h-8.31v-24.18H563.37V1241h-8.31v-53.9h8.31Z"/><path class="a" d="M607.26,1241l18-53.9h8.24l18,53.9h-8.86l-3.85-12.55H619.89L616.12,1241Zm22.33-42.89h-.38l-7.16,23.18h14.63Z"/><path class="a" d="M697.89,1203.08c0,8.31-4.62,13.32-11.16,15.09L700.82,1241l-9,.77-14.09-22.79h-4.78v22h-8.31v-53.9H681C690.35,1187.06,697.89,1192.53,697.89,1203.08Zm-24.95-8.62v17.09h7.7c4.93,0,8.63-3.08,8.63-8.47s-3.7-8.62-8.63-8.62Z"/><path class="a" d="M738.78,1227c0-5.31-5.16-8.23-11.09-10.54-6.93-2.7-14.86-6.63-14.86-15.56,0-9.24,6.55-14.63,17.48-14.63a30.59,30.59,0,0,1,15.4,4.16l-3.93,6.55a20.52,20.52,0,0,0-11.47-3.31c-5.85,0-8.86,2.38-8.86,6.77s5.32,7.24,10,9.09c8.47,3.31,15.94,7,15.94,17,0,9.55-6.7,15.17-18.79,15.17a29.38,29.38,0,0,1-17-4.77l4.39-6.78a20,20,0,0,0,12.62,4.16C734.62,1234.34,738.78,1232,738.78,1227Z"/><path class="a" d="M782.44,1212.55l20,28.41-9.55.77-17.79-25.1h-4V1241H762.8v-53.9h8.32v22.49h4.23l16-22.49h9.47Z"/><path class="a" d="M831.72,1241.73c-16,0-22.33-12.16-22.33-27.72s6.31-27.72,22.33-27.72,22.33,12.17,22.33,27.72S847.73,1241.73,831.72,1241.73Zm0-48c-9.86,0-13.71,8.93-13.71,20.32s3.85,20.33,13.71,20.33,13.7-8.93,13.7-20.33S841.57,1193.69,831.72,1193.69Z"/><path class="a" d="M876.53,1214c0,11.4,4.16,20.33,14.32,20.33a19,19,0,0,0,7.78-1.46v-13.71h-9.47v-7.24H906.4v24.87a24.9,24.9,0,0,1-15.86,4.93c-16,0-22.63-12.16-22.63-27.72s6.62-27.72,22.63-27.72a29.15,29.15,0,0,1,14.63,3.47l-3.31,6.7a23.65,23.65,0,0,0-11.32-2.77C880.69,1193.69,876.53,1202.62,876.53,1214Z"/><path class="a" d="M943,1241.73c-16,0-22.33-12.16-22.33-27.72s6.32-27.72,22.33-27.72,22.33,12.17,22.33,27.72S959,1241.73,943,1241.73Zm0-48c-9.85,0-13.7,8.93-13.7,20.32s3.85,20.33,13.7,20.33,13.71-8.93,13.71-20.33S952.84,1193.69,943,1193.69Z"/><path class="a" d="M1019.83,1227c0-5.31-5.16-8.23-11.09-10.54-6.93-2.7-14.86-6.63-14.86-15.56,0-9.24,6.54-14.63,17.48-14.63a30.62,30.62,0,0,1,15.4,4.16l-3.93,6.55a20.55,20.55,0,0,0-11.47-3.31c-5.86,0-8.86,2.38-8.86,6.77s5.32,7.24,10,9.09c8.47,3.31,15.94,7,15.94,17,0,9.55-6.7,15.17-18.79,15.17a29.38,29.38,0,0,1-17-4.77l4.39-6.78a20,20,0,0,0,12.62,4.16C1015.67,1234.34,1019.83,1232,1019.83,1227Z"/><path class="a" d="M1062.79,1194.46V1241h-8.31v-46.5h-16v-7.4h40.42l-1.54,7.4Z"/><path class="a" d="M1088.59,1231.57a5.08,5.08,0,1,1-5.08,5.08A5.13,5.13,0,0,1,1088.59,1231.57Z"/><g class="h"><rect class="i" x="693.61" width="1.76" height="21.44"/><rect class="i" x="693.61" y="31.93" width="1.76" height="21.44"/><rect class="i" x="693.61" y="63.85" width="1.76" height="21.44"/><rect class="i" x="693.61" y="95.78" width="1.76" height="21.43"/><rect class="i" x="693.61" y="127.7" width="1.76" height="21.44"/><rect class="i" x="693.61" y="159.63" width="1.76" height="21.43"/><rect class="i" x="693.61" y="191.55" width="1.76" height="21.43"/><rect class="i" x="693.61" y="223.48" width="1.76" height="21.44"/><rect class="i" x="693.61" y="255.4" width="1.76" height="21.44"/><rect class="i" x="693.61" y="287.33" width="1.76" height="21.44"/><rect class="i" x="693.61" y="319.26" width="1.76" height="21.43"/><rect class="i" x="693.61" y="351.18" width="1.76" height="21.44"/><rect class="i" x="693.61" y="383.11" width="1.76" height="21.43"/><rect class="i" x="693.61" y="415.03" width="1.76" height="21.43"/></g><g class="h"><rect class="i" x="693.61" y="448.85" width="1.76" height="21.44"/><rect class="i" x="693.61" y="480.77" width="1.76" height="21.44"/><rect class="i" x="693.61" y="512.7" width="1.76" height="21.44"/><rect class="i" x="693.61" y="544.63" width="1.76" height="21.43"/><rect class="i" x="693.61" y="576.55" width="1.76" height="21.44"/><rect class="i" x="693.61" y="608.48" width="1.76" height="21.43"/><rect class="i" x="693.61" y="640.4" width="1.76" height="21.43"/><rect class="i" x="693.61" y="672.33" width="1.76" height="21.44"/><rect class="i" x="693.61" y="704.25" width="1.76" height="21.44"/><rect class="i" x="693.61" y="736.18" width="1.76" height="21.44"/><rect class="i" x="693.61" y="768.11" width="1.76" height="21.43"/><rect class="i" x="693.61" y="800.03" width="1.76" height="21.44"/><rect class="i" x="693.61" y="831.96" width="1.76" height="21.43"/><rect class="i" x="693.61" y="863.88" width="1.76" height="21.43"/></g><g class="h"><rect class="i" x="2253.21" width="1.76" height="21.44"/><rect class="i" x="2253.21" y="31.93" width="1.76" height="21.44"/><rect class="i" x="2253.21" y="63.85" width="1.76" height="21.44"/><rect class="i" x="2253.21" y="95.78" width="1.76" height="21.43"/><rect class="i" x="2253.21" y="127.7" width="1.76" height="21.44"/><rect class="i" x="2253.21" y="159.63" width="1.76" height="21.43"/><rect class="i" x="2253.21" y="191.55" width="1.76" height="21.43"/><rect class="i" x="2253.21" y="223.48" width="1.76" height="21.44"/><rect class="i" x="2253.21" y="255.4" width="1.76" height="21.44"/><rect class="i" x="2253.21" y="287.33" width="1.76" height="21.44"/><rect class="i" x="2253.21" y="319.26" width="1.76" height="21.43"/><rect class="i" x="2253.21" y="351.18" width="1.76" height="21.44"/><rect class="i" x="2253.21" y="383.11" width="1.76" height="21.43"/><rect class="i" x="2253.21" y="415.03" width="1.76" height="21.43"/></g><g class="h"><rect class="i" x="2253.21" y="448.85" width="1.76" height="21.44"/><rect class="i" x="2253.21" y="480.77" width="1.76" height="21.44"/><rect class="i" x="2253.21" y="512.7" width="1.76" height="21.44"/><rect class="i" x="2253.21" y="544.63" width="1.76" height="21.43"/><rect class="i" x="2253.21" y="576.55" width="1.76" height="21.44"/><rect class="i" x="2253.21" y="608.48" width="1.76" height="21.43"/><rect class="i" x="2253.21" y="640.4" width="1.76" height="21.43"/><rect class="i" x="2253.21" y="672.33" width="1.76" height="21.44"/><rect class="i" x="2253.21" y="704.25" width="1.76" height="21.44"/><rect class="i" x="2253.21" y="736.18" width="1.76" height="21.44"/><rect class="i" x="2253.21" y="768.11" width="1.76" height="21.43"/><rect class="i" x="2253.21" y="800.03" width="1.76" height="21.44"/><rect class="i" x="2253.21" y="831.96" width="1.76" height="21.43"/></g><path class="i" d="M149.25,188.48v21.14h5.67V213H139.17v-3.36h6.41V191.84H139.7l.7-3.36Z"/><path class="i" d="M163.29,209.62h10l-.7,3.36h-14.7v-3c4.8-3.6,10.89-10,10.89-14.66,0-2.35-1.16-3.82-3.64-3.82a9.53,9.53,0,0,0-5.15,1.65l-1.68-2.94a13.92,13.92,0,0,1,7.49-2.07c4.31,0,6.79,2.45,6.79,6.72,0,5.39-5,11.24-9.27,14.63Z"/><path class="i" d="M184.43,213.33c-5.39,0-8.58-4.3-8.58-12.6s3.19-12.6,8.58-12.6,8.57,4.31,8.57,12.6S189.82,213.33,184.43,213.33Zm0-3.36c2.8,0,4.76-2.73,4.76-9.24s-2-9.24-4.76-9.24-4.76,2.73-4.76,9.24S181.63,210,184.43,210Z"/><path class="j" d="M142.23,546.82V568h5.67v3.36H132.15V568h6.41V550.18h-5.88l.7-3.36Z"/><path class="j" d="M163,546.82l-8.75,15.3v.14h5.57v-4.45h3.67v4.45h4l-.7,3.32h-3.33v5.74h-3.67v-5.74h-10v-3l9-15.79Z"/><path class="j" d="M177.41,571.67c-5.39,0-8.58-4.3-8.58-12.6s3.19-12.6,8.58-12.6,8.57,4.31,8.57,12.6S182.8,571.67,177.41,571.67Zm0-3.36c2.8,0,4.76-2.73,4.76-9.24s-2-9.24-4.76-9.24-4.76,2.73-4.76,9.24S174.61,568.31,177.41,568.31Z"/><path class="j" d="M137.4,1065.41h10l-.7,3.36H132v-3c4.79-3.61,10.88-10,10.88-14.67,0-2.35-1.15-3.82-3.64-3.82a9.47,9.47,0,0,0-5.14,1.65L132.4,1046a13.92,13.92,0,0,1,7.49-2.07c4.3,0,6.79,2.45,6.79,6.72,0,5.39-5,11.24-9.28,14.64Z"/><path class="j" d="M162.53,1047.62h-12l.7-3.36h15.23v3l-8.54,21.5h-4Z"/><path class="j" d="M142.23,1198.64v21.14h5.67v3.36H132.15v-3.36h6.41V1202h-5.88l.7-3.36Z"/><path class="j" d="M162,1212.36a6.29,6.29,0,0,1-4.44,1.51c-4.17,0-7-2.77-7-7.71s3.4-7.87,8-7.87c4.94,0,7.95,3.32,7.95,9,0,8.76-4.9,14.11-12.15,16.21l-1.33-2.87c4.17-1.57,8-3.95,9.14-8.19Zm-3.5-10.71c-2.38,0-4.2,1.61-4.2,4.51s1.82,4.52,4.2,4.52a4.72,4.72,0,0,0,4.24-3C162.71,1204.13,161.17,1201.65,158.47,1201.65Z"/><path class="i" d="M143.11,887.51a6.3,6.3,0,0,1-4.45,1.51c-4.16,0-7-2.77-7-7.7s3.39-7.88,8-7.88c4.93,0,7.94,3.33,7.94,9,0,8.75-4.9,14.1-12.14,16.2l-1.33-2.87c4.16-1.57,8-3.95,9.13-8.19Zm-3.5-10.71c-2.38,0-4.2,1.61-4.2,4.52s1.82,4.51,4.2,4.51a4.71,4.71,0,0,0,4.23-3C143.84,879.29,142.3,876.8,139.61,876.8Z"/><path class="i" d="M165.89,890.73c0,5.39-3.85,7.91-8.29,7.91a12.32,12.32,0,0,1-7.11-2.06l1.79-2.94a8.44,8.44,0,0,0,5.07,1.64c2.7,0,4.73-1.4,4.73-4.51s-2.1-4.55-4.87-4.55h-1.82v-1.89l5.25-7v-.14H151.3l.7-3.36h12.81v3l-5,6.65v.11C163.09,884.12,165.89,886,165.89,890.73Z"/><path class="i" d="M147,1148.36c0,5.39-3.85,7.91-8.3,7.91a12.26,12.26,0,0,1-7.1-2.06l1.78-2.94a8.47,8.47,0,0,0,5.08,1.64c2.69,0,4.72-1.4,4.72-4.52s-2.1-4.55-4.86-4.55h-1.82V1142l5.25-7v-.14h-9.35l.7-3.36h12.81v3l-5,6.65v.1C144.23,1141.74,147,1143.63,147,1148.36Z"/><path class="i" d="M161.1,1131.42v21.14h5.67v3.36H151v-3.36h6.4v-17.78h-5.88l.7-3.36Z"/><path class="i" d="M131.8,1347.17a6.94,6.94,0,0,1,4.06-6.16v-.1a6.2,6.2,0,0,1-3.29-5.57c0-3.92,2.66-6.37,7.11-6.37s7.1,2.45,7.1,6.37a6.23,6.23,0,0,1-3.29,5.6v.11a6.87,6.87,0,0,1,4.06,6.12c0,4.41-3.08,7-7.87,7S131.8,1351.58,131.8,1347.17Zm6.72-4.83a5.5,5.5,0,0,0-3.08,4.83c0,2.56,1.79,3.64,4.24,3.64s4.23-1.22,4.23-3.64c0-2.1-1.85-3.32-3.92-4.2Zm1-3.11,1.12.45a5.18,5.18,0,0,0,2.52-4.34c0-1.89-1.47-3-3.46-3s-3.47,1.12-3.47,3C136.21,1337.44,137.72,1338.49,139.5,1339.23Z"/><path class="i" d="M158.54,1354.17c-5.39,0-8.57-4.3-8.57-12.6s3.18-12.6,8.57-12.6,8.58,4.3,8.58,12.6S163.93,1354.17,158.54,1354.17Zm0-3.36c2.8,0,4.76-2.73,4.76-9.24s-2-9.24-4.76-9.24-4.76,2.73-4.76,9.24S155.74,1350.81,158.54,1350.81Z"/><path class="g" d="M2466,221.48v-3h2.83v-12H2466v-3H2475l-.52,3h-2.44v12h2.83v3Z"/><path class="g" d="M2477.63,211.82c0-2.19,1.77-3.7,4.65-3.7a10.34,10.34,0,0,1,4.27.9l-1.08,2.49a8.39,8.39,0,0,0-3-.64c-1.13,0-1.64.41-1.64,1,0,.8.77,1.18,2.08,1.62,1.93.64,4,1.64,4,4.24,0,2.39-2,4-5,4a10.18,10.18,0,0,1-4.55-1l1.1-2.57a8.34,8.34,0,0,0,3.34.77c1.11,0,1.88-.49,1.88-1.21,0-1-1.26-1.49-2.57-2C2479.56,215.23,2477.63,214.23,2477.63,211.82Z"/><path class="g" d="M2498.83,218.14l1.11,2.49a10.2,10.2,0,0,1-4.53,1.11c-3.85,0-6.5-2.52-6.5-6.81s2.31-6.81,6-6.81c3.42,0,5.56,2.13,5.56,5.8a18.27,18.27,0,0,1-.16,2h-8.17a3.38,3.38,0,0,0,3.42,3.09A7.8,7.8,0,0,0,2498.83,218.14Zm-1.26-4.68a2.42,2.42,0,0,0-2.59-2.59,2.81,2.81,0,0,0-2.78,2.59Z"/><path class="g" d="M2511.42,221.27a9.24,9.24,0,0,1-2.85.47c-2.36,0-4.29-1.08-4.29-4.14v-6.48H2502v-2.75h2.26v-3.54l3.19-.52v4.06h3.67l-.51,2.75h-3.16v6.48c0,1,.41,1.39,1.41,1.39a7.23,7.23,0,0,0,2-.34Z"/><path class="g" d="M2524.91,213.54c-2.31-.9-5-2.52-5-5.5s2.31-4.81,6-4.81a10.74,10.74,0,0,1,5.27,1.39l-1.57,2.62a7,7,0,0,0-3.7-1c-1.62,0-2.57.56-2.57,1.67,0,1.31,1.57,2.28,3.06,2.87,2.82,1.11,5.34,2.5,5.34,5.84,0,3.18-2.36,5.14-6.4,5.14a10.22,10.22,0,0,1-5.8-1.6l1.77-2.67a6.69,6.69,0,0,0,4,1.29c1.73,0,3-.78,3-2.11C2528.33,215,2526.82,214.28,2524.91,213.54Z"/><path class="g" d="M2541.26,212.9c0-1.26-.65-2-2.21-2a10.35,10.35,0,0,0-3.5.69l-1-2.57a13.12,13.12,0,0,1,4.76-.87c4,0,5.08,2.1,5.08,4.83v5a.83.83,0,0,0,.93.93h.28v2.49a6.06,6.06,0,0,1-1.82.26,2.35,2.35,0,0,1-2.32-1.26h-.1a4.43,4.43,0,0,1-3.44,1.26c-2.49,0-4.06-1.24-4.06-3.91,0-2.52,2-3.93,4.91-3.93h2.44Zm0,4.8v-1.49h-2.34c-1.18,0-1.85.59-1.85,1.44a1.3,1.3,0,0,0,1.41,1.34A3.75,3.75,0,0,0,2541.26,217.7Z"/><path class="g" d="M2551.41,221.48h-3.19V208.37h2.42l.51,1.13h.1a5.06,5.06,0,0,1,3.47-1.38c2.75,0,4.29,1.72,4.29,5.16v8.2h-3.18v-7.91c0-1.83-.7-2.7-1.9-2.7a3.53,3.53,0,0,0-2.52,1.54Z"/><path class="g" d="M2562,211.82c0-2.19,1.78-3.7,4.66-3.7a10.33,10.33,0,0,1,4.26.9l-1.08,2.49a8.34,8.34,0,0,0-3-.64c-1.14,0-1.65.41-1.65,1,0,.8.77,1.18,2.08,1.62,1.93.64,4,1.64,4,4.24,0,2.39-2,4-5,4a10.21,10.21,0,0,1-4.55-1l1.11-2.57a8.3,8.3,0,0,0,3.34.77c1.1,0,1.87-.49,1.87-1.21,0-1-1.26-1.49-2.57-2C2563.92,215.23,2562,214.23,2562,211.82Z"/><path class="g" d="M2594.29,209.74h-.07l-3.09,9.37h-3.36l-3.11-9.37h-.08l-1.08,11.74h-3.29l1.67-18h3.68l3.85,11.57h.08l3.85-11.57H2597l1.67,18h-3.29Z"/><path class="g" d="M2611.18,218.14l1.1,2.49a10.16,10.16,0,0,1-4.52,1.11c-3.85,0-6.5-2.52-6.5-6.81s2.31-6.81,6-6.81c3.42,0,5.55,2.13,5.55,5.8a17.79,17.79,0,0,1-.15,2h-8.17a3.38,3.38,0,0,0,3.41,3.09A7.85,7.85,0,0,0,2611.18,218.14Zm-1.26-4.68a2.43,2.43,0,0,0-2.6-2.59,2.81,2.81,0,0,0-2.77,2.59Z"/><path class="g" d="M2623.9,220.35a4.87,4.87,0,0,1-3.39,1.39c-3.7,0-5.37-2.86-5.37-6.81s1.69-6.81,5.6-6.81a9,9,0,0,1,3,.49v-5.89l3.19-.51v19.27h-2.41l-.52-1.13Zm-5.53-5.42c0,2.39,1,4.06,2.91,4.06a3.44,3.44,0,0,0,2.46-1.29v-6.14a4.93,4.93,0,0,0-2.57-.69C2619.45,210.87,2618.37,212.36,2618.37,214.93Z"/><path class="g" d="M2629.37,211.12l.52-2.75h4.83v13.11h-3.19V211.12Zm3.75-8.4a1.84,1.84,0,1,1,0,3.68,1.84,1.84,0,1,1,0-3.68Z"/><path class="g" d="M2646.1,208.37h3.19v13.11h-2.42l-.51-1.13h-.11a5.51,5.51,0,0,1-3.64,1.39c-2.57,0-4.5-1.7-4.5-5.37v-8h3.19v8c0,1.82.89,2.62,2.1,2.62a3.86,3.86,0,0,0,2.7-1.55Z"/><path class="g" d="M2662.26,209.56a6.15,6.15,0,0,1,4-1.44c2.75,0,4.34,1.72,4.34,5.16v8.2h-3.18v-7.91c0-1.83-.7-2.7-1.9-2.7a3.33,3.33,0,0,0-2.16,1.1v9.51h-3.19v-7.91c0-1.83-.64-2.7-1.75-2.7a3.21,3.21,0,0,0-2.31,1.54v9.07h-3.19V208.37h2.42l.51,1.13h.11a4.66,4.66,0,0,1,3.29-1.38A3.82,3.82,0,0,1,2662.26,209.56Z"/><path class="g" d="M2471.21,239.2l5.65-7.71h2.57l-6.14,8.51,6.68,9.48-2.52.26-6.24-8.59h-2v8.33H2467v-18h2.26v7.71Z"/><path class="g" d="M2483.52,243.54c.2,2.86,1.54,4.47,4.13,4.47a6.92,6.92,0,0,0,3.37-.92l.74,1.54a8.87,8.87,0,0,1-4.36,1.11c-3.65,0-6.15-2.52-6.15-6.81,0-4.06,2.09-6.81,5.79-6.81,3.52,0,5.26,2,5.26,5.26a10.6,10.6,0,0,1-.23,2.16Zm0-1.56h6.75a4,4,0,0,0,0-.6c0-2-1.08-3.54-3.21-3.54S2483.64,239.53,2483.52,242Z"/><path class="g" d="M2503.82,236.37l-.52,1.73h-5.24v11.38h-2.16V236.37Z"/><path class="g" d="M2516,236.37v13.11h-2.16V238.1h-4.06v1.07c0,7-1.16,10.44-3.93,10.44a3.76,3.76,0,0,1-1.73-.46l.62-1.68a1.65,1.65,0,0,0,1,.31c1.36,0,2-2.54,2-9.22v-2.19Z"/><path class="g" d="M2525.3,241.15c2.83,0,4.68,1.55,4.68,4.19s-1.85,4.14-4.68,4.14h-5V236.37h2.15v4.78Zm-2.83,1.73v4.88H2525c1.67,0,2.73-.9,2.73-2.44s-1.06-2.44-2.73-2.44Z"/><path class="g" d="M2542,239.74a4.73,4.73,0,0,1,3.47-1.44c2.9,0,5,2.08,5,5.71a5.37,5.37,0,0,1-5.73,5.73c-3.62,0-5.7-2.73-5.7-6.76a12.41,12.41,0,0,1,9.15-11.75l.74,1.57c-3.08,1.11-6,3.42-7,6.89Zm2.77,8c2.06,0,3.45-1.31,3.45-3.77s-1.39-3.76-3.45-3.76a3.94,3.94,0,0,0-3.49,2.73C2541.31,245.86,2542.49,247.78,2544.8,247.78Z"/><path class="g" d="M2559.14,249.74c-3.95,0-6.16-3.16-6.16-9.25s2.21-9.26,6.16-9.26,6.17,3.17,6.17,9.26S2563.1,249.74,2559.14,249.74Zm0-2c2.37,0,3.88-2.16,3.88-7.29s-1.51-7.3-3.88-7.3-3.88,2.16-3.88,7.3S2556.78,247.78,2559.14,247.78Z"/><path class="g" d="M2567.88,244.7a5.32,5.32,0,0,1,3-4.68V240a4.59,4.59,0,0,1-2.41-4.12c0-2.8,1.9-4.6,5.08-4.6s5.09,1.8,5.09,4.6a5.11,5.11,0,0,1-2.41,4.24v.08a5.14,5.14,0,0,1,3,4.55c0,3.24-2.14,5-5.66,5S2567.88,247.94,2567.88,244.7Zm6.3-3.29-1.52-.64a4.68,4.68,0,0,0-2.62,3.93c0,2.24,1.39,3.08,3.49,3.08s3.5-1,3.5-3.08C2577,243.16,2575.67,242,2574.18,241.41Zm.18-2a4.56,4.56,0,0,0,2.1-3.6c0-1.72-1.26-2.64-2.93-2.64s-2.93.92-2.93,2.64a3.25,3.25,0,0,0,2.32,3Z"/><path class="g" d="M2599.64,249.48h-2.16V238.1h-5.73v11.38h-2.16V236.37h10Z"/><path class="g" d="M2602.47,236.37h10.84l-.51,1.73h-3.91v11.38h-2.13V238.1h-4.29Z"/><path class="g" d="M2623.49,240.07a1.57,1.57,0,1,1-1.57,1.57A1.59,1.59,0,0,1,2623.49,240.07Z"/><path class="g" d="M2643.87,244.34l4-12.85h3.21l1.67,18h-2.26l-1.39-15.21h-.1l-4.14,12.84h-2.18l-4.14-12.84h-.1l-1.39,15.21h-2.26l1.67-18h3.21l4,12.85Z"/><path class="g" d="M2663.6,240.9c0-1.88-.64-3.06-3-3.06a9.88,9.88,0,0,0-3.6.72l-.59-1.59a12.08,12.08,0,0,1,4.5-.85c4,0,4.83,2,4.83,4.78V247a.83.83,0,0,0,.93.93h.28v1.46a3.49,3.49,0,0,1-1.29.26,1.76,1.76,0,0,1-1.82-1.78h-.1a4.91,4.91,0,0,1-4,1.78c-2.44,0-4.06-1.18-4.06-3.86,0-2.49,1.93-3.88,4.83-3.88h3Zm-3.13,2.62c-1.6,0-2.65.77-2.65,2.26a2,2,0,0,0,2.24,2.18,4.3,4.3,0,0,0,3.54-1.85v-2.59Z"/><path class="g" d="M2679,249a8.82,8.82,0,0,1-3.6.77c-4.24,0-6.14-3-6.14-6.81s1.77-6.81,6-6.81a9.29,9.29,0,0,1,3.6.72l-.62,1.59a7.24,7.24,0,0,0-2.82-.59c-2.55,0-4,2-4,5.09s1.39,5.08,3.93,5.08a8.19,8.19,0,0,0,3-.64Z"/><path class="g" d="M2697.83,249.48H2682.1V236.37h2.16v11.39h4.65V236.37h2.14v11.39h4.62V236.37h2.16Z"/><path class="g" d="M2700.66,236.37h10.84l-.51,1.73h-3.91v11.38H2705V238.1h-4.29Z"/><path class="g" d="M2720.91,240.9c0-1.88-.65-3.06-3-3.06a9.79,9.79,0,0,0-3.6.72l-.59-1.59a12,12,0,0,1,4.49-.85c4,0,4.84,2,4.84,4.78V247a.83.83,0,0,0,.92.93h.28v1.46a3.39,3.39,0,0,1-1.28.26,1.77,1.77,0,0,1-1.83-1.78h-.1a4.89,4.89,0,0,1-4,1.78c-2.44,0-4.06-1.18-4.06-3.86,0-2.49,1.93-3.88,4.83-3.88h3Zm-3.14,2.62c-1.59,0-2.65.77-2.65,2.26a2,2,0,0,0,2.24,2.18,4.31,4.31,0,0,0,3.55-1.85v-2.59Z"/><path class="g" d="M2728.85,238.71a6.43,6.43,0,0,1,4.55-2c3.21,0,5.29,2.13,5.29,6.5s-2.42,6.48-6.07,6.48c-4.24,0-5.91-3.24-5.91-8.41,0-8.27,2.19-9.79,6.43-10.17a12.33,12.33,0,0,0,4.13-.95l.65,1.72a12.44,12.44,0,0,1-4.55,1c-2.93.26-4.6,1.75-4.6,5.73Zm3.77,9.3c2.32,0,3.86-1.56,3.86-4.75s-1.41-4.78-3.55-4.78a5,5,0,0,0-4.06,2.75C2728.87,245.75,2730,248,2732.62,248Z"/><path class="g" d="M2757.55,233.44h-9.23l.52-1.95h10.92v1.7l-6.3,16.29h-2.21Z"/><path class="g" d="M2767.8,249.74a8.54,8.54,0,0,1-5.08-1.52l1.05-1.72a6.2,6.2,0,0,0,3.85,1.28c2.29,0,3.86-1.18,3.86-3.83s-1.62-3.85-4-3.85h-.77v-.9l3.83-5.65v-.11h-7.27l.51-1.95H2773v1.7l-3.62,5.37v.1a4.89,4.89,0,0,1,4.42,5.29C2773.77,247.91,2771.07,249.74,2767.8,249.74Z"/><path class="g" d="M2781.06,240c-2.44,0-3.95-1.59-3.95-4.37s1.51-4.37,3.95-4.37,4,1.6,4,4.37S2783.5,240,2781.06,240Zm10.49-8.48h1.85l-13.36,18h-1.91Zm-12.65,4.11c0,1.88.7,2.93,2.16,2.93s2.16-1.05,2.16-2.93-.69-2.93-2.16-2.93S2778.9,233.73,2778.9,235.6Zm11.59,14.14c-2.44,0-3.95-1.6-3.95-4.37s1.51-4.37,3.95-4.37,4,1.59,4,4.37S2792.94,249.74,2790.49,249.74Zm-2.15-4.37c0,1.87.69,2.93,2.15,2.93s2.16-1.06,2.16-2.93-.69-2.93-2.16-2.93S2788.34,243.49,2788.34,245.37Z"/><path class="g" d="M1842.22,221.48v-3H1845v-12h-2.82v-3h9.07l-.52,3h-2.44v12h2.83v3Z"/><path class="g" d="M1853.88,211.82c0-2.19,1.78-3.7,4.65-3.7a10.34,10.34,0,0,1,4.27.9l-1.08,2.49a8.39,8.39,0,0,0-3-.64c-1.14,0-1.65.41-1.65,1,0,.8.77,1.18,2.08,1.62,1.93.64,4,1.64,4,4.24,0,2.39-2,4-5,4a10.18,10.18,0,0,1-4.55-1l1.11-2.57a8.3,8.3,0,0,0,3.34.77c1.1,0,1.87-.49,1.87-1.21,0-1-1.26-1.49-2.57-2C1855.81,215.23,1853.88,214.23,1853.88,211.82Z"/><path class="g" d="M1875.08,218.14l1.11,2.49a10.2,10.2,0,0,1-4.53,1.11c-3.85,0-6.5-2.52-6.5-6.81s2.32-6.81,6-6.81c3.41,0,5.55,2.13,5.55,5.8a16,16,0,0,1-.16,2h-8.17a3.38,3.38,0,0,0,3.42,3.09A7.8,7.8,0,0,0,1875.08,218.14Zm-1.26-4.68a2.42,2.42,0,0,0-2.59-2.59,2.82,2.82,0,0,0-2.78,2.59Z"/><path class="g" d="M1887.67,221.27a9.24,9.24,0,0,1-2.85.47c-2.36,0-4.29-1.08-4.29-4.14v-6.48h-2.26v-2.75h2.26v-3.54l3.19-.52v4.06h3.67l-.51,2.75h-3.16v6.48c0,1,.41,1.39,1.41,1.39a7.36,7.36,0,0,0,2-.34Z"/><path class="g" d="M1901.17,213.54c-2.32-.9-5-2.52-5-5.5s2.31-4.81,6-4.81a10.74,10.74,0,0,1,5.27,1.39l-1.57,2.62a7,7,0,0,0-3.7-1c-1.62,0-2.57.56-2.57,1.67,0,1.31,1.57,2.28,3.06,2.87,2.83,1.11,5.35,2.5,5.35,5.84,0,3.18-2.37,5.14-6.4,5.14a10.23,10.23,0,0,1-5.81-1.6l1.77-2.67a6.7,6.7,0,0,0,4,1.29c1.72,0,3-.78,3-2.11C1904.58,215,1903.07,214.28,1901.17,213.54Z"/><path class="g" d="M1917.51,212.9c0-1.26-.64-2-2.21-2a10.35,10.35,0,0,0-3.5.69l-1-2.57a13.16,13.16,0,0,1,4.76-.87c4,0,5.09,2.1,5.09,4.83v5a.83.83,0,0,0,.92.93h.28v2.49a6.06,6.06,0,0,1-1.82.26,2.33,2.33,0,0,1-2.31-1.26h-.11a4.41,4.41,0,0,1-3.44,1.26c-2.49,0-4.06-1.24-4.06-3.91,0-2.52,2-3.93,4.91-3.93h2.44Zm0,4.8v-1.49h-2.34c-1.18,0-1.85.59-1.85,1.44a1.3,1.3,0,0,0,1.41,1.34A3.72,3.72,0,0,0,1917.51,217.7Z"/><path class="g" d="M1927.66,221.48h-3.19V208.37h2.42l.51,1.13h.1a5.08,5.08,0,0,1,3.47-1.38c2.75,0,4.3,1.72,4.3,5.16v8.2h-3.19v-7.91c0-1.83-.69-2.7-1.9-2.7a3.53,3.53,0,0,0-2.52,1.54Z"/><path class="g" d="M1938.25,211.82c0-2.19,1.77-3.7,4.65-3.7a10.33,10.33,0,0,1,4.26.9l-1.08,2.49a8.34,8.34,0,0,0-3-.64c-1.13,0-1.65.41-1.65,1,0,.8.77,1.18,2.08,1.62,1.93.64,4,1.64,4,4.24,0,2.39-2,4-5,4a10.21,10.21,0,0,1-4.55-1l1.11-2.57a8.3,8.3,0,0,0,3.34.77c1.1,0,1.88-.49,1.88-1.21,0-1-1.26-1.49-2.57-2C1940.17,215.23,1938.25,214.23,1938.25,211.82Z"/><path class="g" d="M1970.55,209.74h-.08l-3.08,9.37H1964l-3.11-9.37h-.08l-1.08,11.74h-3.28l1.67-18h3.67l3.85,11.57h.08l3.86-11.57h3.67l1.67,18h-3.29Z"/><path class="g" d="M1987.43,218.14l1.11,2.49a10.2,10.2,0,0,1-4.53,1.11c-3.85,0-6.5-2.52-6.5-6.81s2.31-6.81,6-6.81c3.42,0,5.55,2.13,5.55,5.8a17.79,17.79,0,0,1-.15,2h-8.17a3.38,3.38,0,0,0,3.42,3.09A7.8,7.8,0,0,0,1987.43,218.14Zm-1.26-4.68a2.42,2.42,0,0,0-2.59-2.59,2.81,2.81,0,0,0-2.78,2.59Z"/><path class="g" d="M2000.15,220.35a4.87,4.87,0,0,1-3.39,1.39c-3.7,0-5.37-2.86-5.37-6.81s1.69-6.81,5.6-6.81a9.09,9.09,0,0,1,3,.49v-5.89l3.18-.51v19.27h-2.41l-.52-1.13Zm-5.52-5.42c0,2.39,1,4.06,2.9,4.06a3.46,3.46,0,0,0,2.47-1.29v-6.14a5,5,0,0,0-2.57-.69C1995.71,210.87,1994.63,212.36,1994.63,214.93Z"/><path class="g" d="M2005.62,211.12l.52-2.75H2011v13.11h-3.19V211.12Zm3.76-8.4a1.84,1.84,0,1,1,0,3.68,1.84,1.84,0,1,1,0-3.68Z"/><path class="g" d="M2022.35,208.37h3.19v13.11h-2.42l-.51-1.13h-.1a5.56,5.56,0,0,1-3.65,1.39c-2.57,0-4.5-1.7-4.5-5.37v-8h3.19v8c0,1.82.9,2.62,2.1,2.62a3.84,3.84,0,0,0,2.7-1.55Z"/><path class="g" d="M2038.52,209.56a6.11,6.11,0,0,1,4-1.44c2.75,0,4.35,1.72,4.35,5.16v8.2h-3.19v-7.91c0-1.83-.69-2.7-1.9-2.7a3.36,3.36,0,0,0-2.16,1.1v9.51h-3.19v-7.91c0-1.83-.64-2.7-1.74-2.7a3.21,3.21,0,0,0-2.32,1.54v9.07h-3.18V208.37h2.41l.52,1.13h.1a4.66,4.66,0,0,1,3.29-1.38A3.84,3.84,0,0,1,2038.52,209.56Z"/><path class="g" d="M1847.46,239.2l5.65-7.71h2.57l-6.14,8.51,6.68,9.48-2.52.26-6.24-8.59h-2v8.33h-2.27v-18h2.27v7.71Z"/><path class="g" d="M1859.77,243.54c.2,2.86,1.54,4.47,4.13,4.47a6.92,6.92,0,0,0,3.37-.92l.75,1.54a8.94,8.94,0,0,1-4.37,1.11c-3.65,0-6.14-2.52-6.14-6.81,0-4.06,2.08-6.81,5.78-6.81,3.52,0,5.27,2,5.27,5.26a10.65,10.65,0,0,1-.24,2.16Zm0-1.56h6.76c0-.21,0-.39,0-.6,0-2-1.08-3.54-3.21-3.54S1859.9,239.53,1859.77,242Z"/><path class="g" d="M1880.07,236.37l-.51,1.73h-5.25v11.38h-2.16V236.37Z"/><path class="g" d="M1892.2,236.37v13.11H1890V238.1H1886v1.07c0,7-1.16,10.44-3.93,10.44a3.72,3.72,0,0,1-1.72-.46l.61-1.68a1.68,1.68,0,0,0,1,.31c1.36,0,2-2.54,2-9.22v-2.19Z"/><path class="g" d="M1901.55,241.15c2.83,0,4.68,1.55,4.68,4.19s-1.85,4.14-4.68,4.14h-5V236.37h2.16v4.78Zm-2.82,1.73v4.88h2.57c1.67,0,2.72-.9,2.72-2.44s-1-2.44-2.72-2.44Z"/><path class="g" d="M1918.28,239.74a4.74,4.74,0,0,1,3.47-1.44c2.9,0,5,2.08,5,5.71a5.37,5.37,0,0,1-5.73,5.73c-3.63,0-5.71-2.73-5.71-6.76a12.41,12.41,0,0,1,9.15-11.75l.74,1.57a10.91,10.91,0,0,0-7,6.89Zm2.78,8c2,0,3.44-1.31,3.44-3.77s-1.39-3.76-3.44-3.76a3.94,3.94,0,0,0-3.5,2.73C1917.56,245.86,1918.74,247.78,1921.06,247.78Z"/><path class="g" d="M1935.4,249.74c-4,0-6.17-3.16-6.17-9.25s2.21-9.26,6.17-9.26,6.16,3.17,6.16,9.26S1939.35,249.74,1935.4,249.74Zm0-2c2.36,0,3.88-2.16,3.88-7.29s-1.52-7.3-3.88-7.3-3.89,2.16-3.89,7.3S1933,247.78,1935.4,247.78Z"/><path class="g" d="M1944.13,244.7a5.33,5.33,0,0,1,3-4.68V240a4.61,4.61,0,0,1-2.41-4.12c0-2.8,1.9-4.6,5.09-4.6s5.08,1.8,5.08,4.6a5.11,5.11,0,0,1-2.41,4.24v.08a5.12,5.12,0,0,1,3,4.55c0,3.24-2.13,5-5.65,5S1944.13,247.94,1944.13,244.7Zm6.3-3.29-1.52-.64a4.68,4.68,0,0,0-2.62,3.93c0,2.24,1.39,3.08,3.5,3.08s3.49-1,3.49-3.08C1953.28,243.16,1951.92,242,1950.43,241.41Zm.18-2a4.55,4.55,0,0,0,2.11-3.6c0-1.72-1.26-2.64-2.93-2.64s-2.93.92-2.93,2.64a3.24,3.24,0,0,0,2.31,3Z"/><path class="g" d="M1975.89,249.48h-2.16V238.1H1968v11.38h-2.15V236.37h10Z"/><path class="g" d="M1978.72,236.37h10.85l-.52,1.73h-3.9v11.38H1983V238.1h-4.29Z"/><path class="g" d="M2282.31,810.75v-3h2.83v-12h-2.83v-3h9.07l-.51,3h-2.44v12h2.82v3Z"/><path class="g" d="M2294,801.08c0-2.18,1.77-3.7,4.65-3.7a10.33,10.33,0,0,1,4.26.9l-1.08,2.5a8.35,8.35,0,0,0-3-.65c-1.13,0-1.65.41-1.65,1.06s.77,1.18,2.08,1.62c1.93.64,4,1.64,4,4.24,0,2.39-2,4-5,4a10.07,10.07,0,0,1-4.55-1l1.11-2.57a8.3,8.3,0,0,0,3.34.77c1.1,0,1.87-.48,1.87-1.2,0-1-1.25-1.49-2.57-2C2295.9,804.5,2294,803.5,2294,801.08Z"/><path class="g" d="M2315.18,807.41l1.1,2.49a10.15,10.15,0,0,1-4.52,1.1c-3.86,0-6.5-2.52-6.5-6.81s2.31-6.81,6-6.81c3.42,0,5.55,2.14,5.55,5.81a17.79,17.79,0,0,1-.15,2h-8.18a3.4,3.4,0,0,0,3.42,3.08A7.84,7.84,0,0,0,2315.18,807.41Zm-1.26-4.68a2.43,2.43,0,0,0-2.6-2.6,2.81,2.81,0,0,0-2.77,2.6Z"/><path class="g" d="M2327.77,810.54a9.29,9.29,0,0,1-2.86.46c-2.36,0-4.29-1.08-4.29-4.13v-6.48h-2.26v-2.75h2.26v-3.55l3.19-.51v4.06h3.67l-.51,2.75h-3.16v6.48c0,1,.41,1.38,1.41,1.38a7.32,7.32,0,0,0,2-.33Z"/><path class="g" d="M2341.26,802.81c-2.31-.9-5-2.52-5-5.5s2.32-4.81,6-4.81a10.68,10.68,0,0,1,5.27,1.39l-1.56,2.62a6.9,6.9,0,0,0-3.71-1c-1.61,0-2.57.57-2.57,1.67,0,1.31,1.57,2.29,3.06,2.88,2.83,1.11,5.35,2.49,5.35,5.83,0,3.19-2.37,5.14-6.4,5.14a10.23,10.23,0,0,1-5.81-1.59l1.78-2.67a6.7,6.7,0,0,0,4,1.28c1.72,0,3-.77,3-2.1C2344.68,804.3,2343.16,803.55,2341.26,802.81Z"/><path class="g" d="M2357.6,802.16c0-1.26-.64-2-2.21-2a10.32,10.32,0,0,0-3.49.7l-1-2.57a13.07,13.07,0,0,1,4.75-.88c4,0,5.09,2.11,5.09,4.83v5a.83.83,0,0,0,.92.93h.28v2.49a6.09,6.09,0,0,1-1.82.25,2.32,2.32,0,0,1-2.31-1.25h-.1a4.44,4.44,0,0,1-3.45,1.25c-2.49,0-4.06-1.23-4.06-3.9s2-3.93,4.91-3.93h2.44Zm0,4.81v-1.49h-2.34c-1.18,0-1.85.59-1.85,1.44a1.3,1.3,0,0,0,1.42,1.33A3.7,3.7,0,0,0,2357.6,807Z"/><path class="g" d="M2367.75,810.75h-3.18V797.64H2367l.51,1.13h.11a5.05,5.05,0,0,1,3.47-1.39c2.75,0,4.29,1.73,4.29,5.17v8.2h-3.19v-7.92c0-1.82-.69-2.7-1.9-2.7a3.53,3.53,0,0,0-2.52,1.54Z"/><path class="g" d="M2378.34,801.08c0-2.18,1.77-3.7,4.65-3.7a10.38,10.38,0,0,1,4.27.9l-1.08,2.5a8.45,8.45,0,0,0-3-.65c-1.13,0-1.64.41-1.64,1.06s.77,1.18,2.08,1.62c1.92.64,3.95,1.64,3.95,4.24,0,2.39-2,4-4.95,4a10,10,0,0,1-4.55-1l1.1-2.57a8.34,8.34,0,0,0,3.34.77c1.11,0,1.88-.48,1.88-1.2,0-1-1.26-1.49-2.57-2C2380.27,804.5,2378.34,803.5,2378.34,801.08Z"/><path class="g" d="M2410.64,799h-.08l-3.08,9.38h-3.37L2401,799h-.07l-1.08,11.75h-3.29l1.67-18h3.67l3.86,11.56h.07l3.86-11.56h3.67l1.67,18h-3.29Z"/><path class="g" d="M2427.52,807.41l1.11,2.49a10.19,10.19,0,0,1-4.52,1.1c-3.86,0-6.51-2.52-6.51-6.81s2.32-6.81,6-6.81c3.41,0,5.55,2.14,5.55,5.81a16,16,0,0,1-.16,2h-8.17a3.39,3.39,0,0,0,3.42,3.08A7.79,7.79,0,0,0,2427.52,807.41Zm-1.26-4.68a2.43,2.43,0,0,0-2.59-2.6,2.82,2.82,0,0,0-2.78,2.6Z"/><path class="g" d="M2440.24,809.62a4.85,4.85,0,0,1-3.39,1.38c-3.7,0-5.37-2.85-5.37-6.81s1.7-6.81,5.6-6.81a9,9,0,0,1,3,.49V792l3.18-.52v19.28h-2.41l-.51-1.13Zm-5.52-5.43c0,2.39,1,4.06,2.9,4.06a3.43,3.43,0,0,0,2.47-1.28v-6.14a5,5,0,0,0-2.57-.7C2435.8,800.13,2434.72,801.62,2434.72,804.19Z"/><path class="g" d="M2445.72,800.39l.51-2.75h4.83v13.11h-3.18V800.39Zm3.75-8.4a1.84,1.84,0,1,1,0,3.67,1.81,1.81,0,0,1-1.88-1.82A1.83,1.83,0,0,1,2449.47,792Z"/><path class="g" d="M2462.44,797.64h3.19v13.11h-2.41l-.52-1.13h-.1A5.51,5.51,0,0,1,2459,811c-2.57,0-4.5-1.69-4.5-5.37v-8h3.19v8c0,1.83.9,2.62,2.11,2.62a3.86,3.86,0,0,0,2.69-1.54Z"/><path class="g" d="M2478.61,798.82a6.17,6.17,0,0,1,4-1.44c2.75,0,4.34,1.73,4.34,5.17v8.2h-3.19v-7.92c0-1.82-.69-2.7-1.9-2.7a3.35,3.35,0,0,0-2.16,1.11v9.51h-3.18v-7.92c0-1.82-.65-2.7-1.75-2.7a3.21,3.21,0,0,0-2.31,1.54v9.08h-3.19V797.64h2.42l.51,1.13h.1a4.67,4.67,0,0,1,3.29-1.39A3.84,3.84,0,0,1,2478.61,798.82Z"/><path class="g" d="M2287.55,828.47l5.65-7.71h2.57l-6.14,8.5,6.68,9.49-2.51.25-6.25-8.58h-2v8.33h-2.26v-18h2.26v7.71Z"/><path class="g" d="M2299.86,832.81c.21,2.85,1.54,4.47,4.14,4.47a6.91,6.91,0,0,0,3.36-.92l.75,1.54a8.93,8.93,0,0,1-4.37,1.1c-3.65,0-6.14-2.52-6.14-6.81,0-4.06,2.08-6.81,5.78-6.81,3.52,0,5.27,2.06,5.27,5.27a11.36,11.36,0,0,1-.23,2.16Zm0-1.57h6.76a5.72,5.72,0,0,0,0-.59c0-2-1.07-3.54-3.21-3.54S2300,828.8,2299.86,831.24Z"/><path class="g" d="M2320.16,825.64l-.51,1.72h-5.25v11.39h-2.15V825.64Z"/><path class="g" d="M2332.29,825.64v13.11h-2.16V827.36h-4.06v1.08c0,7-1.15,10.43-3.93,10.43a3.6,3.6,0,0,1-1.72-.46l.62-1.67a1.65,1.65,0,0,0,1,.31c1.36,0,2-2.54,2-9.22v-2.19Z"/><path class="g" d="M2341.64,830.42c2.83,0,4.68,1.54,4.68,4.19s-1.85,4.14-4.68,4.14h-5V825.64h2.16v4.78Zm-2.82,1.72V837h2.57c1.67,0,2.72-.89,2.72-2.44s-1.05-2.44-2.72-2.44Z"/><path class="g" d="M2362.72,820.76v16H2367v2H2355.7v-2h4.83V822.71h-4.44l.51-2Z"/><path class="g" d="M2375.49,839c-4,0-6.17-3.16-6.17-9.25s2.21-9.25,6.17-9.25,6.16,3.16,6.16,9.25S2379.44,839,2375.49,839Zm0-2c2.36,0,3.88-2.16,3.88-7.3s-1.52-7.29-3.88-7.29-3.88,2.15-3.88,7.29S2373.12,837.05,2375.49,837.05Z"/><path class="g" d="M2384.23,834a5.32,5.32,0,0,1,3-4.68v-.08a4.57,4.57,0,0,1-2.42-4.11c0-2.8,1.9-4.6,5.09-4.6s5.09,1.8,5.09,4.6a5.12,5.12,0,0,1-2.42,4.24v.08a5.12,5.12,0,0,1,3,4.55c0,3.23-2.13,5-5.65,5S2384.23,837.2,2384.23,834Zm6.29-3.29L2389,830a4.68,4.68,0,0,0-2.62,3.93c0,2.23,1.39,3.08,3.5,3.08s3.49-1,3.49-3.08C2393.37,832.42,2392,831.29,2390.52,830.68Zm.18-2a4.55,4.55,0,0,0,2.11-3.6c0-1.72-1.26-2.64-2.93-2.64s-2.93.92-2.93,2.64a3.26,3.26,0,0,0,2.31,3Z"/><path class="g" d="M2416,838.75h-2.16V827.36h-5.73v11.39h-2.16V825.64h10Z"/><path class="g" d="M2418.81,825.64h10.85l-.52,1.72h-3.9v11.39h-2.14V827.36h-4.29Z"/><path class="g" d="M2439.83,829.34a1.57,1.57,0,1,1-1.56,1.57A1.59,1.59,0,0,1,2439.83,829.34Z"/><path class="g" d="M2457.87,822.71v16h-2.26v-16h-5.47v-2h13.23l-.51,2Z"/><path class="g" d="M2465.53,838.08v5.8l-2.16.52V825.64h1.39l.51,1.65h.11a5.16,5.16,0,0,1,4.11-1.91c3.36,0,5.16,2.78,5.16,6.81S2473,839,2469.13,839A6.92,6.92,0,0,1,2465.53,838.08Zm6.91-5.89c0-3-1.26-5.08-3.62-5.08a4.42,4.42,0,0,0-3.29,1.95v7a5.38,5.38,0,0,0,3.29,1.18C2471.18,837.28,2472.44,835.43,2472.44,832.19Z"/><path class="g" d="M2479.74,832.81c.21,2.85,1.54,4.47,4.14,4.47a6.91,6.91,0,0,0,3.36-.92l.75,1.54a8.93,8.93,0,0,1-4.37,1.1c-3.65,0-6.14-2.52-6.14-6.81,0-4.06,2.08-6.81,5.78-6.81,3.52,0,5.27,2.06,5.27,5.27a11.36,11.36,0,0,1-.23,2.16Zm0-1.57h6.76a5.72,5.72,0,0,0,0-.59c0-2-1.08-3.54-3.21-3.54S2479.87,828.8,2479.74,831.24Z"/><path class="g" d="M2494.29,832.86v5.89h-2.16V825.64h2.16v5.5h1.85l3.77-5.5h2.32l-4.35,6.32,4.6,6.79-2.21.25-4.16-6.14Z"/><path class="g" d="M2505.05,838.75V825.64h2.16v9.43h.1l6.81-9.43H2516v13.11h-2.16v-9.49h-.1l-6.81,9.49Z"/><path class="g" d="M2530.62,838.75h-2.16v-5.89h-5.93v5.89h-2.16V825.64h2.16v5.5h5.93v-5.5h2.16Z"/><path class="g" d="M2542.9,825.64l-.51,1.72h-5.24v11.39H2535V825.64Z"/><path class="g" d="M2556.34,839a8.6,8.6,0,0,1-5.08-1.51l1-1.72a6.2,6.2,0,0,0,3.85,1.28c2.29,0,3.86-1.18,3.86-3.83s-1.62-3.85-4-3.85h-.77v-.9l3.83-5.66v-.1h-7.27l.51-2h9.15v1.7l-3.62,5.37v.1c2.46.33,4.42,2,4.42,5.29C2562.31,837.18,2559.61,839,2556.34,839Z"/><path class="g" d="M2571.43,839c-4,0-6.17-3.16-6.17-9.25s2.21-9.25,6.17-9.25,6.17,3.16,6.17,9.25S2575.39,839,2571.43,839Zm0-2c2.36,0,3.88-2.16,3.88-7.3s-1.52-7.29-3.88-7.29-3.88,2.15-3.88,7.29S2569.06,837.05,2571.43,837.05Z"/><path class="g" d="M2588.29,829.34a1.57,1.57,0,1,1-1.57,1.57A1.59,1.59,0,0,1,2588.29,829.34Z"/><path class="g" d="M2602.57,838.75h-2.18v-18h2.26v14.08h.1l9.07-14.08H2614v18h-2.26v-14h-.11Z"/><path class="g" d="M2628.89,838.75h-2.16v-5.89h-5.94v5.89h-2.16V825.64h2.16v5.5h5.94v-5.5h2.16Z"/><path class="g" d="M2631.71,825.64h10.85l-.52,1.72h-3.9v11.39H2636V827.36h-4.29Z"/><path class="g" d="M2646.36,832.81c.21,2.85,1.54,4.47,4.14,4.47a6.91,6.91,0,0,0,3.36-.92l.75,1.54a8.93,8.93,0,0,1-4.37,1.1c-3.65,0-6.14-2.52-6.14-6.81,0-4.06,2.08-6.81,5.78-6.81,3.52,0,5.27,2.06,5.27,5.27a11.36,11.36,0,0,1-.23,2.16Zm0-1.57h6.76a5.72,5.72,0,0,0,0-.59c0-2-1.07-3.54-3.21-3.54S2646.49,828.8,2646.36,831.24Z"/><path class="g" d="M2660.9,838.08v5.8l-2.15.52V825.64h1.38l.52,1.65h.1a5.17,5.17,0,0,1,4.11-1.91c3.37,0,5.17,2.78,5.17,6.81s-1.62,6.81-5.53,6.81A7,7,0,0,1,2660.9,838.08Zm6.92-5.89c0-3-1.26-5.08-3.63-5.08a4.44,4.44,0,0,0-3.29,1.95v7a5.43,5.43,0,0,0,3.29,1.18C2666.56,837.28,2667.82,835.43,2667.82,832.19Z"/><path class="g" d="M2683.57,825.64v13.11h-2.16V827.36h-4.06v1.08c0,7-1.16,10.43-3.93,10.43a3.6,3.6,0,0,1-1.72-.46l.62-1.67a1.65,1.65,0,0,0,1,.31c1.36,0,2-2.54,2-9.22v-2.19Z"/><path class="g" d="M2687.94,838.75V825.64h2.16v9.43h.1l6.81-9.43h1.88v13.11h-2.16v-9.49h-.11l-6.81,9.49Z"/><path class="g" d="M2713.51,838.75h-2.16v-5.89h-5.94v5.89h-2.16V825.64h2.16v5.5h5.94v-5.5h2.16Z"/><path class="g" d="M2722.86,830.42c2.83,0,4.68,1.54,4.68,4.19s-1.85,4.14-4.68,4.14h-5V825.64H2720v4.78Zm-2.83,1.72V837h2.57c1.67,0,2.73-.89,2.73-2.44s-1.06-2.44-2.73-2.44Z"/><path class="g" d="M2739.67,825.64v13.11h-2.16V834h-2.73l-2.9,4.76h-2.54l3.31-5.12a3.82,3.82,0,0,1-2.44-3.8c0-2.54,1.72-4.19,4.55-4.19Zm-4.65,1.72a2.47,2.47,0,1,0,0,4.94h2.49v-4.94Z"/><path class="g" d="M2757,825.64h2.16l-4.14,6.32,4.39,6.79-2.23.25-3.88-6.14H2752v5.89h-2.08v-5.89h-1.39l-3.7,5.89h-2.42l4.4-6.79-4.14-6.32h2.16l3.6,5.5h1.49v-5.5H2752v5.5h1.49Z"/><path class="g" d="M2775.46,820.76v16h4.29v2h-11.3v-2h4.83V822.71h-4.45l.52-2Z"/><path class="g" d="M2791.21,820.76l-6.55,11.49v.1h4.73v-3.52h2.18v3.52h3.09l-.52,1.92h-2.57v4.48h-2.18v-4.48h-7.45V832.6l6.76-11.84Z"/><path class="g" d="M2802.62,839c-3.95,0-6.16-3.16-6.16-9.25s2.21-9.25,6.16-9.25,6.17,3.16,6.17,9.25S2806.58,839,2802.62,839Zm0-2c2.37,0,3.88-2.16,3.88-7.3s-1.51-7.29-3.88-7.29-3.88,2.15-3.88,7.29S2800.26,837.05,2802.62,837.05Z"/><path class="i" d="M1700.24,156.91v21.15h5.67v3.36h-15.75v-3.36h6.4V160.27h-5.88l.7-3.36Z"/><path class="i" d="M1719.1,156.91v21.15h5.67v3.36H1709v-3.36h6.41V160.27h-5.88l.7-3.36Z"/><path class="i" d="M1735.41,181.77c-5.39,0-8.57-4.31-8.57-12.6s3.18-12.61,8.57-12.61,8.58,4.31,8.58,12.61S1740.8,181.77,1735.41,181.77Zm0-3.36c2.8,0,4.76-2.73,4.76-9.24s-2-9.25-4.76-9.25-4.76,2.73-4.76,9.25S1732.61,178.41,1735.41,178.41Z"/><path class="j" d="M1700.24,521v21.14h5.67v3.36h-15.75v-3.36h6.4V524.36h-5.88l.7-3.36Z"/><path class="j" d="M1720.44,537.63a4.79,4.79,0,0,0-5.12-5,12.36,12.36,0,0,0-5.07,1V521h13.09l-.7,3.36h-8.72v5.25a12,12,0,0,1,2.17-.21c4.48,0,8.16,2.66,8.16,8.23,0,5.39-3.85,8.22-8.3,8.22a12.26,12.26,0,0,1-7.1-2.06l1.78-2.94a8.47,8.47,0,0,0,5.08,1.64A4.48,4.48,0,0,0,1720.44,537.63Z"/><path class="j" d="M1735.41,545.85c-5.39,0-8.57-4.3-8.57-12.6s3.18-12.6,8.57-12.6,8.58,4.31,8.58,12.6S1740.81,545.85,1735.41,545.85Zm0-3.36c2.8,0,4.76-2.73,4.76-9.24s-2-9.24-4.76-9.24-4.76,2.73-4.76,9.24S1732.61,542.49,1735.41,542.49Z"/><path class="j" d="M2662.75,595.92v21.14h5.67v3.36h-15.76v-3.36h6.41V599.28h-5.88l.7-3.36Z"/><path class="j" d="M2681.61,595.92v21.14h5.67v3.36h-15.75v-3.36h6.41V599.28h-5.88l.7-3.36Z"/><path class="j" d="M2697.92,620.77c-5.39,0-8.58-4.31-8.58-12.6s3.19-12.6,8.58-12.6,8.58,4.3,8.58,12.6S2703.31,620.77,2697.92,620.77Zm0-3.36c2.8,0,4.76-2.73,4.76-9.24s-2-9.24-4.76-9.24-4.76,2.73-4.76,9.24S2695.12,617.41,2697.92,617.41Z"/><path class="j" d="M1704.84,1065.41h10l-.7,3.36h-14.7v-3c4.79-3.61,10.88-10,10.88-14.67,0-2.35-1.15-3.82-3.64-3.82a9.47,9.47,0,0,0-5.14,1.65l-1.68-2.94a13.92,13.92,0,0,1,7.49-2.07c4.3,0,6.79,2.45,6.79,6.72,0,5.39-5,11.24-9.28,14.64Z"/><path class="j" d="M1730,1047.62h-12l.7-3.36h15.23v3l-8.54,21.5h-4Z"/><path class="g" d="M1711.42,1269.94v21.14h5.67v3.36h-15.75v-3.36h6.41V1273.3h-5.88l.7-3.36Z"/><path class="g" d="M1731.86,1283.66a6.29,6.29,0,0,1-4.44,1.51c-4.17,0-7-2.77-7-7.71,0-4.79,3.4-7.87,8-7.87,4.94,0,8,3.32,8,9,0,8.76-4.9,14.11-12.15,16.21l-1.33-2.87c4.17-1.57,8-4,9.14-8.19Zm-3.5-10.71c-2.38,0-4.2,1.61-4.2,4.51s1.82,4.52,4.2,4.52a4.74,4.74,0,0,0,4.24-3C1732.6,1275.43,1731.06,1273,1728.36,1273Z"/><path class="i" d="M1711.53,808.08l-8.75,15.3v.14h5.56v-4.45H1712v4.45h4l-.7,3.32H1712v5.74h-3.68v-5.74h-10v-3l9-15.79Z"/><path class="i" d="M1733.33,825c0,5.39-3.85,7.91-8.29,7.91a12.32,12.32,0,0,1-7.11-2.06l1.79-2.94a8.44,8.44,0,0,0,5.07,1.64c2.7,0,4.73-1.4,4.73-4.51s-2.1-4.55-4.87-4.55h-1.82v-1.89l5.25-7v-.14h-9.34l.7-3.36h12.81v3l-5,6.65v.11C1730.53,818.41,1733.33,820.3,1733.33,825Z"/><path class="j" d="M1704.84,925.56h10l-.7,3.36h-14.7v-3c4.79-3.61,10.88-10,10.88-14.67,0-2.34-1.15-3.81-3.64-3.81a9.54,9.54,0,0,0-5.14,1.64l-1.68-2.94a14,14,0,0,1,7.49-2.06c4.3,0,6.79,2.45,6.79,6.72,0,5.39-5,11.23-9.28,14.63Z"/><path class="j" d="M1730,907.78h-12l.7-3.36h15.23v3l-8.54,21.49h-4Z"/><path class="i" d="M1714.47,1148.36c0,5.39-3.85,7.91-8.3,7.91a12.26,12.26,0,0,1-7.1-2.06l1.78-2.94a8.47,8.47,0,0,0,5.08,1.64c2.69,0,4.72-1.4,4.72-4.52s-2.1-4.55-4.86-4.55H1704V1142l5.25-7v-.14h-9.35l.7-3.36h12.81v3l-5,6.65v.1C1711.67,1141.74,1714.47,1143.63,1714.47,1148.36Z"/><path class="i" d="M1728.54,1131.42v21.14h5.67v3.36h-15.75v-3.36h6.4v-17.78H1719l.7-3.36Z"/><path class="i" d="M1704.84,994.78h10l-.7,3.36h-14.7v-3c4.79-3.6,10.88-10,10.88-14.66,0-2.35-1.15-3.82-3.64-3.82a9.47,9.47,0,0,0-5.14,1.65l-1.68-2.94a13.92,13.92,0,0,1,7.49-2.07c4.3,0,6.79,2.45,6.79,6.72,0,5.39-5,11.24-9.28,14.63Z"/><path class="i" d="M1723.71,994.78h10l-.7,3.36h-14.7v-3c4.8-3.6,10.89-10,10.89-14.66,0-2.35-1.16-3.82-3.64-3.82a9.53,9.53,0,0,0-5.15,1.65l-1.68-2.94a13.92,13.92,0,0,1,7.49-2.07c4.31,0,6.79,2.45,6.79,6.72,0,5.39-5,11.24-9.27,14.63Z"/><path class="i" d="M1699.24,1365.34a6.93,6.93,0,0,1,4.06-6.16v-.11a6.18,6.18,0,0,1-3.29-5.56c0-3.92,2.66-6.37,7.11-6.37s7.1,2.45,7.1,6.37a6.26,6.26,0,0,1-3.29,5.6v.1a6.9,6.9,0,0,1,4.06,6.13c0,4.41-3.08,7-7.87,7S1699.24,1369.75,1699.24,1365.34Zm6.72-4.83a5.48,5.48,0,0,0-3.08,4.83c0,2.56,1.79,3.64,4.24,3.64s4.23-1.22,4.23-3.64c0-2.1-1.85-3.33-3.92-4.2Zm1-3.12,1.12.46a5.19,5.19,0,0,0,2.52-4.34c0-1.89-1.47-3-3.46-3s-3.47,1.12-3.47,3C1703.65,1355.61,1705.16,1356.66,1706.94,1357.39Z"/><path class="i" d="M1726,1372.34c-5.39,0-8.57-4.3-8.57-12.6s3.18-12.6,8.57-12.6,8.58,4.3,8.58,12.6S1731.37,1372.34,1726,1372.34Zm0-3.36c2.8,0,4.76-2.73,4.76-9.24s-2-9.24-4.76-9.24-4.76,2.73-4.76,9.24S1723.18,1369,1726,1369Z"/><path class="i" d="M2237.54,1482.27l-8.75,15.3v.14h5.57v-4.45H2238v4.45h4l-.7,3.32H2238v5.74h-3.67V1501h-10v-3l9-15.79Z"/><path class="i" d="M2255.43,1496a6.3,6.3,0,0,1-4.45,1.51c-4.16,0-7-2.77-7-7.71,0-4.79,3.39-7.87,8-7.87,4.93,0,7.94,3.32,7.94,9,0,8.75-4.9,14.1-12.14,16.2l-1.33-2.87c4.16-1.57,8-4,9.13-8.19Zm-3.5-10.71c-2.38,0-4.2,1.61-4.2,4.51s1.82,4.52,4.2,4.52a4.71,4.71,0,0,0,4.23-3C2256.16,1487.76,2254.62,1485.28,2251.93,1485.28Z"/><path class="i" d="M2270.86,1507.12c-5.39,0-8.57-4.3-8.57-12.6s3.18-12.6,8.57-12.6,8.58,4.3,8.58,12.6S2276.25,1507.12,2270.86,1507.12Zm0-3.36c2.8,0,4.76-2.73,4.76-9.24s-2-9.24-4.76-9.24-4.76,2.73-4.76,9.24S2268.06,1503.76,2270.86,1503.76Z"/><path class="i" d="M678.05,1482.27l-8.75,15.3v.14h5.56v-4.45h3.68v4.45h4l-.7,3.32h-3.32v5.74h-3.68V1501h-10v-3l9-15.79Z"/><path class="i" d="M695.93,1496a6.29,6.29,0,0,1-4.44,1.51c-4.17,0-7-2.77-7-7.71,0-4.79,3.4-7.87,8-7.87,4.94,0,8,3.32,8,9,0,8.75-4.9,14.1-12.15,16.2l-1.33-2.87c4.17-1.57,8-4,9.14-8.19Zm-3.5-10.71c-2.38,0-4.2,1.61-4.2,4.51s1.82,4.52,4.2,4.52a4.72,4.72,0,0,0,4.24-3C696.67,1487.76,695.13,1485.28,692.43,1485.28Z"/><path class="i" d="M711.37,1507.12c-5.39,0-8.58-4.3-8.58-12.6s3.19-12.6,8.58-12.6,8.57,4.3,8.57,12.6S716.76,1507.12,711.37,1507.12Zm0-3.36c2.8,0,4.76-2.73,4.76-9.24s-2-9.24-4.76-9.24-4.76,2.73-4.76,9.24S708.57,1503.76,711.37,1503.76Z"/><path class="i" d="M1461.85,726.71a4.78,4.78,0,0,0-5.11-5,12.38,12.38,0,0,0-5.08,1V710.09h13.09l-.7,3.36h-8.71v5.25a11.88,11.88,0,0,1,2.17-.21c4.48,0,8.15,2.66,8.15,8.22,0,5.39-3.85,8.23-8.29,8.23a12.32,12.32,0,0,1-7.11-2.07l1.79-2.94a8.45,8.45,0,0,0,5.07,1.65A4.49,4.49,0,0,0,1461.85,726.71Z"/><path class="i" d="M1479.38,710.09v21.14h5.67v3.36H1469.3v-3.36h6.41V713.45h-5.88l.7-3.36Z"/><path class="i" d="M1495.69,734.94c-5.39,0-8.57-4.31-8.57-12.6s3.18-12.6,8.57-12.6,8.58,4.3,8.58,12.6S1501.08,734.94,1495.69,734.94Zm0-3.36c2.8,0,4.76-2.73,4.76-9.24s-2-9.24-4.76-9.24-4.76,2.73-4.76,9.24S1492.89,731.58,1495.69,731.58Z"/><rect class="f" x="1276.43" y="22.06" width="112.55" height="1444.68"/><rect class="f" y="22.06" width="113.06" height="1445.79"/><rect class="f" x="1559.42" y="22.06" width="112.71" height="1445.79"/></svg>