<svg xmlns="http://www.w3.org/2000/svg" viewBox="0 0 2352.7559 2537.0081"><defs><style>.a{fill:#54647d;}.b{fill:#2e2d2c;fill-rule:evenodd;}.c{fill:#1d1d1b;}.d{fill:#fff;}</style></defs><path class="a" d="M27.9817,575.2411c0,4.68,1.8,9.0893,4.5,13.769l-6.03,3.33c-3.69-7.02-5.31-11.43-5.31-18.8091,0-11.07,6.3-17.0093,17.2793-17.0093,15.1193,0,30.7788,14.8491,39.4184,25.6489h.36V554.7215l6.84,1.8V593.42H79.1c-9.9-12.6895-26.009-28.8892-39.9585-28.8892C32.0315,564.5311,27.9817,567.5911,27.9817,575.2411Z"/><path class="a" d="M27.9817,526.6414c0,4.68,1.8,9.0894,4.5,13.7691l-6.03,3.33c-3.69-7.02-5.31-11.43-5.31-18.8091,0-11.07,6.3-17.0093,17.2793-17.0093,15.1193,0,30.7788,14.8491,39.4184,25.6489h.36V506.1219l6.84,1.8v36.8984H79.1c-9.9-12.6894-26.009-28.8891-39.9585-28.8891C32.0315,515.9315,27.9817,518.9915,27.9817,526.6414Z"/><path class="a" d="M64.97,457.5218c13.8594,0,20.969,8.82,20.969,20.6094a30.57,30.57,0,0,1-5.31,18.0893l-6.03-3.6c2.7-4.05,4.5-7.9194,4.5-13.8593,0-7.56-4.68-13.2295-14.1294-13.2295s-14.1294,6.12-14.1294,14.2192a43.3287,43.3287,0,0,0,2.34,12.87H22.042V459.8617l6.84,1.8v23.309h16.2a33.6719,33.6719,0,0,1-.72-7.2C44.3609,465.9818,51.4707,457.5218,64.97,457.5218Z"/><path class="a" d="M39.1411,389.6624V380.033l45.8982-4.41v7.47l-36.9885,2.97v.36l29.5188,10.62v8.37L48.0508,416.1214v.36l36.9885,2.97v7.47l-45.8982-4.41v-9.63l31.7688-11.52v-.27Z"/><path class="a" d="M39.1411,330.263v-9.6294l45.8982-4.41v7.47l-36.9885,2.97v.36l29.5188,10.62v8.37L48.0508,356.722v.36l36.9885,2.97v7.47l-45.8982-4.41v-9.63l31.7688-11.52v-.27Z"/><path class="a" d="M1108.3456,28.8817H1076.037l1.8-6.84h38.2485v5.94l-22.0488,57.0576h-7.74Z"/><path class="a" d="M1156.9452,28.8817h-32.3086l1.8-6.84h38.2485v5.94l-22.0488,57.0576h-7.74Z"/><path class="a" d="M1193.4862,85.9393c-13.86,0-21.6-11.07-21.6-32.3987s7.74-32.3987,21.6-32.3987,21.5987,11.07,21.5987,32.3987S1207.3456,85.9393,1193.4862,85.9393Zm0-6.84c8.2793,0,13.5894-7.56,13.5894-25.5591s-5.31-25.5588-13.5894-25.5588-13.59,7.56-13.59,25.5588S1185.2064,79.1,1193.4862,79.1Z"/><path class="a" d="M1280.6947,39.1412h9.6294l4.41,45.8982h-7.47l-2.97-36.9885h-.36l-10.62,29.5188h-8.37l-10.71-29.5188h-.36l-2.97,36.9885h-7.47l4.41-45.8982h9.63L1268.995,70.91h.27Z"/><path class="a" d="M1340.0941,39.1412h9.6294l4.41,45.8982h-7.47l-2.97-36.9885h-.36l-10.62,29.5188h-8.37l-10.7095-29.5188h-.36l-2.97,36.9885h-7.47l4.41-45.8982h9.63L1328.3944,70.91h.27Z"/><path class="b" d="M170.0787,1555.9929V1122.7473c0-72.32,29.9424-102.2749,102.2325-102.2749H2250.5234c72.29,0,102.2325,29.9548,102.2325,102.2749v433.2456c0,72.32-29.9423,102.2748-102.2325,102.2748H272.3112C200.0211,1658.2677,170.0787,1628.313,170.0787,1555.9929Z"/><path class="c" d="M2262.8949,1082.8343c19.86,0,27.5242,7.6675,27.5242,27.5357v458c0,19.8682-7.6643,27.5352-27.5242,27.5352H259.94c-19.86,0-27.5239-7.667-27.5239-27.5352v-458c0-19.8682,7.664-27.5357,27.5239-27.5357H2262.8949m0-25.5063H259.94c-17.1343,0-29.9727,4.5112-39.249,13.7915-9.2735,9.2778-13.7813,22.1162-13.7813,39.25v458c0,17.1343,4.5078,29.9732,13.7813,39.25,9.2768,9.28,22.1147,13.7911,39.249,13.7911H2262.8949c17.134,0,29.9724-4.5113,39.2485-13.7906,9.2742-9.2778,13.7823-22.1167,13.7823-39.251v-458c0-17.1343-4.5081-29.9732-13.7818-39.25-9.2766-9.28-22.115-13.7915-39.249-13.7915Z"/><rect class="c" x="1684.2319" y="1082.8345" width="25.5118" height="513.0713"/><path class="b" d="M170.0788,691.4259V258.18c0-72.32,29.9423-102.2749,102.2324-102.2749H2250.5234c72.29,0,102.2325,29.9548,102.2325,102.2749V691.4259c0,72.32-29.9423,102.2749-102.2325,102.2749H272.3112C200.0211,793.7008,170.0788,763.746,170.0788,691.4259Z"/><path class="c" d="M2262.8949,218.2674c19.86,0,27.5242,7.6675,27.5242,27.5357V703.8036c0,19.8681-7.6643,27.5351-27.5242,27.5351H259.94c-19.86,0-27.5239-7.667-27.5239-27.5351v-458c0-19.8682,7.664-27.5357,27.5239-27.5357H2262.8949m0-25.5063H259.94c-17.1343,0-29.9727,4.5112-39.249,13.7915-9.2735,9.2778-13.7813,22.1162-13.7813,39.25V703.8036c0,17.1342,4.5078,29.9731,13.7813,39.25,9.2768,9.28,22.1147,13.7911,39.249,13.7911H2262.8949c17.134,0,29.9724-4.5113,39.2485-13.7906,9.2742-9.2778,13.7823-22.1167,13.7823-39.2509v-458c0-17.1343-4.5081-29.9732-13.7818-39.25-9.2766-9.28-22.115-13.7915-39.249-13.7915Z"/><rect class="c" x="1684.2319" y="218.2676" width="25.5118" height="513.0713"/><path class="b" d="M170.0788,2434.733V2001.4875c0-72.32,29.9423-102.2749,102.2324-102.2749H2250.5234c72.29,0,102.2325,29.9548,102.2325,102.2749V2434.733c0,72.32-29.9423,102.2749-102.2325,102.2749H272.3112C200.0211,2537.0079,170.0788,2507.0531,170.0788,2434.733Z"/><path class="c" d="M2262.8949,1961.5745c19.86,0,27.5242,7.6675,27.5242,27.5357v458.0005c0,19.8681-7.6643,27.5351-27.5242,27.5351H259.94c-19.86,0-27.5239-7.667-27.5239-27.5351V1989.11c0-19.8682,7.664-27.5357,27.5239-27.5357H2262.8949m0-25.5063H259.94c-17.1343,0-29.9727,4.5112-39.249,13.7915-9.2735,9.2778-13.7813,22.1162-13.7813,39.2505v458.0005c0,17.1343,4.5078,29.9731,13.7813,39.25,9.2768,9.28,22.1147,13.791,39.249,13.791H2262.8949c17.134,0,29.9724-4.5112,39.2485-13.7905,9.2742-9.2779,13.7823-22.1167,13.7823-39.251V1989.11c0-17.1343-4.5081-29.9732-13.7818-39.2505-9.2766-9.28-22.115-13.7915-39.249-13.7915Z"/><rect class="c" x="1684.2319" y="1961.5747" width="25.5118" height="513.0713"/><path class="d" d="M489.82,1261.8636h94.5283v160.9971H554.9088V1288.5433h-36.8c0,83.2588-11.04,135.4678-47.1484,135.4678A42.0094,42.0094,0,0,1,454.4,1420.79l5.5205-25.2989a22.0855,22.0855,0,0,0,7.3594,1.38c15.41,0,22.54-31.7392,22.54-128.7978Z"/><path class="d" d="M640.6979,1422.8607V1261.8636h93.3779l-4.6,26.68H670.1373v37.7187h52.4385v26.68H670.1373v43.2393h63.9385v26.68Z"/><path class="d" d="M815.2672,1326.262H875.526v-64.3984h29.44v160.9971h-29.44v-69.919H815.2672v69.919H785.8278V1261.8636h29.4394Z"/><path class="d" d="M1058.3727,1316.1429h-.6895l-71.7587,106.7178H961.3151V1261.8636h29.4394v106.9483h.6895l71.7588-106.9483h24.6093v160.9971h-29.4394Z"/><path class="d" d="M1173.6012,1326.262H1233.86v-64.3984h29.44v160.9971h-29.44v-69.919h-60.2588v69.919h-29.4394V1261.8636h29.4394Z"/><path class="d" d="M1396.2379,1387.6712h-51.06l-10.58,35.1895H1303.55l53.8183-160.9971h26.91l53.8183,160.9971h-31.0488Zm-43.2392-25.9892h35.4189l-17.25-58.419h-.92Z"/><path class="d" d="M551.2164,1546.0462v-59.5049h9.1807v51.3448h26.9473l-1.7,8.16Z"/><path class="d" d="M611.5651,1546.0462v-59.5049h33.6631l-1.7,8.1612H620.7457v16.4912h20.2315v8.16H620.7457v18.5323h24.4825v8.16Z"/><path class="d" d="M708.8092,1530.83h.34v-44.2891H718.33v59.5049h-9.8613l-25.2471-44.2031h-.34v44.2031h-9.1807v-59.5049h9.8613Z"/><path class="d" d="M745.95,1546.0462v-8.16h9.7754v-43.1836H745.95v-8.1612h29.1573l-1.7,8.1612h-8.501v43.1836h9.7764v8.16Z"/><path class="d" d="M837.4118,1530.83h.34v-44.2891h9.1807v59.5049h-9.8614l-25.247-44.2031h-.34v44.2031h-9.1806v-59.5049h9.8613Z"/><path class="d" d="M871.152,1546.0462l19.8916-59.5049h9.0957l19.8916,59.5049h-9.7754l-4.251-13.8564H885.0934l-4.166,13.8564Zm24.6523-47.3486h-.4257l-7.9053,25.5869h16.1513Z"/><path class="d" d="M975.276,1546.0462l19.8916-59.5049h9.0957l19.8916,59.5049h-9.7763l-4.25-13.8564H989.2174l-4.166,13.8564Zm24.6524-47.3486h-.4258l-7.9053,25.5869h16.1514Z"/><path class="d" d="M1074.5592,1486.5413h10.0313l-18.5323,59.5049h-10.6259l-18.5313-59.5049h10.0313l13.6005,46.8389h.34Z"/><path class="d" d="M1107.5368,1546.0462v-59.5049H1141.2l-1.7,8.1612h-22.7822v16.4912h20.2315v8.16h-20.2315v18.5323H1141.2v8.16Z"/><path class="d" d="M1204.78,1530.83h.34v-44.2891H1214.3v59.5049h-9.8613l-25.2471-44.2031h-.34v44.2031h-9.1807v-59.5049h9.8613Z"/><path class="d" d="M1286.5485,1527.77c0,11.3056-8.5,19.1259-21.251,19.1259s-21.252-7.82-21.252-19.1259v-41.2286h9.1807v40.8038c0,6.7148,4.5908,11.3906,12.0713,11.3906s12.07-4.6758,12.07-11.3906v-40.8038h9.1807Z"/><path class="d" d="M1316.2946,1546.0462v-59.5049h33.6631l-1.7,8.1612h-22.7823v16.4912h20.2315v8.16h-20.2315v18.5323h24.4825v8.16Z"/><path class="d" d="M666.776,1199.1078v-70.004H719.28v70.004H704.4791v-56.4034H681.5778v56.4034Z"/><path class="d" d="M762.5778,1175.5062v23.6016H747.776v-70.004h23.9024c13.3007,0,23.3007,8.2,23.3007,23.2012s-10,23.2012-23.3007,23.2012Zm8.4-13.6006c4.9,0,8.7-3.6006,8.7-9.6006s-3.8-9.6006-8.7-9.6006h-8.4v19.2012Z"/><path class="d" d="M844.4772,1200.1078c-21.3008,0-30.002-15.2012-30.002-36.002s8.7012-36.002,30.002-36.002,30.0019,15.2,30.0019,36.002S865.7789,1200.1078,844.4772,1200.1078Zm0-58.4034c-10.1006,0-14.8008,9.3008-14.8008,22.4014s4.7,22.4014,14.8008,22.4014,14.8008-9.3008,14.8008-22.4014S854.5778,1141.7044,844.4772,1141.7044Z"/><path class="d" d="M940.277,1144.804a27.8861,27.8861,0,0,0-12.6006-3.1c-9.4,0-15.3008,8.8008-15.3008,22.4014s5.9,22.4014,15.2012,22.4014a27.5155,27.5155,0,0,0,13.7-3.8008l6.2,12.001a40.7294,40.7294,0,0,1-20.7012,5.4c-21.501,0-29.8017-15.2012-29.8017-36.002s8.3007-36.002,29.8017-36.002a42.8976,42.8976,0,0,1,19.502,4.5Z"/><path class="d" d="M971.4752,1199.1078v-70.004h52.503v70.004h-14.8008v-56.4034H986.276v56.4034Z"/><path class="d" d="M1052.4752,1199.1078v-70.004h41.6016l-2,13.6006H1066.276v13.4h22.8008v13.6016H1066.276v15.8008h27.8008v13.6006Z"/><path class="d" d="M1139.8756,1169.7064h-5.5v29.4014h-13.8008v-70.004h13.8008v27.001h5.7l15.7-27.001h16.2012l-20.4014,33.6016,22.502,36.4024-16.4014,1Z"/><path class="d" d="M1222.1754,1142.7044v56.4034h-14.8017v-56.4034h-19.8008v-13.6006h54.5029l-2,13.6006Z"/><path class="d" d="M750.9743,453.1849h-.69l-27.5986,83.9492h-30.13l-27.8291-83.9492h-.69l-9.66,105.1084H624.9362l14.95-160.9971h32.89l34.499,103.4981h.69l34.5-103.4981h32.89l14.9493,160.9971h-29.44Z"/><path class="d" d="M936.8131,451.5755h-.6894L864.3649,558.2933H839.7555V397.2962h29.44V504.2445h.6894l71.7588-106.9483h24.6094V558.2933h-29.44Z"/><path class="d" d="M1052.0416,501.7142v56.5791h-29.4394V397.2962h52.6689c30.5889,0,53.5889,17.71,53.5889,52.209s-23,52.209-53.5889,52.209Zm0-77.7383v51.0586h22.77c14.0293,0,23.459-9.43,23.459-25.5293s-9.43-25.5293-23.459-25.5293Z"/><path class="d" d="M1239.9518,523.1038h-51.06l-10.58,35.19h-31.0488l53.8184-160.9971h26.91L1281.81,558.2933h-31.0488Zm-43.2393-25.9892h35.419l-17.25-58.419h-.92Z"/><path class="d" d="M653.9547,673.6585h-8.9258l-12.0712-36.2129h-.34l-4.08,44.0332h-9.1806l5.5254-59.5048h11.3056l13.1758,39.1035h.2559l13.1757-39.1035h11.3057l5.5254,59.5048h-9.1807l-4.08-44.0332h-.34Z"/><path class="d" d="M704.6969,681.4788v-8.16h9.7754V630.1351h-9.7754V621.974h29.1572l-1.7,8.1611H723.653v43.1836h9.7763v8.16Z"/><path class="d" d="M797.7731,639.6556c0,9.1807-5.1,14.7061-12.3252,16.6611l15.5557,25.1621-9.9454.85-15.5566-25.1612h-5.2705v24.3115H761.05V621.974h18.1065C789.443,621.974,797.7731,628.01,797.7731,639.6556Zm-27.542-9.5205v18.8711h8.501c5.44,0,9.5205-3.4,9.5205-9.3506s-4.08-9.5205-9.5205-9.5205Z"/><path class="d" d="M820.1256,681.4788l19.8916-59.5048h9.0957l19.8916,59.5048h-9.7754l-4.2509-13.8564H834.067l-4.166,13.8564ZM844.778,634.13h-.4258l-7.9053,25.5869h16.1514Z"/><path class="d" d="M956.8063,666.0931c0-5.8662-5.6953-9.0967-12.2412-11.6465-7.65-2.9756-16.4063-7.31-16.4063-17.1709,0-10.2012,7.2256-16.1513,19.2969-16.1513a33.7174,33.7174,0,0,1,17.001,4.59l-4.335,7.2256a22.74,22.74,0,0,0-12.666-3.6553c-6.4609,0-9.7764,2.6358-9.7764,7.4805s5.8662,7.9912,11.0508,10.0312c9.3516,3.6553,17.5967,7.7354,17.5967,18.7862,0,10.541-7.3955,16.7461-20.7412,16.7461a32.4766,32.4766,0,0,1-18.7871-5.27l4.8457-7.4814a22.1461,22.1461,0,0,0,13.9414,4.5908C952.2155,674.1683,956.8063,671.6185,956.8063,666.0931Z"/><path class="d" d="M1014.01,630.1351v51.3437H1004.83V630.1351H987.1481V621.974h44.6289l-1.7,8.1611Z"/><path class="d" d="M1092.7194,639.6556c0,9.1807-5.1,14.7061-12.3252,16.6611l15.5556,25.1621-9.9453.85-15.5566-25.1612h-5.27v24.3115h-9.1807V621.974h18.1065C1084.3893,621.974,1092.7194,628.01,1092.7194,639.6556Zm-27.542-9.5205v18.8711h8.501c5.44,0,9.5205-3.4,9.5205-9.3506s-4.08-9.5205-9.5205-9.5205Z"/><path class="d" d="M1121.0221,681.4788V621.974h33.6631l-1.7,8.1611h-22.7822v16.4912h20.2314v8.16h-20.2314v18.5322h24.4824v8.16Z"/><path class="d" d="M1183.1569,681.4788V621.974H1216.82l-1.7,8.1611h-22.7823v16.4912h20.2315v8.16h-20.2315v18.5322H1216.82v8.16Z"/><path class="d" d="M1266.2037,630.1351v51.3437h-9.1806V630.1351h-17.6817V621.974H1283.97l-1.7,8.1611Z"/><path class="d" d="M796.0016,297.7386h.3l11.7012-33.2021h16.3008l-20.7012,55.0029c-3.3,8.7-8.6006,16.001-18.2012,16.001a20.2544,20.2544,0,0,1-12.001-3.5l6.7-11.4a6.6075,6.6075,0,0,0,4.001,1.3c1.7,0,3.6-1,5.1-4.9l1.5-3.9h-4.3994L766.2,264.5365H782.8Z"/><path class="d" d="M856.6022,278.137c0,38.1026-6.4,56.9034-21.1016,56.9034a21.1572,21.1572,0,0,1-7.7-1.4l2.9-12.9a4.768,4.768,0,0,0,2.2.5c6.5,0,8.9-14.3008,8.9-53.7031v-3h43.5029V334.54H870.5026V278.137Z"/><path class="d" d="M955.0016,289.5374h-.3L927.3,334.54h-13.501V264.5365H928.6v45.0019h.3l27.4014-45.0019h13.501V334.54H955.0016Z"/><path class="d" d="M998.2985,334.54V264.5365h14.8008V320.94H1036.8V264.5365h14.8008V320.94h9.001l-2.001,28.3017H1045.8V334.54Z"/><path class="d" d="M1115.4987,320.24h-20.3008l-4.1006,14.3008h-15.501l22.4014-70.0039h14.7012L1135.1,334.54h-15.5009Zm-10-36.4024h-.4l-6.1006,23.1016h12.7012Z"/><path class="d" d="M1912.0739,338.8656c-15,0-29.1,5.1005-42.3,13.2l-17.7-30.3c24-12.9,41.1-17.7,65.7-17.7,36.9,0,59.7011,21,59.7011,57.6,0,46.2-39.9,90.3008-76.5009,119.4014v1.1992h82.5009l-6,34.8008H1848.4733V485.2669c41.1006-30.8994,90.3008-79.5,90.3008-119.7011C1938.7741,349.0658,1929.4743,338.8656,1912.0739,338.8656Z"/><path class="d" d="M2108.5748,307.0658V482.2669h47.1006v34.8008H2017.6735V482.2669h53.4V341.8656h-48.9l6-34.8Z"/><path class="d" d="M365.5036,2268.0208c10.58,5.98,20.6992,9.1993,32.1992,9.1993,23.46,0,36.34-18.629,39.3291-44.1592H380.9137V2208.222h55.8887c-3.22-25.07-16.1-43.2392-39.1-43.2392a66.8123,66.8123,0,0,0-30.3594,7.3593l-11.7295-23.6894c15.4092-8.05,29.44-10.35,44.1592-10.35,45.539,0,68.999,35.8789,68.999,82.7988s-23.92,82.7978-69.459,82.7978c-17.48,0-31.2793-4.14-45.7695-12.42Z"/><path class="d" d="M547.6627,2205.0013h60.2588v-64.3984H637.361V2301.6H607.9215V2231.681H547.6627V2301.6H518.2233v-160.997h29.4394Z"/><path class="d" d="M723.15,2167.2826V2301.6H693.7106v-160.997h91.998l-4.6,26.68Z"/><path class="d" d="M816.7584,2301.6v-160.997h93.378l-4.6,26.68H846.1979v37.7187h52.4385v26.68H846.1979V2274.92h63.9385v26.68Z"/><path class="d" d="M976.608,2140.6029h94.5284V2301.6h-29.44V2167.2826h-36.8c0,83.2587-11.0391,135.4677-47.1484,135.4677a42.0076,42.0076,0,0,1-16.5606-3.2207l5.5205-25.2988a22.0855,22.0855,0,0,0,7.3594,1.38c15.41,0,22.54-31.7393,22.54-128.7979Z"/><path class="d" d="M1156.9254,2140.6029v62.5586h23.919c33.35,0,55.6592,16.33,55.6592,49.22s-22.0791,49.2187-55.6592,49.2187H1127.486v-160.997Zm0,89.2382V2274.92h22.5391c18.63,0,26.68-9.6592,26.68-22.5391,0-13.57-7.8194-22.54-26.9092-22.54Z"/><path class="d" d="M1386.0045,2291.48c-14.49,8.28-26.68,12.42-44.85,12.42-47.8388,0-68.999-36.3388-68.999-82.7978s21.16-82.7988,68.999-82.7988c14.72,0,26.68,2.3,42.0889,10.35l-11.7295,23.6894a67.4959,67.4959,0,0,0-30.3594-7.3593c-26.22,0-38.64,24.6093-38.64,56.1191s12.42,56.1182,38.64,56.1182c11.7295,0,22.31-3.22,32.89-9.1993Z"/><path class="d" d="M1508.5944,2266.4105h-51.06l-10.58,35.1894h-31.0488l53.8184-160.997h26.91l53.8184,160.997h-31.0489Zm-43.2393-25.9893h35.419l-17.25-58.4189h-.92Z"/><path class="d" d="M528.6071,2424.7855v-59.5049H562.27l-1.7,8.1611H537.7877v16.4912h20.2315v8.16H537.7877v18.5322H562.27v8.16Z"/><path class="d" d="M625.85,2409.57h.34v-44.2891h9.1806v59.5049h-9.8613l-25.2471-44.2031h-.34v44.2031h-9.1807v-59.5049h9.8614Z"/><path class="d" d="M672.5114,2395.0335c0,12.5811,4.5908,22.4414,15.8115,22.4414a20.8683,20.8683,0,0,0,8.5859-1.6152v-15.1309h-10.456v-7.9912h19.041v27.4571a27.5074,27.5074,0,0,1-17.5108,5.44c-17.6816,0-24.9921-13.4307-24.9921-30.6016s7.31-30.6025,24.9921-30.6025a32.2315,32.2315,0,0,1,16.1514,3.8252l-3.6562,7.3955a26.14,26.14,0,0,0-12.4952-3.0606C677.1022,2372.5911,672.5114,2382.4525,672.5114,2395.0335Z"/><path class="d" d="M733.5407,2424.7855v-59.5049h33.663l-1.7,8.1611H742.7213v16.4912h20.2315v8.16H742.7213v18.5322h24.4824v8.16Z"/><path class="d" d="M795.6754,2424.7855v-59.5049h9.1807v51.3447h26.9473l-1.7,8.16Z"/><path class="d" d="M882.6325,2409.4c0-5.8662-5.6954-9.0966-12.2413-11.6464-7.65-2.9756-16.4062-7.3106-16.4062-17.1709,0-10.2012,7.2256-16.1514,19.2969-16.1514a33.717,33.717,0,0,1,17.0009,4.59l-4.3349,7.2256a22.7408,22.7408,0,0,0-12.666-3.6553c-6.461,0-9.7764,2.6358-9.7764,7.4805s5.8662,7.9912,11.0508,10.0313c9.3515,3.6552,17.5967,7.7353,17.5967,18.7861,0,10.541-7.3955,16.7461-20.7412,16.7461a32.4767,32.4767,0,0,1-18.7872-5.2695l4.8457-7.4815a22.1466,22.1466,0,0,0,13.9415,4.5908C878.0416,2417.4749,882.6325,2414.9251,882.6325,2409.4Z"/><path class="d" d="M912.9733,2424.7855l19.8916-59.5049h9.0957l19.8916,59.5049h-9.7764l-4.25-13.8565H926.9147l-4.166,13.8565Zm24.6523-47.3486H937.2l-7.9052,25.5869h16.1513Z"/><path class="d" d="M1049.6549,2409.4c0-5.8662-5.6953-9.0966-12.2412-11.6464-7.65-2.9756-16.4062-7.3106-16.4062-17.1709,0-10.2012,7.2255-16.1514,19.2968-16.1514a33.7171,33.7171,0,0,1,17.001,4.59l-4.335,7.2256a22.7405,22.7405,0,0,0-12.666-3.6553c-6.4609,0-9.7763,2.6358-9.7763,7.4805s5.8662,7.9912,11.0507,10.0313c9.3516,3.6552,17.5967,7.7353,17.5967,18.7861,0,10.541-7.3955,16.7461-20.7412,16.7461a32.4766,32.4766,0,0,1-18.7871-5.2695l4.8457-7.4815a22.1463,22.1463,0,0,0,13.9414,4.5908C1045.0641,2417.4749,1049.6549,2414.9251,1049.6549,2409.4Z"/><path class="d" d="M1106.859,2373.4417v51.3438h-9.1806v-51.3438h-17.6817v-8.1611h44.6289l-1.7,8.1611Z"/><path class="d" d="M1185.568,2382.9622c0,9.1807-5.1,14.7061-12.3252,16.6612l15.5557,25.1621-9.9453.85-15.5567-25.1611h-5.27v24.3115h-9.1807v-59.5049h18.1065C1177.2379,2365.2806,1185.568,2371.3167,1185.568,2382.9622Zm-27.542-9.5205v18.8711h8.501c5.44,0,9.52-3.4,9.52-9.3506s-4.08-9.5205-9.52-9.5205Z"/><path class="d" d="M1213.87,2424.7855v-59.5049h33.663l-1.7,8.1611H1223.05v16.4912h20.2315v8.16H1223.05v18.5322h24.4824v8.16Z"/><path class="d" d="M1276.0055,2424.7855v-59.5049h33.6631l-1.7,8.1611h-22.7822v16.4912h20.2314v8.16h-20.2314v18.5322h24.4824v8.16Z"/><path class="d" d="M1359.0524,2373.4417v51.3438h-9.1807v-51.3438H1332.19v-8.1611h44.6289l-1.7,8.1611Z"/><path class="d" d="M795.528,2041.0453h.3l11.7011-33.2022H823.83l-20.7011,55.0029c-3.3,8.7-8.6006,16.001-18.2012,16.001a20.2544,20.2544,0,0,1-12.001-3.5l6.7-11.4a6.6075,6.6075,0,0,0,4.001,1.3c1.7,0,3.6-1,5.1-4.9l1.5-3.9h-4.3994l-20.1016-48.6025h16.6006Z"/><path class="d" d="M856.1286,2021.4437c0,38.1025-6.4,56.9033-21.1016,56.9033a21.1572,21.1572,0,0,1-7.7-1.4l2.9-12.9a4.768,4.768,0,0,0,2.2.5c6.5,0,8.9-14.3008,8.9-53.7031v-3h43.5029v70.0039H870.0289v-56.4033Z"/><path class="d" d="M954.528,2032.8441h-.3l-27.4024,45.0029h-13.501v-70.0039h14.8018v45.002h.3l27.4014-45.002h13.5009v70.0039H954.528Z"/><path class="d" d="M997.8248,2077.847v-70.0039h14.8008v56.4033h23.7012v-56.4033h14.8008v56.4033h9.001l-2.001,28.3018h-12.8008V2077.847Z"/><path class="d" d="M1115.025,2063.5462h-20.3007l-4.1006,14.3008h-15.501l22.4014-70.0039h14.7011l22.4014,70.0039h-15.501Zm-10-36.4023h-.4l-6.1005,23.1015h12.7011Z"/><path class="d" d="M1900.2828,1271.0741c8.3995-5.6,19.3194-8.68,30.52-8.68,33.32,0,57.68,22.12,57.68,61.6,0,38.36-28.56,63-65.2393,63-39.48,0-64.96-28.28-64.96-71.9595,0-70.84,43.3995-112.8393,101.3594-129.64l12.04,25.76c-30.52,11.76-61.04,29.4-72.2393,59.3594Zm-6.7207,43.96c0,23.8,11.7608,39.48,29.6807,39.48,15.96,0,30.52-9.52,30.52-30.52s-14.56-30.52-30.52-30.52C1911.4821,1293.474,1898.6022,1302.7142,1893.5621,1315.034Z"/><path class="d" d="M2101.6022,1301.3138c-8.4,5.6-19.32,8.68-30.52,8.68-33.3194,0-57.68-22.12-57.68-61.6,0-38.36,28.5605-63,65.24-63,39.48,0,64.96,28.28,64.96,71.96,0,70.8394-43.4,112.8394-101.36,129.6392l-12.04-25.76c30.52-11.76,61.04-29.4,72.24-59.36Zm6.72-43.9595c0-23.8-11.76-39.48-29.68-39.48-15.96,0-30.52,9.52-30.52,30.52s14.5606,30.52,30.52,30.52C2090.402,1278.9144,2103.2819,1269.6742,2108.3219,1257.3543Z"/><path class="d" d="M1783.8209,1515.222h-5.7754v30.8687h-14.4892v-73.4971h14.4892v28.3491h5.9854l16.4844-28.3491h17.0088l-21.419,35.2788,23.624,38.2183-17.2187,1.05Z"/><path class="d" d="M1864.3541,1547.1405c-22.3632,0-31.498-15.959-31.498-37.7984s9.1348-37.7983,31.498-37.7983,31.4991,15.96,31.4991,37.7983S1886.7184,1547.1405,1864.3541,1547.1405Zm0-61.3174c-10.6045,0-15.539,9.7646-15.539,23.519s4.9345,23.5191,15.539,23.5191,15.54-9.7647,15.54-23.5191S1874.96,1485.8231,1864.3541,1485.8231Z"/><path class="d" d="M1932.92,1521.3119v24.7788h-15.54v-73.4971h25.0938c13.9648,0,24.4648,8.61,24.4648,24.3589s-10.5,24.3594-24.4648,24.3594Zm8.8193-14.28c5.1445,0,9.1348-3.78,9.1348-10.08s-3.99-10.08-9.1348-10.08H1932.92v20.1592Z"/><path class="d" d="M1986.8893,1546.0907v-73.4971h55.123v73.4971h-15.539v-59.2178h-24.044v59.2178Z"/><path class="d" d="M2070.4694,1531.1815a7.98,7.98,0,1,1-7.9795,7.98A8.1142,8.1142,0,0,1,2070.4694,1531.1815Z"/><path class="d" d="M2151.737,1472.5936v59.2178h16.4843v14.2793h-49.3486v-14.2793h17.64v-44.9385h-16.0644l2.1-14.2793Z"/><path class="d" d="M2208.0172,1485.8231a28.631,28.631,0,0,0-14.2793,4.3047l-7.2451-12.3892c8.5049-4.62,14.9092-6.1948,23.5195-6.1948,12.9141,0,21.419,7.35,21.419,20.1592,0,16.1694-12.7051,28.7685-25.1992,39.6884v.42h27.0888l-2.1,14.2793h-46.1982v-13.2295c14.3838-10.8145,30.7637-25.7242,30.7637-39.7935C2215.7868,1488.658,2213.1618,1485.8231,2208.0172,1485.8231Z"/><path class="d" d="M1978.6159,2146.5155c9-6,20.7-9.3,32.7-9.3,35.7,0,61.8007,23.7,61.8007,66.0009,0,41.1-30.6006,67.5005-69.9013,67.5005-42.3,0-69.6006-30.3-69.6006-77.1005,0-75.9009,46.501-120.9014,108.6015-138.9014l12.8995,27.6c-32.7,12.6-65.4,31.5005-77.4,63.6006Zm-7.2,47.1006c0,25.5,12.6,42.3,31.8,42.3,17.1006,0,32.7-10.2,32.7-32.7s-15.6-32.7006-32.7-32.7006C1990.6159,2170.5155,1976.8151,2180.4159,1971.4157,2193.6161Z"/><path class="d" d="M1894.79,2376.5514a15.5471,15.5471,0,0,1,10.7949-4.0806c9.6065,0,17.0869,6.2056,17.0869,18.7016,0,12.1558-8.331,19.1265-19.3818,19.1265-11.9854,0-19.2959-9.0107-19.2959-22.3569,0-20.5713,12.8359-33.7476,30.4316-38.8482l3.1455,6.8008c-9.7754,3.4854-19.8916,9.6909-23.0371,20.4868Zm8.5,25.5869c5.78,0,10.1162-3.91,10.1162-10.9659s-4.3359-10.541-10.1162-10.541a11.3931,11.3931,0,0,0-10.2852,7.3106C1893.0045,2396.443,1896.7448,2402.1383,1903.29,2402.1383Z"/><path class="d" d="M2038.7858,2360.06l5.8652-5.8657,25.502,25.502-25.502,25.5019-5.8652-5.8652,15.3857-15.1314v-.2548h-99.1181v-8.5005h99.1181v-.2554Z"/><path class="d" d="M2132.8756,2349.9439l-21.2519,37.148v.34H2125.14v-10.7959h8.9258v10.7959h9.7753l-1.7,8.0757h-8.0751v13.9409H2125.14v-13.9409h-24.2276v-7.2256l21.9317-38.3384Z"/><path class="d" d="M1848.8859,622.0265V673.37h13.771v8.1607h-38.253V673.37H1839.96V630.1871h-14.2808l1.7-8.1606Z"/><path class="d" d="M1899.6315,662.4046c0-7.9907-5.6958-12.156-12.4112-12.156a30.0545,30.0545,0,0,0-12.3261,2.55V622.0265h31.7925l-1.7,8.1606H1883.82v12.751a29.048,29.048,0,0,1,5.2705-.51c10.8808,0,19.8066,6.46,19.8066,19.9765,0,13.0911-9.3506,19.9766-20.1465,19.9766a29.8487,29.8487,0,0,1-17.2563-5.0154l4.3349-7.1406a20.5442,20.5442,0,0,0,12.3262,3.9953C1894.361,674.2205,1899.6315,670.3951,1899.6315,662.4046Z"/><path class="d" d="M2025.8605,632.1422l5.8657-5.8655,25.502,25.5019-25.502,25.5022-5.8657-5.8654,15.3862-15.1314v-.2549H1942.129v-8.5007h99.1177v-.2551Z"/><path class="d" d="M2103.715,673.37h24.227l-1.7,8.1607h-35.7026v-7.3106c11.6455-8.7556,26.437-24.227,26.437-35.6179,0-5.6953-2.8052-9.2656-8.8408-9.2656-4.59,0-8.5005,1.53-12.4961,3.9954l-4.08-7.1407c6.8-3.6552,11.2207-5.0153,18.1914-5.0153,10.4556,0,16.4912,5.95,16.4912,16.3212,0,13.0911-12.1557,27.2872-22.5268,35.5328Z"/><path class="d" d="M2174.6071,663.17c0,13.0911-9.3506,19.2117-20.1465,19.2117a29.849,29.849,0,0,1-17.2564-5.0154l4.335-7.1406a20.5442,20.5442,0,0,0,12.3262,3.9953c6.5454,0,11.476-3.4,11.476-10.9658,0-7.9057-5.1005-11.051-11.8159-11.051h-4.42v-4.59l12.751-17.0865v-.34h-22.6968l1.7-8.1606h31.1123v7.31l-12.1557,16.1514v.2548C2167.8063,647.1034,2174.6071,651.6937,2174.6071,663.17Z"/></svg>