<?xml version="1.0" encoding="UTF-8"?><svg id="a" xmlns="http://www.w3.org/2000/svg" viewBox="0 0 295.146 52.672"><defs><style>.b{fill:#fff;stroke:#f29100;stroke-miterlimit:10;stroke-width:.283px;}.c{fill:#f29100;stroke-width:0px;}</style></defs><polyline class="c" points="154.108 49.792 151.325 44.167 146.866 39.536 149.145 44.828 153.623 49.307"/><path class="c" d="m24.4,23.663c5.9,1.407,11.056,8.844,11.056,15.342,0,9.581-7.168,13-16.347,13H5.109L.142,47.039,5.105,5.105l15.041-2.841c8.374,0,13.633,5.923,13.633,14.1,0,6.164-3.684,9.581-7.972,10.72l-1.407-3.421Zm-12.059-12.126v13.263l2-2.216c4.489,0,8.643-2.327,8.643-6.28,0-4.288.541-4.769-4.618-4.769l-6.025.002Zm0,19.429v14.6h6.359c5.762,0,9.246-2.948,9.246-7.437,0-4.757-3.283-7.168-9.313-7.168l-6.292.005Z"/><path class="c" d="m51.8,27.046l3.179-1.6c7.37,0,15.111,8.871,15.111,15.771s-4.821,10.783-12.19,10.783h-13.065l-4.963-4.963,4.963-29.2,2.005-4.963,4.96,4.96v9.212Zm0,9.078v10.05h5.426c3.551,0,5.762-1.876,5.762-5.025s-2.211-5.025-5.762-5.025h-5.426Zm30.285,15.876h-6.968l-4.963-4.963,4.963-29.2,2-4.963,4.963,4.963.005,34.163Z"/><path class="c" d="m119.336,42.154c0,6.164-3.886,9.848-11.657,9.848h-14.874l-4.963-4.963,4.963-29.2,13.059-4.315c6.834,0,12.066,6.861,12.066,13.025-.056,3.476-2.452,6.476-5.829,7.3l-.8-1.546c3.286.734,8.035,4.897,8.035,9.851Zm-19.563-18.491v7.772l.564-2.881c3.149,0,8.8,1.373,8.8-1.508,0-3.015-.45-3.383-3.4-3.383h-5.964Zm0,13.6v8.911h6.767c3.551,0,5.695-1.407,5.695-4.422s-2.345-4.489-6.365-4.489h-6.097Z"/><path class="c" d="m154.912,36.526h-21.707c.469,6.633,2.83,9.227,8.993,9.227,3.082,0,4.468.348,6.947-.925l4.963,4.964c-3.534,1.862-7.462,2.85-11.456,2.88-10.05,0-19.348-6.709-19.348-17.9,0-11.255,7.35-21.9,16.6-21.9,9.179,0,15.615,9.653,15.615,18.028-.017,1.891-.22,3.775-.607,5.626Zm-21.439-5.426h15.811c0-4.689-2.546-8.106-7.7-8.106-4.627,0-7.508,3.282-8.111,8.106Z"/><path class="c" d="m186.133,45.37l2.144,5.36c-2.952,1.31-6.15,1.972-9.38,1.942-11.054,0-20.614-9.563-20.614-19.411s9.225-16.1,20.279-16.1c1.956,0,4.417-3.155,4.417-3.155l4.963,4.963-2.144,5.36c-2.165-.9-4.489-1.356-6.834-1.34-5.762,0-9.647,4.824-9.647,11.925s3.819,11.926,9.58,11.926c1.805,0,.426-5.864,2.273-6.437.553-.168,4.963,4.967,4.963,4.967Z"/><path class="c" d="m211.994,34.316l11.323,17.684-7.1.67-4.963-4.963-4.888-10.507h-3.751v14.8h-6.968l-4.963-4.963,4.963-29.2,2-4.963,4.963,4.963v13.8l1.9-1.346,7.764-12.26,5.4-5.159,4.964,4.963-10.644,16.481Z"/><path class="c" d="m246.833,31.9v-2.274c0-4.087-1.742-6.633-6.767-6.633-3.164.056-6.293.668-9.245,1.809l-4.963-4.963,2.3-1.746c3.953-1.473,6.436-5.222,10.724-5.222,10.452,0,14.921,9.787,14.921,16.889v14.34c-.149,1.183.689,2.263,1.872,2.412.18.023.361.023.541,0h.736v5.158c-1.293.445-2.651.672-4.019.671-2.52.145-4.792-1.51-5.427-3.953h-.268c-2.485,2.662-6.009,4.106-9.648,3.953-6.5,0-14.793-5.66-14.793-12.627,0-6.5,9.568-7.808,17.138-7.808l6.898-.006Zm-7.169,5.427c-3.349,0-5.762,1.876-5.762,4.958s.364,3.283,3.111,3.283c3.282,0,2.847-.938,4.857-3.484l4.963-4.757h-7.169Z"/><polygon class="c" points="251.986 41.545 256.949 46.509 256.949 50.604 251.986 46.704 251.986 41.545"/><path class="b" d="m20.844,22.385c5.9,1.407,9.647,5.158,9.647,11.657,0,9.58-7.169,13-16.347,13H.144V.142h14c8.374,0,14.672,3.082,14.672,11.255,0,6.164-3.685,9.581-7.972,10.72v.268ZM7.377,6.573v13.266h6.3c4.489,0,7.637-2.814,7.637-6.767,0-4.288-2.746-6.5-7.905-6.5h-6.032Zm0,19.427v14.608h6.365c5.762,0,9.246-2.948,9.246-7.437,0-4.757-3.288-7.171-9.313-7.171h-6.298Z"/><path class="b" d="m46.84,25.332h6.1c7.37,0,12.194,4.02,12.194,10.921s-4.828,10.786-12.198,10.786h-13.064V12.871h6.968v12.461Zm0,5.829v10.05h5.426c3.551,0,5.762-1.876,5.762-5.025s-2.211-5.025-5.762-5.025h-5.426Zm30.282,15.878h-6.968V12.871h6.968v34.168Z"/><path class="b" d="m114.373,37.191c0,6.163-3.886,9.848-11.657,9.848h-14.874V12.871h13.8c6.834,0,11.322,2.546,11.322,8.71-.057,3.475-2.451,6.475-5.828,7.3v.2c3.284.74,7.237,3.152,7.237,8.11Zm-19.563-18.491v7.771h5.49c3.148,0,5.56-1,5.56-3.885,0-3.015-2.143-3.886-5.091-3.886h-5.959Zm0,13.6v8.911h6.767c3.551,0,5.7-1.407,5.7-4.422s-2.345-4.489-6.366-4.489h-6.101Z"/><path class="b" d="m149.949,31.563h-21.707c.469,6.633,3.953,10.318,10.116,10.318,2.981-.102,5.896-.905,8.508-2.345l2.279,5.292c-3.534,1.862-7.463,2.85-11.457,2.881-10.049,0-16.615-6.566-16.615-17.754,0-11.255,6.164-17.754,15.409-17.754,9.179,0,14.07,5.36,14.07,13.735-.016,1.891-.218,3.776-.603,5.627Zm-21.439-5.427h15.811c0-4.689-2.546-8.106-7.7-8.106-4.627,0-7.508,3.283-8.111,8.106Z"/><path class="b" d="m181.17,40.407l2.144,5.359c-2.952,1.311-6.15,1.973-9.38,1.943-11.054,0-16.682-7.905-16.682-17.754s5.293-17.755,16.348-17.755c3.215-.015,6.401.599,9.38,1.809l-2.144,5.36c-2.166-.9-4.491-1.355-6.836-1.339-5.762,0-9.648,4.823-9.648,11.925s3.82,11.926,9.581,11.926c2.484-.03,4.939-.53,7.237-1.474Z"/><path class="b" d="m207.031,29.352l11.323,17.687-7.1.67-9.854-15.476h-3.751v14.806h-6.968V12.871h6.968v13.8h3.818l8.978-13.8h7.235l-10.649,16.481Z"/><path class="b" d="m241.87,26.94v-2.277c0-4.087-1.742-6.633-6.767-6.633-3.164.056-6.293.668-9.245,1.809l-2.011-5.427c3.85-1.473,7.938-2.223,12.06-2.211,10.451,0,12.93,5.494,12.93,12.6v14.333c-.149,1.182.688,2.262,1.871,2.411.18.023.361.023.541,0h.737v5.155c-1.293.445-2.651.671-4.019.67-2.52.145-4.793-1.51-5.428-3.953h-.267c-2.486,2.662-6.009,4.106-9.648,3.953-6.5,0-10.585-3.215-10.585-10.183,0-6.5,5.359-10.251,12.93-10.251l6.901.004Zm-7.17,5.427c-3.35,0-5.762,1.876-5.762,4.958s2.278,4.556,5.025,4.556c3.156-.072,6.09-1.639,7.906-4.221v-5.293h-7.169Z"/></svg>