<svg xmlns="http://www.w3.org/2000/svg" viewBox="0 0 1347.89 989.48"><defs><style>.a{fill:#222c54;}.b{fill:#34a936;}.b,.g{opacity:0.5;}.c{fill:#fff;}.d{opacity:0.63;}.e,.g{fill:#0bbbef;}.f{fill:#38a032;}.h{fill:#77be7f;}</style></defs><rect class="a" x="79.06" y="43.83" width="1190.55" height="907.09" rx="70.87"/><rect class="b" x="78.95" y="724.15" width="1105.62" height="113.39"/><path class="c" d="M418.05,724.13V822H444.3v15.55H371.39V822H401v-82.3H373.82l3.24-15.55Z"/><path class="c" d="M664.78,743.41,676,732.23l48.6,48.6L676,829.43l-11.18-11.18,29.32-28.83v-.49H505.21v-16.2H694.1v-.48Z"/><path class="c" d="M835.53,724.13V822h26.24v15.55h-72.9V822h29.65v-82.3H791.3l3.24-15.55Z"/><path class="c" d="M932.24,801.08c0-15.23-10.85-23.16-23.65-23.16a57.27,57.27,0,0,0-23.49,4.86V724.13h60.59l-3.24,15.55H902.11V764a56.1,56.1,0,0,1,10-1c20.74,0,37.75,12.31,37.75,38.07,0,24.95-17.82,38.07-38.4,38.07-14.25,0-23.65-3.72-32.88-9.56l8.26-13.6c6.8,4.53,13.45,7.61,23.49,7.61C922.2,823.6,932.24,816.31,932.24,801.08Z"/><rect class="b" x="78.95" y="185.56" width="1105.62" height="425.2"/><path class="c" d="M710.62,185.15V540.23h95.46v70.52H526.4V540.23H634.62V255.68h-99.1l12.16-70.53Z"/><g class="d"><rect class="e" x="674.33" y="14.13" width="1.76" height="21.44"/><rect class="e" x="674.33" y="46.06" width="1.76" height="21.43"/><rect class="e" x="674.33" y="77.98" width="1.76" height="21.44"/><rect class="e" x="674.33" y="109.92" width="1.76" height="21.43"/><rect class="e" x="674.33" y="141.84" width="1.76" height="21.43"/><rect class="e" x="674.33" y="173.76" width="1.76" height="21.44"/><rect class="e" x="674.33" y="205.69" width="1.76" height="21.44"/><rect class="e" x="674.33" y="237.61" width="1.76" height="21.44"/><rect class="e" x="674.33" y="269.54" width="1.76" height="21.43"/><rect class="e" x="674.33" y="301.46" width="1.76" height="21.44"/><rect class="e" x="674.33" y="333.4" width="1.76" height="21.43"/><rect class="e" x="674.33" y="365.32" width="1.76" height="21.43"/></g><g class="d"><rect class="e" x="674.33" y="377.42" width="1.76" height="21.44"/><rect class="e" x="674.33" y="409.34" width="1.76" height="21.44"/><rect class="e" x="674.33" y="441.27" width="1.76" height="21.44"/><rect class="e" x="674.33" y="473.2" width="1.76" height="21.43"/><rect class="e" x="674.33" y="505.12" width="1.76" height="21.44"/><rect class="e" x="674.33" y="537.05" width="1.76" height="21.43"/><rect class="e" x="674.33" y="568.97" width="1.76" height="21.43"/><rect class="e" x="674.33" y="600.9" width="1.76" height="21.44"/><rect class="e" x="674.33" y="632.82" width="1.76" height="21.44"/><rect class="e" x="674.33" y="664.74" width="1.76" height="21.44"/></g><path class="e" d="M1306.45,489.81c0,5.39-3.85,7.91-8.29,7.91a12.32,12.32,0,0,1-7.11-2.06l1.79-2.94a8.44,8.44,0,0,0,5.07,1.64c2.7,0,4.73-1.4,4.73-4.52s-2.1-4.54-4.87-4.54H1296v-1.9l5.25-7v-.14h-9.34l.7-3.36h12.81v3l-5,6.65v.11C1303.65,483.19,1306.45,485.08,1306.45,489.81Z"/><path class="e" d="M1315.69,494h10l-.7,3.36h-14.7v-3c4.79-3.6,10.88-10,10.88-14.67,0-2.34-1.15-3.81-3.64-3.81a9.54,9.54,0,0,0-5.14,1.64l-1.68-2.94a14,14,0,0,1,7.49-2.06c4.3,0,6.79,2.45,6.79,6.72,0,5.39-5,11.23-9.28,14.63Z"/><path class="e" d="M1336.83,497.72c-5.39,0-8.57-4.3-8.57-12.6s3.18-12.6,8.57-12.6,8.58,4.3,8.58,12.6S1342.22,497.72,1336.83,497.72Zm0-3.36c2.8,0,4.76-2.73,4.76-9.24s-2-9.24-4.76-9.24-4.76,2.73-4.76,9.24S1334,494.36,1336.83,494.36Z"/><path class="e" d="M658.55,963.76l-8.75,15.29v.14h5.56v-4.44H659v4.44h4l-.7,3.33H659v5.74h-3.68v-5.74h-10v-3l9-15.78Z"/><path class="e" d="M670.73,984.9h10l-.7,3.36H665.3v-3c4.8-3.61,10.89-10,10.89-14.67,0-2.34-1.16-3.81-3.64-3.81a9.6,9.6,0,0,0-5.15,1.64l-1.68-2.94a14,14,0,0,1,7.49-2.06c4.31,0,6.79,2.45,6.79,6.72,0,5.39-5,11.23-9.27,14.63Z"/><path class="e" d="M691.87,988.61c-5.39,0-8.58-4.31-8.58-12.6s3.19-12.6,8.58-12.6,8.57,4.3,8.57,12.6S697.26,988.61,691.87,988.61Zm0-3.36c2.8,0,4.76-2.73,4.76-9.24s-2-9.24-4.76-9.24-4.76,2.73-4.76,9.24S689.07,985.25,691.87,985.25Z"/><path class="f" d="M11.24,387.83V409h5.67v3.36H1.16V409H7.57V391.19H1.68l.71-3.36Z"/><path class="f" d="M31.44,404.46a4.79,4.79,0,0,0-5.11-5,12.38,12.38,0,0,0-5.08,1.05V387.83H34.34l-.7,3.36H24.93v5.25a11.88,11.88,0,0,1,2.17-.21c4.48,0,8.15,2.66,8.15,8.23,0,5.39-3.85,8.22-8.29,8.22a12.32,12.32,0,0,1-7.11-2.06l1.79-2.94a8.44,8.44,0,0,0,5.07,1.64A4.48,4.48,0,0,0,31.44,404.46Z"/><path class="f" d="M46.42,412.68c-5.39,0-8.58-4.3-8.58-12.6s3.19-12.6,8.58-12.6S55,391.79,55,400.08,51.81,412.68,46.42,412.68Zm0-3.36c2.8,0,4.76-2.73,4.76-9.24s-2-9.24-4.76-9.24-4.76,2.73-4.76,9.24S43.62,409.32,46.42,409.32Z"/><path class="f" d="M32,768.33l-8.75,15.3v.14h5.57v-4.45h3.67v4.45h4l-.7,3.32H32.45v5.75H28.78v-5.75h-10v-3l9-15.79Z"/><path class="f" d="M46.42,793.19c-5.39,0-8.58-4.31-8.58-12.61S41,768,46.42,768,55,772.29,55,780.58,51.81,793.19,46.42,793.19Zm0-3.36c2.8,0,4.76-2.74,4.76-9.25s-2-9.24-4.76-9.24-4.76,2.73-4.76,9.24S43.62,789.83,46.42,789.83Z"/><path class="e" d="M32,653l-8.75,15.29v.14h5.57v-4.44h3.67v4.44h4l-.7,3.33H32.45v5.74H28.78v-5.74h-10v-3l9-15.78Z"/><path class="e" d="M46.42,677.8c-5.39,0-8.58-4.31-8.58-12.6s3.19-12.6,8.58-12.6S55,656.9,55,665.2,51.81,677.8,46.42,677.8Zm0-3.36c2.8,0,4.76-2.73,4.76-9.24s-2-9.24-4.76-9.24-4.76,2.73-4.76,9.24S43.62,674.44,46.42,674.44Z"/><path class="e" d="M31.44,121a4.78,4.78,0,0,0-5.11-5A12.38,12.38,0,0,0,21.25,117V104.36H34.34l-.7,3.36H24.93V113a11.88,11.88,0,0,1,2.17-.21c4.48,0,8.15,2.66,8.15,8.22,0,5.39-3.85,8.23-8.29,8.23a12.32,12.32,0,0,1-7.11-2.07l1.79-2.94a8.45,8.45,0,0,0,5.07,1.65A4.49,4.49,0,0,0,31.44,121Z"/><path class="e" d="M46.42,129.22c-5.39,0-8.58-4.31-8.58-12.6S41,104,46.42,104,55,108.32,55,116.62,51.81,129.22,46.42,129.22Zm0-3.36c2.8,0,4.76-2.73,4.76-9.24s-2-9.24-4.76-9.24-4.76,2.73-4.76,9.24S43.62,125.86,46.42,125.86Z"/><path class="e" d="M119.06,17.29c0,5.39-3.85,7.91-8.3,7.91a12.34,12.34,0,0,1-7.1-2.06l1.78-2.95a8.48,8.48,0,0,0,5.08,1.65c2.7,0,4.73-1.4,4.73-4.52s-2.1-4.55-4.87-4.55h-1.82V10.88l5.25-7V3.71h-9.35l.7-3.36H118v3L113,10v.1C116.26,10.67,119.06,12.56,119.06,17.29Z"/><path class="e" d="M130.58,25.2c-5.4,0-8.58-4.31-8.58-12.6S125.18,0,130.58,0s8.57,4.3,8.57,12.6S136,25.2,130.58,25.2Zm0-3.36c2.8,0,4.76-2.73,4.76-9.24s-2-9.24-4.76-9.24-4.77,2.73-4.77,9.24S127.77,21.84,130.58,21.84Z"/><path class="e" d="M1224.56,17.29c0,5.39-3.85,7.91-8.3,7.91a12.39,12.39,0,0,1-7.11-2.06l1.79-2.95a8.48,8.48,0,0,0,5.08,1.65c2.69,0,4.72-1.4,4.72-4.52s-2.1-4.55-4.87-4.55h-1.81V10.88l5.25-7V3.71H1210l.7-3.36h12.81v3l-5,6.65v.1C1221.76,10.67,1224.56,12.56,1224.56,17.29Z"/><path class="e" d="M1236.07,25.2c-5.39,0-8.58-4.31-8.58-12.6S1230.68,0,1236.07,0s8.58,4.3,8.58,12.6S1241.46,25.2,1236.07,25.2Zm0-3.36c2.8,0,4.76-2.73,4.76-9.24s-2-9.24-4.76-9.24-4.76,2.73-4.76,9.24S1233.27,21.84,1236.07,21.84Z"/><path class="e" d="M32,878.72,23.21,894v.15h5.57v-4.45h3.67v4.45h4l-.7,3.32H32.45v5.74H28.78v-5.74h-10v-3l9-15.79Z"/><path class="e" d="M46.42,903.57c-5.39,0-8.58-4.3-8.58-12.6s3.19-12.6,8.58-12.6S55,882.67,55,891,51.81,903.57,46.42,903.57Zm0-3.36c2.8,0,4.76-2.73,4.76-9.24s-2-9.24-4.76-9.24-4.76,2.73-4.76,9.24S43.62,900.21,46.42,900.21Z"/><rect class="g" x="1184.45" y="43.83" width="85.04" height="907.09"/><path class="h" d="M965.75,361.65v-3h2.83v-12h-2.83v-3h9.07l-.51,3h-2.44v12h2.82v3Z"/><path class="h" d="M977.42,352c0-2.18,1.77-3.7,4.65-3.7a10.3,10.3,0,0,1,4.26.9l-1.07,2.49a8.44,8.44,0,0,0-3-.64c-1.13,0-1.64.41-1.64,1,0,.8.77,1.19,2.08,1.62,1.92.64,3.95,1.65,3.95,4.24,0,2.39-2,4-5,4a10,10,0,0,1-4.54-1l1.1-2.57a8.34,8.34,0,0,0,3.34.77c1.11,0,1.88-.49,1.88-1.21,0-1-1.26-1.49-2.57-2C979.35,355.41,977.42,354.41,977.42,352Z"/><path class="h" d="M998.62,358.31l1.1,2.49a10,10,0,0,1-4.52,1.11c-3.85,0-6.5-2.52-6.5-6.81s2.31-6.81,6-6.81c3.42,0,5.55,2.13,5.55,5.81a17.79,17.79,0,0,1-.15,2h-8.17a3.38,3.38,0,0,0,3.41,3.08A7.85,7.85,0,0,0,998.62,358.31Zm-1.26-4.67a2.43,2.43,0,0,0-2.6-2.6,2.81,2.81,0,0,0-2.77,2.6Z"/><path class="h" d="M1011.21,361.45a9.27,9.27,0,0,1-2.85.46c-2.37,0-4.29-1.08-4.29-4.14V351.3h-2.26v-2.75h2.26V345l3.18-.51v4.06h3.68l-.52,2.75h-3.16v6.47c0,1,.41,1.39,1.42,1.39a7.58,7.58,0,0,0,2-.33Z"/><path class="h" d="M1024.7,353.71c-2.31-.9-5-2.52-5-5.5s2.31-4.8,6-4.8a10.63,10.63,0,0,1,5.27,1.39l-1.57,2.62a6.89,6.89,0,0,0-3.7-1c-1.62,0-2.57.56-2.57,1.67,0,1.31,1.56,2.29,3.05,2.88,2.83,1.1,5.35,2.49,5.35,5.83s-2.36,5.14-6.4,5.14a10.33,10.33,0,0,1-5.81-1.59l1.78-2.68a6.64,6.64,0,0,0,4,1.29c1.72,0,3-.77,3-2.11C1028.12,355.2,1026.6,354.46,1024.7,353.71Z"/><path class="h" d="M1041,353.07c0-1.26-.64-2-2.21-2a10.59,10.59,0,0,0-3.49.69l-.95-2.57a13.1,13.1,0,0,1,4.75-.87c4,0,5.09,2.11,5.09,4.83v5a.83.83,0,0,0,.93.92h.28v2.49a5.82,5.82,0,0,1-1.83.26,2.34,2.34,0,0,1-2.31-1.26h-.1a4.41,4.41,0,0,1-3.45,1.26c-2.49,0-4.06-1.23-4.06-3.9,0-2.52,2-3.94,4.91-3.94H1041Zm0,4.81v-1.49h-2.34c-1.18,0-1.84.59-1.84,1.43a1.3,1.3,0,0,0,1.41,1.34A3.74,3.74,0,0,0,1041,357.88Z"/><path class="h" d="M1051.19,361.65H1048v-13.1h2.41l.52,1.13h.1a5.05,5.05,0,0,1,3.47-1.39c2.75,0,4.29,1.72,4.29,5.17v8.19h-3.19v-7.91c0-1.83-.69-2.7-1.9-2.7a3.53,3.53,0,0,0-2.52,1.54Z"/><path class="h" d="M1061.78,352c0-2.18,1.78-3.7,4.65-3.7a10.34,10.34,0,0,1,4.27.9l-1.08,2.49a8.39,8.39,0,0,0-3-.64c-1.13,0-1.64.41-1.64,1,0,.8.77,1.19,2.08,1.62,1.93.64,4,1.65,4,4.24,0,2.39-2,4-5,4a10,10,0,0,1-4.55-1l1.1-2.57a8.39,8.39,0,0,0,3.35.77c1.1,0,1.87-.49,1.87-1.21,0-1-1.26-1.49-2.57-2C1063.71,355.41,1061.78,354.41,1061.78,352Z"/><path class="h" d="M1094.08,349.91H1094l-3.08,9.38h-3.36l-3.11-9.38h-.08l-1.08,11.74H1080l1.67-18h3.68l3.85,11.56h.08l3.85-11.56h3.68l1.67,18h-3.29Z"/><path class="h" d="M1111,358.31l1.1,2.49a10,10,0,0,1-4.52,1.11c-3.86,0-6.5-2.52-6.5-6.81s2.31-6.81,6-6.81c3.42,0,5.55,2.13,5.55,5.81a17.79,17.79,0,0,1-.15,2h-8.18a3.4,3.4,0,0,0,3.42,3.08A7.85,7.85,0,0,0,1111,358.31Zm-1.26-4.67a2.43,2.43,0,0,0-2.6-2.6,2.81,2.81,0,0,0-2.77,2.6Z"/><path class="h" d="M1123.69,360.52a4.88,4.88,0,0,1-3.4,1.39c-3.7,0-5.37-2.85-5.37-6.81s1.7-6.81,5.61-6.81a9,9,0,0,1,3,.49v-5.89l3.19-.51v19.27h-2.42l-.51-1.13Zm-5.53-5.42c0,2.39,1,4.06,2.91,4.06a3.46,3.46,0,0,0,2.46-1.28v-6.15A5.05,5.05,0,0,0,1121,351C1119.24,351,1118.16,352.53,1118.16,355.1Z"/><path class="h" d="M1129.16,351.3l.51-2.75h4.83v13.1h-3.18V351.3Zm3.75-8.41a1.86,1.86,0,0,1,1.9,1.85,1.89,1.89,0,1,1-1.9-1.85Z"/><path class="h" d="M1145.89,348.55h3.18v13.1h-2.41l-.51-1.13H1146a5.52,5.52,0,0,1-3.65,1.39c-2.57,0-4.49-1.7-4.49-5.37v-8h3.18v8c0,1.82.9,2.62,2.11,2.62a3.88,3.88,0,0,0,2.7-1.54Z"/><path class="h" d="M1162.05,349.73a6.19,6.19,0,0,1,4-1.44c2.75,0,4.34,1.72,4.34,5.17v8.19h-3.19v-7.91c0-1.83-.69-2.7-1.9-2.7a3.38,3.38,0,0,0-2.16,1.1v9.51h-3.18v-7.91c0-1.83-.64-2.7-1.75-2.7a3.21,3.21,0,0,0-2.31,1.54v9.07h-3.19v-13.1h2.42l.51,1.13h.1a4.69,4.69,0,0,1,3.29-1.39A3.84,3.84,0,0,1,1162.05,349.73Z"/><path class="h" d="M971,379.37l5.66-7.7h2.57l-6.14,8.5,6.68,9.48-2.52.26L971,381.33h-2v8.32h-2.26v-18H969v7.7Z"/><path class="h" d="M983.3,383.72c.21,2.85,1.54,4.47,4.14,4.47a7,7,0,0,0,3.37-.93l.74,1.54a8.83,8.83,0,0,1-4.37,1.11c-3.65,0-6.14-2.52-6.14-6.81,0-4.06,2.08-6.81,5.78-6.81,3.52,0,5.27,2.06,5.27,5.27a11.36,11.36,0,0,1-.23,2.16Zm0-1.57h6.76a4,4,0,0,0,0-.59c0-2.06-1.08-3.55-3.22-3.55S983.43,379.71,983.3,382.15Z"/><path class="h" d="M1003.6,376.55l-.51,1.72h-5.24v11.38h-2.16v-13.1Z"/><path class="h" d="M1015.73,376.55v13.1h-2.16V378.27h-4.06v1.08c0,7-1.15,10.43-3.93,10.43a3.6,3.6,0,0,1-1.72-.46l.62-1.67a1.72,1.72,0,0,0,1,.31c1.37,0,2-2.55,2-9.23v-2.18Z"/><path class="h" d="M1025.09,381.33c2.82,0,4.67,1.54,4.67,4.18s-1.85,4.14-4.67,4.14h-5v-13.1h2.16v4.78Zm-2.83,1.72v4.88h2.57c1.67,0,2.72-.9,2.72-2.44s-1-2.44-2.72-2.44Z"/><path class="h" d="M1041.82,379.91a4.72,4.72,0,0,1,3.46-1.44c2.91,0,5,2.09,5,5.71a5.37,5.37,0,0,1-5.73,5.73c-3.62,0-5.7-2.72-5.7-6.76a12.4,12.4,0,0,1,9.14-11.74l.75,1.57a10.85,10.85,0,0,0-7,6.88Zm2.77,8c2.06,0,3.44-1.31,3.44-3.78s-1.38-3.75-3.44-3.75a3.94,3.94,0,0,0-3.49,2.72C1041.1,386,1042.28,388,1044.59,388Z"/><path class="h" d="M1058.93,389.91c-4,0-6.17-3.16-6.17-9.25s2.21-9.25,6.17-9.25,6.17,3.16,6.17,9.25S1062.89,389.91,1058.93,389.91Zm0-2c2.36,0,3.88-2.16,3.88-7.3s-1.52-7.3-3.88-7.3-3.88,2.16-3.88,7.3S1056.57,388,1058.93,388Z"/><path class="h" d="M1067.67,384.87a5.3,5.3,0,0,1,3-4.67v-.08a4.58,4.58,0,0,1-2.42-4.11c0-2.8,1.9-4.6,5.09-4.6s5.09,1.8,5.09,4.6a5.12,5.12,0,0,1-2.42,4.24v.07a5.12,5.12,0,0,1,3,4.55c0,3.24-2.13,5-5.65,5S1067.67,388.11,1067.67,384.87Zm6.29-3.29-1.51-.64a4.69,4.69,0,0,0-2.62,3.93c0,2.24,1.38,3.09,3.49,3.09s3.5-1,3.5-3.09C1076.82,383.33,1075.45,382.2,1074,381.58Zm.18-2a4.56,4.56,0,0,0,2.11-3.6,2.94,2.94,0,0,0-5.86,0,3.26,3.26,0,0,0,2.31,3Z"/><path class="h" d="M1099.43,389.65h-2.16V378.27h-5.73v11.38h-2.16v-13.1h10Z"/><path class="h" d="M1102.26,376.55h10.84l-.52,1.72h-3.9v11.38h-2.13V378.27h-4.29Z"/><path class="h" d="M972.74,779.26v-2.47h3v-13h-3v-2.47h8.81l-.51,2.47h-2.57v13h2.95v2.47Z"/><path class="h" d="M989.31,771.47c1.9.54,4.06,1.67,4.06,4.09s-1.87,4-4.83,4a10.9,10.9,0,0,1-4.42-.9l.9-2.1a8.58,8.58,0,0,0,3.45.77c1.51,0,2.23-.62,2.23-1.6,0-1.33-1.31-1.79-2.77-2.23s-3.52-1.47-3.52-4c0-2.31,1.82-3.55,4.57-3.55a9.68,9.68,0,0,1,4.08.9l-.87,2a8.27,8.27,0,0,0-3-.67c-1.41,0-2.08.54-2.08,1.44C987.08,770.67,987.9,771.06,989.31,771.47Z"/><path class="h" d="M1006.76,773.32h-8.33c.18,2.55,1.52,4,3.88,4a7.25,7.25,0,0,0,3.27-.9l.87,2a9.6,9.6,0,0,1-4.39,1.1c-3.86,0-6.37-2.51-6.37-6.81s2.36-6.81,5.91-6.81,5.39,2.06,5.39,5.27A11.36,11.36,0,0,1,1006.76,773.32Zm-8.22-2.08h6.06a2.79,2.79,0,0,0-3-3.11C999.87,768.13,998.77,769.39,998.54,771.24Z"/><path class="h" d="M1017.94,779.05a9,9,0,0,1-2.8.46c-2.37,0-4.11-1.08-4.11-4.13v-7h-2.24v-2.24H1011v-3.54l2.67-.52v4.06h4l-.52,2.24h-3.44v7.12a1.56,1.56,0,0,0,1.75,1.77,7.24,7.24,0,0,0,2.1-.36Z"/><path class="h" d="M1035.36,774.61c0-1.78-1.72-2.75-3.7-3.52-2.31-.9-5-2.21-5-5.2s2.19-4.88,5.84-4.88a10.17,10.17,0,0,1,5.13,1.39l-1.31,2.18a6.92,6.92,0,0,0-3.82-1.1c-2,0-3,.8-3,2.26s1.77,2.42,3.34,3c2.83,1.11,5.32,2.34,5.32,5.68,0,3.19-2.24,5.06-6.27,5.06a9.79,9.79,0,0,1-5.68-1.59l1.47-2.26a6.7,6.7,0,0,0,4.21,1.39C1034,777.05,1035.36,776.28,1035.36,774.61Z"/><path class="h" d="M1048.29,771.55v-.88c0-1.56-.67-2.54-2.6-2.54a10.44,10.44,0,0,0-3.54.69l-.78-2.08a13,13,0,0,1,4.63-.85c4,0,5,2.11,5,4.83v5.5a.83.83,0,0,0,.92.93h.29v2a4.86,4.86,0,0,1-1.54.26,2,2,0,0,1-2.09-1.52h-.1a4.79,4.79,0,0,1-3.7,1.52c-2.49,0-4.06-1.24-4.06-3.91,0-2.49,2.06-3.93,5-3.93Zm-2.75,2.08a2,2,0,0,0-2.21,1.9,1.72,1.72,0,0,0,1.93,1.75,3.81,3.81,0,0,0,3-1.62v-2Z"/><path class="h" d="M1057.67,779.26H1055V766.15h1.91l.51,1.39h.1a4.73,4.73,0,0,1,3.7-1.65c2.93,0,4.32,1.73,4.32,5.17v8.2h-2.67v-8c0-2.16-.75-3.11-2.29-3.11a4.06,4.06,0,0,0-2.9,1.83Z"/><path class="h" d="M1073.68,771.47c1.9.54,4.06,1.67,4.06,4.09s-1.88,4-4.83,4a10.83,10.83,0,0,1-4.42-.9l.9-2.1a8.57,8.57,0,0,0,3.44.77c1.51,0,2.23-.62,2.23-1.6,0-1.33-1.31-1.79-2.77-2.23s-3.52-1.47-3.52-4c0-2.31,1.82-3.55,4.57-3.55a9.69,9.69,0,0,1,4.09.9l-.88,2a8.23,8.23,0,0,0-3-.67c-1.41,0-2.08.54-2.08,1.44C1071.44,770.67,1072.26,771.06,1073.68,771.47Z"/><path class="h" d="M1098.86,766.61a4.84,4.84,0,0,1-3.73,5l4.71,7.61-3,.25-4.7-7.6h-1.6v7.35h-2.77v-18h5.47C1096.34,761.27,1098.86,763.09,1098.86,766.61Zm-8.33-2.87v5.7h2.57a2.68,2.68,0,0,0,2.88-2.83,2.72,2.72,0,0,0-2.88-2.87Z"/><path class="h" d="M1112.45,773.32h-8.32c.18,2.55,1.51,4,3.88,4a7.24,7.24,0,0,0,3.26-.9l.87,2a9.56,9.56,0,0,1-4.39,1.1c-3.85,0-6.37-2.51-6.37-6.81s2.36-6.81,5.91-6.81,5.39,2.06,5.39,5.27A10.6,10.6,0,0,1,1112.45,773.32Zm-8.22-2.08h6.06a2.79,2.79,0,0,0-3-3.11C1105.57,768.13,1104.46,769.39,1104.23,771.24Z"/><path class="h" d="M1121,775.09a7.48,7.48,0,0,1-2.21-.3,1,1,0,0,0-.41.79c0,.57.31.95,1,1.08l3.67.59c1.67.29,3.8,1.16,3.8,3.6,0,2.8-2.56,4.06-5.93,4.06-3.78,0-5.83-1.34-5.83-3.65a3.57,3.57,0,0,1,1.74-3,2.27,2.27,0,0,1-1-2,2.92,2.92,0,0,1,1.34-2.26,4.29,4.29,0,0,1-1.54-3.47c0-2.87,2.13-4.6,5.34-4.6a7,7,0,0,1,2.57.47l4.09-1-.52,2.49h-1.57a4.58,4.58,0,0,1,.78,2.62C1126.36,773.37,1124.22,775.09,1121,775.09Zm-3.44,5.71c0,1.16,1,1.87,3.39,1.87s3.21-.77,3.21-1.77-.69-1.28-2.08-1.51l-3.32-.52A2.22,2.22,0,0,0,1117.57,780.8Zm.69-10.31c0,1.39.9,2.42,2.75,2.42s2.75-1,2.75-2.42-.9-2.41-2.75-2.41S1118.26,769.11,1118.26,770.49Z"/><path class="h" d="M1138.1,766.15h2.67v13.11h-1.9l-.51-1.39h-.11a5.07,5.07,0,0,1-3.88,1.64c-2.8,0-4.52-1.64-4.52-5.34v-8h2.67v8c0,2.16,1,3.11,2.5,3.11a4.41,4.41,0,0,0,3.08-1.83Z"/><path class="h" d="M1150.28,779.13a5.8,5.8,0,0,1-2.18.38c-2.19,0-3.34-1.13-3.34-3.64V760.5l2.67-.52v15.89c0,1,.38,1.41,1.1,1.41a3.53,3.53,0,0,0,1.34-.26Z"/><path class="h" d="M1159.3,771.55v-.88c0-1.56-.67-2.54-2.6-2.54a10.49,10.49,0,0,0-3.54.69l-.77-2.08a12.92,12.92,0,0,1,4.62-.85c4,0,5,2.11,5,4.83v5.5a.83.83,0,0,0,.93.93h.28v2a4.86,4.86,0,0,1-1.54.26,2,2,0,0,1-2.08-1.52h-.11a4.79,4.79,0,0,1-3.7,1.52c-2.49,0-4.06-1.24-4.06-3.91,0-2.49,2.06-3.93,5-3.93Zm-2.75,2.08a2,2,0,0,0-2.21,1.9,1.72,1.72,0,0,0,1.93,1.75,3.8,3.8,0,0,0,3-1.62v-2Z"/><path class="h" d="M1172.66,768.64a3.2,3.2,0,0,0-1.36-.25c-1.39,0-2.39,1.41-2.62,3v7.84H1166V766.15h1.9l.51,2h.1a3.43,3.43,0,0,1,3.34-2.29,6,6,0,0,1,1.68.26Z"/><path class="h" d="M977.85,797l5.66-7.71h2.56l-6.14,8.5,6.68,9.49-2.51.25-6.25-8.58h-2v8.33h-2.26v-18h2.26V797Z"/><path class="h" d="M990.16,801.32c.21,2.85,1.54,4.47,4.14,4.47a6.91,6.91,0,0,0,3.36-.92l.75,1.54a8.93,8.93,0,0,1-4.37,1.1c-3.65,0-6.14-2.51-6.14-6.81,0-4.06,2.08-6.81,5.78-6.81,3.52,0,5.27,2.06,5.27,5.27a11.36,11.36,0,0,1-.23,2.16Zm0-1.57h6.76a5.72,5.72,0,0,0,0-.59c0-2-1.07-3.54-3.21-3.54S990.29,797.31,990.16,799.75Z"/><path class="h" d="M1010.46,794.15l-.51,1.72h-5.24v11.39h-2.16V794.15Z"/><path class="h" d="M1022.59,794.15v13.11h-2.16V795.87h-4.06V797c0,7-1.15,10.44-3.93,10.44a3.6,3.6,0,0,1-1.72-.47l.62-1.67a1.65,1.65,0,0,0,1,.31c1.36,0,2-2.54,2-9.22v-2.19Z"/><path class="h" d="M1031.94,798.93c2.83,0,4.68,1.54,4.68,4.19s-1.85,4.14-4.68,4.14h-5V794.15h2.16v4.78Zm-2.82,1.72v4.89h2.57c1.67,0,2.72-.9,2.72-2.45s-1.05-2.44-2.72-2.44Z"/><path class="h" d="M1053,789.27v16h4.29v2H1046v-2h4.83V791.22h-4.44l.51-2Z"/><path class="h" d="M1063.06,797.52a4.76,4.76,0,0,1,3.47-1.44c2.91,0,5,2.08,5,5.7a5.36,5.36,0,0,1-5.73,5.73c-3.62,0-5.7-2.72-5.7-6.75a12.4,12.4,0,0,1,9.14-11.75l.75,1.57a10.84,10.84,0,0,0-7,6.89Zm2.78,8c2.05,0,3.44-1.31,3.44-3.78s-1.39-3.75-3.44-3.75a3.94,3.94,0,0,0-3.49,2.73C1062.35,803.63,1063.53,805.56,1065.84,805.56Z"/><path class="h" d="M1079.84,791a7.93,7.93,0,0,0-3.93,1.28l-1-1.72a10.13,10.13,0,0,1,5.37-1.52c3.16,0,4.86,1.8,4.86,4.94,0,4.31-4.24,8.78-7.32,11.25v.1h7.83l-.51,2h-10.54v-1.7c3.63-2.83,8.25-7.42,8.25-11.41C1082.9,792.12,1082,791,1079.84,791Z"/><path class="h" d="M1106.29,807.26h-2.16V795.87h-5.73v11.39h-2.16V794.15h10Z"/><path class="h" d="M1109.11,794.15H1120l-.52,1.72h-3.9v11.39h-2.14V795.87h-4.29Z"/><rect class="g" x="78.95" y="43.29" width="85.04" height="907.63"/></svg>