<svg xmlns="http://www.w3.org/2000/svg" xmlns:xlink="http://www.w3.org/1999/xlink" viewBox="0 0 4856.52 1041.9"><defs><style>.a{fill:#fff;}.b{fill:url(#a);}.c,.h,.i,.k{fill:#38a032;}.c{opacity:0.17;}.d{fill:#222c54;}.e{opacity:0.5;}.f{fill:url(#b);}.g,.j{fill:#0bbbef;}.i{opacity:0.8;}.j,.k{opacity:0.3;}</style><linearGradient id="a" x1="1796.15" y1="56.05" x2="1796.15" y2="963.13" gradientUnits="userSpaceOnUse"><stop offset="0" stop-color="#f2f2f2"/><stop offset="0.01" stop-color="#f1f1f1"/><stop offset="0.23" stop-color="#e4e4e4"/><stop offset="0.51" stop-color="#dbdbdb"/><stop offset="1" stop-color="#d9d9d9"/></linearGradient><linearGradient id="b" x1="3617.71" y1="509.8" x2="4850.78" y2="509.8" gradientUnits="userSpaceOnUse"><stop offset="0" stop-color="#fff" stop-opacity="0.7"/><stop offset="0.03" stop-color="#fff" stop-opacity="0.72"/><stop offset="0.34" stop-color="#fff" stop-opacity="0.87"/><stop offset="0.6" stop-color="#fff" stop-opacity="0.96"/><stop offset="0.75" stop-color="#fff"/></linearGradient></defs><rect class="a" x="95.37" y="56.05" width="3401.57" height="907.09" rx="70.87"/><rect class="b" x="95.37" y="56.05" width="3401.57" height="907.09" rx="70.87"/><rect class="c" x="238.52" y="197.78" width="3116.7" height="368.84"/><rect class="c" x="238.52" y="679.67" width="3116.7" height="170.08"/><path class="d" d="M328.78,827.39H303.27L268.76,723.87h-1L256.13,849.75H229.88l15.8-170.1H278l37.66,111.78h.73l37.66-111.78h32.32l15.8,170.1H375.92L364.26,723.87h-1Z"/><path class="d" d="M460.49,849.75V826.42h27.94V703H460.49V679.65h83.35L539,703h-24.3V826.42h27.94v23.33Z"/><path class="d" d="M713.2,730.19c0,26.25-14.58,42-35.23,47.63l44.47,71.93L694,852.18l-44.47-71.93H634.47v69.5H608.23V679.65H660C689.39,679.65,713.2,696.9,713.2,730.19ZM634.47,703v53.94h24.3c15.56,0,27.22-9.72,27.22-26.73S674.33,703,658.77,703Z"/><path class="d" d="M763.75,849.75l56.86-170.1h26l56.86,170.1H875.53l-12.15-39.61H803.6l-11.91,39.61ZM834.22,714.4H833l-22.6,73.14h46.17Z"/><path class="d" d="M1100.06,805.76c0-16.76-16.28-26-35-33.29-21.86-8.5-46.89-20.89-46.89-49.08,0-29.16,20.65-46.17,55.16-46.17,19.68,0,34.26,5.35,48.6,13.12L1109.53,711c-10.69-6.32-20.65-10.45-36.2-10.45-18.47,0-27.95,7.53-27.95,21.38s16.77,22.84,31.59,28.67c26.73,10.45,50.3,22.12,50.3,53.71,0,30.13-21.14,47.87-59.29,47.87-23.33,0-37.91-5.35-53.7-15.07l13.85-21.38c11.18,8.26,23.33,13.12,39.85,13.12C1086.94,828.85,1100.06,821.56,1100.06,805.76Z"/><path class="d" d="M1250.23,703V849.75H1224V703h-50.54V679.65H1301L1296.15,703Z"/><path class="d" d="M1461.88,730.19c0,26.25-14.58,42-35.24,47.63l44.47,71.93-28.43,2.43-44.47-71.93h-15.06v69.5H1356.9V679.65h51.76C1438.06,679.65,1461.88,696.9,1461.88,730.19ZM1383.15,703v53.94h24.3c15.55,0,27.21-9.72,27.21-26.73S1423,703,1407.45,703Z"/><path class="d" d="M1529.43,849.75V679.65h96.23L1620.8,703h-65.12v47.14h57.83v23.33h-57.83v53h70v23.33Z"/><path class="d" d="M1693.7,849.75V679.65h96.23L1785.07,703h-65.13v47.14h57.84v23.33h-57.84v53h70v23.33Z"/><path class="d" d="M1917.74,703V849.75H1891.5V703H1841V679.65h127.57L1963.67,703Z"/><path class="d" d="M421.51,198.08h71.54L384.17,487.38c-17.36,45.76-44.19,84.16-94.69,84.16-21.56,0-40-4.73-58.91-18.41l32.09-52.07c8.41,6.31,14.73,9.47,24.19,9.47,10.53,0,22.62-10,33.14-35.77l7.37-18.41h-21L192.7,198.08h76.8L350.5,388h1.58Z"/><path class="d" d="M563.53,198.08H779.72v368.2H712.39V259.1H628.23c0,190.41-25.25,309.81-107.83,309.81-15.78,0-30-3.68-37.87-7.36l12.62-57.86A50.45,50.45,0,0,0,512,506.84c35.25,0,51.55-72.58,51.55-294.56Z"/><path class="d" d="M917,496.85a37.35,37.35,0,1,1-37.35,37.35A37.49,37.49,0,0,1,917,496.85Z"/><path class="d" d="M1368.83,325.9h-1.58l-63.12,192h-68.9l-63.65-192H1170l-22.09,240.38h-67.33l34.19-368.2H1190l78.9,236.7h1.58l78.9-236.7h75.22l34.18,368.2h-67.32Z"/><path class="d" d="M1785.94,322.22h-1.57L1620.25,566.28H1564V198.08h67.33V442.67h1.58L1797,198.08h56.28v368.2h-67.33Z"/><path class="d" d="M2041.57,436.89V566.28h-67.33V198.08H2094.7c70,0,122.56,40.5,122.56,119.4s-52.6,119.41-122.56,119.41Zm0-177.79V375.87h52.08c32.08,0,53.65-21.57,53.65-58.39s-21.57-58.38-53.65-58.38Z"/><path class="d" d="M2463.43,485.8H2346.65l-24.19,80.48h-71l123.08-368.2h61.54l123.09,368.2h-71Zm-98.89-59.44h81l-39.45-133.6H2404Z"/><g class="e"><rect class="d" x="3638.97" y="56.26" width="1190.55" height="907.09" rx="70.87"/><path class="a" d="M4041.93,262c-30.4,0-59,10.33-85.73,26.75l-35.87-61.41c48.64-26.14,83.3-35.87,133.15-35.87,74.79,0,121,42.56,121,116.73,0,93.64-80.87,183-155,242v2.43h167.2l-12.16,70.53H3913V558.73c83.3-62.62,183-161.12,183-242.59C4096,282.7,4077.2,262,4041.93,262Z"/><path class="a" d="M4521,491.85c0,93.63-69.92,137.41-147.13,137.41-53.51,0-91.81-14-126.47-35.87l37.7-61.41c24.32,15.81,49.85,26.75,84.51,26.75,40.13,0,73-20.67,73-66.27,0-48-34.05-66.88-75.39-66.88h-34.66V381.2l85.12-110.66v-2.43H4261.42l12.16-70.53h228.61V262l-82.08,106.4v1.82C4473,380,4521,414.63,4521,491.85Z"/><path class="a" d="M3932.69,736.56v97.85h26.24V850H3886V834.41h29.65v-82.3h-27.22l3.24-15.55Z"/><path class="a" d="M4029.89,752.11h-55.73l3.24-15.55h70.47v13.93L4008.34,850h-18.47Z"/><path class="a" d="M4270,755.83l11.18-11.17,48.6,48.6-48.6,48.6L4270,830.68l29.32-28.84v-.48H4110.4v-16.2h188.89v-.49Z"/><path class="a" d="M4418.36,834.41h46.17L4461.29,850h-68V836c22.2-16.69,50.38-46.18,50.38-67.88,0-10.86-5.34-17.66-16.84-17.66-8.75,0-16.2,2.91-23.82,7.61l-7.77-13.61c13-7,21.38-9.55,34.66-9.55,19.93,0,31.43,11.34,31.43,31.1,0,25-23.16,52-42.93,67.72Z"/><path class="a" d="M4537.43,813.51c0-15.23-10.85-23.17-23.65-23.17a57.27,57.27,0,0,0-23.49,4.86V736.56h60.59l-3.24,15.55H4507.3v24.3a55.19,55.19,0,0,1,10-1c20.74,0,37.75,12.31,37.75,38.07,0,25-17.82,38.07-38.39,38.07-14.26,0-23.66-3.73-32.89-9.56l8.26-13.61c6.81,4.54,13.45,7.62,23.49,7.62C4527.39,836,4537.43,828.74,4537.43,813.51Z"/></g><rect class="f" x="3617.71" y="27.91" width="1233.07" height="963.78"/><path class="g" d="M159.1,19.4c0-3.76-2.68-5.72-5.84-5.72a14.14,14.14,0,0,0-5.8,1.2V.4h15l-.8,3.84h-10v6a13.67,13.67,0,0,1,2.48-.24c5.12,0,9.32,3,9.32,9.4,0,6.16-4.4,9.4-9.48,9.4a14,14,0,0,1-8.12-2.36l2-3.36A9.67,9.67,0,0,0,153.7,25C156.62,25,159.1,23.16,159.1,19.4Z"/><path class="g" d="M176.22,28.8c-6.16,0-9.8-4.92-9.8-14.4S170.06,0,176.22,0,186,4.92,186,14.4,182.38,28.8,176.22,28.8Zm0-3.84c3.2,0,5.44-3.12,5.44-10.56s-2.24-10.56-5.44-10.56S170.78,7,170.78,14.4,173,25,176.22,25Z"/><path class="g" d="M1767.86,1013.5v24.16h6.48v3.84h-18v-3.84h7.32v-20.32h-6.72l.8-3.84Z"/><path class="g" d="M1783.9,1037.66h11.4l-.8,3.84h-16.8v-3.44c5.48-4.12,12.44-11.4,12.44-16.76,0-2.68-1.32-4.36-4.16-4.36a10.9,10.9,0,0,0-5.88,1.88l-1.92-3.36a16,16,0,0,1,8.56-2.36c4.92,0,7.76,2.8,7.76,7.68,0,6.16-5.72,12.84-10.6,16.72Z"/><path class="g" d="M1808.06,1041.9c-6.16,0-9.8-4.92-9.8-14.4s3.64-14.4,9.8-14.4,9.8,4.92,9.8,14.4S1814.22,1041.9,1808.06,1041.9Zm0-3.84c3.2,0,5.44-3.12,5.44-10.56s-2.24-10.56-5.44-10.56-5.44,3.12-5.44,10.56S1804.86,1038.06,1808.06,1038.06Z"/><path class="g" d="M1829.62,1041.9c-6.16,0-9.8-4.92-9.8-14.4s3.64-14.4,9.8-14.4,9.8,4.92,9.8,14.4S1835.78,1041.9,1829.62,1041.9Zm0-3.84c3.2,0,5.44-3.12,5.44-10.56s-2.24-10.56-5.44-10.56-5.44,3.12-5.44,10.56S1826.42,1038.06,1829.62,1038.06Z"/><path class="g" d="M3551.69,513c0,6.16-4.4,9-9.48,9a14,14,0,0,1-8.12-2.36l2-3.36a9.67,9.67,0,0,0,5.8,1.88c3.08,0,5.4-1.6,5.4-5.16,0-3.72-2.4-5.2-5.56-5.2h-2.08v-2.16l6-8v-.16H3535l.8-3.84h14.63V497l-5.71,7.6v.12C3548.49,505.39,3551.69,507.55,3551.69,513Z"/><path class="g" d="M3562.25,517.75h11.4l-.8,3.84h-16.8v-3.44c5.48-4.12,12.44-11.4,12.44-16.76,0-2.68-1.32-4.36-4.16-4.36a10.9,10.9,0,0,0-5.88,1.88l-1.92-3.36a16,16,0,0,1,8.56-2.36c4.92,0,7.76,2.8,7.76,7.68,0,6.16-5.72,12.84-10.6,16.72Z"/><path class="g" d="M3586.41,522c-6.16,0-9.8-4.92-9.8-14.4s3.64-14.4,9.8-14.4,9.79,4.92,9.79,14.4S3592.56,522,3586.41,522Zm0-3.84c3.2,0,5.44-3.12,5.44-10.56s-2.24-10.56-5.44-10.56-5.44,3.12-5.44,10.56S3583.21,518.15,3586.41,518.15Z"/><path class="h" d="M1026.5,380.77c0-3.76-2.68-5.72-5.83-5.72a14.14,14.14,0,0,0-5.8,1.2V361.77h14.95l-.8,3.84h-9.95v6a13.65,13.65,0,0,1,2.47-.24c5.12,0,9.32,3,9.32,9.4,0,6.16-4.4,9.4-9.48,9.4a14,14,0,0,1-8.11-2.36l2-3.36a9.66,9.66,0,0,0,5.79,1.88C1024,386.33,1026.5,384.53,1026.5,380.77Z"/><path class="h" d="M1048.06,380.77c0-3.76-2.68-5.72-5.83-5.72a14.14,14.14,0,0,0-5.8,1.2V361.77h15l-.8,3.84h-9.95v6a13.65,13.65,0,0,1,2.47-.24c5.12,0,9.32,3,9.32,9.4,0,6.16-4.4,9.4-9.48,9.4a14,14,0,0,1-8.11-2.36l2-3.36a9.67,9.67,0,0,0,5.8,1.88C1045.58,386.33,1048.06,384.53,1048.06,380.77Z"/><path class="g" d="M34.72,132.09c0-3.76-2.68-5.72-5.84-5.72a14.14,14.14,0,0,0-5.8,1.2V113.09H38l-.8,3.84h-10v6a13.67,13.67,0,0,1,2.48-.24c5.12,0,9.32,3,9.32,9.4,0,6.15-4.4,9.39-9.48,9.39a14,14,0,0,1-8.12-2.36l2-3.35a9.67,9.67,0,0,0,5.8,1.88C32.24,137.65,34.72,135.85,34.72,132.09Z"/><path class="g" d="M51.84,141.48c-6.16,0-9.8-4.91-9.8-14.39s3.64-14.4,9.8-14.4,9.8,4.92,9.8,14.4S58,141.48,51.84,141.48Zm0-3.83c3.2,0,5.44-3.12,5.44-10.56S55,116.53,51.84,116.53s-5.44,3.12-5.44,10.56S48.64,137.65,51.84,137.65Z"/><path class="g" d="M35.32,609.45l-10,17.48v.16h6.36V622h4.2v5.08h4.6l-.8,3.8h-3.8v6.56h-4.2v-6.56H20.28v-3.4l10.32-18Z"/><path class="g" d="M51.84,637.85c-6.16,0-9.8-4.92-9.8-14.4s3.64-14.4,9.8-14.4,9.8,4.92,9.8,14.4S58,637.85,51.84,637.85Zm0-3.84c3.2,0,5.44-3.12,5.44-10.56S55,612.89,51.84,612.89,46.4,616,46.4,623.45,48.64,634,51.84,634Z"/><path class="g" d="M35.32,894.83l-10,17.48v.16h6.36v-5.08h4.2v5.08h4.6l-.8,3.8h-3.8v6.56h-4.2v-6.56H20.28v-3.4l10.32-18Z"/><path class="g" d="M51.84,923.23c-6.16,0-9.8-4.92-9.8-14.4s3.64-14.4,9.8-14.4,9.8,4.92,9.8,14.4S58,923.23,51.84,923.23Zm0-3.84c3.2,0,5.44-3.12,5.44-10.56S55,898.27,51.84,898.27s-5.44,3.12-5.44,10.56S48.64,919.39,51.84,919.39Z"/><path class="h" d="M26.36,762.73a7.32,7.32,0,0,1,5.08-1.92c4.52,0,8,2.92,8,8.8,0,5.72-3.92,9-9.12,9-5.64,0-9.08-4.24-9.08-10.52,0-9.68,6-15.88,14.32-18.28l1.48,3.2c-4.6,1.64-9.36,4.56-10.84,9.64Zm4,12c2.72,0,4.76-1.84,4.76-5.16s-2-5-4.76-5a5.36,5.36,0,0,0-4.84,3.44C25.52,772.09,27.28,774.77,30.36,774.77Z"/><path class="h" d="M51.84,778.61c-6.16,0-9.8-4.92-9.8-14.4s3.64-14.4,9.8-14.4,9.8,4.92,9.8,14.4S58,778.61,51.84,778.61Zm0-3.84c3.2,0,5.44-3.12,5.44-10.56S55,753.65,51.84,753.65s-5.44,3.12-5.44,10.56S48.64,774.77,51.84,774.77Z"/><path class="h" d="M11.64,361.77v24.16h6.48v3.84H.12v-3.84H7.44V365.61H.72l.8-3.84Z"/><path class="h" d="M38.68,381.13c0,6.16-4.4,9-9.48,9a14,14,0,0,1-8.12-2.36l2-3.36a9.67,9.67,0,0,0,5.8,1.88c3.08,0,5.4-1.6,5.4-5.16,0-3.72-2.4-5.2-5.56-5.2H26.68v-2.16l6-8v-.16H22l.8-3.84H37.44v3.44l-5.72,7.6v.12C35.48,373.57,38.68,375.73,38.68,381.13Z"/><path class="h" d="M51.84,390.17c-6.16,0-9.8-4.92-9.8-14.4s3.64-14.4,9.8-14.4,9.8,4.92,9.8,14.4S58,390.17,51.84,390.17Zm0-3.84c3.2,0,5.44-3.12,5.44-10.56S55,365.21,51.84,365.21s-5.44,3.12-5.44,10.56S48.64,386.33,51.84,386.33Z"/><path class="h" d="M2765.58,262.58v-5.22h5V236.3h-5v-5.22h15.89l-.9,5.22h-4.28v21.06h4.95v5.22Z"/><path class="h" d="M2786,245.66c0-3.82,3.11-6.48,8.15-6.48a18,18,0,0,1,7.47,1.58l-1.89,4.36a14.74,14.74,0,0,0-5.27-1.12c-2,0-2.88.72-2.88,1.84,0,1.4,1.35,2.07,3.65,2.84,3.37,1.12,6.93,2.88,6.93,7.42,0,4.19-3.51,6.93-8.69,6.93a17.66,17.66,0,0,1-8-1.66l1.93-4.5a14.56,14.56,0,0,0,5.85,1.35c1.94,0,3.29-.86,3.29-2.12,0-1.71-2.21-2.61-4.5-3.46C2789.39,251.65,2786,249.89,2786,245.66Z"/><path class="h" d="M2823.14,256.73l1.93,4.37a17.77,17.77,0,0,1-7.92,1.93c-6.75,0-11.38-4.41-11.38-11.92s4.05-11.93,10.53-11.93c6,0,9.72,3.74,9.72,10.17a30.36,30.36,0,0,1-.27,3.47h-14.31c.58,3.51,3,5.4,6,5.4A13.67,13.67,0,0,0,2823.14,256.73Zm-2.21-8.19a4.25,4.25,0,0,0-4.54-4.54c-2.39,0-4.32,1.57-4.86,4.54Z"/><path class="h" d="M2845.19,262.22a16.38,16.38,0,0,1-5,.81c-4.14,0-7.51-1.89-7.51-7.24V244.45h-4v-4.82h4v-6.21l5.58-.9v7.11h6.43l-.9,4.82h-5.53v11.34c0,1.8.72,2.43,2.47,2.43a13,13,0,0,0,3.51-.59Z"/><path class="h" d="M2868.81,248.68c-4-1.58-8.73-4.41-8.73-9.63,0-5.4,4.05-8.42,10.44-8.42a18.73,18.73,0,0,1,9.23,2.43l-2.75,4.59a12.06,12.06,0,0,0-6.48-1.8c-2.83,0-4.5,1-4.5,2.93,0,2.29,2.75,4,5.36,5,4.95,1.93,9.35,4.36,9.35,10.21,0,5.58-4.13,9-11.2,9a18,18,0,0,1-10.17-2.79l3.11-4.68a11.67,11.67,0,0,0,7.06,2.25c3,0,5.27-1.35,5.27-3.69C2874.8,251.29,2872.14,250,2868.81,248.68Z"/><path class="h" d="M2897.43,247.55c0-2.2-1.13-3.55-3.87-3.55a18.36,18.36,0,0,0-6.12,1.21l-1.67-4.5a23.06,23.06,0,0,1,8.33-1.53c7,0,8.91,3.69,8.91,8.46v8.73a1.45,1.45,0,0,0,1.62,1.62h.49v4.37a10.45,10.45,0,0,1-3.19.45,4.09,4.09,0,0,1-4-2.21h-.18a7.72,7.72,0,0,1-6,2.21c-4.36,0-7.11-2.16-7.11-6.84,0-4.41,3.51-6.89,8.59-6.89h4.28Zm0,8.42v-2.61h-4.1c-2.06,0-3.24,1-3.24,2.52a2.28,2.28,0,0,0,2.48,2.34A6.57,6.57,0,0,0,2897.43,256Z"/><path class="h" d="M2915.2,262.58h-5.58V239.63h4.23l.9,2h.18a8.86,8.86,0,0,1,6.08-2.43c4.81,0,7.51,3,7.51,9v14.35h-5.58V248.72c0-3.19-1.21-4.72-3.33-4.72a6.19,6.19,0,0,0-4.41,2.7Z"/><path class="h" d="M2933.74,245.66c0-3.82,3.11-6.48,8.15-6.48a18,18,0,0,1,7.47,1.58l-1.89,4.36a14.74,14.74,0,0,0-5.27-1.12c-2,0-2.88.72-2.88,1.84,0,1.4,1.35,2.07,3.65,2.84,3.37,1.12,6.93,2.88,6.93,7.42,0,4.19-3.51,6.93-8.69,6.93a17.66,17.66,0,0,1-8-1.66l1.93-4.5a14.56,14.56,0,0,0,5.85,1.35c1.94,0,3.29-.86,3.29-2.12,0-1.71-2.21-2.61-4.5-3.46C2937.12,251.65,2933.74,249.89,2933.74,245.66Z"/><path class="h" d="M2990.31,242h-.14l-5.4,16.42h-5.89L2973.43,242h-.13l-1.89,20.56h-5.76l2.92-31.5H2975l6.75,20.25h.13l6.75-20.25h6.44l2.92,31.5h-5.76Z"/><path class="h" d="M3019.87,256.73l1.94,4.37a17.84,17.84,0,0,1-7.92,1.93c-6.75,0-11.39-4.41-11.39-11.92s4.05-11.93,10.53-11.93c6,0,9.72,3.74,9.72,10.17a30.36,30.36,0,0,1-.27,3.47h-14.31c.59,3.51,3,5.4,6,5.4A13.59,13.59,0,0,0,3019.87,256.73Zm-2.2-8.19a4.25,4.25,0,0,0-4.55-4.54c-2.38,0-4.32,1.57-4.86,4.54Z"/><path class="h" d="M3042.15,260.6a8.53,8.53,0,0,1-5.94,2.43c-6.48,0-9.41-5-9.41-11.92s3-11.93,9.81-11.93a16,16,0,0,1,5.27.86V229.73l5.58-.9v33.75h-4.23l-.9-2Zm-9.68-9.49c0,4.18,1.71,7.11,5.09,7.11a6.06,6.06,0,0,0,4.32-2.25V245.21a8.79,8.79,0,0,0-4.5-1.21C3034.36,244,3032.47,246.61,3032.47,251.11Z"/><path class="h" d="M3051.73,244.45l.9-4.82h8.46v22.95h-5.58V244.45Zm6.57-14.72a3.25,3.25,0,0,1,3.33,3.24,3.21,3.21,0,0,1-3.33,3.2A3.17,3.17,0,0,1,3055,233,3.21,3.21,0,0,1,3058.3,229.73Z"/><path class="h" d="M3081,239.63h5.58v22.95h-4.23l-.9-2h-.18a9.65,9.65,0,0,1-6.39,2.43c-4.5,0-7.88-3-7.88-9.4v-14h5.58v14c0,3.19,1.58,4.59,3.69,4.59a6.79,6.79,0,0,0,4.73-2.7Z"/><path class="h" d="M3109.33,241.7a10.8,10.8,0,0,1,6.93-2.52c4.82,0,7.61,3,7.61,9v14.35h-5.58V248.72c0-3.19-1.22-4.72-3.33-4.72a5.82,5.82,0,0,0-3.78,1.93v16.65h-5.58V248.72c0-3.19-1.13-4.72-3.06-4.72-1.44,0-3.11,1.26-4.05,2.7v15.88h-5.58V239.63h4.23l.9,2h.18a8.15,8.15,0,0,1,5.76-2.43A6.74,6.74,0,0,1,3109.33,241.7Z"/><path class="i" d="M2774.76,294.58l9.9-13.5h4.5L2778.41,296l11.7,16.6-4.41.45-10.94-15h-3.42v14.58h-4v-31.5h4v13.5Z"/><path class="i" d="M2796.32,302.19c.36,5,2.7,7.83,7.24,7.83a12.23,12.23,0,0,0,5.9-1.62l1.3,2.7a15.58,15.58,0,0,1-7.65,1.93c-6.39,0-10.75-4.41-10.75-11.92,0-7.11,3.64-11.93,10.12-11.93,6.17,0,9.23,3.6,9.23,9.23a19.37,19.37,0,0,1-.41,3.78Zm0-2.75h11.83a7.11,7.11,0,0,0,0-1c0-3.6-1.89-6.21-5.63-6.21S2796.54,295.17,2796.32,299.44Z"/><path class="i" d="M2831.87,289.63l-.9,3h-9.18v19.93H2818V289.63Z"/><path class="i" d="M2853.11,289.63v22.95h-3.78V292.65h-7.11v1.89c0,12.24-2,18.27-6.89,18.27a6.34,6.34,0,0,1-3-.81l1.08-2.93a2.94,2.94,0,0,0,1.71.54c2.38,0,3.55-4.45,3.55-16.15v-3.83Z"/><path class="i" d="M2869.49,298c5,0,8.19,2.7,8.19,7.34s-3.24,7.24-8.19,7.24h-8.73V289.63h3.78V298Zm-4.95,3v8.55h4.5c2.92,0,4.77-1.58,4.77-4.28S2872,301,2869,301Z"/><path class="i" d="M2913.23,302.55c0,6.93-4.41,10.48-10.31,10.48a15.3,15.3,0,0,1-9-2.65l1.8-3a11.49,11.49,0,0,0,6.93,2.25c3.78,0,6.61-2.34,6.61-7.06s-3.06-7.07-7.11-7.07a21.63,21.63,0,0,0-6.43,1.17V281.08h16.38l-.9,3.42H2899.5v8.1a16.9,16.9,0,0,1,3.6-.36C2909,292.24,2913.23,295.8,2913.23,302.55Z"/><path class="i" d="M2928.17,284.05a13.86,13.86,0,0,0-6.89,2.25l-1.66-3c3.51-1.85,5.71-2.66,9.4-2.66,5.54,0,8.5,3.15,8.5,8.64,0,7.56-7.42,15.39-12.82,19.71v.18h13.72l-.9,3.42h-18.44v-3c6.34-4.95,14.44-13,14.44-20C2933.52,286.08,2932,284.05,2928.17,284.05Z"/><path class="i" d="M2949.18,295.53a8.28,8.28,0,0,1,6.08-2.52c5.08,0,8.82,3.64,8.82,10s-4.19,10-10,10c-6.34,0-10-4.77-10-11.83,0-9.68,6.8-17.91,16-20.57l1.31,2.75c-5.4,1.93-10.58,6-12.33,12.06Zm4.86,14.08c3.6,0,6-2.29,6-6.61s-2.43-6.57-6-6.57c-2.7,0-5,2-6.12,4.77C2947.92,306.24,2950,309.61,2954,309.61Z"/><path class="i" d="M2999.67,312.58h-3.78V292.65h-10v19.93h-3.77V289.63h17.59Z"/><path class="i" d="M3004.62,289.63h19l-.9,3h-6.84v19.93h-3.74V292.65h-7.51Z"/><path class="i" d="M2777.78,334.5v28.08h-4V334.5h-9.59v-3.42h23.18l-.9,3.42Z"/><path class="i" d="M2791.19,361.41v10.17l-3.78.9V339.63h2.43l.9,2.88h.18a9.07,9.07,0,0,1,7.2-3.33c5.89,0,9,4.86,9,11.93,0,6.84-2.83,11.92-9.67,11.92A12.05,12.05,0,0,1,2791.19,361.41Zm12.1-10.3c0-5.27-2.2-8.91-6.34-8.91-2.12,0-4.19,1.39-5.76,3.42V358A9.42,9.42,0,0,0,2797,360C2801.09,360,2803.29,356.78,2803.29,351.11Z"/><path class="i" d="M2816.07,352.19c.36,5,2.7,7.83,7.25,7.83a12.16,12.16,0,0,0,5.89-1.62l1.31,2.7a15.64,15.64,0,0,1-7.65,1.93c-6.39,0-10.76-4.41-10.76-11.92,0-7.11,3.65-11.93,10.13-11.93,6.16,0,9.22,3.6,9.22,9.23a19.31,19.31,0,0,1-.4,3.78Zm0-2.75h11.84a8.87,8.87,0,0,0,0-1c0-3.6-1.89-6.21-5.62-6.21S2816.3,345.17,2816.07,349.44Z"/><path class="i" d="M2841.54,352.28v10.3h-3.78V339.63h3.78v9.63h3.24l6.62-9.63h4l-7.61,11.07,8.06,11.88L2852,363l-7.29-10.75Z"/><path class="i" d="M2860.4,362.58V339.63h3.78v16.52h.18l11.92-16.52h3.29v22.95h-3.78V346h-.18l-11.93,16.6Z"/><path class="i" d="M2905.17,362.58h-3.78v-10.3H2891v10.3h-3.78V339.63H2891v9.63h10.39v-9.63h3.78Z"/><path class="i" d="M2926.68,339.63l-.9,3h-9.18v19.93h-3.78V339.63Z"/><path class="i" d="M2946.66,345.53a8.26,8.26,0,0,1,6.07-2.52c5.09,0,8.82,3.64,8.82,10s-4.18,10-10,10c-6.35,0-10-4.77-10-11.83,0-9.68,6.79-17.91,16-20.57l1.3,2.75c-5.4,1.93-10.57,6-12.33,12.06Zm4.86,14.08c3.6,0,6-2.29,6-6.61s-2.43-6.57-6-6.57c-2.7,0-5,2-6.12,4.77C2945.4,356.24,2947.47,359.61,2951.52,359.61Z"/><path class="i" d="M2976.63,363c-6.93,0-10.8-5.53-10.8-16.2s3.87-16.2,10.8-16.2,10.8,5.54,10.8,16.2S2983.56,363,2976.63,363Zm0-3.42c4.14,0,6.79-3.78,6.79-12.78s-2.65-12.78-6.79-12.78-6.8,3.78-6.8,12.78S2972.49,359.61,2976.63,359.61Z"/><path class="h" d="M2765.81,728.73v-4.32H2771V701.55h-5.17v-4.32h15.43l-.9,4.32h-4.5v22.86H2781v4.32Z"/><path class="h" d="M2794.83,715.09c3.33.95,7.11,2.93,7.11,7.16s-3.28,6.93-8.46,6.93a19.16,19.16,0,0,1-7.74-1.58l1.58-3.69a14.74,14.74,0,0,0,6,1.35c2.65,0,3.91-1.08,3.91-2.79,0-2.34-2.29-3.15-4.86-3.91-2.74-.81-6.16-2.57-6.16-7,0-4,3.19-6.21,8-6.21a17,17,0,0,1,7.15,1.57l-1.53,3.51a14.71,14.71,0,0,0-5.31-1.17c-2.47,0-3.64,1-3.64,2.52C2790.92,713.7,2792.36,714.37,2794.83,715.09Z"/><path class="h" d="M2825.39,718.33h-14.58c.31,4.46,2.65,6.93,6.79,6.93a12.84,12.84,0,0,0,5.72-1.57l1.53,3.55a16.74,16.74,0,0,1-7.7,1.94c-6.75,0-11.16-4.41-11.16-11.93s4.14-11.92,10.35-11.92,9.45,3.6,9.45,9.22A19.31,19.31,0,0,1,2825.39,718.33Zm-14.4-3.64h10.62c0-3.15-1.71-5.45-5.18-5.45C2813.33,709.24,2811.39,711.45,2811,714.69Z"/><path class="h" d="M2845,728.37a15.72,15.72,0,0,1-4.9.81c-4.14,0-7.2-1.89-7.2-7.25V709.69h-3.92v-3.91h3.92v-6.21l4.68-.9v7.11h6.93l-.9,3.91h-6v12.47c0,2.29,1.3,3.1,3.06,3.1a12.59,12.59,0,0,0,3.69-.63Z"/><path class="h" d="M2875.47,720.58c0-3.1-3-4.81-6.48-6.16-4-1.58-8.68-3.87-8.68-9.09,0-5.4,3.82-8.55,10.21-8.55a17.82,17.82,0,0,1,9,2.43l-2.29,3.82a12.05,12.05,0,0,0-6.71-1.93c-3.42,0-5.17,1.39-5.17,4s3.1,4.23,5.85,5.31c5,1.93,9.31,4.09,9.31,9.94,0,5.58-3.91,8.87-11,8.87a17.16,17.16,0,0,1-9.94-2.79l2.56-4a11.72,11.72,0,0,0,7.38,2.43C2873,724.86,2875.47,723.51,2875.47,720.58Z"/><path class="h" d="M2898.1,715.23V713.7c0-2.75-1.17-4.46-4.54-4.46a18,18,0,0,0-6.21,1.22l-1.35-3.65a22.45,22.45,0,0,1,8.1-1.48c7,0,8.68,3.69,8.68,8.46v9.63a1.45,1.45,0,0,0,1.62,1.62h.5v3.46a8.29,8.29,0,0,1-2.7.45,3.56,3.56,0,0,1-3.65-2.65h-.18a8.38,8.38,0,0,1-6.47,2.65c-4.37,0-7.11-2.16-7.11-6.84,0-4.36,3.6-6.88,8.68-6.88Zm-4.81,3.64c-2.25,0-3.87,1.26-3.87,3.33s1.53,3.06,3.37,3.06a6.67,6.67,0,0,0,5.31-2.83v-3.56Z"/><path class="h" d="M2914.53,728.73h-4.68v-23h3.33l.9,2.43h.18a8.26,8.26,0,0,1,6.48-2.88c5.13,0,7.56,3,7.56,9v14.36h-4.68v-14c0-3.78-1.31-5.45-4-5.45-1.8,0-3.87,1.49-5.08,3.2Z"/><path class="h" d="M2942.56,715.09c3.33.95,7.11,2.93,7.11,7.16s-3.28,6.93-8.46,6.93a19.16,19.16,0,0,1-7.74-1.58l1.58-3.69a14.74,14.74,0,0,0,6,1.35c2.65,0,3.91-1.08,3.91-2.79,0-2.34-2.29-3.15-4.86-3.91-2.74-.81-6.16-2.57-6.16-7,0-4,3.19-6.21,8-6.21a17,17,0,0,1,7.15,1.57l-1.53,3.51a14.71,14.71,0,0,0-5.31-1.17c-2.47,0-3.64,1-3.64,2.52C2938.65,713.7,2940.09,714.37,2942.56,715.09Z"/><path class="h" d="M2986.66,706.59c0,4.86-2.7,7.78-6.52,8.82l8.23,13.32-5.26.45-8.24-13.32h-2.79v12.87h-4.86v-31.5h9.59C2982.25,697.23,2986.66,700.42,2986.66,706.59Zm-14.58-5v10h4.5a4.7,4.7,0,0,0,5-4.95,4.77,4.77,0,0,0-5-5Z"/><path class="h" d="M3010.47,718.33h-14.58c.31,4.46,2.65,6.93,6.79,6.93a12.84,12.84,0,0,0,5.72-1.57l1.53,3.55a16.74,16.74,0,0,1-7.7,1.94c-6.75,0-11.16-4.41-11.16-11.93s4.14-11.92,10.35-11.92,9.45,3.6,9.45,9.22A19.31,19.31,0,0,1,3010.47,718.33Zm-14.4-3.64h10.62c0-3.15-1.71-5.45-5.18-5.45C2998.41,709.24,2996.47,711.45,2996.07,714.69Z"/><path class="h" d="M3025.45,721.44a12.79,12.79,0,0,1-3.87-.54,1.86,1.86,0,0,0-.72,1.39c0,1,.54,1.67,1.8,1.89l6.44,1c2.92.49,6.66,2,6.66,6.3,0,4.9-4.5,7.11-10.4,7.11-6.61,0-10.21-2.34-10.21-6.39a6.26,6.26,0,0,1,3.06-5.31,3.94,3.94,0,0,1-1.76-3.51,5.09,5.09,0,0,1,2.34-4,7.55,7.55,0,0,1-2.7-6.08c0-5,3.74-8,9.36-8a12.41,12.41,0,0,1,4.5.81l7.16-1.71-.9,4.36h-2.75a8,8,0,0,1,1.35,4.59C3034.81,718.42,3031.08,721.44,3025.45,721.44Zm-6,10c0,2,1.8,3.28,5.94,3.28s5.63-1.35,5.63-3.1c0-1.49-1.22-2.25-3.65-2.66l-5.8-.9A3.88,3.88,0,0,0,3019.42,731.43Zm1.22-18c0,2.43,1.57,4.23,4.81,4.23s4.82-1.8,4.82-4.23-1.58-4.23-4.82-4.23S3020.64,711,3020.64,713.38Z"/><path class="h" d="M3055.38,705.78h4.68v23h-3.33l-.9-2.43h-.18a9,9,0,0,1-6.8,2.88c-4.9,0-7.92-2.88-7.92-9.36v-14h4.68v14c0,3.78,1.67,5.44,4.37,5.44,1.8,0,4.18-1.48,5.4-3.19Z"/><path class="h" d="M3076.71,728.5a10.28,10.28,0,0,1-3.83.68c-3.82,0-5.85-2-5.85-6.39V695.88l4.68-.9v27.81c0,1.71.68,2.47,1.94,2.47a6.25,6.25,0,0,0,2.34-.45Z"/><path class="h" d="M3092.5,715.23V713.7c0-2.75-1.17-4.46-4.54-4.46a18,18,0,0,0-6.21,1.22l-1.35-3.65a22.45,22.45,0,0,1,8.1-1.48c7,0,8.68,3.69,8.68,8.46v9.63a1.45,1.45,0,0,0,1.62,1.62h.5v3.46a8.29,8.29,0,0,1-2.7.45,3.56,3.56,0,0,1-3.65-2.65h-.18a8.39,8.39,0,0,1-6.48,2.65c-4.36,0-7.11-2.16-7.11-6.84,0-4.36,3.6-6.88,8.69-6.88Zm-4.81,3.64c-2.25,0-3.87,1.26-3.87,3.33s1.53,3.06,3.37,3.06a6.67,6.67,0,0,0,5.31-2.83v-3.56Z"/><path class="h" d="M3115.9,710.14a5.46,5.46,0,0,0-2.38-.45c-2.43,0-4.19,2.48-4.59,5.31v13.73h-4.68v-23h3.33l.9,3.55h.18c1.12-2.34,2.65-4,5.85-4a10.14,10.14,0,0,1,2.92.45Z"/><path class="i" d="M2774.76,760.73l9.9-13.5h4.5l-10.75,14.89,11.7,16.61-4.41.45-10.94-15h-3.42v14.58h-4v-31.5h4v13.5Z"/><path class="i" d="M2796.32,768.33c.36,5,2.7,7.83,7.24,7.83a12.12,12.12,0,0,0,5.9-1.62l1.3,2.7a15.48,15.48,0,0,1-7.65,1.94c-6.39,0-10.75-4.41-10.75-11.93,0-7.11,3.64-11.92,10.12-11.92,6.17,0,9.23,3.6,9.23,9.22a19.37,19.37,0,0,1-.41,3.78Zm0-2.74h11.83a7.25,7.25,0,0,0,0-1c0-3.6-1.89-6.21-5.63-6.21S2796.54,761.31,2796.32,765.59Z"/><path class="i" d="M2831.87,755.78l-.9,3h-9.18v19.94H2818v-23Z"/><path class="i" d="M2853.11,755.78v23h-3.78V758.79h-7.11v1.89c0,12.24-2,18.27-6.89,18.27a6.34,6.34,0,0,1-3-.81l1.08-2.92a2.94,2.94,0,0,0,1.71.54c2.38,0,3.55-4.46,3.55-16.16v-3.82Z"/><path class="i" d="M2869.49,764.15c5,0,8.19,2.7,8.19,7.33s-3.24,7.25-8.19,7.25h-8.73v-23h3.78v8.37Zm-4.95,3v8.55h4.5c2.92,0,4.77-1.57,4.77-4.27s-1.85-4.28-4.77-4.28Z"/><path class="i" d="M2903,750.2a13.86,13.86,0,0,0-6.89,2.25l-1.66-3c3.51-1.84,5.71-2.65,9.4-2.65,5.54,0,8.51,3.15,8.51,8.64,0,7.56-7.43,15.39-12.83,19.71v.18h13.73l-.9,3.42h-18.45v-3c6.34-5,14.44-13,14.44-20C2908.32,752.22,2906.79,750.2,2903,750.2Z"/><path class="i" d="M2934,747.23l-11.47,20.11v.18h8.28v-6.16h3.82v6.16h5.4l-.9,3.38h-4.5v7.83h-3.82V770.9h-13.05V768l11.83-20.74Z"/><path class="i" d="M2952.74,779.18a15.05,15.05,0,0,1-8.91-2.66l1.84-3a10.88,10.88,0,0,0,6.75,2.25c4,0,6.75-2.07,6.75-6.71,0-4.81-2.83-6.75-6.93-6.75h-1.35v-1.57l6.71-9.9v-.18h-12.74l.9-3.42h16v3l-6.34,9.4v.18c4.32.59,7.74,3.51,7.74,9.27C2963.18,776,2958.45,779.18,2952.74,779.18Z"/><path class="i" d="M2999.67,778.73h-3.78V758.79h-10v19.94h-3.77v-23h17.59Z"/><path class="i" d="M3004.62,755.78h19l-.9,3h-6.84v19.94h-3.74V758.79h-7.51Z"/><path class="i" d="M2777.78,800.65v28.08h-4V800.65h-9.59v-3.42h23.18l-.9,3.42Z"/><path class="i" d="M2791.19,827.56v10.17l-3.78.9V805.78h2.43l.9,2.88h.18a9.07,9.07,0,0,1,7.2-3.33c5.89,0,9,4.86,9,11.92,0,6.84-2.83,11.93-9.67,11.93A12.15,12.15,0,0,1,2791.19,827.56Zm12.1-10.31c0-5.26-2.2-8.91-6.34-8.91-2.12,0-4.19,1.4-5.76,3.42v12.33a9.36,9.36,0,0,0,5.76,2.07C2801.09,826.16,2803.29,822.92,2803.29,817.25Z"/><path class="i" d="M2816.07,818.33c.36,5,2.7,7.83,7.25,7.83a12,12,0,0,0,5.89-1.62l1.31,2.7a15.53,15.53,0,0,1-7.65,1.94c-6.39,0-10.76-4.41-10.76-11.93,0-7.11,3.65-11.92,10.13-11.92,6.16,0,9.22,3.6,9.22,9.22a19.31,19.31,0,0,1-.4,3.78Zm0-2.74h11.84a9,9,0,0,0,0-1c0-3.6-1.89-6.21-5.62-6.21S2816.3,811.31,2816.07,815.59Z"/><path class="i" d="M2841.54,818.42v10.31h-3.78v-23h3.78v9.63h3.24l6.62-9.63h4l-7.61,11.07,8.06,11.88-3.87.45-7.29-10.76Z"/><path class="i" d="M2860.4,828.73v-23h3.78v16.51h.18l11.92-16.51h3.29v23h-3.78V812.12h-.18l-11.93,16.61Z"/><path class="i" d="M2905.17,828.73h-3.78V818.42H2891v10.31h-3.78v-23H2891v9.63h10.39v-9.63h3.78Z"/><path class="i" d="M2926.68,805.78l-.9,3h-9.18v19.94h-3.78v-23Z"/><path class="i" d="M2954.26,797.23v28.08h7.52v3.42H2942v-3.42h8.46V800.65h-7.79l.9-3.42Z"/><path class="i" d="M2976,800.2a13.86,13.86,0,0,0-6.88,2.25l-1.66-3c3.5-1.84,5.71-2.65,9.4-2.65,5.53,0,8.5,3.15,8.5,8.64,0,7.56-7.42,15.39-12.82,19.71v.18h13.72l-.9,3.42H2967v-3c6.34-5,14.44-13,14.44-20C2981.4,802.22,2979.87,800.2,2976,800.2Z"/><path class="i" d="M3001.83,829.18c-6.93,0-10.8-5.54-10.8-16.2s3.87-16.2,10.8-16.2,10.8,5.53,10.8,16.2S3008.76,829.18,3001.83,829.18Zm0-3.42c4.14,0,6.79-3.78,6.79-12.78s-2.65-12.78-6.79-12.78S2995,804,2995,813,2997.69,825.76,3001.83,825.76Z"/><rect class="j" x="96.78" y="56.05" width="141.73" height="907.09"/><path class="g" d="M3417.53,19.4c0-3.76-2.68-5.72-5.84-5.72a14.14,14.14,0,0,0-5.8,1.2V.4h15l-.8,3.84h-10v6a13.67,13.67,0,0,1,2.48-.24c5.12,0,9.32,3,9.32,9.4,0,6.16-4.4,9.4-9.48,9.4a14,14,0,0,1-8.12-2.36l2-3.36a9.67,9.67,0,0,0,5.8,1.88C3415.05,25,3417.53,23.16,3417.53,19.4Z"/><path class="g" d="M3434.65,28.8c-6.16,0-9.8-4.92-9.8-14.4s3.64-14.4,9.8-14.4,9.8,4.92,9.8,14.4S3440.81,28.8,3434.65,28.8Zm0-3.84c3.2,0,5.44-3.12,5.44-10.56s-2.24-10.56-5.44-10.56-5.44,3.12-5.44,10.56S3431.45,25,3434.65,25Z"/><rect class="j" x="3355.21" y="56.05" width="141.73" height="907.09"/><rect class="k" x="96.78" y="197.78" width="141.73" height="368.5"/><rect class="k" x="955.27" y="197.78" width="155.91" height="368.5"/><rect class="k" x="96.78" y="679.67" width="141.73" height="170.08"/></svg>