<svg xmlns="http://www.w3.org/2000/svg" xmlns:xlink="http://www.w3.org/1999/xlink" viewBox="0 0 2137.16 1482.2"><defs><style>.a{fill:#edf1f4;}.b{fill:none;stroke:#edf1f4;stroke-miterlimit:10;stroke-width:86.82px;}.c{fill:#fff;}.d,.g{fill:#d7dde2;}.e{fill:#1c2843;}.f{fill:#a6b4bb;}.g{fill-rule:evenodd;}.h{fill:url(#a);}</style><linearGradient id="a" x1="1068.58" y1="862.14" x2="1068.58" y2="1315.69" gradientUnits="userSpaceOnUse"><stop offset="0" stop-color="#222c54"/><stop offset="0.76" stop-color="#1e2649"/><stop offset="1" stop-color="#1c2344"/></linearGradient></defs><rect class="a" y="731.33" width="2137.16" height="77.49"/><rect class="a" x="1001.26" y="118.69" width="1050.34" height="820.76" transform="translate(997.36 2055.5) rotate(-90)"/><line class="b" x1="1850.62" y1="3.9" x2="1850.62" y2="1090.72"/><path class="c" d="M1099.4,16.65h723a0,0,0,0,1,0,0V685.26a23.06,23.06,0,0,1-23.06,23.06H1122.46a23.06,23.06,0,0,1-23.06-23.06V16.65A0,0,0,0,1,1099.4,16.65Z" transform="translate(1098.4 1823.37) rotate(-90)"/><path class="c" d="M1921.75,0h194.47a20.94,20.94,0,0,1,20.94,20.94v670a34.45,34.45,0,0,1-34.45,34.45H1935.26a34.45,34.45,0,0,1-34.45-34.45v-670A20.94,20.94,0,0,1,1921.75,0Z"/><rect class="c" x="1485.31" y="438.86" width="282.6" height="1021.11" transform="translate(677.19 2576.02) rotate(-90)"/><path class="d" d="M1451.93,571.21h305.26a8.43,8.43,0,0,1,8.43,8.43V635.6a8.43,8.43,0,0,1-8.43,8.43H1451.86a8.43,8.43,0,0,1-8.43-8.43V579.72A8.5,8.5,0,0,1,1451.93,571.21Z"/><path class="d" d="M1158.46,446.52h305.33a8.43,8.43,0,0,1,8.43,8.43v55.95a8.43,8.43,0,0,1-8.43,8.43H1158.53a8.5,8.5,0,0,1-8.5-8.5V455A8.43,8.43,0,0,1,1158.46,446.52Z" transform="translate(1794.05 -828.18) rotate(90)"/><path class="d" d="M1391-27.14h80.55a9.87,9.87,0,0,1,9.87,9.87v384a9.87,9.87,0,0,1-9.87,9.87h-81.92a8.5,8.5,0,0,1-8.5-8.5V-17.27A9.87,9.87,0,0,1,1391-27.14Z" transform="translate(1256.51 1606.02) rotate(-90)"/><rect class="d" x="551.99" y="424.62" width="177.63" height="177.63" rx="8.5"/><path class="d" d="M227.66,349.82H388.29a8.5,8.5,0,0,1,8.5,8.5V668.54a8.51,8.51,0,0,1-8.51,8.51H227.66a8.5,8.5,0,0,1-8.5-8.5V358.32A8.5,8.5,0,0,1,227.66,349.82Z" transform="translate(821.41 205.46) rotate(90)"/><path class="e" d="M1690.8,67.1h63a11.46,11.46,0,0,1,11.46,11.46V480.83a11.46,11.46,0,0,1-11.46,11.46h-60a11.46,11.46,0,0,1-11.46-11.46V75.61A8.5,8.5,0,0,1,1690.8,67.1Z"/><path class="f" d="M1871.47,403.53a7.08,7.08,0,0,0,.62-2.65c0-1.11-.52-2.36-2.83-3l-3.55-1.06v1.79l-24.48,8.63v-5.5l18.77-6.36v-.2l-18.77-5.69v-5.4l29.18,9.46c4.71,1.54,5.86,4.43,5.86,7.08a11.19,11.19,0,0,1-.91,4.25Z"/><path class="f" d="M1861.1,382.9a3,3,0,0,0,.48-1.64c0-2.27-4.66-3.52-16.27-3.52h-4.08V361.3h24.48v5H1845.4V373h1.06c13.06,0,19.49,2.36,19.49,7.9a5.42,5.42,0,0,1-.87,3.19Z"/><path class="f" d="M1859.85,351.85A3.17,3.17,0,1,1,1863,355,3.2,3.2,0,0,1,1859.85,351.85Z"/><path class="f" d="M1844.44,325.6,1832.11,319v-6.17l16.17,9.45,17.43-10.41.48,5.93-13.83,7.81v.19l13.35,7.57v6.17l-17.43-10.41-16.17,9.45V332.4l12.33-6.61Z"/><path class="f" d="M1853.47,309.69c-8,0-12.72-4.49-12.72-11.33S1845.5,287,1853.47,287s12.72,4.48,12.72,11.33S1861.44,309.69,1853.47,309.69Zm0-5.11c5.37,0,8.54-2.46,8.54-6.22s-3.17-6.22-8.54-6.22-8.55,2.46-8.55,6.22S1848.09,304.58,1853.47,304.58Z"/><path class="f" d="M1856.78,273.09v.15l8.93,5.83v5.55l-12.58-8.54-11.9,8.06v-5.6l8.49-5.3v-.15l-8.49-5.25V262.2l11.9,8,12.58-8.49.48,5.21Z"/><path class="f" d="M1875.31,251.88l1,5h-35v-3.57l2.59-1v-.19a8.74,8.74,0,0,1-3.07-7c0-6.94,5.42-9.93,12.72-9.93s12.72,3,12.72,10.36a14.49,14.49,0,0,1-1.3,6.27Zm-21.84-11.52c-5,0-8.55,2-8.55,6.26,0,2,1.2,3.77,3,5.26h12.33a9,9,0,0,0,1.73-5.45C1862,242.62,1858.89,240.36,1853.47,240.36Z"/><path class="f" d="M1856.16,225.22c-1.16,2.89-3.65,4.53-7.16,4.53-4.75,0-7.77-3.23-7.77-8.53v-9.7h24.48v5h-8.88v3.81l8.88,5.3v5.74Zm-3.46-4.49v-4.19h-7.3v4.19a3.59,3.59,0,0,0,3.7,3.91C1851.26,224.64,1852.7,223.15,1852.7,220.73Z"/><path class="f" d="M1853,192.05l12.67-8.15.48,5.11-11.09,7.09v2.7h10.61v5h-24.48v-5h9.89v-2.75l-9.89-6.46v-5.21Z"/><path class="f" d="M1853.47,181.49c-8,0-12.72-4.49-12.72-11.33s4.75-11.33,12.72-11.33,12.72,4.48,12.72,11.33S1861.44,181.49,1853.47,181.49Zm0-5.11c5.37,0,8.54-2.46,8.54-6.22s-3.17-6.22-8.54-6.22-8.55,2.46-8.55,6.22S1848.09,176.38,1853.47,176.38Z"/><path class="f" d="M1858.65,133.47c4.42,0,7.06,2.79,7.06,8.39v10.7h-24.48v-9.93c0-4.92,1.82-8.15,6.24-8.15a5.49,5.49,0,0,1,5.23,4.19h.14C1853.37,136.31,1855.1,133.47,1858.65,133.47Zm-13.25,14.08H1851v-4c0-2.26-.72-4-2.78-4s-2.79,1.54-2.79,3.67Zm9.75,0h6.38v-4.87c0-2.56-1-4.1-3.17-4.1s-3.21,1.69-3.21,4.58Z"/><path class="f" d="M1851.31,114.62h-1.63c-2.93,0-4.76,1.25-4.76,4.87a19.43,19.43,0,0,0,1.3,6.65l-3.89,1.45a24.14,24.14,0,0,1-1.58-8.68c0-7.52,3.93-9.31,9-9.31H1860a1.55,1.55,0,0,0,1.73-1.73v-.54h3.7a8.89,8.89,0,0,1,.48,2.9,3.81,3.81,0,0,1-2.83,3.9v.2a9,9,0,0,1,2.83,6.94c0,4.68-2.31,7.62-7.3,7.62-4.65,0-7.34-3.86-7.34-9.31Zm3.89,5.16c0,2.41,1.34,4.14,3.55,4.14s3.26-1.64,3.26-3.61a7.15,7.15,0,0,0-3-5.69h-3.79Z"/><path class="f" d="M1352.81,784.19a7.33,7.33,0,0,0,2.65.62c1.11,0,2.36-.53,3-2.83l1.06-3.56h-1.79l-8.63-24.48h5.5l6.36,18.77h.2l5.69-18.77h5.4l-9.45,29.19c-1.55,4.7-4.44,5.86-7.09,5.86a11,11,0,0,1-4.25-.92Z"/><path class="f" d="M1373.44,773.82a3.13,3.13,0,0,0,1.64.48c2.27,0,3.52-4.66,3.52-16.28v-4.08H1395v24.48h-5v-20.3h-6.65v1c0,13.06-2.37,19.49-7.91,19.49a5.36,5.36,0,0,1-3.18-.86Z"/><path class="f" d="M1404.49,772.57a3.17,3.17,0,1,1-3.18,3.17A3.2,3.2,0,0,1,1404.49,772.57Z"/><path class="f" d="M1438.6,774h-5.06l-6.85-20.45h-.19l-2.32,24.86H1419l3.13-33.6h6.41L1436,766.9h.14l7.48-22.08H1450l3.13,33.6H1448l-2.32-24.86h-.19Z"/><path class="f" d="M1472.5,764v-1.63c0-2.93-1.26-4.75-4.87-4.75a19.44,19.44,0,0,0-6.66,1.3l-1.45-3.89a24.15,24.15,0,0,1,8.68-1.59c7.53,0,9.31,3.94,9.31,9v10.27a1.55,1.55,0,0,0,1.74,1.73h.53v3.69a8.89,8.89,0,0,1-2.9.48,3.8,3.8,0,0,1-3.9-2.83h-.2a9,9,0,0,1-6.94,2.83c-4.68,0-7.62-2.3-7.62-7.29,0-4.66,3.86-7.35,9.31-7.35Zm-5.16,3.89c-2.41,0-4.15,1.35-4.15,3.55s1.64,3.27,3.62,3.27a7.16,7.16,0,0,0,5.69-3v-3.79Z"/><path class="f" d="M1483.1,773.82a3.13,3.13,0,0,0,1.64.48c2.27,0,3.52-4.66,3.52-16.28v-4.08h16.44v24.48h-5v-20.3H1493v1c0,13.06-2.36,19.49-7.9,19.49a5.42,5.42,0,0,1-3.19-.86Z"/><path class="f" d="M1517.43,762.87h4.39c5.3,0,8.77,2.88,8.77,7.83s-3.47,7.72-8.77,7.72h-9.41V753.94h5Zm0,4.18v7.2h3.9c2.56,0,4.15-1.35,4.15-3.6s-1.59-3.6-4.15-3.6Zm21.79,11.37h-5V753.94h5Z"/><path class="f" d="M1576.93,778.42h-30V753.94h5v20.31h7.52V753.94h5v20.31h7.47V753.94h5Z"/><path class="f" d="M1604,767.34h-15.62c.34,4.75,2.85,7.39,7.28,7.39a13.77,13.77,0,0,0,6.13-1.68l1.63,3.79a18,18,0,0,1-8.24,2.06c-7.23,0-12-4.7-12-12.72s4.44-12.72,11.09-12.72,10.13,3.84,10.13,9.84A20.58,20.58,0,0,1,1604,767.34Zm-15.43-3.89h11.38c0-3.36-1.83-5.81-5.54-5.81C1591.05,757.64,1589,760,1588.54,763.45Z"/><path class="f" d="M1629.77,771.37c0,4.41-2.8,7-8.39,7h-10.71V753.94h9.94c4.91,0,8.15,1.83,8.15,6.24a5.49,5.49,0,0,1-4.2,5.24v.14C1626.92,766.09,1629.77,767.82,1629.77,771.37Zm-14.08-13.25v5.57h4c2.27,0,4-.72,4-2.79s-1.54-2.78-3.66-2.78Zm0,9.74v6.39h4.87c2.55,0,4.1-1,4.1-3.17s-1.69-3.22-4.58-3.22Z"/><path class="f" d="M1648.62,764v-1.63c0-2.93-1.26-4.75-4.87-4.75a19.44,19.44,0,0,0-6.66,1.3l-1.44-3.89a24.07,24.07,0,0,1,8.68-1.59c7.52,0,9.3,3.94,9.3,9v10.27a1.55,1.55,0,0,0,1.74,1.73h.53v3.69a8.83,8.83,0,0,1-2.89.48,3.8,3.8,0,0,1-3.91-2.83h-.19a9,9,0,0,1-7,2.83c-4.67,0-7.61-2.3-7.61-7.29,0-4.66,3.85-7.35,9.3-7.35Zm-5.16,3.89c-2.41,0-4.15,1.35-4.15,3.55s1.64,3.27,3.62,3.27a7.16,7.16,0,0,0,5.69-3v-3.79Z"/><path class="c" d="M1742.63,452.9a6.39,6.39,0,0,0,.54-2.32c0-1-.46-2.07-2.47-2.66l-3.11-.93v1.56l-21.43,7.55v-4.81l16.43-5.57v-.16l-16.43-5v-4.73l25.54,8.27c4.12,1.35,5.13,3.88,5.13,6.2a9.74,9.74,0,0,1-.8,3.72Z"/><path class="c" d="M1733.55,434.84a2.62,2.62,0,0,0,.42-1.43c0-2-4.07-3.08-14.24-3.08h-3.57V415.94h21.43v4.39h-17.77v5.82h.92c11.43,0,17.06,2.07,17.06,6.92a4.76,4.76,0,0,1-.76,2.78Z"/><path class="c" d="M1732.46,407.67a2.78,2.78,0,1,1,2.77,2.79A2.8,2.8,0,0,1,1732.46,407.67Z"/><path class="c" d="M1733.72,377.83v4.43l-17.89,6v.17l21.76,2V395l-29.41-2.74v-5.62l19.32-6.54V380l-19.32-6.54v-5.61l29.41-2.75v4.56l-21.76,2v.16Z"/><path class="c" d="M1725,348.17h-1.42c-2.57,0-4.16,1.1-4.16,4.26a17.12,17.12,0,0,0,1.13,5.82l-3.4,1.27a21.07,21.07,0,0,1-1.39-7.6c0-6.58,3.45-8.14,7.9-8.14h9a1.35,1.35,0,0,0,1.51-1.52v-.46h3.24a7.84,7.84,0,0,1,.42,2.53,3.34,3.34,0,0,1-2.48,3.42v.17a7.89,7.89,0,0,1,2.48,6.07c0,4.09-2,6.67-6.39,6.67-4.07,0-6.43-3.38-6.43-8.14Zm3.41,4.51c0,2.11,1.17,3.63,3.11,3.63s2.85-1.43,2.85-3.16a6.28,6.28,0,0,0-2.64-5h-3.32Z"/><path class="c" d="M1733.55,338.89a2.63,2.63,0,0,0,.42-1.44c0-2-4.07-3.08-14.24-3.08h-3.57V320h21.43v4.39h-17.77v5.82h.92c11.43,0,17.06,2.07,17.06,6.92a4.76,4.76,0,0,1-.76,2.78Z"/><path class="c" d="M1737.59,289.78v4.39h-21.43v-4.39ZM1724,308.85V305c0-4.64,2.52-7.68,6.84-7.68s6.77,3,6.77,7.68v8.23h-21.43v-4.39Zm3.65,0h6.3v-3.42c0-2.23-1.17-3.62-3.15-3.62s-3.15,1.39-3.15,3.62Z"/><path class="c" d="M1737.59,256.79V283h-21.43v-4.38h17.77v-6.58h-17.77v-4.35h17.77v-6.54h-17.77v-4.39Z"/><path class="c" d="M1727.88,233.13V246.8c4.16-.3,6.47-2.49,6.47-6.38a11.92,11.92,0,0,0-1.47-5.35l3.32-1.44a15.8,15.8,0,0,1,1.81,7.22c0,6.33-4.12,10.46-11.14,10.46s-11.13-3.88-11.13-9.7,3.36-8.86,8.61-8.86A17.43,17.43,0,0,1,1727.88,233.13Zm-3.4,13.5v-10c-2.94,0-5.08,1.6-5.08,4.85C1719.4,244.43,1721.46,246.25,1724.48,246.63Z"/><path class="c" d="M1731.41,210.56c3.87,0,6.18,2.44,6.18,7.34v9.36h-21.43v-8.69c0-4.3,1.6-7.13,5.46-7.13a4.8,4.8,0,0,1,4.58,3.67h.13C1726.79,213,1728.3,210.56,1731.41,210.56Zm-11.59,12.32h4.87v-3.46c0-2-.63-3.51-2.44-3.51s-2.43,1.35-2.43,3.21Zm8.53,0h5.58v-4.27c0-2.23-.88-3.58-2.77-3.58s-2.81,1.47-2.81,4Z"/><path class="c" d="M1725,194.06h-1.42c-2.57,0-4.16,1.1-4.16,4.26a17.12,17.12,0,0,0,1.13,5.82l-3.4,1.27a21,21,0,0,1-1.39-7.59c0-6.59,3.45-8.15,7.9-8.15h9a1.35,1.35,0,0,0,1.51-1.52v-.46h3.24a7.84,7.84,0,0,1,.42,2.53,3.34,3.34,0,0,1-2.48,3.42v.17a7.89,7.89,0,0,1,2.48,6.07c0,4.1-2,6.67-6.39,6.67-4.07,0-6.43-3.38-6.43-8.14Zm3.41,4.51c0,2.12,1.17,3.63,3.11,3.63s2.85-1.43,2.85-3.16a6.28,6.28,0,0,0-2.64-5h-3.32Z"/><path class="c" d="M1732.46,181.58c0-1.65,1.22-2.83,3.4-2.83a8.22,8.22,0,0,1,7.69,4.6l-1.55,1.18a5.3,5.3,0,0,0-4.08-2.45,2.75,2.75,0,0,1-2.69,2.24A2.69,2.69,0,0,1,1732.46,181.58Z"/><path class="c" d="M1733.55,156.6v-12l4,.84v17.72H1734c-4.32-5.78-12-13.12-17.6-13.12-2.81,0-4.58,1.39-4.58,4.39a11.5,11.5,0,0,0,2,6.2l-3.53,2a16.8,16.8,0,0,1-2.48-9c0-5.19,2.94-8.19,8.07-8.19,6.47,0,13.48,6,17.56,11.18Z"/><path class="c" d="M1708.18,127.15h25.37v-6.83h4v19h-4v-7.72h-21.34v7.09l-4-.84Z"/><path class="c" d="M1714.13,108.43v-4.17l26.3,11.07v4.16Z"/><path class="c" d="M1729,99.38V96.29h-3.28V91.84H1729V88.62l4.14.62v2.6h4.42v4.45h-4.42v8.43h-3.83l-13.21-7.51V92.27l12.78,7.11Z"/><path class="f" d="M1562.64,620.36h13.74l-1,4.61h-20.25v-4.13c6.61-4.94,15-13.68,15-20.11,0-3.22-1.59-5.23-5-5.23a13.21,13.21,0,0,0-7.09,2.25l-2.31-4c3.86-2.06,6.36-2.83,10.32-2.83,5.93,0,9.35,3.36,9.35,9.22,0,7.39-6.89,15.41-12.78,20.06Z"/><path class="f" d="M1596.25,591.37v29h7.81V625h-21.7v-4.61h8.83V596h-8.1l1-4.61Z"/><path class="f" d="M1617.6,598.45h4.76l-12.64,30.06H1605Z"/><path class="f" d="M1634,600.45v19.76h5.5V625H1623v-4.76h5.89v-15h-5.36l.7-4.76Z"/><path class="f" d="M1324.54,525.14V511.4l4.61,1v20.25H1325c-5-6.6-13.68-15-20.11-15-3.22,0-5.24,1.59-5.24,5a13.2,13.2,0,0,0,2.26,7.09l-4,2.31c-2.07-3.85-2.83-6.36-2.83-10.31,0-5.94,3.36-9.36,9.21-9.36,7.39,0,15.41,6.9,20.07,12.78Z"/><path class="f" d="M1295.55,491.53h29v-7.81h4.61v21.7h-4.61V496.6h-24.39v8.1l-4.6-1Z"/><path class="f" d="M1302.62,470.18v-4.76l30.06,12.64v4.77Z"/><path class="f" d="M1309,457.25a9.54,9.54,0,0,0,1.44,4.77l-4.14,2.41a14.89,14.89,0,0,1-2.07-7.84c0-4.31,2.46-7.15,6.73-7.15,5.4,0,9.6,4.24,13.24,8.41h.14v-9l4.77.7v15.41h-4.42c-3.6-4.8-8.58-10.26-13.27-10.26A2.28,2.28,0,0,0,1309,457.25Z"/><path class="f" d="M1438.82,207.14V193.4l4.61,1v20.25h-4.13c-5-6.6-13.68-15-20.12-15-3.21,0-5.23,1.59-5.23,5a13.2,13.2,0,0,0,2.26,7.09l-4,2.31c-2.06-3.85-2.83-6.36-2.83-10.31,0-5.94,3.36-9.36,9.22-9.36,7.39,0,15.41,6.9,20.06,12.78Z"/><path class="f" d="M1409.82,173.53h29v-7.81h4.61v21.7h-4.61V178.6h-24.39v8.1l-4.61-1Z"/><path class="f" d="M1416.9,152.18v-4.76L1447,160.06v4.77Z"/><path class="f" d="M1432.6,142.37h-3.15l-5.64-4.73h-.14v8.83l-4.77-.7V132.24h4.42l5.25,4.52h.14c.74-2.94,2.77-5.6,7.08-5.6,5.39,0,8,4.2,8,8.65a13.47,13.47,0,0,1-2.07,7.46l-4.1-2.55a8.26,8.26,0,0,0,1.4-4.66c0-2-.94-3.68-3.19-3.68s-3.22,1.75-3.22,4.06Z"/><path class="g" d="M1127.2,500.72v141a10.41,10.41,0,0,1-10.41,10.41h-55.88a10.41,10.41,0,0,1-10.41-10.41v-26a10.41,10.41,0,0,0-10.41-10.41H985.41V605H832.06a11.24,11.24,0,0,1-11.24-11.24V500.72a10.41,10.41,0,0,1,10.41-10.4h285.56A10.41,10.41,0,0,1,1127.2,500.72Z"/><path class="f" d="M1071.92,533.27v29h7.81v4.61H1058v-4.61h8.82V537.88h-8.1l1-4.61Z"/><path class="f" d="M1100.07,552.09a8.67,8.67,0,0,1-6.12,2.06c-5.74,0-9.69-3.79-9.69-10.56,0-6.57,4.68-10.8,11-10.8,6.8,0,11,4.56,11,12.34,0,12-6.75,19.35-16.73,22.23l-1.84-3.94c5.74-2.16,11-5.43,12.59-11.23Zm-4.82-14.69c-3.28,0-5.78,2.21-5.78,6.19s2.5,6.2,5.78,6.2a6.52,6.52,0,0,0,5.84-4.18C1101.09,540.81,1099,537.4,1095.25,537.4Z"/><path class="f" d="M620.05,533.27v29h7.81v4.61h-21.7v-4.61H615V537.88h-8.1l1-4.61Z"/><path class="f" d="M649,537.88H632.44l1-4.61h21v4.13l-11.77,29.48h-5.49Z"/><path class="f" d="M671.36,561.87h-7.11l-1.44,5h-5.43l7.85-24.53h5.15l7.84,24.53h-5.43Zm-3.51-12.76h-.14l-2.13,8.1H670Z"/><path class="f" d="M298,533.27v29h7.81v4.61H284.16v-4.61H293V537.88h-8.1l1-4.61Z"/><path class="f" d="M326.83,556.07c0-4.51-3.23-6.86-7-6.86a17.09,17.09,0,0,0-7,1.44V533.27h18l-1,4.61h-12v7.2a16.78,16.78,0,0,1,3-.29c6.17,0,11.23,3.65,11.23,11.28,0,7.4-5.3,11.29-11.42,11.29a17,17,0,0,1-9.79-2.84l2.46-4a11.63,11.63,0,0,0,7,2.26C323.84,562.75,326.83,560.59,326.83,556.07Z"/><rect class="h" x="770.94" y="862.14" width="595.28" height="453.54" rx="35.43"/><path class="c" d="M896.78,1017.73c-13.15,0-25.51,4.47-37.08,11.57l-15.52-26.56c21-11.31,36-15.52,57.6-15.52,32.35,0,52.33,18.41,52.33,50.5,0,40.5-35,79.16-67.06,104.67v1h72.32L954.11,1174H841v-27.88c36-27.08,79.17-69.69,79.17-104.93C920.19,1026.67,912,1017.73,896.78,1017.73Z"/><path class="c" d="M1069.31,989.85v153.59h41.29V1174h-121v-30.51h46.81V1020.36H993.56l5.26-30.51Z"/><path class="c" d="M1186.58,1029.56h22.27l-71.22,164.73h-22.27Z"/><path class="c" d="M1240.34,1120.39h19.39v-20.54h27.84v20.54h20.15l-3.84,25.92h-16.31V1174h-27.84v-27.64h-52.8v-24l47-82.75h30.91l-44.54,80.06Z"/></svg>