<svg xmlns="http://www.w3.org/2000/svg" viewBox="0 0 200 200"><defs><style>.a{fill:#cc6e00;}.b{fill:#fff;}</style></defs><circle class="a" cx="100" cy="100" r="100"/><path class="b" d="M37.33,111H173.8V146.3H158.38V125.22h-121V146.3H21.9v-91H37.33ZM68,74.84a14.55,14.55,0,1,1,24.8,10.55c5.07.39,10.34.39,15.61.39h10.55c2.73-21.28,17.18-33.19,34.94-33.19,8.6,0,18,2.73,27.34,8.59l-8.4,12.49c-6.83-4.29-13.27-6.25-18.74-6.25-11.71,0-19.52,9-20.69,24.6-.59,7.23-5.67,9-12.89,9H97.85c-15.23,0-50.57-.59-50.57-45.69H62.51C62.71,64.11,64.86,70.35,68,74.84ZM163.65,101H148.81c-.39-6.64-.59-12.69-6.05-16.21l8.39-12.1C160.52,78.94,163.65,89.88,163.65,101Z"/></svg>