<svg fill="none" height="313" viewBox="0 0 500 313" width="500" xmlns="http://www.w3.org/2000/svg" xmlns:xlink="http://www.w3.org/1999/xlink"><clipPath id="a"><path d="m0 0h500v313h-500z"/></clipPath><mask id="b" height="313" maskUnits="userSpaceOnUse" width="500" x="0" y="0"><path d="m0 0h500v313h-500z" fill="#fff"/></mask><g clip-path="url(#a)"><g mask="url(#b)"><g fill="#68c066" fill-opacity=".5" opacity=".5"><path d="m691.089 125-344.294 343.695 8.315 8.3 344.294-343.695z"/><path d="m659.689 125.003-344.294 343.695 8.314 8.3 344.295-343.695z"/><path d="m628.289 125-344.295 343.695 8.315 8.3 344.294-343.695z"/><path d="m596.892 125.003-344.294 343.695 8.314 8.3 344.295-343.695z"/><path d="m565.492 125-344.295 343.695 8.315 8.3 344.294-343.695z"/><path d="m534.089 125.002-344.294 343.695 8.315 8.3 344.294-343.695z"/><path d="m502.691 125.003-344.295 343.695 8.315 8.3 344.295-343.695z"/><path d="m471.289 125.002-344.295 343.695 8.315 8.3 344.294-343.695z"/><path d="m439.89 125.003-344.2943 343.695 8.3143 8.3 344.295-343.695z"/><path d="m408.492 125.002-344.2947 343.695 8.3146 8.3 344.2941-343.695z"/><path d="m377.093 125.003-344.2942 343.695 8.3146 8.3 344.2946-343.695z"/><path d="m345.693 125.002-344.29456 343.695 8.31461 8.3 344.29395-343.695z"/><path d="m314.294 125-344.294 343.695 8.3146 8.3 344.2944-343.695z"/><path d="m282.89 125.004-344.2943 343.695 8.3146 8.3 344.2947-343.695z"/><path d="m251.496 125.002-344.2948 343.695 8.3146 8.3 344.2942-343.695z"/><path d="m220.093 125.004-344.294 343.695 8.314 8.3 344.295-343.695z"/><path d="m188.695 125.002-344.295 343.695 8.315 8.3 344.294-343.695z"/><path d="m157.294 125-344.294 343.695 8.315 8.3 344.294-343.695z"/><path d="m125.896 125.002-344.294 343.695 8.314 8.3 344.295-343.695z"/><path d="m94.4956 125-344.2946 343.695 8.315 8.3 344.294-343.695z"/><path d="m63.0972 125.002-344.2942 343.695 8.314 8.3 344.2948-343.695z"/><path d="m31.6987 125-344.2947 343.695 8.315 8.3 344.2943-343.695z"/><path d="m.294431 125.004-344.294431 343.695 8.315 8.3 344.29404-343.695z"/></g></g></g></svg>