<svg xmlns="http://www.w3.org/2000/svg" viewBox="0 0 200 200"><defs><style>.a{fill:#328c00;}.b{fill:#fff;}</style></defs><circle class="a" cx="100" cy="100" r="100"/><path class="b" d="M42.57,120.13c0-15.22,12.5-27.33,27.92-27.33h55.65a13.09,13.09,0,0,0,0-26.16H103.29V52.19h22.85a27.59,27.59,0,0,1,27.92,27.53c0,15.42-12.5,27.33-27.92,27.33H70.49c-7,0-12.69,6.25-12.69,13.08a13,13,0,0,0,12.69,13.08H93.14v14.45H70.49A27.58,27.58,0,0,1,42.57,120.13Zm30.27-81a20.21,20.21,0,1,1,0,40.41,20.21,20.21,0,0,1,0-40.41Zm0,29.09a8.79,8.79,0,1,0-8.79-8.79A8.74,8.74,0,0,0,72.84,68.2Zm50.76,92.35a20.21,20.21,0,1,1,20.11-20.11A20.25,20.25,0,0,1,123.6,160.55Zm0-28.9a8.79,8.79,0,1,0,8.78,8.79A8.76,8.76,0,0,0,123.6,131.65Z"/></svg>