<svg xmlns="http://www.w3.org/2000/svg" xmlns:xlink="http://www.w3.org/1999/xlink" viewBox="0 0 5606.17 1332.28"><defs><style>.a{fill:#fff;}.b{fill:url(#a);}.c,.i,.j,.l{fill:#38a032;}.c{opacity:0.17;}.d{fill:#222c54;}.e{opacity:0.5;}.f{fill:url(#b);}.g{fill:url(#c);}.h,.k{fill:#0bbbef;}.j{opacity:0.8;}.k,.l{opacity:0.3;}</style><linearGradient id="a" x1="2094.78" y1="58.69" x2="2094.78" y2="1249.25" gradientUnits="userSpaceOnUse"><stop offset="0" stop-color="#f2f2f2"/><stop offset="0.01" stop-color="#f1f1f1"/><stop offset="0.23" stop-color="#e4e4e4"/><stop offset="0.51" stop-color="#dbdbdb"/><stop offset="1" stop-color="#d9d9d9"/></linearGradient><linearGradient id="b" x1="4903.94" y1="56.69" x2="4903.94" y2="1247.24" gradientUnits="userSpaceOnUse"><stop offset="0" stop-color="#222c54"/><stop offset="0.76" stop-color="#1e2649"/><stop offset="1" stop-color="#1c2344"/></linearGradient><linearGradient id="c" x1="4223.62" y1="649.8" x2="5606.17" y2="649.8" gradientUnits="userSpaceOnUse"><stop offset="0" stop-color="#fff" stop-opacity="0.7"/><stop offset="0.03" stop-color="#fff" stop-opacity="0.72"/><stop offset="0.34" stop-color="#fff" stop-opacity="0.87"/><stop offset="0.6" stop-color="#fff" stop-opacity="0.96"/><stop offset="0.75" stop-color="#fff"/></linearGradient></defs><rect class="a" x="110.52" y="58.69" width="3968.5" height="1190.55" rx="70.87"/><rect class="b" x="110.52" y="58.69" width="3968.5" height="1190.55" rx="70.87"/><rect class="c" x="253.75" y="568.41" width="3683.57" height="255.13"/><rect class="c" x="254.92" y="200.75" width="3682.4" height="254.8"/><rect class="c" x="252.85" y="994.16" width="3684.47" height="141.73"/><path class="d" d="M241,1135.86l47.27-141.4H309.9l47.27,141.4H333.94l-10.1-32.93H274.15l-9.9,32.93Zm58.58-112.52h-1l-18.78,60.81h38.38Z"/><path class="d" d="M450.09,1061.32l52.52,74.54-25.05,2L430.9,1072H420.4v63.83H398.58V994.46H420.4v59h11.11l42-59h24.85Z"/><path class="d" d="M527.86,1135.86l47.27-141.4h21.61L644,1135.86H620.78l-10.1-32.93H561l-9.9,32.93Zm58.58-112.52h-1l-18.79,60.81H605Z"/><path class="d" d="M685.42,1135.86V994.46h45c40,0,57.77,29.49,57.77,70.7s-17.77,70.7-57.77,70.7Zm21.81-122v102.61h23.23c23.64,0,35.15-22.42,35.15-51.3s-11.51-51.31-35.15-51.31Z"/><path class="d" d="M837.73,1135.86V994.46h80l-4,19.39H859.54V1053h48.08v19.39H859.54v44h58.18v19.4Z"/><path class="d" d="M1045.38,1117.27h-21.21l-28.68-86h-.81L985,1135.86H963.17l13.13-141.4h26.86l31.31,92.92h.61l31.31-92.92h26.86l13.13,141.4h-21.81l-9.7-104.64h-.81Z"/><path class="d" d="M1149.81,1135.86v-19.4H1173V1013.85h-23.23V994.46h69.29l-4,19.39h-20.2v102.61h23.23v19.4Z"/><path class="d" d="M1319.09,1061.32l52.52,74.54-25,2L1299.9,1072h-10.51v63.83h-21.81V994.46h21.81v59h11.11l42-59h24.84Z"/><path class="d" d="M1396.86,1135.86l47.26-141.4h21.62l47.26,141.4h-23.22l-10.1-32.93H1430l-9.89,32.93Zm58.58-112.52h-1l-18.79,60.81H1474Z"/><path class="d" d="M1689.35,1099.29c0-13.93-13.53-21.61-29.09-27.67-18.18-7.07-39-17.37-39-40.8,0-24.24,17.17-38.38,45.85-38.38,16.36,0,28.48,4.44,40.4,10.91l-10.3,17.17c-8.89-5.26-17.17-8.69-30.1-8.69-15.35,0-23.23,6.26-23.23,17.78s13.94,19,26.26,23.83c22.22,8.69,41.81,18.38,41.81,44.64,0,25.05-17.57,39.8-49.28,39.8-19.4,0-31.52-4.45-44.65-12.53l11.52-17.77a52.66,52.66,0,0,0,33.13,10.9C1678.44,1118.48,1689.35,1112.42,1689.35,1099.29Z"/><path class="d" d="M1759.44,1135.86V994.46h80l-4,19.39h-54.13V1053h48.07v19.39h-48.07v44h58.17v19.4Z"/><path class="d" d="M1967.1,1117.27h-21.21l-28.69-86h-.81l-9.69,104.64h-21.82L1898,994.46h26.87l31.31,92.92h.6l31.31-92.92H2015l13.13,141.4h-21.82l-9.69-104.64h-.81Z"/><path class="d" d="M2071.53,1135.86v-19.4h23.23V1013.85h-23.23V994.46h69.28l-4,19.39h-20.2v102.61h23.23v19.4Z"/><path class="d" d="M2240.8,1061.32l52.52,74.54-25,2L2221.61,1072h-10.5v63.83h-21.82V994.46h21.82v59h11.11l42-59h24.84Z"/><path class="d" d="M2354.53,1053h59V994.46h21.82v141.4h-21.82v-63.43h-59v63.43h-21.82V994.46h21.82Z"/><path class="d" d="M2476.74,1135.86,2524,994.46h21.62l47.26,141.4h-23.23l-10.1-32.93h-49.69l-9.89,32.93Zm58.58-112.52h-1l-18.78,60.81h38.38Z"/><path class="d" d="M2673.89,1013.85v122h-21.82v-122h-42V994.46h106l-4,19.39Z"/><path class="d" d="M2804,1137.88c-42,0-58.58-31.92-58.58-72.72S2762,992.44,2804,992.44s58.58,31.91,58.58,72.72S2846,1137.88,2804,1137.88Zm0-126.05c-25.85,0-35.95,23.43-35.95,53.33s10.1,53.32,35.95,53.32,36-23.43,36-53.32S2829.83,1011.83,2804,1011.83Z"/><path class="d" d="M2980.32,994.46h23.84l-44,141.4h-25.25l-44-141.4h23.83l32.32,111.3h.81Z"/><path class="d" d="M3018.3,1135.86l47.27-141.4h21.61l47.27,141.4h-23.23l-10.1-32.93h-49.69l-9.9,32.93Zm58.58-112.52h-1l-18.79,60.81h38.38Z"/><path class="d" d="M3310,1061.52c17.78,4.24,29.09,15.56,29.09,35.15,0,28.88-21.61,39.19-49.29,39.19h-42.21V994.46h42.21c25.25,0,44.24,9.29,44.24,33.93,0,18.59-11.11,28.89-24,32.32Zm-40.6-47.67v40h19c13.53,0,23-8.49,23-20.41,0-12.92-8.28-19.59-23.84-19.59Zm0,58.58v44h19.19c17.37,0,27.88-8.88,27.88-22.42,0-14.34-9.9-21.61-28.08-21.61Z"/><path class="d" d="M3388.56,1135.86V994.46h21.82v122h64l-4,19.4Z"/><path class="d" d="M3572,994.46h23.83l-44,141.4h-25.25l-44-141.4h23.84l32.32,111.3h.81Z"/><path class="d" d="M3634.2,1135.86V994.46h45c40,0,57.77,29.49,57.77,70.7s-17.77,70.7-57.77,70.7Zm21.81-122v102.61h23.23c23.63,0,35.15-22.42,35.15-51.3s-11.52-51.31-35.15-51.31Z"/><path class="d" d="M3785.69,1111.21a13.34,13.34,0,1,1-13.33,13.33A13.45,13.45,0,0,1,3785.69,1111.21Z"/><path class="d" d="M301.51,243v58.24h31.67c52.78,0,88.09,25.12,88.09,77.17s-34.94,77.16-88.09,77.16H254.92V200.75H404.16L396.88,243Zm0,100.46v69.89H331c29.48,0,42.22-14.92,42.22-34.94,0-21.48-12.37-34.95-42.59-34.95Z"/><path class="d" d="M612.37,200.75h49.5L586.52,400.94c-12,31.67-30.57,58.24-65.52,58.24-14.92,0-27.66-3.27-40.76-12.74l22.2-36c5.82,4.37,10.19,6.55,16.74,6.55,7.28,0,15.66-6.92,22.93-24.75l5.1-12.74H532.65L454,200.75h53.14l56.06,131.4h1.09Z"/><path class="d" d="M710.65,200.75h149.6V455.54H813.66V243H755.42c0,131.77-17.47,214.39-74.62,214.39-10.92,0-20.75-2.54-26.21-5.09l8.74-40A35,35,0,0,0,675,414.41c24.38,0,35.67-50.23,35.67-203.84Z"/><path class="d" d="M955.25,407.5a25.84,25.84,0,1,1-25.84,25.84A25.94,25.94,0,0,1,955.25,407.5Z"/><path class="d" d="M1200.59,399.85h-80.81L1103,455.54h-49.14l85.18-254.79h42.59l85.17,254.79h-49.14Zm-68.44-41.13h56.06l-27.3-92.45h-1.46Z"/><path class="d" d="M1389.86,344.89h-18.2V455.54h-46.59V200.75h46.59V302.67h18.93l65.88-101.92h52.06l-79.72,120.48,87.36,134.31-52.42,3.64Z"/><path class="d" d="M1692,399.85h-80.81l-16.74,55.69h-49.14l85.17-254.79h42.59l85.18,254.79h-49.14Zm-68.43-41.13h56l-27.3-92.45h-1.45Z"/><path class="d" d="M1832.11,509.05H1792.8l-7.28-95.73h27.3c27.67-36.76,37.13-107.74,37.13-191.46V200.75h156.16V413.32h34.58l-7.28,95.73h-39.32V455.54h-162Zm127.4-95.73V243h-64.06v8c0,63.33-12.74,126.3-31.67,162.34Z"/><path class="d" d="M2100.74,455.54V200.75h147.79L2241.25,243h-93.91v59.7h83v42.22h-83v68.43h101.19v42.22Z"/><path class="d" d="M2513.52,289.2h-1.09l-43.68,132.86h-47.69L2377,289.2h-1.09l-15.29,166.34h-46.59l23.66-254.79h52.05l54.6,163.8h1.09l54.6-163.8h52l23.66,254.79h-46.59Z"/><path class="d" d="M2802.17,286.65h-1.09L2687.51,455.54h-39V200.75h46.59V370h1.1l113.56-169.26h39V455.54h-46.59Z"/><path class="d" d="M2997.27,344.89h-18.2V455.54h-46.59V200.75h46.59V302.67H2998l65.88-101.92h52l-79.71,120.48,87.36,134.31-52.42,3.64Z"/><path class="d" d="M3299.39,399.85h-80.81l-16.75,55.69h-49.14l85.18-254.79h42.59l85.17,254.79h-49.14ZM3231,358.72H3287l-27.3-92.45h-1.46Z"/><path class="d" d="M424.18,807.53c-22.93,13.1-42.22,19.65-71,19.65-75.71,0-109.2-57.51-109.2-131s33.49-131,109.2-131c23.3,0,42.23,3.64,66.61,16.38L401.25,619a106.83,106.83,0,0,0-48.05-11.65c-41.49,0-61.15,38.95-61.15,88.82S311.71,785,353.2,785c18.57,0,35.31-5.1,52.05-14.56Z"/><path class="d" d="M491.52,823.54V568.75H639.3L632,611H538.11v59.7h83v42.22h-83v68.43H639.3v42.22Z"/><path class="d" d="M904.3,657.2h-1.1L859.53,790.06H811.84l-44-132.86h-1.1L751.42,823.54H704.83l23.66-254.79h52l54.6,163.8h1.09l54.6-163.8h52l23.66,254.79H920Z"/><path class="d" d="M1193,654.65h-1.1L1078.29,823.54h-39V568.75h46.59V738H1087l113.57-169.26h39V823.54H1193Z"/><path class="d" d="M1403,729.63h-1.09l-52.05,93.91H1296l76.81-132.13-69.53-122.66h53.88l44.4,86.26H1403l44.41-86.26h53.87l-69.52,122.66,76.8,132.13-52,3.64Z"/><path class="d" d="M1686.16,767.85h-80.81l-16.74,55.69h-49.14l85.17-254.79h42.59l85.18,254.79h-49.14Zm-68.43-41.13h56l-27.3-92.45H1645Z"/><path class="d" d="M1887.82,611V823.54h-47V611H1767V568.75h194.74L1954.43,611Z"/><path class="d" d="M2101.84,827.18c-75.71,0-107.38-57.51-107.38-131s31.67-131,107.38-131,107.38,57.51,107.38,131S2177.56,827.18,2101.84,827.18Zm0-219.85c-41.49,0-59.33,38.95-59.33,88.82S2060.35,785,2101.84,785s59.34-39,59.34-88.81S2143.34,607.33,2101.84,607.33Z"/><path class="d" d="M2282,823.54V568.75h79.72c45.5,0,79.71,16.74,79.71,61.15,0,33.49-20,52.05-43.31,58.24v1.45c32,7.65,52.41,28,52.41,63.34,0,52.05-38.94,70.61-88.81,70.61ZM2359.19,611h-30.58v61.52h30.58c22.21,0,34.22-12.38,34.22-30.94S2381.4,611,2359.19,611Zm.37,101.56h-30.95v68.79h30.95c26.93,0,43-13.47,43-33.49C2402.51,724.54,2386.49,712.53,2359.56,712.53Z"/><path class="d" d="M2639.11,767.85H2558.3l-16.74,55.69h-49.14l85.17-254.79h42.59l85.18,254.79h-49.15Zm-68.43-41.13h56.05l-27.3-92.45H2598Z"/><g class="e"><rect class="f" x="4223.62" y="56.69" width="1360.63" height="1190.55" rx="70.87"/><path class="a" d="M4593.89,310.36V690h102v75.4h-299V690h115.7V385.76h-106l13-75.4Z"/><path class="a" d="M4903.93,771.85c-100.09,0-162.49-80-162.49-234s62.4-234,162.49-234,162.5,79.95,162.5,234S5004,771.85,4903.93,771.85Zm0-75.4c44.85,0,78.65-46.8,78.65-158.59s-33.8-158.6-78.65-158.6-78.65,46.8-78.65,158.6S4859.08,696.45,4903.93,696.45Z"/><path class="a" d="M5397.28,310.36l-13,75.4H5228.93v84.5c10.4-1.95,22.1-3.9,32.5-3.9,83.2,0,152.75,49.4,152.75,152.74,0,100.1-74.75,152.75-157.3,152.75-57.2,0-98.14-15-135.19-38.35L5162,667.85c26,16.9,53.3,28.6,90.35,28.6,40.95,0,78-25.35,78-77.35,0-52.65-40.3-79.94-85.15-79.94-52.65,0-97.5,18.85-97.5,18.85V310.36Z"/><path class="a" d="M4432.67,992.46v122h32.73v19.39h-90.9v-19.39h37V1011.86h-33.93l4-19.4Z"/><path class="a" d="M4530.85,1135.88c-31.11,0-49.49-24.84-49.49-72.72s18.38-72.72,49.49-72.72,49.48,24.85,49.48,72.72S4562,1135.88,4530.85,1135.88Zm0-19.39c16.16,0,27.47-15.76,27.47-53.33s-11.31-53.32-27.47-53.32-27.48,15.75-27.48,53.32S4514.69,1116.49,4530.85,1116.49Z"/><path class="a" d="M4658.51,992.46v122h32.72v19.39h-90.9v-19.39h37V1011.86h-33.94l4-19.4Z"/><path class="a" d="M4966.15,1016.5l13.94-13.94,60.6,60.6-60.6,60.6-13.94-13.94,36.56-36v-.61H4767.19v-20.2h235.52v-.6Z"/><path class="a" d="M5179.06,992.46v122h32.73v19.39h-90.9v-19.39h37V1011.86h-33.93l4-19.4Z"/><path class="a" d="M5292,992.46v122h32.72v19.39h-90.89v-19.39h37V1011.86h-33.93l4-19.4Z"/><path class="a" d="M5410,1071.65c-6.46,6.06-15.35,8.68-25.65,8.68-24,0-40.61-15.95-40.61-44.44,0-27.67,19.6-45.45,46.06-45.45,28.48,0,45.85,19.19,45.85,51.92,0,50.5-28.28,81.4-70.09,93.52l-7.68-16.56c24-9.09,46.06-22.83,52.73-47.27Zm-20.2-61.81c-13.74,0-24.24,9.29-24.24,26.05S5376,1062,5389.75,1062c10.3,0,20.2-7.07,24.44-17.57C5414.19,1024.18,5405.3,1009.84,5389.75,1009.84Z"/></g><rect class="g" x="4223.62" y="40.35" width="1382.55" height="1218.9"/><path class="h" d="M2065.37,1297.31v24.15h6.48v3.84h-18v-3.84h7.32v-20.31h-6.72l.8-3.84Z"/><path class="h" d="M2089.05,1297.31l-10,17.47v.16h6.35v-5.07h4.2v5.07h4.6l-.8,3.8h-3.8v6.56h-4.2v-6.56H2074v-3.4l10.31-18Z"/><path class="h" d="M2105.57,1325.7c-6.15,0-9.79-4.92-9.79-14.39s3.64-14.4,9.79-14.4,9.8,4.92,9.8,14.4S2111.73,1325.7,2105.57,1325.7Zm0-3.84c3.2,0,5.44-3.12,5.44-10.55s-2.24-10.56-5.44-10.56-5.43,3.12-5.43,10.56S2102.38,1321.86,2105.57,1321.86Z"/><path class="h" d="M2127.14,1325.7c-6.16,0-9.8-4.92-9.8-14.39s3.64-14.4,9.8-14.4,9.79,4.92,9.79,14.4S2133.29,1325.7,2127.14,1325.7Zm0-3.84c3.19,0,5.43-3.12,5.43-10.55s-2.24-10.56-5.43-10.56-5.44,3.12-5.44,10.56S2123.94,1321.86,2127.14,1321.86Z"/><path class="i" d="M3446.65,257.9v-4.64h4.4V234.54h-4.4V229.9h14.12l-.8,4.64h-3.8v18.72h4.4v4.64Z"/><path class="i" d="M3464.81,242.86c0-3.4,2.76-5.76,7.24-5.76a16.06,16.06,0,0,1,6.64,1.4l-1.68,3.88a13.06,13.06,0,0,0-4.68-1c-1.76,0-2.56.64-2.56,1.64,0,1.24,1.2,1.84,3.24,2.52,3,1,6.16,2.56,6.16,6.6,0,3.72-3.12,6.16-7.72,6.16a15.71,15.71,0,0,1-7.08-1.48l1.72-4a12.93,12.93,0,0,0,5.2,1.2c1.72,0,2.92-.76,2.92-1.88,0-1.52-2-2.32-4-3.08C3467.81,248.18,3464.81,246.62,3464.81,242.86Z"/><path class="i" d="M3497.81,252.7l1.72,3.88a15.77,15.77,0,0,1-7,1.72c-6,0-10.12-3.92-10.12-10.6s3.6-10.6,9.36-10.6c5.32,0,8.64,3.32,8.64,9a26.92,26.92,0,0,1-.24,3.08h-12.72a5.27,5.27,0,0,0,5.32,4.8A12.11,12.11,0,0,0,3497.81,252.7Zm-2-7.28a3.78,3.78,0,0,0-4-4c-2.12,0-3.84,1.4-4.32,4Z"/><path class="i" d="M3517.41,257.58a14.51,14.51,0,0,1-4.44.72c-3.68,0-6.68-1.68-6.68-6.44V241.78h-3.52V237.5h3.52V232l5-.8v6.32H3517l-.8,4.28h-4.92v10.08c0,1.6.64,2.16,2.2,2.16a11.55,11.55,0,0,0,3.12-.52Z"/><path class="i" d="M3538.41,245.54c-3.6-1.4-7.76-3.92-7.76-8.56,0-4.8,3.6-7.48,9.28-7.48a16.64,16.64,0,0,1,8.2,2.16l-2.44,4.08a10.73,10.73,0,0,0-5.76-1.6c-2.52,0-4,.88-4,2.6,0,2,2.44,3.56,4.76,4.48,4.4,1.72,8.32,3.88,8.32,9.08,0,5-3.68,8-10,8a16,16,0,0,1-9-2.48l2.76-4.16a10.41,10.41,0,0,0,6.28,2c2.68,0,4.68-1.2,4.68-3.28C3543.73,247.86,3541.37,246.7,3538.41,245.54Z"/><path class="i" d="M3563.85,244.54c0-2-1-3.16-3.44-3.16a16.22,16.22,0,0,0-5.44,1.08l-1.48-4a20.38,20.38,0,0,1,7.4-1.36c6.24,0,7.92,3.28,7.92,7.52v7.76a1.29,1.29,0,0,0,1.44,1.44h.44v3.88a9.32,9.32,0,0,1-2.84.4,3.64,3.64,0,0,1-3.6-2h-.16a6.86,6.86,0,0,1-5.36,2c-3.88,0-6.32-1.92-6.32-6.08,0-3.92,3.12-6.12,7.64-6.12h3.8Zm0,7.48V249.7h-3.64c-1.84,0-2.88.92-2.88,2.24a2,2,0,0,0,2.2,2.08A5.81,5.81,0,0,0,3563.85,252Z"/><path class="i" d="M3579.65,257.9h-5V237.5h3.76l.8,1.76h.16a7.86,7.86,0,0,1,5.4-2.16c4.28,0,6.68,2.68,6.68,8V257.9h-5V245.58c0-2.84-1.08-4.2-3-4.2a5.49,5.49,0,0,0-3.92,2.4Z"/><path class="i" d="M3596.13,242.86c0-3.4,2.76-5.76,7.24-5.76a16.06,16.06,0,0,1,6.64,1.4l-1.68,3.88a13.06,13.06,0,0,0-4.68-1c-1.76,0-2.56.64-2.56,1.64,0,1.24,1.2,1.84,3.24,2.52,3,1,6.16,2.56,6.16,6.6,0,3.72-3.12,6.16-7.72,6.16a15.71,15.71,0,0,1-7.08-1.48l1.72-4a12.93,12.93,0,0,0,5.2,1.2c1.72,0,2.92-.76,2.92-1.88,0-1.52-2-2.32-4-3.08C3599.13,248.18,3596.13,246.62,3596.13,242.86Z"/><path class="i" d="M3646.41,239.62h-.12l-4.8,14.6h-5.24l-4.84-14.6h-.12l-1.68,18.28h-5.12l2.6-28h5.72l6,18h.12l6-18h5.72l2.6,28h-5.12Z"/><path class="i" d="M3672.69,252.7l1.72,3.88a15.77,15.77,0,0,1-7,1.72c-6,0-10.12-3.92-10.12-10.6s3.6-10.6,9.36-10.6c5.32,0,8.64,3.32,8.64,9a26.92,26.92,0,0,1-.24,3.08h-12.72a5.27,5.27,0,0,0,5.32,4.8A12.11,12.11,0,0,0,3672.69,252.7Zm-2-7.28a3.78,3.78,0,0,0-4-4c-2.12,0-3.84,1.4-4.32,4Z"/><path class="i" d="M3692.49,256.14a7.56,7.56,0,0,1-5.28,2.16c-5.76,0-8.36-4.44-8.36-10.6s2.64-10.6,8.72-10.6a14.17,14.17,0,0,1,4.68.76V228.7l5-.8v30h-3.76l-.8-1.76Zm-8.6-8.44c0,3.72,1.52,6.32,4.52,6.32a5.37,5.37,0,0,0,3.84-2v-9.56a7.76,7.76,0,0,0-4-1.08C3685.57,241.38,3683.89,243.7,3683.89,247.7Z"/><path class="i" d="M3701,241.78l.8-4.28h7.52v20.4h-5V241.78Zm5.84-13.08a2.89,2.89,0,0,1,3,2.88,2.85,2.85,0,0,1-3,2.84,2.82,2.82,0,0,1-2.92-2.84A2.85,2.85,0,0,1,3706.85,228.7Z"/><path class="i" d="M3727.05,237.5h5v20.4h-3.76l-.8-1.76h-.16a8.58,8.58,0,0,1-5.68,2.16c-4,0-7-2.64-7-8.36V237.5h5v12.44c0,2.84,1.4,4.08,3.28,4.08a6,6,0,0,0,4.2-2.4Z"/><path class="i" d="M3752.21,239.34a9.59,9.59,0,0,1,6.16-2.24c4.28,0,6.75,2.68,6.75,8V257.9h-4.95V245.58c0-2.84-1.08-4.2-3-4.2a5.19,5.19,0,0,0-3.36,1.72v14.8h-5V245.58c0-2.84-1-4.2-2.72-4.2a5,5,0,0,0-3.6,2.4V257.9h-5V237.5h3.76l.8,1.76h.16a7.25,7.25,0,0,1,5.12-2.16A6,6,0,0,1,3752.21,239.34Z"/><path class="j" d="M3454.81,291.9l8.8-12h4l-9.56,13.24,10.4,14.76-3.92.4-9.72-13.36h-3v13h-3.52v-28h3.52v12Z"/><path class="j" d="M3474,298.66c.32,4.44,2.4,7,6.44,7a10.79,10.79,0,0,0,5.24-1.44l1.16,2.4a13.83,13.83,0,0,1-6.8,1.72c-5.68,0-9.56-3.92-9.56-10.6,0-6.32,3.24-10.6,9-10.6,5.48,0,8.2,3.2,8.2,8.2a17.19,17.19,0,0,1-.36,3.36Zm0-2.44h10.52a7.08,7.08,0,0,0,0-.92c0-3.2-1.68-5.52-5-5.52S3474.17,292.42,3474,296.22Z"/><path class="j" d="M3505.57,287.5l-.8,2.68h-8.16V307.9h-3.36V287.5Z"/><path class="j" d="M3524.45,287.5v20.4h-3.36V290.18h-6.32v1.68c0,10.88-1.8,16.24-6.12,16.24a5.67,5.67,0,0,1-2.68-.72l1-2.6a2.63,2.63,0,0,0,1.52.48c2.12,0,3.16-4,3.16-14.36v-3.4Z"/><path class="j" d="M3539,294.94c4.4,0,7.28,2.4,7.28,6.52s-2.88,6.44-7.28,6.44h-7.76V287.5h3.36v7.44Zm-4.4,2.68v7.6h4c2.6,0,4.24-1.4,4.24-3.8s-1.64-3.8-4.24-3.8Z"/><path class="j" d="M3568.21,308.3a13.39,13.39,0,0,1-7.92-2.36l1.64-2.68a9.65,9.65,0,0,0,6,2c3.56,0,6-1.84,6-6,0-4.28-2.52-6-6.16-6h-1.2v-1.4l6-8.8v-.16h-11.32l.8-3h14.24v2.64l-5.64,8.36v.16c3.84.52,6.88,3.12,6.88,8.24C3577.49,305.46,3573.29,308.3,3568.21,308.3Z"/><path class="j" d="M3587.45,292.74a7.37,7.37,0,0,1,5.4-2.24c4.52,0,7.84,3.24,7.84,8.88s-3.72,8.92-8.92,8.92c-5.64,0-8.88-4.24-8.88-10.52a19.3,19.3,0,0,1,14.24-18.28l1.16,2.44c-4.8,1.72-9.4,5.32-11,10.72Zm4.32,12.52c3.2,0,5.36-2,5.36-5.88s-2.16-5.84-5.36-5.84c-2.4,0-4.44,1.76-5.44,4.24C3586.33,302.26,3588.17,305.26,3591.77,305.26Z"/><path class="j" d="M3618.73,279.9l-10.2,17.88v.16h7.36v-5.48h3.4v5.48h4.8l-.8,3h-4v7h-3.4v-7h-11.6v-2.6l10.52-18.44Z"/><path class="j" d="M3654.73,307.9h-3.36V290.18h-8.92V307.9h-3.36V287.5h15.64Z"/><path class="j" d="M3659.13,287.5H3676l-.8,2.68h-6.08V307.9h-3.32V290.18h-6.68Z"/><path class="j" d="M3457.49,332.94v25H3454v-25h-8.52v-3h20.6l-.8,3Z"/><path class="j" d="M3469.41,356.86v9l-3.36.8V337.5h2.16l.8,2.56h.16a8.07,8.07,0,0,1,6.4-3c5.24,0,8,4.32,8,10.6,0,6.08-2.52,10.6-8.6,10.6A10.78,10.78,0,0,1,3469.41,356.86Zm10.76-9.16c0-4.68-2-7.92-5.64-7.92a6.9,6.9,0,0,0-5.12,3v11a8.36,8.36,0,0,0,5.12,1.84C3478.21,355.62,3480.17,352.74,3480.17,347.7Z"/><path class="j" d="M3491.53,348.66c.32,4.44,2.4,7,6.44,7a10.79,10.79,0,0,0,5.24-1.44l1.16,2.4a13.83,13.83,0,0,1-6.8,1.72c-5.68,0-9.56-3.92-9.56-10.6,0-6.32,3.24-10.6,9-10.6,5.48,0,8.2,3.2,8.2,8.2a17.19,17.19,0,0,1-.36,3.36Zm0-2.44h10.52a7.08,7.08,0,0,0,0-.92c0-3.2-1.68-5.52-5-5.52S3491.73,342.42,3491.53,346.22Z"/><path class="j" d="M3514.17,348.74v9.16h-3.36V337.5h3.36v8.56h2.88l5.88-8.56h3.6l-6.76,9.84,7.16,10.56-3.44.4-6.48-9.56Z"/><path class="j" d="M3530.93,357.9V337.5h3.36v14.68h.16l10.6-14.68H3548v20.4h-3.36V343.14h-.16l-10.6,14.76Z"/><path class="j" d="M3570.73,357.9h-3.36v-9.16h-9.24v9.16h-3.36V337.5h3.36v8.56h9.24V337.5h3.36Z"/><path class="j" d="M3589.85,337.5l-.8,2.68h-8.16V357.9h-3.36V337.5Z"/><path class="j" d="M3607.61,342.74a7.37,7.37,0,0,1,5.4-2.24c4.52,0,7.84,3.24,7.84,8.88s-3.72,8.92-8.92,8.92c-5.64,0-8.88-4.24-8.88-10.52a19.3,19.3,0,0,1,14.24-18.28l1.16,2.44c-4.8,1.72-9.4,5.32-11,10.72Zm4.32,12.52c3.2,0,5.36-2,5.36-5.88s-2.16-5.84-5.36-5.84c-2.4,0-4.44,1.76-5.44,4.24C3606.49,352.26,3608.33,355.26,3611.93,355.26Z"/><path class="j" d="M3634.25,358.3c-6.16,0-9.6-4.92-9.6-14.4s3.44-14.4,9.6-14.4,9.6,4.92,9.6,14.4S3640.41,358.3,3634.25,358.3Zm0-3c3.68,0,6-3.36,6-11.36s-2.36-11.36-6-11.36-6,3.36-6,11.36S3630.57,355.26,3634.25,355.26Z"/><path class="j" d="M3451.65,407.9h-3.4v-28h3.52v21.92h.16l14.12-21.92h3.4v28h-3.52V386.06h-.16Z"/><path class="j" d="M3492.61,407.9h-3.36v-9.16H3480v9.16h-3.36V387.5H3480v8.56h9.24V387.5h3.36Z"/><path class="j" d="M3497,387.5h16.88l-.8,2.68H3507V407.9h-3.32V390.18H3497Z"/><path class="j" d="M3519.81,398.66c.32,4.44,2.4,7,6.44,7a10.79,10.79,0,0,0,5.24-1.44l1.16,2.4a13.83,13.83,0,0,1-6.8,1.72c-5.68,0-9.56-3.92-9.56-10.6,0-6.32,3.24-10.6,9-10.6,5.48,0,8.2,3.2,8.2,8.2a17.19,17.19,0,0,1-.36,3.36Zm0-2.44h10.52a7.08,7.08,0,0,0,0-.92c0-3.2-1.68-5.52-5-5.52S3520,392.42,3519.81,396.22Z"/><path class="j" d="M3542.45,406.86v9l-3.36.8V387.5h2.16l.8,2.56h.16a8.07,8.07,0,0,1,6.4-3c5.24,0,8,4.32,8,10.6,0,6.08-2.52,10.6-8.6,10.6A10.78,10.78,0,0,1,3542.45,406.86Zm10.76-9.16c0-4.68-2-7.92-5.64-7.92a6.9,6.9,0,0,0-5.12,3v11a8.36,8.36,0,0,0,5.12,1.84C3551.25,405.62,3553.21,402.74,3553.21,397.7Z"/><path class="j" d="M3577.73,387.5v20.4h-3.36V390.18h-6.32v1.68c0,10.88-1.8,16.24-6.12,16.24a5.67,5.67,0,0,1-2.68-.72l1-2.6a2.63,2.63,0,0,0,1.52.48c2.12,0,3.16-4,3.16-14.36v-3.4Z"/><path class="j" d="M3584.53,407.9V387.5h3.36v14.68h.16l10.6-14.68h2.92v20.4h-3.36V393.14h-.16l-10.6,14.76Z"/><path class="j" d="M3624.33,407.9H3621v-9.16h-9.24v9.16h-3.36V387.5h3.36v8.56H3621V387.5h3.36Z"/><path class="j" d="M3638.89,394.94c4.4,0,7.28,2.4,7.28,6.52s-2.88,6.44-7.28,6.44h-7.76V387.5h3.36v7.44Zm-4.4,2.68v7.6h4c2.6,0,4.24-1.4,4.24-3.8s-1.64-3.8-4.24-3.8Z"/><path class="j" d="M3665.05,387.5v20.4h-3.36v-7.4h-4.24l-4.52,7.4h-4l5.16-8a6,6,0,0,1-3.8-5.92c0-4,2.68-6.52,7.08-6.52Zm-7.24,2.68a3.84,3.84,0,1,0,0,7.68h3.88v-7.68Z"/><path class="j" d="M3692.09,387.5h3.36l-6.44,9.84,6.84,10.56-3.48.4-6-9.56h-2.16v9.16h-3.24v-9.16h-2.16L3673,407.9h-3.76l6.84-10.56-6.44-9.84H3673l5.6,8.56h2.32V387.5h3.24v8.56h2.32Z"/><path class="j" d="M3717.17,408.3a13.39,13.39,0,0,1-7.92-2.36l1.64-2.68a9.65,9.65,0,0,0,6,2c3.56,0,6-1.84,6-6,0-4.28-2.52-6-6.16-6h-1.2v-1.4l6-8.8v-.16h-11.32l.8-3h14.24v2.64l-5.64,8.36v.16c3.84.52,6.88,3.12,6.88,8.24C3726.45,405.46,3722.25,408.3,3717.17,408.3Z"/><path class="j" d="M3736.41,392.74a7.37,7.37,0,0,1,5.4-2.24c4.52,0,7.84,3.24,7.84,8.88s-3.72,8.92-8.92,8.92c-5.64,0-8.88-4.24-8.88-10.52a19.3,19.3,0,0,1,14.24-18.28l1.16,2.44c-4.8,1.72-9.4,5.32-11,10.72Zm4.32,12.52c3.2,0,5.36-2,5.36-5.88s-2.16-5.84-5.36-5.84c-2.4,0-4.44,1.76-5.44,4.24C3735.29,402.26,3737.13,405.26,3740.73,405.26Z"/><path class="j" d="M3754.25,400.46a8.28,8.28,0,0,1,4.64-7.28v-.12a7.14,7.14,0,0,1-3.76-6.4c0-4.36,3-7.16,7.92-7.16s7.92,2.8,7.92,7.16c0,3.08-1.72,5.12-3.76,6.6v.12a8,8,0,0,1,4.64,7.08c0,5-3.32,7.84-8.8,7.84S3754.25,405.5,3754.25,400.46Zm9.8-5.12-2.36-1c-2.56,1.52-4.08,3.68-4.08,6.12,0,3.48,2.16,4.8,5.44,4.8s5.44-1.52,5.44-4.8C3768.49,398.06,3766.37,396.3,3764.05,395.34Zm.28-3.08a7.09,7.09,0,0,0,3.28-5.6c0-2.68-2-4.12-4.56-4.12s-4.56,1.44-4.56,4.12c0,2.4,1.64,3.88,3.6,4.68Z"/><path class="i" d="M3451.13,885.72v-3.84h4.6V861.56h-4.6v-3.83h13.72l-.8,3.83h-4v20.32h4.6v3.84Z"/><path class="i" d="M3476.93,873.6c3,.84,6.32,2.6,6.32,6.36s-2.92,6.16-7.52,6.16a17,17,0,0,1-6.88-1.4l1.4-3.28a13.21,13.21,0,0,0,5.36,1.2c2.36,0,3.48-1,3.48-2.48,0-2.08-2-2.8-4.32-3.48-2.44-.72-5.48-2.28-5.48-6.24,0-3.6,2.84-5.52,7.12-5.52a15.06,15.06,0,0,1,6.36,1.4l-1.36,3.12a13,13,0,0,0-4.72-1c-2.2,0-3.24.84-3.24,2.24C3473.45,872.36,3474.73,873,3476.93,873.6Z"/><path class="i" d="M3504.08,876.48h-12.95c.28,4,2.36,6.16,6,6.16a11.25,11.25,0,0,0,5.07-1.4l1.36,3.16a14.84,14.84,0,0,1-6.83,1.72c-6,0-9.92-3.92-9.92-10.6s3.68-10.6,9.2-10.6,8.39,3.2,8.39,8.2A17.19,17.19,0,0,1,3504.08,876.48Zm-12.79-3.24h9.44c0-2.8-1.52-4.84-4.6-4.84C3493.37,868.4,3491.65,870.36,3491.29,873.24Z"/><path class="i" d="M3521.49,885.4a14,14,0,0,1-4.36.72c-3.68,0-6.4-1.68-6.4-6.44V868.8h-3.48v-3.48h3.48V859.8l4.16-.79v6.31h6.16l-.8,3.48h-5.36v11.08a2.44,2.44,0,0,0,2.72,2.76,11.29,11.29,0,0,0,3.28-.56Z"/><path class="i" d="M3548.6,878.48c0-2.76-2.68-4.28-5.75-5.48-3.6-1.4-7.72-3.44-7.72-8.08s3.4-7.59,9.08-7.59a15.83,15.83,0,0,1,8,2.16l-2,3.39a10.67,10.67,0,0,0-5.95-1.72c-3,0-4.6,1.24-4.6,3.52s2.76,3.76,5.2,4.72c4.39,1.72,8.27,3.64,8.27,8.84,0,5-3.48,7.88-9.75,7.88a15.28,15.28,0,0,1-8.84-2.48l2.28-3.52a10.42,10.42,0,0,0,6.56,2.16C3546.45,882.28,3548.6,881.08,3548.6,878.48Z"/><path class="i" d="M3568.72,873.72v-1.36c0-2.44-1-4-4-4a16.09,16.09,0,0,0-5.51,1.08l-1.2-3.24a20,20,0,0,1,7.19-1.32c6.24,0,7.72,3.28,7.72,7.52V881a1.29,1.29,0,0,0,1.44,1.44h.44v3.08a7.35,7.35,0,0,1-2.4.4,3.16,3.16,0,0,1-3.24-2.36H3569a7.45,7.45,0,0,1-5.75,2.36c-3.88,0-6.32-1.92-6.32-6.08,0-3.88,3.2-6.12,7.72-6.12Zm-4.27,3.24c-2,0-3.44,1.12-3.44,3s1.36,2.72,3,2.72a5.92,5.92,0,0,0,4.71-2.52V877Z"/><path class="i" d="M3583.32,885.72h-4.15v-20.4h3l.79,2.16h.16a7.36,7.36,0,0,1,5.76-2.56c4.56,0,6.72,2.68,6.72,8v12.76h-4.16V873.24c0-3.36-1.16-4.84-3.56-4.84-1.6,0-3.44,1.32-4.52,2.84Z"/><path class="i" d="M3608.24,873.6c3,.84,6.32,2.6,6.32,6.36s-2.92,6.16-7.51,6.16a17,17,0,0,1-6.88-1.4l1.4-3.28a13.2,13.2,0,0,0,5.35,1.2c2.36,0,3.48-1,3.48-2.48,0-2.08-2-2.8-4.31-3.48-2.44-.72-5.48-2.28-5.48-6.24,0-3.6,2.84-5.52,7.11-5.52a15.06,15.06,0,0,1,6.36,1.4l-1.36,3.12a13,13,0,0,0-4.72-1c-2.19,0-3.23.84-3.23,2.24C3604.77,872.36,3606.05,873,3608.24,873.6Z"/><path class="i" d="M3647.44,866c0,4.32-2.4,6.92-5.8,7.84l7.32,11.84-4.68.4L3637,874.28h-2.48v11.44h-4.31v-28h8.51C3643.52,857.73,3647.44,860.56,3647.44,866Zm-13-4.48v8.88h4A4.18,4.18,0,0,0,3643,866a4.24,4.24,0,0,0-4.48-4.48Z"/><path class="i" d="M3668.6,876.48h-13c.28,4,2.36,6.16,6,6.16a11.32,11.32,0,0,0,5.08-1.4l1.36,3.16a14.92,14.92,0,0,1-6.84,1.72c-6,0-9.91-3.92-9.91-10.6s3.68-10.6,9.19-10.6,8.4,3.2,8.4,8.2A17.19,17.19,0,0,1,3668.6,876.48Zm-12.8-3.24h9.44c0-2.8-1.52-4.84-4.6-4.84C3657.88,868.4,3656.16,870.36,3655.8,873.24Z"/><path class="i" d="M3681.92,879.24a11.35,11.35,0,0,1-3.44-.48,1.66,1.66,0,0,0-.64,1.24c0,.88.48,1.48,1.6,1.68l5.72.92c2.6.44,5.92,1.8,5.92,5.6,0,4.36-4,6.32-9.24,6.32-5.88,0-9.07-2.08-9.07-5.68a5.58,5.58,0,0,1,2.71-4.72,3.51,3.51,0,0,1-1.56-3.12,4.53,4.53,0,0,1,2.08-3.52,6.72,6.72,0,0,1-2.39-5.4c0-4.48,3.31-7.16,8.31-7.16a11.15,11.15,0,0,1,4,.72l6.36-1.52-.8,3.88H3689a7.12,7.12,0,0,1,1.2,4.08C3690.24,876.56,3686.92,879.24,3681.92,879.24Zm-5.36,8.88c0,1.8,1.6,2.92,5.28,2.92s5-1.2,5-2.76c0-1.32-1.08-2-3.24-2.36l-5.16-.8A3.43,3.43,0,0,0,3676.56,888.12Zm1.08-16c0,2.16,1.4,3.76,4.28,3.76s4.28-1.6,4.28-3.76-1.4-3.76-4.28-3.76S3677.64,869.92,3677.64,872.08Z"/><path class="i" d="M3708.52,865.32h4.16v20.4h-3l-.8-2.16h-.16a7.94,7.94,0,0,1-6,2.56c-4.36,0-7-2.56-7-8.32V865.32h4.16V877.8c0,3.36,1.48,4.84,3.88,4.84a6.88,6.88,0,0,0,4.8-2.84Z"/><path class="i" d="M3727.48,885.52a9.12,9.12,0,0,1-3.4.6c-3.4,0-5.2-1.76-5.2-5.68V856.53l4.16-.8v24.71c0,1.52.6,2.2,1.72,2.2a5.55,5.55,0,0,0,2.08-.4Z"/><path class="i" d="M3741.52,873.72v-1.36c0-2.44-1-4-4-4a16.1,16.1,0,0,0-5.52,1.08l-1.2-3.24a20,20,0,0,1,7.2-1.32c6.24,0,7.72,3.28,7.72,7.52V881a1.29,1.29,0,0,0,1.44,1.44h.44v3.08a7.35,7.35,0,0,1-2.4.4,3.16,3.16,0,0,1-3.24-2.36h-.16a7.45,7.45,0,0,1-5.76,2.36c-3.88,0-6.32-1.92-6.32-6.08,0-3.88,3.2-6.12,7.72-6.12Zm-4.28,3.24c-2,0-3.44,1.12-3.44,3s1.36,2.72,3,2.72a5.94,5.94,0,0,0,4.72-2.52V877Z"/><path class="i" d="M3762.32,869.2a4.86,4.86,0,0,0-2.12-.4c-2.16,0-3.72,2.2-4.08,4.72v12.2H3752v-20.4h3l.8,3.16h.16c1-2.08,2.36-3.56,5.2-3.56a9.07,9.07,0,0,1,2.6.4Z"/><path class="j" d="M3459.09,919.72l8.8-12h4L3462.33,921l10.39,14.76-3.91.4-9.72-13.36h-3v13h-3.52v-28h3.52v12Z"/><path class="j" d="M3478.25,926.48c.32,4.44,2.4,7,6.44,7a10.79,10.79,0,0,0,5.24-1.44l1.16,2.4a13.83,13.83,0,0,1-6.8,1.72c-5.68,0-9.56-3.92-9.56-10.6,0-6.32,3.24-10.6,9-10.6,5.48,0,8.2,3.2,8.2,8.2a17.19,17.19,0,0,1-.36,3.36Zm0-2.44h10.52a7.08,7.08,0,0,0,0-.92c0-3.2-1.68-5.52-5-5.52S3478.45,920.24,3478.25,924Z"/><path class="j" d="M3509.85,915.32l-.8,2.68h-8.16v17.72h-3.36v-20.4Z"/><path class="j" d="M3528.73,915.32v20.4h-3.36V918h-6.32v1.68c0,10.88-1.8,16.24-6.12,16.24a5.67,5.67,0,0,1-2.68-.72l1-2.6a2.63,2.63,0,0,0,1.52.48c2.12,0,3.16-4,3.16-14.36v-3.4Z"/><path class="j" d="M3543.29,922.76c4.4,0,7.28,2.4,7.28,6.52s-2.88,6.44-7.28,6.44h-7.76v-20.4h3.36v7.44Zm-4.4,2.68V933h4c2.6,0,4.24-1.4,4.24-3.8s-1.64-3.8-4.24-3.8Z"/><path class="j" d="M3573.05,910.37a12.29,12.29,0,0,0-6.12,2l-1.48-2.67c3.12-1.64,5.08-2.36,8.36-2.36,4.91,0,7.55,2.8,7.55,7.67,0,6.72-6.59,13.68-11.39,17.52v.16h12.19l-.8,3H3565v-2.64c5.64-4.4,12.83-11.56,12.83-17.76C3577.8,912.16,3576.45,910.37,3573.05,910.37Z"/><path class="j" d="M3596,936.12c-6.16,0-9.6-4.92-9.6-14.4s3.44-14.39,9.6-14.39,9.59,4.91,9.59,14.39S3602.12,936.12,3596,936.12Zm0-3c3.68,0,6-3.36,6-11.36s-2.36-11.35-6-11.35-6,3.35-6,11.35S3592.29,933.08,3596,933.08Z"/><path class="j" d="M3617.85,910.37a12.29,12.29,0,0,0-6.12,2l-1.48-2.67c3.12-1.64,5.08-2.36,8.36-2.36,4.91,0,7.55,2.8,7.55,7.67,0,6.72-6.59,13.68-11.39,17.52v.16H3627l-.8,3h-16.39v-2.64c5.64-4.4,12.83-11.56,12.83-17.76C3622.6,912.16,3621.24,910.37,3617.85,910.37Z"/><path class="j" d="M3659,935.72h-3.36V918h-8.91v17.72h-3.36v-20.4H3659Z"/><path class="j" d="M3663.41,915.32h16.87l-.8,2.68h-6.08v17.72h-3.31V918h-6.68Z"/><path class="j" d="M3696.13,921.08a2.44,2.44,0,1,1-2.44,2.44A2.48,2.48,0,0,1,3696.13,921.08Z"/><path class="j" d="M3724.2,910.76v25h-3.52v-25h-8.51v-3h20.59l-.8,3Z"/><path class="j" d="M3736.12,934.68v9l-3.35.8v-29.2h2.15l.8,2.56h.16a8.07,8.07,0,0,1,6.4-3c5.24,0,8,4.32,8,10.6,0,6.08-2.52,10.6-8.6,10.6A10.78,10.78,0,0,1,3736.12,934.68Zm10.76-9.16c0-4.68-2-7.92-5.64-7.92a6.9,6.9,0,0,0-5.12,3v11a8.36,8.36,0,0,0,5.12,1.84C3744.92,933.44,3746.88,930.56,3746.88,925.52Z"/><path class="j" d="M3758.24,926.48c.32,4.44,2.4,7,6.44,7a10.79,10.79,0,0,0,5.24-1.44l1.16,2.4a13.83,13.83,0,0,1-6.8,1.72c-5.68,0-9.55-3.92-9.55-10.6,0-6.32,3.23-10.6,9-10.6,5.48,0,8.2,3.2,8.2,8.2a17.19,17.19,0,0,1-.36,3.36Zm0-2.44h10.52a7.08,7.08,0,0,0,0-.92c0-3.2-1.68-5.52-5-5.52S3758.44,920.24,3758.24,924Z"/><path class="j" d="M3780.88,926.56v9.16h-3.36v-20.4h3.36v8.56h2.88l5.88-8.56h3.6l-6.76,9.84,7.16,10.56-3.44.4-6.48-9.56Z"/><path class="j" d="M3797.64,935.72v-20.4H3801V930h.16l10.6-14.68h2.92v20.4h-3.36V921h-.16l-10.6,14.76Z"/><path class="j" d="M3837.44,935.72h-3.36v-9.16h-9.24v9.16h-3.36v-20.4h3.36v8.56h9.24v-8.56h3.36Z"/><path class="j" d="M3856.56,915.32l-.8,2.68h-8.16v17.72h-3.36v-20.4Z"/><path class="j" d="M3882.8,922.88a7.37,7.37,0,0,1-5.4,2.24c-4.52,0-7.84-3.24-7.84-8.88s3.72-8.91,8.92-8.91c5.64,0,8.88,4.23,8.88,10.51a19.23,19.23,0,0,1-14.16,18.28l-1.24-2.44c4.72-1.88,9.4-5.32,11-10.72Zm-4.32-12.51c-3.2,0-5.36,2-5.36,5.87s2.16,5.84,5.36,5.84c2.4,0,4.44-1.76,5.44-4.24C3883.92,913.36,3882.08,910.37,3878.48,910.37Z"/><path class="j" d="M3909.56,926.8c0,6.16-3.92,9.32-9.16,9.32a13.59,13.59,0,0,1-8-2.36l1.6-2.68a10.22,10.22,0,0,0,6.16,2c3.36,0,5.88-2.08,5.88-6.28s-2.72-6.28-6.32-6.28a19.26,19.26,0,0,0-5.72,1V907.73h14.56l-.8,3h-10.36V918a15,15,0,0,1,3.2-.32C3905.8,917.64,3909.56,920.8,3909.56,926.8Z"/><path class="h" d="M4130.68,637.23l-10,17.48v.16H4127v-5.08h4.2v5.08h4.6l-.8,3.8h-3.8v6.56H4127v-6.56h-11.39v-3.4l10.31-18Z"/><path class="h" d="M4144.6,661.39H4156l-.8,3.84h-16.8v-3.44c5.48-4.12,12.44-11.4,12.44-16.76,0-2.68-1.32-4.36-4.16-4.36a10.84,10.84,0,0,0-5.87,1.88l-1.92-3.36a15.89,15.89,0,0,1,8.55-2.36c4.92,0,7.76,2.8,7.76,7.68,0,6.16-5.72,12.84-10.6,16.72Z"/><path class="h" d="M4168.76,665.63c-6.15,0-9.79-4.92-9.79-14.4s3.64-14.4,9.79-14.4,9.8,4.92,9.8,14.4S4174.92,665.63,4168.76,665.63Zm0-3.84c3.2,0,5.44-3.12,5.44-10.56s-2.24-10.56-5.44-10.56-5.44,3.12-5.44,10.56S4165.56,661.79,4168.76,661.79Z"/><path class="h" d="M4001.83,21.68c0-3.76-2.68-5.72-5.84-5.72a14.14,14.14,0,0,0-5.8,1.2V2.69h15l-.8,3.84h-10v6a13.67,13.67,0,0,1,2.48-.24c5.12,0,9.32,3,9.32,9.39,0,6.16-4.4,9.4-9.48,9.4a14,14,0,0,1-8.12-2.36l2-3.36a9.67,9.67,0,0,0,5.8,1.88C3999.35,27.24,4001.83,25.44,4001.83,21.68Z"/><path class="h" d="M4019,31.08c-6.16,0-9.8-4.92-9.8-14.4s3.64-14.39,9.8-14.39,9.8,4.92,9.8,14.39S4025.11,31.08,4019,31.08Zm0-3.84c3.2,0,5.44-3.12,5.44-10.56S4022.15,6.13,4019,6.13s-5.44,3.12-5.44,10.55S4015.75,27.24,4019,27.24Z"/><rect class="k" x="3937.31" y="58.69" width="141.73" height="1190.55"/><rect class="l" x="981" y="200.64" width="99.21" height="254.91"/><path class="h" d="M177.48,19.76c0-3.76-2.68-5.72-5.84-5.72a14.14,14.14,0,0,0-5.8,1.2V.76h15L180,4.6H170v6a13.67,13.67,0,0,1,2.48-.24c5.12,0,9.32,3,9.32,9.4,0,6.16-4.4,9.39-9.48,9.39a14,14,0,0,1-8.12-2.36l2-3.35a9.67,9.67,0,0,0,5.8,1.88C175,25.32,177.48,23.52,177.48,19.76Z"/><path class="h" d="M194.6,29.15c-6.16,0-9.8-4.91-9.8-14.39S188.44.36,194.6.36s9.8,4.92,9.8,14.4S200.76,29.15,194.6,29.15Zm0-3.83c3.2,0,5.44-3.12,5.44-10.56S197.8,4.2,194.6,4.2s-5.44,3.12-5.44,10.56S191.4,25.32,194.6,25.32Z"/><path class="h" d="M53.1,132.44c0-3.76-2.68-5.72-5.84-5.72a14.14,14.14,0,0,0-5.8,1.2V113.44h15l-.8,3.84h-10v6a13.67,13.67,0,0,1,2.48-.24c5.12,0,9.32,3,9.32,9.4,0,6.16-4.4,9.4-9.48,9.4a14,14,0,0,1-8.12-2.36l2-3.36A9.67,9.67,0,0,0,47.7,138C50.62,138,53.1,136.2,53.1,132.44Z"/><path class="h" d="M70.22,141.84c-6.16,0-9.8-4.92-9.8-14.4s3.64-14.4,9.8-14.4S80,118,80,127.44,76.38,141.84,70.22,141.84Zm0-3.84c3.2,0,5.44-3.12,5.44-10.56s-2.24-10.56-5.44-10.56-5.44,3.12-5.44,10.56S67,138,70.22,138Z"/><path class="h" d="M53.7,494.08l-10,17.48v.16h6.36v-5.08h4.2v5.08h4.6l-.8,3.79h-3.8v6.56h-4.2v-6.56H38.66v-3.39l10.32-18Z"/><path class="h" d="M70.22,522.47c-6.16,0-9.8-4.92-9.8-14.39s3.64-14.4,9.8-14.4,9.8,4.92,9.8,14.4S76.38,522.47,70.22,522.47Zm0-3.84c3.2,0,5.44-3.12,5.44-10.55s-2.24-10.56-5.44-10.56-5.44,3.12-5.44,10.56S67,518.63,70.22,518.63Z"/><path class="h" d="M44.74,907.71a7.32,7.32,0,0,1,5.08-1.92c4.52,0,8,2.92,8,8.8,0,5.71-3.92,9-9.12,9-5.64,0-9.08-4.24-9.08-10.51,0-9.68,6-15.88,14.32-18.28l1.48,3.2c-4.6,1.64-9.36,4.56-10.84,9.64Zm4,12c2.72,0,4.76-1.84,4.76-5.15s-2-5-4.76-5a5.36,5.36,0,0,0-4.84,3.44C43.9,917.06,45.66,919.74,48.74,919.74Z"/><path class="h" d="M70.22,923.58c-6.16,0-9.8-4.92-9.8-14.39s3.64-14.4,9.8-14.4,9.8,4.92,9.8,14.4S76.38,923.58,70.22,923.58Zm0-3.84c3.2,0,5.44-3.12,5.44-10.55s-2.24-10.56-5.44-10.56-5.44,3.12-5.44,10.56S67,919.74,70.22,919.74Z"/><path class="h" d="M53.7,1177.49,43.7,1195v.16h6.36v-5.07h4.2v5.07h4.6l-.8,3.8h-3.8v6.56h-4.2v-6.56H38.66v-3.4l10.32-18Z"/><path class="h" d="M70.22,1205.88c-6.16,0-9.8-4.92-9.8-14.39s3.64-14.4,9.8-14.4,9.8,4.92,9.8,14.4S76.38,1205.88,70.22,1205.88Zm0-3.84c3.2,0,5.44-3.12,5.44-10.55s-2.24-10.56-5.44-10.56-5.44,3.12-5.44,10.56S67,1202,70.22,1202Z"/><path class="i" d="M52.58,695.29A7.19,7.19,0,0,1,47.5,697c-4.76,0-8-3.16-8-8.8,0-5.48,3.88-9,9.12-9,5.64,0,9.08,3.8,9.08,10.28,0,10-5.6,16.11-13.88,18.51l-1.52-3.28c4.76-1.79,9.12-4.51,10.44-9.35Zm-4-12.24c-2.72,0-4.8,1.84-4.8,5.16s2.08,5.16,4.8,5.16a5.4,5.4,0,0,0,4.84-3.48C53.42,685.89,51.66,683.05,48.58,683.05Z"/><path class="i" d="M70.22,708c-6.16,0-9.8-4.91-9.8-14.39s3.64-14.4,9.8-14.4,9.8,4.92,9.8,14.4S76.38,708,70.22,708Zm0-3.84c3.2,0,5.44-3.11,5.44-10.55s-2.24-10.56-5.44-10.56-5.44,3.12-5.44,10.56S67,704.16,70.22,704.16Z"/><path class="i" d="M53.1,1067.94c0-3.76-2.68-5.72-5.84-5.72a14.14,14.14,0,0,0-5.8,1.2v-14.48h15l-.8,3.84h-10v6a13.67,13.67,0,0,1,2.48-.24c5.12,0,9.32,3,9.32,9.4,0,6.16-4.4,9.4-9.48,9.4a14,14,0,0,1-8.12-2.36l2-3.36a9.67,9.67,0,0,0,5.8,1.88C50.62,1073.5,53.1,1071.7,53.1,1067.94Z"/><path class="i" d="M70.22,1077.34c-6.16,0-9.8-4.92-9.8-14.4s3.64-14.4,9.8-14.4,9.8,4.92,9.8,14.4S76.38,1077.34,70.22,1077.34Zm0-3.84c3.2,0,5.44-3.12,5.44-10.56s-2.24-10.56-5.44-10.56-5.44,3.12-5.44,10.56S67,1073.5,70.22,1073.5Z"/><path class="i" d="M1026.48,326.53c0,6.16-4.4,9-9.48,9a14,14,0,0,1-8.12-2.36l2-3.36a9.67,9.67,0,0,0,5.8,1.88c3.08,0,5.4-1.6,5.4-5.16,0-3.72-2.4-5.2-5.56-5.2h-2.08v-2.16l6-8V311H1009.8l.8-3.84h14.64v3.44l-5.72,7.6v.12C1023.28,319,1026.48,321.13,1026.48,326.53Z"/><path class="i" d="M1044.08,326.17c0-3.76-2.68-5.72-5.84-5.72a14.14,14.14,0,0,0-5.8,1.2V307.17h15l-.8,3.84h-10v6a13.67,13.67,0,0,1,2.48-.24c5.12,0,9.32,3,9.32,9.4,0,6.16-4.4,9.4-9.48,9.4a14,14,0,0,1-8.12-2.36l2-3.36a9.67,9.67,0,0,0,5.8,1.88C1041.6,331.73,1044.08,329.93,1044.08,326.17Z"/><path class="i" d="M52.58,329.52a7.19,7.19,0,0,1-5.08,1.72c-4.76,0-8-3.16-8-8.8,0-5.48,3.88-9,9.12-9,5.64,0,9.08,3.8,9.08,10.28,0,10-5.6,16.12-13.88,18.52L42.26,339c4.76-1.8,9.12-4.52,10.44-9.36Zm-4-12.24c-2.72,0-4.8,1.84-4.8,5.16s2.08,5.16,4.8,5.16a5.4,5.4,0,0,0,4.84-3.48C53.42,320.12,51.66,317.28,48.58,317.28Z"/><path class="i" d="M70.22,342.24c-6.16,0-9.8-4.92-9.8-14.4s3.64-14.4,9.8-14.4,9.8,4.92,9.8,14.4S76.38,342.24,70.22,342.24Zm0-3.84c3.2,0,5.44-3.12,5.44-10.56s-2.24-10.56-5.44-10.56-5.44,3.12-5.44,10.56S67,338.4,70.22,338.4Z"/><rect class="k" x="112.02" y="59.01" width="141.73" height="1190.23"/><rect class="l" x="112.02" y="200.75" width="141.73" height="255.12"/><rect class="l" x="112.02" y="568.42" width="141.21" height="255.12"/><rect class="l" x="112.16" y="993.99" width="141.73" height="141.73"/></svg>