<svg xmlns="http://www.w3.org/2000/svg" xmlns:xlink="http://www.w3.org/1999/xlink" viewBox="0 0 2137.16 1482.2"><defs><style>.a{fill:#edf1f4;}.b,.d{fill:none;stroke:#edf1f4;stroke-miterlimit:10;}.b{stroke-width:86.82px;}.c{fill:#fff;}.d{stroke-width:70px;}.e{fill:#1c2843;}.f,.g{fill:#d7dde2;}.f{fill-rule:evenodd;}.h{fill:#a6b4bb;}.i{fill:url(#a);}.j{fill:url(#b);}</style><linearGradient id="a" x1="1068.58" x2="1068.58" y2="210.19" gradientUnits="userSpaceOnUse"><stop offset="0" stop-color="#fff"/><stop offset="0.15" stop-color="#fff" stop-opacity="0.99"/><stop offset="0.28" stop-color="#fff" stop-opacity="0.94"/><stop offset="0.4" stop-color="#fff" stop-opacity="0.87"/><stop offset="0.51" stop-color="#fff" stop-opacity="0.78"/><stop offset="0.63" stop-color="#fff" stop-opacity="0.65"/><stop offset="0.74" stop-color="#fff" stop-opacity="0.49"/><stop offset="0.85" stop-color="#fff" stop-opacity="0.3"/><stop offset="0.96" stop-color="#fff" stop-opacity="0.1"/><stop offset="1" stop-color="#fff" stop-opacity="0"/></linearGradient><linearGradient id="b" x1="1057.84" y1="861.42" x2="1057.84" y2="1314.97" gradientUnits="userSpaceOnUse"><stop offset="0" stop-color="#222c54"/><stop offset="0.76" stop-color="#1e2649"/><stop offset="1" stop-color="#1c2344"/></linearGradient></defs><rect class="a" width="2137.16" height="774.15"/><line class="b" x1="2137.16" y1="734.57" y2="734.57"/><path class="c" d="M366.74,0h1321.7a0,0,0,0,1,0,0V657.65a34,34,0,0,1-34,34H400.76a34,34,0,0,1-34-34V0A0,0,0,0,1,366.74,0Z"/><path class="c" d="M1762.3,0h372a2.83,2.83,0,0,1,2.83,2.83V691.67a0,0,0,0,1,0,0H1796.31a34,34,0,0,1-34-34V0A0,0,0,0,1,1762.3,0Z"/><path class="c" d="M0,0H282.6a0,0,0,0,1,0,0V657.65a34,34,0,0,1-34,34H0a0,0,0,0,1,0,0V0A0,0,0,0,1,0,0Z"/><line class="d" x1="1725.03" x2="1725.03" y2="781.15"/><rect class="e" x="1386.39" y="321.15" width="167.08" height="135.31" rx="8.5"/><path class="f" d="M1016.32,526.4h83a8.49,8.49,0,0,0,8.5-8.5V484.63a8.49,8.49,0,0,0-8.5-8.5h-22.74a8.51,8.51,0,0,1-8.5-8.51V415.25a8.5,8.5,0,0,1,8.5-8.5h22.74a8.5,8.5,0,0,0,8.5-8.51V365a8.5,8.5,0,0,0-8.5-8.5h-83a8.51,8.51,0,0,0-8.51,8.5V517.9A8.5,8.5,0,0,0,1016.32,526.4Z"/><rect class="g" x="530.07" y="546.38" width="216.61" height="110.11" rx="8.5"/><path class="f" d="M685.5,287.06H438.12c-9.84,0-13.64,3.28-13.64,11.78V645c0,8.51,3.8,11.79,13.64,11.79h46.41c9.84,0,13.64-3.28,13.64-11.79V362.49c0-8.5,3.8-11.78,13.64-11.78H685.5c9.85,0,13.65-3.28,13.65-11.78V298.84C699.15,290.34,695.35,287.06,685.5,287.06Z"/><rect class="g" x="788.48" y="226.92" width="83.81" height="299.48" rx="8.5"/><rect class="g" x="1179.15" y="226.92" width="105.85" height="299.48" rx="8.5"/><rect class="g" x="846.54" y="536.91" width="61.52" height="177.63" rx="8.5" transform="translate(1503.02 -251.57) rotate(90)"/><rect class="g" x="1141.78" y="467.65" width="61.52" height="315.4" rx="8.5" transform="translate(1797.88 -547.19) rotate(90)"/><path class="f" d="M1601.39,330.85V583.8c0,8.51-3.28,11.79-11.78,11.79h-185c-8.51,0-11.79,3.28-11.79,11.78v38c0,8.5,3.28,11.78,11.79,11.78h246.54c8.51,0,11.79-3.28,11.79-11.78V330.85c0-8.5-3.28-11.78-11.79-11.78h-38C1604.68,319.07,1601.39,322.35,1601.39,330.85Z"/><path class="f" d="M1848.88,330.85V583.8c0,8.51,3.28,11.79,11.78,11.79h185c8.51,0,11.79,3.28,11.79,11.78v38c0,8.5-3.28,11.78-11.79,11.78H1799.14c-8.51,0-11.79-3.28-11.79-11.78V330.85c0-8.5,3.28-11.78,11.79-11.78h37.95C1845.59,319.07,1848.88,322.35,1848.88,330.85Z"/><path class="h" d="M449.53,609.12v29h7.81v4.61h-21.7v-4.61h8.82V613.73h-8.1l1-4.61Z"/><path class="h" d="M477.68,627.94a8.67,8.67,0,0,1-6.12,2.06c-5.74,0-9.69-3.79-9.69-10.56,0-6.57,4.67-10.8,11-10.8,6.8,0,10.95,4.56,10.95,12.34,0,12-6.75,19.35-16.74,22.23l-1.83-3.94c5.74-2.16,11-5.43,12.59-11.23Zm-4.82-14.69c-3.28,0-5.79,2.21-5.79,6.19s2.51,6.2,5.79,6.2a6.52,6.52,0,0,0,5.84-4.18C478.7,616.66,476.57,613.25,472.86,613.25Z"/><path class="h" d="M848.86,638.12h13.75l-1,4.61H841.39V638.6c6.6-5,15-13.68,15-20.12,0-3.21-1.59-5.23-5-5.23a13.22,13.22,0,0,0-7.09,2.26l-2.31-4c3.86-2.06,6.36-2.83,10.32-2.83,5.93,0,9.35,3.36,9.35,9.22,0,7.39-6.9,15.41-12.78,20.06Z"/><path class="h" d="M882.52,609.12v29h7.81v4.61h-21.7v-4.61h8.82V613.73h-8.1l1-4.61Z"/><path class="h" d="M906.83,637.72h-7.12l-1.43,5h-5.43l7.84-24.53h5.15l7.85,24.53h-5.43ZM903.32,625h-.14l-2.14,8.1h4.45Z"/><path class="h" d="M615.68,638.12h13.75l-1,4.61H608.21V638.6c6.61-5,15-13.68,15-20.12,0-3.21-1.59-5.23-5-5.23a13.22,13.22,0,0,0-7.09,2.26l-2.31-4c3.86-2.06,6.36-2.83,10.32-2.83,5.93,0,9.35,3.36,9.35,9.22,0,7.39-6.89,15.41-12.78,20.06Z"/><path class="h" d="M649.29,609.12v29h7.81v4.61H635.4v-4.61h8.83V613.73h-8.1l1-4.61Z"/><path class="h" d="M1156,638.12h13.74l-1,4.61h-20.25V638.6c6.6-5,15-13.68,15-20.12,0-3.21-1.59-5.23-5-5.23a13.22,13.22,0,0,0-7.09,2.26l-2.31-4c3.85-2.06,6.36-2.83,10.31-2.83,5.94,0,9.36,3.36,9.36,9.22,0,7.39-6.9,15.41-12.78,20.06Z"/><path class="h" d="M1196.16,632.36c0,7.39-5.3,10.85-11.42,10.85a17,17,0,0,1-9.79-2.84l2.46-4a11.63,11.63,0,0,0,7,2.26c3.71,0,6.51-1.92,6.51-6.2,0-4.46-2.9-6.24-6.7-6.24h-2.51v-2.59l7.23-9.65v-.19h-12.87l1-4.61h17.65v4.13l-6.9,9.12v.15C1192.31,623.28,1196.16,625.88,1196.16,632.36Z"/><path class="h" d="M1509.61,638.12h13.74l-1,4.61h-20.25V638.6c6.6-5,15-13.68,15-20.12,0-3.21-1.59-5.23-5-5.23a13.17,13.17,0,0,0-7.09,2.26l-2.32-4c3.86-2.06,6.37-2.83,10.32-2.83,5.93,0,9.36,3.36,9.36,9.22,0,7.39-6.9,15.41-12.78,20.06Z"/><path class="h" d="M1545.05,631.92c0-4.51-3.23-6.86-7-6.86a17.09,17.09,0,0,0-7,1.44V609.12h18l-1,4.61h-12v7.2a16.69,16.69,0,0,1,3-.29c6.17,0,11.23,3.65,11.23,11.28,0,7.4-5.3,11.29-11.42,11.29a17,17,0,0,1-9.79-2.84l2.46-4a11.63,11.63,0,0,0,7,2.26C1542.06,638.6,1545.05,636.44,1545.05,631.92Z"/><path class="c" d="M1441.79,391.73h11.4l-.8,3.84h-16.8v-3.44c5.48-4.12,12.44-11.4,12.44-16.75,0-2.68-1.32-4.36-4.16-4.36a10.9,10.9,0,0,0-5.88,1.88l-1.92-3.36a16,16,0,0,1,8.56-2.36c4.92,0,7.76,2.8,7.76,7.68,0,6.15-5.72,12.83-10.6,16.71Z"/><path class="c" d="M1471.19,386.57c0-3.76-2.68-5.72-5.84-5.72a14.14,14.14,0,0,0-5.8,1.2V367.58h15l-.8,3.84h-10v6a12.83,12.83,0,0,1,2.48-.24c5.12,0,9.32,3,9.32,9.39,0,6.16-4.4,9.4-9.48,9.4a14,14,0,0,1-8.12-2.36l2-3.36a9.67,9.67,0,0,0,5.8,1.88C1468.71,392.13,1471.19,390.33,1471.19,386.57Z"/><path class="c" d="M1487.87,373.13h3.39l-10.84,25.06H1477Z"/><path class="c" d="M1501,375.13v17.05h4.59v3.39H1492.1v-3.39h5.2V378.52h-4.76l.58-3.39Z"/><path class="h" d="M1907.7,638.12h13.74l-1,4.61h-20.25V638.6c6.6-5,15-13.68,15-20.12,0-3.21-1.59-5.23-5-5.23a13.2,13.2,0,0,0-7.09,2.26l-2.32-4c3.86-2.06,6.37-2.83,10.32-2.83,5.93,0,9.36,3.36,9.36,9.22,0,7.39-6.9,15.41-12.78,20.06Z"/><path class="h" d="M1943.28,613.73H1926.7l1-4.61h21v4.13l-11.76,29.48h-5.5Z"/><path class="h" d="M1195.54,391.73h11.4l-.8,3.84h-16.8v-3.44c5.48-4.12,12.44-11.4,12.44-16.75,0-2.68-1.32-4.36-4.16-4.36a10.9,10.9,0,0,0-5.88,1.88l-1.92-3.36a16,16,0,0,1,8.56-2.36c4.92,0,7.76,2.8,7.76,7.68,0,6.15-5.72,12.83-10.6,16.71Z"/><path class="h" d="M1228.94,386.93c0,6.16-4.4,9-9.48,9a14,14,0,0,1-8.12-2.36l2-3.36a9.67,9.67,0,0,0,5.8,1.88c3.08,0,5.4-1.6,5.4-5.16,0-3.72-2.4-5.2-5.56-5.2h-2.08v-2.16l6-8v-.16h-10.68l.8-3.84h14.64V371l-5.72,7.6v.11C1225.74,379.38,1228.94,381.53,1228.94,386.93Z"/><path class="h" d="M1241.82,384.79l7.59,10.78-3.62.29-6.75-9.52h-1.51v9.23h-3.16V375.13h3.16v8.53h1.6l6.08-8.53h3.59Z"/><path class="h" d="M1258.3,391.73h11.4l-.8,3.84h-16.8v-3.44c5.48-4.12,12.44-11.4,12.44-16.75,0-2.68-1.32-4.36-4.16-4.36a10.9,10.9,0,0,0-5.88,1.88l-1.92-3.36a16,16,0,0,1,8.56-2.36c4.92,0,7.76,2.8,7.76,7.68,0,6.15-5.72,12.83-10.6,16.71Z"/><path class="h" d="M1022.68,391.73h11.45l-.8,3.84h-16.88v-3.44c5.51-4.12,12.5-11.4,12.5-16.75,0-2.68-1.33-4.36-4.18-4.36a10.93,10.93,0,0,0-5.9,1.88l-1.93-3.36a16,16,0,0,1,8.59-2.36c5,0,7.8,2.8,7.8,7.68,0,6.15-5.75,12.83-10.65,16.71Z"/><path class="h" d="M1056.23,386.93c0,6.16-4.42,9-9.52,9a14.16,14.16,0,0,1-8.16-2.36l2-3.36a9.76,9.76,0,0,0,5.83,1.88c3.09,0,5.42-1.6,5.42-5.16,0-3.72-2.41-5.2-5.58-5.2h-2.09v-2.16l6-8v-.16h-10.72l.8-3.84H1055V371l-5.75,7.6v.11C1053,379.38,1056.23,381.53,1056.23,386.93Z"/><path class="h" d="M1066.72,386.69h-1.46v8.88h-3.73V375.13h3.73v8.18h1.52l5.29-8.18h4.18l-6.4,9.66,7,10.78-4.21.29Z"/><path class="h" d="M1091.18,367.58v24.15h6.51v3.84h-18.08v-3.84H1087V371.42h-6.75l.81-3.84Z"/><path class="h" d="M805,391.73h11.45l-.81,3.84H798.81v-3.44c5.5-4.12,12.49-11.4,12.49-16.75,0-2.68-1.32-4.36-4.17-4.36a11,11,0,0,0-5.91,1.88l-1.93-3.36a16.06,16.06,0,0,1,8.6-2.36c4.94,0,7.79,2.8,7.79,7.68,0,6.15-5.74,12.83-10.64,16.71Z"/><path class="h" d="M833.08,367.58v24.15h6.51v3.84H821.51v-3.84h7.35V371.42h-6.75l.81-3.84Z"/><path class="h" d="M849.35,371.42v7.28h3.9c5.83,0,9.72,2.71,9.72,8.43s-3.85,8.44-9.72,8.44H845v-28h16.07l-.8,3.84Zm0,11.11v9.2H853c3.82,0,5.46-1.92,5.46-4.6,0-2.84-1.6-4.6-5.5-4.6Z"/><path class="h" d="M144.45,608.12v29h7.81v4.61H130.57v-4.61h8.82V612.73h-8.1l1-4.61Z"/><path class="h" d="M173.24,630.92c0-4.51-3.23-6.86-7-6.86a17.09,17.09,0,0,0-7,1.44V608.12h18l-1,4.61h-12v7.2a16.69,16.69,0,0,1,3-.29c6.17,0,11.23,3.65,11.23,11.28,0,7.4-5.3,11.29-11.42,11.29a17,17,0,0,1-9.79-2.84l2.46-4a11.63,11.63,0,0,0,7,2.26C170.25,637.6,173.24,635.44,173.24,630.92Z"/><rect class="i" width="2137.16" height="210.19"/><path class="f" d="M219.24,656.49h-141a10.42,10.42,0,0,1-10.41-10.41V590.2a10.41,10.41,0,0,1,10.41-10.41h26a10.41,10.41,0,0,0,10.41-10.41V514.7h.27V361.34a11.25,11.25,0,0,1,11.25-11.24h93.07a10.41,10.41,0,0,1,10.41,10.41V646.08A10.42,10.42,0,0,1,219.24,656.49Z"/><path class="h" d="M157.56,609.12v29h7.81v4.61h-21.7v-4.61h8.83V613.73h-8.1l1-4.61Z"/><path class="h" d="M186.49,613.73H169.9l1-4.61h21v4.13l-11.76,29.48h-5.5Z"/><rect class="j" x="760.52" y="861.42" width="594.65" height="453.54" rx="30.24"/><path class="c" d="M881.78,1003.69c-13.47,0-26.14,4.58-38,11.86l-15.9-27.22c21.56-11.59,36.93-15.91,59-15.91,33.15,0,53.63,18.87,53.63,51.75,0,41.51-35.85,81.13-68.73,107.27v1.08h74.12l-5.39,31.26H824.65v-28.57c36.92-27.76,81.12-71.42,81.12-107.53C905.77,1012.85,897.42,1003.69,881.78,1003.69Z"/><path class="c" d="M1089.85,975.12l-5.39,31.26H1020v35a76.67,76.67,0,0,1,13.48-1.62c34.5,0,63.34,20.49,63.34,63.34,0,41.51-31,63.34-65.23,63.34-23.72,0-40.69-6.2-56.06-15.9l16.71-27.23c10.78,7,22.1,11.86,37.47,11.86,17,0,32.34-10.51,32.34-32.07,0-21.83-16.71-33.15-35.31-33.15a116.63,116.63,0,0,0-40.43,7.82V975.12Z"/><path class="c" d="M1178.77,1016.06h22.82l-73,168.81h-22.83Z"/><path class="c" d="M1268.08,1026.06v111H1299v26.76H1206.5V1137h33.06v-84.2h-30.11l3.94-26.76Z"/></svg>