<svg xmlns="http://www.w3.org/2000/svg" xmlns:xlink="http://www.w3.org/1999/xlink" viewBox="0 0 1190.551 907.087"><defs><style>.a{fill:url(#a);}.b{fill:#fff;}</style><linearGradient id="a" x1="595.276" x2="595.276" y2="907.087" gradientUnits="userSpaceOnUse"><stop offset="0" stop-color="#222c54"/><stop offset="0.764" stop-color="#1e2649"/><stop offset="1" stop-color="#1c2344"/></linearGradient></defs><rect class="a" width="1190.551" height="907.087" rx="70.866"/><path class="b" d="M417.134,205.769c-30.4,0-58.977,10.336-85.729,26.752l-35.872-61.408c48.641-26.144,83.3-35.872,133.152-35.872,74.784,0,120.993,42.56,120.993,116.736,0,93.633-80.865,183.009-155.041,241.985v2.432h167.2l-12.16,70.528H288.237V502.474c83.3-62.624,183.009-161.12,183.009-242.593C471.246,226.442,452.4,205.769,417.134,205.769Z"/><path class="b" d="M896.237,435.594C896.237,529.226,826.316,573,749.1,573c-53.5,0-91.808-13.984-126.465-35.872l37.7-61.408c24.32,15.808,49.856,26.752,84.512,26.752,40.128,0,72.96-20.672,72.96-66.272,0-48.033-34.047-66.88-75.392-66.88H707.757V324.938l85.119-110.656v-2.433H636.62l12.16-70.528H877.388v64.448l-82.08,106.4v1.825C848.2,323.721,896.237,358.377,896.237,435.594Z"/><path class="b" d="M307.887,680.3v97.85h26.245V793.7h-72.9V778.149h29.647v-82.3H263.661L266.9,680.3Z"/><path class="b" d="M402.5,743.8c-5.185,4.861-12.312,6.967-20.574,6.967-19.279,0-32.563-12.8-32.563-35.641,0-22.194,15.714-36.451,36.937-36.451,22.841,0,36.775,15.391,36.775,41.635,0,40.5-22.682,65.287-56.216,75.007L360.7,782.037c19.277-7.29,36.935-18.306,42.282-37.909Zm-16.2-49.573c-11.016,0-19.441,7.453-19.441,20.9s8.425,20.9,19.441,20.9c8.261,0,16.2-5.67,19.6-14.094C405.9,705.734,398.77,694.231,386.3,694.231Z"/><path class="b" d="M645.175,699.578,656.352,688.4l48.6,48.6-48.6,48.6-11.177-11.178L674.5,745.586V745.1H485.6V728.9H674.5v-.486Z"/><path class="b" d="M793.563,778.149h46.172L836.5,793.7H768.454V779.769c22.193-16.686,50.383-46.171,50.383-67.879,0-10.854-5.347-17.659-16.849-17.659-8.749,0-16.2,2.916-23.814,7.615L770.4,688.237c12.961-6.965,21.385-9.558,34.668-9.558,19.928,0,31.43,11.341,31.43,31.105,0,24.948-23.167,52-42.932,67.717Z"/><path class="b" d="M912.634,757.251c0-15.229-10.854-23.167-23.653-23.167a57.281,57.281,0,0,0-23.49,4.86V680.3H926.08l-3.239,15.553H882.5v24.3a55.381,55.381,0,0,1,10.045-.972c20.736,0,37.746,12.312,37.746,38.071,0,24.948-17.821,38.07-38.395,38.07-14.256,0-23.652-3.726-32.887-9.558l8.263-13.608c6.8,4.536,13.446,7.614,23.49,7.614C902.59,779.769,912.634,772.479,912.634,757.251Z"/></svg>