<?xml version="1.0" encoding="UTF-8"?><svg xmlns="http://www.w3.org/2000/svg" xmlns:xlink="http://www.w3.org/1999/xlink" viewBox="0 0 655.438 438.457"><defs><style>.hv{mix-blend-mode:multiply;stroke:#899097;}.hv,.hw,.hx,.hy,.hz,.ia{stroke-width:.25px;}.hv,.hz,.ia,.ib{stroke-linecap:round;stroke-linejoin:round;}.hv,.ia,.ib{fill:none;}.hw,.hx,.hy{stroke-miterlimit:10;}.hw,.hz,.ia,.ib{stroke:#000;}.hw,.ic{fill:#f1ea35;}.hx{fill:#c6cacf;stroke:#3c3d3c;}.hy{stroke:#feaa4e;}.hy,.id{fill:#f98e3d;}.hz,.ie{fill:#fff;}.ib{stroke-width:.17px;}.if,.id,.ig,.ih,.ii,.ij,.ik,.il,.im,.ic,.ie,.in,.io,.ip,.iq{stroke-width:0px;}.ir{isolation:isolate;}.ig{fill:#0e0f10;}.ih{fill:#151616;}.ii{fill:#231300;}.ij{fill:#d2dce0;}.ik{fill:#de7f44;}.il{fill:#b2c2c8;}.im{fill:#a9b1bc;}.in{fill:#f19763;}.io{fill:url(#h);}.ip{fill:url(#k);}.iq{fill:url(#n);}</style><linearGradient id="h" x1="27.991" y1="58.525" x2="27.991" y2="62.012" gradientTransform="translate(18.755 98.869) rotate(30) scale(.816 .707) skewX(26.565)" gradientUnits="userSpaceOnUse"><stop offset="0" stop-color="#a9b1bc"/><stop offset="1" stop-color="#2b4245"/></linearGradient><linearGradient id="k" x1="82.106" y1="-85.673" x2="82.106" y2="-82.186" xlink:href="#h"/><linearGradient id="n" x1="82.106" y1="102.354" x2="82.106" y2="105.841" xlink:href="#h"/></defs><g class="ir"><g id="e"><path class="ii" d="m632.452,390.091v-.864c-.233.054-.441.09-.738.09-1.494,0-2.16-1.126-2.16-2.593,0-1.485.666-2.611,2.16-2.611.297,0,.505.036.738.091v-.864h.954v.864c.226-.055.441-.091.738-.091,1.495,0,2.161,1.126,2.161,2.611,0,1.467-.666,2.593-2.161,2.593-.297,0-.513-.036-.738-.09v.864h-.954Zm0-1.692v-3.367c-.188-.055-.342-.072-.603-.072-.892,0-1.297.774-1.297,1.756s.405,1.755,1.297,1.755c.261,0,.414-.018.603-.071Zm2.854-1.684c0-.981-.405-1.756-1.297-1.756-.261,0-.414.018-.604.072v3.367c.189.054.343.071.604.071.892,0,1.297-.774,1.297-1.755Z"/><path class="ii" d="m639.733,387.21v-.307c0-.549-.234-.891-.909-.891-.415,0-.819.09-1.243.242l-.27-.729c.531-.198,1.044-.297,1.62-.297,1.404,0,1.737.737,1.737,1.692v1.926c0,.226.126.324.324.324h.1v.693c-.136.054-.36.09-.54.09-.424,0-.648-.252-.729-.531h-.036c-.333.334-.702.531-1.297.531-.873,0-1.422-.432-1.422-1.368,0-.873.72-1.377,1.737-1.377h.928Zm-.964.729c-.45,0-.774.252-.774.667s.307.611.676.611c.44,0,.792-.225,1.062-.566v-.712h-.964Z"/><path class="ii" d="m645.025,389.02l.288.72c-.387.171-.792.261-1.261.261-1.485,0-2.241-1.062-2.241-2.386s.711-2.385,2.196-2.385c.433,0,.874.08,1.261.242l-.288.721c-.307-.126-.604-.18-.918-.18-.774,0-1.297.647-1.297,1.602s.514,1.603,1.287,1.603c.315,0,.667-.071.973-.197Z"/><path class="ii" d="m648.652,387.21v-.307c0-.549-.234-.891-.91-.891-.414,0-.818.09-1.242.242l-.27-.729c.531-.198,1.044-.297,1.62-.297,1.404,0,1.737.737,1.737,1.692v1.926c0,.226.126.324.324.324h.1v.693c-.136.054-.36.09-.541.09-.423,0-.647-.252-.729-.531h-.036c-.333.334-.702.531-1.297.531-.873,0-1.422-.432-1.422-1.368,0-.873.72-1.377,1.737-1.377h.928Zm-.964.729c-.45,0-.774.252-.774.667s.307.611.676.611c.441,0,.792-.225,1.062-.566v-.712h-.964Z"/><path class="ii" d="m650.938,389.127c.495-.837.621-1.701.621-3.304v-.504h3.016v3.808h.729l-.18,1.927h-.757v-1.144h-3.105v1.144h-.757l-.18-1.927h.612Zm1.558-2.89c0,1.062-.198,2.232-.559,2.89h1.702v-3.024h-1.144v.135Z"/><path class="ii" d="m629.235,373.539l2.107-6.302h.963l2.106,6.302h-1.035l-.45-1.468h-2.215l-.44,1.468h-1.036Zm2.611-5.015h-.045l-.838,2.71h1.711l-.828-2.71Z"/><path class="ii" d="m638.993,373.539h-.937v-1.972h-1.81v1.972h-.937v-4.591h.937v1.836h1.81v-1.836h.937v4.591Z"/><path class="ii" d="m642.629,371.162l1.521,2.377-.954.09-1.323-2.079h-.505v1.989h-.937v-4.591h.937v1.854h.514l1.206-1.854h.973l-1.432,2.214Z"/><path class="ii" d="m648.479,371.459h-2.917c.063.891.531,1.386,1.359,1.386.414,0,.811-.144,1.144-.315l.307.712c-.441.225-.955.387-1.54.387-1.351,0-2.232-.882-2.232-2.386,0-1.512.828-2.386,2.07-2.386,1.233,0,1.891.721,1.891,1.846,0,.234-.026.486-.081.757Zm-2.881-.729h2.125c0-.63-.342-1.089-1.035-1.089-.621,0-1.009.44-1.09,1.089Z"/><path class="ii" d="m650.665,375.339l-.937.18v-6.571h.667l.18.485h.036c.324-.351.693-.576,1.306-.576,1.296,0,1.854,1.018,1.854,2.386s-.567,2.386-1.936,2.386c-.469,0-.838-.09-1.171-.243v1.954Zm2.152-4.097c0-.945-.379-1.602-1.171-1.602-.378,0-.702.225-.981.566v2.314c.288.207.612.323,1.018.323.711,0,1.135-.585,1.135-1.603Z"/><rect class="ij" x="328.963" y="359.288" width="284.662" height="40.84"/><rect class="id" x="338.29" y="208.91" width="2.298" height="150.378"/><rect class="hy" x="340.588" y="329.405" width="2.298" height="25.032"/><rect class="hy" x="599.737" y="329.405" width="2.298" height="25.032"/><rect class="id" x="602.034" y="208.91" width="2.298" height="150.378"/><rect class="id" x="470.162" y="74.74" width="2.298" height="266.043" transform="translate(679.073 -263.55) rotate(90)"/><rect class="il" x="340.685" y="354.534" width="261.253" height="4.658"/><path class="ih" d="m601.841,354.63v4.465h-261.061v-4.465h261.061m.193-.193h-261.447v4.851h261.447v-4.851h0Z"/><rect class="ie" x="448.199" y="338.091" width="46.479" height="16.096"/><path class="ig" d="m494.428,338.341v15.596h-45.979v-15.596h45.979m.5-.5h-46.979v16.596h46.979v-16.596h0Z"/><rect class="ie" x="465.688" y="345.624" width="28.989" height="8.563"/><path class="ig" d="m494.428,345.873v8.064h-28.489v-8.064h28.489m.5-.5h-29.489v9.064h29.489v-9.064h0Z"/><rect class="ic" x="462.46" y="335.905" width="17.702" height="4.511"/><path class="ii" d="m484.366,321.657h-.945l-1.278-3.836h-.036l-.432,4.664h-.973l.585-6.302h1.197l1.396,4.141h.027l1.396-4.141h1.197l.585,6.302h-.972l-.433-4.664h-.036l-1.278,3.836Z"/><path class="ii" d="m488.073,320.189c0-1.494.837-2.386,2.115-2.386s2.116.892,2.116,2.386-.838,2.386-2.116,2.386-2.115-.892-2.115-2.386Zm.954,0c0,1.008.459,1.603,1.161,1.603s1.162-.595,1.162-1.603-.46-1.603-1.162-1.603-1.161.594-1.161,1.603Z"/><path class="ii" d="m493.32,321.702c.495-.838.621-1.702.621-3.305v-.504h3.016v3.809h.729l-.18,1.927h-.757v-1.144h-3.105v1.144h-.757l-.18-1.927h.612Zm1.558-2.89c0,1.062-.198,2.232-.559,2.89h1.702v-3.025h-1.144v.136Z"/><path class="ii" d="m498.55,323.565c.135.054.306.117.495.117.207,0,.44-.1.567-.531l.197-.666h-.333l-1.611-4.592h1.026l1.188,3.521h.036l1.062-3.521h1.008l-1.765,5.474c-.288.883-.828,1.099-1.323,1.099-.324,0-.594-.09-.792-.171l.243-.729Z"/><path class="ii" d="m502.401,321.621c.099.062.207.09.306.09.423,0,.657-.873.657-3.052v-.766h3.07v4.592h-.937v-3.809h-1.242v.198c0,2.449-.441,3.655-1.477,3.655-.252,0-.433-.054-.595-.162l.217-.747Z"/><path class="ii" d="m509.71,319.568c.99,0,1.639.54,1.639,1.468s-.648,1.449-1.639,1.449h-1.836v-4.592h.936v1.675h.9Zm-.9.783v1.351h.811c.478,0,.774-.252.774-.676s-.297-.675-.774-.675h-.811Z"/><path class="ii" d="m517.621,321.593l.288.721c-.387.171-.792.261-1.261.261-1.485,0-2.241-1.062-2.241-2.386s.711-2.386,2.196-2.386c.433,0,.874.081,1.261.243l-.288.72c-.306-.126-.604-.18-.918-.18-.774,0-1.297.648-1.297,1.603s.514,1.603,1.287,1.603c.315,0,.667-.072.973-.198Z"/><path class="ii" d="m522.463,321.162c0,.828-.522,1.323-1.566,1.323h-1.999v-4.592h1.855c.918,0,1.521.343,1.521,1.171,0,.495-.369.882-.783.98v.027c.44.1.972.423.972,1.09Zm-2.629-2.485v1.045h.738c.423,0,.747-.136.747-.522,0-.405-.288-.522-.684-.522h-.802Zm0,1.828v1.197h.909c.478,0,.766-.189.766-.595s-.315-.603-.855-.603h-.819Z"/><path class="ii" d="m527.241,320.405h-2.917c.063.892.531,1.387,1.359,1.387.414,0,.811-.145,1.144-.315l.307.712c-.441.225-.955.387-1.54.387-1.351,0-2.232-.882-2.232-2.386,0-1.513.828-2.386,2.07-2.386,1.233,0,1.891.721,1.891,1.846,0,.234-.026.486-.081.756Zm-2.881-.729h2.125c0-.631-.342-1.09-1.035-1.09-.621,0-1.009.441-1.09,1.09Z"/><path class="ii" d="m527.951,317.893h3.89l-.18.783h-1.324v3.809h-.927v-3.809h-1.459v-.783Z"/><path class="ii" d="m532.29,320.189c0-1.494.837-2.386,2.115-2.386s2.116.892,2.116,2.386-.838,2.386-2.116,2.386-2.115-.892-2.115-2.386Zm.954,0c0,1.008.459,1.603,1.161,1.603s1.162-.595,1.162-1.603-.46-1.603-1.162-1.603-1.161.594-1.161,1.603Z"/><path class="ii" d="m537.537,321.702c.495-.838.621-1.702.621-3.305v-.504h3.016v3.809h.729l-.18,1.927h-.757v-1.144h-3.105v1.144h-.757l-.18-1.927h.612Zm1.558-2.89c0,1.062-.198,2.232-.559,2.89h1.702v-3.025h-1.144v.136Z"/><path class="ii" d="m542.757,322.485v-4.592h.936v3.062h.036l2.116-3.062h.837v4.592h-.937v-3.062h-.036l-2.115,3.062h-.837Z"/><path class="ii" d="m547.851,320.189c0-1.494.837-2.386,2.115-2.386s2.116.892,2.116,2.386-.838,2.386-2.116,2.386-2.115-.892-2.115-2.386Zm.954,0c0,1.008.459,1.603,1.161,1.603s1.162-.595,1.162-1.603-.46-1.603-1.162-1.603-1.161.594-1.161,1.603Z"/><path class="ii" d="m553.098,321.702c.495-.838.621-1.702.621-3.305v-.504h3.016v3.809h.729l-.18,1.927h-.757v-1.144h-3.105v1.144h-.757l-.18-1.927h.612Zm1.558-2.89c0,1.062-.198,2.232-.559,2.89h1.702v-3.025h-1.144v.136Z"/><path class="ii" d="m562,322.485h-.937v-1.972h-1.81v1.972h-.937v-4.592h.937v1.837h1.81v-1.837h.937v4.592Z"/><path class="ii" d="m564.374,319.568h.819c.99,0,1.639.54,1.639,1.468s-.648,1.449-1.639,1.449h-1.755v-4.592h.936v1.675Zm0,.783v1.351h.729c.478,0,.774-.252.774-.676s-.297-.675-.774-.675h-.729Zm4.069,2.134h-.937v-4.592h.937v4.592Z"/><path class="ii" d="m569.882,322.485v-4.592h.937v3.062h.036l2.116-3.062h.837v4.592h-.937v-3.062h-.036l-2.115,3.062h-.838Zm3.448-6.131c-.324.567-.854.846-1.485.846-.639,0-1.161-.288-1.485-.846l.595-.396c.197.378.513.585.891.585s.685-.197.883-.585l.603.396Z"/><path class="ii" d="m161.142,47.37h-.945l-1.278-3.835h-.036l-.432,4.664h-.973l.585-6.302h1.197l1.396,4.141h.027l1.396-4.141h1.197l.585,6.302h-.972l-.433-4.664h-.036l-1.278,3.835Z"/><path class="ii" d="m164.849,45.902c0-1.494.837-2.386,2.115-2.386s2.116.892,2.116,2.386-.838,2.386-2.116,2.386-2.115-.891-2.115-2.386Zm.954,0c0,1.008.459,1.603,1.161,1.603s1.162-.594,1.162-1.603-.46-1.602-1.162-1.602-1.161.594-1.161,1.602Z"/><path class="ii" d="m170.096,47.415c.495-.837.621-1.702.621-3.304v-.504h3.016v3.808h.729l-.18,1.927h-.757v-1.144h-3.105v1.144h-.757l-.18-1.927h.612Zm1.558-2.89c0,1.062-.198,2.232-.559,2.89h1.702v-3.025h-1.144v.135Z"/><path class="ii" d="m175.325,49.278c.135.054.306.117.495.117.207,0,.44-.099.567-.531l.197-.666h-.333l-1.611-4.591h1.026l1.188,3.52h.036l1.062-3.52h1.008l-1.765,5.474c-.288.882-.828,1.098-1.323,1.098-.324,0-.594-.09-.792-.171l.243-.729Z"/><path class="ii" d="m179.177,47.333c.099.063.207.09.306.09.423,0,.657-.873.657-3.052v-.765h3.07v4.591h-.937v-3.808h-1.242v.198c0,2.449-.441,3.655-1.477,3.655-.252,0-.433-.054-.595-.162l.217-.747Z"/><path class="ii" d="m186.485,45.281c.99,0,1.639.54,1.639,1.468s-.648,1.449-1.639,1.449h-1.836v-4.591h.936v1.674h.9Zm-.9.783v1.351h.811c.478,0,.774-.252.774-.675s-.297-.675-.774-.675h-.811Z"/><path class="ii" d="m194.396,47.307l.288.72c-.387.171-.792.261-1.261.261-1.485,0-2.241-1.062-2.241-2.386s.711-2.386,2.196-2.386c.433,0,.874.081,1.261.243l-.288.72c-.306-.126-.604-.18-.918-.18-.774,0-1.297.648-1.297,1.602s.514,1.603,1.287,1.603c.315,0,.667-.072.973-.198Z"/><path class="ii" d="m199.238,46.875c0,.828-.522,1.323-1.566,1.323h-1.999v-4.591h1.855c.918,0,1.521.342,1.521,1.17,0,.495-.369.882-.783.981v.027c.44.099.972.423.972,1.089Zm-2.629-2.485v1.044h.738c.423,0,.747-.135.747-.522,0-.405-.288-.522-.684-.522h-.802Zm0,1.828v1.197h.909c.478,0,.766-.189.766-.594s-.315-.603-.855-.603h-.819Z"/><path class="ii" d="m204.017,46.118h-2.917c.063.891.531,1.386,1.359,1.386.414,0,.811-.144,1.144-.315l.307.711c-.441.225-.955.387-1.54.387-1.351,0-2.232-.882-2.232-2.386,0-1.512.828-2.386,2.07-2.386,1.233,0,1.891.721,1.891,1.846,0,.234-.026.486-.081.756Zm-2.881-.729h2.125c0-.63-.342-1.089-1.035-1.089-.621,0-1.009.441-1.09,1.089Z"/><path class="ii" d="m204.727,43.606h3.89l-.18.783h-1.324v3.808h-.927v-3.808h-1.459v-.783Z"/><path class="ii" d="m209.065,45.902c0-1.494.837-2.386,2.115-2.386s2.116.892,2.116,2.386-.838,2.386-2.116,2.386-2.115-.891-2.115-2.386Zm.954,0c0,1.008.459,1.603,1.161,1.603s1.162-.594,1.162-1.603-.46-1.602-1.162-1.602-1.161.594-1.161,1.602Z"/><path class="ii" d="m214.312,47.415c.495-.837.621-1.702.621-3.304v-.504h3.016v3.808h.729l-.18,1.927h-.757v-1.144h-3.105v1.144h-.757l-.18-1.927h.612Zm1.558-2.89c0,1.062-.198,2.232-.559,2.89h1.702v-3.025h-1.144v.135Z"/><path class="ii" d="m219.532,48.198v-4.591h.936v3.061h.036l2.116-3.061h.837v4.591h-.937v-3.061h-.036l-2.115,3.061h-.837Z"/><path class="ii" d="m224.626,45.902c0-1.494.837-2.386,2.115-2.386s2.116.892,2.116,2.386-.838,2.386-2.116,2.386-2.115-.891-2.115-2.386Zm.954,0c0,1.008.459,1.603,1.161,1.603s1.162-.594,1.162-1.603-.46-1.602-1.162-1.602-1.161.594-1.161,1.602Z"/><path class="ii" d="m229.873,47.415c.495-.837.621-1.702.621-3.304v-.504h3.016v3.808h.729l-.18,1.927h-.757v-1.144h-3.105v1.144h-.757l-.18-1.927h.612Zm1.558-2.89c0,1.062-.198,2.232-.559,2.89h1.702v-3.025h-1.144v.135Z"/><path class="ii" d="m238.775,48.198h-.937v-1.972h-1.81v1.972h-.937v-4.591h.937v1.836h1.81v-1.836h.937v4.591Z"/><path class="ii" d="m241.149,45.281h.819c.99,0,1.639.54,1.639,1.468s-.648,1.449-1.639,1.449h-1.755v-4.591h.936v1.674Zm0,.783v1.351h.729c.478,0,.774-.252.774-.675s-.297-.675-.774-.675h-.729Zm4.069,2.134h-.937v-4.591h.937v4.591Z"/><path class="ii" d="m246.657,48.198v-4.591h.937v3.061h.036l2.116-3.061h.837v4.591h-.937v-3.061h-.036l-2.115,3.061h-.838Zm3.448-6.131c-.324.567-.854.846-1.485.846-.639,0-1.161-.288-1.485-.846l.595-.396c.197.378.513.585.891.585s.685-.198.883-.585l.603.396Z"/><polygon class="ih" points="396.316 352.288 388.21 352.288 388.21 354.49 390.862 354.49 390.862 389.661 393.706 389.661 393.706 354.49 396.316 354.49 396.316 352.288"/><polygon class="ih" points="540.683 352.203 548.789 352.203 548.789 354.405 546.137 354.405 546.137 389.576 543.294 389.576 543.294 354.405 540.683 354.405 540.683 352.203"/></g><g id="f"><g id="g"><path id="i" class="io" d="m19.592,147.137c13.126,7.61,26.252,15.22,39.378,22.83-.258.768-.516,1.537-.774,2.305l-39.899-23.036c-.074-.155-.257-.596-.125-1.121.029-.115.208-.828.809-1,.253-.073.482-.021.612.021Z"/></g><g id="j"><path id="l" class="ip" d="m57.857,51.492c13.126,7.61,26.252,15.22,39.378,22.83-.258.768-.516,1.537-.774,2.305l-39.899-23.036c-.074-.155-.257-.596-.125-1.121.029-.115.208-.828.809-1,.253-.073.482-.021.612.021Z"/></g><g id="m"><path id="o" class="iq" d="m57.857,205.016c13.126,7.61,26.252,15.22,39.378,22.83-.258.768-.516,1.537-.774,2.305l-39.899-23.036c-.074-.155-.257-.596-.125-1.121.029-.115.208-.828.809-1,.253-.073.482-.021.612.021Z"/></g><path class="im" d="m33.736,285.068V88.082l100.87-57.637-4.852,41.04-62.556,35.749v37.711l55.283-31.59v38.271l-55.283,31.59v44.463l67.409-38.518v38.271l-100.87,57.637Z"/><polygon class="hz" points="53.21 265.693 52.493 264.976 52.923 264.734 53.21 265.693"/><g id="p"><g id="q"><polygon class="ie" points="48.917 266.017 48.953 239.498 54.404 236.383 55.038 237.018 55.002 263.538 49.551 266.652 48.917 266.017"/><path class="if" d="m54.383,236.539l.216.216.278.278v26.432l-2.17,1.24-3.135,1.791-.216-.216-.278-.278v-26.432l5.305-3.031m.042-.312l-5.597,3.198v26.68c.234.234.468.468.702.702,1.866-1.066,3.731-2.132,5.597-3.198v-26.68c-.234-.234-.468-.468-.702-.702h0Z"/></g></g><g id="r"><g id="s"><polygon class="ie" points="49.655 240.2 55.002 237.145 55.002 263.538 49.655 266.592 49.655 240.2"/><path class="if" d="m54.877,237.36v26.104l-5.097,2.912v-26.104l5.097-2.912m.25-.431l-5.597,3.198v26.68l5.597-3.198v-26.68h0Z"/></g></g><g id="t"><polygon id="u" class="hw" points="51.742 262.741 51.742 261.379 52.915 260.709 52.915 262.071 51.742 262.741"/></g><g id="v"><polygon id="w" class="hw" points="51.742 242.805 51.742 241.443 52.915 240.772 52.915 242.134 51.742 242.805"/></g><g id="x"><polygon id="y" class="hw" points="51.742 252.885 51.742 251.523 52.915 250.852 52.915 252.214 51.742 252.885"/></g><g id="z"><path id="aa" class="hz" d="m48.985,239.531c.011-.318.14-1.2.545-1.596.409-.4.853-.635,1.168-.602.236.232.472.464.708.696.109.33.219.659.328.989-.692.395-1.384.791-2.076,1.186-.224-.224-.448-.448-.672-.673Z"/></g><g id="ab"><path id="ac" class="hz" d="m49.658,240.203c-.006-1.318.353-1.855,1.151-2.203.203-.089.4-.088.562.004.247.141.409.489.363,1.012l-2.076,1.186Z"/></g><g id="ad"><path id="ae" class="hz" d="m50.104,239.873c-.035-.511.336-1.11.657-1.258.115-.053.229-.05.322.003.141.081.232.28.207.578l-1.186.678Z"/></g><g id="af"><path id="ag" class="hz" d="m54.999,263.548c.006,1.318-.353,1.855-1.151,2.203-.203.089-.4.088-.562-.004-.247-.141-.409-.489-.363-1.012l2.076-1.186Z"/></g><g id="ah"><path id="ai" class="hz" d="m54.553,263.817c.035.511-.336,1.11-.657,1.258-.115.053-.229.05-.322-.003-.141-.081-.232-.28-.207-.578l1.186-.678Z"/></g><polygon class="hz" points="53.21 228.863 52.493 228.146 52.923 227.904 53.21 228.863"/><g id="aj"><g id="ak"><polygon class="ie" points="48.917 229.187 48.953 202.667 54.404 199.552 55.029 200.178 55.002 226.707 49.551 229.821 48.917 229.187"/><path class="if" d="m54.383,199.709l.216.216.278.278v26.432l-3.175,1.814-2.13,1.217-.216-.216-.278-.278v-26.432l5.305-3.031m.042-.312l-5.597,3.198v26.68c.234.234.468.468.702.702,1.866-1.066,3.731-2.132,5.597-3.198v-26.68c-.234-.234-.468-.468-.702-.702h0Z"/></g></g><g id="al"><g id="am"><polygon class="ie" points="49.655 203.37 55.002 200.314 55.002 226.707 49.655 229.762 49.655 203.37"/><path class="if" d="m54.877,200.53v26.104l-5.097,2.912v-26.104l5.097-2.912m.25-.431l-5.597,3.198v26.68l5.597-3.198v-26.68h0Z"/></g></g><g id="an"><polygon id="ao" class="hw" points="51.742 225.911 51.742 224.549 52.915 223.878 52.915 225.24 51.742 225.911"/></g><g id="ap"><polygon id="aq" class="hw" points="51.742 205.974 51.742 204.612 52.915 203.942 52.915 205.304 51.742 205.974"/></g><g id="ar"><polygon id="as" class="hw" points="51.742 216.054 51.742 214.692 52.915 214.022 52.915 215.384 51.742 216.054"/></g><g id="at"><path id="au" class="hz" d="m48.985,202.7c.011-.318.14-1.2.545-1.596.409-.4.853-.635,1.168-.602.236.232.472.464.708.696.109.33.219.659.328.989-.692.395-1.384.791-2.076,1.186-.224-.224-.448-.448-.672-.673Z"/></g><g id="av"><path id="aw" class="hz" d="m49.658,203.373c-.006-1.318.353-1.855,1.151-2.203.203-.089.4-.088.562.004.247.141.409.489.363,1.012l-2.076,1.186Z"/></g><g id="ax"><path id="ay" class="hz" d="m50.104,203.042c-.035-.511.336-1.11.657-1.258.115-.053.229-.05.322.003.141.081.232.28.207.578l-1.186.678Z"/></g><g id="az"><path id="ba" class="hz" d="m54.999,226.717c.006,1.318-.353,1.855-1.151,2.203-.203.089-.4.088-.562-.004-.247-.141-.409-.489-.363-1.012l2.076-1.186Z"/></g><g id="bb"><path id="bc" class="hz" d="m54.553,226.986c.035.511-.336,1.11-.657,1.258-.115.053-.229.05-.322-.003-.141-.081-.232-.28-.207-.578l1.186-.678Z"/></g><polygon class="hz" points="53.21 192.032 52.493 191.315 52.923 191.073 53.21 192.032"/><g id="bd"><g id="be"><polygon class="ie" points="48.917 192.356 48.953 165.837 54.404 162.722 55.038 163.357 55.002 189.876 49.551 192.991 48.917 192.356"/><path class="if" d="m54.383,162.878l.182.182.312.312v26.432l-2.17,1.24-3.135,1.791-.216-.216-.278-.278v-26.432l5.305-3.031m.042-.312l-5.597,3.198v26.68c.234.234.468.468.702.702,1.866-1.066,3.731-2.132,5.597-3.198v-26.68c-.234-.234-.468-.468-.702-.702h0Z"/></g></g><g id="bf"><g id="bg"><polygon class="ie" points="49.655 166.539 55.002 163.484 55.002 189.876 49.655 192.931 49.655 166.539"/><path class="if" d="m54.877,163.699v26.104l-5.097,2.912v-26.104l5.097-2.912m.25-.431l-5.597,3.198v26.68l5.597-3.198v-26.68h0Z"/></g></g><g id="bh"><polygon id="bi" class="hw" points="51.742 189.08 51.742 187.718 52.915 187.048 52.915 188.41 51.742 189.08"/></g><g id="bj"><polygon id="bk" class="hw" points="51.742 169.144 51.742 167.782 52.915 167.111 52.915 168.473 51.742 169.144"/></g><g id="bl"><polygon id="bm" class="hw" points="51.742 179.224 51.742 177.862 52.915 177.191 52.915 178.553 51.742 179.224"/></g><g id="bn"><path id="bo" class="hz" d="m48.985,165.87c.011-.318.14-1.2.545-1.596.409-.4.853-.635,1.168-.602.236.232.472.464.708.696.109.33.219.659.328.989-.692.395-1.384.791-2.076,1.186-.224-.224-.448-.448-.672-.673Z"/></g><g id="bp"><path id="bq" class="hz" d="m49.658,166.542c-.006-1.318.353-1.855,1.151-2.203.203-.089.4-.088.562.004.247.141.409.489.363,1.012l-2.076,1.186Z"/></g><g id="br"><path id="bs" class="hz" d="m50.104,166.212c-.035-.511.336-1.11.657-1.258.115-.053.229-.05.322.003.141.081.232.28.207.578l-1.186.678Z"/></g><g id="bt"><path id="bu" class="hz" d="m54.999,189.887c.006,1.318-.353,1.855-1.151,2.203-.203.089-.4.088-.562-.004-.247-.141-.409-.489-.363-1.012l2.076-1.186Z"/></g><g id="bv"><path id="bw" class="hz" d="m54.553,190.156c.035.511-.336,1.11-.657,1.258-.115.053-.229.05-.322-.003-.141-.081-.232-.28-.207-.578l1.186-.678Z"/></g><polygon class="hz" points="53.21 155.202 52.493 154.485 52.923 154.243 53.21 155.202"/><g id="bx"><g id="by"><polygon class="ie" points="48.917 155.526 48.953 129.006 54.404 125.892 55.038 126.526 55.002 153.045 49.551 156.16 48.917 155.526"/><path class="if" d="m54.383,126.048l.216.216.278.278v26.432l-2.672,1.527-2.633,1.504-.182-.182-.312-.312v-26.432l5.305-3.031m.042-.312l-5.597,3.198v26.68c.234.234.468.468.702.702,1.866-1.066,3.731-2.132,5.597-3.198v-26.68c-.234-.234-.468-.468-.702-.702h0Z"/></g></g><g id="bz"><g id="ca"><polygon class="ie" points="49.655 129.708 55.002 126.653 55.002 153.045 49.655 156.101 49.655 129.708"/><path class="if" d="m54.877,126.869v26.104l-5.097,2.912v-26.104l5.097-2.912m.25-.431l-5.597,3.198v26.68l5.597-3.198v-26.68h0Z"/></g></g><g id="cb"><polygon id="cc" class="hw" points="51.742 152.25 51.742 150.888 52.915 150.217 52.915 151.579 51.742 152.25"/></g><g id="cd"><polygon id="ce" class="hw" points="51.742 132.313 51.742 130.951 52.915 130.281 52.915 131.643 51.742 132.313"/></g><g id="cf"><polygon id="cg" class="hw" points="51.742 142.393 51.742 141.031 52.915 140.361 52.915 141.723 51.742 142.393"/></g><g id="ch"><path id="ci" class="hz" d="m48.985,129.039c.011-.318.14-1.2.545-1.596.409-.4.853-.635,1.168-.602.236.232.472.464.708.696.109.33.219.659.328.989-.692.395-1.384.791-2.076,1.186-.224-.224-.448-.448-.672-.673Z"/></g><g id="cj"><path id="ck" class="hz" d="m49.658,129.712c-.006-1.318.353-1.855,1.151-2.203.203-.089.4-.088.562.004.247.141.409.489.363,1.012l-2.076,1.186Z"/></g><g id="cl"><path id="cm" class="hz" d="m50.104,129.381c-.035-.511.336-1.11.657-1.258.115-.053.229-.05.322.003.141.081.232.28.207.578l-1.186.678Z"/></g><g id="cn"><path id="co" class="hz" d="m54.999,153.057c.006,1.318-.353,1.855-1.151,2.203-.203.089-.4.088-.562-.004-.247-.141-.409-.489-.363-1.012l2.076-1.186Z"/></g><g id="cp"><path id="cq" class="hz" d="m54.553,153.325c.035.511-.336,1.11-.657,1.258-.115.053-.229.05-.322-.003-.141-.081-.232-.28-.207-.578l1.186-.678Z"/></g><polygon class="hz" points="53.21 118.371 52.493 117.654 52.923 117.412 53.21 118.371"/><g id="cr"><g id="cs"><polygon class="ie" points="48.917 118.695 48.953 92.176 54.404 89.061 55.039 89.696 55.002 116.215 49.551 119.33 48.917 118.695"/><path class="if" d="m54.383,89.217l.216.216.278.278v26.432l-2.672,1.527-2.633,1.504-.216-.216-.278-.278v-26.432l5.305-3.031m.042-.312l-5.597,3.198v26.68c.234.234.468.468.702.702,1.866-1.066,3.731-2.132,5.597-3.198v-26.68c-.234-.234-.468-.468-.702-.702h0Z"/></g></g><g id="ct"><g id="cu"><polygon class="ie" points="49.655 92.878 55.002 89.823 55.002 116.215 49.655 119.271 49.655 92.878"/><path class="if" d="m54.877,90.038v26.104l-5.097,2.912v-26.104l5.097-2.912m.25-.431l-5.597,3.198v26.68l5.597-3.198v-26.68h0Z"/></g></g><g id="cv"><polygon id="cw" class="hw" points="51.742 115.419 51.742 114.057 52.915 113.387 52.915 114.749 51.742 115.419"/></g><g id="cx"><polygon id="cy" class="hw" points="51.742 95.483 51.742 94.121 52.915 93.45 52.915 94.812 51.742 95.483"/></g><g id="cz"><polygon id="da" class="hw" points="51.742 105.563 51.742 104.201 52.915 103.53 52.915 104.892 51.742 105.563"/></g><g id="db"><path id="dc" class="hz" d="m48.985,92.209c.011-.318.14-1.2.545-1.596.409-.4.853-.635,1.168-.602.236.232.472.464.708.696.109.33.219.659.328.989-.692.395-1.384.791-2.076,1.186-.224-.224-.448-.448-.672-.673Z"/></g><g id="dd"><path id="de" class="hz" d="m49.658,92.881c-.006-1.318.353-1.855,1.151-2.203.203-.089.4-.088.562.004.247.141.409.489.363,1.012l-2.076,1.186Z"/></g><g id="df"><path id="dg" class="hz" d="m50.104,92.551c-.035-.511.336-1.11.657-1.258.115-.053.229-.05.322.003.141.081.232.28.207.578l-1.186.678Z"/></g><g id="dh"><path id="di" class="hz" d="m54.999,116.226c.006,1.318-.353,1.855-1.151,2.203-.203.089-.4.088-.562-.004-.247-.141-.409-.489-.363-1.012l2.076-1.186Z"/></g><g id="dj"><path id="dk" class="hz" d="m54.553,116.495c.035.511-.336,1.11-.657,1.258-.115.053-.229.05-.322-.003-.141-.081-.232-.28-.207-.578l1.186-.678Z"/></g><polygon class="hz" points="126.069 58.075 125.091 57.808 125.093 58.3 126.069 58.075"/><g id="dl"><g id="dm"><polygon class="ie" points="101.204 73.641 101.207 67.363 124.315 54.173 125.087 54.417 125.084 60.699 102.021 73.863 101.204 73.641"/><path class="if" d="m124.288,54.333l.379.104.295.081-.003,6.11-22.956,13.102-.296-.081-.378-.103.003-6.11,22.956-13.102m-.034-.268l-23.172,13.225-.003,6.446c.319.087.639.175.958.262,7.724-4.408,15.448-8.817,23.172-13.225,0-2.149.002-4.297.003-6.446-.319-.087-.639-.175-.958-.262h0Z"/></g></g><g id="dn"><g id="do"><polygon class="ie" points="102.165 67.625 125.087 54.542 125.084 60.699 102.162 73.782 102.165 67.625"/><path class="if" d="m124.962,54.757l-.003,5.87-22.672,12.94.003-5.87,22.672-12.94m.25-.431h.005-.005Zm0,0l-23.172,13.225-.003,6.446,23.172-13.225.003-6.446h0Z"/></g></g><g id="dp"><polygon id="dq" class="hw" points="122.777 58.263 121.594 58.938 121.593 60.289 122.776 59.614 122.777 58.263"/></g><g id="dr"><polygon id="ds" class="hw" points="105.462 68.145 104.279 68.82 104.278 70.172 105.461 69.497 105.462 68.145"/></g><g id="dt"><polygon id="du" class="hw" points="114.216 63.149 113.033 63.824 113.033 65.175 114.216 64.5 114.216 63.149"/></g><g id="dv"><path id="dw" class="hz" d="m101.252,67.374c-.27.167-.972.716-1.116,1.264-.145.553-.129,1.056.056,1.313.318.09.637.18.955.27.34-.069.681-.137,1.021-.206,0-.797,0-1.594.001-2.391-.306-.084-.612-.167-.917-.251Z"/></g><g id="dx"><path id="dy" class="hz" d="m102.17,67.625c-1.148.648-1.436,1.226-1.343,2.092.024.22.122.391.282.486.245.145.628.112,1.059-.186v-2.391Z"/></g><g id="dz"><path id="ea" class="hz" d="m102.103,68.176c-.461.222-.798.842-.767,1.195.011.127.07.224.162.278.14.083.358.063.604-.107v-1.366Z"/></g><g id="eb"><path id="ec" class="hz" d="m125.092,60.692c1.148-.648,1.436-1.226,1.343-2.092-.024-.22-.122-.391-.282-.486-.245-.145-.628-.112-1.059.186v2.391Z"/></g><g id="ed"><path id="ee" class="hz" d="m125.104,60.171c.461-.222.798-.842.767-1.195-.011-.127-.07-.224-.162-.278-.14-.083-.358-.063-.604.107v1.366Z"/></g><polygon class="hz" points="90.452 78.008 89.473 77.741 89.476 78.233 90.452 78.008"/><g id="ef"><g id="eg"><polygon class="ie" points="65.587 93.574 65.591 87.295 88.698 74.106 89.089 74.25 89.47 74.354 89.467 80.632 66.403 93.796 65.587 93.574"/><path class="if" d="m88.671,74.266l.379.104.295.081-.003,6.11-22.956,13.102-.421-.115-.252-.069.003-6.11,22.956-13.102m-.034-.268l-23.172,13.225-.003,6.446c.319.087.639.175.958.262,7.724-4.408,15.448-8.817,23.172-13.225.001-2.149.002-4.297.003-6.446-.319-.087-.639-.175-.958-.262h0Z"/></g></g><g id="eh"><g id="ei"><polygon class="ie" points="66.548 87.557 89.47 74.475 89.467 80.632 66.545 93.715 66.548 87.557"/><path class="if" d="m89.345,74.69l-.003,5.87-22.672,12.94.003-5.87,22.672-12.94m.25-.431h.005-.005Zm0,0l-23.172,13.225-.003,6.446,23.172-13.225.003-6.446h0Z"/></g></g><g id="ej"><polygon id="ek" class="hw" points="87.16 78.196 85.977 78.871 85.976 80.222 87.159 79.547 87.16 78.196"/></g><g id="el"><polygon id="em" class="hw" points="69.845 88.078 68.662 88.753 68.661 90.105 69.844 89.43 69.845 88.078"/></g><g id="en"><polygon id="eo" class="hw" points="78.599 83.082 77.416 83.757 77.416 85.108 78.599 84.433 78.599 83.082"/></g><g id="ep"><path id="eq" class="hz" d="m65.635,87.307c-.27.167-.972.716-1.116,1.264-.145.553-.129,1.056.056,1.313.318.09.637.18.955.27.34-.069.681-.137,1.021-.206,0-.797,0-1.594.001-2.391-.306-.084-.612-.167-.917-.251Z"/></g><g id="er"><path id="es" class="hz" d="m66.553,87.558c-1.148.648-1.436,1.226-1.343,2.092.024.22.122.391.282.486.245.145.628.112,1.059-.186v-2.391Z"/></g><g id="et"><path id="eu" class="hz" d="m66.486,88.109c-.461.222-.798.842-.767,1.195.011.127.07.224.162.278.14.083.358.063.604-.107v-1.366Z"/></g><g id="ev"><path id="ew" class="hz" d="m89.475,80.625c1.148-.648,1.436-1.226,1.343-2.092-.024-.22-.122-.391-.282-.486-.245-.145-.628-.112-1.059.186v2.391Z"/></g><g id="ex"><path id="ey" class="hz" d="m89.487,80.104c.461-.222.798-.842.767-1.195-.011-.127-.07-.224-.162-.278-.14-.083-.358-.063-.604.107v1.366Z"/></g><polygon class="hz" points="116.609 139.592 115.63 139.324 115.633 139.817 116.609 139.592"/><g id="ez"><g id="fa"><polygon class="ie" points="91.744 155.157 91.747 148.879 114.855 135.689 115.164 135.812 115.627 135.938 115.624 142.216 92.561 155.38 91.744 155.157"/><path class="if" d="m114.828,135.85l.482.132.192.052-.003,6.11-11.866,6.773-11.089,6.329-.296-.081-.378-.103.003-6.11,22.956-13.102m-.034-.268l-23.172,13.225-.003,6.446c.319.087.639.175.958.262,7.724-4.408,15.448-8.817,23.172-13.225,0-2.149.002-4.297.003-6.446-.319-.087-.639-.175-.958-.262h0Z"/></g></g><g id="fb"><g id="fc"><polygon class="ie" points="92.705 149.141 115.627 136.058 115.624 142.216 92.702 155.299 92.705 149.141"/><path class="if" d="m115.502,136.274l-.003,5.87-22.672,12.94.003-5.87,22.672-12.94m.25-.431h.005-.005Zm0,0l-23.172,13.225-.003,6.446,23.172-13.225.003-6.446h0Z"/></g></g><g id="fd"><polygon id="fe" class="hw" points="113.317 139.779 112.134 140.454 112.133 141.806 113.316 141.131 113.317 139.779"/></g><g id="ff"><polygon id="fg" class="hw" points="96.002 149.662 94.819 150.337 94.818 151.689 96.001 151.013 96.002 149.662"/></g><g id="fh"><polygon id="fi" class="hw" points="104.756 144.665 103.573 145.34 103.573 146.692 104.756 146.017 104.756 144.665"/></g><g id="fj"><path id="fk" class="hz" d="m91.792,148.891c-.27.167-.972.716-1.116,1.264-.145.553-.129,1.056.056,1.313.318.09.637.18.955.27.34-.069.681-.137,1.021-.206,0-.797,0-1.594.001-2.391-.306-.084-.612-.167-.917-.251Z"/></g><g id="fl"><path id="fm" class="hz" d="m92.71,149.142c-1.148.648-1.436,1.226-1.343,2.092.024.22.122.391.282.486.245.145.628.112,1.059-.186v-2.391Z"/></g><g id="fn"><path id="fo" class="hz" d="m92.643,149.693c-.461.222-.798.842-.767,1.195.011.127.07.224.162.278.14.083.358.063.604-.107v-1.366Z"/></g><g id="fp"><path id="fq" class="hz" d="m115.632,142.208c1.148-.648,1.436-1.226,1.343-2.092-.024-.22-.122-.391-.282-.486-.245-.145-.628-.112-1.059.186v2.391Z"/></g><g id="fr"><path id="fs" class="hz" d="m115.644,141.688c.461-.222.798-.842.767-1.195-.011-.127-.07-.224-.162-.278-.14-.083-.358-.063-.604.107v1.366Z"/></g><polygon class="hz" points="86.777 156.61 85.799 156.343 85.802 156.836 86.777 156.61"/><g id="ft"><g id="fu"><polygon class="ie" points="61.913 172.176 61.916 165.898 85.024 152.708 85.796 152.953 85.793 159.235 62.729 172.398 61.913 172.176"/><path class="if" d="m84.997,152.868l.296.081.378.103v3.032s-.003,3.078-.003,3.078l-11.46,6.541-11.496,6.561-.379-.104-.295-.081.003-6.11,22.956-13.102m-.034-.268l-23.172,13.225-.003,6.446c.319.087.639.175.958.262,7.724-4.408,15.448-8.817,23.172-13.225.001-2.149.002-4.297.003-6.446-.319-.087-.639-.175-.958-.262h0Z"/></g></g><g id="fv"><g id="fw"><polygon class="ie" points="62.874 166.16 85.796 153.077 85.793 159.234 62.871 172.317 62.874 166.16"/><path class="if" d="m85.671,153.292l-.003,5.87-22.672,12.94.003-5.87,22.671-12.94m.25-.431h.005-.005Zm0,0l-23.172,13.225-.003,6.446,23.172-13.225.003-6.446h0Z"/></g></g><g id="fx"><polygon id="fy" class="hw" points="83.486 156.798 82.303 157.473 82.302 158.824 83.485 158.149 83.486 156.798"/></g><g id="fz"><polygon id="ga" class="hw" points="66.171 166.68 64.988 167.355 64.987 168.707 66.17 168.032 66.171 166.68"/></g><g id="gb"><polygon id="gc" class="hw" points="74.925 161.684 73.742 162.359 73.742 163.71 74.924 163.035 74.925 161.684"/></g><g id="gd"><path id="ge" class="hz" d="m61.961,165.909c-.27.167-.972.716-1.116,1.264-.145.553-.129,1.056.056,1.313.318.09.637.18.955.27.34-.069.681-.137,1.021-.206,0-.797,0-1.594.001-2.391-.306-.084-.612-.167-.917-.251Z"/></g><g id="gf"><path id="gg" class="hz" d="m62.879,166.16c-1.148.648-1.436,1.226-1.343,2.092.024.22.122.391.282.486.245.145.628.112,1.059-.186v-2.391Z"/></g><g id="gh"><path id="gi" class="hz" d="m62.812,166.711c-.461.222-.798.842-.767,1.195.011.127.07.224.162.278.14.083.358.063.604-.107v-1.366Z"/></g><g id="gj"><path id="gk" class="hz" d="m85.801,159.227c1.148-.648,1.436-1.226,1.343-2.092-.024-.22-.122-.391-.282-.486-.245-.145-.628-.112-1.059.186v2.391Z"/></g><g id="gl"><path id="gm" class="hz" d="m85.813,158.707c.461-.222.798-.842.767-1.195-.011-.127-.07-.224-.162-.278-.14-.083-.358-.063-.604.107v1.366Z"/></g><polygon class="hz" points="86.777 238.918 85.799 238.65 85.802 239.143 86.777 238.918"/><g id="gn"><g id="go"><polygon class="ie" points="61.913 254.483 61.916 248.205 85.024 235.016 85.796 235.261 85.793 241.542 62.729 254.707 61.913 254.483"/><path class="if" d="m84.997,235.176l.296.081.378.103v3.032s-.003,3.078-.003,3.078l-11.46,6.541-11.496,6.561-.379-.104-.295-.081.003-6.11,22.956-13.102m-.034-.268l-23.172,13.225-.003,6.446c.319.087.639.175.958.262,7.724-4.408,15.448-8.817,23.172-13.225.001-2.149.002-4.297.003-6.446-.319-.087-.639-.175-.958-.262h0Z"/></g></g><g id="gp"><g id="gq"><polygon class="ie" points="62.874 248.466 85.796 235.384 85.793 241.542 62.871 254.625 62.874 248.466"/><path class="if" d="m85.671,235.6l-.003,5.87-22.672,12.94.003-5.87,22.671-12.94m.25-.431h.005-.005Zm0,0l-23.172,13.225-.003,6.446,23.172-13.225.003-6.446h0Z"/></g></g><g id="gr"><polygon id="gs" class="hw" points="83.486 239.105 82.303 239.781 82.302 241.132 83.485 240.457 83.486 239.105"/></g><g id="gt"><polygon id="gu" class="hw" points="66.171 248.988 64.988 249.663 64.987 251.015 66.17 250.34 66.171 248.988"/></g><g id="gv"><polygon id="gw" class="hw" points="74.925 243.991 73.742 244.666 73.742 246.018 74.924 245.343 74.925 243.991"/></g><g id="gx"><path id="gy" class="hz" d="m61.961,248.217c-.27.167-.972.716-1.116,1.264-.145.553-.129,1.056.056,1.313.318.09.637.18.955.27.34-.069.681-.137,1.021-.206,0-.797,0-1.594.001-2.391-.306-.084-.612-.167-.917-.251Z"/></g><g id="gz"><path id="ha" class="hz" d="m62.879,248.468c-1.148.648-1.436,1.226-1.343,2.092.024.22.122.391.282.486.245.145.628.112,1.059-.186v-2.391Z"/></g><g id="hb"><path id="hc" class="hz" d="m62.812,249.019c-.461.222-.798.842-.767,1.195.011.127.07.224.162.278.14.083.358.063.604-.107v-1.366Z"/></g><g id="hd"><path id="he" class="hz" d="m85.801,241.535c1.148-.648,1.436-1.226,1.343-2.092-.024-.22-.122-.391-.282-.486-.245-.145-.628-.112-1.059.186v2.391Z"/></g><g id="hf"><path id="hg" class="hz" d="m85.813,241.014c.461-.222.798-.842.767-1.195-.011-.127-.07-.224-.162-.278-.14-.083-.358-.063-.604.107v1.366Z"/></g><polygon class="ik" points="134.579 30.459 144.206 35.969 139.406 76.955 129.78 71.445 134.579 30.459"/><polygon class="ik" points="122.48 113.316 132.082 118.86 132.082 157.122 122.48 151.578 122.48 113.316"/><polygon class="ik" points="134.604 189.103 144.206 194.647 144.206 232.908 134.604 227.364 134.604 189.103"/><path class="in" d="m33.736,88.082c3.619,2.072,6.671,3.82,9.623,5.51,33.616-19.208,67.231-38.416,100.847-57.623-3.437-1.967-6.396-3.661-9.626-5.51l-100.843,57.623Z"/><path class="in" d="m67.198,107.188l9.615,5.552c20.865-11.928,41.729-23.857,62.593-35.785-3.755-2.15-6.463-3.699-9.626-5.51-20.861,11.915-41.721,23.829-62.582,35.744Z"/><path class="in" d="m67.198,144.891c3.272,1.889,5.801,3.35,9.615,5.552,18.423-10.527,36.846-21.055,55.27-31.582-3.592-2.074-6.258-3.613-9.602-5.544-18.427,10.525-36.855,21.05-55.283,31.575Z"/><path class="in" d="m67.198,183.152c3.539,2.043,5.858,3.383,9.615,5.552,18.423-10.527,36.846-21.055,55.27-31.582-6.219-3.591-5.335-3.08-9.602-5.544-18.427,10.525-36.855,21.05-55.283,31.575Z"/><path class="in" d="m67.198,227.638c1.603.925,3.205,1.851,4.807,2.776s3.205,1.851,4.807,2.776c18.423-10.527,48.97-28.015,67.393-38.543-3.878-2.239-6.456-3.728-9.602-5.544-18.427,10.525-48.979,28.01-67.406,38.535Z"/><path class="in" d="m33.744,284.98c3.916,2.261,5.507,3.18,9.615,5.552,18.423-10.527,82.424-47.096,100.847-57.623-3.886-2.243-6.26-3.614-9.602-5.544-18.427,10.525-82.432,47.091-100.86,57.616Z"/><polygon class="ik" points="33.736 88.082 43.359 93.592 43.359 290.532 33.744 284.98 33.736 88.082"/><polygon class="ik" points="67.198 107.188 76.813 112.74 76.813 150.442 67.198 144.891 67.198 107.188"/><polygon class="ik" points="67.198 183.152 76.813 188.704 76.813 233.19 67.198 227.638 67.198 183.152"/><g id="hh"><path id="hi" class="hx" d="m57.873,172.48c-.2-.116-.321-.367-.321-.72,0-.713.5-1.579,1.118-1.936.312-.18.592-.193.796-.075.2.116.321.367.321.72,0,.713-.5,1.579-1.118,1.936-.312.18-.592.193-.796.075Z"/><line class="ib" x1="58.165" y1="170.837" x2="59.173" y2="171.392"/><line class="ib" x1="59.169" y1="170.236" x2="58.169" y2="171.993"/></g><g id="hj"><path id="hk" class="hx" d="m118.713,137.914c-.2-.116-.321-.367-.321-.72,0-.713.5-1.579,1.118-1.936.312-.18.592-.193.796-.075.2.116.321.367.321.72,0,.713-.5,1.579-1.118,1.936-.312.18-.592.193-.796.075Z"/><line class="ib" x1="119.005" y1="136.271" x2="120.014" y2="136.826"/><line class="ib" x1="120.009" y1="135.67" x2="119.01" y2="137.427"/></g><g id="hl"><path id="hm" class="hx" d="m91.489,236.273c-.2-.116-.321-.367-.321-.72,0-.713.5-1.579,1.118-1.936.312-.18.592-.193.796-.075.2.116.321.367.321.72,0,.713-.5,1.579-1.118,1.936-.312.18-.592.193-.796.075Z"/><line class="ib" x1="91.781" y1="234.63" x2="92.79" y2="235.185"/><line class="ib" x1="92.785" y1="234.029" x2="91.786" y2="235.786"/></g><g id="hn"><path id="ho" class="hx" d="m94.431,76.805c-.2-.116-.321-.367-.321-.72,0-.713.5-1.579,1.118-1.936.312-.18.592-.193.796-.075.2.116.321.367.321.72,0,.713-.5,1.579-1.118,1.936-.312.18-.592.193-.796.075Z"/><line class="ib" x1="94.723" y1="75.162" x2="95.731" y2="75.717"/><line class="ib" x1="95.726" y1="74.561" x2="94.727" y2="76.318"/></g><path class="ik" d="m97.201,321.081V124.141l100.843-57.623c5.857,3.382,11.715,6.764,17.572,10.145s11.715,6.764,17.572,10.145c-1.617,13.677-3.234,27.354-4.851,41.03-20.847,11.914-41.694,23.827-62.542,35.74-2.612,1.047-5.223,2.094-7.835,3.142-2.612,1.047-5.223,2.094-7.835,3.142,11.932-6.818,23.863-13.636,35.795-20.454,5.857,3.382,11.715,6.764,17.572,10.145,5.858,3.382,11.715,6.764,17.573,10.145v38.262c-18.423,10.527-36.846,21.055-55.27,31.582-2.612,2.172-5.223,4.344-7.835,6.517-2.612,2.172-5.223,4.344-7.835,6.516,15.973-9.127,31.945-18.254,47.918-27.381,5.857,3.382,11.715,6.764,17.572,10.145s11.715,6.764,17.572,10.145v38.262c-33.616,19.208-67.231,38.416-100.847,57.623-5.857-3.382-11.714-6.764-17.571-10.145-5.857-3.382-11.714-6.764-17.571-10.145Z"/><polygon class="ie" points="132.468 144.505 233.036 87.04 228.221 127.762 165.672 163.507 165.672 201.498 220.941 169.915 220.941 207.889 165.672 239.471 165.672 284.211 233.064 245.703 233.064 283.675 132.468 341.156 132.468 144.505"/><path class="in" d="m232.883,87.272l-4.778,40.413-62.432,35.678-.126.072v38.278l.374-.214,54.896-31.368v37.686l-55.144,31.51-.126.072v45.028l.374-.214,67.019-38.296v37.686l-100.347,57.338v-196.363l100.29-57.305m.307-.463l-100.847,57.623v196.939l100.847-57.623v-38.262l-67.393,38.509v-44.452l55.27-31.582v-38.262l-55.27,31.582v-37.702l62.542-35.74,4.851-41.03h0Z"/><path class="in" d="m97.198,124.141c11.715,6.764,23.43,13.527,35.145,20.291l100.847-57.623c-11.715-6.764-23.43-13.527-35.145-20.291-33.616,19.208-67.231,38.416-100.847,57.623Z"/><g id="hp"><g id="hq"><path id="hr" class="hx" d="m132.561,113.195c0,.314-.208.628-.623.868-.831.48-2.177.48-3.008,0-.416-.24-.623-.554-.623-.869s.208-.628.623-.868c.831-.48,2.177-.48,3.008,0,.416.24.623.554.623.869Z"/></g><line class="ia" x1="129.531" y1="112.673" x2="131.337" y2="113.716"/><line class="ia" x1="129.546" y1="113.707" x2="131.322" y2="112.682"/></g><g id="hs"><g id="ht"><path id="hu" class="hx" d="m183.844,83.587c0,.314-.208.628-.623.868-.831.48-2.177.48-3.008,0-.416-.24-.623-.554-.623-.869s.208-.628.623-.868c.831-.48,2.177-.48,3.008,0,.416.24.623.554.623.869Z"/></g><line class="ia" x1="180.814" y1="83.065" x2="182.619" y2="84.108"/><line class="ia" x1="180.829" y1="84.099" x2="182.604" y2="83.074"/></g><path class="ii" d="m161.412,401.943c0-.639-.459-.98-1.278-.98h-.783v-.828h.774c.648,0,1.062-.424,1.062-.955,0-.576-.414-.9-1.107-.9-.45,0-.855.081-1.323.307l-.388-.766c.621-.306,1.135-.405,1.756-.405,1.125,0,2.062.478,2.062,1.576,0,.828-.495,1.323-1.071,1.477v.026c.792.171,1.296.657,1.296,1.53,0,1.288-1.008,1.873-2.305,1.873-.684,0-1.313-.18-1.881-.54l.44-.766c.45.279.955.441,1.44.441.774,0,1.306-.414,1.306-1.09Z"/><path class="ii" d="m165.976,401.106v-.306c0-.55-.234-.892-.909-.892-.415,0-.819.09-1.243.243l-.27-.729c.531-.198,1.044-.297,1.62-.297,1.404,0,1.737.738,1.737,1.692v1.927c0,.225.126.324.324.324h.1v.693c-.136.054-.36.09-.54.09-.424,0-.648-.252-.729-.531h-.036c-.333.333-.702.531-1.297.531-.873,0-1.422-.433-1.422-1.368,0-.874.72-1.378,1.737-1.378h.928Zm-.964.729c-.45,0-.774.252-.774.666s.307.612.676.612c.44,0,.792-.226,1.062-.567v-.711h-.964Z"/><path class="ii" d="m168.261,403.024c.495-.838.621-1.702.621-3.305v-.504h3.016v3.809h.729l-.18,1.927h-.757v-1.144h-3.105v1.144h-.757l-.18-1.927h.612Zm1.558-2.89c0,1.062-.198,2.232-.559,2.89h1.702v-3.025h-1.144v.136Z"/><path class="ii" d="m177.162,403.807h-.937v-1.972h-1.81v1.972h-.936v-4.592h.936v1.837h1.81v-1.837h.937v4.592Z"/><path class="ii" d="m179.304,402.015c-.541-.216-.847-.684-.847-1.341,0-.892.604-1.459,1.594-1.459h1.81v4.592h-.937v-1.666h-.711l-.99,1.666h-1.071l1.152-1.792Zm.837-.648h.783v-1.368h-.783c-.45,0-.729.288-.729.693s.279.675.729.675Z"/><path class="ii" d="m184.002,402.015c-.541-.216-.847-.684-.847-1.341,0-.892.604-1.459,1.594-1.459h1.81v4.592h-.937v-1.666h-.711l-.99,1.666h-1.071l1.152-1.792Zm.837-.648h.783v-1.368h-.783c-.45,0-.729.288-.729.693s.279.675.729.675Z"/><path class="ii" d="m193.28,402.916l.288.721c-.387.171-.792.261-1.261.261-1.485,0-2.241-1.062-2.241-2.386s.711-2.386,2.196-2.386c.433,0,.874.081,1.261.243l-.288.72c-.306-.126-.604-.18-.918-.18-.774,0-1.297.648-1.297,1.603s.514,1.603,1.287,1.603c.315,0,.667-.072.973-.198Z"/><path class="ii" d="m194.018,399.215h3.89l-.181.783h-1.323v3.809h-.927v-3.809h-1.459v-.783Z"/><path class="ii" d="m202.235,401.727h-2.917c.063.892.531,1.387,1.359,1.387.414,0,.811-.145,1.144-.315l.307.712c-.441.225-.955.387-1.54.387-1.351,0-2.232-.882-2.232-2.386,0-1.513.828-2.386,2.07-2.386,1.233,0,1.891.721,1.891,1.846,0,.234-.026.486-.081.756Zm-2.881-.729h2.125c0-.631-.342-1.09-1.035-1.09-.621,0-1.009.441-1.09,1.09Z"/><path class="ii" d="m207.168,403.807h-.937v-1.972h-1.81v1.972h-.936v-4.592h.936v1.837h1.81v-1.837h.937v4.592Z"/><path class="ii" d="m210.804,401.43l1.521,2.377-.954.09-1.324-2.08h-.504v1.99h-.936v-4.592h.936v1.854h.514l1.206-1.854h.973l-1.432,2.215Z"/><path class="ii" d="m215.438,401.106v-.306c0-.55-.234-.892-.909-.892-.415,0-.819.09-1.243.243l-.27-.729c.531-.198,1.044-.297,1.62-.297,1.404,0,1.737.738,1.737,1.692v1.927c0,.225.126.324.324.324h.1v.693c-.136.054-.36.09-.54.09-.424,0-.648-.252-.729-.531h-.036c-.333.333-.702.531-1.297.531-.873,0-1.422-.433-1.422-1.368,0-.874.72-1.378,1.737-1.378h.928Zm-.964.729c-.45,0-.774.252-.774.666s.307.612.676.612c.44,0,.792-.226,1.062-.567v-.711h-.964Z"/><path class="il" d="m161.529,413.715l.288.721c-.387.171-.792.261-1.261.261-1.485,0-2.241-1.062-2.241-2.386s.711-2.386,2.196-2.386c.433,0,.874.081,1.261.243l-.288.72c-.307-.126-.604-.18-.918-.18-.774,0-1.297.648-1.297,1.603s.514,1.603,1.287,1.603c.315,0,.667-.072.973-.198Z"/><path class="il" d="m165.155,415.687c.135.054.306.117.495.117.207,0,.44-.1.567-.531l.197-.666h-.333l-1.611-4.592h1.026l1.188,3.521h.036l1.062-3.521h1.008l-1.765,5.474c-.288.883-.828,1.099-1.323,1.099-.324,0-.594-.09-.792-.171l.243-.729Z"/><path class="il" d="m172.41,413.715l.288.721c-.387.171-.792.261-1.261.261-1.485,0-2.241-1.062-2.241-2.386s.711-2.386,2.196-2.386c.433,0,.874.081,1.261.243l-.288.72c-.307-.126-.604-.18-.918-.18-.774,0-1.297.648-1.297,1.603s.514,1.603,1.287,1.603c.315,0,.667-.072.973-.198Z"/><path class="il" d="m173.146,410.015h3.89l-.181.783h-1.323v3.809h-.927v-3.809h-1.459v-.783Z"/><path class="il" d="m180.15,411.906v-.306c0-.55-.234-.892-.91-.892-.414,0-.818.09-1.242.243l-.27-.729c.531-.198,1.044-.297,1.62-.297,1.404,0,1.737.738,1.737,1.692v1.927c0,.225.126.324.324.324h.1v.693c-.136.054-.36.09-.541.09-.423,0-.647-.252-.729-.531h-.036c-.333.333-.702.531-1.297.531-.873,0-1.422-.433-1.422-1.368,0-.874.72-1.378,1.737-1.378h.928Zm-.964.729c-.45,0-.774.252-.774.666s.307.612.676.612c.441,0,.792-.226,1.062-.567v-.711h-.964Z"/><path class="il" d="m186.181,414.607h-.937v-1.972h-1.81v1.972h-.937v-4.592h.937v1.837h1.81v-1.837h.937v4.592Z"/><path class="il" d="m187.349,412.311c0-1.494.837-2.386,2.115-2.386s2.116.892,2.116,2.386-.838,2.386-2.116,2.386-2.115-.892-2.115-2.386Zm.954,0c0,1.008.459,1.603,1.161,1.603s1.162-.595,1.162-1.603-.46-1.603-1.162-1.603-1.161.594-1.161,1.603Z"/><path class="il" d="m196.313,413.284c0,.828-.522,1.323-1.566,1.323h-1.999v-4.592h1.855c.918,0,1.521.343,1.521,1.171,0,.495-.369.882-.783.98v.027c.44.1.972.423.972,1.09Zm-2.629-2.485v1.045h.738c.423,0,.747-.136.747-.522,0-.405-.288-.522-.684-.522h-.802Zm0,1.828v1.197h.909c.478,0,.766-.189.766-.595s-.315-.603-.855-.603h-.819Z"/><path class="il" d="m197.114,413.743c.099.062.207.09.306.09.423,0,.657-.873.657-3.052v-.766h3.07v4.592h-.937v-3.809h-1.242v.198c0,2.449-.441,3.655-1.477,3.655-.252,0-.433-.054-.595-.162l.217-.747Z"/><path class="il" d="m206.195,412.527h-2.917c.063.892.531,1.387,1.359,1.387.414,0,.811-.145,1.144-.315l.307.712c-.441.225-.955.387-1.54.387-1.351,0-2.232-.882-2.232-2.386,0-1.513.828-2.386,2.07-2.386,1.233,0,1.891.721,1.891,1.846,0,.234-.026.486-.081.756Zm-2.881-.729h2.125c0-.631-.342-1.09-1.035-1.09-.621,0-1.009.441-1.09,1.09Z"/><path class="il" d="m211.128,414.607h-.937v-1.972h-1.81v1.972h-.937v-4.592h.937v1.837h1.81v-1.837h.937v4.592Z"/><path class="il" d="m216.249,414.607h-.937v-1.972h-1.81v1.972h-.937v-4.592h.937v1.837h1.81v-1.837h.937v4.592Z"/><path class="il" d="m218.623,411.69h.819c.99,0,1.639.54,1.639,1.468s-.648,1.449-1.639,1.449h-1.755v-4.592h.936v1.675Zm0,.783v1.351h.729c.478,0,.774-.252.774-.676s-.297-.675-.774-.675h-.729Zm4.069,2.134h-.937v-4.592h.937v4.592Z"/><path class="il" d="m226.958,413.86h-.972l-.9-2.503h-.036l-.262,3.25h-.927l.441-4.592h1.071l1.08,2.936h.036l1.08-2.936h1.071l.441,4.592h-.928l-.261-3.25h-.036l-.9,2.503Z"/><path class="il" d="m230.252,414.607v-4.592h.936v3.062h.036l2.116-3.062h.837v4.592h-.937v-3.062h-.036l-2.115,3.062h-.837Z"/><path class="il" d="m161.529,424.516l.288.72c-.387.171-.792.261-1.261.261-1.485,0-2.241-1.062-2.241-2.386s.711-2.385,2.196-2.385c.433,0,.874.08,1.261.242l-.288.721c-.307-.126-.604-.18-.918-.18-.774,0-1.297.647-1.297,1.602s.514,1.603,1.287,1.603c.315,0,.667-.071.973-.197Z"/><path class="il" d="m166.371,424.083c0,.828-.522,1.323-1.566,1.323h-1.998v-4.591h1.854c.918,0,1.521.342,1.521,1.17,0,.495-.369.883-.784.981v.027c.441.099.973.423.973,1.089Zm-2.629-2.484v1.044h.738c.423,0,.747-.135.747-.522,0-.404-.288-.521-.684-.521h-.802Zm0,1.827v1.197h.909c.478,0,.766-.188.766-.594s-.315-.604-.855-.604h-.819Z"/><path class="il" d="m171.15,423.328h-2.917c.063.891.531,1.386,1.359,1.386.414,0,.811-.144,1.144-.314l.307.711c-.441.226-.955.387-1.54.387-1.351,0-2.232-.882-2.232-2.386,0-1.512.828-2.385,2.07-2.385,1.233,0,1.891.72,1.891,1.845,0,.234-.026.486-.081.757Zm-2.881-.729h2.125c0-.63-.342-1.089-1.035-1.089-.621,0-1.009.44-1.09,1.089Z"/><path class="il" d="m171.859,420.816h3.89l-.181.783h-1.323v3.808h-.927v-3.808h-1.459v-.783Z"/><path class="il" d="m176.198,423.111c0-1.494.837-2.385,2.115-2.385s2.116.891,2.116,2.385-.838,2.386-2.116,2.386-2.115-.891-2.115-2.386Zm.954,0c0,1.009.459,1.603,1.161,1.603s1.162-.594,1.162-1.603-.46-1.602-1.162-1.602-1.161.594-1.161,1.602Z"/><path class="il" d="m181.445,424.624c.495-.837.621-1.701.621-3.304v-.504h3.016v3.808h.729l-.18,1.927h-.757v-1.144h-3.105v1.144h-.757l-.18-1.927h.612Zm1.558-2.89c0,1.062-.198,2.232-.559,2.89h1.702v-3.024h-1.144v.135Z"/><path class="il" d="m186.666,425.407v-4.591h.936v3.061h.036l2.116-3.061h.837v4.591h-.937v-3.061h-.036l-2.115,3.061h-.837Z"/><path class="il" d="m191.759,423.111c0-1.494.837-2.385,2.115-2.385s2.116.891,2.116,2.385-.838,2.386-2.116,2.386-2.115-.891-2.115-2.386Zm.954,0c0,1.009.459,1.603,1.161,1.603s1.162-.594,1.162-1.603-.46-1.602-1.162-1.602-1.161.594-1.161,1.602Z"/><path class="il" d="m197.006,424.624c.495-.837.621-1.701.621-3.304v-.504h3.016v3.808h.729l-.18,1.927h-.757v-1.144h-3.105v1.144h-.757l-.18-1.927h.612Zm1.558-2.89c0,1.062-.198,2.232-.559,2.89h1.702v-3.024h-1.144v.135Z"/><path class="il" d="m205.908,425.407h-.937v-1.972h-1.81v1.972h-.936v-4.591h.936v1.836h1.81v-1.836h.937v4.591Z"/><path class="il" d="m208.283,422.49h.819c.99,0,1.639.541,1.639,1.468s-.648,1.449-1.639,1.449h-1.755v-4.591h.936v1.674Zm0,.783v1.351h.729c.478,0,.774-.252.774-.675s-.297-.676-.774-.676h-.729Zm4.069,2.134h-.937v-4.591h.937v4.591Z"/><path class="il" d="m216.617,424.66h-.972l-.9-2.503h-.036l-.262,3.25h-.927l.441-4.591h1.071l1.08,2.935h.036l1.08-2.935h1.071l.441,4.591h-.928l-.261-3.25h-.036l-.9,2.503Z"/><path class="il" d="m219.91,425.407v-4.591h.937v3.061h.036l2.116-3.061h.837v4.591h-.937v-3.061h-.036l-2.115,3.061h-.838Z"/><path class="il" d="m161.412,435.459h-.972l-.9-2.503h-.036l-.262,3.25h-.927l.441-4.591h1.071l1.08,2.935h.036l1.08-2.935h1.071l.441,4.591h-.928l-.261-3.25h-.036l-.9,2.503Z"/><path class="il" d="m164.436,433.911c0-1.494.837-2.385,2.115-2.385s2.116.891,2.116,2.385-.838,2.386-2.116,2.386-2.115-.891-2.115-2.386Zm.954,0c0,1.009.459,1.603,1.161,1.603s1.162-.594,1.162-1.603-.46-1.602-1.162-1.602-1.161.594-1.161,1.602Z"/><path class="il" d="m169.683,435.423c.495-.837.621-1.701.621-3.304v-.504h3.016v3.808h.729l-.18,1.927h-.757v-1.144h-3.105v1.144h-.757l-.18-1.927h.612Zm1.558-2.89c0,1.062-.198,2.232-.559,2.89h1.702v-3.024h-1.144v.135Z"/><path class="il" d="m174.911,437.288c.135.054.306.116.495.116.207,0,.44-.099.567-.531l.197-.666h-.333l-1.611-4.591h1.026l1.188,3.52h.036l1.062-3.52h1.008l-1.765,5.474c-.288.882-.828,1.098-1.323,1.098-.324,0-.594-.09-.792-.171l.243-.729Z"/><path class="il" d="m178.764,435.342c.099.063.207.09.306.09.423,0,.657-.873.657-3.052v-.765h3.07v4.591h-.937v-3.808h-1.242v.198c0,2.448-.441,3.654-1.477,3.654-.252,0-.433-.054-.595-.162l.217-.747Z"/><path class="il" d="m184.938,434.416c-.541-.217-.847-.685-.847-1.342,0-.892.604-1.458,1.594-1.458h1.81v4.591h-.937v-1.665h-.711l-.99,1.665h-1.071l1.152-1.791Zm.837-.648h.783v-1.368h-.783c-.45,0-.729.288-.729.693s.279.675.729.675Z"/><path class="il" d="m191.76,435.459h-.972l-.9-2.503h-.036l-.262,3.25h-.927l.441-4.591h1.071l1.08,2.935h.036l1.08-2.935h1.071l.441,4.591h-.928l-.261-3.25h-.036l-.9,2.503Z"/><path class="il" d="m195.053,436.207v-4.591h.937v3.061h.036l2.116-3.061h.837v4.591h-.937v-3.061h-.036l-2.115,3.061h-.838Z"/><path class="ii" d="m159.051,368.115v1.639h.874c1.305,0,2.178.612,2.178,1.899s-.864,1.899-2.178,1.899h-1.846v-6.302h3.601l-.18.864h-2.449Zm0,2.503v2.07h.819c.855,0,1.225-.432,1.225-1.035,0-.639-.36-1.035-1.233-1.035h-.811Z"/><path class="ii" d="m162.866,371.256c0-1.494.837-2.386,2.115-2.386s2.116.892,2.116,2.386-.838,2.386-2.116,2.386-2.115-.891-2.115-2.386Zm.954,0c0,1.009.459,1.603,1.161,1.603s1.162-.594,1.162-1.603-.46-1.602-1.162-1.602-1.161.594-1.161,1.602Z"/><path class="ii" d="m170.464,371.175l1.521,2.377-.954.09-1.323-2.079h-.505v1.989h-.937v-4.591h.937v1.854h.514l1.206-1.854h.973l-1.432,2.214Z"/><path class="ii" d="m172.434,371.256c0-1.494.837-2.386,2.115-2.386s2.116.892,2.116,2.386-.838,2.386-2.116,2.386-2.115-.891-2.115-2.386Zm.954,0c0,1.009.459,1.603,1.161,1.603s1.162-.594,1.162-1.603-.46-1.602-1.162-1.602-1.161.594-1.161,1.602Z"/><path class="ii" d="m181.398,372.229c0,.828-.522,1.323-1.566,1.323h-1.999v-4.591h1.855c.918,0,1.521.342,1.521,1.17,0,.495-.369.883-.783.981v.027c.44.099.972.423.972,1.089Zm-2.629-2.484v1.044h.738c.423,0,.747-.135.747-.522,0-.404-.288-.521-.684-.521h-.802Zm0,1.827v1.197h.909c.478,0,.766-.188.766-.594s-.315-.604-.855-.604h-.819Z"/><path class="ii" d="m183.503,370.635h.819c.99,0,1.639.54,1.639,1.468s-.648,1.449-1.639,1.449h-1.755v-4.591h.936v1.674Zm0,.783v1.351h.729c.478,0,.774-.252.774-.675s-.297-.676-.774-.676h-.729Zm4.069,2.134h-.937v-4.591h.937v4.591Z"/><path class="ii" d="m192.621,371.473h-2.917c.063.891.531,1.386,1.359,1.386.414,0,.811-.144,1.144-.314l.307.711c-.441.225-.955.387-1.54.387-1.351,0-2.232-.882-2.232-2.386,0-1.512.828-2.386,2.07-2.386,1.233,0,1.891.721,1.891,1.846,0,.234-.026.486-.081.757Zm-2.881-.729h2.125c0-.63-.342-1.089-1.035-1.089-.621,0-1.009.44-1.09,1.089Z"/><path class="ii" d="m199.155,372.662l.288.72c-.387.171-.792.261-1.261.261-1.485,0-2.241-1.062-2.241-2.386s.711-2.386,2.196-2.386c.433,0,.874.081,1.261.243l-.288.721c-.307-.126-.604-.18-.918-.18-.774,0-1.297.647-1.297,1.602s.514,1.603,1.287,1.603c.315,0,.667-.071.973-.197Z"/><path class="ii" d="m199.892,368.961h3.89l-.181.783h-1.323v3.808h-.927v-3.808h-1.459v-.783Z"/><path class="ii" d="m208.11,371.473h-2.917c.063.891.531,1.386,1.359,1.386.414,0,.811-.144,1.144-.314l.307.711c-.441.225-.955.387-1.54.387-1.351,0-2.232-.882-2.232-2.386,0-1.512.828-2.386,2.07-2.386,1.233,0,1.891.721,1.891,1.846,0,.234-.026.486-.081.757Zm-2.881-.729h2.125c0-.63-.342-1.089-1.035-1.089-.621,0-1.009.44-1.09,1.089Z"/><path class="ii" d="m213.042,373.552h-.937v-1.972h-1.81v1.972h-.936v-4.591h.936v1.836h1.81v-1.836h.937v4.591Z"/><path class="ii" d="m216.678,371.175l1.521,2.377-.954.09-1.324-2.079h-.504v1.989h-.936v-4.591h.936v1.854h.514l1.206-1.854h.973l-1.432,2.214Z"/><path class="ii" d="m219.007,373.552v-4.591h.937v3.061h.036l2.116-3.061h.837v4.591h-.937v-3.061h-.036l-2.115,3.061h-.838Z"/><path class="ii" d="m228.872,367.953c-.999.072-1.485.423-1.485,1.737h.027c.396-.414.864-.594,1.458-.594,1.125,0,1.899.747,1.899,2.277,0,1.495-.892,2.269-2.17,2.269-1.485,0-2.115-1.106-2.115-2.943,0-2.899.811-3.43,2.296-3.565.675-.062,1.026-.144,1.494-.333l.279.747c-.495.243-1.099.36-1.684.405Zm-.271,4.906c.702,0,1.216-.485,1.216-1.485s-.468-1.494-1.107-1.494c-.459,0-.945.234-1.287.783,0,1.468.369,2.196,1.179,2.196Z"/><path class="ii" d="m231.905,374.632c.135.055.306.117.495.117.207,0,.44-.099.567-.531l.197-.666h-.333l-1.611-4.591h1.026l1.188,3.52h.036l1.062-3.52h1.008l-1.765,5.474c-.288.882-.828,1.098-1.323,1.098-.324,0-.594-.09-.792-.171l.243-.729Z"/><path class="ii" d="m238.502,371.175l1.521,2.377-.954.09-1.324-2.079h-.504v1.989h-.936v-4.591h.936v1.854h.514l1.206-1.854h.973l-1.432,2.214Z"/><path class="ii" d="m244.397,372.229c0,.828-.522,1.323-1.566,1.323h-1.998v-4.591h1.854c.918,0,1.521.342,1.521,1.17,0,.495-.369.883-.784.981v.027c.441.099.973.423.973,1.089Zm-2.629-2.484v1.044h.738c.423,0,.747-.135.747-.522,0-.404-.288-.521-.684-.521h-.802Zm0,1.827v1.197h.909c.478,0,.766-.188.766-.594s-.315-.604-.855-.604h-.819Z"/><path class="ii" d="m246.503,370.635h.819c.99,0,1.639.54,1.639,1.468s-.648,1.449-1.639,1.449h-1.755v-4.591h.936v1.674Zm0,.783v1.351h.729c.478,0,.774-.252.774-.675s-.297-.676-.774-.676h-.729Zm4.069,2.134h-.937v-4.591h.937v4.591Z"/><path class="il" d="m161.554,383.029c0,.828-.522,1.323-1.566,1.323h-1.998v-4.591h1.854c.918,0,1.521.342,1.521,1.17,0,.495-.369.883-.784.981v.027c.441.099.973.423.973,1.089Zm-2.629-2.484v1.044h.738c.423,0,.747-.135.747-.522,0-.404-.288-.521-.684-.521h-.802Zm0,1.827v1.197h.909c.478,0,.766-.188.766-.594s-.315-.604-.855-.604h-.819Z"/><path class="il" d="m166.404,384.352h-.937v-1.972h-1.81v1.972h-.937v-4.591h.937v1.836h1.81v-1.836h.937v4.591Z"/><path class="il" d="m167.853,385.432c.135.055.306.117.495.117.207,0,.44-.099.567-.531l.197-.666h-.333l-1.611-4.591h1.026l1.188,3.52h.036l1.062-3.52h1.008l-1.765,5.474c-.288.882-.828,1.098-1.323,1.098-.324,0-.594-.09-.792-.171l.243-.729Z"/><path class="il" d="m171.713,379.761h3.89l-.18.783h-1.324v3.808h-.927v-3.808h-1.459v-.783Z"/><path class="il" d="m177.393,386.153l-.937.18v-6.571h.667l.18.485h.036c.324-.351.693-.576,1.306-.576,1.296,0,1.854,1.018,1.854,2.386s-.567,2.386-1.936,2.386c-.469,0-.838-.09-1.171-.242v1.953Zm2.152-4.097c0-.945-.379-1.602-1.171-1.602-.378,0-.702.225-.981.566v2.314c.288.207.612.323,1.018.323.711,0,1.135-.585,1.135-1.603Z"/><path class="il" d="m185.277,382.273h-2.917c.063.891.531,1.386,1.359,1.386.414,0,.811-.144,1.144-.314l.307.711c-.441.225-.955.387-1.54.387-1.351,0-2.232-.882-2.232-2.386,0-1.512.828-2.386,2.07-2.386,1.233,0,1.891.721,1.891,1.846,0,.234-.026.486-.081.757Zm-2.881-.729h2.125c0-.63-.342-1.089-1.035-1.089-.621,0-1.009.44-1.09,1.089Z"/><path class="il" d="m190.209,384.352h-.937v-1.972h-1.81v1.972h-.937v-4.591h.937v1.836h1.81v-1.836h.937v4.591Z"/><path class="il" d="m195.33,384.352h-.937v-1.972h-1.81v1.972h-.937v-4.591h.937v1.836h1.81v-1.836h.937v4.591Z"/><path class="il" d="m196.769,384.352v-4.591h.937v3.061h.036l2.116-3.061h.837v4.591h-.937v-3.061h-.036l-2.115,3.061h-.838Z"/><path class="il" d="m205.743,382.273h-2.917c.063.891.531,1.386,1.359,1.386.414,0,.811-.144,1.144-.314l.307.711c-.441.225-.955.387-1.54.387-1.351,0-2.232-.882-2.232-2.386,0-1.512.828-2.386,2.07-2.386,1.233,0,1.891.721,1.891,1.846,0,.234-.026.486-.081.757Zm-2.881-.729h2.125c0-.63-.342-1.089-1.035-1.089-.621,0-1.009.44-1.09,1.089Z"/><path class="ii" d="m266.997,82.336c0,1.333.45,2.376,1.603,2.376.485,0,.936-.135,1.377-.387l.378.765c-.567.324-1.044.486-1.755.486-1.873,0-2.611-1.422-2.611-3.241s.738-3.241,2.611-3.241c.576,0,1.044.09,1.647.405l-.379.765c-.44-.225-.873-.306-1.269-.306-1.152,0-1.603,1.044-1.603,2.377Z"/><path class="ii" d="m273.828,82.786v-.306c0-.549-.234-.891-.909-.891-.415,0-.819.09-1.243.243l-.27-.729c.531-.198,1.044-.297,1.62-.297,1.404,0,1.737.738,1.737,1.693v1.926c0,.225.126.324.324.324h.1v.693c-.136.054-.36.09-.54.09-.424,0-.648-.252-.729-.531h-.036c-.333.333-.702.531-1.297.531-.873,0-1.422-.432-1.422-1.368,0-.874.72-1.377,1.737-1.377h.928Zm-.964.729c-.45,0-.774.252-.774.667s.307.612.676.612c.44,0,.792-.225,1.062-.567v-.711h-.964Z"/><path class="ii" d="m279.003,84.74h-.972l-.9-2.503h-.036l-.262,3.25h-.927l.441-4.591h1.071l1.08,2.935h.036l1.08-2.935h1.071l.441,4.591h-.928l-.261-3.25h-.036l-.9,2.503Z"/><path class="ii" d="m282.026,83.191c0-1.494.837-2.386,2.115-2.386s2.116.892,2.116,2.386-.838,2.386-2.116,2.386-2.115-.891-2.115-2.386Zm.954,0c0,1.008.459,1.603,1.161,1.603s1.162-.594,1.162-1.603-.46-1.602-1.162-1.602-1.161.594-1.161,1.602Z"/><path class="ii" d="m288.362,87.288l-.936.18v-6.572h.666l.18.486h.036c.324-.351.693-.576,1.306-.576,1.296,0,1.854,1.018,1.854,2.386s-.567,2.386-1.936,2.386c-.469,0-.838-.09-1.171-.243v1.954Zm2.152-4.097c0-.945-.379-1.602-1.171-1.602-.378,0-.702.225-.981.567v2.314c.288.207.612.324,1.018.324.711,0,1.135-.585,1.135-1.603Z"/><path class="ii" d="m296.247,83.407h-2.917c.063.891.531,1.386,1.359,1.386.414,0,.811-.144,1.144-.315l.307.711c-.441.225-.955.387-1.54.387-1.351,0-2.232-.882-2.232-2.386,0-1.512.828-2.386,2.07-2.386,1.233,0,1.891.721,1.891,1.846,0,.234-.026.486-.081.756Zm-2.881-.729h2.125c0-.63-.342-1.089-1.035-1.089-.621,0-1.009.441-1.09,1.089Z"/><path class="ii" d="m299.621,83.047v.027c.441.099.981.423.981,1.089,0,.864-.64,1.413-1.927,1.413-.531,0-1.152-.108-1.539-.279l.288-.72c.324.126.81.216,1.225.216.585,0,.999-.27.999-.648,0-.396-.243-.639-.919-.639h-.621v-.748h.55c.432,0,.792-.171.792-.576,0-.396-.342-.594-.774-.594-.36,0-.846.063-1.206.198l-.288-.72c.423-.171,1.089-.261,1.521-.261,1.099,0,1.701.45,1.701,1.261,0,.495-.369.882-.783.981Z"/><path class="ii" d="m302.663,82.57h.819c.99,0,1.639.54,1.639,1.468s-.648,1.449-1.639,1.449h-1.755v-4.591h.936v1.674Zm0,.783v1.351h.729c.478,0,.774-.252.774-.675s-.297-.675-.774-.675h-.729Zm4.069,2.134h-.937v-4.591h.937v4.591Z"/><path class="il" d="m310.448,84.704c.495-.837.621-1.702.621-3.304v-.504h3.016v3.808h.729l-.18,1.927h-.757v-1.144h-3.105v1.144h-.757l-.18-1.927h.612Zm1.558-2.89c0,1.062-.198,2.232-.559,2.89h1.702v-3.025h-1.144v.135Z"/><path class="il" d="m315.479,84.623c.099.063.207.09.306.09.423,0,.657-.873.657-3.052v-.765h3.07v4.591h-.937v-3.808h-1.242v.198c0,2.449-.441,3.655-1.477,3.655-.252,0-.433-.054-.595-.162l.217-.747Z"/><path class="il" d="m321.653,83.695c-.541-.216-.847-.684-.847-1.341,0-.892.604-1.458,1.594-1.458h1.81v4.591h-.937v-1.666h-.711l-.99,1.666h-1.071l1.152-1.792Zm.837-.648h.783v-1.368h-.783c-.45,0-.729.288-.729.693s.279.675.729.675Z"/><path class="il" d="m330.186,83.11l1.521,2.377-.954.09-1.324-2.08h-.504v1.99h-.936v-4.591h.936v1.854h.514l1.206-1.854h.973l-1.432,2.214Z"/><path class="il" d="m333.451,87.288l-.937.18v-6.572h.667l.18.486h.036c.324-.351.693-.576,1.306-.576,1.296,0,1.854,1.018,1.854,2.386s-.567,2.386-1.936,2.386c-.469,0-.838-.09-1.171-.243v1.954Zm2.152-4.097c0-.945-.379-1.602-1.171-1.602-.378,0-.702.225-.981.567v2.314c.288.207.612.324,1.018.324.711,0,1.135-.585,1.135-1.603Z"/><path class="il" d="m341.336,83.407h-2.917c.063.891.531,1.386,1.359,1.386.414,0,.811-.144,1.144-.315l.307.711c-.441.225-.955.387-1.54.387-1.351,0-2.232-.882-2.232-2.386,0-1.512.828-2.386,2.07-2.386,1.233,0,1.891.721,1.891,1.846,0,.234-.026.486-.081.756Zm-2.881-.729h2.125c0-.63-.342-1.089-1.035-1.089-.621,0-1.009.441-1.09,1.089Z"/><path class="il" d="m346.196,85.487h-.937v-3.808h-1.737v3.808h-.936v-4.591h3.609v4.591Z"/><path class="il" d="m347.267,84.623c.099.063.207.09.306.09.423,0,.657-.873.657-3.052v-.765h3.07v4.591h-.937v-3.808h-1.242v.198c0,2.449-.441,3.655-1.477,3.655-.252,0-.433-.054-.595-.162l.217-.747Z"/><path class="il" d="m356.348,83.407h-2.917c.063.891.531,1.386,1.359,1.386.414,0,.811-.144,1.144-.315l.307.711c-.441.225-.955.387-1.54.387-1.351,0-2.232-.882-2.232-2.386,0-1.512.828-2.386,2.07-2.386,1.233,0,1.891.721,1.891,1.846,0,.234-.026.486-.081.756Zm-2.881-.729h2.125c0-.63-.342-1.089-1.035-1.089-.621,0-1.009.441-1.09,1.089Z"/><path class="il" d="m361.28,85.487h-.937v-1.972h-1.81v1.972h-.936v-4.591h.936v1.836h1.81v-1.836h.937v4.591Z"/><path class="il" d="m362.72,85.487v-4.591h.936v3.061h.036l2.116-3.061h.837v4.591h-.937v-3.061h-.036l-2.115,3.061h-.837Z"/><path class="il" d="m368.785,83.695c-.541-.216-.847-.684-.847-1.341,0-.892.604-1.458,1.594-1.458h1.81v4.591h-.937v-1.666h-.711l-.99,1.666h-1.071l1.152-1.792Zm.837-.648h.783v-1.368h-.783c-.45,0-.729.288-.729.693s.279.675.729.675Z"/><path class="il" d="m268.365,93.91l1.521,2.377-.954.09-1.324-2.08h-.504v1.99h-.936v-4.591h.936v1.854h.514l1.206-1.854h.973l-1.432,2.214Z"/><path class="il" d="m270.335,93.991c0-1.494.837-2.386,2.115-2.386s2.116.892,2.116,2.386-.838,2.386-2.116,2.386-2.115-.891-2.115-2.386Zm.954,0c0,1.008.459,1.603,1.161,1.603s1.162-.594,1.162-1.603-.46-1.602-1.162-1.602-1.161.594-1.161,1.602Z"/><path class="il" d="m276.671,98.087l-.936.18v-6.572h.666l.18.486h.036c.324-.351.693-.576,1.306-.576,1.296,0,1.854,1.018,1.854,2.386s-.567,2.386-1.936,2.386c-.469,0-.838-.09-1.171-.243v1.954Zm2.152-4.097c0-.945-.379-1.602-1.171-1.602-.378,0-.702.225-.981.567v2.314c.288.207.612.324,1.018.324.711,0,1.135-.585,1.135-1.603Z"/><path class="il" d="m284.557,96.287h-.937v-3.808h-1.737v3.808h-.937v-4.591h3.61v4.591Z"/><path class="il" d="m286.005,97.367c.135.054.306.117.495.117.207,0,.44-.099.567-.531l.197-.666h-.333l-1.611-4.591h1.026l1.188,3.52h.036l1.062-3.52h1.008l-1.765,5.474c-.288.882-.828,1.098-1.323,1.098-.324,0-.594-.09-.792-.171l.243-.729Z"/><path class="il" d="m293.259,95.396l.288.72c-.387.171-.792.261-1.261.261-1.485,0-2.241-1.062-2.241-2.386s.711-2.386,2.196-2.386c.433,0,.874.081,1.261.243l-.288.72c-.307-.126-.604-.18-.918-.18-.774,0-1.297.648-1.297,1.602s.514,1.603,1.287,1.603c.315,0,.667-.072.973-.198Z"/><path class="il" d="m296.886,93.586v-.306c0-.549-.234-.891-.91-.891-.414,0-.818.09-1.242.243l-.27-.729c.531-.198,1.044-.297,1.62-.297,1.404,0,1.737.738,1.737,1.693v1.926c0,.225.126.324.324.324h.1v.693c-.136.054-.36.09-.541.09-.423,0-.647-.252-.729-.531h-.036c-.333.333-.702.531-1.297.531-.873,0-1.422-.432-1.422-1.368,0-.874.72-1.377,1.737-1.377h.928Zm-.964.729c-.45,0-.774.252-.774.667s.307.612.676.612c.441,0,.792-.225,1.062-.567v-.711h-.964Z"/><path class="il" d="m303.771,93.91l1.521,2.377-.954.09-1.323-2.08h-.505v1.99h-.937v-4.591h.937v1.854h.514l1.206-1.854h.973l-1.432,2.214Z"/><path class="il" d="m310.565,93.847v.027c.441.099.981.423.981,1.089,0,.864-.64,1.413-1.927,1.413-.531,0-1.152-.108-1.539-.279l.288-.72c.324.126.81.216,1.224.216.586,0,1-.27,1-.648,0-.396-.243-.639-.919-.639h-.621v-.748h.55c.432,0,.792-.171.792-.576,0-.396-.342-.594-.774-.594-.36,0-.846.063-1.206.198l-.288-.72c.423-.171,1.089-.261,1.521-.261,1.098,0,1.701.45,1.701,1.261,0,.495-.369.882-.783.981Z"/><path class="il" d="m315.021,93.586v-.306c0-.549-.234-.891-.91-.891-.414,0-.818.09-1.242.243l-.27-.729c.531-.198,1.044-.297,1.62-.297,1.404,0,1.737.738,1.737,1.693v1.926c0,.225.126.324.324.324h.1v.693c-.136.054-.36.09-.541.09-.423,0-.647-.252-.729-.531h-.036c-.333.333-.702.531-1.297.531-.873,0-1.422-.432-1.422-1.368,0-.874.72-1.377,1.737-1.377h.928Zm-.964.729c-.45,0-.774.252-.774.667s.307.612.676.612c.441,0,.792-.225,1.062-.567v-.711h-.964Z"/><path class="il" d="m317.306,95.503c.495-.837.621-1.702.621-3.304v-.504h3.016v3.808h.729l-.18,1.927h-.757v-1.144h-3.105v1.144h-.757l-.18-1.927h.612Zm1.558-2.89c0,1.062-.198,2.232-.559,2.89h1.702v-3.025h-1.144v.135Z"/><path class="il" d="m326.208,96.287h-.937v-1.972h-1.81v1.972h-.936v-4.591h.936v1.836h1.81v-1.836h.937v4.591Z"/><path class="il" d="m331.256,94.207h-2.917c.063.891.531,1.386,1.359,1.386.414,0,.811-.144,1.144-.315l.307.711c-.441.225-.955.387-1.54.387-1.351,0-2.232-.882-2.232-2.386,0-1.512.828-2.386,2.07-2.386,1.233,0,1.891.721,1.891,1.846,0,.234-.026.486-.081.756Zm-2.881-.729h2.125c0-.63-.342-1.089-1.035-1.089-.621,0-1.009.441-1.09,1.089Z"/><path class="il" d="m332.507,96.287v-4.591h.936v3.061h.036l2.116-3.061h.837v4.591h-.937v-3.061h-.036l-2.115,3.061h-.837Zm3.447-6.131c-.324.567-.855.846-1.485.846-.639,0-1.161-.288-1.485-.846l.595-.396c.197.378.513.585.891.585s.685-.198.883-.585l.603.396Z"/><path class="il" d="m343.154,95.396l.288.72c-.387.171-.792.261-1.261.261-1.485,0-2.241-1.062-2.241-2.386s.711-2.386,2.196-2.386c.433,0,.874.081,1.261.243l-.288.72c-.306-.126-.604-.18-.918-.18-.774,0-1.297.648-1.297,1.602s.514,1.603,1.287,1.603c.315,0,.667-.072.973-.198Z"/><path class="il" d="m343.891,91.695h3.89l-.18.783h-1.324v3.808h-.927v-3.808h-1.459v-.783Z"/><path class="il" d="m352.109,94.207h-2.917c.063.891.531,1.386,1.359,1.386.414,0,.811-.144,1.144-.315l.307.711c-.441.225-.955.387-1.54.387-1.351,0-2.232-.882-2.232-2.386,0-1.512.828-2.386,2.07-2.386,1.233,0,1.891.721,1.891,1.846,0,.234-.026.486-.081.756Zm-2.881-.729h2.125c0-.63-.342-1.089-1.035-1.089-.621,0-1.009.441-1.09,1.089Z"/><path class="il" d="m357.041,96.287h-.937v-1.972h-1.81v1.972h-.937v-4.591h.937v1.836h1.81v-1.836h.937v4.591Z"/><path class="il" d="m360.677,93.91l1.521,2.377-.954.09-1.323-2.08h-.505v1.99h-.937v-4.591h.937v1.854h.514l1.206-1.854h.973l-1.432,2.214Z"/><path class="il" d="m366.526,94.207h-2.917c.063.891.531,1.386,1.359,1.386.414,0,.811-.144,1.144-.315l.307.711c-.441.225-.955.387-1.54.387-1.351,0-2.232-.882-2.232-2.386,0-1.512.828-2.386,2.07-2.386,1.233,0,1.891.721,1.891,1.846,0,.234-.026.486-.081.756Zm-2.881-.729h2.125c0-.63-.342-1.089-1.035-1.089-.621,0-1.009.441-1.09,1.089Z"/><path class="ii" d="m118.571,7.65l2.107-6.302h.963l2.106,6.302h-1.035l-.45-1.467h-2.215l-.44,1.467h-1.036Zm2.611-5.015h-.045l-.838,2.71h1.711l-.828-2.71Z"/><path class="ii" d="m128.329,7.65h-.937v-1.972h-1.81v1.972h-.936V3.059h.936v1.836h1.81v-1.836h.937v4.591Z"/><path class="ii" d="m131.965,5.273l1.521,2.377-.954.09-1.324-2.08h-.504v1.99h-.936V3.059h.936v1.854h.514l1.206-1.854h.973l-1.432,2.214Z"/><path class="ii" d="m137.814,5.57h-2.917c.063.891.531,1.386,1.359,1.386.414,0,.811-.144,1.144-.315l.307.711c-.441.225-.955.387-1.54.387-1.351,0-2.232-.882-2.232-2.386,0-1.512.828-2.386,2.07-2.386,1.233,0,1.891.721,1.891,1.846,0,.234-.026.486-.081.756Zm-2.881-.729h2.125c0-.63-.342-1.089-1.035-1.089-.621,0-1.009.441-1.09,1.089Z"/><path class="ii" d="m140.001,9.451l-.936.18V3.059h.666l.18.486h.036c.324-.351.693-.576,1.306-.576,1.296,0,1.854,1.018,1.854,2.386s-.567,2.386-1.936,2.386c-.469,0-.838-.09-1.171-.243v1.954Zm2.152-4.097c0-.945-.379-1.602-1.171-1.602-.378,0-.702.225-.981.567v2.314c.288.207.612.324,1.018.324.711,0,1.135-.585,1.135-1.603Z"/><path class="ii" d="m145.212,4.733h.819c.99,0,1.639.54,1.639,1.468s-.648,1.449-1.639,1.449h-1.755V3.059h.936v1.674Zm0,.783v1.351h.729c.478,0,.774-.252.774-.675s-.297-.675-.774-.675h-.729Zm4.069,2.134h-.937V3.059h.937v4.591Z"/><path class="il" d="m152.996,6.867c.495-.837.621-1.702.621-3.304v-.504h3.016v3.808h.729l-.18,1.927h-.757v-1.144h-3.105v1.144h-.757l-.18-1.927h.612Zm1.558-2.89c0,1.062-.198,2.232-.559,2.89h1.702v-3.025h-1.144v.135Z"/><path class="il" d="m158.027,6.786c.099.063.207.09.306.09.423,0,.657-.873.657-3.052v-.765h3.07v4.591h-.937v-3.808h-1.242v.198c0,2.449-.441,3.655-1.477,3.655-.252,0-.433-.054-.595-.162l.217-.747Z"/><path class="il" d="m164.202,5.858c-.541-.216-.847-.684-.847-1.341,0-.892.604-1.458,1.594-1.458h1.81v4.591h-.937v-1.666h-.711l-.99,1.666h-1.071l1.152-1.792Zm.837-.648h.783v-1.368h-.783c-.45,0-.729.288-.729.693s.279.675.729.675Z"/><path class="il" d="m172.733,5.273l1.521,2.377-.954.09-1.323-2.08h-.505v1.99h-.937V3.059h.937v1.854h.514l1.206-1.854h.973l-1.432,2.214Z"/><path class="il" d="m176,9.451l-.937.18V3.059h.667l.18.486h.036c.324-.351.693-.576,1.306-.576,1.296,0,1.854,1.018,1.854,2.386s-.567,2.386-1.936,2.386c-.469,0-.838-.09-1.171-.243v1.954Zm2.152-4.097c0-.945-.379-1.602-1.171-1.602-.378,0-.702.225-.981.567v2.314c.288.207.612.324,1.018.324.711,0,1.135-.585,1.135-1.603Z"/><path class="il" d="m183.885,5.57h-2.917c.063.891.531,1.386,1.359,1.386.414,0,.811-.144,1.144-.315l.307.711c-.441.225-.955.387-1.54.387-1.351,0-2.232-.882-2.232-2.386,0-1.512.828-2.386,2.07-2.386,1.233,0,1.891.721,1.891,1.846,0,.234-.026.486-.081.756Zm-2.881-.729h2.125c0-.63-.342-1.089-1.035-1.089-.621,0-1.009.441-1.09,1.089Z"/><path class="il" d="m188.744,7.65h-.937v-3.808h-1.737v3.808h-.937V3.059h3.61v4.591Z"/><path class="il" d="m189.815,6.786c.099.063.207.09.306.09.423,0,.657-.873.657-3.052v-.765h3.07v4.591h-.937v-3.808h-1.242v.198c0,2.449-.441,3.655-1.477,3.655-.252,0-.433-.054-.595-.162l.217-.747Z"/><path class="il" d="m198.896,5.57h-2.917c.063.891.531,1.386,1.359,1.386.414,0,.811-.144,1.144-.315l.307.711c-.441.225-.955.387-1.54.387-1.351,0-2.232-.882-2.232-2.386,0-1.512.828-2.386,2.07-2.386,1.233,0,1.891.721,1.891,1.846,0,.234-.026.486-.081.756Zm-2.881-.729h2.125c0-.63-.342-1.089-1.035-1.089-.621,0-1.009.441-1.09,1.089Z"/><path class="il" d="m203.828,7.65h-.937v-1.972h-1.81v1.972h-.937V3.059h.937v1.836h1.81v-1.836h.937v4.591Z"/><path class="il" d="m205.267,7.65V3.059h.937v3.061h.036l2.116-3.061h.837v4.591h-.937v-3.061h-.036l-2.115,3.061h-.838Z"/><path class="il" d="m211.334,5.858c-.541-.216-.847-.684-.847-1.341,0-.892.604-1.458,1.594-1.458h1.81v4.591h-.937v-1.666h-.711l-.99,1.666h-1.071l1.152-1.792Zm.837-.648h.783v-1.368h-.783c-.45,0-.729.288-.729.693s.279.675.729.675Z"/><path class="il" d="m121.272,12.85c-.999.072-1.485.423-1.485,1.737h.027c.396-.414.864-.594,1.458-.594,1.125,0,1.899.748,1.899,2.278,0,1.495-.892,2.269-2.17,2.269-1.485,0-2.115-1.107-2.115-2.944,0-2.899.811-3.43,2.296-3.565.675-.063,1.026-.144,1.494-.333l.279.747c-.495.243-1.099.36-1.684.405Zm-.271,4.906c.702,0,1.216-.486,1.216-1.485s-.468-1.494-1.107-1.494c-.459,0-.945.234-1.287.783,0,1.467.369,2.196,1.179,2.196Z"/><path class="il" d="m124.305,19.53c.135.054.306.117.495.117.207,0,.44-.099.567-.531l.197-.666h-.333l-1.611-4.591h1.026l1.188,3.52h.036l1.062-3.52h1.008l-1.765,5.474c-.288.882-.828,1.098-1.323,1.098-.324,0-.594-.09-.792-.171l.243-.729Z"/><path class="il" d="m130.902,16.073l1.521,2.377-.954.09-1.324-2.08h-.504v1.99h-.936v-4.591h.936v1.854h.514l1.206-1.854h.973l-1.432,2.214Z"/><path class="il" d="m136.798,17.126c0,.828-.522,1.323-1.566,1.323h-1.998v-4.591h1.854c.918,0,1.521.342,1.521,1.17,0,.495-.369.882-.784.981v.027c.441.099.973.423.973,1.089Zm-2.629-2.485v1.044h.738c.423,0,.747-.135.747-.522,0-.405-.288-.522-.684-.522h-.802Zm0,1.828v1.197h.909c.478,0,.766-.189.766-.594s-.315-.603-.855-.603h-.819Z"/><path class="il" d="m138.902,15.533h.819c.99,0,1.639.54,1.639,1.468s-.648,1.449-1.639,1.449h-1.756v-4.591h.937v1.674Zm0,.783v1.351h.729c.478,0,.774-.252.774-.675s-.297-.675-.774-.675h-.729Zm4.069,2.134h-.937v-4.591h.937v4.591Z"/><path class="il" d="m148.947,16.073l1.521,2.377-.954.09-1.324-2.08h-.504v1.99h-.936v-4.591h.936v1.854h.514l1.206-1.854h.973l-1.432,2.214Z"/><path class="il" d="m156.715,20.25l-.937.18v-1.936c-.117.018-.315.045-.531.045-1.396,0-1.899-1.062-1.899-2.386s.504-2.386,1.899-2.386c.216,0,.414.027.531.045v-1.936l.937-.18v2.116c.117-.018.314-.045.531-.045,1.396,0,1.899,1.062,1.899,2.386s-.504,2.386-1.899,2.386c-.217,0-.414-.027-.531-.045v1.756Zm-.919-5.654c-.099-.027-.261-.045-.404-.045-.774,0-1.099.648-1.099,1.602s.324,1.603,1.099,1.603c.144,0,.297-.018.404-.045v-3.115Zm.9,3.115c.1.027.262.045.405.045.774,0,1.099-.648,1.099-1.603s-.324-1.602-1.099-1.602c-.144,0-.306.018-.405.045v3.115Z"/><path class="il" d="m162.663,15.749v-.306c0-.549-.234-.891-.91-.891-.414,0-.818.09-1.242.243l-.27-.729c.531-.198,1.044-.297,1.62-.297,1.404,0,1.737.738,1.737,1.693v1.926c0,.225.126.324.324.324h.1v.693c-.136.054-.36.09-.541.09-.423,0-.647-.252-.729-.531h-.036c-.333.333-.702.531-1.297.531-.873,0-1.422-.432-1.422-1.368,0-.874.72-1.377,1.737-1.377h.928Zm-.964.729c-.45,0-.774.252-.774.667s.307.612.676.612c.441,0,.792-.225,1.062-.567v-.711h-.964Z"/><path class="il" d="m167.955,17.559l.288.72c-.387.171-.792.261-1.261.261-1.485,0-2.241-1.062-2.241-2.386s.711-2.386,2.196-2.386c.433,0,.874.081,1.261.243l-.288.72c-.306-.126-.604-.18-.918-.18-.774,0-1.297.648-1.297,1.602s.514,1.603,1.287,1.603c.315,0,.667-.072.973-.198Z"/><path class="il" d="m171.582,15.749v-.306c0-.549-.234-.891-.909-.891-.415,0-.819.09-1.243.243l-.27-.729c.531-.198,1.044-.297,1.62-.297,1.404,0,1.737.738,1.737,1.693v1.926c0,.225.126.324.324.324h.1v.693c-.136.054-.36.09-.54.09-.424,0-.648-.252-.729-.531h-.036c-.333.333-.702.531-1.297.531-.873,0-1.422-.432-1.422-1.368,0-.874.72-1.377,1.737-1.377h.928Zm-.964.729c-.45,0-.774.252-.774.667s.307.612.676.612c.44,0,.792-.225,1.062-.567v-.711h-.964Z"/><path class="il" d="m173.867,17.667c.495-.837.621-1.702.621-3.304v-.504h3.016v3.808h.729l-.18,1.927h-.757v-1.144h-3.105v1.144h-.757l-.18-1.927h.612Zm1.558-2.89c0,1.062-.198,2.232-.559,2.89h1.702v-3.025h-1.144v.135Z"/><path class="il" d="m179.096,19.53c.135.054.306.117.495.117.207,0,.44-.099.567-.531l.197-.666h-.333l-1.611-4.591h1.026l1.188,3.52h.036l1.062-3.52h1.008l-1.765,5.474c-.288.882-.828,1.098-1.323,1.098-.324,0-.594-.09-.792-.171l.243-.729Z"/><path class="ii" d="m268.554,160.347l2.341,3.322-1.116.09-2.079-2.935h-.469v2.845h-.972v-6.302h.972v2.629h.495l1.873-2.629h1.107l-2.152,2.98Z"/><path class="ii" d="m271.254,161.373c0-1.494.837-2.386,2.115-2.386s2.116.892,2.116,2.386-.838,2.386-2.116,2.386-2.115-.891-2.115-2.386Zm.954,0c0,1.008.459,1.603,1.161,1.603s1.162-.594,1.162-1.603-.46-1.602-1.162-1.602-1.161.594-1.161,1.602Z"/><path class="ii" d="m277.59,165.469l-.937.18v-6.572h.667l.18.486h.036c.324-.351.693-.576,1.306-.576,1.296,0,1.854,1.018,1.854,2.386s-.567,2.386-1.936,2.386c-.469,0-.838-.09-1.171-.243v1.954Zm2.152-4.097c0-.945-.379-1.602-1.171-1.602-.378,0-.702.225-.981.567v2.314c.288.207.612.324,1.018.324.711,0,1.135-.585,1.135-1.603Z"/><path class="ii" d="m285.475,163.668h-.937v-3.808h-1.737v3.808h-.937v-4.591h3.61v4.591Z"/><path class="ii" d="m286.923,164.749c.135.054.306.117.495.117.207,0,.44-.099.567-.531l.197-.666h-.333l-1.611-4.591h1.026l1.188,3.52h.036l1.062-3.52h1.008l-1.765,5.474c-.288.882-.828,1.098-1.323,1.098-.324,0-.594-.09-.792-.171l.243-.729Z"/><path class="ii" d="m294.177,162.777l.288.72c-.387.171-.792.261-1.261.261-1.485,0-2.241-1.062-2.241-2.386s.711-2.386,2.196-2.386c.433,0,.874.081,1.261.243l-.288.72c-.307-.126-.604-.18-.918-.18-.774,0-1.297.648-1.297,1.602s.514,1.603,1.287,1.603c.315,0,.667-.072.973-.198Z"/><path class="ii" d="m299.955,158.069c-.999.072-1.485.423-1.485,1.737h.027c.396-.414.864-.594,1.458-.594,1.125,0,1.899.748,1.899,2.278,0,1.495-.891,2.269-2.17,2.269-1.485,0-2.115-1.107-2.115-2.944,0-2.899.811-3.43,2.296-3.565.675-.063,1.026-.144,1.494-.333l.279.747c-.495.243-1.099.36-1.684.405Zm-.271,4.906c.703,0,1.216-.486,1.216-1.485s-.468-1.494-1.107-1.494c-.459,0-.945.234-1.287.783,0,1.467.369,2.196,1.179,2.196Z"/><path class="ii" d="m302.987,164.749c.135.054.306.117.495.117.207,0,.44-.099.567-.531l.197-.666h-.333l-1.611-4.591h1.026l1.188,3.52h.036l1.062-3.52h1.008l-1.765,5.474c-.288.882-.828,1.098-1.323,1.098-.324,0-.594-.09-.792-.171l.243-.729Z"/><path class="ii" d="m309.585,161.292l1.521,2.377-.954.09-1.323-2.08h-.505v1.99h-.937v-4.591h.937v1.854h.514l1.206-1.854h.973l-1.432,2.214Z"/><path class="ii" d="m315.479,162.345c0,.828-.522,1.323-1.566,1.323h-1.998v-4.591h1.854c.918,0,1.521.342,1.521,1.17,0,.495-.369.882-.784.981v.027c.441.099.973.423.973,1.089Zm-2.629-2.485v1.044h.738c.423,0,.747-.135.747-.522,0-.405-.288-.522-.684-.522h-.802Zm0,1.828v1.197h.909c.478,0,.766-.189.766-.594s-.315-.603-.855-.603h-.819Z"/><path class="ii" d="m317.585,160.751h.819c.99,0,1.639.54,1.639,1.468s-.648,1.449-1.639,1.449h-1.755v-4.591h.936v1.674Zm0,.783v1.351h.729c.478,0,.774-.252.774-.675s-.297-.675-.774-.675h-.729Zm4.069,2.134h-.937v-4.591h.937v4.591Z"/><path class="im" d="m265.8,173.604c.099.063.207.09.306.09.423,0,.657-.873.657-3.052v-.765h3.07v4.591h-.937v-3.808h-1.242v.198c0,2.449-.441,3.655-1.477,3.655-.252,0-.433-.054-.595-.162l.217-.747Z"/><path class="im" d="m271.271,174.468v-4.591h.937v3.061h.036l2.116-3.061h.837v4.591h-.937v-3.061h-.036l-2.115,3.061h-.838Z"/><path class="im" d="m280.785,175.612h-.756v-1.144h-3.394v-4.591h.936v3.808h1.729v-3.808h.937v3.808h.729l-.181,1.927Z"/><path class="im" d="m285.384,172.389h-2.917c.063.891.531,1.386,1.359,1.386.414,0,.811-.144,1.144-.315l.307.711c-.441.225-.955.387-1.54.387-1.351,0-2.232-.882-2.232-2.386,0-1.512.828-2.386,2.07-2.386,1.233,0,1.891.721,1.891,1.846,0,.234-.026.486-.081.756Zm-2.881-.729h2.125c0-.63-.342-1.089-1.035-1.089-.621,0-1.009.441-1.09,1.089Z"/><path class="im" d="m290.199,173.145c0,.828-.522,1.323-1.566,1.323h-1.999v-4.591h1.855c.918,0,1.521.342,1.521,1.17,0,.495-.369.882-.783.981v.027c.44.099.972.423.972,1.089Zm-2.629-2.485v1.044h.738c.423,0,.747-.135.747-.522,0-.405-.288-.522-.684-.522h-.802Zm0,1.828v1.197h.909c.478,0,.766-.189.766-.594s-.315-.603-.855-.603h-.819Z"/><path class="im" d="m293.718,171.768v-.306c0-.549-.234-.891-.91-.891-.414,0-.818.09-1.242.243l-.27-.729c.531-.198,1.044-.297,1.62-.297,1.404,0,1.737.738,1.737,1.693v1.926c0,.225.126.324.324.324h.1v.693c-.136.054-.36.09-.541.09-.423,0-.647-.252-.729-.531h-.036c-.333.333-.702.531-1.297.531-.873,0-1.422-.432-1.422-1.368,0-.874.72-1.377,1.737-1.377h.928Zm-.964.729c-.45,0-.774.252-.774.667s.307.612.676.612c.441,0,.792-.225,1.062-.567v-.711h-.964Z"/><path class="im" d="m296.769,172.677c-.541-.216-.847-.684-.847-1.341,0-.892.604-1.458,1.594-1.458h1.81v4.591h-.937v-1.666h-.711l-.99,1.666h-1.071l1.152-1.792Zm.837-.648h.783v-1.368h-.783c-.45,0-.729.288-.729.693s.279.675.729.675Z"/><path class="im" d="m306.714,174.468h-.937v-3.808h-1.737v3.808h-.936v-4.591h3.609v4.591Z"/><path class="im" d="m307.883,172.172c0-1.494.837-2.386,2.115-2.386s2.116.892,2.116,2.386-.838,2.386-2.116,2.386-2.115-.891-2.115-2.386Zm.954,0c0,1.008.459,1.603,1.161,1.603s1.162-.594,1.162-1.603-.46-1.602-1.162-1.602-1.161.594-1.161,1.602Z"/><path class="im" d="m316.848,173.145c0,.828-.522,1.323-1.566,1.323h-1.999v-4.591h1.855c.918,0,1.521.342,1.521,1.17,0,.495-.369.882-.783.981v.027c.44.099.972.423.972,1.089Zm-2.629-2.485v1.044h.738c.423,0,.747-.135.747-.522,0-.405-.288-.522-.684-.522h-.802Zm0,1.828v1.197h.909c.478,0,.766-.189.766-.594s-.315-.603-.855-.603h-.819Z"/><path class="im" d="m321.626,172.389h-2.917c.063.891.531,1.386,1.359,1.386.414,0,.811-.144,1.144-.315l.307.711c-.441.225-.955.387-1.54.387-1.351,0-2.232-.882-2.232-2.386,0-1.512.828-2.386,2.07-2.386,1.233,0,1.891.721,1.891,1.846,0,.234-.026.486-.081.756Zm-2.881-.729h2.125c0-.63-.342-1.089-1.035-1.089-.621,0-1.009.441-1.09,1.089Z"/><path class="im" d="m323.812,176.269l-.937.18v-6.572h.667l.18.486h.036c.324-.351.693-.576,1.306-.576,1.296,0,1.854,1.018,1.854,2.386s-.567,2.386-1.936,2.386c-.469,0-.838-.09-1.171-.243v1.954Zm2.152-4.097c0-.945-.379-1.602-1.171-1.602-.378,0-.702.225-.981.567v2.314c.288.207.612.324,1.018.324.711,0,1.135-.585,1.135-1.603Z"/><path class="im" d="m329.52,172.794h-.027l-1.089,1.674h-1.036l1.594-2.359-1.503-2.232h1.044l.99,1.593h.027l.981-1.593h1.053l-1.494,2.232,1.584,2.359-.972.09-1.152-1.764Z"/><path class="im" d="m336.225,174.468h-.937v-1.972h-1.81v1.972h-.937v-4.591h.937v1.836h1.81v-1.836h.937v4.591Z"/><path class="im" d="m337.394,172.172c0-1.494.837-2.386,2.115-2.386s2.116.892,2.116,2.386-.838,2.386-2.116,2.386-2.115-.891-2.115-2.386Zm.954,0c0,1.008.459,1.603,1.161,1.603s1.162-.594,1.162-1.603-.46-1.602-1.162-1.602-1.161.594-1.161,1.602Z"/><path class="im" d="m345.737,173.577l.288.72c-.387.171-.792.261-1.261.261-1.485,0-2.241-1.062-2.241-2.386s.711-2.386,2.196-2.386c.433,0,.874.081,1.261.243l-.288.72c-.307-.126-.604-.18-.918-.18-.774,0-1.297.648-1.297,1.602s.514,1.603,1.287,1.603c.315,0,.667-.072.973-.198Z"/><path class="im" d="m346.474,169.877h3.89l-.181.783h-1.323v3.808h-.927v-3.808h-1.459v-.783Z"/><path class="im" d="m353.054,171.551c.99,0,1.639.54,1.639,1.468s-.648,1.449-1.639,1.449h-1.836v-4.591h.936v1.674h.9Zm-.9.783v1.351h.811c.478,0,.774-.252.774-.675s-.297-.675-.774-.675h-.811Z"/><path class="im" d="m269.733,183.945c0,.828-.522,1.323-1.566,1.323h-1.998v-4.591h1.854c.918,0,1.521.342,1.521,1.17,0,.495-.369.882-.784.981v.027c.441.099.973.423.973,1.089Zm-2.629-2.485v1.044h.738c.423,0,.747-.135.747-.522,0-.405-.288-.522-.684-.522h-.802Zm0,1.828v1.197h.909c.478,0,.766-.189.766-.594s-.315-.603-.855-.603h-.819Z"/><path class="im" d="m276.187,184.377l.288.72c-.387.171-.792.261-1.261.261-1.485,0-2.241-1.062-2.241-2.386s.711-2.385,2.196-2.385c.433,0,.874.081,1.261.243l-.288.72c-.307-.126-.604-.18-.918-.18-.774,0-1.297.648-1.297,1.602s.514,1.603,1.287,1.603c.315,0,.667-.072.973-.198Z"/><path class="im" d="m279.624,179.669c-.999.072-1.485.423-1.485,1.737h.027c.396-.414.864-.594,1.458-.594,1.125,0,1.899.748,1.899,2.278,0,1.495-.892,2.269-2.17,2.269-1.485,0-2.115-1.107-2.115-2.944,0-2.899.811-3.43,2.296-3.565.675-.063,1.026-.144,1.494-.333l.279.747c-.495.243-1.099.36-1.684.405Zm-.271,4.906c.702,0,1.216-.486,1.216-1.485s-.468-1.495-1.107-1.495c-.459,0-.945.234-1.287.784,0,1.467.369,2.196,1.179,2.196Z"/><path class="im" d="m282.467,182.973c0-1.494.837-2.385,2.115-2.385s2.116.891,2.116,2.385-.838,2.386-2.116,2.386-2.115-.891-2.115-2.386Zm.954,0c0,1.008.459,1.603,1.161,1.603s1.162-.594,1.162-1.603-.46-1.602-1.162-1.602-1.161.594-1.161,1.602Z"/><path class="im" d="m288.803,187.069l-.937.18v-6.572h.667l.18.486h.036c.324-.352.693-.576,1.306-.576,1.296,0,1.854,1.017,1.854,2.385s-.567,2.386-1.936,2.386c-.469,0-.838-.09-1.171-.243v1.953Zm2.152-4.096c0-.945-.379-1.602-1.171-1.602-.378,0-.702.225-.981.567v2.314c.288.207.612.324,1.018.324.711,0,1.135-.585,1.135-1.603Z"/><path class="im" d="m296.688,183.189h-2.917c.063.891.531,1.386,1.359,1.386.414,0,.811-.144,1.144-.315l.307.711c-.441.225-.955.387-1.54.387-1.351,0-2.232-.882-2.232-2.386,0-1.512.828-2.385,2.07-2.385,1.233,0,1.891.72,1.891,1.845,0,.234-.026.486-.081.756Zm-2.881-.729h2.125c0-.63-.342-1.089-1.035-1.089-.621,0-1.009.441-1.09,1.089Z"/><path class="im" d="m303.222,184.377l.288.72c-.387.171-.792.261-1.261.261-1.485,0-2.241-1.062-2.241-2.386s.711-2.385,2.196-2.385c.433,0,.874.081,1.261.243l-.288.72c-.307-.126-.604-.18-.918-.18-.774,0-1.297.648-1.297,1.602s.514,1.603,1.287,1.603c.315,0,.667-.072.973-.198Z"/><path class="im" d="m309,179.669c-.999.072-1.485.423-1.485,1.737h.027c.396-.414.864-.594,1.458-.594,1.125,0,1.899.748,1.899,2.278,0,1.495-.891,2.269-2.17,2.269-1.485,0-2.115-1.107-2.115-2.944,0-2.899.811-3.43,2.296-3.565.675-.063,1.026-.144,1.494-.333l.279.747c-.495.243-1.099.36-1.684.405Zm-.271,4.906c.703,0,1.216-.486,1.216-1.485s-.468-1.495-1.107-1.495c-.459,0-.945.234-1.287.784,0,1.467.369,2.196,1.179,2.196Z"/><path class="im" d="m311.843,182.973c0-1.494.837-2.385,2.115-2.385s2.116.891,2.116,2.385-.838,2.386-2.116,2.386-2.115-.891-2.115-2.386Zm.954,0c0,1.008.459,1.603,1.161,1.603s1.162-.594,1.162-1.603-.46-1.602-1.162-1.602-1.161.594-1.161,1.602Z"/><path class="im" d="m319.439,182.892l1.521,2.376-.954.09-1.324-2.08h-.504v1.99h-.936v-4.591h.936v1.854h.514l1.206-1.854h.973l-1.432,2.215Z"/><path class="im" d="m321.41,182.973c0-1.494.837-2.385,2.115-2.385s2.116.891,2.116,2.385-.838,2.386-2.116,2.386-2.115-.891-2.115-2.386Zm.954,0c0,1.008.459,1.603,1.161,1.603s1.162-.594,1.162-1.603-.46-1.602-1.162-1.602-1.161.594-1.161,1.602Z"/><path class="im" d="m330.375,183.945c0,.828-.522,1.323-1.566,1.323h-1.999v-4.591h1.855c.918,0,1.521.342,1.521,1.17,0,.495-.369.882-.783.981v.027c.44.099.972.423.972,1.089Zm-2.629-2.485v1.044h.738c.423,0,.747-.135.747-.522,0-.405-.288-.522-.684-.522h-.802Zm0,1.828v1.197h.909c.478,0,.766-.189.766-.594s-.315-.603-.855-.603h-.819Z"/><path class="im" d="m331.544,185.269v-4.591h.936v3.061h.036l2.116-3.061h.837v4.591h-.937v-3.061h-.036l-2.115,3.061h-.837Z"/><path class="im" d="m340.59,185.269h-.937v-1.972h-1.81v1.972h-.937v-4.591h.937v1.836h1.81v-1.836h.937v4.591Z"/><path class="im" d="m344.379,182.568v-.306c0-.549-.234-.891-.909-.891-.415,0-.819.09-1.243.243l-.27-.729c.531-.198,1.044-.297,1.62-.297,1.404,0,1.737.738,1.737,1.692v1.926c0,.225.126.324.324.324h.1v.693c-.136.054-.36.09-.54.09-.424,0-.648-.252-.729-.531h-.036c-.333.333-.702.531-1.297.531-.873,0-1.422-.432-1.422-1.368,0-.874.72-1.377,1.737-1.377h.928Zm-.964.729c-.45,0-.774.252-.774.667s.307.612.676.612c.44,0,.792-.225,1.062-.567v-.711h-.964Z"/><path class="im" d="m349.553,184.521h-.972l-.9-2.503h-.036l-.262,3.25h-.927l.441-4.591h1.071l1.08,2.935h.036l1.08-2.935h1.071l.441,4.591h-.928l-.261-3.25h-.036l-.9,2.503Z"/><path class="im" d="m352.847,185.269v-4.591h.936v3.061h.036l2.116-3.061h.837v4.591h-.937v-3.061h-.036l-2.115,3.061h-.837Z"/><path class="hv" d="m65.949,272.02c-1.254,8.826-3.246,31.693,9.702,54.638,23.496,41.639,73.988,44.193,77.362,44.308"/><path class="hv" d="m47.311,234.318c-5.633,8.419-27.237,42.785-17.847,82.852,11.212,47.838,62.144,84.749,124.315,83.914"/><path class="hv" d="m114.216,5.722c-6.631,1.29-17.543,4.422-28.097,12.766-4.257,3.366-16.887,13.351-20.712,30.23-.615,2.715-.869,5.015-.985,6.58"/><path class="hv" d="m211.864,187.048c4.595-4.968,12.508-12.281,24.213-17.921,9.802-4.723,18.737-6.574,24.936-7.354"/><path class="hv" d="m434.545,207.595c-10.047-9.349-26.774-22.676-50.553-32.681-23.215-9.767-43.948-12.496-57.51-13.23"/><line class="hv" x1="625.576" y1="370.671" x2="544.736" y2="370.671"/><line class="hv" x1="625.576" y1="387.677" x2="600.725" y2="387.677"/><path class="hv" d="m254.46,370.974c11.719-.254,28.253-1.771,46.979-7.423,17.483-5.277,30.984-12.379,40.298-18.179"/><line class="hv" x1="181.717" y1="83.587" x2="261.013" y2="83.587"/><path class="hv" d="m117.651,62.026c2.855-3.113,8.024-7.967,15.83-11.622,7.847-3.675,14.922-4.53,19.149-4.723"/><path class="hv" d="m476.456,319.142c-2.23.109-9.692.749-16.363,6.603-6.239,5.475-7.999,12.187-8.489,14.447"/><path class="hv" d="m221.311,401.339c19.651-.431,47.685-3.286,79.276-14.362,25.319-8.877,45.24-20.341,59.574-30.115"/></g></g></svg>