<svg xmlns="http://www.w3.org/2000/svg" xmlns:xlink="http://www.w3.org/1999/xlink" viewBox="0 0 737.7 903.59"><defs><style>.a{fill:#fff;}.b{fill:url(#a);}.c,.e,.f,.i{fill:#38a032;}.c{opacity:0.17;}.d{fill:#222c54;}.f{opacity:0.8;}.g,.h{fill:#0bbbef;}.h,.i{opacity:0.3;}</style><linearGradient id="a" x1="367.53" y1="53.2" x2="367.53" y2="903.59" gradientUnits="userSpaceOnUse"><stop offset="0" stop-color="#f2f2f2"/><stop offset="0.01" stop-color="#f1f1f1"/><stop offset="0.23" stop-color="#e4e4e4"/><stop offset="0.51" stop-color="#dbdbdb"/><stop offset="1" stop-color="#d9d9d9"/></linearGradient></defs><rect class="a" x="84.07" y="53.2" width="566.93" height="850.39" rx="28.26"/><rect class="b" x="84.07" y="53.2" width="566.93" height="850.39" rx="28.26"/><rect class="c" x="140.76" y="138.54" width="453.54" height="368.2"/><rect class="c" x="140.76" y="666.97" width="453.54" height="38.19"/><rect class="c" x="140.76" y="738.89" width="453.54" height="79.37"/><path class="d" d="M298.53,138.54V445.72h82.58v61h-242v-61h93.63V199.56H147l10.52-61Z"/><path class="d" d="M174.83,739.45v66h17.74v13.11h-52V805.44H160.7V752.55H142.29l2.26-13.1Z"/><path class="d" d="M209,785.78V773.24h53.34L260,785.78Z"/><path class="d" d="M329.52,794.14c0,17.4-13,25.54-27.34,25.54A41.57,41.57,0,0,1,278.67,813l7-11.41a27.32,27.32,0,0,0,15.71,5c7.45,0,13.55-3.84,13.55-12.32,0-8.92-6.32-12.43-14-12.43h-6.44v-8.25L310.31,753v-.46h-29l2.26-13.1H326v12L310.76,771.2v.34C320.59,773.35,329.52,779.79,329.52,794.14Z"/><path class="d" d="M367,751.43a30.39,30.39,0,0,0-15.93,5L344.44,745c9-4.86,15.48-6.66,24.74-6.66,13.9,0,22.49,7.91,22.49,21.69,0,17.41-15,34-28.81,45v.45h31.07l-2.26,13.11H343.08v-12c15.48-11.64,34-29.94,34-45.09C377.09,755.27,373.59,751.43,367,751.43Z"/><path class="d" d="M150.4,688.45h-2.75v16.71h-7V666.67h7v15.4h2.86l10-15.4h7.86l-12,18.2,13.2,20.29-7.92.55Z"/><path class="d" d="M179.11,705.16V666.67h12c6.87,0,12,2.53,12,9.24a8.54,8.54,0,0,1-6.54,8.8v.22c4.84,1.15,7.92,4.23,7.92,9.57,0,7.86-5.89,10.66-13.42,10.66Zm11.65-32.11h-4.62v9.29h4.62c3.36,0,5.17-1.87,5.17-4.67S194.12,673.05,190.76,673.05Zm.06,15.34h-4.68v10.4h4.68c4.07,0,6.49-2,6.49-5.06C197.31,690.21,194.89,688.39,190.82,688.39Z"/><path class="d" d="M235.26,696.75H223.05l-2.53,8.41H213.1L226,666.67h6.44l12.87,38.49h-7.43Zm-10.34-6.21h8.47l-4.13-14H229Z"/><path class="d" d="M262.48,691.64v13.52h-7V666.67H268c7.31,0,12.81,4.23,12.81,12.48s-5.5,12.49-12.81,12.49Zm0-18.59v12.21h5.45c3.35,0,5.61-2.26,5.61-6.11s-2.26-6.1-5.61-6.1Z"/><path class="d" d="M306.81,673.05v32.11h-7.09V673.05H288.55v-6.38H318l-1.11,6.38Z"/><path class="d" d="M351.36,679.65h-.17L334,705.16h-5.89V666.67h7v25.57h.17l17.15-25.57h5.89v38.49h-7Z"/><path class="d" d="M379.46,691.64v13.52h-7V666.67H385c7.31,0,12.81,4.23,12.81,12.48s-5.5,12.49-12.81,12.49Zm0-18.59v12.21h5.45c3.35,0,5.61-2.26,5.61-6.11s-2.26-6.1-5.61-6.1Z"/><path class="d" d="M416.42,666.67v15h3.74c8,0,13.31,3.9,13.31,11.77s-5.28,11.76-13.31,11.76H409.38V666.67Zm0,21.34v10.78h3.41c4.46,0,6.38-2.31,6.38-5.39,0-3.25-1.87-5.39-6.43-5.39Zm28.16-21.34v38.49h-7V666.67Z"/><path class="e" d="M368.94,311.81v-3h2.83v-12h-2.83v-3H378l-.52,3h-2.44v12h2.83v3Z"/><path class="e" d="M380.61,302.15c0-2.18,1.78-3.7,4.65-3.7a10.34,10.34,0,0,1,4.27.9l-1.08,2.49a8.39,8.39,0,0,0-3-.64c-1.13,0-1.64.41-1.64,1.05,0,.8.77,1.18,2.08,1.62,1.93.64,4,1.65,4,4.24,0,2.39-2,4-5,4a10.18,10.18,0,0,1-4.55-.95l1.1-2.57a8.39,8.39,0,0,0,3.35.77c1.1,0,1.87-.49,1.87-1.21,0-1-1.26-1.49-2.57-2C382.54,305.57,380.61,304.56,380.61,302.15Z"/><path class="e" d="M401.81,308.47l1.11,2.49a10.07,10.07,0,0,1-4.53,1.11c-3.85,0-6.5-2.52-6.5-6.81s2.31-6.81,6-6.81c3.42,0,5.56,2.13,5.56,5.81a17.93,17.93,0,0,1-.16,2h-8.17a3.38,3.38,0,0,0,3.42,3.09A7.8,7.8,0,0,0,401.81,308.47Zm-1.26-4.68A2.42,2.42,0,0,0,398,301.2a2.81,2.81,0,0,0-2.78,2.59Z"/><path class="e" d="M414.4,311.61a9.53,9.53,0,0,1-2.85.46c-2.36,0-4.29-1.08-4.29-4.14v-6.47H405v-2.75h2.26v-3.55l3.19-.51v4.06h3.67l-.51,2.75h-3.16v6.47c0,1,.41,1.39,1.41,1.39a7.23,7.23,0,0,0,2-.34Z"/><path class="e" d="M427.89,303.87c-2.31-.9-5-2.52-5-5.5s2.31-4.8,6-4.8a10.73,10.73,0,0,1,5.27,1.38l-1.57,2.63a6.86,6.86,0,0,0-3.7-1c-1.62,0-2.57.56-2.57,1.67,0,1.31,1.57,2.28,3.06,2.88,2.83,1.1,5.34,2.49,5.34,5.83,0,3.19-2.36,5.14-6.39,5.14a10.31,10.31,0,0,1-5.81-1.59l1.77-2.68a6.7,6.7,0,0,0,4,1.29c1.72,0,3-.77,3-2.11C431.31,305.36,429.8,304.62,427.89,303.87Z"/><path class="e" d="M444.24,303.23c0-1.26-.65-2-2.21-2a10.6,10.6,0,0,0-3.5.69l-.95-2.57a13.12,13.12,0,0,1,4.76-.87c4,0,5.08,2.11,5.08,4.83v5a.83.83,0,0,0,.93.92h.28v2.49a5.76,5.76,0,0,1-1.82.26,2.35,2.35,0,0,1-2.32-1.26h-.1a4.38,4.38,0,0,1-3.44,1.26c-2.49,0-4.06-1.23-4.06-3.91,0-2.51,2-3.93,4.91-3.93h2.44Zm0,4.8v-1.49H441.9c-1.18,0-1.85.59-1.85,1.44a1.3,1.3,0,0,0,1.41,1.34A3.73,3.73,0,0,0,444.24,308Z"/><path class="e" d="M454.39,311.81H451.2v-13.1h2.42l.51,1.13h.1a5,5,0,0,1,3.47-1.39c2.75,0,4.29,1.72,4.29,5.16v8.2h-3.18V303.9c0-1.83-.7-2.7-1.9-2.7a3.53,3.53,0,0,0-2.52,1.54Z"/><path class="e" d="M465,302.15c0-2.18,1.77-3.7,4.65-3.7a10.33,10.33,0,0,1,4.26.9l-1.08,2.49a8.34,8.34,0,0,0-3-.64c-1.13,0-1.65.41-1.65,1.05,0,.8.77,1.18,2.08,1.62,1.93.64,4,1.65,4,4.24,0,2.39-2,4-5,4a10.21,10.21,0,0,1-4.55-.95l1.11-2.57a8.3,8.3,0,0,0,3.34.77c1.1,0,1.87-.49,1.87-1.21,0-1-1.26-1.49-2.57-2C466.9,305.57,465,304.56,465,302.15Z"/><path class="e" d="M497.28,300.07h-.08l-3.09,9.38h-3.36l-3.11-9.38h-.08l-1.08,11.74h-3.29l1.67-18h3.68l3.85,11.57h.08l3.85-11.57H500l1.67,18h-3.29Z"/><path class="e" d="M514.16,308.47l1.1,2.49a10,10,0,0,1-4.52,1.11c-3.85,0-6.5-2.52-6.5-6.81s2.31-6.81,6-6.81c3.42,0,5.55,2.13,5.55,5.81a17.48,17.48,0,0,1-.15,2h-8.17a3.38,3.38,0,0,0,3.42,3.09A7.84,7.84,0,0,0,514.16,308.47Zm-1.26-4.68a2.43,2.43,0,0,0-2.6-2.59,2.81,2.81,0,0,0-2.77,2.59Z"/><path class="e" d="M526.88,310.68a4.87,4.87,0,0,1-3.39,1.39c-3.7,0-5.37-2.85-5.37-6.81s1.69-6.81,5.6-6.81a9.13,9.13,0,0,1,3,.49v-5.89l3.18-.51v19.27H527.5l-.52-1.13Zm-5.53-5.42c0,2.39,1,4.06,2.91,4.06a3.46,3.46,0,0,0,2.47-1.29v-6.14a5.06,5.06,0,0,0-2.58-.69C522.43,301.2,521.35,302.69,521.35,305.26Z"/><path class="e" d="M532.35,301.46l.52-2.75h4.83v13.1h-3.19V301.46Zm3.75-8.41A1.86,1.86,0,0,1,538,294.9a1.84,1.84,0,0,1-1.91,1.83,1.81,1.81,0,0,1-1.87-1.83A1.83,1.83,0,0,1,536.1,293.05Z"/><path class="e" d="M549.08,298.71h3.19v13.1h-2.42l-.51-1.13h-.1a5.56,5.56,0,0,1-3.65,1.39c-2.57,0-4.5-1.7-4.5-5.37v-8h3.19v8c0,1.82.9,2.62,2.1,2.62a3.88,3.88,0,0,0,2.7-1.54Z"/><path class="e" d="M565.24,299.89a6.15,6.15,0,0,1,4-1.44c2.75,0,4.34,1.72,4.34,5.16v8.2h-3.18V303.9c0-1.83-.7-2.7-1.9-2.7a3.33,3.33,0,0,0-2.16,1.1v9.51h-3.19V303.9c0-1.83-.64-2.7-1.75-2.7a3.21,3.21,0,0,0-2.31,1.54v9.07h-3.19v-13.1h2.42l.51,1.13h.11a4.63,4.63,0,0,1,3.29-1.39A3.81,3.81,0,0,1,565.24,299.89Z"/><path class="f" d="M374.19,329.53l5.65-7.71h2.57l-6.14,8.51,6.68,9.48-2.52.26-6.24-8.58h-2v8.32H370v-18h2.26v7.71Z"/><path class="f" d="M386.5,333.88c.2,2.85,1.54,4.47,4.13,4.47a6.92,6.92,0,0,0,3.37-.93l.74,1.54a8.76,8.76,0,0,1-4.36,1.11c-3.65,0-6.14-2.52-6.14-6.81,0-4.06,2.08-6.81,5.78-6.81,3.52,0,5.26,2.05,5.26,5.27a10.75,10.75,0,0,1-.23,2.16Zm0-1.57h6.75a4,4,0,0,0,0-.59c0-2.06-1.08-3.55-3.21-3.55S386.62,329.87,386.5,332.31Z"/><path class="f" d="M406.8,326.71l-.52,1.72H401v11.38h-2.16v-13.1Z"/><path class="f" d="M418.93,326.71v13.1h-2.16V328.43h-4.06v1.08c0,7-1.16,10.43-3.93,10.43a3.76,3.76,0,0,1-1.73-.46l.62-1.67a1.75,1.75,0,0,0,1,.31c1.36,0,2-2.55,2-9.23v-2.18Z"/><path class="f" d="M428.28,331.49c2.83,0,4.68,1.54,4.68,4.18s-1.85,4.14-4.68,4.14h-5v-13.1h2.15v4.78Zm-2.83,1.72v4.88H428c1.67,0,2.73-.9,2.73-2.44s-1.06-2.44-2.73-2.44Z"/><path class="f" d="M453.26,334.08c0,4-2.52,6-5.89,6a8.72,8.72,0,0,1-5.16-1.52l1-1.72a6.55,6.55,0,0,0,3.95,1.29c2.16,0,3.78-1.34,3.78-4a3.74,3.74,0,0,0-4.06-4,12.59,12.59,0,0,0-3.67.66v-8.89h9.35l-.52,2h-6.65v4.62a9.84,9.84,0,0,1,2.06-.2C450.84,328.2,453.26,330.23,453.26,334.08Z"/><path class="f" d="M461.79,323.52a7.87,7.87,0,0,0-3.93,1.28l-.95-1.72a10.16,10.16,0,0,1,5.37-1.51c3.16,0,4.85,1.8,4.85,4.93,0,4.32-4.24,8.79-7.32,11.26v.1h7.84l-.52,1.95H456.6v-1.69c3.62-2.83,8.25-7.43,8.25-11.41C464.85,324.68,464,323.52,461.79,323.52Z"/><path class="f" d="M473.79,330.07a4.74,4.74,0,0,1,3.47-1.44c2.9,0,5,2.08,5,5.71a5.37,5.37,0,0,1-5.73,5.73c-3.63,0-5.71-2.73-5.71-6.76A12.39,12.39,0,0,1,480,321.57l.74,1.56a10.91,10.91,0,0,0-7,6.89Zm2.78,8.05c2.05,0,3.44-1.32,3.44-3.78s-1.39-3.75-3.44-3.75a4,4,0,0,0-3.5,2.72C473.07,336.19,474.25,338.12,476.57,338.12Z"/><path class="f" d="M502.62,339.81h-2.16V328.43h-5.73v11.38h-2.16v-13.1h10.05Z"/><path class="f" d="M505.45,326.71h10.84l-.51,1.72h-3.91v11.38h-2.13V328.43h-4.29Z"/><path class="e" d="M142,610.51v-3h2.83v-12H142v-3h9.08l-.52,3h-2.44v12H151v3Z"/><path class="e" d="M153.67,600.85c0-2.18,1.77-3.7,4.65-3.7a10.34,10.34,0,0,1,4.27.9l-1.08,2.49a8.39,8.39,0,0,0-3-.64c-1.13,0-1.64.41-1.64,1.06s.77,1.18,2.08,1.61c1.93.65,4,1.65,4,4.24,0,2.39-2,4-5,4a10,10,0,0,1-4.55-.95l1.1-2.57a8.34,8.34,0,0,0,3.34.77c1.11,0,1.88-.49,1.88-1.21,0-1-1.26-1.49-2.57-2C155.6,604.27,153.67,603.27,153.67,600.85Z"/><path class="e" d="M174.87,607.17l1.11,2.5a10.2,10.2,0,0,1-4.53,1.1c-3.85,0-6.5-2.52-6.5-6.81s2.31-6.81,6-6.81c3.42,0,5.56,2.14,5.56,5.81a18.27,18.27,0,0,1-.16,2h-8.17a3.38,3.38,0,0,0,3.42,3.08A7.66,7.66,0,0,0,174.87,607.17Zm-1.26-4.67a2.43,2.43,0,0,0-2.59-2.6,2.81,2.81,0,0,0-2.78,2.6Z"/><path class="e" d="M187.46,610.31a9.23,9.23,0,0,1-2.85.46c-2.36,0-4.29-1.08-4.29-4.14v-6.47h-2.26v-2.75h2.26v-3.55l3.19-.51v4.06h3.67l-.51,2.75h-3.16v6.47c0,1,.41,1.39,1.41,1.39a7.58,7.58,0,0,0,2-.33Z"/><path class="e" d="M201,602.57c-2.31-.9-5-2.51-5-5.49s2.31-4.81,6-4.81a10.74,10.74,0,0,1,5.27,1.39l-1.57,2.62a6.86,6.86,0,0,0-3.7-1c-1.62,0-2.57.57-2.57,1.67,0,1.31,1.57,2.29,3.06,2.88,2.82,1.1,5.34,2.49,5.34,5.83s-2.36,5.14-6.4,5.14a10.22,10.22,0,0,1-5.8-1.59l1.77-2.67a6.75,6.75,0,0,0,4,1.28c1.73,0,3-.77,3-2.11C204.37,604.06,202.86,603.32,201,602.57Z"/><path class="e" d="M217.3,601.93c0-1.26-.65-2-2.21-2a10.37,10.37,0,0,0-3.5.7l-1-2.57a13.13,13.13,0,0,1,4.76-.88c4,0,5.08,2.11,5.08,4.83v5a.83.83,0,0,0,.93.92h.28v2.5a6.09,6.09,0,0,1-1.82.25,2.33,2.33,0,0,1-2.32-1.26h-.1a4.38,4.38,0,0,1-3.44,1.26c-2.49,0-4.06-1.23-4.06-3.9s2-3.93,4.91-3.93h2.44Zm0,4.81v-1.49H215c-1.18,0-1.85.59-1.85,1.44a1.3,1.3,0,0,0,1.41,1.33A3.78,3.78,0,0,0,217.3,606.74Z"/><path class="e" d="M227.45,610.51h-3.19v-13.1h2.42l.51,1.13h.1a5.07,5.07,0,0,1,3.47-1.39c2.75,0,4.29,1.72,4.29,5.17v8.19h-3.18V602.6c0-1.82-.7-2.7-1.9-2.7a3.53,3.53,0,0,0-2.52,1.54Z"/><path class="e" d="M238,600.85c0-2.18,1.78-3.7,4.66-3.7a10.33,10.33,0,0,1,4.26.9l-1.08,2.49a8.34,8.34,0,0,0-3-.64c-1.13,0-1.65.41-1.65,1.06s.77,1.18,2.08,1.61c1.93.65,4,1.65,4,4.24,0,2.39-2,4-5,4a10.07,10.07,0,0,1-4.55-.95l1.11-2.57a8.3,8.3,0,0,0,3.34.77c1.1,0,1.87-.49,1.87-1.21,0-1-1.26-1.49-2.57-2C240,604.27,238,603.27,238,600.85Z"/><path class="e" d="M270.33,598.77h-.07l-3.09,9.38h-3.36l-3.11-9.38h-.08l-1.08,11.74h-3.29l1.67-18h3.68l3.85,11.56h.08l3.85-11.56h3.68l1.67,18h-3.29Z"/><path class="e" d="M287.22,607.17l1.1,2.5a10.15,10.15,0,0,1-4.52,1.1c-3.85,0-6.5-2.52-6.5-6.81s2.31-6.81,6-6.81c3.42,0,5.55,2.14,5.55,5.81a17.79,17.79,0,0,1-.15,2h-8.17A3.38,3.38,0,0,0,284,608,7.7,7.7,0,0,0,287.22,607.17ZM286,602.5a2.43,2.43,0,0,0-2.6-2.6,2.81,2.81,0,0,0-2.77,2.6Z"/><path class="e" d="M299.94,609.38a4.83,4.83,0,0,1-3.39,1.39c-3.7,0-5.37-2.85-5.37-6.81s1.69-6.81,5.6-6.81a9,9,0,0,1,3,.49v-5.88l3.19-.52v19.27h-2.41l-.52-1.13ZM294.41,604c0,2.39,1,4.06,2.91,4.06a3.44,3.44,0,0,0,2.46-1.28V600.6a4.91,4.91,0,0,0-2.57-.7C295.49,599.9,294.41,601.39,294.41,604Z"/><path class="e" d="M305.41,600.16l.52-2.75h4.83v13.1h-3.19V600.16Zm3.75-8.4a1.84,1.84,0,1,1,0,3.67,1.81,1.81,0,0,1-1.87-1.82A1.83,1.83,0,0,1,309.16,591.76Z"/><path class="e" d="M322.14,597.41h3.19v13.1h-2.42l-.51-1.13h-.11a5.46,5.46,0,0,1-3.64,1.39c-2.57,0-4.5-1.69-4.5-5.37v-8h3.19v8c0,1.83.9,2.62,2.1,2.62a3.88,3.88,0,0,0,2.7-1.54Z"/><path class="e" d="M338.3,598.59a6.21,6.21,0,0,1,4-1.44c2.75,0,4.34,1.72,4.34,5.17v8.19h-3.18V602.6c0-1.82-.7-2.7-1.9-2.7a3.3,3.3,0,0,0-2.16,1.11v9.5h-3.19V602.6c0-1.82-.64-2.7-1.75-2.7a3.21,3.21,0,0,0-2.31,1.54v9.07h-3.19v-13.1h2.42l.51,1.13H332a4.67,4.67,0,0,1,3.29-1.39A3.82,3.82,0,0,1,338.3,598.59Z"/><path class="f" d="M147.25,628.24l5.65-7.71h2.57l-6.14,8.5,6.68,9.48-2.52.26-6.24-8.58h-2v8.32H143v-18h2.26v7.71Z"/><path class="f" d="M159.56,632.58c.2,2.85,1.54,4.47,4.13,4.47a6.92,6.92,0,0,0,3.37-.93l.74,1.55a8.86,8.86,0,0,1-4.36,1.1c-3.65,0-6.15-2.52-6.15-6.81,0-4.06,2.09-6.81,5.79-6.81,3.52,0,5.26,2.06,5.26,5.27a10.6,10.6,0,0,1-.23,2.16Zm0-1.57h6.75a3.82,3.82,0,0,0,0-.59c0-2.06-1.08-3.55-3.21-3.55S159.68,628.57,159.56,631Z"/><path class="f" d="M179.86,625.41l-.52,1.72H174.1v11.38h-2.16v-13.1Z"/><path class="f" d="M192,625.41v13.1h-2.16V627.13h-4.06v1.08c0,7-1.16,10.43-3.93,10.43a3.64,3.64,0,0,1-1.73-.46l.62-1.67a1.68,1.68,0,0,0,1,.31c1.36,0,2-2.55,2-9.23v-2.18Z"/><path class="f" d="M201.34,630.19c2.83,0,4.68,1.54,4.68,4.19s-1.85,4.13-4.68,4.13h-5v-13.1h2.15v4.78Zm-2.83,1.72v4.88h2.57c1.67,0,2.73-.9,2.73-2.44s-1.06-2.44-2.73-2.44Z"/><path class="f" d="M226.32,632.78c0,4-2.52,6-5.89,6a8.65,8.65,0,0,1-5.16-1.52l1-1.72a6.55,6.55,0,0,0,3.95,1.29c2.16,0,3.78-1.34,3.78-4a3.75,3.75,0,0,0-4.06-4,12.22,12.22,0,0,0-3.67.67v-8.89h9.35l-.52,2h-6.65v4.62a9.81,9.81,0,0,1,2.05-.2C223.9,626.9,226.32,628.93,226.32,632.78Z"/><path class="f" d="M240.71,632.78c0,4-2.52,6-5.89,6a8.65,8.65,0,0,1-5.16-1.52l1-1.72a6.55,6.55,0,0,0,3.95,1.29c2.16,0,3.78-1.34,3.78-4a3.75,3.75,0,0,0-4.06-4,12.22,12.22,0,0,0-3.67.67v-8.89H240l-.51,2h-6.66v4.62a9.84,9.84,0,0,1,2.06-.2C238.29,626.9,240.71,628.93,240.71,632.78Z"/><path class="f" d="M261.29,638.51h-2.16V627.13H253.4v11.38h-2.16v-13.1h10.05Z"/><path class="f" d="M264.12,625.41H275l-.51,1.72h-3.91v11.38h-2.13V627.13h-4.29Z"/><path class="f" d="M285.14,629.11a1.57,1.57,0,1,1-1.57,1.57A1.58,1.58,0,0,1,285.14,629.11Z"/><path class="f" d="M303.18,622.48v16h-2.26v-16h-5.48v-2h13.24l-.52,2Z"/><path class="f" d="M310.84,637.85v5.8l-2.16.52V625.41h1.38l.52,1.64h.1a5.19,5.19,0,0,1,4.11-1.9c3.37,0,5.17,2.78,5.17,6.81s-1.62,6.81-5.53,6.81A6.91,6.91,0,0,1,310.84,637.85Zm6.91-5.89c0-3-1.26-5.09-3.63-5.09a4.43,4.43,0,0,0-3.28,2v7a5.38,5.38,0,0,0,3.28,1.18C316.49,637.05,317.75,635.2,317.75,632Z"/><path class="f" d="M325.05,632.58c.2,2.85,1.54,4.47,4.13,4.47a6.92,6.92,0,0,0,3.37-.93l.74,1.55a8.89,8.89,0,0,1-4.36,1.1c-3.65,0-6.15-2.52-6.15-6.81,0-4.06,2.08-6.81,5.79-6.81,3.52,0,5.26,2.06,5.26,5.27a10.6,10.6,0,0,1-.23,2.16Zm0-1.57h6.75a3.82,3.82,0,0,0,0-.59c0-2.06-1.08-3.55-3.21-3.55S325.17,628.57,325.05,631Z"/><path class="f" d="M339.59,632.63v5.88h-2.16v-13.1h2.16v5.5h1.85l3.78-5.5h2.31l-4.34,6.32,4.6,6.78-2.21.26-4.17-6.14Z"/><path class="f" d="M350.36,638.51v-13.1h2.16v9.43h.1l6.81-9.43h1.87v13.1h-2.15V629H359l-6.81,9.48Z"/><path class="f" d="M375.93,638.51h-2.16v-5.88h-5.94v5.88h-2.16v-13.1h2.16v5.5h5.94v-5.5h2.16Z"/><path class="f" d="M388.21,625.41l-.52,1.72h-5.24v11.38h-2.16v-13.1Z"/><path class="f" d="M396.69,633.73a5.3,5.3,0,0,1,3-4.67V629a4.57,4.57,0,0,1-2.42-4.11c0-2.8,1.91-4.6,5.09-4.6s5.09,1.8,5.09,4.6a5.12,5.12,0,0,1-2.42,4.24v.08a5.11,5.11,0,0,1,3,4.54c0,3.24-2.13,5-5.65,5S396.69,637,396.69,633.73Zm6.29-3.28-1.51-.65a4.69,4.69,0,0,0-2.62,3.93c0,2.24,1.39,3.09,3.49,3.09s3.5-1,3.5-3.09C405.84,632.19,404.47,631.06,403,630.45Zm.18-2a4.56,4.56,0,0,0,2.11-3.6,2.94,2.94,0,0,0-5.86,0,3.27,3.27,0,0,0,2.32,3Z"/><path class="f" d="M422.26,632.78c0,4-2.52,6-5.89,6a8.65,8.65,0,0,1-5.16-1.52l1-1.72a6.55,6.55,0,0,0,3.95,1.29c2.16,0,3.78-1.34,3.78-4a3.75,3.75,0,0,0-4.06-4,12.22,12.22,0,0,0-3.67.67v-8.89h9.35l-.52,2h-6.65v4.62a9.84,9.84,0,0,1,2.06-.2C419.84,626.9,422.26,628.93,422.26,632.78Z"/><path class="e" d="M144.45,856.61v-3h2.82v-12h-2.82v-3h9.07l-.52,3h-2.44v12h2.83v3Z"/><path class="e" d="M156.11,847c0-2.19,1.78-3.7,4.65-3.7a10.34,10.34,0,0,1,4.27.9L164,846.64a8.39,8.39,0,0,0-3-.64c-1.13,0-1.64.41-1.64,1,0,.8.77,1.18,2.08,1.62,1.93.64,4,1.64,4,4.24,0,2.39-2,4-5,4a10.18,10.18,0,0,1-4.55-1l1.11-2.57a8.3,8.3,0,0,0,3.34.77c1.1,0,1.87-.49,1.87-1.21,0-1-1.26-1.49-2.57-2C158,850.36,156.11,849.36,156.11,847Z"/><path class="e" d="M177.31,853.27l1.11,2.49a10.2,10.2,0,0,1-4.53,1.11c-3.85,0-6.5-2.52-6.5-6.81s2.32-6.81,6-6.81c3.41,0,5.55,2.13,5.55,5.8a18.27,18.27,0,0,1-.16,2h-8.17a3.38,3.38,0,0,0,3.42,3.09A7.8,7.8,0,0,0,177.31,853.27Zm-1.26-4.68a2.42,2.42,0,0,0-2.59-2.59,2.82,2.82,0,0,0-2.78,2.59Z"/><path class="e" d="M189.9,856.4a9.24,9.24,0,0,1-2.85.47c-2.36,0-4.29-1.08-4.29-4.14v-6.48H180.5V843.5h2.26V840l3.19-.52v4.06h3.67l-.51,2.75H186v6.48c0,1,.41,1.39,1.41,1.39a7.23,7.23,0,0,0,2-.34Z"/><path class="e" d="M203.4,848.67c-2.32-.9-5-2.52-5-5.5s2.31-4.81,6-4.81a10.74,10.74,0,0,1,5.27,1.39l-1.57,2.62a7,7,0,0,0-3.7-1c-1.62,0-2.57.56-2.57,1.67,0,1.31,1.57,2.28,3.06,2.87,2.83,1.11,5.34,2.5,5.34,5.84,0,3.18-2.36,5.14-6.39,5.14a10.23,10.23,0,0,1-5.81-1.6l1.77-2.67a6.7,6.7,0,0,0,4,1.29c1.72,0,3-.78,3-2.11C206.81,850.16,205.3,849.41,203.4,848.67Z"/><path class="e" d="M219.74,848c0-1.26-.64-2-2.21-2a10.35,10.35,0,0,0-3.5.69l-.95-2.57a13.16,13.16,0,0,1,4.76-.87c4,0,5.08,2.1,5.08,4.83v5a.83.83,0,0,0,.93.93h.28v2.49a6.06,6.06,0,0,1-1.82.26,2.36,2.36,0,0,1-2.32-1.26h-.1a4.41,4.41,0,0,1-3.44,1.26c-2.49,0-4.06-1.24-4.06-3.91s2-3.93,4.91-3.93h2.44Zm0,4.8v-1.49H217.4c-1.18,0-1.85.59-1.85,1.44a1.3,1.3,0,0,0,1.41,1.34A3.73,3.73,0,0,0,219.74,852.83Z"/><path class="e" d="M229.89,856.61H226.7V843.5h2.42l.51,1.13h.1a5.08,5.08,0,0,1,3.47-1.38c2.75,0,4.29,1.72,4.29,5.16v8.2h-3.18v-7.92c0-1.82-.7-2.69-1.9-2.69a3.53,3.53,0,0,0-2.52,1.54Z"/><path class="e" d="M240.48,847c0-2.19,1.77-3.7,4.65-3.7a10.33,10.33,0,0,1,4.26.9l-1.08,2.49a8.34,8.34,0,0,0-3-.64c-1.13,0-1.65.41-1.65,1,0,.8.77,1.18,2.08,1.62,1.93.64,4,1.64,4,4.24,0,2.39-2,4-5,4a10.21,10.21,0,0,1-4.55-1l1.11-2.57a8.3,8.3,0,0,0,3.34.77c1.1,0,1.87-.49,1.87-1.21,0-1-1.25-1.49-2.57-2C242.4,850.36,240.48,849.36,240.48,847Z"/><path class="e" d="M272.78,844.87h-.08l-3.08,9.37h-3.37l-3.11-9.37h-.08L262,856.61h-3.29l1.67-18H264l3.85,11.57H268l3.86-11.57h3.67l1.67,18h-3.29Z"/><path class="e" d="M289.66,853.27l1.1,2.49a10.12,10.12,0,0,1-4.52,1.11c-3.85,0-6.5-2.52-6.5-6.81s2.31-6.81,6-6.81c3.42,0,5.55,2.13,5.55,5.8a17.79,17.79,0,0,1-.15,2H283a3.38,3.38,0,0,0,3.42,3.09A7.8,7.8,0,0,0,289.66,853.27Zm-1.26-4.68a2.42,2.42,0,0,0-2.59-2.59,2.81,2.81,0,0,0-2.78,2.59Z"/><path class="e" d="M302.38,855.48a4.87,4.87,0,0,1-3.39,1.39c-3.7,0-5.37-2.86-5.37-6.81s1.69-6.81,5.6-6.81a9.13,9.13,0,0,1,3,.49v-5.89l3.18-.51v19.27H303l-.52-1.13Zm-5.52-5.42c0,2.39,1,4.06,2.9,4.06a3.46,3.46,0,0,0,2.47-1.29v-6.14a5,5,0,0,0-2.57-.69C297.94,846,296.86,847.49,296.86,850.06Z"/><path class="e" d="M307.85,846.25l.52-2.75h4.83v13.11H310V846.25Zm3.76-8.4a1.84,1.84,0,1,1,0,3.68,1.84,1.84,0,1,1,0-3.68Z"/><path class="e" d="M324.58,843.5h3.19v13.11h-2.42l-.51-1.13h-.1a5.56,5.56,0,0,1-3.65,1.39c-2.57,0-4.5-1.7-4.5-5.37v-8h3.19v8c0,1.82.9,2.62,2.1,2.62a3.86,3.86,0,0,0,2.7-1.55Z"/><path class="e" d="M340.75,844.69a6.11,6.11,0,0,1,3.95-1.44c2.75,0,4.34,1.72,4.34,5.16v8.2h-3.18v-7.92c0-1.82-.7-2.69-1.9-2.69a3.31,3.31,0,0,0-2.16,1.1v9.51h-3.19v-7.92c0-1.82-.64-2.69-1.75-2.69a3.21,3.21,0,0,0-2.31,1.54v9.07h-3.18V843.5h2.41l.52,1.13h.1a4.66,4.66,0,0,1,3.29-1.38A3.84,3.84,0,0,1,340.75,844.69Z"/><path class="f" d="M149.69,874.33l5.65-7.71h2.57l-6.14,8.51,6.68,9.48-2.52.26-6.24-8.59h-1.95v8.33h-2.27v-18h2.27v7.71Z"/><path class="f" d="M162,878.67c.2,2.86,1.54,4.47,4.13,4.47a6.92,6.92,0,0,0,3.37-.92l.75,1.54a8.94,8.94,0,0,1-4.37,1.11c-3.65,0-6.14-2.52-6.14-6.81,0-4.06,2.08-6.81,5.78-6.81,3.52,0,5.27,2,5.27,5.26a10.65,10.65,0,0,1-.24,2.16Zm0-1.56h6.76c0-.21,0-.39,0-.6,0-2-1.08-3.54-3.21-3.54S162.13,874.66,162,877.11Z"/><path class="f" d="M182.3,871.5l-.52,1.73h-5.24v11.38h-2.16V871.5Z"/><path class="f" d="M194.43,871.5v13.11h-2.16V873.23h-4.06v1.07c0,7-1.16,10.44-3.93,10.44a3.57,3.57,0,0,1-1.72-.47l.61-1.67a1.68,1.68,0,0,0,1,.31c1.36,0,2-2.54,2-9.22V871.5Z"/><path class="f" d="M203.78,876.28c2.83,0,4.68,1.55,4.68,4.19s-1.85,4.14-4.68,4.14h-5V871.5H201v4.78ZM201,878v4.89h2.57c1.67,0,2.73-.9,2.73-2.44s-1.06-2.45-2.73-2.45Z"/><path class="f" d="M224.85,866.62v16h4.29v2h-11.3v-2h4.83V868.57h-4.45l.52-2Z"/><path class="f" d="M239.24,866.62v16h4.29v2h-11.3v-2h4.83V868.57h-4.45l.52-2Z"/><path class="f" d="M251.32,884.87a8.66,8.66,0,0,1-5.09-1.52l1.06-1.72a6.18,6.18,0,0,0,3.85,1.28c2.29,0,3.86-1.18,3.86-3.83s-1.62-3.85-4-3.85h-.77v-.9l3.83-5.65v-.11h-7.28l.52-2h9.15v1.7l-3.63,5.37v.1c2.47.33,4.42,2,4.42,5.29C257.28,883,254.58,884.87,251.32,884.87Z"/><path class="f" d="M278.12,884.61H276V873.23h-5.73v11.38h-2.15V871.5h10Z"/><path class="f" d="M281,871.5h10.84l-.51,1.73h-3.91v11.38h-2.13V873.23H281Z"/><path class="g" d="M610.61,21.49h10l-.7,3.36h-14.7v-3c4.79-3.61,10.88-10,10.88-14.67,0-2.34-1.15-3.81-3.64-3.81A9.54,9.54,0,0,0,607.29,5l-1.68-2.94A14,14,0,0,1,613.1,0c4.3,0,6.79,2.45,6.79,6.72,0,5.39-5,11.23-9.28,14.63Z"/><path class="g" d="M631.75,25.2c-5.39,0-8.57-4.31-8.57-12.6S626.36,0,631.75,0s8.58,4.3,8.58,12.6S637.14,25.2,631.75,25.2Zm0-3.36c2.8,0,4.76-2.73,4.76-9.24s-2-9.24-4.76-9.24S627,6.09,627,12.6,629,21.84,631.75,21.84Z"/><path class="g" d="M698.23,480.8c0,5.39-3.9,7.91-8.4,7.91a12.57,12.57,0,0,1-7.2-2.06l1.81-2.94a8.63,8.63,0,0,0,5.14,1.64c2.73,0,4.79-1.4,4.79-4.51s-2.13-4.55-4.93-4.55h-1.85V474.4l5.32-7v-.14h-9.46l.7-3.36h13v3l-5.07,6.65v.11C695.4,474.19,698.23,476.08,698.23,480.8Z"/><path class="g" d="M709.9,488.71c-5.46,0-8.69-4.3-8.69-12.6s3.23-12.6,8.69-12.6,8.69,4.31,8.69,12.6S715.36,488.71,709.9,488.71Zm0-3.36c2.84,0,4.82-2.73,4.82-9.24s-2-9.24-4.82-9.24-4.82,2.73-4.82,9.24S707.06,485.35,709.9,485.35Z"/><path class="g" d="M729,488.71c-5.47,0-8.69-4.3-8.69-12.6s3.22-12.6,8.69-12.6,8.68,4.31,8.68,12.6S734.48,488.71,729,488.71Zm0-3.36c2.83,0,4.82-2.73,4.82-9.24s-2-9.24-4.82-9.24-4.83,2.73-4.83,9.24S726.18,485.35,729,485.35Z"/><path class="g" d="M337.26,21.49h10.11l-.71,3.36H331.77v-3c4.85-3.61,11-10,11-14.67,0-2.34-1.17-3.81-3.68-3.81A9.8,9.8,0,0,0,333.89,5l-1.7-2.94A14.33,14.33,0,0,1,339.78,0c4.36,0,6.88,2.45,6.88,6.72,0,5.39-5.07,11.24-9.4,14.63Z"/><path class="g" d="M358.68,25.2c-5.46,0-8.69-4.3-8.69-12.6S353.22,0,358.68,0s8.69,4.3,8.69,12.6S364.14,25.2,358.68,25.2Zm0-3.36c2.84,0,4.82-2.73,4.82-9.24s-2-9.24-4.82-9.24-4.82,2.73-4.82,9.24S355.84,21.84,358.68,21.84Z"/><path class="g" d="M377.8,25.2c-5.47,0-8.69-4.3-8.69-12.6S372.33,0,377.8,0s8.68,4.3,8.68,12.6S383.26,25.2,377.8,25.2Zm0-3.36c2.83,0,4.82-2.73,4.82-9.24s-2-9.24-4.82-9.24S373,6.09,373,12.6,375,21.84,377.8,21.84Z"/><rect class="h" x="594.3" y="53.2" width="56.69" height="850.39"/><path class="g" d="M100.37,21.49h10l-.7,3.36H95v-3c4.79-3.61,10.89-10,10.89-14.67,0-2.34-1.16-3.81-3.65-3.81A9.54,9.54,0,0,0,97.05,5L95.37,2.06A14,14,0,0,1,102.86,0c4.31,0,6.79,2.45,6.79,6.72,0,5.39-5,11.23-9.28,14.63Z"/><path class="g" d="M121.52,25.2c-5.4,0-8.58-4.31-8.58-12.6S116.12,0,121.52,0s8.57,4.3,8.57,12.6S126.91,25.2,121.52,25.2Zm0-3.36c2.8,0,4.76-2.73,4.76-9.24s-2-9.24-4.76-9.24-4.77,2.73-4.77,9.24S118.71,21.84,121.52,21.84Z"/><path class="g" d="M33.74,102.33c0,5.39-3.85,7.91-8.29,7.91a12.32,12.32,0,0,1-7.11-2.07l1.79-2.94a8.45,8.45,0,0,0,5.07,1.65c2.7,0,4.73-1.4,4.73-4.52s-2.1-4.55-4.87-4.55H23.24V95.92l5.25-7v-.14H19.15l.7-3.36H32.66v3l-5,6.65v.1C30.94,95.71,33.74,97.6,33.74,102.33Z"/><path class="g" d="M45.26,110.24c-5.39,0-8.58-4.31-8.58-12.6S39.87,85,45.26,85s8.57,4.3,8.57,12.6S50.65,110.24,45.26,110.24Zm0-3.36c2.8,0,4.76-2.73,4.76-9.24s-2-9.24-4.76-9.24-4.76,2.73-4.76,9.24S42.46,106.88,45.26,106.88Z"/><path class="e" d="M29,671.55v21.14h5.67v3.36H18.86v-3.36h6.41V674.91H19.39l.7-3.36Z"/><path class="e" d="M49.67,671.55l-8.75,15.29V687h5.56v-4.44h3.68V687h4l-.7,3.33H50.16v5.74H46.48v-5.74h-10v-3l9-15.78Z"/><path class="e" d="M10.08,312.16V333.3h5.67v3.36H0V333.3H6.41V315.52H.53l.7-3.36Z"/><path class="e" d="M33.74,329.1c0,5.39-3.85,7.91-8.29,7.91A12.32,12.32,0,0,1,18.34,335L20.13,332a8.45,8.45,0,0,0,5.07,1.65c2.7,0,4.73-1.4,4.73-4.52s-2.1-4.55-4.87-4.55H23.24v-1.89l5.25-7v-.14H19.15l.7-3.36H32.66v3l-5,6.65v.1C30.94,322.48,33.74,324.37,33.74,329.1Z"/><path class="e" d="M45.26,337c-5.39,0-8.58-4.31-8.58-12.6s3.19-12.6,8.58-12.6,8.57,4.3,8.57,12.6S50.65,337,45.26,337Zm0-3.36c2.8,0,4.76-2.73,4.76-9.24s-2-9.24-4.76-9.24-4.76,2.73-4.76,9.24S42.46,333.65,45.26,333.65Z"/><path class="e" d="M24.12,782.84h10l-.7,3.36H18.69v-3c4.8-3.6,10.89-10,10.89-14.66,0-2.35-1.16-3.82-3.64-3.82a9.53,9.53,0,0,0-5.15,1.65l-1.68-2.94a13.92,13.92,0,0,1,7.49-2.07c4.31,0,6.79,2.45,6.79,6.72,0,5.39-5,11.24-9.27,14.63Z"/><path class="e" d="M37.38,779.55a6.94,6.94,0,0,1,4.06-6.16v-.1a6.2,6.2,0,0,1-3.29-5.57c0-3.92,2.66-6.37,7.11-6.37s7.1,2.45,7.1,6.37a6.23,6.23,0,0,1-3.29,5.6v.11a6.87,6.87,0,0,1,4.06,6.12c0,4.41-3.08,7-7.87,7S37.38,784,37.38,779.55Zm6.72-4.83A5.5,5.5,0,0,0,41,779.55c0,2.56,1.79,3.64,4.24,3.64s4.23-1.22,4.23-3.64c0-2.1-1.85-3.32-3.92-4.2Zm1-3.11,1.12.45a5.18,5.18,0,0,0,2.52-4.34c0-1.89-1.47-3-3.46-3s-3.47,1.12-3.47,3C41.79,769.82,43.3,770.87,45.08,771.61Z"/><path class="g" d="M29,711.12v21.14h5.67v3.36H18.87v-3.36h6.4V714.48H19.39l.7-3.36Z"/><path class="g" d="M43,732.26H53l-.7,3.36H37.56v-3c4.79-3.61,10.88-10,10.88-14.67,0-2.34-1.15-3.81-3.64-3.81a9.54,9.54,0,0,0-5.14,1.64L38,712.83a14,14,0,0,1,7.49-2.06c4.3,0,6.79,2.45,6.79,6.72,0,5.39-5,11.23-9.28,14.63Z"/><path class="g" d="M30.28,582a4.78,4.78,0,0,0-5.11-5,12.38,12.38,0,0,0-5.08,1V565.32H33.18l-.7,3.36H23.77v5.25a11.88,11.88,0,0,1,2.17-.21c4.48,0,8.15,2.66,8.15,8.23,0,5.39-3.85,8.22-8.29,8.22a12.32,12.32,0,0,1-7.11-2.06l1.79-2.94a8.44,8.44,0,0,0,5.07,1.64A4.48,4.48,0,0,0,30.28,582Z"/><path class="g" d="M41.83,576.27a6.4,6.4,0,0,1,4.44-1.68c4,0,7,2.56,7,7.7s-3.43,7.88-8,7.88c-4.94,0-7.95-3.71-7.95-9.21,0-8.47,5.29-13.89,12.53-16l1.3,2.8c-4,1.43-8.19,4-9.49,8.43Zm3.5,10.54c2.38,0,4.16-1.61,4.16-4.52S47.71,578,45.33,578a4.7,4.7,0,0,0-4.24,3C41.09,584.47,42.63,586.81,45.33,586.81Z"/><path class="g" d="M33.74,867.68c0,5.39-3.85,7.91-8.29,7.91a12.32,12.32,0,0,1-7.11-2.06l1.79-2.94a8.44,8.44,0,0,0,5.07,1.64c2.7,0,4.73-1.4,4.73-4.51s-2.1-4.55-4.87-4.55H23.24v-1.89l5.25-7v-.14H19.15l.7-3.36H32.66v3l-5,6.65v.11C30.94,861.07,33.74,863,33.74,867.68Z"/><path class="g" d="M45.26,875.59c-5.39,0-8.58-4.3-8.58-12.6s3.19-12.6,8.58-12.6,8.57,4.31,8.57,12.6S50.65,875.59,45.26,875.59Zm0-3.36c2.8,0,4.76-2.73,4.76-9.24s-2-9.24-4.76-9.24S40.5,856.48,40.5,863,42.46,872.23,45.26,872.23Z"/><rect class="h" x="84.07" y="53.2" width="56.69" height="850.39"/><rect class="i" x="84.07" y="138.24" width="56.69" height="368.5"/><rect class="i" x="83.9" y="665.48" width="56.69" height="39.69"/><rect class="i" x="84.07" y="738.89" width="56.69" height="79.37"/></svg>