<svg width="1880" height="512" viewBox="0 0 1880 512" fill="none" xmlns="http://www.w3.org/2000/svg">
<g clip-path="url(#clip0_2839_284)">
<path d="M256 0C323.895 0 389.01 26.9714 437.019 74.9807C485.029 122.99 512 188.105 512 256C512 323.895 485.029 389.01 437.019 437.019C389.01 485.029 323.895 512 256 512C188.105 512 122.99 485.029 74.9807 437.019C26.9714 389.01 0 323.895 0 256C0 188.105 26.9714 122.99 74.9807 74.9807C122.99 26.9714 188.105 0 256 0Z" fill="black"/>
<path d="M278.358 129.025L30.3798 377.004C12.3019 343.429 2.02064 306.212 0.299805 268.118L208.897 59.521L278.358 129.025Z" fill="#00B4FF"/>
<path fill-rule="evenodd" clip-rule="evenodd" d="M473.984 254.891C444.75 254.892 416.007 262.402 390.51 276.7C365.012 290.999 343.615 311.607 328.368 336.55C313.122 361.492 304.537 389.933 303.438 419.146C302.339 448.358 308.761 477.364 322.09 503.381C345.514 497.138 367.926 487.584 388.65 475.008C379.955 460.015 375.364 442.995 375.339 425.662C375.313 408.33 379.855 391.297 388.506 376.278C397.158 361.259 409.613 348.785 424.619 340.111C439.625 331.437 456.651 326.87 473.984 326.869C483.09 326.846 492.154 328.11 500.906 330.624C508.01 307.443 511.732 283.359 511.957 259.115C499.497 256.294 486.759 254.877 473.984 254.891Z" fill="#00B400"/>
<path d="M170.293 201.583H99.5332V184.359H108.149V139.947H99.5332V122.721H170.293V149.01H152.605V139.947H130.833V153.088H151.246V170.312H130.833V184.363H152.605V175.299H170.293V201.583ZM215.845 201.583H176.836V184.359H186.36V139.947H176.836V122.721H216.753V139.947H209.044V153.542H217.21C227.641 153.542 233.99 148.556 233.99 139.947H227.184V122.721H264.832V139.947H255.305C255.062 145.36 253.433 150.62 250.574 155.223C247.715 159.826 243.721 163.618 238.976 166.234C241.243 178.471 248.243 184.365 263.665 183.458L280.902 139.95H275.003V122.721H319.453L343.04 184.359H351.205V201.583H311.287V184.359H317.637L315.821 178.466H289.511L287.695 184.359H294.952V201.583H279.285C252.067 201.583 248.504 201.583 238.524 197.503C229 193.425 221.743 183.452 218.112 170.764H209.039V184.359H215.845V201.583ZM295.421 161.242H309.483L302.226 142.204L295.421 161.242ZM216.05 294.405H176.836V276.954H186.109V232.43H176.836V215.686H225.067C246.158 215.686 256.795 227.193 256.795 241.821C256.713 246.635 255.348 251.339 252.84 255.449C250.333 259.559 246.775 262.926 242.533 265.202C243.954 273.749 251.383 276.961 260.587 276.961H275.318V232.43H262.835V215.686H310.248V232.43H297.767V276.953H310.248V294.404H259.603C236.645 294.404 225.769 285.498 220.429 268.753H209.273V276.945H216.045V294.403L216.05 294.405ZM209.273 251.662H219.897C227.011 251.662 232.868 249.152 232.868 242.044C232.868 234.513 227.01 232.425 219.897 232.425H209.273V251.662ZM170.293 268.264H152.605V277.33H130.833V263.278H151.246V246.054H130.833V232.91H152.605V241.975H170.293V215.686H99.5332V232.91H108.149V277.326H99.5332V294.549H170.293V268.264ZM338.117 122.721V148.554H354.898V139.947H364.422V184.363H356.257V201.583H396.173V184.359H387.557V139.947H397.081V148.556H414.318V122.721H338.117ZM372.946 232.43H382.544V260.882L350.787 215.686H316.894V232.425H326.19V276.949H316.894V294.4H357.888V276.949H348.651V249.563L379.695 294.4H405.006V232.43H413.593V215.691H372.952V232.43H372.946ZM172.252 363.506C172.252 375.258 163.664 387.015 146.975 387.015H99.5332V369.92H107.733V325.396H99.5332V307.945H141.402C157.555 307.945 165.48 318.27 165.48 329.316C165.431 334.787 163.257 340.025 159.416 343.921C163.293 345.494 166.598 348.211 168.891 351.71C171.184 355.209 172.356 359.324 172.252 363.506ZM130.902 338.93H136.966C137.912 339.025 138.867 338.921 139.77 338.625C140.674 338.328 141.504 337.845 142.21 337.208C142.915 336.57 143.478 335.792 143.864 334.923C144.25 334.054 144.449 333.114 144.449 332.164C144.449 331.213 144.25 330.273 143.864 329.404C143.478 328.535 142.915 327.757 142.21 327.119C141.504 326.482 140.674 325.999 139.77 325.702C138.867 325.406 137.912 325.302 136.966 325.397H130.901L130.902 338.93ZM149.795 362.439C149.776 361.385 149.548 360.345 149.125 359.379C148.701 358.413 148.091 357.54 147.329 356.812C146.567 356.083 145.668 355.512 144.684 355.133C143.7 354.753 142.651 354.572 141.597 354.6H130.901V369.92H141.242C143.367 370.06 145.462 369.351 147.065 367.948C148.669 366.546 149.651 364.565 149.795 362.439ZM375.179 341.234H413.227V370.701C407.877 380.673 395.761 388.444 377.581 388.444C369.152 388.83 360.81 386.591 353.707 382.037C348.699 385.153 343.051 387.097 337.187 387.724C331.322 388.351 325.391 387.645 319.838 385.658C314.284 383.671 309.252 380.455 305.116 376.25C300.98 372.044 297.848 366.959 295.953 361.373H285.748V369.92H292.748V387.019H253.534V369.92H263.292V325.396H249.252V354.96C249.252 377.038 233.568 389.15 213.247 389.15C195.427 389.15 177.248 378.47 177.248 354.96V325.396H169.762V307.945H209.69V325.396H201.131V356.03C201.053 357.816 201.336 359.599 201.962 361.273C202.589 362.948 203.546 364.479 204.777 365.775C206.008 367.071 207.487 368.106 209.127 368.818C210.766 369.53 212.533 369.905 214.32 369.92C216.08 369.916 217.819 369.542 219.425 368.824C221.031 368.106 222.468 367.058 223.644 365.749C224.82 364.441 225.708 362.9 226.251 361.226C226.794 359.552 226.98 357.783 226.796 356.034V325.399H216.456V307.948H300.582C321.673 307.948 332.311 319.45 332.311 334.083C332.228 338.922 330.848 343.65 328.317 347.774C325.785 351.898 322.194 355.268 317.917 357.532C321.959 369.375 334.246 371.709 340.15 366.009C337.424 360.222 336.082 353.88 336.227 347.485C336.227 326.353 349.371 306.527 376.505 306.527C388.354 305.875 400.014 309.713 409.158 317.276V335.751H389.196L389.111 327.512C385.727 325.534 381.848 324.568 377.932 324.728C366.119 324.728 359.033 333.126 359.033 347.138C359.033 359.958 366.524 369.508 377.932 369.861C383.533 370.175 389.034 368.283 393.257 364.59V357.983H375.168V341.233L375.179 341.234ZM309.072 335.014C309.072 327.484 303.214 325.396 296.102 325.396H285.742V344.633H296.1C303.214 344.633 309.072 342.117 309.072 335.014Z" fill="white"/>
</g>
<path d="M651.454 250.102H634.558L631.43 208.932H643.17C655.064 193.121 659.134 162.596 659.134 126.597V117.514H726.288V208.932H741.136L738.003 250.102H721.107V227.062H651.454V250.102ZM706.238 208.932V135.68H678.687V139.131C678.687 166.364 673.209 193.449 665.068 208.942L706.238 208.932Z" fill="black"/>
<path d="M806.401 179.2H805.929L773.673 227.097H755.984V147.251H775.399V195.159H775.865L808.121 147.251H825.857V227.087H806.401V179.2Z" fill="black"/>
<path d="M887.808 184.668V185.139C898.453 187.643 904.868 194.222 904.868 204.703C904.868 219.105 892.974 228.654 870.59 228.654C861.374 228.654 849.772 226.78 843.039 223.8L849.147 208.307C854.467 210.355 863.232 211.891 870.139 211.891C878.905 211.891 885.166 208.604 885.166 202.967C885.166 197.494 880.313 193.889 869.986 193.889H859.966V178.411H869.827C876.56 178.411 881.726 176.061 881.726 170.112C881.726 165.258 877.809 162.432 870.298 162.432C863.389 162.49 856.528 163.596 849.951 165.714L843.843 150.221C851.2 147.241 864.348 145.679 871.86 145.679C889.708 145.679 901.448 152.571 901.448 166.497C901.433 175.104 897.362 182.006 887.808 184.668Z" fill="black"/>
<path d="M962.161 174.802C962.161 167.122 958.249 162.442 948.7 162.442C941.973 162.442 934.774 164.004 927.411 166.672L921.6 151.04C930.839 147.484 940.659 145.679 950.559 145.715C974.981 145.715 981.555 158.551 981.555 175.145V205.512C981.555 209.429 983.747 211.144 987.187 211.144H988.908V226.304C986.563 227.246 981.709 227.871 977.797 227.871C970.752 227.871 966.216 225.214 963.707 220.191H963.082C957.45 225.823 951.189 227.871 942.09 227.871C926.91 227.871 917.361 220.36 917.361 204.078C917.361 188.718 929.567 180.132 947.257 180.132H962.105L962.161 174.802ZM962.161 204.078V195.001H947.917C940.718 195.001 936.653 198.585 936.653 203.766C936.653 209.086 940.565 211.907 945.265 211.907C948.474 211.87 951.64 211.153 954.552 209.804C957.464 208.454 960.058 206.503 962.161 204.078Z" fill="black"/>
<path d="M1054.99 179.2H1054.52L1022.26 227.097H1004.58V147.251H1024V195.159H1024.47L1056.73 147.251H1074.41V227.087H1055.01L1054.99 179.2ZM1066.1 119.874C1060.15 130.514 1050.92 135.997 1039.48 135.997C1028.04 135.997 1018.81 130.365 1012.85 119.874L1024.75 112.046C1028.04 118.932 1033.05 122.69 1039.47 122.69C1045.89 122.69 1050.9 119.106 1054.18 112.046L1066.1 119.874Z" fill="black"/>
<path d="M1163.46 227.087H1144.05V194.375H1117.29V227.087H1097.87V147.251H1117.29V177.628H1144.05V147.251H1163.46V227.087Z" fill="black"/>
<path d="M1183.81 190.771V173.399H1227.95L1224.82 190.771H1183.81Z" fill="black"/>
<path d="M1273.81 194.375H1266.92V227.087H1247.51V147.251H1266.92V177.628H1273.97L1292.44 147.251H1312.16L1288.84 185.758L1313.73 227.087L1293.85 228.654L1273.81 194.375Z" fill="black"/>
<path d="M1321.55 187.172C1321.55 161.188 1336.91 145.7 1359.12 145.7C1381.33 145.7 1396.69 161.198 1396.69 187.172C1396.69 213.145 1381.33 228.644 1359.12 228.644C1336.91 228.644 1321.55 213.156 1321.55 187.172ZM1341.27 187.172C1341.27 202.67 1348.79 211.906 1359.12 211.906C1369.45 211.906 1376.96 202.69 1376.96 187.172C1376.96 171.653 1369.45 162.442 1359.12 162.442C1348.79 162.442 1341.27 171.679 1341.27 187.172Z" fill="black"/>
<path d="M1414.37 210.34C1422.2 196.408 1424.39 182.948 1424.39 156.022V147.251H1479.17V210.34H1491.85L1488.72 246.973H1472.44V227.087H1423.13V246.973H1406.85L1403.72 210.34H1414.37ZM1443.02 164.004C1443.02 181.698 1441.45 198.308 1435.03 210.34H1459.76V164.004H1443.02Z" fill="black"/>
<path d="M644.721 392.653V283.085H708.275L705.147 301.246H664.76V326.912H700.447V345.088H664.76V374.513H708.28V392.653H644.721Z" fill="black"/>
<path d="M756.485 359.936H749.604V392.653H730.189V312.832H749.604V343.204H756.644L775.117 312.832H794.839L771.512 351.345L796.406 392.668L776.525 394.24L756.485 359.936Z" fill="black"/>
<path d="M848.21 340.368C848.21 332.688 844.299 328.008 834.75 328.008C828.022 328.008 820.818 329.544 813.461 332.232L807.67 316.58C816.903 313.028 826.716 311.224 836.608 311.26C861.031 311.26 867.605 324.091 867.605 340.685V371.052C867.605 374.968 869.796 376.684 873.237 376.684H874.957V391.864C872.612 392.801 867.759 393.431 863.847 393.431C856.802 393.431 852.26 390.774 849.757 385.751H849.132C843.5 391.383 837.233 393.431 828.14 393.431C812.959 393.431 803.405 385.92 803.405 369.633C803.405 354.273 815.616 345.687 833.306 345.687H848.154L848.21 340.368ZM848.21 369.639V360.566H833.967C826.768 360.566 822.703 364.15 822.703 369.331C822.703 374.651 826.619 377.472 831.314 377.472C834.522 377.437 837.687 376.724 840.599 375.378C843.511 374.032 846.105 372.085 848.21 369.664V369.639Z" fill="black"/>
<path d="M881.239 312.832H950.426L947.292 329.58H925.066V392.653H905.815V329.564H881.239V312.832Z" fill="black"/>
<path d="M1019.46 372.306L1026.19 387.487C1017.66 391.847 1008.22 394.159 998.641 394.24C975.161 394.24 959.033 378.88 959.033 352.768C959.033 326.472 973.123 311.296 995.666 311.296C1016.48 311.296 1029.46 324.28 1029.46 346.67C1029.37 350.7 1029.06 354.723 1028.52 358.717H978.734C980.782 370.929 989.225 377.508 999.558 377.508C1006.15 377.472 1013.98 375.122 1019.46 372.306ZM1011.78 343.808C1011.78 334.735 1006.15 328.008 995.968 328.008C987.679 328.008 980.941 333.481 979.072 343.808H1011.78Z" fill="black"/>
<path d="M1066.73 319.708C1072.25 314.303 1079.66 311.271 1087.39 311.26C1109.92 311.26 1120.1 328.627 1120.1 352.732C1120.1 376.837 1109.77 394.204 1085.98 394.204C1079.77 394.232 1073.59 393.282 1067.67 391.388V423.936L1048.25 427.069V312.832H1062.97L1066.1 319.723L1066.73 319.708ZM1100.38 352.737C1100.38 338.181 1094.44 328.007 1082.7 328.007C1077.37 328.007 1072.05 330.977 1067.67 335.831V373.248C1072.41 376.052 1077.82 377.514 1083.32 377.477C1093.81 377.472 1100.38 368.389 1100.38 352.737Z" fill="black"/>
<path d="M1189.29 344.755H1188.82L1156.57 392.653H1138.87V312.832H1158.29V360.735H1158.76L1191.01 312.832H1208.7V392.653H1189.29L1189.29 344.755Z" fill="black"/>
<path d="M1297.76 392.653H1278.36V359.936H1251.59V392.653H1232.17V312.832H1251.59V343.204H1278.36V312.832H1297.76V392.653Z" fill="black"/>
<path d="M1335.17 326.753C1341.59 320.02 1349.26 315.166 1359.59 315.166C1379.16 315.166 1393.38 328.161 1393.38 354.775C1393.38 380.759 1377.1 394.199 1354.87 394.199C1329.04 394.199 1317.31 374.948 1317.31 342.999C1317.31 294 1331.39 283.356 1357.25 281.006C1368.99 279.91 1375.25 278.502 1383.39 275.21L1389.65 290.237C1380.57 294.784 1369.62 297.287 1359.13 298.071C1342.69 299.32 1334.71 306.677 1334.71 326.743L1335.17 326.753ZM1336.73 343.347C1336.89 366.197 1343 377.472 1354.9 377.472C1365.39 377.472 1373.68 370.114 1373.68 354.775C1373.68 339.435 1366.16 331.914 1356.78 331.914C1350.04 331.914 1342.06 335.36 1336.73 343.347Z" fill="black"/>
<path d="M1457.26 312.832H1477.93L1447.25 408.008C1442.24 423.665 1432.06 427.105 1423.46 427.105C1417.83 427.105 1412.34 425.385 1408.9 423.972L1414.22 408.325C1416.41 409.262 1419.85 410.373 1422.52 410.373C1425.02 410.373 1428.62 409.124 1430.34 403.328L1433.47 392.684H1427.99L1401.23 312.832H1422.22L1439.91 368.87H1440.53L1457.26 312.832Z" fill="black"/>
<path d="M1508.14 319.708C1513.66 314.303 1521.07 311.271 1528.8 311.26C1551.33 311.26 1561.51 328.627 1561.51 352.732C1561.51 376.837 1551.19 394.204 1527.39 394.204C1521.18 394.232 1515 393.282 1509.08 391.388V423.936L1489.66 427.069V312.832H1504.38L1507.51 319.723L1508.14 319.708ZM1541.79 352.737C1541.79 338.181 1535.85 328.007 1524.11 328.007C1518.78 328.007 1513.46 330.977 1509.08 335.831V373.248C1513.82 376.052 1519.23 377.514 1524.73 377.477C1535.22 377.472 1541.79 368.389 1541.79 352.737Z" fill="black"/>
<path d="M1631.64 312.832L1628.51 329.58H1599.71V392.653H1580.29V312.832H1631.64Z" fill="black"/>
<path d="M1682.67 340.368C1682.67 332.688 1678.76 328.008 1669.21 328.008C1662.48 328.008 1655.28 329.544 1647.92 332.232L1642.13 316.58C1651.37 313.026 1661.19 311.222 1671.09 311.26C1695.51 311.26 1702.08 324.091 1702.08 340.685V371.052C1702.08 374.969 1704.27 376.684 1707.71 376.684H1709.43V391.865C1707.09 392.801 1702.24 393.431 1698.32 393.431C1691.28 393.431 1686.74 390.774 1684.23 385.751H1683.61C1677.98 391.383 1671.71 393.431 1662.62 393.431C1647.44 393.431 1637.88 385.92 1637.88 369.633C1637.88 354.273 1650.09 345.687 1667.78 345.687H1682.63L1682.67 340.368ZM1682.67 369.639V360.566H1668.42C1661.22 360.566 1657.16 364.15 1657.16 369.331C1657.16 374.651 1661.08 377.472 1665.77 377.472C1668.98 377.438 1672.14 376.724 1675.06 375.378C1677.97 374.032 1680.56 372.085 1682.67 369.664V369.639Z" fill="black"/>
<defs>
<clipPath id="clip0_2839_284">
<rect width="512" height="512" rx="256" fill="white"/>
</clipPath>
</defs>
</svg>
