<svg xmlns="http://www.w3.org/2000/svg" viewBox="0 0 3221.7139 5084.315"><defs><style>.a{fill:#2e2d2c;fill-rule:evenodd;}.b{fill:#1d1d1b;}.c{fill:#fff;}.d{fill:#54647d;}</style></defs><path class="a" d="M160.2966,2402.5125V1969.267c0-72.32,29.9515-102.2749,102.264-102.2749H3119.45c72.3124,0,102.264,29.9548,102.264,102.2749v433.2455c0,72.32-29.9516,102.2749-102.264,102.2749H262.5606C190.2481,2504.7874,160.2966,2474.8326,160.2966,2402.5125Z"/><path class="b" d="M3131.8254,1929.354c19.8657,0,27.5324,7.6675,27.5324,27.5359v458c0,19.8683-7.6667,27.5358-27.5324,27.5358H250.1853c-19.8663,0-27.5329-7.6675-27.5329-27.5358v-458c0-19.8684,7.6666-27.5359,27.5329-27.5359h2881.64m0-25.51H250.1853c-17.1367,0-29.9775,4.5108-39.2558,13.79s-13.7875,22.12-13.7875,39.2563v458c0,17.1366,4.51,29.9775,13.7875,39.2562s22.1191,13.79,39.2558,13.79h2881.64c17.1367,0,29.9775-4.5108,39.2553-13.79s13.7876-22.12,13.7876-39.2562v-458c0-17.1367-4.51-29.9776-13.7876-39.2563s-22.1186-13.79-39.2553-13.79Z"/><rect class="b" x="2552.9001" y="1929.3542" width="25.5118" height="513.0713"/><path class="a" d="M160.2965,1552.1188V1118.8733c0-72.32,29.9516-102.2749,102.2641-102.2749H3119.45c72.3124,0,102.264,29.9548,102.264,102.2749v433.2455c0,72.32-29.9516,102.2749-102.264,102.2749H262.5606C190.2481,1654.3937,160.2965,1624.4389,160.2965,1552.1188Z"/><path class="b" d="M3131.8254,1078.96c19.8657,0,27.5324,7.6676,27.5324,27.5359v458c0,19.8684-7.6667,27.5354-27.5324,27.5354H250.1853c-19.8663,0-27.5329-7.667-27.5329-27.5354v-458c0-19.8683,7.6666-27.5359,27.5329-27.5359h2881.64m0-25.51H250.1853c-17.1367,0-29.9775,4.5108-39.2558,13.79s-13.7875,22.12-13.7875,39.2562v458c0,17.1371,4.51,29.9779,13.7875,39.2562s22.1191,13.79,39.2558,13.79h2881.64c17.1367,0,29.977-4.5109,39.2553-13.79s13.7876-22.12,13.7876-39.2562v-458c0-17.1367-4.51-29.9775-13.7876-39.2562s-22.1186-13.79-39.2553-13.79Z"/><rect class="b" x="2552.9001" y="1078.9605" width="25.5118" height="513.0713"/><path class="c" d="M478.2931,2250.5488c-12.6,7.2-23.2,10.8008-38.9995,10.8008-41.6,0-59.999-31.6-59.999-72,0-40.3984,18.3994-71.998,59.999-71.998,12.8,0,23.2,2,36.5991,9l-10.2,20.6a58.698,58.698,0,0,0-26.3994-6.4c-22.8,0-33.6,21.4-33.6,48.7988,0,27.4,10.8,48.8,33.6,48.8,10.2,0,19.3994-2.8,28.6-8Z"/><path class="c" d="M580.8927,2228.75H536.4933l-9.2,30.6H500.2941l46.7993-139.998h23.3994l46.7994,139.998h-27Zm-37.5991-22.6h30.7993l-15-50.8h-.8Z"/><path class="c" d="M683.8913,2198.55h-10v60.8h-25.6v-139.998h25.6v55.999h10.4l36.2-55.999h28.6l-43.7993,66.1992L753.29,2259.35l-28.7993,2Z"/><path class="c" d="M817.8893,2198.55h-10v60.8h-25.6v-139.998h25.6v55.999h10.4l36.2-55.999h28.6l-43.7993,66.1992,47.999,73.7988-28.7993,2Z"/><path class="c" d="M961.2882,2261.35c-41.6,0-58.999-31.6-58.999-72,0-40.3984,17.3994-71.998,58.999-71.998s58.9991,31.6,58.9991,71.998C1020.2873,2229.75,1002.8874,2261.35,961.2882,2261.35Zm0-120.7988c-22.8,0-32.6,21.4-32.6,48.7988,0,27.4,9.8,48.8,32.6,48.8s32.6-21.3994,32.6-48.8C993.8879,2161.9512,984.0881,2140.5508,961.2882,2140.5508Z"/><path class="c" d="M1206.6862,2166.5508h-.6l-62.3989,92.7988h-21.4v-139.998h25.6v92.998h.6l62.3989-92.998h21.4V2259.35h-25.6Z"/><path class="c" d="M1340.2834,2259.35v-139.998h43.8c24.9995,0,43.7993,9.1992,43.7993,33.6,0,18.3994-11,28.6-23.8,31.999v.8c17.6,4.2,28.7993,15.4,28.7993,34.8,0,28.6-21.3994,38.8-48.7988,38.8Zm42.3994-116.7988h-16.8v33.8h16.8c12.2,0,18.8-6.8,18.8-17S1394.883,2142.5508,1382.6828,2142.5508Zm.2,55.7988h-17v37.8h17c14.8,0,23.6-7.3994,23.6-18.3994C1406.4826,2204.95,1397.6828,2198.35,1382.883,2198.35Z"/><path class="c" d="M1535.4816,2228.75h-44.3994l-9.2,30.6H1454.883l46.7993-139.998h23.3994l46.7993,139.998h-27Zm-37.5991-22.6h30.7993l-15-50.8h-.8Z"/><path class="c" d="M1628.48,2175.3506H1680.88v-55.999h25.6V2259.35h-25.6v-60.8H1628.48v60.8h-25.6v-139.998h25.6Z"/><path class="c" d="M1751.4782,2259.35v-139.998h25.6v116.7978h52.3994V2119.3516h25.6v116.7978h18.9995l-3.9995,52.5986h-21.6V2259.35Z"/><path class="c" d="M1906.0758,2259.35v-139.998h81.1993l-4,23.1992h-51.6v32.8h45.6V2198.55h-45.6v37.6h55.6v23.2Z"/><path class="c" d="M2080.6755,2142.5508V2259.35h-25.8V2142.5508h-40.5992v-23.1992h106.9986l-4,23.1992Z"/><path class="c" d="M2204.6725,2142.5508V2259.35h-25.8V2142.5508h-40.5991v-23.1992h106.9985l-4,23.1992Z"/><path class="c" d="M2360.67,2166.5508h-.6l-62.3989,92.7988h-21.4v-139.998h25.6v92.998h.6l62.3989-92.998h21.4V2259.35h-25.6Z"/><path class="c" d="M735.91,2377.1807c0-5.8662-5.6953-9.0967-12.2412-11.6465-7.65-2.9756-16.4062-7.3106-16.4062-17.1709,0-10.2012,7.2255-16.1514,19.2968-16.1514a33.7161,33.7161,0,0,1,17.001,4.59l-4.335,7.2255a22.74,22.74,0,0,0-12.666-3.6552c-6.4609,0-9.7763,2.6357-9.7763,7.48s5.8662,7.9913,11.0507,10.0313c9.3516,3.6553,17.5967,7.7353,17.5967,18.7861,0,10.541-7.3955,16.7461-20.7412,16.7461a32.4766,32.4766,0,0,1-18.7871-5.27l4.8457-7.4815a22.1457,22.1457,0,0,0,13.9414,4.5909C731.32,2385.2559,735.91,2382.7061,735.91,2377.1807Z"/><path class="c" d="M766.2511,2392.5664l19.8916-59.5049h9.0957l19.8916,59.5049h-9.7763l-4.25-13.8564H780.1925l-4.166,13.8564Zm24.6524-47.3486h-.4258l-7.9053,25.5869h16.1514Z"/><path class="c" d="M844.6222,2362.8145c0,12.581,4.25,22.4414,15.1309,22.4414a25.7355,25.7355,0,0,0,13.0068-3.6553l3.57,7.2256a30.38,30.38,0,0,1-16.5771,4.59c-17.6807,0-24.6514-13.4306-24.6514-30.6015s6.9707-30.6026,24.6514-30.6026a30.7144,30.7144,0,0,1,15.5566,3.8252l-3.57,7.2256a26.0653,26.0653,0,0,0-11.9863-2.8906C848.8722,2340.3721,844.6222,2350.2334,844.6222,2362.8145Z"/><path class="c" d="M907.9484,2362.8145c0,12.581,4.25,22.4414,15.1309,22.4414a25.7355,25.7355,0,0,0,13.0068-3.6553l3.57,7.2256a30.38,30.38,0,0,1-16.5771,4.59c-17.6807,0-24.6514-13.4306-24.6514-30.6015s6.9707-30.6026,24.6514-30.6026a30.7144,30.7144,0,0,1,15.5566,3.8252l-3.57,7.2256a26.0653,26.0653,0,0,0-11.9863-2.8906C912.1984,2340.3721,907.9484,2350.2334,907.9484,2362.8145Z"/><path class="c" d="M986.4045,2393.416c-17.6807,0-24.6514-13.4306-24.6514-30.6015s6.9707-30.6026,24.6514-30.6026,24.6523,13.4307,24.6523,30.6026S1004.0861,2393.416,986.4045,2393.416Zm0-53.0439c-10.8809,0-15.1309,9.8613-15.1309,22.4424s4.25,22.4414,15.1309,22.4414,15.1318-9.86,15.1318-22.4414S997.2853,2340.3721,986.4045,2340.3721Z"/><path class="c" d="M1073.1027,2392.5664v-8.16h9.7754v-43.1835h-9.7754v-8.1612H1102.26l-1.7,8.1612h-8.5009v43.1835h9.7763v8.16Z"/><path class="c" d="M1196.8644,2333.0615h10.0313l-18.5323,59.5049h-10.6259l-18.5313-59.5049h10.0313l13.6006,46.8389h.34Z"/><path class="c" d="M1219.6418,2392.5664l19.8916-59.5049h9.0957l19.8916,59.5049h-9.7764l-4.25-13.8564h-20.9111l-4.166,13.8564Zm24.6523-47.3486h-.4258l-7.9052,25.5869h16.1513Z"/><path class="c" d="M1327.85,2377.3506h.34v-44.2891h9.1807v59.5049h-9.8613l-25.2471-44.2031h-.34v44.2031h-9.1806v-59.5049h9.8613Z"/><path class="c" d="M1392.7873,2341.5625l.0849-.34H1364.14v-8.1612h39.9531v7.4805l-30.4316,43.5234v.3408h30.4316l-1.7,8.16H1362.44v-7.4805Z"/><path class="c" d="M1429.1642,2392.5664v-59.5049h33.6631l-1.7,8.1612h-22.7822v16.4912h20.2314v8.16h-20.2314v18.5322h24.4824v8.16Z"/><path class="c" d="M1512.2111,2341.2227v51.3437H1503.03v-51.3437h-17.6816v-8.1612h44.6289l-1.7,8.1612Z"/><path class="c" d="M1575.1105,2341.2227v51.3437H1565.93v-51.3437h-17.6817v-8.1612h44.6289l-1.7,8.1612Z"/><path class="c" d="M1614.547,2392.5664v-8.16h9.7754v-43.1835h-9.7754v-8.1612h29.1573l-1.7,8.1612h-8.501v43.1835h9.7764v8.16Z"/><path class="c" d="M1734.4836,2377.1807c0-5.8662-5.6954-9.0967-12.2412-11.6465-7.65-2.9756-16.4063-7.3106-16.4063-17.1709,0-10.2012,7.2256-16.1514,19.2969-16.1514a33.7167,33.7167,0,0,1,17.001,4.59l-4.335,7.2255a22.7407,22.7407,0,0,0-12.666-3.6552c-6.461,0-9.7764,2.6357-9.7764,7.48s5.8662,7.9913,11.0508,10.0313c9.3516,3.6553,17.5967,7.7353,17.5967,18.7861,0,10.541-7.3955,16.7461-20.7412,16.7461a32.4767,32.4767,0,0,1-18.7872-5.27l4.8458-7.4815a22.1455,22.1455,0,0,0,13.9414,4.5909C1729.8927,2385.2559,1734.4836,2382.7061,1734.4836,2377.1807Z"/><path class="c" d="M1791.6867,2341.2227v51.3437h-9.1807v-51.3437h-17.6816v-8.1612h44.6289l-1.7,8.1612Z"/><path class="c" d="M1870.3966,2350.7432c0,9.1806-5.1,14.706-12.3251,16.6611l15.5556,25.1621-9.9453.85-15.5566-25.1611h-5.27v24.3115h-9.1807v-59.5049H1851.78C1862.0666,2333.0615,1870.3966,2339.0977,1870.3966,2350.7432Zm-27.5419-9.5205v18.8711h8.5009c5.44,0,9.52-3.4,9.52-9.3506s-4.08-9.5205-9.52-9.5205Z"/><path class="c" d="M1898.6984,2392.5664v-59.5049h33.6631l-1.7,8.1612h-22.7822v16.4912h20.2314v8.16h-20.2314v18.5322h24.4824v8.16Z"/><path class="c" d="M1960.8332,2392.5664v-59.5049h33.6631l-1.7,8.1612h-22.7823v16.4912h20.2315v8.16h-20.2315v18.5322h24.4825v8.16Z"/><path class="c" d="M2043.881,2341.2227v51.3437H2034.7v-51.3437h-17.6817v-8.1612h44.6289l-1.7,8.1612Z"/><path class="c" d="M1221.9035,2008.8271h.3l11.7012-33.2021h16.3007l-20.7011,55.0029c-3.3,8.7-8.6006,16.001-18.2012,16.001a20.2544,20.2544,0,0,1-12.001-3.5l6.7-11.4a6.6075,6.6075,0,0,0,4.001,1.3c1.7,0,3.6-1,5.1-4.9l1.5-3.9h-4.3994l-20.1016-48.6025h16.6006Z"/><path class="c" d="M1290.5031,1989.2256c0,38.1025-6.4,56.9033-21.1016,56.9033a21.1572,21.1572,0,0,1-7.7-1.4l2.9-12.9a4.768,4.768,0,0,0,2.2.5c6.5,0,8.9-14.3008,8.9-53.7031v-3h43.5029v70.0039h-14.8017v-56.4033Z"/><path class="c" d="M1388.9035,2000.626h-.3l-27.4024,45.0029H1347.7V1975.625h14.8017v45.002h.3l27.4014-45.002h13.501v70.0039h-14.8008Z"/><path class="c" d="M1432.1984,2045.6289V1975.625H1447v56.4033h23.7011V1975.625h14.8008v56.4033h9.001l-2.001,28.3018h-12.8008v-14.7012Z"/><path class="c" d="M1549.4,2031.3281h-20.3008l-4.1006,14.3008h-15.501l22.4014-70.0039H1546.6l22.4013,70.0039H1553.5Zm-10-36.4023h-.4l-6.1006,23.1015H1545.6Z"/><path class="c" d="M2779.134,2070.8867l-6,34.8008h-71.7v39a85.2688,85.2688,0,0,1,15-1.8008c38.4,0,70.5009,22.8008,70.5009,70.502,0,46.1992-34.5009,70.5-72.6015,70.5-26.3994,0-45.3-6.9-62.4-17.7l18.6006-30.3c12,7.8,24.6,13.1992,41.7,13.1992,18.9,0,36-11.6992,36-35.6992,0-24.3008-18.6-36.9-39.3-36.9-24.3008,0-45.001,8.6992-45.001,8.6992V2070.8867Z"/><path class="c" d="M2924.3332,2172.2871c20.1,12.9,32.1006,27.6006,32.1006,51.001,0,39.6006-26.1006,60.6006-69.001,60.6006s-69.001-21-69.001-60.6006c0-22.2,11.4-40.2,32.1006-52.2v-1.2c-15.3-8.4-25.5-24.6006-25.5-46.501,0-35.4,22.5-55.5,62.4-55.5s62.4,20.1,62.4,55.5c0,20.4-11.4,37.2012-25.5,47.7012Zm-45.001,13.5c-16.2,9.6006-23.7,21.9-23.7,37.501,0,18.3,14.1006,25.8,31.8008,25.8s31.8-7.5,31.8-25.8c0-15.3-10.8-25.501-26.7-32.1006Zm4.5-33.6,11.1006,4.8c11.4-8.7,17.7-20.1006,17.7-33.6006,0-13.1992-9.9-20.6992-25.2-20.6992s-25.2,7.5-25.2,20.6992C2862.2326,2138.3867,2870.633,2146.4873,2883.8322,2152.1875Z"/><path class="c" d="M3061,2249.5723h-44.4551l-8.9795,31.3164h-33.9443l49.0546-153.2959h32.1924l49.0547,153.2959h-33.9443Zm-21.8995-79.7139h-.8759l-13.3584,50.5879h27.8125Z"/><path class="c" d="M479.1828,1403.01c-13.2305,7.5605-24.3609,11.34-40.9517,11.34-43.6811,0-63.0019-33.1807-63.0019-75.6016s19.3208-75.6035,63.0019-75.6035c13.44,0,24.3609,2.1006,38.4312,9.4512l-10.71,21.6309a61.6344,61.6344,0,0,0-27.7212-6.7207c-23.94,0-35.2807,22.4707-35.2807,51.2421s11.34,51.2413,35.2807,51.2413c10.71,0,20.3706-2.94,30.0313-8.4Z"/><path class="c" d="M568.4328,1414.35c-43.6817,0-61.9522-33.1807-61.9522-75.6016s18.27-75.6035,61.9522-75.6035,61.9516,33.1817,61.9516,75.6035S612.1139,1414.35,568.4328,1414.35Zm0-126.8437c-23.9409,0-34.231,22.4707-34.231,51.2421s10.29,51.2413,34.231,51.2413,34.2309-22.4707,34.2309-51.2413S592.3732,1287.5059,568.4328,1287.5059Z"/><path class="c" d="M698.2111,1324.0469h55.022v-58.8018h26.8808V1412.25H753.2331v-63.8418h-55.022V1412.25H671.33V1265.2451h26.8809Z"/><path class="c" d="M915.9811,1314.8066h-.63L849.8288,1412.25H827.3581V1265.2451h26.8808v97.6533h.63l65.522-97.6533H942.862V1412.25H915.9811Z"/><path class="c" d="M1165.0378,1316.2773h-.63l-25.2007,76.6524H1111.696l-25.4112-76.6524h-.63l-8.82,95.9727h-26.8808l13.65-147.0049h30.0312l31.501,94.5029h.63l31.501-94.5029h30.0307l13.6509,147.0049H1174.068Z"/><path class="c" d="M1297.5446,1414.35c-43.6816,0-61.9522-33.1807-61.9522-75.6016s18.2706-75.6035,61.9522-75.6035,61.9517,33.1817,61.9517,75.6035S1341.2257,1414.35,1297.5446,1414.35Zm0-126.8437c-23.9409,0-34.231,22.4707-34.231,51.2421s10.29,51.2413,34.231,51.2413,34.231-22.4707,34.231-51.2413S1321.4855,1287.5059,1297.5446,1287.5059Z"/><path class="c" d="M1427.3229,1360.5879V1412.25h-26.8808V1265.2451h48.0913c27.9311,0,48.9316,16.1709,48.9316,47.6719s-21,47.6709-48.9316,47.6709Zm0-70.9824v46.622h20.7905c12.8106,0,21.4209-8.61,21.4209-23.3105s-8.61-23.3115-21.4209-23.3115Z"/><path class="c" d="M1587.7619,1414.35c-43.6817,0-61.9522-33.1807-61.9522-75.6016s18.2705-75.6035,61.9522-75.6035,61.9516,33.1817,61.9516,75.6035S1631.443,1414.35,1587.7619,1414.35Zm0-126.8437c-23.9409,0-34.231,22.4707-34.231,51.2421s10.29,51.2413,34.231,51.2413,34.2309-22.4707,34.2309-51.2413S1611.7023,1287.5059,1587.7619,1287.5059Z"/><path class="c" d="M1724.68,1347.5684H1706.41v-22.6817H1724.47c13.86,0,22.6806-7.56,22.6806-18.6894,0-11.5508-9.03-18.6914-22.6806-18.6914a69.0827,69.0827,0,0,0-30.0308,6.7207l-10.92-21.6309c14.49-7.1406,27.5107-9.4512,42.0015-9.4512,26.25,0,49.1411,11.1309,49.1411,36.752,0,19.32-11.55,30.8711-24.9907,34.4414v.6289c18.4809,3.99,30.2412,15.3311,30.2412,35.7012,0,30.0312-24.5708,43.6816-54.812,43.6816a83.9317,83.9317,0,0,1-44.9414-12.6l12.6005-21.4209c9.87,6.09,21.8409,9.66,32.3409,9.66,15.75,0,27.3012-8.19,27.3012-21.21C1752.4015,1354.918,1741.6911,1347.5684,1724.68,1347.5684Z"/><path class="c" d="M1875.4611,1414.35c-43.6816,0-61.9521-33.1807-61.9521-75.6016s18.2705-75.6035,61.9521-75.6035,61.9517,33.1817,61.9517,75.6035S1919.1423,1414.35,1875.4611,1414.35Zm0-126.8437c-23.9409,0-34.231,22.4707-34.231,51.2421s10.29,51.2413,34.231,51.2413,34.231-22.4707,34.231-51.2413S1899.4015,1287.5059,1875.4611,1287.5059Z"/><path class="c" d="M1978.3586,1412.25V1265.2451H2024.35c26.2509,0,45.9917,9.6611,45.9917,35.2813,0,19.3213-11.55,30.0312-24.9908,33.6006v.84c18.4805,4.41,30.2408,16.1719,30.2408,36.542,0,30.03-22.4707,40.7412-51.2417,40.7412Zm44.5214-122.6445h-17.6406v35.4922H2022.88c12.8106,0,19.7408-7.1407,19.7408-17.8516S2035.6906,1289.6055,2022.88,1289.6055Zm.21,58.5918h-17.8506v39.6914H2023.09c15.5405,0,24.7808-7.77,24.7808-19.32C2047.8708,1355.1289,2038.6305,1348.1973,2023.09,1348.1973Z"/><path class="c" d="M2172.19,1414.35c-43.6816,0-61.9521-33.1807-61.9521-75.6016s18.27-75.6035,61.9521-75.6035,61.9517,33.1817,61.9517,75.6035S2215.8708,1414.35,2172.19,1414.35Zm0-126.8437c-23.9409,0-34.2309,22.4707-34.2309,51.2421s10.29,51.2413,34.2309,51.2413,34.231-22.4707,34.231-51.2413S2196.13,1287.5059,2172.19,1287.5059Z"/><path class="c" d="M2363.71,1314.8066h-.63l-65.522,97.4434h-22.4707V1265.2451h26.8808v97.6533h.63l65.5225-97.6533h22.4707V1412.25H2363.71Zm6.93-75.8125c-9.2407,14.2813-21.2109,19.9512-37.8013,19.9512s-28.561-5.67-37.8012-19.9512l16.8-11.9707c5.0405,10.0811,13.23,14.0713,21.0009,14.0713s16.17-4.2,21.0005-14.0713Z"/><path class="c" d="M752.3566,1526.7891c0-5.8662-5.6953-9.0967-12.2412-11.6465-7.65-2.9756-16.4063-7.3106-16.4063-17.1709,0-10.2012,7.2256-16.1514,19.2969-16.1514a33.7161,33.7161,0,0,1,17.001,4.59l-4.335,7.2255a22.74,22.74,0,0,0-12.666-3.6552c-6.4609,0-9.7763,2.6357-9.7763,7.48s5.8662,7.9912,11.0507,10.0313c9.3516,3.6553,17.5967,7.7353,17.5967,18.7861,0,10.541-7.3955,16.7461-20.7412,16.7461a32.4766,32.4766,0,0,1-18.7871-5.27l4.8457-7.4815a22.1457,22.1457,0,0,0,13.9414,4.5909C747.7658,1534.8643,752.3566,1532.3145,752.3566,1526.7891Z"/><path class="c" d="M810.7492,1543.0244c-17.6807,0-24.6514-13.4306-24.6514-30.6015s6.9707-30.6026,24.6514-30.6026,24.6523,13.4307,24.6523,30.6026S828.4308,1543.0244,810.7492,1543.0244Zm0-53.0439c-10.8809,0-15.1309,9.8613-15.1309,22.4424s4.25,22.4414,15.1309,22.4414,15.1318-9.86,15.1318-22.4414S821.63,1489.9805,810.7492,1489.9805Z"/><path class="c" d="M898.131,1526.959h.34V1482.67h9.1806v59.5049H897.79l-25.2471-44.2031h-.34v44.2031h-9.1807V1482.67h9.8614Z"/><path class="c" d="M935.2716,1542.1748v-8.16h9.7754v-43.1835h-9.7754V1482.67h29.1573l-1.7,8.1612h-8.501v43.1835h9.7764v8.16Z"/><path class="c" d="M1060.6486,1534.3545h-8.9258l-12.0713-36.2129h-.34l-4.08,44.0332h-9.1807l5.5254-59.5049h11.3057l13.1758,39.1035h.2549l13.1767-39.1035h11.3057l5.5254,59.5049H1077.14l-4.08-44.0332h-.34Z"/><path class="c" d="M1136.0422,1543.0244c-17.6807,0-24.6514-13.4306-24.6514-30.6015s6.9707-30.6026,24.6514-30.6026,24.6523,13.4307,24.6523,30.6026S1153.7238,1543.0244,1136.0422,1543.0244Zm0-53.0439c-10.8809,0-15.1309,9.8613-15.1309,22.4424s4.25,22.4414,15.1309,22.4414,15.1318-9.86,15.1318-22.4414S1146.923,1489.9805,1136.0422,1489.9805Z"/><path class="c" d="M1225.0373,1500.3516c0,9.1806-5.1,14.706-12.3252,16.6611l15.5556,25.1621-9.9453.85-15.5566-25.1611h-5.27v24.3115h-9.1807V1482.67h18.1065C1216.7072,1482.67,1225.0373,1488.7061,1225.0373,1500.3516Zm-27.542-9.52v18.871h8.501c5.44,0,9.5205-3.4,9.5205-9.3505s-4.08-9.52-9.5205-9.52Z"/><path class="c" d="M1272.8908,1543.0244c-17.6807,0-24.6514-13.4306-24.6514-30.6015s6.9707-30.6026,24.6514-30.6026,24.6523,13.4307,24.6523,30.6026S1290.5724,1543.0244,1272.8908,1543.0244Zm0-53.0439c-10.8809,0-15.1309,9.8613-15.1309,22.4424s4.25,22.4414,15.1309,22.4414,15.1318-9.86,15.1318-22.4414S1283.7716,1489.9805,1272.8908,1489.9805Z"/><path class="c" d="M1350.4113,1491.1709l.085-.34h-28.7325V1482.67h39.9532v7.48l-30.4317,43.5234v.3408h30.4317l-1.7,8.16h-39.9532v-7.48Z"/><path class="c" d="M1408.04,1543.0244c-17.6807,0-24.6514-13.4306-24.6514-30.6015s6.9707-30.6026,24.6514-30.6026,24.6523,13.4307,24.6523,30.6026S1425.7218,1543.0244,1408.04,1543.0244Zm0-53.0439c-10.8809,0-15.1309,9.8613-15.1309,22.4424s4.25,22.4414,15.1309,22.4414,15.1318-9.86,15.1318-22.4414S1418.9211,1489.9805,1408.04,1489.9805Z"/><path class="c" d="M1489.047,1482.67h10.0313l-18.5322,59.5049H1469.92l-18.5313-59.5049H1461.42l13.6006,46.8389h.34Z"/><path class="c" d="M1542.4269,1543.0244c-17.6806,0-24.6513-13.4306-24.6513-30.6015s6.9707-30.6026,24.6513-30.6026,24.6524,13.4307,24.6524,30.6026S1560.1086,1543.0244,1542.4269,1543.0244Zm0-53.0439c-10.8808,0-15.1308,9.8613-15.1308,22.4424s4.25,22.4414,15.1308,22.4414,15.1319-9.86,15.1319-22.4414S1553.3078,1489.9805,1542.4269,1489.9805Z"/><path class="c" d="M1620.798,1482.67h10.711l-19.126,34.6826v24.8223h-9.1807v-24.8223l-19.1269-34.6826h10.7109l12.751,24.8223h.34Z"/><path class="c" d="M1718.0373,1526.7891c0-5.8662-5.6953-9.0967-12.2412-11.6465-7.65-2.9756-16.4063-7.3106-16.4063-17.1709,0-10.2012,7.2256-16.1514,19.2969-16.1514a33.7167,33.7167,0,0,1,17.001,4.59l-4.335,7.2255a22.7407,22.7407,0,0,0-12.666-3.6552c-6.461,0-9.7764,2.6357-9.7764,7.48s5.8662,7.9912,11.0508,10.0313c9.3516,3.6553,17.5967,7.7353,17.5967,18.7861,0,10.541-7.3955,16.7461-20.7412,16.7461a32.4764,32.4764,0,0,1-18.7871-5.27l4.8457-7.4815a22.1455,22.1455,0,0,0,13.9414,4.5909C1713.4465,1534.8643,1718.0373,1532.3145,1718.0373,1526.7891Z"/><path class="c" d="M1775.24,1490.8311v51.3437H1766.06v-51.3437h-17.6816V1482.67h44.6289l-1.7,8.1612Z"/><path class="c" d="M1853.95,1500.3516c0,9.1806-5.1,14.706-12.3252,16.6611l15.5556,25.1621-9.9453.85-15.5566-25.1611h-5.2705v24.3115h-9.1807V1482.67h18.1064C1845.62,1482.67,1853.95,1488.7061,1853.95,1500.3516Zm-27.542-9.52v18.871h8.5009c5.44,0,9.5206-3.4,9.5206-9.3505s-4.08-9.52-9.5206-9.52Z"/><path class="c" d="M1882.2521,1542.1748V1482.67h33.6631l-1.7,8.1612h-22.7822v16.4912h20.2314v8.16h-20.2314v18.5322h24.4824v8.16Z"/><path class="c" d="M1944.3869,1542.1748V1482.67H1978.05l-1.7,8.1612h-22.7823v16.4912h20.2315v8.16h-20.2315v18.5322H1978.05v8.16Z"/><path class="c" d="M2027.4347,1490.8311v51.3437h-9.1806v-51.3437h-17.6817V1482.67h44.6289l-1.7,8.1612Z"/><path class="c" d="M1221.9035,1158.4346h.3l11.7012-33.2022h16.3007l-20.7011,55.003c-3.3,8.7-8.6006,16.0009-18.2012,16.0009a20.2544,20.2544,0,0,1-12.001-3.5l6.7-11.4a6.6075,6.6075,0,0,0,4.001,1.3c1.7,0,3.6-1,5.1-4.9l1.5-3.9h-4.3994l-20.1016-48.6026h16.6006Z"/><path class="c" d="M1290.5031,1138.833c0,38.1025-6.4,56.9033-21.1016,56.9033a21.1572,21.1572,0,0,1-7.7-1.4l2.9-12.9a4.7668,4.7668,0,0,0,2.2.5c6.5,0,8.9-14.3007,8.9-53.7031v-3h43.5029v70.0039h-14.8017V1138.833Z"/><path class="c" d="M1388.9035,1150.2334h-.3l-27.4024,45.0029H1347.7v-70.0039h14.8017v45.002h.3l27.4014-45.002h13.501v70.0039h-14.8008Z"/><path class="c" d="M1432.1984,1195.2363v-70.0039H1447v56.4033h23.7011v-56.4033h14.8008v56.4033h9.001l-2.001,28.3018h-12.8008v-14.7012Z"/><path class="c" d="M1549.4,1180.9355h-20.3008l-4.1006,14.3008h-15.501l22.4014-70.0039H1546.6l22.4013,70.0039H1553.5Zm-10-36.4023h-.4l-6.1006,23.1016H1545.6Z"/><path class="c" d="M2671.8874,1282.8789c-12.5,0-24.25,4.25-35.25,11l-14.75-25.25c20-10.75,34.25-14.75,54.75-14.75,30.75,0,49.75,17.5,49.75,48,0,38.5-33.25,75.25-63.75,99.5v1h68.75l-5,29h-107.5v-26.5c34.25-25.75,75.25-66.25,75.25-99.75C2694.1374,1291.3789,2686.3874,1282.8789,2671.8874,1282.8789Z"/><path class="c" d="M2815.1364,1433.8789c-38.5,0-62.5-30.75-62.5-90s24-90,62.5-90,62.5,30.75,62.5,90S2853.6364,1433.8789,2815.1364,1433.8789Zm0-29c17.25,0,30.25-18,30.25-61s-13-61-30.25-61-30.25,18-30.25,61S2797.8864,1404.8789,2815.1364,1404.8789Z"/><path class="c" d="M3008.8864,1377.3789c0,38.5-28.75,56.5-60.5,56.5-22,0-37.75-5.75-52-14.75l15.5-25.25c10,6.5,20.5,11,34.75,11,16.5,0,30-8.5,30-27.25,0-19.75-14-27.5-31-27.5h-14.25v-18.25l35-45.5v-1h-64.25l5-29h94v26.5l-33.75,43.75v.75C2989.1364,1331.3789,3008.8864,1345.6289,3008.8864,1377.3789Z"/><path class="c" d="M3099.776,1405.2822h-37.0468l-7.4825,26.0967h-28.2861l40.8789-127.7461h26.8262l40.8789,127.7461h-28.2861Zm-18.25-66.4287h-.7295l-11.1328,42.1563h23.1778Z"/><path class="d" d="M18.1978,571.3662c0,4.68,1.8,9.0889,4.5,13.7686l-6.03,3.33c-3.69-7.0195-5.31-11.43-5.31-18.8086,0-11.07,6.3-17.01,17.2792-17.01,15.1194,0,30.7789,14.85,39.4185,25.6494h.36V550.8467l6.84,1.8v36.8984h-5.94c-9.9-12.6894-26.009-28.8887-39.9585-28.8887C22.2476,560.6562,18.1978,563.7168,18.1978,571.3662Z"/><path class="d" d="M18.1978,522.7666c0,4.68,1.8,9.0889,4.5,13.7686l-6.03,3.33c-3.69-7.0195-5.31-11.43-5.31-18.8086,0-11.07,6.3-17.01,17.2792-17.01,15.1194,0,30.7789,14.85,39.4185,25.6494h.36V502.2471l6.84,1.8v36.8984h-5.94c-9.9-12.6894-26.009-28.8887-39.9585-28.8887C22.2476,512.0566,18.1978,515.1172,18.1978,522.7666Z"/><path class="d" d="M55.1863,453.6465c13.8594,0,20.969,8.82,20.969,20.6094a30.5693,30.5693,0,0,1-5.31,18.09l-6.03-3.6c2.7-4.0508,4.5-7.92,4.5-13.8594,0-7.5605-4.68-13.2305-14.1294-13.2305s-14.1294,6.12-14.1294,14.22a43.3363,43.3363,0,0,0,2.34,12.87H12.2581v-32.76l6.84,1.8008v23.3086H35.2972a33.6645,33.6645,0,0,1-.72-7.1992C34.5769,462.1074,41.6868,453.6465,55.1863,453.6465Z"/><path class="d" d="M29.3572,385.7871v-9.6289l45.8982-4.41v7.4708l-36.9885,2.9687v.36l29.5188,10.62v8.3691l-29.5188,10.709v.3613l36.9885,2.9688v7.4707l-45.8982-4.41v-9.63L61.126,397.4873v-.2705Z"/><path class="d" d="M29.3572,326.3887v-9.63L75.2554,312.35v7.4688l-36.9885,2.9707v.3593l29.5188,10.6192v8.37l-29.5188,10.71v.3593l36.9885,2.9707v7.4688l-45.8982-4.4092v-9.63L61.126,338.0879v-.2695Z"/><path class="d" d="M1510.3271,24.0889V80.2461h15.0293v6.84h-39.5982v-6.84h16.9195V30.9287h-15.5694l1.8-6.84Z"/><path class="d" d="M1553.2568,87.9863c-13.8594,0-21.5987-11.07-21.5987-32.3984,0-21.33,7.7393-32.3994,21.5987-32.3994s21.6,11.0693,21.6,32.3994C1574.8564,76.916,1567.1166,87.9863,1553.2568,87.9863Zm0-6.84c8.28,0,13.59-7.56,13.59-25.5586s-5.31-25.56-13.59-25.56-13.5894,7.56-13.5894,25.56S1544.9775,81.1465,1553.2568,81.1465Z"/><path class="d" d="M1582.058,70.3467a18.6187,18.6187,0,0,1,10.4395-16.3789v-.27a16.0585,16.0585,0,0,1-8.4595-14.3994c0-9.81,6.66-16.1094,17.8193-16.1094s17.8189,6.3,17.8189,16.1094c0,6.93-3.87,11.52-8.46,14.85v.27c6.12,3.1494,10.4395,8.8193,10.4395,15.9287,0,11.34-7.47,17.64-19.7989,17.64S1582.058,81.6865,1582.058,70.3467Zm22.0489-11.52-5.31-2.25c-5.76,3.42-9.18,8.28-9.18,13.77,0,7.83,4.86,10.8,12.24,10.8s12.2393-3.42,12.2393-10.8C1614.0966,64.9473,1609.3266,60.9873,1604.1069,58.8271Zm.63-6.93c4.41-3.06,7.3794-7.7393,7.3794-12.6,0-6.0293-4.41-9.27-10.2593-9.27s-10.26,3.24-10.26,9.27c0,5.4,3.69,8.7294,8.1,10.53Z"/><path class="d" d="M1650.4569,87.9863c-13.86,0-21.6-11.07-21.6-32.3984,0-21.33,7.74-32.3994,21.6-32.3994s21.5987,11.0693,21.5987,32.3994C1672.0556,76.916,1664.3163,87.9863,1650.4569,87.9863Zm0-6.84c8.2793,0,13.5894-7.56,13.5894-25.5586s-5.31-25.56-13.5894-25.56-13.59,7.56-13.59,25.56S1642.1772,81.1465,1650.4569,81.1465Z"/><path class="d" d="M1737.6654,41.1875h9.6294l4.41,45.8984h-7.47l-2.97-36.9882h-.36l-10.62,29.5185h-8.37l-10.7094-29.5185h-.36l-2.97,36.9882h-7.47l4.41-45.8984h9.63l11.5195,31.7695h.27Z"/><path class="d" d="M1797.0649,41.1875h9.6294l4.41,45.8984h-7.47l-2.97-36.9882h-.36l-10.62,29.5185h-8.37l-10.7094-29.5185h-.36l-2.97,36.9882h-7.47l4.41-45.8984h9.63l11.52,31.7695h.27Z"/><path class="a" d="M160.2966,4959.6149V4526.3694c0-72.32,29.9515-102.2749,102.264-102.2749H3119.45c72.3124,0,102.264,29.9548,102.264,102.2749v433.2455c0,72.32-29.9516,102.2749-102.264,102.2749H262.5606C190.2481,5061.89,160.2966,5031.935,160.2966,4959.6149Z"/><path class="b" d="M3131.8251,4486.4567c19.8657,0,27.533,7.6674,27.533,27.5356v458c0,19.8682-7.6673,27.5357-27.533,27.5357H250.1852c-19.8662,0-27.5327-7.6675-27.5327-27.5357v-458c0-19.8682,7.6665-27.5356,27.5327-27.5356h2881.64m0-25.5108H250.1852c-17.1367,0-29.9775,4.5108-39.2553,13.79s-13.7876,22.12-13.7876,39.2563v458c0,17.1367,4.51,29.9775,13.7876,39.2564s22.1186,13.79,39.2553,13.79h2881.64c17.1367,0,29.9771-4.5107,39.2554-13.79s13.7878-22.12,13.7878-39.2564v-458c0-17.1367-4.51-29.9775-13.7878-39.2563s-22.1187-13.79-39.2554-13.79Z"/><rect class="b" x="2552.9001" y="4486.4566" width="25.5118" height="513.0713"/><path class="a" d="M160.2966,693.4732V260.2276c0-72.32,29.9515-102.2748,102.264-102.2748H3119.45c72.3124,0,102.264,29.9547,102.264,102.2748V693.4732c0,72.32-29.9516,102.2748-102.264,102.2748H262.5606C190.2481,795.748,160.2966,765.7933,160.2966,693.4732Z"/><path class="b" d="M3131.8251,220.3146c19.8657,0,27.533,7.6676,27.533,27.5359v458c0,19.8683-7.6673,27.5359-27.533,27.5359H250.1852c-19.8662,0-27.5327-7.6676-27.5327-27.5359v-458c0-19.8683,7.6665-27.5359,27.5327-27.5359h2881.64m0-25.51H250.1852c-17.1367,0-29.9775,4.5109-39.2553,13.79s-13.7876,22.1195-13.7876,39.2563v458c0,17.1367,4.51,29.9775,13.7876,39.2562s22.1186,13.79,39.2553,13.79h2881.64c17.1367,0,29.9771-4.5108,39.2554-13.79s13.7878-22.12,13.7878-39.2562v-458c0-17.1368-4.51-29.9776-13.7878-39.2563s-22.1187-13.79-39.2554-13.79Z"/><rect class="b" x="2552.9001" y="220.3149" width="25.5118" height="513.0713"/><path class="c" d="M343.9384,4789.3574v14.5078H324.2856v-14.664a52.3259,52.3259,0,0,1-11.542,1.248c-25.8921,0-37.9024-19.501-37.9024-44.93,0-25.7412,12.01-45.2422,37.9024-45.2422a51.3338,51.3338,0,0,1,11.542,1.2481v-14.6641h19.6528v14.6641a50.3172,50.3172,0,0,1,11.5425-1.2481c25.8916,0,37.9018,19.501,37.9018,45.2422,0,25.4287-12.01,44.93-37.9018,44.93A61.7471,61.7471,0,0,1,343.9384,4789.3574Zm-19.6528-17.4726v-53.042a40.4948,40.4948,0,0,0-9.2027-.78c-13.4135,0-19.8086,12.0127-19.8086,27.3008s6.3951,27.3008,19.8086,27.3008A40.4994,40.4994,0,0,0,324.2856,4771.8848Zm19.6528-53.042v53.042a38.88,38.88,0,0,0,9.2026.7793c13.4141,0,19.8086-12.0118,19.8086-27.3008s-6.3945-27.3008-19.8086-27.3008A38.8735,38.8735,0,0,0,343.9384,4718.8428Z"/><path class="c" d="M419.123,4800.7461V4691.541h63.3261l-3.12,18.0977H439.0878v25.584H474.65V4753.32H439.0878v29.3281h43.3613v18.0977Z"/><path class="c" d="M512.8686,4800.7461V4691.541h34.1587c19.497,0,34.1587,7.1768,34.1587,26.209,0,14.3535-8.5787,22.31-18.5611,24.9609v.625c13.7256,3.2754,22.4605,12.0118,22.4605,27.1446,0,22.3086-16.69,30.2656-38.0581,30.2656Zm33.0669-91.1074H532.8334v26.3642h13.1021c9.5146,0,14.6616-5.3037,14.6616-13.2607S555.45,4709.6387,545.9355,4709.6387Zm.1557,43.5254H532.8334v29.4843h13.2578c11.5425,0,18.4053-5.7714,18.4053-14.3515C564.4965,4758.3125,557.6337,4753.1641,546.0912,4753.1641Z"/><path class="c" d="M633.91,4762.3682v38.3779H613.9447V4691.541H649.663c20.7451,0,36.3423,12.0127,36.3423,35.4141s-15.5972,35.4131-36.3423,35.4131Zm0-52.7295v34.6328H649.351c9.5146,0,15.91-6.3965,15.91-17.3164s-6.3951-17.3164-15.91-17.3164Z"/><path class="c" d="M756.6674,4776.877H722.0409l-7.1748,23.8691H693.81l36.498-109.2051h18.2491l36.4985,109.2051H763.998Zm-29.3232-17.629h24.02l-11.6983-39.625h-.624Z"/><path class="c" d="M817.6571,4691.541h64.106v109.2051H861.7983v-91.1074H836.8422c0,56.4736-7.4868,91.8867-31.9751,91.8867a28.4905,28.4905,0,0,1-11.23-2.1836l3.7432-17.1611a14.9751,14.9751,0,0,0,4.9912.9365c10.4507,0,15.2856-21.5293,15.2856-87.3633Z"/><path class="c" d="M935.266,4691.541v42.4336h16.2217c22.6162,0,37.7461,11.0772,37.7461,33.3858s-14.9736,33.3857-37.7461,33.3857H915.3012V4691.541Zm0,60.5313v30.5761h15.2857c12.6343,0,18.0932-6.5517,18.0932-15.288,0-9.2042-5.3032-15.2881-18.249-15.2881Z"/><path class="c" d="M1085.9428,4793.8809c-9.8267,5.6171-18.0933,8.4248-30.4155,8.4248-32.4429,0-46.7925-24.6495-46.7925-56.1621s14.35-56.1622,46.7925-56.1622a56.3448,56.3448,0,0,1,28.5434,7.0206l-7.9546,16.0683a45.77,45.77,0,0,0-20.5888-4.9922c-17.7813,0-26.2037,16.6924-26.2037,38.0655s8.4224,38.0654,26.2037,38.0654a44.2014,44.2014,0,0,0,22.3046-6.24Z"/><path class="c" d="M1140.2265,4753.32h-7.7988v47.4258h-19.9649V4691.541h19.9649v43.6817h8.1108l28.2314-43.6817h22.3047l-34.1587,51.6387,37.4341,57.5664-22.46,1.56Z"/><path class="c" d="M1250.5048,4802.3057c-32.4429,0-46.0127-24.6495-46.0127-56.1621s13.57-56.1622,46.0127-56.1622,46.0127,24.65,46.0127,56.1622S1282.9477,4802.3057,1250.5048,4802.3057Zm0-94.2276c-17.7812,0-25.4238,16.6924-25.4238,38.0655s7.6426,38.0654,25.4238,38.0654,25.4238-16.6924,25.4238-38.0654S1268.2861,4708.0781,1250.5048,4708.0781Z"/><path class="c" d="M1391.2,4728.3594h-.4682l-48.6641,72.3867h-16.6895V4691.541h19.9649v72.543h.4678l48.6645-72.543h16.6895v109.2051H1391.2Zm5.147-56.3184c-6.8628,10.6084-15.7534,14.82-28.0752,14.82s-21.2129-4.2119-28.0757-14.82l12.478-8.8926c3.7432,7.4883,9.8262,10.4522,15.5977,10.4522s12.01-3.12,15.5972-10.4522Z"/><path class="c" d="M1512.2416,4762.3682v38.3779h-19.9648V4691.541h35.7182c20.7452,0,36.3423,12.0127,36.3423,35.4141s-15.5971,35.4131-36.3423,35.4131Zm0-52.7295v34.6328h15.4414c9.5147,0,15.91-6.3965,15.91-17.3164s-6.395-17.3164-15.91-17.3164Z"/><path class="c" d="M1590.8564,4800.7461V4691.541h63.3261l-3.12,18.0977h-40.2417v25.584h35.5625V4753.32h-35.5625v29.3281h43.3613v18.0977Z"/><path class="c" d="M1684.602,4800.7461V4691.541h34.1587c19.497,0,34.1587,7.1768,34.1587,26.209,0,14.3535-8.5787,22.31-18.5611,24.9609v.625c13.7256,3.2754,22.46,12.0118,22.46,27.1446,0,22.3086-16.6895,30.2656-38.0581,30.2656Zm33.0669-91.1074h-13.1021v26.3642h13.1021c9.5146,0,14.6616-5.3037,14.6616-13.2607S1727.1835,4709.6387,1717.6689,4709.6387Zm.1557,43.5254h-13.2578v29.4843h13.2578c11.5425,0,18.4053-5.7714,18.4053-14.3515C1736.23,4758.3125,1729.3671,4753.1641,1717.8246,4753.1641Z"/><path class="c" d="M1827.0121,4802.3057c-32.4428,0-46.0127-24.6495-46.0127-56.1621s13.57-56.1622,46.0127-56.1622,46.0127,24.65,46.0127,56.1622S1859.455,4802.3057,1827.0121,4802.3057Zm0-94.2276c-17.7812,0-25.4238,16.6924-25.4238,38.0655s7.6426,38.0654,25.4238,38.0654,25.4239-16.6924,25.4239-38.0654S1844.7934,4708.0781,1827.0121,4708.0781Z"/><path class="c" d="M1907.1884,4691.541h64.106v109.2051H1951.33v-91.1074h-24.956c0,56.4736-7.4869,91.8867-31.9751,91.8867a28.49,28.49,0,0,1-11.23-2.1836l3.7431-17.1611a14.9752,14.9752,0,0,0,4.9913.9365c10.4506,0,15.2856-21.5293,15.2856-87.3633Z"/><path class="c" d="M2040.2387,4753.6318h-15.4414v47.1143h-19.9649V4691.541h19.9649v43.9942h15.7534c2.9639-26.5215,18.0933-45.5538,45.5449-45.5538,30.8833,0,45.857,24.337,45.857,56.1622s-14.9737,56.1621-45.857,56.1621C2057.5522,4802.3057,2042.2665,4781.7129,2040.2387,4753.6318Zm45.8569,30.5772c16.2217,0,25.2681-17.4727,25.2681-38.0654s-9.0464-38.0655-25.2681-38.0655-25.4238,17.4727-25.4238,38.0655S2069.8744,4784.209,2086.0956,4784.209Z"/><path class="c" d="M2160.8129,4800.7461V4691.541h19.9649v91.1074h40.8654V4691.541h19.9649v91.1074h14.8174l-3.1192,41.03h-16.8457v-22.9326Z"/><path class="c" d="M2345.6481,4728.3594h-.4678l-48.665,72.3867h-16.6895V4691.541h19.9649v72.543h.4687l48.6641-72.543h16.6895v109.2051h-19.9649Z"/><path class="c" d="M2464.9723,4728.3594h-.4677l-48.6641,72.3867H2399.151V4691.541h19.9649v72.543h.4678l48.664-72.543h16.6895v109.2051h-19.9649Z"/><path class="c" d="M520.0519,4924.7637v24.9072h-9.1806V4890.166h34.0878l-1.7,8.1611H520.0519v18.2764H543.259v8.16Z"/><path class="c" d="M570.88,4949.6709V4890.166h33.6631l-1.7,8.1611H580.0607v16.4913h20.2315v8.16H580.0607v18.5322h24.4824v8.16Z"/><path class="c" d="M663.4484,4890.166H673.48l-18.5323,59.5049H644.3215L625.79,4890.166h10.0313l13.6005,46.8389h.34Z"/><path class="c" d="M733.1476,4907.8477c0,9.1806-5.1,14.706-12.3252,16.6611l15.5557,25.1621-9.9453.85-15.5567-25.1611h-5.27v24.3115H696.425V4890.166h18.1064C724.8175,4890.166,733.1476,4896.2021,733.1476,4907.8477Zm-27.542-9.5206v18.8711h8.501c5.44,0,9.5205-3.4,9.5205-9.35s-4.08-9.5206-9.5205-9.5206Z"/><path class="c" d="M755.5,4949.6709l19.8916-59.5049h9.0957l19.8916,59.5049h-9.7754l-4.251-13.8564H769.4416l-4.166,13.8564Zm24.6523-47.3486h-.4258l-7.9052,25.5869h16.1513Z"/><path class="c" d="M828.5988,4949.6709V4890.166H837.78v51.3447h26.9472l-1.7,8.16Z"/><path class="c" d="M915.5558,4934.2852c0-5.8663-5.6953-9.0967-12.2412-11.6465-7.65-2.9756-16.4062-7.3106-16.4062-17.1709,0-10.2012,7.2256-16.1514,19.2968-16.1514a33.7171,33.7171,0,0,1,17.001,4.59l-4.3349,7.2256a22.7411,22.7411,0,0,0-12.6661-3.6552c-6.4609,0-9.7763,2.6357-9.7763,7.48s5.8662,7.9912,11.0508,10.0313c9.3515,3.6553,17.5966,7.7353,17.5966,18.7861,0,10.541-7.3955,16.7461-20.7412,16.7461a32.4766,32.4766,0,0,1-18.7871-5.2695l4.8457-7.4815a22.1459,22.1459,0,0,0,13.9414,4.5909C910.965,4942.36,915.5558,4939.8105,915.5558,4934.2852Z"/><path class="c" d="M973.5236,4918.3037l22.1016,31.3672-10.54.85-19.6367-27.7119h-4.4209v26.8623h-9.1807V4890.166h9.1807v24.8223h4.6758l17.6816-24.8223H993.84Z"/><path class="c" d="M1037.6984,4950.5205c-17.6807,0-24.6514-13.4307-24.6514-30.6016s6.9707-30.6025,24.6514-30.6025,24.6523,13.4307,24.6523,30.6025S1055.38,4950.5205,1037.6984,4950.5205Zm0-53.0439c-10.8809,0-15.1309,9.8613-15.1309,22.4423s4.25,22.4415,15.1309,22.4415,15.1318-9.86,15.1318-22.4415S1048.5793,4897.4766,1037.6984,4897.4766Z"/><path class="c" d="M1116.07,4890.166H1126.78l-19.1259,34.6826v24.8223h-9.1807v-24.8223l-19.127-34.6826h10.711l12.751,24.8223h.34Z"/><path class="c" d="M1223.424,4907.8477c0,9.1806-5.1,14.706-12.3252,16.6611l15.5557,25.1621-9.9454.85-15.5566-25.1611h-5.27v24.3115h-9.1807V4890.166h18.1065C1215.0939,4890.166,1223.424,4896.2021,1223.424,4907.8477Zm-27.542-9.5206v18.8711h8.501c5.44,0,9.52-3.4,9.52-9.35s-4.08-9.5206-9.52-9.5206Z"/><path class="c" d="M1251.7257,4949.6709V4890.166h33.6631l-1.7,8.1611h-22.7822v16.4913h20.2315v8.16h-20.2315v18.5322h24.4824v8.16Z"/><path class="c" d="M1344.2931,4890.166h10.0313l-18.5322,59.5049h-10.626l-18.5313-59.5049h10.0313l13.6006,46.8389h.34Z"/><path class="c" d="M1397.673,4950.5205c-17.6806,0-24.6514-13.4307-24.6514-30.6016s6.9708-30.6025,24.6514-30.6025,24.6524,13.4307,24.6524,30.6025S1415.3547,4950.5205,1397.673,4950.5205Zm0-53.0439c-10.8808,0-15.1308,9.8613-15.1308,22.4423s4.25,22.4415,15.1308,22.4415,15.1319-9.86,15.1319-22.4415S1408.5539,4897.4766,1397.673,4897.4766Z"/><path class="c" d="M1449.9465,4949.6709V4890.166h9.1806v51.3447h26.9473l-1.7,8.16Z"/><path class="c" d="M1530.4435,4890.166h10.711l-19.126,34.6826v24.8223h-9.1807v-24.8223l-19.1269-34.6826h10.7109l12.751,24.8223h.34Z"/><path class="c" d="M1606.1789,4931.3945c0,11.3057-8.5,19.126-21.251,19.126s-21.252-7.82-21.252-19.126V4890.166h9.1807V4930.97c0,6.7149,4.5908,11.3907,12.0713,11.3907s12.07-4.6758,12.07-11.3907V4890.166h9.1807Z"/><path class="c" d="M1656.8381,4898.3271v51.3438h-9.1807v-51.3438h-17.6817v-8.1611h44.629l-1.7,8.1611Z"/><path class="c" d="M1725.4318,4934.2852c0-5.8663-5.6953-9.0967-12.2412-11.6465-7.65-2.9756-16.4063-7.3106-16.4063-17.1709,0-10.2012,7.2256-16.1514,19.2969-16.1514a33.7171,33.7171,0,0,1,17.001,4.59l-4.335,7.2256a22.7407,22.7407,0,0,0-12.666-3.6552c-6.4609,0-9.7763,2.6357-9.7763,7.48s5.8662,7.9912,11.0507,10.0313c9.3516,3.6553,17.5967,7.7353,17.5967,18.7861,0,10.541-7.3955,16.7461-20.7412,16.7461a32.4766,32.4766,0,0,1-18.7871-5.2695l4.8457-7.4815a22.1457,22.1457,0,0,0,13.9414,4.5909C1720.841,4942.36,1725.4318,4939.8105,1725.4318,4934.2852Z"/><path class="c" d="M1759.174,4949.6709v-8.16h9.7754v-43.1836h-9.7754v-8.1611h29.1572l-1.7,8.1611h-8.501v43.1836h9.7764v8.16Z"/><path class="c" d="M1812.9787,4949.6709v-8.16h9.7754v-43.1836h-9.7754v-8.1611h29.1572l-1.7,8.1611h-8.501v43.1836h9.7764v8.16Z"/><path class="c" d="M1932.9142,4934.2852c0-5.8663-5.6953-9.0967-12.2412-11.6465-7.65-2.9756-16.4062-7.3106-16.4062-17.1709,0-10.2012,7.2256-16.1514,19.2968-16.1514a33.7171,33.7171,0,0,1,17.001,4.59l-4.3349,7.2256a22.7411,22.7411,0,0,0-12.6661-3.6552c-6.4609,0-9.7763,2.6357-9.7763,7.48s5.8662,7.9912,11.0508,10.0313c9.3515,3.6553,17.5966,7.7353,17.5966,18.7861,0,10.541-7.3955,16.7461-20.7412,16.7461a32.4766,32.4766,0,0,1-18.7871-5.2695l4.8457-7.4815a22.1457,22.1457,0,0,0,13.9414,4.5909C1928.3234,4942.36,1932.9142,4939.8105,1932.9142,4934.2852Z"/><path class="c" d="M1990.1183,4898.3271v51.3438h-9.1806v-51.3438H1963.256v-8.1611h44.6289l-1.7,8.1611Z"/><path class="c" d="M2068.8273,4907.8477c0,9.1806-5.1,14.706-12.3252,16.6611l15.5557,25.1621-9.9453.85-15.5567-25.1611h-5.2705v24.3115h-9.1806V4890.166h18.1064C2060.4972,4890.166,2068.8273,4896.2021,2068.8273,4907.8477Zm-27.542-9.5206v18.8711h8.501c5.44,0,9.52-3.4,9.52-9.35s-4.08-9.5206-9.52-9.5206Z"/><path class="c" d="M2097.1291,4949.6709V4890.166h33.6631l-1.7,8.1611H2106.31v16.4913h20.2315v8.16H2106.31v18.5322h24.4825v8.16Z"/><path class="c" d="M2159.2648,4949.6709V4890.166h33.6631l-1.7,8.1611h-22.7822v16.4913h20.2314v8.16h-20.2314v18.5322h24.4824v8.16Z"/><path class="c" d="M2242.3117,4898.3271v51.3438h-9.1807v-51.3438h-17.6816v-8.1611h44.6289l-1.7,8.1611Z"/><path class="c" d="M1221.904,4565.93h.3l11.7011-33.2022h16.3008l-20.7011,55.003c-3.3,8.7-8.6006,16.0009-18.2012,16.0009a20.2537,20.2537,0,0,1-12.001-3.5l6.7-11.4a6.6075,6.6075,0,0,0,4.001,1.3c1.7,0,3.6-1,5.1-4.9l1.5-3.9h-4.3994l-20.1016-48.6026h16.6006Z"/><path class="c" d="M1290.5036,4546.3281c0,38.1026-6.4,56.9033-21.1016,56.9033a21.16,21.16,0,0,1-7.7-1.4l2.9-12.9a4.768,4.768,0,0,0,2.2.5c6.5,0,8.9-14.3008,8.9-53.7032v-3h43.5029v70.0039H1304.404v-56.4033Z"/><path class="c" d="M1388.904,4557.7285h-.3l-27.4024,45.0029h-13.501v-70.0039h14.8018v45.002h.3l27.4014-45.002h13.501v70.0039H1388.904Z"/><path class="c" d="M1432.1989,4602.7314v-70.0039h14.8018v56.4034h23.7011v-56.4034h14.8008v56.4034h9.001l-2.001,28.3017h-12.8008v-14.7012Z"/><path class="c" d="M1549.4,4588.4307h-20.3008l-4.1006,14.3007h-15.501l22.4014-70.0039H1546.6l22.4013,70.0039h-15.5009Zm-10-36.4024h-.4l-6.1006,23.1016H1545.6Z"/><path class="c" d="M479.8083,489.7627h-10.5v63.8418H442.4269V406.6h26.8809v58.8027h10.92L518.2394,406.6H548.27L502.279,476.1123,552.68,553.6045,522.44,555.7051Z"/><path class="c" d="M630.3781,555.7051c-43.6816,0-61.9522-33.1817-61.9522-75.6026S586.6965,404.5,630.3781,404.5,692.33,437.6807,692.33,480.1025,674.0592,555.7051,630.3781,555.7051Zm0-126.8447c-23.9409,0-34.231,22.4707-34.231,51.2421s10.29,51.2413,34.231,51.2413,34.2309-22.4708,34.2309-51.2413S654.319,428.86,630.3781,428.86Z"/><path class="c" d="M842.0592,457.6318h-.63l-25.2007,76.6524H788.7174l-25.4111-76.6524h-.63l-8.82,95.9727H726.9753L740.6257,406.6h30.0312l31.501,94.5039h.63L834.2887,406.6H864.32L877.97,553.6045H851.09Z"/><path class="c" d="M1016.568,544.3643c-13.23,7.5605-24.3608,11.3408-40.9516,11.3408-43.6812,0-63.002-33.1817-63.002-75.6026S931.9352,404.5,975.6164,404.5c13.44,0,24.3608,2.1,38.4311,9.45l-10.71,21.6309a61.635,61.635,0,0,0-27.7212-6.7207c-23.9405,0-35.2808,22.4707-35.2808,51.2421s11.34,51.2413,35.2808,51.2413c10.71,0,20.3706-2.9395,30.0312-8.4Z"/><path class="c" d="M1105.818,555.7051c-43.6816,0-61.9521-33.1817-61.9521-75.6026S1062.1364,404.5,1105.818,404.5s61.9517,33.1807,61.9517,75.6025S1149.4992,555.7051,1105.818,555.7051Zm0-126.8447c-23.9409,0-34.2309,22.4707-34.2309,51.2421s10.29,51.2413,34.2309,51.2413,34.231-22.4708,34.231-51.2413S1129.7585,428.86,1105.818,428.86Z"/><path class="c" d="M1317.4992,457.6318h-.63l-25.2007,76.6524h-27.5107l-25.4111-76.6524h-.63l-8.82,95.9727h-26.8809l13.65-147.0049h30.0312l31.501,94.5039h.63l31.501-94.5039h30.0307L1353.41,553.6045H1326.53Z"/><path class="c" d="M1450.006,555.7051c-43.6816,0-61.9521-33.1817-61.9521-75.6026s18.27-75.6025,61.9521-75.6025,61.9517,33.1807,61.9517,75.6025S1493.6872,555.7051,1450.006,555.7051Zm0-126.8447c-23.9409,0-34.2309,22.4707-34.2309,51.2421s10.29,51.2413,34.2309,51.2413,34.231-22.4708,34.231-51.2413S1473.9469,428.86,1450.006,428.86Z"/><path class="c" d="M1560.0446,406.6h86.3125V553.6045h-26.8809V430.9609h-33.6005c0,76.0225-10.0806,123.6934-43.0518,123.6934a38.3642,38.3642,0,0,1-15.12-2.94l5.04-23.1005a20.1616,20.1616,0,0,0,6.72,1.26c14.07,0,20.5806-28.9814,20.5806-117.6035Z"/><path class="c" d="M1720.4826,406.6v57.1221h21.8408c30.4507,0,50.8213,14.9111,50.8213,44.9414s-20.1607,44.9414-50.8213,44.9414h-48.7217V406.6Zm0,81.4834v41.1611h20.5806c17.0107,0,24.3608-8.82,24.3608-20.581,0-12.3906-7.14-20.58-24.5708-20.58Z"/><path class="c" d="M1925.445,544.3643c-13.23,7.5605-24.3609,11.3408-40.9517,11.3408-43.6811,0-63.0019-33.1817-63.0019-75.6026S1840.8122,404.5,1884.4933,404.5c13.44,0,24.3609,2.1,38.4312,9.45l-10.71,21.6309a61.6344,61.6344,0,0,0-27.7212-6.7207c-23.94,0-35.2807,22.4707-35.2807,51.2421s11.34,51.2413,35.2807,51.2413c10.71,0,20.3706-2.9395,30.0313-8.4Z"/><path class="c" d="M2000.6222,489.7627h-10.5005v63.8418h-26.8808V406.6h26.8808v58.8027h10.9205L2039.0534,406.6h30.0307l-45.9912,69.5127,50.4014,77.4922-30.2407,2.1006Z"/><path class="c" d="M2173.8708,521.4736h-46.6216l-9.66,32.1309h-28.351L2138.38,406.6H2162.95l49.1416,147.0049h-28.3506Zm-39.481-23.73h32.3408l-15.75-53.3418h-.84Z"/><path class="c" d="M2293.568,498.1631l-31.9209,55.4414H2230.986l34.231-58.3818c-16.59-5.88-28.3511-21-28.3511-42.8409,0-28.7714,20.581-45.7822,45.9917-45.7822h46.8315V553.6045h-26.8808V498.1631Zm-9.66-24.3613h18.9V430.9609h-18.9c-11.13,0-19.3208,9.45-19.3208,21.4209S2272.7775,473.8018,2283.9079,473.8018Z"/><path class="c" d="M762.7277,652.1621l22.1016,31.3672-10.54.85L754.6525,656.667h-4.4209v26.8623h-9.1807V624.0244h9.1807v24.8223h4.6758l17.6816-24.8223h10.4551Z"/><path class="c" d="M826.9025,684.3789c-17.6807,0-24.6514-13.4307-24.6514-30.6016s6.9707-30.6025,24.6514-30.6025,24.6524,13.4307,24.6524,30.6025S844.5841,684.3789,826.9025,684.3789Zm0-53.0439c-10.8809,0-15.1309,9.8613-15.1309,22.4423s4.25,22.4415,15.1309,22.4415,15.1318-9.86,15.1318-22.4415S837.7834,631.335,826.9025,631.335Z"/><path class="c" d="M911.2228,675.709H902.297l-12.0713-36.2129h-.34l-4.08,44.0332h-9.1806l5.5254-59.5049h11.3056l13.1758,39.1035h.2549l13.1767-39.1035h11.3057l5.5254,59.5049H927.714l-4.08-44.0332h-.34Z"/><path class="c" d="M991.1222,668.1436c0-5.8663-5.6953-9.0967-12.2412-11.6465-7.65-2.9756-16.4062-7.3106-16.4062-17.1709,0-10.2012,7.2256-16.1514,19.2968-16.1514a33.7171,33.7171,0,0,1,17.001,4.59l-4.3349,7.2256a22.7411,22.7411,0,0,0-12.6661-3.6552c-6.4609,0-9.7763,2.6357-9.7763,7.48s5.8662,7.9912,11.0508,10.0313c9.3515,3.6553,17.5966,7.7353,17.5966,18.7861,0,10.541-7.3955,16.7461-20.7412,16.7461a32.4766,32.4766,0,0,1-18.7871-5.2695l4.8457-7.4815a22.1459,22.1459,0,0,0,13.9414,4.5909C986.5314,676.2188,991.1222,673.6689,991.1222,668.1436Z"/><path class="c" d="M1049.5158,684.3789c-17.6807,0-24.6514-13.4307-24.6514-30.6016s6.9707-30.6025,24.6514-30.6025,24.6523,13.4307,24.6523,30.6025S1067.1974,684.3789,1049.5158,684.3789Zm0-53.0439c-10.8809,0-15.1309,9.8613-15.1309,22.4423s4.25,22.4415,15.1309,22.4415,15.1318-9.86,15.1318-22.4415S1060.3966,631.335,1049.5158,631.335Z"/><path class="c" d="M1133.8361,675.709H1124.91l-12.0713-36.2129h-.34l-4.08,44.0332h-9.1807l5.5254-59.5049H1116.07l13.1758,39.1035h.2549l13.1767-39.1035h11.3057l5.5254,59.5049h-9.1807l-4.08-44.0332h-.34Z"/><path class="c" d="M1209.23,684.3789c-17.6807,0-24.6514-13.4307-24.6514-30.6016s6.9707-30.6025,24.6514-30.6025,24.6523,13.4307,24.6523,30.6025S1226.9113,684.3789,1209.23,684.3789Zm0-53.0439c-10.8809,0-15.1309,9.8613-15.1309,22.4423s4.25,22.4415,15.1309,22.4415,15.1318-9.86,15.1318-22.4415S1220.1105,631.335,1209.23,631.335Z"/><path class="c" d="M1261.5031,683.5293V624.0244h9.1807v51.3447h26.9472l-1.7,8.16Z"/><path class="c" d="M1348.4591,668.1436c0-5.8663-5.6953-9.0967-12.2412-11.6465-7.65-2.9756-16.4062-7.3106-16.4062-17.1709,0-10.2012,7.2256-16.1514,19.2969-16.1514a33.717,33.717,0,0,1,17.0009,4.59l-4.3349,7.2256a22.741,22.741,0,0,0-12.666-3.6552c-6.461,0-9.7764,2.6357-9.7764,7.48s5.8662,7.9912,11.0508,10.0313c9.3515,3.6553,17.5967,7.7353,17.5967,18.7861,0,10.541-7.3956,16.7461-20.7413,16.7461a32.4766,32.4766,0,0,1-18.7871-5.2695l4.8457-7.4815a22.1459,22.1459,0,0,0,13.9414,4.5909C1343.8683,676.2188,1348.4591,673.6689,1348.4591,668.1436Z"/><path class="c" d="M1406.4279,652.1621l22.1016,31.3672-10.54.85-19.6367-27.7119h-4.4209v26.8623h-9.1807V624.0244h9.1807v24.8223h4.6758l17.6816-24.8223h10.4551Z"/><path class="c" d="M1445.95,683.5293l19.8916-59.5049h9.0957l19.8916,59.5049h-9.7764l-4.25-13.8564h-20.9111l-4.1661,13.8564Zm24.6523-47.3486h-.4258l-7.9053,25.5869h16.1514Z"/><path class="c" d="M1543.4465,624.0244h10.7109l-19.126,34.6826v24.8223h-9.1807V658.707l-19.1269-34.6826h10.7109l12.751,24.8223h.34Z"/><path class="c" d="M1566.0539,683.5293l19.8916-59.5049h9.0957l19.8916,59.5049h-9.7764l-4.25-13.8564h-20.9111l-4.166,13.8564Zm24.6523-47.3486h-.4258l-7.9052,25.5869h16.1513Z"/><path class="c" d="M1702.7355,668.1436c0-5.8663-5.6953-9.0967-12.2412-11.6465-7.65-2.9756-16.4062-7.3106-16.4062-17.1709,0-10.2012,7.2255-16.1514,19.2968-16.1514a33.7171,33.7171,0,0,1,17.001,4.59l-4.335,7.2256a22.74,22.74,0,0,0-12.666-3.6552c-6.4609,0-9.7763,2.6357-9.7763,7.48s5.8662,7.9912,11.0507,10.0313c9.3516,3.6553,17.5967,7.7353,17.5967,18.7861,0,10.541-7.3955,16.7461-20.7412,16.7461a32.4766,32.4766,0,0,1-18.7871-5.2695l4.8457-7.4815a22.1457,22.1457,0,0,0,13.9414,4.5909C1698.1447,676.2188,1702.7355,673.6689,1702.7355,668.1436Z"/><path class="c" d="M1759.9386,632.1855v51.3438h-9.1806V632.1855h-17.6817v-8.1611h44.6289l-1.7,8.1611Z"/><path class="c" d="M1838.6486,641.7061c0,9.1806-5.1,14.706-12.3252,16.6611l15.5557,25.1621-9.9453.85-15.5567-25.1611h-5.27v24.3115h-9.1807V624.0244h18.1065C1830.3185,624.0244,1838.6486,630.0605,1838.6486,641.7061Zm-27.542-9.5206v18.8711h8.501c5.44,0,9.52-3.4,9.52-9.3505s-4.08-9.5206-9.52-9.5206Z"/><path class="c" d="M1866.95,683.5293V624.0244h33.663l-1.7,8.1611H1876.131v16.4913h20.2315v8.16H1876.131v18.5322h24.4824v8.16Z"/><path class="c" d="M1929.0851,683.5293V624.0244h33.6631l-1.7,8.1611h-22.7822v16.4913h20.2314v8.16h-20.2314v18.5322h24.4824v8.16Z"/><path class="c" d="M2012.133,632.1855v51.3438h-9.1807V632.1855h-17.6816v-8.1611H2029.9l-1.7,8.1611Z"/><path class="c" d="M1221.904,299.7891h.3l11.7011-33.2022h16.3008L1229.5046,321.59c-3.3,8.7-8.6006,16.001-18.2012,16.001a20.2544,20.2544,0,0,1-12.001-3.5l6.7-11.4a6.6075,6.6075,0,0,0,4.001,1.3c1.7,0,3.6-1,5.1-4.9l1.5-3.9h-4.3994l-20.1016-48.6026h16.6006Z"/><path class="c" d="M1290.5036,280.1875c0,38.1025-6.4,56.9033-21.1016,56.9033a21.1572,21.1572,0,0,1-7.7-1.4l2.9-12.9a4.768,4.768,0,0,0,2.2.5c6.5,0,8.9-14.3007,8.9-53.7031v-3h43.5029v70.0039H1304.404V280.1875Z"/><path class="c" d="M1388.904,291.5879h-.3l-27.4024,45.0029h-13.501V266.5869h14.8018v45.002h.3l27.4014-45.002h13.501v70.0039H1388.904Z"/><path class="c" d="M1432.1989,336.5908V266.5869h14.8018V322.99h23.7011V266.5869h14.8008V322.99h9.001l-2.001,28.3018h-12.8008V336.5908Z"/><path class="c" d="M1549.4,322.29h-20.3008l-4.1006,14.3008h-15.501l22.4014-70.0039H1546.6l22.4013,70.0039h-15.5009Zm-10-36.4023h-.4l-6.1006,23.1016H1545.6Z"/><path class="c" d="M2828.8923,310.2305,2754.7907,438.332v1.2h39.3008V404.4316h37.5v35.1006h33.0009l-6,34.5h-27.0009v46.2h-37.5v-46.2h-84.001v-31.5l77.1006-132.3017Z"/><path class="c" d="M3013.9919,310.2305l-6,34.8007h-71.7v39a85.2762,85.2762,0,0,1,15-1.8c38.4,0,70.5009,22.8,70.5009,70.501,0,46.2-34.5009,70.5-72.6015,70.5-26.3994,0-45.3-6.8994-62.4-17.7l18.6006-30.3c12,7.8,24.6,13.2,41.7,13.2,18.9,0,36-11.7,36-35.7,0-24.3008-18.6-36.9-39.3-36.9-24.3008,0-45.001,8.6992-45.001,8.6992V310.2305Z"/><path class="c" d="M2686.6462,652.7031h-5.7754v30.8692h-14.4893V610.0752h14.4893v28.3486h5.9853l16.4844-28.3486h17.0088l-21.419,35.2783,23.6241,38.2188-17.2188,1.05Z"/><path class="c" d="M2767.1794,684.6221c-22.3633,0-31.4981-15.959-31.4981-37.7989s9.1348-37.7978,31.4981-37.7978,31.499,15.959,31.499,37.7978S2789.5436,684.6221,2767.1794,684.6221Zm0-61.3174c-10.6045,0-15.5391,9.7646-15.5391,23.5185s4.9346,23.52,15.5391,23.52,15.54-9.7647,15.54-23.52S2777.7848,623.3047,2767.1794,623.3047Z"/><path class="c" d="M2835.7448,658.793v24.7793h-15.54V610.0752h25.0937c13.9648,0,24.4648,8.6094,24.4648,24.3584s-10.5,24.3594-24.4648,24.3594Zm8.8193-14.2793c5.1446,0,9.1348-3.78,9.1348-10.08s-3.99-10.0791-9.1348-10.0791h-8.8193v20.1592Z"/><path class="c" d="M2889.7145,683.5723V610.0752h55.1231v73.4971h-15.5391V624.3545h-24.0439v59.2178Z"/><path class="c" d="M2973.2946,668.6631a7.98,7.98,0,1,1-7.98,7.98A8.1142,8.1142,0,0,1,2973.2946,668.6631Z"/><path class="c" d="M3051.2018,653.0186a20.318,20.318,0,0,1-10.499,2.7294c-12.18,0-20.5791-8.2949-20.5791-23.0986,0-14.3848,11.2344-23.624,24.9883-23.624,15.8545,0,24.8847,11.5488,24.8847,27.8232,0,24.7793-16.59,41.4737-38.3242,47.7735l-5.249-10.1846c12.2842-4.62,20.0537-11.0244,25.0938-21.209Zm3.4649-17.3243c0-7.455-4.1993-12.39-9.5547-12.39s-9.8692,3.3594-9.8692,9.3447,3.8848,9.3447,9.8692,9.3447A11.0658,11.0658,0,0,0,3054.6667,635.6943Z"/><path class="a" d="M160.2966,3265.9252V2832.68c0-72.32,29.9515-102.2748,102.264-102.2748H3119.45c72.3124,0,102.264,29.9547,102.264,102.2748v433.2456c0,72.32-29.9516,102.2748-102.264,102.2748H262.5606C190.2481,3368.2,160.2966,3338.2453,160.2966,3265.9252Z"/><path class="b" d="M3131.8251,2792.767c19.8657,0,27.533,7.667,27.533,27.5352v458.0005c0,19.8681-7.6673,27.5356-27.533,27.5356H250.1852c-19.8662,0-27.5327-7.6675-27.5327-27.5356V2820.3022c0-19.8682,7.6665-27.5352,27.5327-27.5352h2881.64m0-25.5107H250.1852c-17.1367,0-29.977,4.5107-39.2553,13.7895s-13.7876,22.12-13.7876,39.2564v458.0005c0,17.1367,4.51,29.9775,13.7876,39.2563s22.1186,13.79,39.2553,13.79h2881.64c17.1367,0,29.9771-4.5108,39.2554-13.79s13.7878-22.12,13.7878-39.2563V2820.3022c0-17.1372-4.51-29.978-13.7878-39.2564s-22.1187-13.7895-39.2554-13.7895Z"/><rect class="b" x="2552.9001" y="2792.7669" width="25.5118" height="513.0713"/><path class="c" d="M373.057,3109.3037c-11.6547,6.66-21.4594,9.99-36.0742,9.99-38.4795,0-55.5-29.2294-55.5-66.5986s17.02-66.6,55.5-66.6c11.84,0,21.4595,1.85,33.8545,8.3242l-9.435,19.0547a54.304,54.304,0,0,0-24.42-5.92c-21.09,0-31.08,19.7949-31.08,45.1406,0,25.3438,9.99,45.1387,31.08,45.1387,9.4346,0,17.9444-2.59,26.4546-7.4Z"/><path class="c" d="M454.8271,3009.4053v108.0381H430.9623V3009.4053H393.4076v-21.46h98.9737l-3.7,21.46Z"/><path class="c" d="M571.56,3089.1387H530.4906l-8.51,28.3047H497.0058l43.2895-129.4981H561.94l43.29,129.4981H580.2548Zm-34.78-20.9043h28.49l-13.875-46.9893h-.74Z"/><path class="c" d="M657.5834,3071.9346v45.5088h-23.68V2987.9453h42.3648c24.6045,0,43.1045,14.2451,43.1045,41.9942s-18.5,41.9951-43.1045,41.9951Zm0-62.5293v41.0693h18.315c11.2846,0,18.87-7.585,18.87-20.5351s-7.585-20.5342-18.87-20.5342Z"/><path class="c" d="M776.3515,2987.9453v50.3193h12.58c26.8247,0,44.7695,13.1358,44.7695,39.59s-17.76,39.5889-44.7695,39.5889h-36.26V2987.9453Zm0,71.7793v36.26h11.47c14.9844,0,21.46-7.77,21.46-18.13,0-10.915-6.29-18.13-21.6446-18.13Zm94.7187-71.7793v129.4981h-23.68V2987.9453Z"/><path class="c" d="M953.2113,3069.7148h-.5551l-26.4546,47.7286H898.8222l39.0342-67.1543-35.3345-62.3438h27.38l22.5693,43.8447h.74l22.57-43.8447h27.3794l-35.3345,62.3438,39.0347,67.1543-26.4546,1.8505Z"/><path class="c" d="M1116.5629,3009.4053v29.6h16.0947c26.8247,0,44.77,12.7646,44.77,39.22s-17.76,39.2188-44.77,39.2188h-39.7744V2987.9453h75.8491l-3.7,21.46Zm0,51.06v35.52h14.9849c14.9848,0,21.46-7.585,21.46-17.76,0-10.915-6.29-17.76-21.645-17.76Z"/><path class="c" d="M1257.9013,3119.2939c-38.4795,0-54.5742-29.2294-54.5742-66.5986s16.0947-66.6,54.5742-66.6,54.5742,29.23,54.5742,66.6S1296.3808,3119.2939,1257.9013,3119.2939Zm0-111.7392c-21.0894,0-30.1543,19.7949-30.1543,45.1406,0,25.3438,9.0649,45.1387,30.1543,45.1387s30.1548-19.7949,30.1548-45.1387C1288.0561,3027.35,1278.9911,3007.5547,1257.9013,3007.5547Z"/><path class="c" d="M1354.8412,2987.9453h76.0342v129.4981h-23.68V3009.4053h-29.6c0,66.97-8.88,108.9638-37.9243,108.9638a33.7933,33.7933,0,0,1-13.32-2.59l4.44-20.35a17.7636,17.7636,0,0,0,5.92,1.1094c12.3946,0,18.1294-25.5293,18.1294-103.5987Z"/><path class="c" d="M1496.1791,2987.9453v50.3193h19.24c26.8247,0,44.77,13.1358,44.77,39.59s-17.76,39.5889-44.77,39.5889h-42.9195V2987.9453Zm0,71.7793v36.26h18.13c14.9849,0,21.46-7.77,21.46-18.13,0-10.915-6.29-18.13-21.6451-18.13Z"/><path class="c" d="M1614.394,3095.9844h32.93V2987.9453h23.68v108.0391h32.93V2987.9453h23.68v129.4981H1590.7143V2987.9453h23.68Z"/><path class="c" d="M1769.2372,3117.4434V2987.9453h75.1094l-3.7,21.46h-47.73v30.34h42.18v21.46h-42.18v34.7793h51.43v21.459Z"/><path class="c" d="M1882.2719,3117.4434V2987.9453h40.5146c23.1246,0,40.5147,8.51,40.5147,31.08,0,17.0195-10.1748,26.4551-22.0147,29.6v.74c16.2793,3.8848,26.64,14.2442,26.64,32.1895,0,26.4541-19.7949,35.8887-45.14,35.8887Zm39.22-108.0381h-15.54V3040.67h15.54c11.2847,0,17.39-6.29,17.39-15.7246S1932.7763,3009.4053,1921.4916,3009.4053Zm.1851,51.6142h-15.7251v34.9649h15.7251c13.69,0,21.83-6.8457,21.83-17.02C1943.5063,3067.125,1935.3666,3061.02,1921.6767,3061.02Z"/><path class="c" d="M2082.0707,3031.6055h-.5552l-57.7192,85.8379h-19.7949V2987.9453h23.68v86.0235h.5551l57.7193-86.0235H2105.75v129.4981h-23.68Z"/><path class="c" d="M2180.3036,3061.2051h-9.25v56.2383h-23.68V2987.9453h23.68v51.8h9.62l33.4842-51.8h26.4551l-40.5144,61.2344,44.3991,68.2637-26.64,1.8505Z"/><path class="c" d="M2312.9479,3119.2939c-38.4795,0-54.5742-29.2294-54.5742-66.5986s16.0947-66.6,54.5742-66.6,54.5742,29.23,54.5742,66.6S2351.4274,3119.2939,2312.9479,3119.2939Zm0-111.7392c-21.09,0-30.1543,19.7949-30.1543,45.1406,0,25.3438,9.0645,45.1387,30.1543,45.1387s30.1543-19.7949,30.1543-45.1387C2343.1022,3027.35,2334.0378,3007.5547,2312.9479,3007.5547Z"/><path class="c" d="M2403.5983,3117.4434V2987.9453h40.5147c23.124,0,40.5146,8.51,40.5146,31.08,0,17.0195-10.1748,26.4551-22.0146,29.6v.74c16.2793,3.8848,26.64,14.2442,26.64,32.1895,0,26.4541-19.7949,35.8887-45.14,35.8887Zm39.22-108.0381h-15.54V3040.67h15.54c11.2842,0,17.39-6.29,17.39-15.7246S2454.1022,3009.4053,2442.818,3009.4053Zm.1846,51.6142H2427.278v34.9649h15.7246c13.69,0,21.83-6.8457,21.83-17.02C2464.8327,3067.125,2456.693,3061.02,2443.0026,3061.02Z"/><path class="c" d="M612.6613,3240.5957c0-5.8662-5.6953-9.0967-12.2412-11.6465-7.65-2.9756-16.4063-7.3105-16.4063-17.1709,0-10.2012,7.2256-16.1513,19.2969-16.1513a33.7171,33.7171,0,0,1,17.001,4.59l-4.335,7.2256a22.74,22.74,0,0,0-12.666-3.6553c-6.4609,0-9.7764,2.6358-9.7764,7.4805s5.8663,7.9912,11.0508,10.0312c9.3516,3.6553,17.5967,7.7354,17.5967,18.7862,0,10.541-7.3955,16.7461-20.7412,16.7461a32.4766,32.4766,0,0,1-18.7871-5.27l4.8457-7.4814a22.1461,22.1461,0,0,0,13.9414,4.5908C608.0705,3248.6709,612.6613,3246.1211,612.6613,3240.5957Z"/><path class="c" d="M669.8644,3204.6377v51.3437h-9.1806v-51.3437H643.0021v-8.1611H687.631l-1.7,8.1611Z"/><path class="c" d="M701.6525,3255.9814l19.8916-59.5048H730.64l19.8916,59.5048H740.756l-4.251-13.8564H715.5939l-4.166,13.8564Zm24.6524-47.3486h-.4258l-7.9053,25.5869h16.1514Z"/><path class="c" d="M811.4748,3214.1582c0,9.1807-5.1,14.7061-12.3252,16.6611l15.5556,25.1621-9.9453.85L789.2033,3231.67h-5.27v24.3115h-9.1807v-59.5048h18.1065C803.1447,3196.4766,811.4748,3202.5127,811.4748,3214.1582Zm-27.542-9.52v18.8711h8.501c5.44,0,9.52-3.4,9.52-9.3506s-4.08-9.52-9.52-9.52Z"/><path class="c" d="M866.7238,3196.4766h10.7109l-19.1259,34.6826v24.8222h-9.1807v-24.8222l-19.127-34.6826h10.711l12.751,24.8222h.34Z"/><path class="c" d="M922.0578,3224.6143l22.1015,31.3671-10.54.85-19.6367-27.712h-4.4209v26.8623H900.381v-59.5048h9.1807v24.8222h4.6758l17.6816-24.8222h10.4551Z"/><path class="c" d="M976.7111,3221.1289h24.8223v-24.6523h9.1806v59.5048h-9.1806v-26.6923H976.7111v26.6923H967.53v-59.5048h9.1807Z"/><path class="c" d="M1104.1261,3224.6992c7.4805,1.7852,12.24,6.5449,12.24,14.791,0,12.1563-9.0957,16.4912-20.7412,16.4912h-17.7666v-59.5048h17.7666c10.6259,0,18.6162,3.91,18.6162,14.2812,0,7.82-4.6748,12.1563-10.1153,13.6016Zm-17.0869-20.0615v16.8311h7.9912c5.6953,0,9.69-3.57,9.69-8.586,0-5.44-3.4854-8.2451-10.0313-8.2451Zm0,24.6514v18.5322h8.0762c7.3105,0,11.7305-3.7412,11.7305-9.4365,0-6.0352-4.1651-9.0957-11.8155-9.0957Z"/><path class="c" d="M1166.09,3256.8311c-17.6807,0-24.6514-13.4307-24.6514-30.6016s6.9707-30.6025,24.6514-30.6025,24.6524,13.4306,24.6524,30.6025S1183.7716,3256.8311,1166.09,3256.8311Zm0-53.044c-10.8809,0-15.1309,9.8613-15.1309,22.4424s4.25,22.4414,15.1309,22.4414,15.1318-9.86,15.1318-22.4414S1176.9709,3203.7871,1166.09,3203.7871Z"/><path class="c" d="M1218.3634,3255.9814v-59.5048h9.1807v51.3447h26.9473l-1.7,8.16Z"/><path class="c" d="M1305.32,3240.5957c0-5.8662-5.6953-9.0967-12.2412-11.6465-7.65-2.9756-16.4063-7.3105-16.4063-17.1709,0-10.2012,7.2256-16.1513,19.2969-16.1513a33.7171,33.7171,0,0,1,17.001,4.59l-4.335,7.2256a22.74,22.74,0,0,0-12.666-3.6553c-6.4609,0-9.7764,2.6358-9.7764,7.4805s5.8663,7.9912,11.0508,10.0312c9.3516,3.6553,17.5967,7.7354,17.5967,18.7862,0,10.541-7.3955,16.7461-20.7412,16.7461a32.4766,32.4766,0,0,1-18.7871-5.27l4.8457-7.4814a22.1461,22.1461,0,0,0,13.9414,4.5908C1300.7287,3248.6709,1305.32,3246.1211,1305.32,3240.5957Z"/><path class="c" d="M1350.7922,3221.1289h24.8222v-24.6523h9.1807v59.5048h-9.1807v-26.6923h-24.8222v26.6923h-9.1807v-59.5048h9.1807Z"/><path class="c" d="M1414.965,3255.9814v-59.5048h33.6631l-1.7,8.1611h-22.7822v16.4912h20.2314v8.16h-20.2314v18.5322h24.4824v8.16Z"/><path class="c" d="M1507.5324,3196.4766h10.0312l-18.5322,59.5048h-10.626l-18.5312-59.5048h10.0312l13.6006,46.8388h.34Z"/><path class="c" d="M1537.96,3255.9814v-8.16h9.7754v-43.1836H1537.96v-8.1611h29.1573l-1.7,8.1611h-8.501v43.1836h9.7763v8.16Z"/><path class="c" d="M1615.9914,3224.6143l22.1015,31.3671-10.54.85-19.6367-27.712h-4.4209v26.8623h-9.1807v-59.5048h9.1807v24.8222h4.6758l17.6816-24.8222h10.4551Z"/><path class="c" d="M1680.1662,3256.8311c-17.6807,0-24.6514-13.4307-24.6514-30.6016s6.9707-30.6025,24.6514-30.6025,24.6523,13.4306,24.6523,30.6025S1697.8478,3256.8311,1680.1662,3256.8311Zm0-53.044c-10.8809,0-15.1309,9.8613-15.1309,22.4424s4.25,22.4414,15.1309,22.4414,15.1318-9.86,15.1318-22.4414S1691.047,3203.7871,1680.1662,3203.7871Z"/><path class="c" d="M1761.173,3196.4766h10.0313l-18.5323,59.5048h-10.6259l-18.5313-59.5048h10.0313l13.6005,46.8388h.34Z"/><path class="c" d="M1857.7316,3240.5957c0-5.8662-5.6953-9.0967-12.2412-11.6465-7.65-2.9756-16.4063-7.3105-16.4063-17.1709,0-10.2012,7.2256-16.1513,19.2969-16.1513a33.7171,33.7171,0,0,1,17.001,4.59l-4.335,7.2256a22.74,22.74,0,0,0-12.666-3.6553c-6.4609,0-9.7763,2.6358-9.7763,7.4805s5.8662,7.9912,11.0507,10.0312c9.3516,3.6553,17.5967,7.7354,17.5967,18.7862,0,10.541-7.3955,16.7461-20.7412,16.7461a32.4766,32.4766,0,0,1-18.7871-5.27l4.8457-7.4814a22.1463,22.1463,0,0,0,13.9414,4.5908C1853.1408,3248.6709,1857.7316,3246.1211,1857.7316,3240.5957Z"/><path class="c" d="M1914.9357,3204.6377v51.3437h-9.1807v-51.3437h-17.6816v-8.1611h44.6289l-1.7,8.1611Z"/><path class="c" d="M1993.6447,3214.1582c0,9.1807-5.1,14.7061-12.3252,16.6611l15.5557,25.1621-9.9453.85-15.5567-25.1612h-5.2705v24.3115h-9.1807v-59.5048h18.1065C1985.3146,3196.4766,1993.6447,3202.5127,1993.6447,3214.1582Zm-27.542-9.52v18.8711h8.501c5.44,0,9.5205-3.4,9.5205-9.3506s-4.08-9.52-9.5205-9.52Z"/><path class="c" d="M2021.9474,3255.9814v-59.5048H2055.61l-1.7,8.1611h-22.7822v16.4912H2051.36v8.16h-20.2314v18.5322H2055.61v8.16Z"/><path class="c" d="M2084.0822,3255.9814v-59.5048h33.6631l-1.7,8.1611h-22.7822v16.4912h20.2314v8.16h-20.2314v18.5322h24.4824v8.16Z"/><path class="c" d="M2167.1291,3204.6377v51.3437h-9.1807v-51.3437h-17.6816v-8.1611h44.6289l-1.7,8.1611Z"/><path class="c" d="M1221.904,2872.2412h.3l11.7011-33.2021h16.3008l-20.7011,55.0029c-3.3,8.7-8.6006,16.001-18.2012,16.001a20.2544,20.2544,0,0,1-12.001-3.5l6.7-11.4a6.6075,6.6075,0,0,0,4.001,1.3c1.7,0,3.6-1,5.1-4.9l1.5-3.9h-4.3994l-20.1016-48.6025h16.6006Z"/><path class="c" d="M1290.5036,2852.64c0,38.1026-6.4,56.9034-21.1016,56.9034a21.1572,21.1572,0,0,1-7.7-1.4l2.9-12.9a4.768,4.768,0,0,0,2.2.5c6.5,0,8.9-14.3008,8.9-53.7031v-3h43.5029v70.0039H1304.404V2852.64Z"/><path class="c" d="M1388.904,2864.04h-.3l-27.4024,45.003h-13.501v-70.0039h14.8018v45.0019h.3l27.4014-45.0019h13.501v70.0039H1388.904Z"/><path class="c" d="M1432.1989,2909.043v-70.0039h14.8018v56.4033h23.7011v-56.4033h14.8008v56.4033h9.001l-2.001,28.3017h-12.8008V2909.043Z"/><path class="c" d="M1549.4,2894.7422h-20.3008l-4.1006,14.3008h-15.501l22.4014-70.0039H1546.6l22.4013,70.0039h-15.5009Zm-10-36.4024h-.4l-6.1006,23.1016H1545.6Z"/><path class="c" d="M2764.0553,2957.0732c-18.5,0-35.89,6.29-52.17,16.28l-21.8291-37.37c29.6-15.9092,50.6895-21.8291,81.0283-21.8291,45.51,0,73.6289,25.8994,73.6289,71.0391,0,56.9795-49.2089,111.3681-94.3486,147.2578v1.4795h101.749l-7.4,42.92H2685.6159v-39.22c50.6894-38.1094,111.3681-98.0489,111.3681-147.628C2796.984,2969.6533,2785.5143,2957.0732,2764.0553,2957.0732Z"/><path class="c" d="M2970.8854,2957.0732c-18.5,0-35.89,6.29-52.17,16.28l-21.8291-37.37c29.6-15.9092,50.6894-21.8291,81.0283-21.8291,45.51,0,73.6289,25.8994,73.6289,71.0391,0,56.9795-49.209,111.3681-94.3486,147.2578v1.4795h101.749l-7.4,42.92H2892.446v-39.22c50.6894-38.1094,111.3681-98.0489,111.3681-147.628C3003.8141,2969.6533,2992.3444,2957.0732,2970.8854,2957.0732Z"/><path class="c" d="M2764.0553,4657.86c-18.5,0-35.89,6.29-52.17,16.28l-21.8291-37.37c29.6-15.9092,50.6895-21.8291,81.0283-21.8291,45.51,0,73.6289,25.8994,73.6289,71.0391,0,56.98-49.2089,111.3681-94.3486,147.2578v1.48h101.749l-7.4,42.92H2685.6159v-39.22c50.6894-38.1094,111.3681-98.0489,111.3681-147.628C2796.984,4670.44,2785.5143,4657.86,2764.0553,4657.86Z"/><path class="c" d="M3011.5846,4661.5605H2888.7458l7.4-42.9189h164.6474V4657.86l-92.1289,219.7773h-49.5791Z"/><path class="a" d="M160.2966,4137.5677V3704.3221c0-72.32,29.9515-102.2748,102.264-102.2748H3119.45c72.3124,0,102.264,29.9547,102.264,102.2748v433.2456c0,72.32-29.9516,102.2749-102.264,102.2749H262.5606C190.2481,4239.8426,160.2966,4209.8878,160.2966,4137.5677Z"/><path class="b" d="M3131.8251,3664.4094c19.8657,0,27.533,7.6675,27.533,27.5357v458c0,19.8681-7.6673,27.5356-27.533,27.5356H250.1852c-19.8662,0-27.5327-7.6675-27.5327-27.5356v-458c0-19.8682,7.6665-27.5357,27.5327-27.5357h2881.64m0-25.5107H250.1852c-17.1367,0-29.9775,4.5107-39.2553,13.79s-13.7876,22.12-13.7876,39.2564v458c0,17.1367,4.51,29.9775,13.7876,39.2563s22.1186,13.79,39.2553,13.79h2881.64c17.1367,0,29.9771-4.5107,39.2554-13.79s13.7878-22.12,13.7878-39.2563v-458c0-17.1368-4.51-29.9776-13.7878-39.2564s-22.1187-13.79-39.2554-13.79Z"/><rect class="b" x="2552.9001" y="3664.4094" width="25.5118" height="513.0713"/><path class="c" d="M337.3891,3980.2588c-32.4429,0-46.0127-24.6494-46.0127-56.1621s13.57-56.1621,46.0127-56.1621,46.0127,24.6494,46.0127,56.1621S369.8319,3980.2588,337.3891,3980.2588Zm0-94.2276c-17.7813,0-25.4238,16.6924-25.4238,38.0655s7.6425,38.0654,25.4238,38.0654,25.4238-16.6924,25.4238-38.0654S355.17,3886.0312,337.3891,3886.0312Z"/><path class="c" d="M440.0258,3931.2734H432.227v47.4258H412.2621V3869.4941H432.227v43.6817h8.1108l28.2315-43.6817h22.3046l-34.1586,51.6387,37.434,57.5664-22.46,1.56Z"/><path class="c" d="M556.0751,3887.5918v91.1074H535.954v-91.1074H504.2914v-18.0977h83.4468l-3.12,18.0977Z"/><path class="c" d="M646.6991,3937.5137l-23.708,41.1855H600.2187l25.4238-43.37c-12.3218-4.3682-21.0566-15.6006-21.0566-31.8252,0-21.373,15.2856-34.01,34.1586-34.01h34.7823v109.2051H653.5619v-41.1855Zm-7.1748-18.0977h14.0376v-31.8242H639.5243c-8.2666,0-14.35,7.0195-14.35,15.9121S631.2577,3919.416,639.5243,3919.416Z"/><path class="c" d="M727.0307,3887.5918v24.9609h13.57c22.6167,0,37.7461,10.7637,37.7461,33.0723s-14.9736,33.0742-37.7461,33.0742H707.0658V3869.4941h63.95l-3.12,18.0977Zm0,43.0566v29.9532H739.665c12.6337,0,18.0927-6.3955,18.0927-14.9766,0-9.2041-5.3032-14.9766-18.249-14.9766Z"/><path class="c" d="M823.2709,3940.3213v38.3779H803.3061V3869.4941h35.7182c20.7451,0,36.3423,12.0127,36.3423,35.4141s-15.5972,35.4131-36.3423,35.4131Zm0-52.7295v34.6328h15.4414c9.5147,0,15.91-6.3965,15.91-17.3164s-6.395-17.3164-15.91-17.3164Z"/><path class="c" d="M921.8505,3869.4941v42.4336h16.2217c22.6162,0,37.7461,11.0772,37.7461,33.3858s-14.9737,33.3857-37.7461,33.3857H901.8857V3869.4941Zm0,60.5313v30.5762h15.2856c12.6338,0,18.0933-6.5518,18.0933-15.2881,0-9.2041-5.3032-15.2881-18.249-15.2881Z"/><path class="c" d="M1072.5278,3971.834c-9.8267,5.6172-18.0933,8.4248-30.4156,8.4248-32.4428,0-46.7925-24.6494-46.7925-56.1621s14.35-56.1621,46.7925-56.1621a56.345,56.345,0,0,1,28.5435,7.0205l-7.9546,16.0683a45.7705,45.7705,0,0,0-20.5889-4.9922c-17.7812,0-26.2036,16.6924-26.2036,38.0655s8.4224,38.0654,26.2036,38.0654a44.2015,44.2015,0,0,0,22.3047-6.24Z"/><path class="c" d="M1126.811,3931.2734h-7.7989v47.4258h-19.9648V3869.4941h19.9648v43.6817h8.1109l28.2314-43.6817h22.3047L1143.5,3921.1328l37.4341,57.5664-22.4605,1.56Z"/><path class="c" d="M1237.09,3980.2588c-32.4429,0-46.0127-24.6494-46.0127-56.1621s13.57-56.1621,46.0127-56.1621,46.0127,24.6494,46.0127,56.1621S1269.5326,3980.2588,1237.09,3980.2588Zm0-94.2276c-17.7813,0-25.4239,16.6924-25.4239,38.0655s7.6426,38.0654,25.4239,38.0654,25.4238-16.6924,25.4238-38.0654S1254.871,3886.0312,1237.09,3886.0312Z"/><path class="c" d="M1377.7846,3906.3125h-.4678l-48.6645,72.3867h-16.6895V3869.4941h19.9649v72.543h.4682l48.6641-72.543h16.6894v109.2051h-19.9648Zm5.147-56.3184c-6.8628,10.6084-15.7535,14.82-28.0757,14.82s-21.2124-4.212-28.0752-14.82l12.478-8.8925c3.7432,7.4882,9.8262,10.4521,15.5972,10.4521s12.01-3.12,15.5976-10.4521Z"/><path class="c" d="M1498.8266,3940.3213v38.3779h-19.9649V3869.4941H1514.58c20.7451,0,36.3423,12.0127,36.3423,35.4141s-15.5972,35.4131-36.3423,35.4131Zm0-52.7295v34.6328h15.4414c9.5146,0,15.91-6.3965,15.91-17.3164s-6.3951-17.3164-15.91-17.3164Z"/><path class="c" d="M1577.4408,3978.6992V3869.4941h63.3262l-3.12,18.0977h-40.2417v25.584h35.5625v18.0976h-35.5625v29.3282h43.3613v18.0976Z"/><path class="c" d="M1671.1869,3978.6992V3869.4941h34.1587c19.4971,0,34.1587,7.1768,34.1587,26.209,0,14.3535-8.5786,22.31-18.561,24.961v.625c13.7256,3.2754,22.46,12.0117,22.46,27.1445,0,22.3086-16.6894,30.2656-38.0581,30.2656Zm33.0669-91.1074h-13.102v26.3643h13.102c9.5147,0,14.6616-5.3038,14.6616-13.2608S1713.7685,3887.5918,1704.2538,3887.5918Zm.1558,43.5254h-13.2578v29.4844H1704.41c11.5425,0,18.4053-5.7715,18.4053-14.3516C1722.8149,3936.2656,1715.9521,3931.1172,1704.41,3931.1172Z"/><path class="c" d="M1813.5966,3980.2588c-32.4429,0-46.0127-24.6494-46.0127-56.1621s13.57-56.1621,46.0127-56.1621,46.0127,24.6494,46.0127,56.1621S1846.04,3980.2588,1813.5966,3980.2588Zm0-94.2276c-17.7813,0-25.4238,16.6924-25.4238,38.0655s7.6425,38.0654,25.4238,38.0654,25.4238-16.6924,25.4238-38.0654S1831.3778,3886.0312,1813.5966,3886.0312Z"/><path class="c" d="M1893.7729,3869.4941h64.1059v109.2051H1937.914v-91.1074h-24.9561c0,56.4736-7.4868,91.8867-31.9751,91.8867a28.4905,28.4905,0,0,1-11.23-2.1836l3.7432-17.1611a14.9751,14.9751,0,0,0,4.9912.9365c10.4507,0,15.2857-21.5293,15.2857-87.3633Z"/><path class="c" d="M2026.8236,3931.585h-15.4418v47.1142h-19.9649V3869.4941h19.9649v43.9942h15.7534c2.9638-26.5215,18.0932-45.5537,45.5449-45.5537,30.8833,0,45.8569,24.3369,45.8569,56.1621s-14.9736,56.1621-45.8569,56.1621C2044.1366,3980.2588,2028.851,3959.666,2026.8236,3931.585Zm45.8565,30.5771c16.2217,0,25.2681-17.4726,25.2681-38.0654s-9.0464-38.0655-25.2681-38.0655-25.4238,17.4727-25.4238,38.0655S2056.4589,3962.1621,2072.68,3962.1621Z"/><path class="c" d="M2147.3979,3978.6992V3869.4941h19.9648v91.1075h40.8655v-91.1075h19.9648v91.1075H2243.01l-3.1191,41.03h-16.8457v-22.9326Z"/><path class="c" d="M2332.2321,3906.3125h-.4678l-48.664,72.3867h-16.6895V3869.4941h19.9649v72.543h.4677l48.6641-72.543h16.6894v109.2051h-19.9648Z"/><path class="c" d="M2451.5573,3906.3125h-.4678l-48.665,72.3867H2385.735V3869.4941H2405.7v72.543h.4687l48.6641-72.543h16.6894v109.2051h-19.9648Z"/><path class="c" d="M520.0519,4102.7158v24.9072h-9.1806v-59.5048h34.0878l-1.7,8.1611H520.0519v18.2764H543.259v8.16Z"/><path class="c" d="M570.88,4127.623v-59.5048h33.6631l-1.7,8.1611H580.0607v16.4912h20.2315v8.16H580.0607v18.5322h24.4824v8.16Z"/><path class="c" d="M663.4484,4068.1182H673.48l-18.5323,59.5048H644.3215L625.79,4068.1182h10.0313l13.6005,46.8388h.34Z"/><path class="c" d="M733.1476,4085.8c0,9.1807-5.1,14.7061-12.3252,16.6611l15.5557,25.1621-9.9453.85-15.5567-25.1612h-5.27v24.3115H696.425v-59.5048h18.1064C724.8175,4068.1182,733.1476,4074.1543,733.1476,4085.8Zm-27.542-9.52V4095.15h8.501c5.44,0,9.5205-3.4,9.5205-9.3506s-4.08-9.52-9.5205-9.52Z"/><path class="c" d="M755.5,4127.623l19.8916-59.5048h9.0957l19.8916,59.5048h-9.7754l-4.251-13.8564H769.4416l-4.166,13.8564Zm24.6523-47.3486h-.4258l-7.9052,25.5869h16.1513Z"/><path class="c" d="M828.5988,4127.623v-59.5048H837.78v51.3447h26.9472l-1.7,8.16Z"/><path class="c" d="M915.5558,4112.2373c0-5.8662-5.6953-9.0967-12.2412-11.6465-7.65-2.9756-16.4062-7.3105-16.4062-17.1709,0-10.2011,7.2256-16.1513,19.2968-16.1513a33.7171,33.7171,0,0,1,17.001,4.59l-4.3349,7.2256a22.74,22.74,0,0,0-12.6661-3.6553c-6.4609,0-9.7763,2.6358-9.7763,7.4805s5.8662,7.9912,11.0508,10.0312c9.3515,3.6553,17.5966,7.7354,17.5966,18.7862,0,10.541-7.3955,16.7461-20.7412,16.7461a32.4766,32.4766,0,0,1-18.7871-5.27l4.8457-7.4814a22.1465,22.1465,0,0,0,13.9414,4.5908C910.965,4120.3125,915.5558,4117.7627,915.5558,4112.2373Z"/><path class="c" d="M973.5236,4096.2559l22.1016,31.3671-10.54.85-19.6367-27.712h-4.4209v26.8623h-9.1807v-59.5048h9.1807V4092.94h4.6758l17.6816-24.8222H993.84Z"/><path class="c" d="M1037.6984,4128.4727c-17.6807,0-24.6514-13.4307-24.6514-30.6016s6.9707-30.6025,24.6514-30.6025,24.6523,13.4306,24.6523,30.6025S1055.38,4128.4727,1037.6984,4128.4727Zm0-53.044c-10.8809,0-15.1309,9.8613-15.1309,22.4424s4.25,22.4414,15.1309,22.4414,15.1318-9.86,15.1318-22.4414S1048.5793,4075.4287,1037.6984,4075.4287Z"/><path class="c" d="M1116.07,4068.1182H1126.78l-19.1259,34.6826v24.8222h-9.1807v-24.8222l-19.127-34.6826h10.711l12.751,24.8222h.34Z"/><path class="c" d="M1223.424,4085.8c0,9.1807-5.1,14.7061-12.3252,16.6611l15.5557,25.1621-9.9454.85-15.5566-25.1612h-5.27v24.3115h-9.1807v-59.5048h18.1065C1215.0939,4068.1182,1223.424,4074.1543,1223.424,4085.8Zm-27.542-9.52V4095.15h8.501c5.44,0,9.52-3.4,9.52-9.3506s-4.08-9.52-9.52-9.52Z"/><path class="c" d="M1251.7257,4127.623v-59.5048h33.6631l-1.7,8.1611h-22.7822v16.4912h20.2315v8.16h-20.2315v18.5322h24.4824v8.16Z"/><path class="c" d="M1344.2931,4068.1182h10.0313l-18.5322,59.5048h-10.626l-18.5313-59.5048h10.0313l13.6006,46.8388h.34Z"/><path class="c" d="M1397.673,4128.4727c-17.6806,0-24.6514-13.4307-24.6514-30.6016s6.9708-30.6025,24.6514-30.6025,24.6524,13.4306,24.6524,30.6025S1415.3547,4128.4727,1397.673,4128.4727Zm0-53.044c-10.8808,0-15.1308,9.8613-15.1308,22.4424s4.25,22.4414,15.1308,22.4414,15.1319-9.86,15.1319-22.4414S1408.5539,4075.4287,1397.673,4075.4287Z"/><path class="c" d="M1449.9465,4127.623v-59.5048h9.1806v51.3447h26.9473l-1.7,8.16Z"/><path class="c" d="M1530.4435,4068.1182h10.711l-19.126,34.6826v24.8222h-9.1807v-24.8222l-19.1269-34.6826h10.7109l12.751,24.8222h.34Z"/><path class="c" d="M1606.1789,4109.3467c0,11.3056-8.5,19.126-21.251,19.126s-21.252-7.82-21.252-19.126v-41.2285h9.1807v40.8037c0,6.7148,4.5908,11.3906,12.0713,11.3906s12.07-4.6758,12.07-11.3906v-40.8037h9.1807Z"/><path class="c" d="M1656.8381,4076.2793v51.3437h-9.1807v-51.3437h-17.6817v-8.1611h44.629l-1.7,8.1611Z"/><path class="c" d="M1725.4318,4112.2373c0-5.8662-5.6953-9.0967-12.2412-11.6465-7.65-2.9756-16.4063-7.3105-16.4063-17.1709,0-10.2011,7.2256-16.1513,19.2969-16.1513a33.7171,33.7171,0,0,1,17.001,4.59l-4.335,7.2256a22.74,22.74,0,0,0-12.666-3.6553c-6.4609,0-9.7763,2.6358-9.7763,7.4805s5.8662,7.9912,11.0507,10.0312c9.3516,3.6553,17.5967,7.7354,17.5967,18.7862,0,10.541-7.3955,16.7461-20.7412,16.7461a32.4766,32.4766,0,0,1-18.7871-5.27l4.8457-7.4814a22.1463,22.1463,0,0,0,13.9414,4.5908C1720.841,4120.3125,1725.4318,4117.7627,1725.4318,4112.2373Z"/><path class="c" d="M1759.174,4127.623v-8.16h9.7754v-43.1836h-9.7754v-8.1611h29.1572l-1.7,8.1611h-8.501v43.1836h9.7764v8.16Z"/><path class="c" d="M1812.9787,4127.623v-8.16h9.7754v-43.1836h-9.7754v-8.1611h29.1572l-1.7,8.1611h-8.501v43.1836h9.7764v8.16Z"/><path class="c" d="M1932.9142,4112.2373c0-5.8662-5.6953-9.0967-12.2412-11.6465-7.65-2.9756-16.4062-7.3105-16.4062-17.1709,0-10.2011,7.2256-16.1513,19.2968-16.1513a33.7171,33.7171,0,0,1,17.001,4.59l-4.3349,7.2256a22.74,22.74,0,0,0-12.6661-3.6553c-6.4609,0-9.7763,2.6358-9.7763,7.4805s5.8662,7.9912,11.0508,10.0312c9.3515,3.6553,17.5966,7.7354,17.5966,18.7862,0,10.541-7.3955,16.7461-20.7412,16.7461a32.4766,32.4766,0,0,1-18.7871-5.27l4.8457-7.4814a22.1463,22.1463,0,0,0,13.9414,4.5908C1928.3234,4120.3125,1932.9142,4117.7627,1932.9142,4112.2373Z"/><path class="c" d="M1990.1183,4076.2793v51.3437h-9.1806v-51.3437H1963.256v-8.1611h44.6289l-1.7,8.1611Z"/><path class="c" d="M2068.8273,4085.8c0,9.1807-5.1,14.7061-12.3252,16.6611l15.5557,25.1621-9.9453.85-15.5567-25.1612h-5.2705v24.3115h-9.1806v-59.5048h18.1064C2060.4972,4068.1182,2068.8273,4074.1543,2068.8273,4085.8Zm-27.542-9.52V4095.15h8.501c5.44,0,9.52-3.4,9.52-9.3506s-4.08-9.52-9.52-9.52Z"/><path class="c" d="M2097.1291,4127.623v-59.5048h33.6631l-1.7,8.1611H2106.31v16.4912h20.2315v8.16H2106.31v18.5322h24.4825v8.16Z"/><path class="c" d="M2159.2648,4127.623v-59.5048h33.6631l-1.7,8.1611h-22.7822v16.4912h20.2314v8.16h-20.2314v18.5322h24.4824v8.16Z"/><path class="c" d="M2242.3117,4076.2793v51.3437h-9.1807v-51.3437h-17.6816v-8.1611h44.6289l-1.7,8.1611Z"/><path class="c" d="M1221.904,3743.8828h.3l11.7011-33.2021h16.3008l-20.7011,55.0029c-3.3,8.7-8.6006,16.001-18.2012,16.001a20.2544,20.2544,0,0,1-12.001-3.5l6.7-11.4a6.6075,6.6075,0,0,0,4.001,1.3c1.7,0,3.6-1,5.1-4.9l1.5-3.9h-4.3994l-20.1016-48.6025h16.6006Z"/><path class="c" d="M1290.5036,3724.2812c0,38.1026-6.4,56.9034-21.1016,56.9034a21.1572,21.1572,0,0,1-7.7-1.4l2.9-12.9a4.768,4.768,0,0,0,2.2.5c6.5,0,8.9-14.3008,8.9-53.7031v-3h43.5029v70.0039H1304.404v-56.4034Z"/><path class="c" d="M1388.904,3735.6816h-.3l-27.4024,45.003h-13.501v-70.0039h14.8018v45.0019h.3l27.4014-45.0019h13.501v70.0039H1388.904Z"/><path class="c" d="M1432.1989,3780.6846v-70.0039h14.8018v56.4033h23.7011v-56.4033h14.8008v56.4033h9.001l-2.001,28.3017h-12.8008v-14.7011Z"/><path class="c" d="M1549.4,3766.3838h-20.3008l-4.1006,14.3008h-15.501l22.4014-70.0039H1546.6l22.4013,70.0039h-15.5009Zm-10-36.4024h-.4l-6.1006,23.1016H1545.6Z"/><path class="c" d="M2857.8737,3975.6719c0,56.98-42.5488,83.6191-89.5391,83.6191-32.56,0-55.8691-8.51-76.9589-21.83l22.94-37.3691c14.8,9.62,30.3388,16.2793,51.4287,16.2793,24.42,0,44.3994-12.5791,44.3994-40.3291,0-29.2295-20.72-40.6992-45.8789-40.6992h-21.09v-27.01l51.7988-67.34v-1.4795h-95.0889l7.4-42.919H2846.404v39.2188l-49.9492,64.749v1.11C2828.6442,3907.5928,2857.8737,3928.6826,2857.8737,3975.6719Z"/><path class="c" d="M3058.7839,3796.5947l-7.3995,42.919h-88.4287v48.1a105.1611,105.1611,0,0,1,18.4991-2.22c47.3593,0,86.9492,28.1191,86.9492,86.9482,0,56.9795-42.55,86.9492-89.5391,86.9492-32.56,0-55.8691-8.51-76.959-21.83l22.9395-37.3691c14.8,9.62,30.34,16.2793,51.43,16.2793,23.31,0,44.3994-14.43,44.3994-44.0293,0-29.97-22.9395-45.5088-48.47-45.5088-29.97,0-55.4991,10.7295-55.4991,10.7295V3796.5947Z"/></svg>