<svg xmlns="http://www.w3.org/2000/svg" xmlns:xlink="http://www.w3.org/1999/xlink" viewBox="0 0 1190.551 907.087"><defs><style>.a{fill:url(#a);}.b{fill:#fff;}</style><linearGradient id="a" x1="595.276" x2="595.276" y2="907.087" gradientUnits="userSpaceOnUse"><stop offset="0" stop-color="#222c54"/><stop offset="0.764" stop-color="#1e2649"/><stop offset="1" stop-color="#1c2344"/></linearGradient></defs><rect class="a" width="1190.551" height="907.087" rx="70.866"/><path class="b" d="M417.133,290.815c-30.4,0-58.976,10.336-85.728,26.752l-35.872-61.408c48.64-26.144,83.3-35.872,133.153-35.872,74.784,0,120.992,42.56,120.992,116.736,0,93.633-80.864,183.009-155.041,241.985v2.432h167.2l-12.16,70.528H288.238V587.52c83.3-62.624,183.008-161.12,183.008-242.593C471.246,311.488,452.4,290.815,417.133,290.815Z"/><path class="b" d="M896.237,520.64c0,93.632-69.92,137.408-147.137,137.408-53.5,0-91.809-13.984-126.464-35.872l37.7-61.408c24.321,15.808,49.856,26.752,84.512,26.752,40.129,0,72.961-20.672,72.961-66.272,0-48.033-34.049-66.88-75.393-66.88H707.756V409.984l85.12-110.656V296.9H636.619l12.161-70.528H877.389v64.448l-82.08,106.4v1.825C848.2,408.767,896.237,443.423,896.237,520.64Z"/></svg>