<svg xmlns="http://www.w3.org/2000/svg" viewBox="0 0 2948.94 1506.77"><defs><style>.a{fill:#fff;}.b{fill:#2e2d2c;}.c{fill:#1d1d1b;}.d{fill:#34a936;}.d,.i{opacity:0.5;}.e{fill:#77be7f;}.e,.j{opacity:0.8;}.f{opacity:0.63;}.g,.i{fill:#0bbbef;}.h{fill:#19381d;}</style></defs><rect class="a" y="22.06" width="1388.98" height="1445.67" rx="137.15"/><rect class="a" x="1559.96" y="22.06" width="1388.98" height="1445.67" rx="137.15"/><rect class="b" y="22.06" width="1388.98" height="1445.67" rx="137.15"/><rect class="b" x="1559.96" y="22.06" width="1388.98" height="1445.67" rx="137.15"/><path class="c" d="M1239.83,1429.18H149.15A110.61,110.61,0,0,1,38.54,1318.57V171.22A110.61,110.61,0,0,1,149.15,60.61H1239.83a110.61,110.61,0,0,1,110.61,110.61V1318.57A110.61,110.61,0,0,1,1239.83,1429.18ZM149.15,86.61a84.61,84.61,0,0,0-84.61,84.61V1318.57a84.61,84.61,0,0,0,84.61,84.61H1239.83a84.61,84.61,0,0,0,84.61-84.61V171.22a84.61,84.61,0,0,0-84.61-84.61Z"/><path class="c" d="M2799.79,1429.18H1709.11a110.61,110.61,0,0,1-110.61-110.61V171.22A110.61,110.61,0,0,1,1709.11,60.61H2799.79A110.62,110.62,0,0,1,2910.4,171.22V1318.57A110.61,110.61,0,0,1,2799.79,1429.18ZM1709.11,86.61a84.61,84.61,0,0,0-84.61,84.61V1318.57a84.61,84.61,0,0,0,84.61,84.61H2799.79a84.61,84.61,0,0,0,84.61-84.61V171.22a84.62,84.62,0,0,0-84.61-84.61Z"/><rect class="d" y="305.71" width="1276.43" height="481.89"/><rect class="d" y="1004.37" width="1276.43" height="95.87"/><rect class="d" y="1173.77" width="1276.43" height="67.14"/><path class="a" d="M751.59,306V707.79h108V787.6H543.13V707.79H665.59v-322H553.45L567.21,306Z"/><path class="e" d="M914.74,220.89v-3h2.83v-12h-2.83v-3h9.07l-.51,3h-2.44v12h2.83v3Z"/><path class="e" d="M926.41,211.23c0-2.18,1.77-3.7,4.65-3.7a10.34,10.34,0,0,1,4.27.9l-1.08,2.49a8.39,8.39,0,0,0-3-.64c-1.13,0-1.64.41-1.64,1.06s.77,1.18,2.08,1.61c1.92.65,4,1.65,4,4.24,0,2.39-2,4-5,4a10,10,0,0,1-4.55-1l1.1-2.57a8.34,8.34,0,0,0,3.34.77c1.11,0,1.88-.49,1.88-1.21,0-1-1.26-1.49-2.57-2C928.34,214.65,926.41,213.65,926.41,211.23Z"/><path class="e" d="M947.61,217.55l1.1,2.5a10.12,10.12,0,0,1-4.52,1.1c-3.85,0-6.5-2.52-6.5-6.81s2.31-6.81,6-6.81c3.42,0,5.55,2.13,5.55,5.81a17.79,17.79,0,0,1-.15,2h-8.17a3.38,3.38,0,0,0,3.42,3.08A7.66,7.66,0,0,0,947.61,217.55Zm-1.26-4.67a2.43,2.43,0,0,0-2.59-2.6,2.81,2.81,0,0,0-2.78,2.6Z"/><path class="e" d="M960.2,220.69a9.27,9.27,0,0,1-2.85.46c-2.36,0-4.29-1.08-4.29-4.14v-6.47H950.8v-2.75h2.26v-3.55l3.18-.51v4.06h3.68l-.52,2.75h-3.16V217c0,1,.42,1.39,1.42,1.39a7.58,7.58,0,0,0,2-.33Z"/><path class="e" d="M973.69,213c-2.31-.9-5-2.51-5-5.5s2.31-4.8,6-4.8a10.63,10.63,0,0,1,5.27,1.39l-1.57,2.62a6.86,6.86,0,0,0-3.7-1c-1.62,0-2.57.57-2.57,1.67,0,1.31,1.57,2.29,3.06,2.88,2.82,1.1,5.34,2.49,5.34,5.83,0,3.19-2.36,5.14-6.4,5.14a10.22,10.22,0,0,1-5.8-1.59l1.77-2.68a6.64,6.64,0,0,0,4,1.29c1.73,0,3-.77,3-2.11C977.11,214.44,975.59,213.7,973.69,213Z"/><path class="e" d="M990,212.31c0-1.26-.65-2-2.21-2a10.37,10.37,0,0,0-3.5.7l-1-2.57a12.9,12.9,0,0,1,4.75-.88c4,0,5.09,2.11,5.09,4.83v5a.83.83,0,0,0,.93.92h.28v2.5a6.16,6.16,0,0,1-1.83.25,2.32,2.32,0,0,1-2.31-1.26h-.1a4.39,4.39,0,0,1-3.44,1.26c-2.5,0-4.06-1.23-4.06-3.9s2-3.94,4.9-3.94H990Zm0,4.81v-1.49H987.7c-1.19,0-1.85.59-1.85,1.44a1.3,1.3,0,0,0,1.41,1.33A3.78,3.78,0,0,0,990,217.12Z"/><path class="e" d="M1000.19,220.89H997v-13.1h2.42l.51,1.13h.1a5.05,5.05,0,0,1,3.47-1.39c2.75,0,4.29,1.72,4.29,5.17v8.19h-3.18V213c0-1.83-.7-2.7-1.91-2.7a3.51,3.51,0,0,0-2.51,1.54Z"/><path class="e" d="M1010.77,211.23c0-2.18,1.78-3.7,4.65-3.7a10.34,10.34,0,0,1,4.27.9l-1.08,2.49a8.39,8.39,0,0,0-3-.64c-1.13,0-1.64.41-1.64,1.06s.77,1.18,2.08,1.61c1.93.65,4,1.65,4,4.24,0,2.39-2,4-5,4a10.07,10.07,0,0,1-4.55-1l1.11-2.57a8.3,8.3,0,0,0,3.34.77c1.1,0,1.87-.49,1.87-1.21,0-1-1.26-1.49-2.57-2C1012.7,214.65,1010.77,213.65,1010.77,211.23Z"/><path class="e" d="M1043.07,209.15H1043l-3.09,9.38h-3.36l-3.11-9.38h-.08l-1.08,11.74H1029l1.67-18h3.68l3.85,11.56h.08l3.85-11.56h3.68l1.67,18h-3.29Z"/><path class="e" d="M1060,217.55l1.1,2.5a10.15,10.15,0,0,1-4.52,1.1c-3.86,0-6.5-2.52-6.5-6.81s2.31-6.81,6-6.81c3.42,0,5.55,2.13,5.55,5.81a17.79,17.79,0,0,1-.15,2h-8.17a3.38,3.38,0,0,0,3.41,3.08A7.7,7.7,0,0,0,1060,217.55Zm-1.26-4.67a2.43,2.43,0,0,0-2.6-2.6,2.81,2.81,0,0,0-2.77,2.6Z"/><path class="e" d="M1072.68,219.76a4.83,4.83,0,0,1-3.39,1.39c-3.7,0-5.37-2.85-5.37-6.81s1.69-6.81,5.6-6.81a9,9,0,0,1,3,.49v-5.88l3.19-.52v19.27h-2.42l-.51-1.13Zm-5.53-5.42c0,2.39,1,4.06,2.91,4.06a3.46,3.46,0,0,0,2.46-1.28V211a5,5,0,0,0-2.57-.7C1068.23,210.28,1067.15,211.77,1067.15,214.34Z"/><path class="e" d="M1078.15,210.54l.52-2.75h4.83v13.1h-3.19V210.54Zm3.75-8.4a1.84,1.84,0,1,1,0,3.67A1.81,1.81,0,0,1,1080,204,1.83,1.83,0,0,1,1081.9,202.14Z"/><path class="e" d="M1094.88,207.79h3.19v13.1h-2.42l-.51-1.13H1095a5.46,5.46,0,0,1-3.64,1.39c-2.57,0-4.5-1.7-4.5-5.37v-8h3.18v8c0,1.82.9,2.62,2.11,2.62a3.88,3.88,0,0,0,2.7-1.54Z"/><path class="e" d="M1111,209a6.21,6.21,0,0,1,4-1.44c2.75,0,4.34,1.72,4.34,5.17v8.19h-3.18V213c0-1.83-.7-2.7-1.9-2.7a3.3,3.3,0,0,0-2.16,1.11v9.5h-3.19V213c0-1.83-.64-2.7-1.75-2.7a3.21,3.21,0,0,0-2.31,1.54v9.07h-3.19v-13.1h2.42l.51,1.13h.11a4.66,4.66,0,0,1,3.28-1.39A3.84,3.84,0,0,1,1111,209Z"/><path class="e" d="M920,238.62l5.65-7.71h2.57l-6.14,8.5,6.68,9.48-2.52.26L920,240.57h-2v8.32h-2.26v-18H918v7.71Z"/><path class="e" d="M932.3,243c.2,2.85,1.54,4.47,4.13,4.47a6.92,6.92,0,0,0,3.37-.93l.74,1.55a8.92,8.92,0,0,1-4.36,1.1c-3.65,0-6.15-2.52-6.15-6.81,0-4.06,2.09-6.81,5.78-6.81,3.53,0,5.27,2.06,5.27,5.27a10.6,10.6,0,0,1-.23,2.16Zm0-1.57h6.75a4,4,0,0,0,0-.59c0-2.06-1.08-3.55-3.21-3.55S932.42,239,932.3,241.39Z"/><path class="e" d="M952.59,235.79l-.51,1.72h-5.24v11.38h-2.16v-13.1Z"/><path class="e" d="M964.72,235.79v13.1h-2.15V237.51h-4.06v1.08c0,7-1.16,10.43-3.94,10.43a3.63,3.63,0,0,1-1.72-.46l.62-1.67a1.73,1.73,0,0,0,1,.31c1.36,0,2-2.55,2-9.23v-2.18Z"/><path class="e" d="M974.08,240.57c2.83,0,4.68,1.54,4.68,4.19s-1.85,4.13-4.68,4.13h-5v-13.1h2.16v4.78Zm-2.83,1.72v4.88h2.57c1.67,0,2.73-.9,2.73-2.44s-1.06-2.44-2.73-2.44Z"/><path class="e" d="M990.81,239.15a4.72,4.72,0,0,1,3.47-1.43c2.9,0,5,2.08,5,5.7a5.37,5.37,0,0,1-5.73,5.73c-3.62,0-5.7-2.72-5.7-6.76A12.4,12.4,0,0,1,997,230.65l.74,1.57a10.85,10.85,0,0,0-7,6.88Zm2.77,8c2.06,0,3.45-1.31,3.45-3.78s-1.39-3.75-3.45-3.75a3.94,3.94,0,0,0-3.49,2.72C990.09,245.27,991.27,247.2,993.58,247.2Z"/><path class="e" d="M1002.27,244.11a5.3,5.3,0,0,1,3-4.67v-.08a4.57,4.57,0,0,1-2.42-4.11c0-2.8,1.91-4.6,5.09-4.6s5.09,1.8,5.09,4.6a5.12,5.12,0,0,1-2.42,4.24v.08a5.11,5.11,0,0,1,3,4.54c0,3.24-2.13,5-5.65,5S1002.27,247.35,1002.27,244.11Zm6.29-3.28-1.51-.65a4.69,4.69,0,0,0-2.62,3.93c0,2.24,1.38,3.09,3.49,3.09s3.5-1,3.5-3.09C1011.42,242.57,1010.05,241.44,1008.56,240.83Zm.18-2a4.56,4.56,0,0,0,2.11-3.6,2.94,2.94,0,0,0-5.86,0,3.28,3.28,0,0,0,2.31,3Z"/><path class="e" d="M1016.66,244.11a5.3,5.3,0,0,1,3-4.67v-.08a4.57,4.57,0,0,1-2.42-4.11c0-2.8,1.91-4.6,5.09-4.6s5.09,1.8,5.09,4.6a5.1,5.1,0,0,1-2.42,4.24v.08a5.12,5.12,0,0,1,3,4.54c0,3.24-2.14,5-5.66,5S1016.66,247.35,1016.66,244.11Zm6.29-3.28-1.51-.65a4.69,4.69,0,0,0-2.62,3.93c0,2.24,1.39,3.09,3.49,3.09s3.5-1,3.5-3.09C1025.81,242.57,1024.44,241.44,1023,240.83Zm.19-2a4.58,4.58,0,0,0,2.1-3.6,2.94,2.94,0,0,0-5.86,0,3.27,3.27,0,0,0,2.32,3Z"/><path class="e" d="M1048.42,248.89h-2.16V237.51h-5.73v11.38h-2.16v-13.1h10.05Z"/><path class="e" d="M1051.25,235.79h10.84l-.51,1.72h-3.91v11.38h-2.13V237.51h-4.29Z"/><path class="e" d="M913.74,928.92v-3h2.83v-12h-2.83v-3h9.07l-.51,3h-2.44v12h2.83v3Z"/><path class="e" d="M925.41,919.26c0-2.19,1.77-3.7,4.65-3.7a10.34,10.34,0,0,1,4.27.9L933.25,919a8.39,8.39,0,0,0-3-.64c-1.13,0-1.64.41-1.64,1.05,0,.8.77,1.18,2.08,1.62,1.92.64,4,1.64,4,4.24,0,2.39-2,4-5,4a10.18,10.18,0,0,1-4.55-.95l1.1-2.57a8.34,8.34,0,0,0,3.34.77c1.11,0,1.88-.49,1.88-1.21,0-1-1.26-1.49-2.57-2C927.34,922.67,925.41,921.67,925.41,919.26Z"/><path class="e" d="M946.61,925.58l1.1,2.49a10.12,10.12,0,0,1-4.52,1.11c-3.85,0-6.5-2.52-6.5-6.81s2.31-6.81,6-6.81c3.42,0,5.55,2.13,5.55,5.8a17.79,17.79,0,0,1-.15,2h-8.17a3.38,3.38,0,0,0,3.42,3.09A7.8,7.8,0,0,0,946.61,925.58Zm-1.26-4.68a2.42,2.42,0,0,0-2.59-2.59A2.81,2.81,0,0,0,940,920.9Z"/><path class="e" d="M959.2,928.71a9.29,9.29,0,0,1-2.85.47c-2.36,0-4.29-1.08-4.29-4.14v-6.48H949.8v-2.75h2.26v-3.54l3.18-.52v4.06h3.68l-.52,2.75h-3.16V925c0,1,.42,1.39,1.42,1.39a7.23,7.23,0,0,0,2-.34Z"/><path class="e" d="M972.69,921c-2.31-.9-5-2.52-5-5.5s2.31-4.81,6-4.81a10.74,10.74,0,0,1,5.27,1.39l-1.57,2.62a7,7,0,0,0-3.7-1c-1.62,0-2.57.56-2.57,1.67,0,1.31,1.57,2.28,3.06,2.87,2.82,1.11,5.34,2.5,5.34,5.84,0,3.18-2.36,5.14-6.4,5.14a10.22,10.22,0,0,1-5.8-1.6l1.77-2.67a6.64,6.64,0,0,0,4,1.29c1.73,0,3-.78,3-2.11C976.11,922.47,974.59,921.72,972.69,921Z"/><path class="e" d="M989,920.34c0-1.26-.65-2-2.21-2a10.35,10.35,0,0,0-3.5.69l-1-2.57a13.1,13.1,0,0,1,4.75-.87c4,0,5.09,2.1,5.09,4.83v5a.83.83,0,0,0,.93.93h.28v2.49a5.82,5.82,0,0,1-1.83.26,2.34,2.34,0,0,1-2.31-1.26h-.1a4.43,4.43,0,0,1-3.44,1.26c-2.5,0-4.06-1.24-4.06-3.91s2-3.93,4.9-3.93H989Zm0,4.8v-1.49H986.7c-1.19,0-1.85.59-1.85,1.44a1.3,1.3,0,0,0,1.41,1.34A3.75,3.75,0,0,0,989,925.14Z"/><path class="e" d="M999.19,928.92H996V915.81h2.42l.51,1.14h.1a5,5,0,0,1,3.47-1.39c2.75,0,4.29,1.72,4.29,5.16v8.2h-3.18V921c0-1.82-.7-2.69-1.91-2.69a3.51,3.51,0,0,0-2.51,1.54Z"/><path class="e" d="M1009.77,919.26c0-2.19,1.78-3.7,4.65-3.7a10.34,10.34,0,0,1,4.27.9l-1.08,2.49a8.39,8.39,0,0,0-3-.64c-1.13,0-1.64.41-1.64,1.05,0,.8.77,1.18,2.08,1.62,1.93.64,4,1.64,4,4.24,0,2.39-2,4-5,4a10.21,10.21,0,0,1-4.55-.95l1.11-2.57a8.3,8.3,0,0,0,3.34.77c1.1,0,1.87-.49,1.87-1.21,0-1-1.26-1.49-2.57-2C1011.7,922.67,1009.77,921.67,1009.77,919.26Z"/><path class="e" d="M1042.07,917.18H1042l-3.09,9.37h-3.36l-3.11-9.37h-.08l-1.08,11.74H1028l1.67-18h3.68l3.85,11.57h.08l3.85-11.57h3.68l1.67,18h-3.29Z"/><path class="e" d="M1059,925.58l1.1,2.49a10.16,10.16,0,0,1-4.52,1.11c-3.86,0-6.5-2.52-6.5-6.81s2.31-6.81,6-6.81c3.42,0,5.55,2.13,5.55,5.8a17.79,17.79,0,0,1-.15,2h-8.17a3.38,3.38,0,0,0,3.41,3.09A7.85,7.85,0,0,0,1059,925.58Zm-1.26-4.68a2.43,2.43,0,0,0-2.6-2.59,2.81,2.81,0,0,0-2.77,2.59Z"/><path class="e" d="M1071.68,927.79a4.87,4.87,0,0,1-3.39,1.39c-3.7,0-5.37-2.86-5.37-6.81s1.69-6.81,5.6-6.81a9,9,0,0,1,3,.49v-5.89l3.19-.51v19.27h-2.42l-.51-1.13Zm-5.53-5.42c0,2.39,1,4.06,2.91,4.06a3.44,3.44,0,0,0,2.46-1.29V919a5,5,0,0,0-2.57-.69C1067.23,918.31,1066.15,919.8,1066.15,922.37Z"/><path class="e" d="M1077.15,918.56l.52-2.75h4.83v13.11h-3.19V918.56Zm3.75-8.4a1.84,1.84,0,1,1,0,3.68,1.84,1.84,0,1,1,0-3.68Z"/><path class="e" d="M1093.88,915.81h3.19v13.11h-2.42l-.51-1.13H1094a5.51,5.51,0,0,1-3.64,1.39c-2.57,0-4.5-1.7-4.5-5.37v-8h3.18v8c0,1.82.9,2.62,2.11,2.62a3.86,3.86,0,0,0,2.7-1.55Z"/><path class="e" d="M1110,917a6.15,6.15,0,0,1,4-1.44c2.75,0,4.34,1.72,4.34,5.16v8.2h-3.18V921c0-1.82-.7-2.69-1.9-2.69a3.29,3.29,0,0,0-2.16,1.1v9.51h-3.19V921c0-1.82-.64-2.69-1.75-2.69a3.21,3.21,0,0,0-2.31,1.54v9.07h-3.19V915.81h2.42l.51,1.14h.11a4.62,4.62,0,0,1,3.28-1.39A3.84,3.84,0,0,1,1110,917Z"/><path class="e" d="M919,946.64l5.65-7.71h2.57l-6.14,8.51,6.68,9.48-2.52.26L919,948.59h-2v8.33h-2.26v-18H917v7.71Z"/><path class="e" d="M931.3,951c.2,2.86,1.54,4.47,4.13,4.47a6.92,6.92,0,0,0,3.37-.92l.74,1.54a8.93,8.93,0,0,1-4.36,1.11c-3.65,0-6.15-2.52-6.15-6.81,0-4.06,2.09-6.81,5.78-6.81,3.53,0,5.27,2.05,5.27,5.27a10.58,10.58,0,0,1-.23,2.15Zm0-1.56h6.75a4,4,0,0,0,0-.59c0-2.06-1.08-3.55-3.21-3.55S931.42,947,931.3,949.42Z"/><path class="e" d="M951.59,943.81l-.51,1.73h-5.24v11.38h-2.16V943.81Z"/><path class="e" d="M963.72,943.81v13.11h-2.15V945.54h-4.06v1.08c0,7-1.16,10.43-3.94,10.43a3.75,3.75,0,0,1-1.72-.46l.62-1.67a1.72,1.72,0,0,0,1,.3c1.36,0,2-2.54,2-9.22v-2.19Z"/><path class="e" d="M973.08,948.59c2.83,0,4.68,1.55,4.68,4.19s-1.85,4.14-4.68,4.14h-5V943.81h2.16v4.78Zm-2.83,1.73v4.88h2.57c1.67,0,2.73-.9,2.73-2.44s-1.06-2.44-2.73-2.44Z"/><path class="e" d="M994.15,938.93v16h4.29v1.95h-11.3V955H992V940.88h-4.45l.51-2Z"/><path class="e" d="M1006.23,957.18a8.57,8.57,0,0,1-5.09-1.52l1.05-1.72a6.23,6.23,0,0,0,3.86,1.28c2.29,0,3.85-1.18,3.85-3.83s-1.62-3.85-3.95-3.85h-.78v-.9L1009,941v-.11h-7.27l.52-2h9.14v1.7l-3.62,5.37v.1a4.88,4.88,0,0,1,4.42,5.29C1012.19,955.35,1009.49,957.18,1006.23,957.18Z"/><path class="e" d="M1026.84,951.19c0,4-2.52,6-5.89,6a8.72,8.72,0,0,1-5.16-1.52l1-1.72a6.55,6.55,0,0,0,3.95,1.28c2.16,0,3.78-1.33,3.78-4a3.75,3.75,0,0,0-4.06-4,12.54,12.54,0,0,0-3.67.67v-8.89h9.35l-.52,2H1019v4.63a9.84,9.84,0,0,1,2-.21C1024.42,945.3,1026.84,947.34,1026.84,951.19Z"/><path class="e" d="M1047.42,956.92h-2.16V945.54h-5.73v11.38h-2.16V943.81h10.05Z"/><path class="e" d="M1050.25,943.81h10.84l-.51,1.73h-3.91v11.38h-2.13V945.54h-4.29Z"/><path class="e" d="M1071.27,947.51a1.57,1.57,0,1,1-1.57,1.57A1.58,1.58,0,0,1,1071.27,947.51Z"/><path class="e" d="M1089.31,940.88v16h-2.26v-16h-5.48v-2h13.24l-.52,2Z"/><path class="e" d="M1097,956.25v5.81l-2.16.51V943.81h1.38l.52,1.65h.1a5.19,5.19,0,0,1,4.11-1.9c3.37,0,5.17,2.77,5.17,6.81s-1.62,6.81-5.53,6.81A6.91,6.91,0,0,1,1097,956.25Zm6.91-5.88c0-3-1.26-5.09-3.63-5.09a4.43,4.43,0,0,0-3.28,2v7a5.32,5.32,0,0,0,3.28,1.18C1102.62,955.45,1103.88,953.6,1103.88,950.37Z"/><path class="e" d="M1111.18,951c.2,2.86,1.54,4.47,4.13,4.47a6.92,6.92,0,0,0,3.37-.92l.74,1.54a8.94,8.94,0,0,1-4.37,1.11c-3.64,0-6.14-2.52-6.14-6.81,0-4.06,2.08-6.81,5.79-6.81,3.52,0,5.26,2.05,5.26,5.27a10.58,10.58,0,0,1-.23,2.15Zm0-1.56h6.75a4,4,0,0,0,0-.59c0-2.06-1.08-3.55-3.21-3.55S1111.3,947,1111.18,949.42Z"/><path class="e" d="M1125.72,951v5.88h-2.16V943.81h2.16v5.5h1.85l3.78-5.5h2.31l-4.34,6.33,4.6,6.78-2.21.26-4.17-6.14Z"/><path class="e" d="M1136.49,956.92V943.81h2.16v9.44h.1l6.81-9.44h1.87v13.11h-2.16v-9.48h-.1l-6.81,9.48Z"/><path class="e" d="M1162.05,956.92h-2.15V951H1154v5.88h-2.16V943.81H1154v5.5h5.94v-5.5h2.15Z"/><path class="e" d="M1174.34,943.81l-.52,1.73h-5.24v11.38h-2.16V943.81Z"/><path class="e" d="M1191.45,938.93l-6.55,11.49v.1h4.73V947h2.18v3.52h3.09l-.52,1.93h-2.57v4.47h-2.18v-4.47h-7.45v-1.67l6.75-11.85Z"/><path class="e" d="M1202.86,957.18c-4,0-6.16-3.16-6.16-9.25s2.2-9.26,6.16-9.26,6.17,3.17,6.17,9.26S1206.82,957.18,1202.86,957.18Zm0-2c2.37,0,3.88-2.16,3.88-7.29s-1.51-7.3-3.88-7.3-3.88,2.16-3.88,7.3S1200.5,955.22,1202.86,955.22Z"/><path class="e" d="M917.31,1307.52v-2.47h3v-13h-3v-2.47h8.82l-.52,2.47H923v13h3v2.47Z"/><path class="e" d="M933.89,1299.73c1.9.54,4.06,1.67,4.06,4.09s-1.88,4-4.83,4a11,11,0,0,1-4.42-.9l.9-2.11a8.41,8.41,0,0,0,3.44.77c1.51,0,2.24-.62,2.24-1.59,0-1.34-1.31-1.8-2.78-2.24s-3.52-1.46-3.52-4c0-2.31,1.82-3.54,4.57-3.54a9.54,9.54,0,0,1,4.09.9l-.87,2a8.32,8.32,0,0,0-3-.67c-1.41,0-2.08.54-2.08,1.44C931.65,1298.94,932.47,1299.32,933.89,1299.73Z"/><path class="e" d="M951.33,1301.58H943c.18,2.55,1.52,4,3.88,4a7.24,7.24,0,0,0,3.26-.9l.88,2a9.64,9.64,0,0,1-4.4,1.11c-3.85,0-6.37-2.52-6.37-6.81s2.36-6.81,5.91-6.81,5.4,2,5.4,5.26A10.65,10.65,0,0,1,951.33,1301.58Zm-8.22-2.08h6.07a2.8,2.8,0,0,0-3-3.11C944.45,1296.39,943.34,1297.65,943.11,1299.5Z"/><path class="e" d="M962.51,1307.31a8.94,8.94,0,0,1-2.8.47c-2.36,0-4.11-1.08-4.11-4.14v-7h-2.23v-2.24h2.23v-3.54l2.67-.52v4.06h4l-.51,2.24h-3.45v7.12a1.57,1.57,0,0,0,1.75,1.77,7.35,7.35,0,0,0,2.11-.36Z"/><path class="e" d="M979.94,1302.87c0-1.78-1.72-2.75-3.7-3.52-2.32-.9-5-2.21-5-5.19s2.18-4.89,5.83-4.89a10.23,10.23,0,0,1,5.14,1.39l-1.31,2.19a6.87,6.87,0,0,0-3.83-1.11c-2,0-3,.8-3,2.26s1.78,2.42,3.34,3c2.83,1.11,5.32,2.34,5.32,5.68,0,3.19-2.23,5.07-6.26,5.07a9.8,9.8,0,0,1-5.68-1.6l1.46-2.26a6.73,6.73,0,0,0,4.22,1.39C978.55,1305.31,979.94,1304.54,979.94,1302.87Z"/><path class="e" d="M992.86,1299.81v-.87c0-1.57-.67-2.55-2.59-2.55a10.28,10.28,0,0,0-3.55.7L986,1295a13,13,0,0,1,4.62-.84c4,0,5,2.1,5,4.83v5.5a.83.83,0,0,0,.93.92h.28v2a4.82,4.82,0,0,1-1.54.26,2,2,0,0,1-2.08-1.52H993a4.82,4.82,0,0,1-3.71,1.52c-2.49,0-4-1.24-4-3.91,0-2.49,2-3.93,5-3.93Zm-2.75,2.08a2,2,0,0,0-2.21,1.9,1.73,1.73,0,0,0,1.93,1.75,3.8,3.8,0,0,0,3-1.62v-2Z"/><path class="e" d="M1002.24,1307.52h-2.67v-13.11h1.9l.51,1.39h.11a4.71,4.71,0,0,1,3.7-1.64c2.93,0,4.31,1.72,4.31,5.16v8.2h-2.67v-8c0-2.16-.74-3.11-2.29-3.11a4.1,4.1,0,0,0-2.9,1.83Z"/><path class="e" d="M1018.25,1299.73c1.9.54,4.06,1.67,4.06,4.09s-1.87,4-4.83,4a11,11,0,0,1-4.42-.9l.9-2.11a8.41,8.41,0,0,0,3.44.77c1.52,0,2.24-.62,2.24-1.59,0-1.34-1.31-1.8-2.78-2.24s-3.52-1.46-3.52-4c0-2.31,1.83-3.54,4.58-3.54a9.53,9.53,0,0,1,4.08.9l-.87,2a8.31,8.31,0,0,0-3-.67c-1.42,0-2.08.54-2.08,1.44C1016,1298.94,1016.84,1299.32,1018.25,1299.73Z"/><path class="e" d="M1043.43,1294.88a4.84,4.84,0,0,1-3.72,5l4.7,7.61-3,.26-4.7-7.61h-1.59v7.35h-2.78v-18h5.48C1040.92,1289.53,1043.43,1291.36,1043.43,1294.88Zm-8.32-2.88v5.7h2.57a2.68,2.68,0,0,0,2.87-2.82,2.72,2.72,0,0,0-2.87-2.88Z"/><path class="e" d="M1057,1301.58h-8.33c.18,2.55,1.52,4,3.88,4a7.32,7.32,0,0,0,3.27-.9l.87,2a9.64,9.64,0,0,1-4.4,1.11c-3.85,0-6.37-2.52-6.37-6.81s2.37-6.81,5.91-6.81,5.4,2,5.4,5.26A11.36,11.36,0,0,1,1057,1301.58Zm-8.23-2.08h6.07a2.8,2.8,0,0,0-3-3.11C1050.14,1296.39,1049,1297.65,1048.8,1299.5Z"/><path class="e" d="M1065.59,1303.36a7.42,7.42,0,0,1-2.21-.31,1,1,0,0,0-.41.79c0,.57.3,1,1,1.08l3.68.59c1.67.29,3.8,1.16,3.8,3.6,0,2.8-2.57,4.06-5.94,4.06-3.77,0-5.83-1.33-5.83-3.65a3.56,3.56,0,0,1,1.75-3,2.24,2.24,0,0,1-1-2,2.91,2.91,0,0,1,1.33-2.27,4.29,4.29,0,0,1-1.54-3.46c0-2.88,2.13-4.6,5.35-4.6a7.17,7.17,0,0,1,2.56.46l4.09-1-.51,2.49h-1.57a4.59,4.59,0,0,1,.77,2.63C1070.93,1301.63,1068.8,1303.36,1065.59,1303.36Zm-3.45,5.7c0,1.16,1,1.88,3.39,1.88s3.22-.77,3.22-1.78c0-.85-.7-1.28-2.09-1.51l-3.31-.52A2.22,2.22,0,0,0,1062.14,1309.06Zm.7-10.3c0,1.38.89,2.41,2.75,2.41s2.74-1,2.74-2.41-.89-2.42-2.74-2.42S1062.84,1297.37,1062.84,1298.76Z"/><path class="e" d="M1082.67,1294.41h2.68v13.11h-1.9l-.52-1.39h-.1a5.1,5.1,0,0,1-3.88,1.65c-2.8,0-4.52-1.65-4.52-5.35v-8h2.67v8c0,2.16,1,3.11,2.49,3.11a4.41,4.41,0,0,0,3.08-1.82Z"/><path class="e" d="M1094.85,1307.39a5.82,5.82,0,0,1-2.18.39c-2.18,0-3.34-1.14-3.34-3.65v-15.37l2.67-.51v15.88c0,1,.39,1.41,1.11,1.41a3.45,3.45,0,0,0,1.33-.26Z"/><path class="e" d="M1103.87,1299.81v-.87c0-1.57-.66-2.55-2.59-2.55a10.32,10.32,0,0,0-3.55.7L1097,1295a13,13,0,0,1,4.63-.84c4,0,5,2.1,5,4.83v5.5a.82.82,0,0,0,.92.92h.28v2a4.82,4.82,0,0,1-1.54.26,2,2,0,0,1-2.08-1.52h-.1a4.8,4.8,0,0,1-3.7,1.52c-2.5,0-4.06-1.24-4.06-3.91,0-2.49,2-3.93,5-3.93Zm-2.75,2.08a2,2,0,0,0-2.21,1.9,1.73,1.73,0,0,0,1.93,1.75,3.8,3.8,0,0,0,3-1.62v-2Z"/><path class="e" d="M1117.24,1296.91a3.05,3.05,0,0,0-1.37-.26c-1.38,0-2.39,1.41-2.62,3v7.84h-2.67v-13.11h1.9l.52,2h.1a3.42,3.42,0,0,1,3.34-2.28,6,6,0,0,1,1.67.25Z"/><path class="e" d="M922.43,1325.24l5.65-7.71h2.57l-6.14,8.51,6.68,9.48-2.52.26-6.24-8.59h-2v8.33h-2.26v-18h2.26v7.71Z"/><path class="e" d="M934.74,1329.58c.2,2.85,1.54,4.47,4.13,4.47a6.92,6.92,0,0,0,3.37-.92l.74,1.54a8.9,8.9,0,0,1-4.36,1.11c-3.65,0-6.15-2.52-6.15-6.81,0-4.06,2.09-6.81,5.79-6.81,3.52,0,5.26,2,5.26,5.26a10.6,10.6,0,0,1-.23,2.16Zm0-1.56h6.75a4,4,0,0,0,0-.6c0-2.05-1.08-3.54-3.21-3.54S934.86,1325.57,934.74,1328Z"/><path class="e" d="M955,1322.41l-.52,1.72h-5.24v11.39h-2.16v-13.11Z"/><path class="e" d="M967.17,1322.41v13.11H965v-11.39H961v1.08c0,7-1.16,10.44-3.93,10.44a3.64,3.64,0,0,1-1.73-.47l.62-1.67a1.65,1.65,0,0,0,1,.31c1.36,0,2-2.54,2-9.22v-2.19Z"/><path class="e" d="M976.52,1327.19c2.83,0,4.68,1.54,4.68,4.19s-1.85,4.14-4.68,4.14h-5v-13.11h2.15v4.78Zm-2.83,1.72v4.89h2.57c1.67,0,2.73-.9,2.73-2.44s-1.06-2.45-2.73-2.45Z"/><path class="e" d="M998.7,1327.27a4.76,4.76,0,0,1-3.47,1.44c-2.91,0-5-2.08-5-5.71a5.37,5.37,0,0,1,5.73-5.73c3.62,0,5.71,2.73,5.71,6.76a12.36,12.36,0,0,1-9.1,11.75l-.8-1.57c3-1.21,6-3.42,7-6.89Zm-2.78-8c-2,0-3.44,1.31-3.44,3.77s1.39,3.76,3.44,3.76a3.94,3.94,0,0,0,3.49-2.73C999.41,1321.15,998.23,1319.23,995.92,1319.23Z"/><path class="e" d="M1007.64,1325.78a4.73,4.73,0,0,1,3.47-1.44c2.9,0,5,2.08,5,5.7a5.37,5.37,0,0,1-5.73,5.74c-3.62,0-5.7-2.73-5.7-6.76a12.41,12.41,0,0,1,9.15-11.75l.74,1.57c-3.08,1.11-6,3.42-7,6.89Zm2.77,8c2.06,0,3.45-1.31,3.45-3.78s-1.39-3.75-3.45-3.75a3.94,3.94,0,0,0-3.49,2.73C1006.92,1331.9,1008.1,1333.82,1010.41,1333.82Z"/><path class="e" d="M1036.47,1335.52h-2.16v-11.39h-5.73v11.39h-2.16v-13.11h10Z"/><path class="e" d="M1039.3,1322.41h10.84l-.51,1.72h-3.91v11.39h-2.13v-11.39h-4.29Z"/><path class="e" d="M1060.32,1326.11a1.57,1.57,0,1,1-1.57,1.57A1.59,1.59,0,0,1,1060.32,1326.11Z"/><path class="e" d="M1078.36,1319.48v16h-2.26v-16h-5.48v-2h13.24l-.52,2Z"/><path class="e" d="M1086,1334.85v5.81l-2.16.51v-18.76h1.38l.52,1.65h.1a5.16,5.16,0,0,1,4.11-1.9c3.37,0,5.17,2.77,5.17,6.81s-1.62,6.81-5.53,6.81A6.91,6.91,0,0,1,1086,1334.85Zm6.91-5.88c0-3-1.26-5.09-3.63-5.09a4.4,4.4,0,0,0-3.28,1.95v7a5.32,5.32,0,0,0,3.28,1.18C1091.67,1334.05,1092.93,1332.2,1092.93,1329Z"/><path class="e" d="M1100.22,1329.58c.21,2.85,1.55,4.47,4.14,4.47a6.92,6.92,0,0,0,3.37-.92l.74,1.54a8.87,8.87,0,0,1-4.36,1.11c-3.65,0-6.15-2.52-6.15-6.81,0-4.06,2.09-6.81,5.79-6.81,3.52,0,5.26,2,5.26,5.26a10.6,10.6,0,0,1-.23,2.16Zm0-1.56H1107a4,4,0,0,0,0-.6c0-2.05-1.08-3.54-3.21-3.54S1100.35,1325.57,1100.22,1328Z"/><path class="e" d="M1114.77,1329.63v5.89h-2.16v-13.11h2.16v5.5h1.85l3.78-5.5h2.31l-4.34,6.32,4.6,6.79-2.21.26-4.17-6.15Z"/><path class="e" d="M1125.54,1335.52v-13.11h2.16v9.43h.1l6.81-9.43h1.87v13.11h-2.16V1326h-.1l-6.81,9.48Z"/><path class="e" d="M1151.11,1335.52H1149v-5.89H1143v5.89h-2.16v-13.11H1143v5.5H1149v-5.5h2.16Z"/><path class="e" d="M1163.39,1322.41l-.51,1.72h-5.25v11.39h-2.16v-13.11Z"/><path class="e" d="M1174.8,1325.78a4.73,4.73,0,0,1,3.47-1.44c2.9,0,5,2.08,5,5.7a5.37,5.37,0,0,1-5.73,5.74c-3.62,0-5.7-2.73-5.7-6.76a12.41,12.41,0,0,1,9.15-11.75l.74,1.57c-3.08,1.11-6,3.42-7,6.89Zm2.77,8c2.06,0,3.45-1.31,3.45-3.78s-1.39-3.75-3.45-3.75a3.94,3.94,0,0,0-3.49,2.73C1174.08,1331.9,1175.26,1333.82,1177.57,1333.82Z"/><path class="e" d="M1191.91,1335.78c-4,0-6.16-3.17-6.16-9.26s2.21-9.25,6.16-9.25,6.17,3.16,6.17,9.25S1195.87,1335.78,1191.91,1335.78Zm0-2c2.37,0,3.88-2.16,3.88-7.3s-1.51-7.29-3.88-7.29-3.88,2.16-3.88,7.29S1189.55,1333.82,1191.91,1333.82Z"/><path class="a" d="M333.3,1004.73h18.36l-28,74.25c-4.45,11.74-11.34,21.6-24.3,21.6a24.2,24.2,0,0,1-15.11-4.73l8.23-13.36c2.16,1.62,3.78,2.43,6.21,2.43,2.7,0,5.81-2.57,8.5-9.18l1.9-4.73h-5.41l-29.15-66.28h19.71l20.78,48.74h.41Z"/><path class="a" d="M367.05,1004.73h55.48v94.5H405.25v-78.84h-21.6c0,48.87-6.47,79.51-27.67,79.51a24.59,24.59,0,0,1-9.72-1.89l3.24-14.85a12.88,12.88,0,0,0,4.32.81c9.05,0,13.23-18.63,13.23-75.59Z"/><path class="a" d="M455.07,1081.41a9.59,9.59,0,1,1-9.59,9.58A9.62,9.62,0,0,1,455.07,1081.41Z"/><path class="a" d="M507.18,1099.23v-94.5h29.56c16.88,0,29.57,6.21,29.57,22.68,0,12.42-7.43,19.31-16.07,21.6v.54c11.88,2.84,19.44,10.39,19.44,23.49,0,19.3-14.44,26.19-32.94,26.19Zm28.62-78.84H524.46v22.82H535.8c8.23,0,12.69-4.59,12.69-11.48S544,1020.39,535.8,1020.39Zm.13,37.67H524.46v25.51h11.47c10,0,15.93-5,15.93-12.42C551.86,1062.51,545.92,1058.06,535.93,1058.06Z"/><path class="a" d="M636.91,1078.57h-30l-6.21,20.66H582.51l31.59-94.5h15.79l31.59,94.5H643.26Zm-25.38-15.25h20.79L622.2,1029h-.54Z"/><path class="a" d="M737.35,1036.59h-.41l-42.11,62.64H680.38v-94.5h17.28v62.77h.41l42.11-62.77h14.45v94.5H737.35Zm4.45-48.73c-5.93,9.18-13.63,12.82-24.29,12.82s-18.36-3.64-24.3-12.82l10.8-7.7c3.24,6.48,8.5,9.05,13.5,9.05s10.39-2.7,13.5-9.05Z"/><path class="a" d="M800.26,1042.53h35.37v-37.8h17.28v94.5H835.63v-41H800.26v41H783v-94.5h17.28Z"/><path class="a" d="M881.26,1099.23v-94.5h54.81l-2.7,15.66H898.54v22.14h30.78v15.66H898.54v25.38h37.53v15.66Z"/><path class="a" d="M979,1066v33.21H961.72v-94.5h30.91c18,0,31.46,10.4,31.46,30.65s-13.5,30.64-31.46,30.64Zm0-45.63v30h13.36c8.24,0,13.77-5.53,13.77-15s-5.53-15-13.77-15Z"/><path class="a" d="M1084.57,1078.57h-30l-6.21,20.66h-18.23l31.59-94.5h15.8l31.59,94.5h-18.23Zm-25.38-15.25H1080L1069.85,1029h-.54Z"/><path class="a" d="M450.48,1173.77h11.33L440.88,1241h-12L408,1173.77h11.33l15.36,52.89H435Z"/><path class="a" d="M465.17,1241l22.46-67.19H497.9L520.37,1241h-11l-4.8-15.65H480.91l-4.7,15.65ZM493,1187.49h-.48l-8.93,28.9h18.24Z"/><path class="a" d="M564.24,1173.77h12.09l-21.59,39.16v28H544.37v-28l-21.6-39.16h12.1l14.39,28h.39Z"/><path class="a" d="M630.86,1223.78h.39v-50h10.36V1241H630.48L602,1191h-.39V1241H591.22v-67.19h11.13Z"/><path class="a" d="M664.66,1241v-67.19h38l-1.92,9.21H675v18.62h22.85v9.22H675v20.93h27.65V1241Z"/><path class="a" d="M765.26,1193.73c0,10.37-5.76,16.61-13.92,18.82L768.91,1241l-11.23,1-17.57-28.41h-6V1241H723.79v-67.19h20.45C755.85,1173.77,765.26,1180.58,765.26,1193.73ZM734.16,1183v21.31h9.6c6.14,0,10.75-3.84,10.75-10.56S749.9,1183,743.76,1183Z"/><path class="a" d="M779.47,1241l22.46-67.19h10.28L834.67,1241h-11l-4.8-15.65H795.22L790.51,1241Zm27.84-53.47h-.48l-8.93,28.9h18.24Z"/><path class="a" d="M911.76,1223.59c0-6.63-6.44-10.28-13.83-13.16-8.64-3.36-18.52-8.25-18.52-19.39,0-11.52,8.16-18.23,21.79-18.23a38.06,38.06,0,0,1,19.19,5.18l-4.89,8.16a25.63,25.63,0,0,0-14.3-4.13c-7.3,0-11,3-11,8.45s6.62,9,12.48,11.33c10.56,4.12,19.87,8.73,19.87,21.21,0,11.9-8.35,18.91-23.43,18.91-9.21,0-15-2.11-21.21-6l5.47-8.45a25,25,0,0,0,15.74,5.19C906.57,1232.71,911.76,1229.83,911.76,1223.59Z"/><path class="a" d="M965.32,1183v58H955v-58H935v-9.21h50.4l-1.92,9.21Z"/><path class="a" d="M997.48,1229.25a6.34,6.34,0,1,1-6.33,6.34A6.39,6.39,0,0,1,997.48,1229.25Z"/><g class="f"><rect class="g" x="693.61" width="1.76" height="21.44"/><rect class="g" x="693.61" y="31.93" width="1.76" height="21.44"/><rect class="g" x="693.61" y="63.85" width="1.76" height="21.44"/><rect class="g" x="693.61" y="95.78" width="1.76" height="21.43"/><rect class="g" x="693.61" y="127.7" width="1.76" height="21.44"/><rect class="g" x="693.61" y="159.63" width="1.76" height="21.43"/><rect class="g" x="693.61" y="191.55" width="1.76" height="21.43"/><rect class="g" x="693.61" y="223.48" width="1.76" height="21.44"/><rect class="g" x="693.61" y="255.4" width="1.76" height="21.44"/><rect class="g" x="693.61" y="287.33" width="1.76" height="21.44"/><rect class="g" x="693.61" y="319.26" width="1.76" height="21.43"/><rect class="g" x="693.61" y="351.18" width="1.76" height="21.44"/><rect class="g" x="693.61" y="383.11" width="1.76" height="21.43"/><rect class="g" x="693.61" y="415.03" width="1.76" height="21.43"/></g><g class="f"><rect class="g" x="693.61" y="448.85" width="1.76" height="21.44"/><rect class="g" x="693.61" y="480.77" width="1.76" height="21.44"/><rect class="g" x="693.61" y="512.7" width="1.76" height="21.44"/><rect class="g" x="693.61" y="544.63" width="1.76" height="21.43"/><rect class="g" x="693.61" y="576.55" width="1.76" height="21.44"/><rect class="g" x="693.61" y="608.48" width="1.76" height="21.43"/><rect class="g" x="693.61" y="640.4" width="1.76" height="21.43"/><rect class="g" x="693.61" y="672.33" width="1.76" height="21.44"/><rect class="g" x="693.61" y="704.25" width="1.76" height="21.44"/><rect class="g" x="693.61" y="736.18" width="1.76" height="21.44"/><rect class="g" x="693.61" y="768.11" width="1.76" height="21.43"/><rect class="g" x="693.61" y="800.03" width="1.76" height="21.44"/><rect class="g" x="693.61" y="831.96" width="1.76" height="21.43"/><rect class="g" x="693.61" y="863.88" width="1.76" height="21.43"/></g><path class="g" d="M140.1,188.48v21.14h5.67V213H130v-3.36h6.41V191.84h-5.88l.7-3.36Z"/><path class="g" d="M156.41,213.33c-5.39,0-8.57-4.3-8.57-12.6s3.18-12.6,8.57-12.6,8.58,4.31,8.58,12.6S161.8,213.33,156.41,213.33Zm0-3.36c2.8,0,4.76-2.73,4.76-9.24s-2-9.24-4.76-9.24-4.76,2.73-4.76,9.24S153.61,210,156.41,210Z"/><path class="g" d="M175.28,213.33c-5.39,0-8.58-4.3-8.58-12.6s3.19-12.6,8.58-12.6,8.57,4.31,8.57,12.6S180.67,213.33,175.28,213.33Zm0-3.36c2.8,0,4.76-2.73,4.76-9.24s-2-9.24-4.76-9.24-4.76,2.73-4.76,9.24S172.48,210,175.28,210Z"/><path class="h" d="M140.1,508v21.14h5.67v3.36H130v-3.36h6.41V511.34h-5.88l.7-3.36Z"/><path class="h" d="M160.4,511.34h-12l.7-3.36h15.23v3l-8.54,21.49h-4Z"/><path class="h" d="M175.28,532.83c-5.39,0-8.58-4.3-8.58-12.6s3.19-12.6,8.58-12.6,8.57,4.31,8.57,12.6S180.67,532.83,175.28,532.83Zm0-3.36c2.8,0,4.76-2.73,4.76-9.24s-2-9.24-4.76-9.24-4.76,2.73-4.76,9.24S172.48,529.47,175.28,529.47Z"/><path class="h" d="M149.54,1198.64v21.14h5.67v3.36H139.45v-3.36h6.41V1202H140l.7-3.36Z"/><path class="h" d="M169.28,1212.36a6.32,6.32,0,0,1-4.45,1.51c-4.17,0-7-2.77-7-7.71s3.4-7.87,8-7.87c4.94,0,7.95,3.32,7.95,9,0,8.76-4.9,14.11-12.15,16.21l-1.33-2.87c4.17-1.57,8-3.95,9.14-8.19Zm-3.51-10.71c-2.38,0-4.2,1.61-4.2,4.51s1.82,4.52,4.2,4.52a4.71,4.71,0,0,0,4.24-3C170,1204.13,168.47,1201.65,165.77,1201.65Z"/><path class="g" d="M151,877.15h-12l.7-3.36h15.23v3l-8.55,21.49h-4Z"/><path class="g" d="M162.41,884.75a6.42,6.42,0,0,1,4.45-1.68c4,0,7,2.55,7,7.7s-3.43,7.87-8,7.87c-4.94,0-7.95-3.71-7.95-9.2,0-8.47,5.29-13.9,12.53-16l1.3,2.8c-4,1.44-8.19,4-9.49,8.44Zm3.51,10.53c2.38,0,4.16-1.61,4.16-4.51s-1.78-4.34-4.16-4.34a4.69,4.69,0,0,0-4.24,3C161.68,892.94,163.22,895.28,165.92,895.28Z"/><path class="h" d="M154.33,1052.46c0,5.39-3.85,7.91-8.3,7.91a12.26,12.26,0,0,1-7.1-2.06l1.78-2.94a8.47,8.47,0,0,0,5.08,1.64c2.69,0,4.72-1.4,4.72-4.51,0-3.26-2.1-4.55-4.86-4.55h-1.82v-1.9l5.25-7v-.14h-9.35l.7-3.36h12.82v3l-5,6.65v.1C151.53,1045.84,154.33,1047.73,154.33,1052.46Z"/><path class="h" d="M170.26,1035.52l-8.76,15.3v.14h5.57v-4.45h3.68V1051h4l-.7,3.32h-3.32V1060h-3.68v-5.74h-10v-3l9-15.79Z"/><path class="g" d="M150.41,1138.56a6.28,6.28,0,0,1-4.44,1.5c-4.17,0-7-2.76-7-7.7,0-4.79,3.39-7.87,8-7.87,4.94,0,8,3.32,8,9,0,8.75-4.9,14.11-12.15,16.21l-1.33-2.87c4.17-1.57,8-4,9.14-8.19Zm-3.5-10.71c-2.38,0-4.2,1.61-4.2,4.51s1.82,4.52,4.2,4.52a4.71,4.71,0,0,0,4.23-3.05C151.14,1130.33,149.61,1127.85,146.91,1127.85Z"/><path class="g" d="M173.2,1141.78c0,5.39-3.85,7.91-8.3,7.91a12.32,12.32,0,0,1-7.11-2.06l1.79-2.94a8.44,8.44,0,0,0,5.07,1.64c2.7,0,4.73-1.4,4.73-4.52s-2.1-4.55-4.87-4.55H162.7v-1.89l5.25-7v-.14H158.6l.7-3.36h12.81v3l-5,6.65v.1C170.4,1135.16,173.2,1137.05,173.2,1141.78Z"/><path class="g" d="M139.1,1347.17a6.94,6.94,0,0,1,4.06-6.16v-.1a6.2,6.2,0,0,1-3.29-5.57c0-3.92,2.66-6.37,7.11-6.37s7.11,2.45,7.11,6.37a6.23,6.23,0,0,1-3.29,5.6v.11a6.87,6.87,0,0,1,4.06,6.12c0,4.41-3.08,7-7.88,7S139.1,1351.58,139.1,1347.17Zm6.72-4.83a5.51,5.51,0,0,0-3.08,4.83c0,2.56,1.79,3.64,4.24,3.64s4.24-1.22,4.24-3.64c0-2.1-1.86-3.32-3.92-4.2Zm1-3.11,1.13.45a5.18,5.18,0,0,0,2.52-4.34c0-1.89-1.48-3-3.47-3s-3.47,1.12-3.47,3C143.51,1337.44,145,1338.49,146.8,1339.23Z"/><path class="g" d="M165.85,1354.17c-5.39,0-8.58-4.3-8.58-12.6s3.19-12.6,8.58-12.6,8.57,4.3,8.57,12.6S171.24,1354.17,165.85,1354.17Zm0-3.36c2.79,0,4.76-2.73,4.76-9.24s-2-9.24-4.76-9.24-4.77,2.73-4.77,9.24S163.05,1350.81,165.85,1350.81Z"/><path class="g" d="M678.05,1482.27l-8.75,15.3v.14h5.56v-4.45h3.68v4.45h4l-.7,3.32h-3.32v5.74h-3.68V1501h-10v-3l9-15.79Z"/><path class="g" d="M695.93,1496a6.29,6.29,0,0,1-4.44,1.51c-4.17,0-7-2.77-7-7.71,0-4.79,3.39-7.87,8-7.87,4.94,0,8,3.32,8,9,0,8.75-4.9,14.1-12.15,16.2l-1.33-2.87c4.16-1.57,8-4,9.14-8.19Zm-3.5-10.71c-2.38,0-4.2,1.61-4.2,4.51s1.82,4.52,4.2,4.52a4.72,4.72,0,0,0,4.24-3C696.67,1487.76,695.13,1485.28,692.43,1485.28Z"/><path class="g" d="M711.37,1507.12c-5.4,0-8.58-4.3-8.58-12.6s3.18-12.6,8.58-12.6,8.57,4.3,8.57,12.6S716.76,1507.12,711.37,1507.12Zm0-3.36c2.8,0,4.76-2.73,4.76-9.24s-2-9.24-4.76-9.24-4.77,2.73-4.77,9.24S708.56,1503.76,711.37,1503.76Z"/><path class="g" d="M2261.72,1482.27l-8.75,15.3v.14h5.56v-4.45h3.68v4.45h4l-.7,3.32h-3.32v5.74h-3.68V1501h-10v-3l9-15.79Z"/><path class="g" d="M2279.6,1496a6.29,6.29,0,0,1-4.44,1.51c-4.17,0-7-2.77-7-7.71,0-4.79,3.4-7.87,8-7.87,4.94,0,8,3.32,8,9,0,8.75-4.9,14.1-12.15,16.2l-1.33-2.87c4.17-1.57,8-4,9.14-8.19Zm-3.5-10.71c-2.38,0-4.2,1.61-4.2,4.51s1.82,4.52,4.2,4.52a4.72,4.72,0,0,0,4.24-3C2280.34,1487.76,2278.8,1485.28,2276.1,1485.28Z"/><path class="g" d="M2295,1507.12c-5.39,0-8.58-4.3-8.58-12.6s3.19-12.6,8.58-12.6,8.57,4.3,8.57,12.6S2300.43,1507.12,2295,1507.12Zm0-3.36c2.8,0,4.76-2.73,4.76-9.24s-2-9.24-4.76-9.24-4.76,2.73-4.76,9.24S2292.24,1503.76,2295,1503.76Z"/><path class="g" d="M1461.85,726.71a4.78,4.78,0,0,0-5.11-5,12.38,12.38,0,0,0-5.08,1V710.09h13.09l-.7,3.36h-8.71v5.25a11.88,11.88,0,0,1,2.17-.21c4.48,0,8.15,2.66,8.15,8.22,0,5.39-3.85,8.23-8.29,8.23a12.32,12.32,0,0,1-7.11-2.07l1.79-2.94a8.45,8.45,0,0,0,5.07,1.65A4.49,4.49,0,0,0,1461.85,726.71Z"/><path class="g" d="M1479.38,710.09v21.14h5.67v3.36H1469.3v-3.36h6.41V713.45h-5.88l.7-3.36Z"/><path class="g" d="M1495.69,734.94c-5.39,0-8.57-4.31-8.57-12.6s3.18-12.6,8.57-12.6,8.58,4.3,8.58,12.6S1501.08,734.94,1495.69,734.94Zm0-3.36c2.8,0,4.76-2.73,4.76-9.24s-2-9.24-4.76-9.24-4.76,2.73-4.76,9.24S1492.89,731.58,1495.69,731.58Z"/><rect class="i" x="1276.43" y="22.06" width="112.55" height="1444.68"/><rect class="i" y="22.06" width="113.06" height="1445.79"/><rect class="d" x="1559.96" y="220.67" width="1276.43" height="481.89"/><rect class="d" x="1559.96" y="1004.37" width="1276.43" height="95.87"/><rect class="d" x="1559.96" y="759.26" width="1276.43" height="85.04"/><rect class="d" x="1559.96" y="1173.77" width="1276.43" height="67.14"/><path class="a" d="M2119.52,221V622.75h108v79.81H1911.06V622.75h122.46v-322H1921.38L1935.14,221Z"/><path class="a" d="M2595.62,554c0,106-79.12,155.49-166.5,155.49-60.54,0-103.89-15.82-143.1-40.59l42.65-69.49c27.52,17.89,56.42,30.27,95.64,30.27,45.41,0,82.56-23.39,82.56-75,0-54.35-38.53-75.68-85.32-75.68h-39.21V428.74l96.32-125.22v-2.75H2301.84L2315.6,221h258.69v72.93l-92.88,120.4v2.06C2541.27,427.36,2595.62,466.58,2595.62,554Z"/><path class="e" d="M2474.7,135.63v-3h2.83v-12h-2.83v-3h9.07l-.51,3h-2.44v12h2.82v3Z"/><path class="e" d="M2486.37,126c0-2.18,1.77-3.7,4.65-3.7a10.38,10.38,0,0,1,4.27.9l-1.08,2.49a8.44,8.44,0,0,0-3-.64c-1.13,0-1.64.41-1.64,1.06s.77,1.18,2.08,1.61c1.92.65,4,1.65,4,4.24,0,2.39-2,4-5,4a10,10,0,0,1-4.55-.95l1.1-2.57a8.34,8.34,0,0,0,3.34.77c1.11,0,1.88-.49,1.88-1.21,0-1-1.26-1.49-2.57-2C2488.3,129.39,2486.37,128.39,2486.37,126Z"/><path class="e" d="M2507.57,132.29l1.1,2.5a10.15,10.15,0,0,1-4.52,1.1c-3.85,0-6.5-2.52-6.5-6.81s2.31-6.81,6-6.81c3.42,0,5.55,2.13,5.55,5.81a17.79,17.79,0,0,1-.15,2h-8.17a3.38,3.38,0,0,0,3.41,3.08A7.7,7.7,0,0,0,2507.57,132.29Zm-1.26-4.67a2.43,2.43,0,0,0-2.6-2.6,2.81,2.81,0,0,0-2.77,2.6Z"/><path class="e" d="M2520.16,135.43a9.27,9.27,0,0,1-2.85.46c-2.37,0-4.29-1.08-4.29-4.14v-6.47h-2.26v-2.75H2513V119l3.18-.51v4.06h3.68l-.52,2.75h-3.16v6.47c0,1,.41,1.39,1.42,1.39a7.58,7.58,0,0,0,2-.33Z"/><path class="e" d="M2533.65,127.69c-2.31-.9-5-2.51-5-5.5s2.31-4.8,6-4.8a10.74,10.74,0,0,1,5.27,1.39l-1.57,2.62a6.89,6.89,0,0,0-3.7-1c-1.62,0-2.57.57-2.57,1.67,0,1.31,1.57,2.29,3.06,2.88,2.82,1.1,5.34,2.49,5.34,5.83,0,3.19-2.36,5.14-6.4,5.14a10.22,10.22,0,0,1-5.8-1.59l1.77-2.67a6.7,6.7,0,0,0,4,1.28c1.72,0,3-.77,3-2.11C2537.07,129.18,2535.55,128.44,2533.65,127.69Z"/><path class="e" d="M2550,127.05c0-1.26-.64-2-2.21-2a10.37,10.37,0,0,0-3.49.7l-.95-2.57a12.9,12.9,0,0,1,4.75-.88c4,0,5.09,2.11,5.09,4.83v5a.83.83,0,0,0,.93.92h.28v2.5a6.16,6.16,0,0,1-1.83.25,2.32,2.32,0,0,1-2.31-1.26h-.1a4.39,4.39,0,0,1-3.44,1.26c-2.5,0-4.07-1.23-4.07-3.9s2-3.94,4.91-3.94H2550Zm0,4.81v-1.49h-2.33c-1.19,0-1.85.59-1.85,1.44a1.3,1.3,0,0,0,1.41,1.33A3.74,3.74,0,0,0,2550,131.86Z"/><path class="e" d="M2560.14,135.63H2557v-13.1h2.41l.52,1.13h.1a5.05,5.05,0,0,1,3.47-1.39c2.75,0,4.29,1.72,4.29,5.17v8.19h-3.19v-7.91c0-1.82-.69-2.7-1.9-2.7a3.55,3.55,0,0,0-2.52,1.54Z"/><path class="e" d="M2570.73,126c0-2.18,1.78-3.7,4.65-3.7a10.34,10.34,0,0,1,4.27.9l-1.08,2.49a8.39,8.39,0,0,0-3-.64c-1.13,0-1.64.41-1.64,1.06s.77,1.18,2.08,1.61c1.93.65,4,1.65,4,4.24,0,2.39-2,4-5,4a10,10,0,0,1-4.55-.95l1.1-2.57a8.39,8.39,0,0,0,3.35.77c1.1,0,1.87-.49,1.87-1.21,0-1-1.26-1.49-2.57-2C2572.66,129.39,2570.73,128.39,2570.73,126Z"/><path class="e" d="M2603,123.89H2603l-3.09,9.38h-3.36l-3.11-9.38h-.08l-1.08,11.74H2589l1.67-18h3.68l3.85,11.56h.08l3.85-11.56h3.68l1.67,18h-3.29Z"/><path class="e" d="M2619.92,132.29l1.1,2.5a10.15,10.15,0,0,1-4.52,1.1c-3.86,0-6.5-2.52-6.5-6.81s2.31-6.81,6-6.81c3.42,0,5.55,2.13,5.55,5.81a17.79,17.79,0,0,1-.15,2h-8.18a3.4,3.4,0,0,0,3.42,3.08A7.7,7.7,0,0,0,2619.92,132.29Zm-1.26-4.67a2.43,2.43,0,0,0-2.6-2.6,2.81,2.81,0,0,0-2.77,2.6Z"/><path class="e" d="M2632.64,134.5a4.84,4.84,0,0,1-3.4,1.39c-3.7,0-5.37-2.85-5.37-6.81s1.7-6.81,5.61-6.81a9,9,0,0,1,3,.49v-5.88l3.19-.52v19.27h-2.42l-.51-1.13Zm-5.53-5.42c0,2.39,1,4.06,2.91,4.06a3.46,3.46,0,0,0,2.46-1.28v-6.14a5,5,0,0,0-2.57-.7C2628.19,125,2627.11,126.51,2627.11,129.08Z"/><path class="e" d="M2638.11,125.28l.51-2.75h4.83v13.1h-3.18V125.28Zm3.75-8.4a1.84,1.84,0,1,1,0,3.67,1.81,1.81,0,0,1-1.87-1.82A1.83,1.83,0,0,1,2641.86,116.88Z"/><path class="e" d="M2654.84,122.53H2658v13.1h-2.41l-.51-1.13H2655a5.47,5.47,0,0,1-3.65,1.39c-2.57,0-4.49-1.7-4.49-5.37v-8H2650v8c0,1.82.9,2.62,2.11,2.62a3.88,3.88,0,0,0,2.7-1.54Z"/><path class="e" d="M2671,123.71a6.19,6.19,0,0,1,4-1.44c2.75,0,4.34,1.72,4.34,5.17v8.19h-3.18v-7.91c0-1.82-.7-2.7-1.91-2.7a3.35,3.35,0,0,0-2.16,1.11v9.5h-3.18v-7.91c0-1.82-.64-2.7-1.75-2.7a3.21,3.21,0,0,0-2.31,1.54v9.07h-3.19v-13.1H2664l.51,1.13h.1a4.69,4.69,0,0,1,3.29-1.39A3.84,3.84,0,0,1,2671,123.71Z"/><path class="e" d="M2479.94,153.36l5.66-7.71h2.57l-6.14,8.5,6.68,9.48-2.52.26-6.25-8.58h-2v8.32h-2.26v-18H2478v7.71Z"/><path class="e" d="M2492.25,157.7c.21,2.85,1.55,4.47,4.14,4.47a6.92,6.92,0,0,0,3.37-.93l.74,1.55a8.93,8.93,0,0,1-4.37,1.1c-3.65,0-6.14-2.52-6.14-6.81,0-4.06,2.08-6.81,5.78-6.81,3.52,0,5.27,2.06,5.27,5.27a10.6,10.6,0,0,1-.23,2.16Zm0-1.57H2499a3.89,3.89,0,0,0,0-.59c0-2.06-1.08-3.55-3.21-3.55S2492.38,153.69,2492.25,156.13Z"/><path class="e" d="M2512.55,150.53l-.51,1.72h-5.24v11.38h-2.16v-13.1Z"/><path class="e" d="M2524.68,150.53v13.1h-2.16V152.25h-4.05v1.08c0,7-1.16,10.43-3.94,10.43a3.63,3.63,0,0,1-1.72-.46l.62-1.67a1.65,1.65,0,0,0,1,.31c1.36,0,2-2.55,2-9.23v-2.18Z"/><path class="e" d="M2534,155.31c2.82,0,4.67,1.54,4.67,4.19s-1.85,4.13-4.67,4.13h-5v-13.1h2.16v4.78Zm-2.83,1.72v4.88h2.57c1.67,0,2.72-.9,2.72-2.44s-1.05-2.44-2.72-2.44Z"/><path class="e" d="M2550.77,153.9a4.69,4.69,0,0,1,3.47-1.44c2.9,0,5,2.08,5,5.7a5.37,5.37,0,0,1-5.73,5.73c-3.62,0-5.7-2.72-5.7-6.76a12.41,12.41,0,0,1,9.14-11.74l.75,1.57a10.87,10.87,0,0,0-7,6.88Zm2.77,8c2.06,0,3.44-1.31,3.44-3.78s-1.38-3.75-3.44-3.75a3.94,3.94,0,0,0-3.49,2.72C2550.05,160,2551.23,161.94,2553.54,161.94Z"/><path class="e" d="M2562.23,158.85a5.3,5.3,0,0,1,3-4.67v-.08a4.57,4.57,0,0,1-2.42-4.11c0-2.8,1.9-4.6,5.09-4.6s5.09,1.8,5.09,4.6a5.12,5.12,0,0,1-2.42,4.24v.08a5.11,5.11,0,0,1,3,4.54c0,3.24-2.13,5-5.65,5S2562.23,162.09,2562.23,158.85Zm6.29-3.28-1.51-.65a4.69,4.69,0,0,0-2.62,3.93c0,2.24,1.38,3.09,3.49,3.09s3.5-1,3.5-3.09C2571.38,157.31,2570,156.18,2568.52,155.57Zm.18-2a4.56,4.56,0,0,0,2.11-3.6,2.94,2.94,0,0,0-5.86,0,3.28,3.28,0,0,0,2.31,3Z"/><path class="e" d="M2576.62,158.85a5.3,5.3,0,0,1,3-4.67v-.08a4.57,4.57,0,0,1-2.42-4.11c0-2.8,1.91-4.6,5.09-4.6s5.09,1.8,5.09,4.6a5.12,5.12,0,0,1-2.42,4.24v.08a5.11,5.11,0,0,1,3,4.54c0,3.24-2.13,5-5.65,5S2576.62,162.09,2576.62,158.85Zm6.29-3.28-1.51-.65a4.69,4.69,0,0,0-2.62,3.93c0,2.24,1.38,3.09,3.49,3.09s3.5-1,3.5-3.09C2585.77,157.31,2584.4,156.18,2582.91,155.57Zm.18-2a4.56,4.56,0,0,0,2.11-3.6,2.94,2.94,0,0,0-5.86,0,3.28,3.28,0,0,0,2.31,3Z"/><path class="e" d="M2608.38,163.63h-2.16V152.25h-5.73v11.38h-2.16v-13.1h10.05Z"/><path class="e" d="M2611.21,150.53h10.84l-.51,1.72h-3.91v11.38h-2.13V152.25h-4.29Z"/><path class="e" d="M2474.7,944v-3h2.83V929h-2.83v-3h9.07l-.51,3h-2.44v12h2.82v3Z"/><path class="e" d="M2486.37,934.32c0-2.19,1.77-3.71,4.65-3.71a10.38,10.38,0,0,1,4.27.9l-1.08,2.5a8.45,8.45,0,0,0-3-.65c-1.13,0-1.64.42-1.64,1.06,0,.79.77,1.18,2.08,1.62,1.92.64,4,1.64,4,4.24,0,2.39-2,4-5,4a10,10,0,0,1-4.55-1l1.1-2.57a8.34,8.34,0,0,0,3.34.77c1.11,0,1.88-.48,1.88-1.2,0-1-1.26-1.49-2.57-2C2488.3,937.73,2486.37,936.73,2486.37,934.32Z"/><path class="e" d="M2507.57,940.64l1.1,2.49a10.15,10.15,0,0,1-4.52,1.1c-3.85,0-6.5-2.51-6.5-6.81s2.31-6.81,6-6.81c3.42,0,5.55,2.14,5.55,5.81a17.79,17.79,0,0,1-.15,2h-8.17a3.38,3.38,0,0,0,3.41,3.08A7.84,7.84,0,0,0,2507.57,940.64Zm-1.26-4.68a2.43,2.43,0,0,0-2.6-2.6,2.81,2.81,0,0,0-2.77,2.6Z"/><path class="e" d="M2520.16,943.77a9.27,9.27,0,0,1-2.85.46c-2.37,0-4.29-1.08-4.29-4.13v-6.48h-2.26v-2.75H2513v-3.54l3.18-.52v4.06h3.68l-.52,2.75h-3.16v6.48c0,1,.41,1.38,1.42,1.38a7.19,7.19,0,0,0,2-.33Z"/><path class="e" d="M2533.65,936c-2.31-.9-5-2.52-5-5.5s2.31-4.81,6-4.81a10.74,10.74,0,0,1,5.27,1.39l-1.57,2.62a6.89,6.89,0,0,0-3.7-1c-1.62,0-2.57.57-2.57,1.67,0,1.31,1.57,2.29,3.06,2.88,2.82,1.11,5.34,2.49,5.34,5.83,0,3.19-2.36,5.14-6.4,5.14a10.22,10.22,0,0,1-5.8-1.59L2530,940a6.7,6.7,0,0,0,4,1.28c1.72,0,3-.77,3-2.1C2537.07,937.53,2535.55,936.78,2533.65,936Z"/><path class="e" d="M2550,935.39c0-1.25-.64-2-2.21-2a10.37,10.37,0,0,0-3.49.7l-.95-2.57a13.11,13.11,0,0,1,4.75-.88c4,0,5.09,2.11,5.09,4.84v5a.83.83,0,0,0,.93.93h.28v2.49a6.13,6.13,0,0,1-1.83.26,2.34,2.34,0,0,1-2.31-1.26h-.1a4.43,4.43,0,0,1-3.44,1.26c-2.5,0-4.07-1.24-4.07-3.91s2-3.93,4.91-3.93H2550Zm0,4.81v-1.49h-2.33c-1.19,0-1.85.59-1.85,1.44a1.3,1.3,0,0,0,1.41,1.33A3.7,3.7,0,0,0,2550,940.2Z"/><path class="e" d="M2560.14,944H2557V930.87h2.41l.52,1.13h.1a5.05,5.05,0,0,1,3.47-1.39c2.75,0,4.29,1.73,4.29,5.17V944h-3.19v-7.92c0-1.82-.69-2.7-1.9-2.7a3.53,3.53,0,0,0-2.52,1.55Z"/><path class="e" d="M2570.73,934.32c0-2.19,1.78-3.71,4.65-3.71a10.34,10.34,0,0,1,4.27.9l-1.08,2.5a8.4,8.4,0,0,0-3-.65c-1.13,0-1.64.42-1.64,1.06,0,.79.77,1.18,2.08,1.62,1.93.64,4,1.64,4,4.24,0,2.39-2,4-5,4a10,10,0,0,1-4.55-1l1.1-2.57a8.39,8.39,0,0,0,3.35.77c1.1,0,1.87-.48,1.87-1.2,0-1-1.26-1.49-2.57-2C2572.66,937.73,2570.73,936.73,2570.73,934.32Z"/><path class="e" d="M2603,932.23H2603l-3.09,9.38h-3.36l-3.11-9.38h-.08L2592.24,944H2589l1.67-18h3.68l3.85,11.56h.08l3.85-11.56h3.68l1.67,18h-3.29Z"/><path class="e" d="M2619.92,940.64l1.1,2.49a10.15,10.15,0,0,1-4.52,1.1c-3.86,0-6.5-2.51-6.5-6.81s2.31-6.81,6-6.81c3.42,0,5.55,2.14,5.55,5.81a17.79,17.79,0,0,1-.15,2h-8.18a3.4,3.4,0,0,0,3.42,3.08A7.84,7.84,0,0,0,2619.92,940.64Zm-1.26-4.68a2.43,2.43,0,0,0-2.6-2.6,2.81,2.81,0,0,0-2.77,2.6Z"/><path class="e" d="M2632.64,942.85a4.87,4.87,0,0,1-3.4,1.38c-3.7,0-5.37-2.85-5.37-6.81s1.7-6.81,5.61-6.81a9,9,0,0,1,3,.49v-5.88l3.19-.52V944h-2.42l-.51-1.13Zm-5.53-5.43c0,2.39,1,4.06,2.91,4.06a3.42,3.42,0,0,0,2.46-1.28v-6.14a5,5,0,0,0-2.57-.7C2628.19,933.36,2627.11,934.85,2627.11,937.42Z"/><path class="e" d="M2638.11,933.62l.51-2.75h4.83V944h-3.18V933.62Zm3.75-8.4a1.85,1.85,0,0,1,1.9,1.85,1.83,1.83,0,0,1-1.9,1.82,1.81,1.81,0,0,1-1.87-1.82A1.83,1.83,0,0,1,2641.86,925.22Z"/><path class="e" d="M2654.84,930.87H2658V944h-2.41l-.51-1.13H2655a5.51,5.51,0,0,1-3.65,1.38c-2.57,0-4.49-1.69-4.49-5.37v-8H2650v8c0,1.83.9,2.62,2.11,2.62a3.88,3.88,0,0,0,2.7-1.54Z"/><path class="e" d="M2671,932.05a6.19,6.19,0,0,1,4-1.44c2.75,0,4.34,1.73,4.34,5.17V944h-3.18v-7.92c0-1.82-.7-2.7-1.91-2.7a3.35,3.35,0,0,0-2.16,1.11V944h-3.18v-7.92c0-1.82-.64-2.7-1.75-2.7a3.2,3.2,0,0,0-2.31,1.55V944h-3.19V930.87H2664l.51,1.13h.1a4.69,4.69,0,0,1,3.29-1.39A3.84,3.84,0,0,1,2671,932.05Z"/><path class="e" d="M2479.94,961.7l5.66-7.71h2.57l-6.14,8.5,6.68,9.49-2.52.25-6.25-8.58h-2V972h-2.26V954H2478v7.71Z"/><path class="e" d="M2492.25,966c.21,2.85,1.55,4.47,4.14,4.47a6.92,6.92,0,0,0,3.37-.92l.74,1.54a8.93,8.93,0,0,1-4.37,1.1c-3.65,0-6.14-2.51-6.14-6.81,0-4.06,2.08-6.81,5.78-6.81,3.52,0,5.27,2.06,5.27,5.27a10.6,10.6,0,0,1-.23,2.16Zm0-1.57H2499a3.82,3.82,0,0,0,0-.59c0-2-1.08-3.54-3.21-3.54S2492.38,962,2492.25,964.47Z"/><path class="e" d="M2512.55,958.87l-.51,1.72h-5.24V972h-2.16V958.87Z"/><path class="e" d="M2524.68,958.87V972h-2.16V960.59h-4.05v1.08c0,7-1.16,10.44-3.94,10.44a3.63,3.63,0,0,1-1.72-.47l.62-1.67a1.65,1.65,0,0,0,1,.31c1.36,0,2-2.54,2-9.22v-2.19Z"/><path class="e" d="M2534,963.65c2.82,0,4.67,1.54,4.67,4.19S2536.86,972,2534,972h-5V958.87h2.16v4.78Zm-2.83,1.72v4.88h2.57c1.67,0,2.72-.89,2.72-2.44s-1.05-2.44-2.72-2.44Z"/><path class="e" d="M2555.11,954v16h4.29v2h-11.31v-2h4.84V955.94h-4.45l.51-2Z"/><path class="e" d="M2567.19,972.23a8.64,8.64,0,0,1-5.09-1.51l1.05-1.72a6.23,6.23,0,0,0,3.86,1.28c2.28,0,3.85-1.18,3.85-3.83s-1.62-3.85-4-3.85h-.77v-.9L2570,956v-.1h-7.27l.51-2h9.15v1.7l-3.62,5.37v.1c2.47.33,4.42,2,4.42,5.29C2573.15,970.41,2570.45,972.23,2567.19,972.23Z"/><path class="e" d="M2587.8,966.25c0,4-2.52,6-5.89,6a8.72,8.72,0,0,1-5.16-1.51l1-1.72a6.6,6.6,0,0,0,4,1.28c2.16,0,3.78-1.34,3.78-4a3.75,3.75,0,0,0-4.06-4,12.36,12.36,0,0,0-3.68.67V954h9.36l-.52,2H2580v4.63a9.21,9.21,0,0,1,2.05-.21C2585.38,960.36,2587.8,962.39,2587.8,966.25Z"/><path class="e" d="M2608.38,972h-2.16V960.59h-5.73V972h-2.16V958.87h10.05Z"/><path class="e" d="M2611.21,958.87h10.84l-.51,1.72h-3.91V972h-2.13V960.59h-4.29Z"/><path class="e" d="M2632.23,962.57a1.57,1.57,0,1,1-1.57,1.57A1.59,1.59,0,0,1,2632.23,962.57Z"/><path class="e" d="M2650.27,955.94v16H2648v-16h-5.47v-2h13.23l-.51,2Z"/><path class="e" d="M2657.92,971.31v5.81l-2.15.51V958.87h1.38l.52,1.65h.1a5.17,5.17,0,0,1,4.11-1.91c3.37,0,5.17,2.78,5.17,6.81s-1.62,6.81-5.53,6.81A7,7,0,0,1,2657.92,971.31Zm6.92-5.89c0-3-1.26-5.08-3.63-5.08a4.44,4.44,0,0,0-3.29,1.95v7a5.36,5.36,0,0,0,3.29,1.18C2663.58,970.51,2664.84,968.66,2664.84,965.42Z"/><path class="e" d="M2672.13,966c.21,2.85,1.55,4.47,4.14,4.47a6.92,6.92,0,0,0,3.37-.92l.74,1.54a8.93,8.93,0,0,1-4.37,1.1c-3.64,0-6.14-2.51-6.14-6.81,0-4.06,2.08-6.81,5.78-6.81,3.52,0,5.27,2.06,5.27,5.27a11.36,11.36,0,0,1-.23,2.16Zm0-1.57h6.76a3.82,3.82,0,0,0,0-.59c0-2-1.08-3.54-3.21-3.54S2672.26,962,2672.13,964.47Z"/><path class="e" d="M2686.68,966.09V972h-2.16V958.87h2.16v5.5h1.85l3.78-5.5h2.31l-4.34,6.32,4.6,6.79-2.21.25-4.17-6.14Z"/><path class="e" d="M2697.45,972V958.87h2.15v9.43h.11l6.81-9.43h1.87V972h-2.16v-9.49h-.1l-6.81,9.49Z"/><path class="e" d="M2723,972h-2.15v-5.89h-5.94V972h-2.16V958.87h2.16v5.5h5.94v-5.5H2723Z"/><path class="e" d="M2735.3,958.87l-.52,1.72h-5.24V972h-2.16V958.87Z"/><path class="e" d="M2752.41,954l-6.55,11.49v.1h4.73v-3.52h2.18v3.52h3.08l-.51,1.93h-2.57V972h-2.18v-4.47h-7.45v-1.67l6.75-11.85Z"/><path class="e" d="M2763.82,972.23c-4,0-6.17-3.16-6.17-9.25s2.21-9.25,6.17-9.25,6.17,3.16,6.17,9.25S2767.78,972.23,2763.82,972.23Zm0-2c2.36,0,3.88-2.16,3.88-7.3s-1.52-7.29-3.88-7.29-3.88,2.15-3.88,7.29S2761.46,970.28,2763.82,970.28Z"/><path class="e" d="M2009.16,898.29v-2.46h2.95V882.77h-2.95v-2.46H2018l-.51,2.46h-2.57v13.06h2.95v2.46Z"/><path class="e" d="M2025.73,890.51c1.9.54,4.06,1.67,4.06,4.08s-1.87,4-4.83,4a10.86,10.86,0,0,1-4.42-.9l.9-2.11a8.41,8.41,0,0,0,3.44.78c1.52,0,2.24-.62,2.24-1.6,0-1.33-1.31-1.8-2.78-2.23s-3.52-1.47-3.52-4c0-2.31,1.83-3.55,4.58-3.55a9.68,9.68,0,0,1,4.08.9l-.87,2a8.27,8.27,0,0,0-3-.67c-1.42,0-2.08.54-2.08,1.44C2023.5,889.71,2024.32,890.1,2025.73,890.51Z"/><path class="e" d="M2043.18,892.36h-8.33c.18,2.54,1.52,4,3.88,4a7.38,7.38,0,0,0,3.27-.9l.87,2a9.6,9.6,0,0,1-4.39,1.1c-3.86,0-6.38-2.52-6.38-6.81s2.37-6.81,5.91-6.81,5.4,2.06,5.4,5.27A11.36,11.36,0,0,1,2043.18,892.36Zm-8.22-2.08H2041a2.8,2.8,0,0,0-3-3.11C2036.29,887.17,2035.19,888.43,2035,890.28Z"/><path class="e" d="M2054.36,898.09a9,9,0,0,1-2.8.46c-2.37,0-4.11-1.08-4.11-4.14v-7h-2.24v-2.24h2.24v-3.55l2.67-.51v4.06h4l-.52,2.24h-3.44v7.11a1.57,1.57,0,0,0,1.75,1.78,7.24,7.24,0,0,0,2.1-.36Z"/><path class="e" d="M2071.78,893.64c0-1.77-1.72-2.75-3.7-3.52-2.31-.9-5-2.21-5-5.19s2.18-4.88,5.83-4.88a10.18,10.18,0,0,1,5.14,1.39l-1.31,2.18a6.85,6.85,0,0,0-3.83-1.1c-1.95,0-2.95.79-2.95,2.26s1.77,2.41,3.34,3c2.83,1.11,5.32,2.34,5.32,5.68,0,3.19-2.24,5.06-6.27,5.06a9.79,9.79,0,0,1-5.68-1.59l1.46-2.26a6.74,6.74,0,0,0,4.22,1.38C2070.39,896.08,2071.78,895.31,2071.78,893.64Z"/><path class="e" d="M2084.71,890.59v-.88c0-1.57-.67-2.54-2.6-2.54a10.54,10.54,0,0,0-3.55.69l-.77-2.08a13,13,0,0,1,4.63-.85c4,0,5,2.11,5,4.83v5.5a.83.83,0,0,0,.92.93h.29v2a4.89,4.89,0,0,1-1.55.25,2,2,0,0,1-2.08-1.51h-.1a4.78,4.78,0,0,1-3.7,1.51c-2.49,0-4.06-1.23-4.06-3.9,0-2.5,2.06-3.93,5-3.93Zm-2.75,2.08a2,2,0,0,0-2.21,1.9,1.72,1.72,0,0,0,1.92,1.75,3.86,3.86,0,0,0,3-1.62v-2Z"/><path class="e" d="M2094.09,898.29h-2.68v-13.1h1.9l.52,1.39h.1a4.73,4.73,0,0,1,3.7-1.65c2.93,0,4.32,1.72,4.32,5.17v8.19h-2.67v-8c0-2.16-.75-3.11-2.29-3.11a4.08,4.08,0,0,0-2.9,1.82Z"/><path class="e" d="M2110.09,890.51c1.91.54,4.07,1.67,4.07,4.08s-1.88,4-4.84,4a10.9,10.9,0,0,1-4.42-.9l.9-2.11a8.5,8.5,0,0,0,3.45.78c1.51,0,2.23-.62,2.23-1.6,0-1.33-1.31-1.8-2.77-2.23s-3.52-1.47-3.52-4c0-2.31,1.82-3.55,4.57-3.55a9.69,9.69,0,0,1,4.09.9l-.88,2a8.23,8.23,0,0,0-3-.67c-1.41,0-2.08.54-2.08,1.44C2107.86,889.71,2108.68,890.1,2110.09,890.51Z"/><path class="e" d="M2135.28,885.65a4.84,4.84,0,0,1-3.73,5l4.7,7.6-3,.26-4.7-7.6H2127v7.34h-2.77v-18h5.47C2132.76,880.31,2135.28,882.13,2135.28,885.65Zm-8.33-2.88v5.71h2.57a2.68,2.68,0,0,0,2.88-2.83,2.72,2.72,0,0,0-2.88-2.88Z"/><path class="e" d="M2148.87,892.36h-8.32c.18,2.54,1.51,4,3.88,4a7.37,7.37,0,0,0,3.26-.9l.87,2a9.6,9.6,0,0,1-4.39,1.1c-3.86,0-6.37-2.52-6.37-6.81s2.36-6.81,5.91-6.81,5.39,2.06,5.39,5.27A10.6,10.6,0,0,1,2148.87,892.36Zm-8.22-2.08h6.06a2.79,2.79,0,0,0-2.95-3.11C2142,887.17,2140.88,888.43,2140.65,890.28Z"/><path class="e" d="M2157.43,894.13a7.15,7.15,0,0,1-2.21-.31,1.07,1.07,0,0,0-.41.8c0,.57.31,1,1,1.08l3.67.59c1.67.28,3.8,1.16,3.8,3.6,0,2.8-2.57,4.06-5.93,4.06-3.78,0-5.83-1.34-5.83-3.65a3.57,3.57,0,0,1,1.74-3,2.27,2.27,0,0,1-1-2,2.92,2.92,0,0,1,1.34-2.26,4.3,4.3,0,0,1-1.54-3.47c0-2.88,2.13-4.6,5.34-4.6a7,7,0,0,1,2.57.47l4.09-1-.52,2.49H2162a4.55,4.55,0,0,1,.77,2.62C2162.77,892.41,2160.64,894.13,2157.43,894.13Zm-3.44,5.71c0,1.15,1,1.87,3.39,1.87s3.21-.77,3.21-1.77-.69-1.29-2.08-1.52l-3.32-.51A2.2,2.2,0,0,0,2154,899.84Zm.69-10.31c0,1.39.9,2.42,2.75,2.42s2.75-1,2.75-2.42-.9-2.41-2.75-2.41S2154.68,888.14,2154.68,889.53Z"/><path class="e" d="M2174.52,885.19h2.67v13.1h-1.9l-.52-1.38h-.1a5.11,5.11,0,0,1-3.88,1.64c-2.8,0-4.52-1.64-4.52-5.34v-8h2.67v8c0,2.16.95,3.11,2.49,3.11a4.43,4.43,0,0,0,3.09-1.83Z"/><path class="e" d="M2186.7,898.17a6,6,0,0,1-2.19.38c-2.18,0-3.34-1.13-3.34-3.65V879.54l2.68-.52V894.9c0,1,.38,1.42,1.1,1.42a3.73,3.73,0,0,0,1.34-.26Z"/><path class="e" d="M2195.72,890.59v-.88c0-1.57-.67-2.54-2.6-2.54a10.44,10.44,0,0,0-3.54.69l-.78-2.08a13,13,0,0,1,4.63-.85c4,0,5,2.11,5,4.83v5.5a.83.83,0,0,0,.92.93h.29v2a4.87,4.87,0,0,1-1.54.25,2,2,0,0,1-2.09-1.51h-.1a4.78,4.78,0,0,1-3.7,1.51c-2.49,0-4.06-1.23-4.06-3.9,0-2.5,2.06-3.93,5-3.93Zm-2.75,2.08a2,2,0,0,0-2.21,1.9,1.72,1.72,0,0,0,1.93,1.75,3.84,3.84,0,0,0,3-1.62v-2Z"/><path class="e" d="M2209.08,887.68a3.2,3.2,0,0,0-1.36-.25c-1.39,0-2.39,1.41-2.62,3v7.83h-2.67v-13.1h1.9l.51,2h.1a3.42,3.42,0,0,1,3.34-2.29,6,6,0,0,1,1.67.26Z"/><path class="e" d="M2014.27,916l5.65-7.71h2.57l-6.14,8.5,6.68,9.48-2.52.26-6.24-8.58h-2v8.32h-2.26v-18h2.26V916Z"/><path class="e" d="M2026.58,920.36c.21,2.85,1.54,4.47,4.14,4.47a6.91,6.91,0,0,0,3.36-.93l.75,1.55a8.93,8.93,0,0,1-4.37,1.1c-3.65,0-6.14-2.52-6.14-6.81,0-4.06,2.08-6.81,5.78-6.81,3.52,0,5.27,2.06,5.27,5.27a11.36,11.36,0,0,1-.23,2.16Zm0-1.57h6.76a5.72,5.72,0,0,0,0-.59c0-2.06-1.08-3.55-3.21-3.55S2026.71,916.35,2026.58,918.79Z"/><path class="e" d="M2046.88,913.19l-.51,1.72h-5.25v11.38H2039v-13.1Z"/><path class="e" d="M2059,913.19v13.1h-2.16V914.91h-4.06V916c0,7-1.15,10.43-3.93,10.43a3.6,3.6,0,0,1-1.72-.46l.62-1.67a1.65,1.65,0,0,0,1,.31c1.36,0,2-2.55,2-9.23v-2.18Z"/><path class="e" d="M2068.36,918c2.83,0,4.68,1.54,4.68,4.19s-1.85,4.13-4.68,4.13h-5v-13.1h2.16V918Zm-2.82,1.72v4.88h2.57c1.67,0,2.72-.9,2.72-2.44s-1-2.44-2.72-2.44Z"/><path class="e" d="M2089.43,908.31v16h4.3v1.95h-11.31v-1.95h4.83V910.26h-4.44l.51-2Z"/><path class="e" d="M2101.87,910a8,8,0,0,0-3.93,1.29l-1-1.72a10.08,10.08,0,0,1,5.37-1.52c3.16,0,4.86,1.8,4.86,4.93,0,4.32-4.24,8.79-7.33,11.26v.1h7.84l-.51,1.95h-10.54V924.6c3.62-2.83,8.25-7.43,8.25-11.41C2104.93,911.16,2104.06,910,2101.87,910Z"/><path class="e" d="M2116.6,926.55c-4,0-6.17-3.16-6.17-9.25s2.21-9.25,6.17-9.25,6.16,3.16,6.16,9.25S2120.55,926.55,2116.6,926.55Zm0-1.95c2.36,0,3.88-2.16,3.88-7.3s-1.52-7.3-3.88-7.3-3.88,2.16-3.88,7.3S2114.23,924.6,2116.6,924.6Z"/><path class="e" d="M2142.71,926.29h-2.16V914.91h-5.73v11.38h-2.16v-13.1h10.05Z"/><path class="e" d="M2145.53,913.19h10.85l-.52,1.72H2152v11.38h-2.14V914.91h-4.29Z"/><path class="e" d="M2477.27,1294.41V1292h3v-13.06h-3v-2.46h8.82l-.52,2.46H2483V1292h3v2.46Z"/><path class="e" d="M2493.85,1286.63c1.9.54,4.06,1.67,4.06,4.08s-1.88,4-4.83,4a10.83,10.83,0,0,1-4.42-.9l.89-2.11a8.5,8.5,0,0,0,3.45.77c1.51,0,2.23-.61,2.23-1.59,0-1.34-1.31-1.8-2.77-2.23s-3.52-1.47-3.52-4c0-2.32,1.82-3.55,4.57-3.55a9.69,9.69,0,0,1,4.09.9l-.88,2a8.42,8.42,0,0,0-3-.66c-1.41,0-2.08.54-2.08,1.44C2491.61,1285.83,2492.43,1286.22,2493.85,1286.63Z"/><path class="e" d="M2511.29,1288.48H2503c.18,2.54,1.51,4,3.88,4a7.24,7.24,0,0,0,3.26-.9l.88,2a9.52,9.52,0,0,1-4.4,1.11c-3.85,0-6.37-2.52-6.37-6.81s2.36-6.81,5.91-6.81,5.39,2.06,5.39,5.27A10.6,10.6,0,0,1,2511.29,1288.48Zm-8.22-2.08h6.07a2.8,2.8,0,0,0-3-3.11C2504.41,1283.29,2503.3,1284.55,2503.07,1286.4Z"/><path class="e" d="M2522.47,1294.21a8.92,8.92,0,0,1-2.8.46c-2.36,0-4.11-1.08-4.11-4.14v-7h-2.24v-2.23h2.24v-3.55l2.67-.51v4.06h4l-.51,2.23h-3.45v7.12a1.57,1.57,0,0,0,1.75,1.77,7,7,0,0,0,2.11-.36Z"/><path class="e" d="M2539.89,1289.76c0-1.77-1.72-2.75-3.7-3.52-2.31-.9-5-2.21-5-5.19s2.18-4.88,5.83-4.88a10.13,10.13,0,0,1,5.14,1.39l-1.31,2.18a6.87,6.87,0,0,0-3.83-1.1c-2,0-3,.79-3,2.26s1.78,2.41,3.34,3c2.83,1.1,5.32,2.34,5.32,5.68,0,3.18-2.23,5.06-6.27,5.06a9.89,9.89,0,0,1-5.68-1.59l1.47-2.26a6.71,6.71,0,0,0,4.21,1.38C2538.51,1292.2,2539.89,1291.43,2539.89,1289.76Z"/><path class="e" d="M2552.82,1286.7v-.87c0-1.57-.67-2.54-2.6-2.54a10.25,10.25,0,0,0-3.54.69l-.77-2.08a12.7,12.7,0,0,1,4.62-.85c4,0,5,2.11,5,4.83v5.5a.83.83,0,0,0,.93.93h.28v2a4.6,4.6,0,0,1-1.54.26,2,2,0,0,1-2.08-1.52H2553a4.75,4.75,0,0,1-3.7,1.52c-2.49,0-4.06-1.23-4.06-3.9,0-2.5,2.06-3.94,5-3.94Zm-2.75,2.09a2,2,0,0,0-2.21,1.9,1.72,1.72,0,0,0,1.93,1.74,3.82,3.82,0,0,0,3-1.61v-2Z"/><path class="e" d="M2562.2,1294.41h-2.67v-13.1h1.9l.51,1.39h.11a4.72,4.72,0,0,1,3.7-1.65c2.93,0,4.31,1.72,4.31,5.17v8.19h-2.67v-8c0-2.16-.74-3.11-2.29-3.11a4.06,4.06,0,0,0-2.9,1.82Z"/><path class="e" d="M2578.21,1286.63c1.9.54,4.06,1.67,4.06,4.08s-1.88,4-4.83,4a10.83,10.83,0,0,1-4.42-.9l.9-2.11a8.41,8.41,0,0,0,3.44.77c1.52,0,2.24-.61,2.24-1.59,0-1.34-1.31-1.8-2.78-2.23s-3.52-1.47-3.52-4c0-2.32,1.83-3.55,4.58-3.55a9.68,9.68,0,0,1,4.08.9l-.87,2a8.52,8.52,0,0,0-3-.66c-1.41,0-2.08.54-2.08,1.44C2576,1285.83,2576.8,1286.22,2578.21,1286.63Z"/><path class="e" d="M2603.39,1281.77a4.84,4.84,0,0,1-3.72,5l4.7,7.6-3,.26-4.7-7.61h-1.59v7.35h-2.78v-18h5.47C2600.87,1276.43,2603.39,1278.25,2603.39,1281.77Zm-8.32-2.88v5.71h2.57a2.68,2.68,0,0,0,2.87-2.83,2.72,2.72,0,0,0-2.87-2.88Z"/><path class="e" d="M2617,1288.48h-8.33c.18,2.54,1.52,4,3.88,4a7.24,7.24,0,0,0,3.26-.9l.88,2a9.52,9.52,0,0,1-4.4,1.11c-3.85,0-6.37-2.52-6.37-6.81s2.36-6.81,5.91-6.81,5.4,2.06,5.4,5.27A11.36,11.36,0,0,1,2617,1288.48Zm-8.23-2.08h6.07a2.8,2.8,0,0,0-3-3.11C2610.1,1283.29,2609,1284.55,2608.76,1286.4Z"/><path class="e" d="M2625.54,1290.25a7.2,7.2,0,0,1-2.21-.31,1.1,1.1,0,0,0-.41.8c0,.56.31,1,1,1.08l3.68.59c1.67.28,3.8,1.15,3.8,3.6,0,2.8-2.57,4.06-5.94,4.06-3.77,0-5.83-1.34-5.83-3.65a3.59,3.59,0,0,1,1.75-3,2.23,2.23,0,0,1-1-2,2.92,2.92,0,0,1,1.34-2.26,4.3,4.3,0,0,1-1.54-3.47c0-2.88,2.13-4.6,5.34-4.6a7.19,7.19,0,0,1,2.57.46l4.09-1-.52,2.49h-1.56a4.55,4.55,0,0,1,.77,2.62C2630.89,1288.53,2628.76,1290.25,2625.54,1290.25Zm-3.44,5.7c0,1.16,1,1.88,3.39,1.88s3.21-.77,3.21-1.77c0-.85-.69-1.29-2.08-1.52l-3.31-.51A2.19,2.19,0,0,0,2622.1,1296Zm.69-10.3c0,1.39.9,2.42,2.75,2.42s2.75-1,2.75-2.42-.9-2.42-2.75-2.42S2622.79,1284.26,2622.79,1285.65Z"/><path class="e" d="M2642.63,1281.31h2.67v13.1h-1.9l-.51-1.39h-.1a5.1,5.1,0,0,1-3.88,1.65c-2.8,0-4.53-1.65-4.53-5.35v-8h2.68v8c0,2.16,1,3.11,2.49,3.11a4.38,4.38,0,0,0,3.08-1.82Z"/><path class="e" d="M2654.81,1294.28a5.82,5.82,0,0,1-2.18.39c-2.19,0-3.34-1.13-3.34-3.65v-15.37l2.67-.51V1291c0,1,.39,1.41,1.11,1.41a3.61,3.61,0,0,0,1.33-.25Z"/><path class="e" d="M2663.83,1286.7v-.87c0-1.57-.67-2.54-2.59-2.54a10.26,10.26,0,0,0-3.55.69l-.77-2.08a12.76,12.76,0,0,1,4.63-.85c4,0,4.95,2.11,4.95,4.83v5.5a.83.83,0,0,0,.93.93h.28v2a4.55,4.55,0,0,1-1.54.26,2,2,0,0,1-2.08-1.52h-.1a4.77,4.77,0,0,1-3.7,1.52c-2.5,0-4.06-1.23-4.06-3.9,0-2.5,2.05-3.94,4.95-3.94Zm-2.75,2.09a2,2,0,0,0-2.21,1.9,1.72,1.72,0,0,0,1.93,1.74,3.82,3.82,0,0,0,3-1.61v-2Z"/><path class="e" d="M2677.19,1283.8a3.15,3.15,0,0,0-1.36-.26c-1.39,0-2.39,1.42-2.62,3v7.83h-2.67v-13.1h1.9l.51,2h.11a3.4,3.4,0,0,1,3.34-2.29,5.67,5.67,0,0,1,1.67.26Z"/><path class="e" d="M2482.39,1312.13l5.65-7.7h2.57l-6.14,8.5,6.68,9.48-2.52.26-6.24-8.58h-2v8.32h-2.26v-18h2.26v7.7Z"/><path class="e" d="M2494.69,1316.48c.21,2.85,1.55,4.47,4.14,4.47a6.92,6.92,0,0,0,3.37-.93l.74,1.54a8.83,8.83,0,0,1-4.37,1.11c-3.64,0-6.14-2.52-6.14-6.81,0-4.06,2.08-6.81,5.78-6.81,3.52,0,5.27,2.06,5.27,5.27a10.6,10.6,0,0,1-.23,2.16Zm0-1.57h6.76a4,4,0,0,0,0-.59c0-2.06-1.08-3.55-3.21-3.55S2494.82,1312.47,2494.69,1314.91Z"/><path class="e" d="M2515,1309.31l-.51,1.72h-5.24v11.38h-2.16v-13.1Z"/><path class="e" d="M2527.12,1309.31v13.1H2525V1311h-4.06v1.08c0,7-1.16,10.43-3.94,10.43a3.63,3.63,0,0,1-1.72-.46l.62-1.67a1.73,1.73,0,0,0,1,.31c1.36,0,2-2.55,2-9.23v-2.18Z"/><path class="e" d="M2536.48,1314.09c2.82,0,4.67,1.54,4.67,4.19s-1.85,4.13-4.67,4.13h-5v-13.1h2.16v4.78Zm-2.83,1.72v4.88h2.57c1.67,0,2.72-.9,2.72-2.44s-1.05-2.44-2.72-2.44Z"/><path class="e" d="M2558.65,1314.16a4.73,4.73,0,0,1-3.47,1.44c-2.9,0-5-2.08-5-5.7a5.37,5.37,0,0,1,5.73-5.73c3.62,0,5.7,2.72,5.7,6.76a12.35,12.35,0,0,1-9.09,11.74l-.8-1.57c3-1.21,6-3.42,7-6.88Zm-2.77-8c-2.06,0-3.44,1.31-3.44,3.78s1.38,3.75,3.44,3.75a3.94,3.94,0,0,0,3.49-2.72C2559.37,1308.05,2558.19,1306.12,2555.88,1306.12Z"/><path class="e" d="M2567.6,1312.67a4.73,4.73,0,0,1,3.47-1.44c2.9,0,5,2.09,5,5.71a5.37,5.37,0,0,1-5.73,5.73c-3.62,0-5.7-2.72-5.7-6.76a12.39,12.39,0,0,1,9.15-11.74l.74,1.57a10.85,10.85,0,0,0-7,6.88Zm2.77,8c2.06,0,3.45-1.31,3.45-3.78s-1.39-3.75-3.45-3.75a3.94,3.94,0,0,0-3.49,2.72C2566.88,1318.79,2568.06,1320.72,2570.37,1320.72Z"/><path class="e" d="M2596.43,1322.41h-2.16V1311h-5.73v11.38h-2.16v-13.1h10Z"/><path class="e" d="M2599.26,1309.31h10.84l-.51,1.72h-3.91v11.38h-2.13V1311h-4.29Z"/><path class="e" d="M2620.28,1313a1.57,1.57,0,1,1-1.57,1.57A1.59,1.59,0,0,1,2620.28,1313Z"/><path class="e" d="M2638.32,1306.38v16h-2.27v-16h-5.47v-2h13.23l-.51,2Z"/><path class="e" d="M2646,1321.74v5.81l-2.15.52v-18.76h1.38l.52,1.64h.1a5.19,5.19,0,0,1,4.11-1.9c3.37,0,5.17,2.78,5.17,6.81s-1.62,6.81-5.53,6.81A6.88,6.88,0,0,1,2646,1321.74Zm6.92-5.88c0-3-1.26-5.09-3.63-5.09a4.43,4.43,0,0,0-3.29,2v7a5.43,5.43,0,0,0,3.29,1.18C2651.63,1321,2652.89,1319.1,2652.89,1315.86Z"/><path class="e" d="M2660.18,1316.48c.21,2.85,1.54,4.47,4.14,4.47a7,7,0,0,0,3.37-.93l.74,1.54a8.83,8.83,0,0,1-4.37,1.11c-3.64,0-6.14-2.52-6.14-6.81,0-4.06,2.08-6.81,5.78-6.81,3.52,0,5.27,2.06,5.27,5.27a11.36,11.36,0,0,1-.23,2.16Zm0-1.57h6.76a4,4,0,0,0,0-.59c0-2.06-1.08-3.55-3.21-3.55S2660.31,1312.47,2660.18,1314.91Z"/><path class="e" d="M2674.73,1316.53v5.88h-2.16v-13.1h2.16v5.5h1.85l3.78-5.5h2.31l-4.34,6.32,4.6,6.78-2.21.26-4.17-6.14Z"/><path class="e" d="M2685.5,1322.41v-13.1h2.15v9.43h.11l6.81-9.43h1.87v13.1h-2.16v-9.48h-.1l-6.81,9.48Z"/><path class="e" d="M2711.06,1322.41h-2.15v-5.88H2703v5.88h-2.16v-13.1H2703v5.5h5.94v-5.5h2.15Z"/><path class="e" d="M2723.35,1309.31l-.52,1.72h-5.24v11.38h-2.16v-13.1Z"/><path class="e" d="M2734.76,1312.67a4.73,4.73,0,0,1,3.47-1.44c2.9,0,5,2.09,5,5.71a5.37,5.37,0,0,1-5.73,5.73c-3.62,0-5.7-2.72-5.7-6.76a12.4,12.4,0,0,1,9.14-11.74l.75,1.57a10.85,10.85,0,0,0-7,6.88Zm2.77,8c2.06,0,3.44-1.31,3.44-3.78s-1.38-3.75-3.44-3.75a3.94,3.94,0,0,0-3.49,2.72C2734,1318.79,2735.22,1320.72,2737.53,1320.72Z"/><path class="e" d="M2751.87,1322.67c-4,0-6.17-3.16-6.17-9.25s2.21-9.25,6.17-9.25,6.17,3.16,6.17,9.25S2755.83,1322.67,2751.87,1322.67Zm0-2c2.36,0,3.88-2.16,3.88-7.3s-1.52-7.3-3.88-7.3-3.88,2.16-3.88,7.3S2749.51,1320.72,2751.87,1320.72Z"/><path class="a" d="M1758.46,1004.73h18.36L1748.88,1079c-4.46,11.74-11.34,21.6-24.3,21.6a24.21,24.21,0,0,1-15.12-4.73l8.23-13.36c2.16,1.62,3.78,2.43,6.21,2.43,2.7,0,5.81-2.57,8.51-9.18l1.89-4.73h-5.4l-29.16-66.28h19.71l20.79,48.74h.4Z"/><path class="a" d="M1792.21,1004.73h55.49v94.5h-17.28v-78.84h-21.6c0,48.87-6.48,79.51-27.68,79.51a24.59,24.59,0,0,1-9.72-1.89l3.24-14.85a12.88,12.88,0,0,0,4.32.81c9,0,13.23-18.63,13.23-75.59Z"/><path class="a" d="M1880.23,1081.41a9.59,9.59,0,1,1-9.58,9.58A9.62,9.62,0,0,1,1880.23,1081.41Z"/><path class="a" d="M1949.62,1020.39V1042h11.75c19.57,0,32.66,9.32,32.66,28.62s-13,28.62-32.66,28.62h-29v-94.5h55.35l-2.7,15.66Zm0,37.26v25.92h10.93c10.94,0,15.66-5.54,15.66-13,0-8-4.59-13-15.79-13Z"/><path class="a" d="M2015,1099.23v-94.5h54.81l-2.7,15.66h-34.83v22.14H2063v15.66h-30.78v25.38h37.53v15.66Z"/><path class="a" d="M2104.06,1004.73h55.48v94.5h-17.28v-78.84h-21.6c0,48.87-6.48,79.51-27.67,79.51a24.59,24.59,0,0,1-9.72-1.89l3.24-14.85a12.88,12.88,0,0,0,4.32.81c9.05,0,13.23-18.63,13.23-75.59Z"/><path class="a" d="M2244.86,1036.59h-.4l-42.12,62.64h-14.45v-94.5h17.28v62.77h.41l42.12-62.77h14.44v94.5h-17.28Z"/><path class="a" d="M2307.77,1042.53h35.37v-37.8h17.28v94.5h-17.28v-41h-35.37v41h-17.28v-94.5h17.28Z"/><path class="a" d="M2451.54,1093.29c-8.5,4.86-15.66,7.29-26.32,7.29-28.08,0-40.5-21.33-40.5-48.6s12.42-48.6,40.5-48.6a48.71,48.71,0,0,1,24.7,6.08l-6.88,13.9a39.7,39.7,0,0,0-17.82-4.32c-15.39,0-22.68,14.45-22.68,32.94s7.29,32.94,22.68,32.94a38.26,38.26,0,0,0,19.3-5.4Z"/><path class="a" d="M2497.85,1058.19h-6.75v41h-17.28v-94.5h17.28v37.8h7l24.43-37.8h19.31l-29.57,44.69,32.4,49.81-19.44,1.35Z"/><path class="a" d="M2592.62,1100.58c-28.08,0-39.83-21.33-39.83-48.6s11.75-48.6,39.83-48.6,39.82,21.33,39.82,48.6S2620.7,1100.58,2592.62,1100.58Zm0-81.54c-15.39,0-22,14.45-22,32.94s6.62,32.94,22,32.94,22-14.45,22-32.94S2608,1019,2592.62,1019Z"/><path class="a" d="M2674,1020.39v78.84h-17.28v-94.5h54l-2.7,15.66Z"/><path class="a" d="M2758.67,1100.58c-28.08,0-39.83-21.33-39.83-48.6s11.75-48.6,39.83-48.6,39.82,21.33,39.82,48.6S2786.75,1100.58,2758.67,1100.58Zm0-81.54c-15.39,0-22,14.45-22,32.94s6.62,32.94,22,32.94,22-14.45,22-32.94S2774.06,1019,2758.67,1019Z"/><path class="a" d="M1905.32,1205.63c8.45,2,13.82,7.4,13.82,16.71,0,13.73-10.27,18.62-23.42,18.62h-20.06v-67.19h20.06c12,0,21,4.41,21,16.12,0,8.83-5.28,13.73-11.42,15.36ZM1886,1183v19h9c6.43,0,10.94-4,10.94-9.7,0-6.14-3.94-9.31-11.33-9.31Zm0,27.84v20.93h9.12c8.26,0,13.25-4.23,13.25-10.66,0-6.82-4.7-10.27-13.34-10.27Z"/><path class="a" d="M1939.3,1241v-67.19h38l-1.92,9.21h-25.73v18.62h22.85v9.22h-22.85v20.93h27.65V1241Z"/><path class="a" d="M1998.44,1241v-67.19h10.37v58h30.43l-1.92,9.21Z"/><path class="a" d="M2052.68,1241v-9.21h11V1183h-11v-9.21h32.93l-1.92,9.21h-9.6v48.77h11V1241Z"/><path class="a" d="M2144.93,1223.78h.39v-50h10.36V1241h-11.13L2116,1191h-.39V1241h-10.36v-67.19h11.13Z"/><path class="a" d="M2208.77,1223.59c0-6.63-6.43-10.28-13.82-13.16-8.64-3.36-18.53-8.25-18.53-19.39,0-11.52,8.16-18.23,21.79-18.23a38.07,38.07,0,0,1,19.2,5.18l-4.89,8.16a25.67,25.67,0,0,0-14.31-4.13c-7.29,0-11,3-11,8.45s6.63,9,12.48,11.33c10.56,4.12,19.87,8.73,19.87,21.21,0,11.9-8.35,18.91-23.42,18.91-9.21,0-15-2.11-21.21-6l5.47-8.45a25,25,0,0,0,15.74,5.19C2203.59,1232.71,2208.77,1229.83,2208.77,1223.59Z"/><path class="a" d="M2263.2,1205.54l25,35.42-11.9,1-22.18-31.29h-5V1241h-10.37v-67.19h10.37v28h5.28l20-28h11.8Z"/><path class="a" d="M2324.64,1241.92c-20,0-27.84-15.17-27.84-34.56s7.88-34.55,27.84-34.55,27.84,15.16,27.84,34.55S2344.61,1241.92,2324.64,1241.92Zm0-59.9c-12.28,0-17.08,11.14-17.08,25.34s4.8,25.35,17.08,25.35,17.09-11.14,17.09-25.35S2336.93,1182,2324.64,1182Z"/><path class="a" d="M2380.52,1207.36c0,14.21,5.18,25.35,17.85,25.35a23.51,23.51,0,0,0,9.7-1.83v-17.09h-11.81v-9h21.5v31c-6.53,4.51-11.81,6.14-19.77,6.14-20,0-28.23-15.17-28.23-34.56s8.26-34.55,28.23-34.55a36.37,36.37,0,0,1,18.23,4.32l-4.12,8.35A29.44,29.44,0,0,0,2398,1182C2385.7,1182,2380.52,1193.16,2380.52,1207.36Z"/><path class="a" d="M2463.36,1241.92c-20,0-27.84-15.17-27.84-34.56s7.88-34.55,27.84-34.55,27.84,15.16,27.84,34.55S2483.33,1241.92,2463.36,1241.92Zm0-59.9c-12.28,0-17.08,11.14-17.08,25.34s4.8,25.35,17.08,25.35,17.09-11.14,17.09-25.35S2475.65,1182,2463.36,1182Z"/><path class="a" d="M2572.13,1223.59c0-6.63-6.43-10.28-13.82-13.16-8.64-3.36-18.53-8.25-18.53-19.39,0-11.52,8.16-18.23,21.79-18.23a38.07,38.07,0,0,1,19.2,5.18l-4.9,8.16a25.63,25.63,0,0,0-14.3-4.13c-7.3,0-11,3-11,8.45s6.62,9,12.48,11.33c10.56,4.12,19.87,8.73,19.87,21.21,0,11.9-8.35,18.91-23.42,18.91-9.22,0-15-2.11-21.22-6l5.48-8.45a25,25,0,0,0,15.74,5.19C2567,1232.71,2572.13,1229.83,2572.13,1223.59Z"/><path class="a" d="M2625.7,1183v58h-10.37v-58h-20v-9.21h50.4l-1.92,9.21Z"/><path class="a" d="M2657.86,1229.25a6.34,6.34,0,1,1-6.34,6.34A6.39,6.39,0,0,1,2657.86,1229.25Z"/><g class="f"><rect class="g" x="2253.57" width="1.76" height="21.44"/><rect class="g" x="2253.57" y="31.93" width="1.76" height="21.44"/><rect class="g" x="2253.57" y="63.85" width="1.76" height="21.44"/><rect class="g" x="2253.57" y="95.78" width="1.76" height="21.43"/><rect class="g" x="2253.57" y="127.7" width="1.76" height="21.44"/><rect class="g" x="2253.57" y="159.63" width="1.76" height="21.43"/><rect class="g" x="2253.57" y="191.55" width="1.76" height="21.43"/><rect class="g" x="2253.57" y="223.48" width="1.76" height="21.44"/><rect class="g" x="2253.57" y="255.4" width="1.76" height="21.44"/><rect class="g" x="2253.57" y="287.33" width="1.76" height="21.44"/><rect class="g" x="2253.57" y="319.26" width="1.76" height="21.43"/><rect class="g" x="2253.57" y="351.18" width="1.76" height="21.44"/><rect class="g" x="2253.57" y="383.11" width="1.76" height="21.43"/><rect class="g" x="2253.57" y="415.03" width="1.76" height="21.43"/></g><g class="f"><rect class="g" x="2253.57" y="448.85" width="1.76" height="21.44"/><rect class="g" x="2253.57" y="480.77" width="1.76" height="21.44"/><rect class="g" x="2253.57" y="512.7" width="1.76" height="21.44"/><rect class="g" x="2253.57" y="544.63" width="1.76" height="21.43"/><rect class="g" x="2253.57" y="576.55" width="1.76" height="21.44"/><rect class="g" x="2253.57" y="608.48" width="1.76" height="21.43"/><rect class="g" x="2253.57" y="640.4" width="1.76" height="21.43"/><rect class="g" x="2253.57" y="672.33" width="1.76" height="21.44"/><rect class="g" x="2253.57" y="704.25" width="1.76" height="21.44"/><rect class="g" x="2253.57" y="736.18" width="1.76" height="21.44"/><rect class="g" x="2253.57" y="768.11" width="1.76" height="21.43"/><rect class="g" x="2253.57" y="800.03" width="1.76" height="21.44"/><rect class="g" x="2253.57" y="831.96" width="1.76" height="21.43"/><rect class="g" x="2253.57" y="863.88" width="1.76" height="21.43"/></g><path class="g" d="M1709.14,110.72h-12l.7-3.36H1713v3l-8.54,21.49h-4Z"/><path class="g" d="M1724,132.22c-5.39,0-8.58-4.31-8.58-12.6S1718.63,107,1724,107s8.57,4.31,8.57,12.61S1729.41,132.22,1724,132.22Zm0-3.36c2.8,0,4.76-2.73,4.76-9.24s-2-9.24-4.76-9.24-4.76,2.73-4.76,9.24S1721.22,128.86,1724,128.86Z"/><path class="h" d="M1700.06,412V433.1h5.67v3.36H1690V433.1h6.41V415.32h-5.88l.7-3.36Z"/><path class="h" d="M1720.36,415.32h-12l.7-3.36h15.23v3l-8.54,21.49h-4Z"/><path class="h" d="M1735.24,436.81c-5.39,0-8.58-4.3-8.58-12.6s3.19-12.6,8.58-12.6,8.57,4.31,8.57,12.6S1740.63,436.81,1735.24,436.81Zm0-3.36c2.8,0,4.76-2.73,4.76-9.24s-2-9.24-4.76-9.24-4.77,2.73-4.77,9.24S1732.44,433.45,1735.24,433.45Z"/><path class="h" d="M1709.49,1198.64v21.14h5.67v3.36h-15.75v-3.36h6.41V1202h-5.88l.7-3.36Z"/><path class="h" d="M1729.23,1212.36a6.29,6.29,0,0,1-4.44,1.51c-4.17,0-7-2.77-7-7.71s3.4-7.87,8-7.87c4.94,0,8,3.32,8,9,0,8.76-4.9,14.11-12.15,16.21l-1.33-2.87c4.17-1.57,8-3.95,9.14-8.19Zm-3.5-10.71c-2.38,0-4.2,1.61-4.2,4.51s1.82,4.52,4.2,4.52a4.72,4.72,0,0,0,4.24-3C1730,1204.13,1728.43,1201.65,1725.73,1201.65Z"/><path class="g" d="M1710.82,921a4.77,4.77,0,0,0-5.11-5,12.36,12.36,0,0,0-5.07,1.05V904.42h13.09l-.7,3.36h-8.72V913a12,12,0,0,1,2.17-.21c4.49,0,8.16,2.66,8.16,8.22,0,5.39-3.85,8.23-8.3,8.23a12.26,12.26,0,0,1-7.1-2.07l1.78-2.94a8.48,8.48,0,0,0,5.08,1.65A4.48,4.48,0,0,0,1710.82,921Z"/><path class="g" d="M1722.37,915.37a6.41,6.41,0,0,1,4.45-1.68c4,0,7,2.56,7,7.7s-3.44,7.88-8,7.88c-4.93,0-7.94-3.71-7.94-9.21,0-8.47,5.28-13.89,12.53-16l1.29,2.8c-4,1.43-8.19,4-9.48,8.43Zm3.5,10.54c2.38,0,4.17-1.61,4.17-4.52s-1.79-4.34-4.17-4.34a4.68,4.68,0,0,0-4.23,3C1721.64,923.56,1723.18,925.91,1725.87,925.91Z"/><path class="g" d="M1704.66,738h10l-.7,3.36h-14.7v-3c4.79-3.6,10.88-10,10.88-14.66,0-2.35-1.15-3.82-3.64-3.82a9.47,9.47,0,0,0-5.14,1.65l-1.68-2.94a13.92,13.92,0,0,1,7.49-2.07c4.3,0,6.79,2.45,6.79,6.72,0,5.39-5,11.24-9.28,14.63Z"/><path class="g" d="M1725.8,741.71c-5.39,0-8.57-4.3-8.57-12.6s3.18-12.6,8.57-12.6,8.58,4.31,8.58,12.6S1731.19,741.71,1725.8,741.71Zm0-3.36c2.8,0,4.76-2.73,4.76-9.24s-2-9.24-4.76-9.24-4.76,2.73-4.76,9.24S1723,738.35,1725.8,738.35Z"/><g class="j"><path class="e" d="M1714.16,979.88c0,5.39-3.85,7.91-8.29,7.91a12.32,12.32,0,0,1-7.11-2.07l1.79-2.94a8.45,8.45,0,0,0,5.07,1.65c2.7,0,4.73-1.4,4.73-4.52s-2.1-4.55-4.87-4.55h-1.82v-1.89l5.25-7v-.14h-9.34l.7-3.36h12.81v3l-5,6.65v.1C1711.36,973.26,1714.16,975.15,1714.16,979.88Z"/><path class="e" d="M1730.79,962.94,1722,978.23v.14h5.56v-4.44h3.68v4.44h4l-.7,3.33h-3.32v5.74h-3.68V981.7h-10v-3l9-15.78Z"/></g><path class="h" d="M1714.29,802.39c0,5.39-3.85,7.91-8.3,7.91a12.26,12.26,0,0,1-7.1-2.07l1.78-2.94a8.48,8.48,0,0,0,5.08,1.65c2.69,0,4.72-1.4,4.72-4.52s-2.1-4.55-4.86-4.55h-1.82V796l5.25-7v-.14h-9.35l.7-3.36h12.81v3l-5,6.65v.1C1711.49,795.77,1714.29,797.66,1714.29,802.39Z"/><path class="h" d="M1725.8,810.3c-5.39,0-8.57-4.31-8.57-12.6s3.18-12.6,8.57-12.6,8.58,4.3,8.58,12.6S1731.19,810.3,1725.8,810.3Zm0-3.36c2.8,0,4.76-2.73,4.76-9.24s-2-9.24-4.76-9.24-4.76,2.73-4.76,9.24S1723,806.94,1725.8,806.94Z"/><path class="g" d="M1710.37,1138.56a6.29,6.29,0,0,1-4.45,1.5c-4.16,0-7-2.76-7-7.7,0-4.79,3.39-7.87,8-7.87,4.93,0,7.94,3.32,7.94,9,0,8.75-4.9,14.11-12.14,16.21l-1.33-2.87c4.16-1.57,8-4,9.13-8.19Zm-3.5-10.71c-2.38,0-4.2,1.61-4.2,4.51s1.82,4.52,4.2,4.52a4.73,4.73,0,0,0,4.23-3.05C1711.1,1130.33,1709.56,1127.85,1706.87,1127.85Z"/><path class="g" d="M1733.15,1141.78c0,5.39-3.85,7.91-8.29,7.91a12.32,12.32,0,0,1-7.11-2.06l1.79-2.94a8.44,8.44,0,0,0,5.07,1.64c2.7,0,4.73-1.4,4.73-4.52s-2.1-4.55-4.87-4.55h-1.82v-1.89l5.25-7v-.14h-9.34l.7-3.36h12.81v3l-5,6.65v.1C1730.35,1135.16,1733.15,1137.05,1733.15,1141.78Z"/><path class="g" d="M1699.06,1347.17a6.94,6.94,0,0,1,4.06-6.16v-.1a6.2,6.2,0,0,1-3.29-5.57c0-3.92,2.66-6.37,7.11-6.37s7.11,2.45,7.11,6.37a6.24,6.24,0,0,1-3.3,5.6v.11a6.86,6.86,0,0,1,4.06,6.12c0,4.41-3.08,7-7.87,7S1699.06,1351.58,1699.06,1347.17Zm6.72-4.83a5.5,5.5,0,0,0-3.08,4.83c0,2.56,1.79,3.64,4.24,3.64s4.23-1.22,4.23-3.64c0-2.1-1.85-3.32-3.92-4.2Zm1-3.11,1.12.45a5.18,5.18,0,0,0,2.52-4.34c0-1.89-1.47-3-3.46-3s-3.47,1.12-3.47,3C1703.47,1337.44,1705,1338.49,1706.76,1339.23Z"/><path class="g" d="M1725.8,1354.17c-5.39,0-8.57-4.3-8.57-12.6s3.18-12.6,8.57-12.6,8.58,4.3,8.58,12.6S1731.19,1354.17,1725.8,1354.17Zm0-3.36c2.8,0,4.76-2.73,4.76-9.24s-2-9.24-4.76-9.24-4.76,2.73-4.76,9.24S1723,1350.81,1725.8,1350.81Z"/><rect class="i" x="2836.39" y="22.06" width="112.55" height="1444.68"/><rect class="i" x="1559.96" y="22.06" width="113.06" height="1445.79"/><path class="a" d="M2042.18,760.3v72.48h19.44V844.3h-54V832.78h22v-61h-20.16l2.4-11.52Z"/><path class="a" d="M2109.26,760.3v72.48h19.44V844.3h-54V832.78h22v-61H2076.5l2.4-11.52Z"/><path class="a" d="M2292,774.58l8.28-8.28,36,36-36,36L2292,830l21.72-21.36v-.36H2173.82v-12h139.91v-.36Z"/><path class="a" d="M2418.5,760.3v72.48h19.43V844.3h-54V832.78h22v-61h-20.16l2.4-11.52Z"/><path class="a" d="M2488.58,807.34c-3.84,3.6-9.12,5.16-15.24,5.16-14.28,0-24.12-9.48-24.12-26.4,0-16.44,11.64-27,27.36-27,16.92,0,27.23,11.4,27.23,30.84,0,30-16.79,48.36-41.63,55.56l-4.56-9.84c14.28-5.4,27.36-13.56,31.32-28.08Zm-12-36.72c-8.16,0-14.4,5.52-14.4,15.48s6.24,15.48,14.4,15.48c6.12,0,12-4.2,14.52-10.44C2491.1,779.14,2485.82,770.62,2476.58,770.62Z"/></svg>